<svg width="98" height="19" viewBox="0 0 98 19" fill="none" xmlns="http://www.w3.org/2000/svg">
<path d="M7.416 17.976C7.488 18.12 7.656 18.24 7.824 18.24H8.064C8.256 18.24 8.4 18.12 8.472 17.976L15.84 1.824C15.984 1.512 15.792 1.2 15.432 1.2H13.728C13.512 1.2 13.368 1.344 13.32 1.464L8.04 13.344H7.896L2.616 1.464C2.568 1.344 2.4 1.2 2.208 1.2H0.504C0.144 1.2 -0.048 1.512 0.096 1.824L7.416 17.976ZM21.7243 9.624C21.7243 14.424 25.5403 18.24 30.3403 18.24C35.1403 18.24 38.9803 14.424 38.9803 9.624C38.9803 4.824 35.1403 0.959999 30.3403 0.959999C25.5403 0.959999 21.7243 4.824 21.7243 9.624ZM24.1243 9.624C24.1243 6.216 26.9323 3.36 30.3403 3.36C33.7723 3.36 36.5803 6.216 36.5803 9.624C36.5803 13.056 33.7723 15.84 30.3403 15.84C26.9323 15.84 24.1243 13.056 24.1243 9.624ZM47.2014 17.544C47.2014 17.784 47.3934 18 47.6574 18H49.2174C49.4574 18 49.6734 17.784 49.6734 17.544V11.424H53.2974L56.4894 17.784C56.5374 17.88 56.6814 18 56.8734 18H58.7454C59.1534 18 59.3214 17.616 59.1534 17.304L55.8654 11.208C57.9534 10.368 59.4174 8.544 59.4174 6.336C59.4174 3.48 57.0654 1.2 54.1854 1.2H47.6574C47.3934 1.2 47.2014 1.416 47.2014 1.656V17.544ZM49.7214 9.36V3.528H53.9934C55.5534 3.528 56.9214 4.824 56.9214 6.384C56.9214 8.04 55.5534 9.36 53.9934 9.36H49.7214ZM70.2664 17.544C70.2664 17.784 70.4824 18 70.7224 18H72.3064C72.5464 18 72.7624 17.784 72.7624 17.544V3.456H76.6744C76.9384 3.456 77.1304 3.24 77.1304 3V1.656C77.1304 1.416 76.9384 1.2 76.6744 1.2H66.3544C66.0904 1.2 65.8984 1.416 65.8984 1.656V3C65.8984 3.24 66.0904 3.456 66.3544 3.456H70.2664V17.544ZM81.7659 18H83.2779C83.5659 18 83.7579 17.808 83.8299 17.64C84.3099 16.536 84.8139 15.456 85.2939 14.352H93.1419L94.6299 17.64C94.7259 17.856 94.8939 18 95.1819 18H96.6939C97.0539 18 97.2459 17.688 97.1019 17.376L89.7819 1.224C89.7099 1.08 89.4939 0.959999 89.3739 0.959999H89.1339C89.0139 0.959999 88.7979 1.08 88.7259 1.224L81.3579 17.376C81.2139 17.688 81.4059 18 81.7659 18ZM86.2299 12.288L89.1579 5.712H89.2779L92.2299 12.288H86.2299Z" fill="white"/>
</svg>
