<?xml version="1.0" standalone="no"?>
<!DOCTYPE svg PUBLIC "-//W3C//DTD SVG 20010904//EN"
 "http://www.w3.org/TR/2001/REC-SVG-20010904/DTD/svg10.dtd">
<svg version="1.0" xmlns="http://www.w3.org/2000/svg"
 width="1322.000000pt" height="1322.000000pt" viewBox="0 0 1322.000000 1322.000000"
 preserveAspectRatio="xMidYMid meet">
<metadata>
Created by potrace 1.11, written by Peter Selinger 2001-2013
</metadata>
<g transform="translate(0.000000,1322.000000) scale(0.100000,-0.100000)"
fill="#000000" stroke="none">
<path d="M1585 13204 c-55 -7 -109 -15 -120 -18 -171 -38 -262 -68 -397 -127
-216 -95 -416 -239 -578 -414 -30 -33 -57 -62 -60 -65 -57 -57 -193 -267 -249
-385 -50 -104 -114 -280 -127 -349 -2 -12 -6 -32 -9 -46 -8 -40 -12 -60 -26
-145 -19 -120 -20 -9924 -1 -10070 35 -267 136 -546 270 -750 153 -231 385
-456 592 -575 196 -112 448 -205 609 -226 25 -3 60 -9 76 -13 17 -4 68 -9 115
-11 161 -7 9785 -4 9880 3 227 17 434 73 646 177 99 49 273 155 294 179 3 3
23 19 45 35 22 16 90 79 150 140 298 300 478 686 512 1101 9 106 9 9848 0
9945 -4 41 -8 84 -10 95 -3 11 -7 36 -11 55 -11 60 -14 73 -30 137 -173 664
-714 1169 -1401 1309 -11 2 -42 7 -70 10 -27 4 -54 9 -60 13 -5 3 -2244 6
-4975 7 -3936 0 -4986 -3 -5065 -12z"/>
</g>
</svg>
