<svg width="146" height="383" viewBox="0 0 146 383" fill="none" xmlns="http://www.w3.org/2000/svg">
<path d="M76.207 261L75 382" stroke="#222222"/>
<line x1="72.5" y1="-2.18557e-08" x2="72.5" y2="141" stroke="#222222"/>
<line x1="123.279" y1="160.415" x2="22.2792" y2="228.415" stroke="#222222"/>
<line x1="122.717" y1="160.412" x2="74.7167" y2="127.412" stroke="#222222"/>
<line x1="75.7336" y1="262.423" x2="21.7336" y2="228.423" stroke="#222222"/>
<g filter="url(#filter0_d)">
<path d="M110.642 178.273L101.392 162.273L110.642 146.273H129.142L138.392 162.273C134.78 168.521 132.754 172.025 129.142 178.273H110.642Z" fill="white"/>
<path d="M110.876 177.587H128.712L137.632 162.14L128.712 146.696H110.876L101.957 162.14L110.876 177.587ZM129.692 179.282H109.896L100 162.14L109.896 145H129.692L139.588 162.14L129.692 179.282Z" fill="#222222"/>
<path d="M124.625 165C124.812 165 125 164.844 125 164.625V163.375C125 163.188 124.812 163 124.625 163H123.375C123.156 163 123 163.188 123 163.375V164.625C123 164.844 123.156 165 123.375 165H124.625ZM121 164.625V163.375C121 163.188 120.812 163 120.625 163H119.375C119.156 163 119 163.188 119 163.375V164.625C119 164.844 119.156 165 119.375 165H120.625C120.812 165 121 164.844 121 164.625ZM117 164.625V163.375C117 163.188 116.812 163 116.625 163H115.375C115.156 163 115 163.188 115 163.375V164.625C115 164.844 115.156 165 115.375 165H116.625C116.812 165 117 164.844 117 164.625ZM128 158.75C128 158.188 127.406 157.844 126.906 158.094L122 160.562V158.75C122 158.188 121.406 157.844 120.906 158.094L116 160.562V154.75C116 154.344 115.656 154 115.25 154H112.75C112.312 154 112 154.344 112 154.75V167.25C112 167.688 112.312 168 112.75 168H127.25C127.656 168 128 167.688 128 167.25V158.75ZM115 161.75C115 161.938 115.188 162.062 115.344 162L121 159.156V161.75C121 161.938 121.188 162.062 121.344 162L127 159.156V167H113V155H115V161.75Z" fill="#222222"/>
</g>
<g filter="url(#filter1_d)">
<path d="M16.8574 246.273L6.35742 230.273L16.8574 214.273L34.9998 214L44.4998 230.273C40.8874 236.521 38.6121 240.025 34.9998 246.273H16.8574Z" fill="white"/>
<path d="M16.8764 245.587H34.712L43.6315 230.14L34.712 214.696H16.8764L7.95687 230.14L16.8764 245.587ZM35.6922 247.282H15.8962L6 230.14L15.8962 213H35.6922L45.5884 230.14L35.6922 247.282Z" fill="url(#paint0_linear)"/>
<path d="M16.8764 245.587H34.712L43.6315 230.14L34.712 214.696H16.8764L7.95687 230.14L16.8764 245.587ZM35.6922 247.282H15.8962L6 230.14L15.8962 213H35.6922L45.5884 230.14L35.6922 247.282Z" fill="url(#paint1_linear)"/>
<path d="M36.75 234H36V230.625C36 230.125 35.7812 229.594 35.4062 229.219L32.7812 226.594C32.4062 226.219 31.9062 226 31.375 226H30V224.469C30 223.656 29.2812 223 28.4375 223H18.5312C17.6875 223 17 223.656 17 224.469V233.562C17 234.375 17.6875 235 18.5312 235H19.0312C19 235.188 19 235.344 19 235.5C19 236.906 20.0938 238 21.5 238C22.875 238 24 236.906 24 235.5C24 235.344 23.9688 235.188 23.9375 235H30.0312C30 235.188 30 235.344 30 235.5C30 236.906 31.0938 238 32.5 238C33.875 238 35 236.906 35 235.5C35 235.344 34.9688 235.188 34.9375 235H36.75C36.875 235 37 234.906 37 234.75V234.25C37 234.125 36.875 234 36.75 234ZM31.375 227C31.625 227 31.875 227.125 32.0625 227.312L34.6875 229.938C34.7188 229.969 34.7188 230 34.75 230.031H30V227.031H31.375V227ZM21.5 237C20.6562 237 20 236.344 20 235.5C20 234.688 20.6562 234 21.5 234C22.3125 234 23 234.688 23 235.5C23 236.344 22.3125 237 21.5 237ZM23.4688 234C23.0312 233.406 22.3125 233 21.5 233C20.6875 233 19.9688 233.406 19.5 234H18.5312C18.2188 234 18 233.812 18 233.562V224.469C18 224.219 18.2188 224 18.5312 224H28.4375C28.75 224 29 224.219 29 224.469V234H23.4688ZM32.5 237C31.6562 237 31 236.344 31 235.5C31 234.688 31.6562 234 32.5 234C33.3125 234 34 234.688 34 235.5C34 236.344 33.3125 237 32.5 237ZM32.5 233C31.6562 233 30.9688 233.406 30.5 234H30V231H35V234H34.4688C34.0312 233.406 33.3125 233 32.5 233Z" fill="#222222"/>
</g>
<g filter="url(#filter2_d)">
<path d="M66.8574 278.273L56.3574 262.273L66.8574 246.273L84.9998 246L94.4998 262.273C90.8874 268.521 88.6121 272.025 84.9998 278.273H66.8574Z" fill="white"/>
<path d="M66.8764 277.587H84.712L93.6315 262.14L84.712 246.696H66.8764L57.9569 262.14L66.8764 277.587ZM85.6922 279.282H65.8962L56 262.14L65.8962 245H85.6922L95.5884 262.14L85.6922 279.282Z" fill="url(#paint2_linear)"/>
<path d="M66.8764 277.587H84.712L93.6315 262.14L84.712 246.696H66.8764L57.9569 262.14L66.8764 277.587ZM85.6922 279.282H65.8962L56 262.14L65.8962 245H85.6922L95.5884 262.14L85.6922 279.282Z" fill="url(#paint3_linear)"/>
<path d="M76 262C78.1875 262 80 260.219 80 258C80 255.812 78.1875 254 76 254C73.7812 254 72 255.812 72 258C72 260.219 73.7812 262 76 262ZM76 255C77.625 255 79 256.375 79 258C79 259.656 77.625 261 76 261C74.3438 261 73 259.656 73 258C73 256.375 74.3438 255 76 255ZM78.8438 263.531L77.625 267.812L76.5625 264.656L77.3438 263.875C77.6562 263.562 77.4375 263 77 263H75C74.5312 263 74.3125 263.562 74.625 263.875L75.4062 264.656L74.3438 267.812L73.125 263.531C70.8125 263.562 69 265.406 69 267.719V268.5C69 269.344 69.6562 270 70.5 270H81.5C82.3125 270 83 269.344 83 268.5V267.719C83 265.406 81.1562 263.562 78.8438 263.531ZM70.5 269C70.2188 269 70 268.781 70 268.5V267.719C70 266.25 71 264.969 72.375 264.625L73.6562 269H70.5ZM75 269L76 266.094L76.9688 269H75ZM82 268.5C82 268.781 81.75 269 81.5 269H78.3125L79.5938 264.625C80.9688 264.969 81.9688 266.25 81.9688 267.719V268.5H82Z" fill="#222222"/>
</g>
<g filter="url(#filter3_d)">
<path d="M63.8574 142.273L53.3574 126.273L63.8574 110.273L81.9998 110L91.4998 126.273C87.8874 132.521 85.6121 136.025 81.9998 142.273H63.8574Z" fill="white"/>
<path d="M63.8764 141.587H81.712L90.6315 126.14L81.712 110.696H63.8764L54.9569 126.14L63.8764 141.587ZM82.6922 143.282H62.8962L53 126.14L62.8962 109H82.6922L92.5884 126.14L82.6922 143.282Z" fill="url(#paint4_linear)"/>
<path d="M63.8764 141.587H81.712L90.6315 126.14L81.712 110.696H63.8764L54.9569 126.14L63.8764 141.587ZM82.6922 143.282H62.8962L53 126.14L62.8962 109H82.6922L92.5884 126.14L82.6922 143.282Z" fill="url(#paint5_linear)"/>
<path d="M63.8764 141.587H81.712L90.6315 126.14L81.712 110.696H63.8764L54.9569 126.14L63.8764 141.587ZM82.6922 143.282H62.8962L53 126.14L62.8962 109H82.6922L92.5884 126.14L82.6922 143.282Z" fill="#222222"/>
<path d="M75.2969 125.094H71.5781C71.4121 125.094 71.3125 125.227 71.3125 125.359V125.891C71.3125 126.057 71.4121 126.156 71.5781 126.156H75.2969C75.4297 126.156 75.5625 126.057 75.5625 125.891V125.359C75.5625 125.227 75.4297 125.094 75.2969 125.094ZM75.2969 128.281H71.5781C71.4121 128.281 71.3125 128.414 71.3125 128.547V129.078C71.3125 129.244 71.4121 129.344 71.5781 129.344H75.2969C75.4297 129.344 75.5625 129.244 75.5625 129.078V128.547C75.5625 128.414 75.4297 128.281 75.2969 128.281ZM69.7188 124.828C69.2539 124.828 68.9219 125.193 68.9219 125.625C68.9219 126.09 69.2539 126.422 69.7188 126.422C70.1504 126.422 70.5156 126.09 70.5156 125.625C70.5156 125.193 70.1504 124.828 69.7188 124.828ZM69.7188 128.016C69.2539 128.016 68.9219 128.381 68.9219 128.812C68.9219 129.277 69.2539 129.609 69.7188 129.609C70.1504 129.609 70.5156 129.277 70.5156 128.812C70.5156 128.381 70.1504 128.016 69.7188 128.016ZM77.1562 119.25H74.2012C74.2012 119.184 74.2344 119.084 74.2344 118.984C74.2344 117.988 73.3711 117.125 72.375 117.125C71.3457 117.125 70.5156 117.988 70.5156 118.984C70.5156 119.084 70.5156 119.184 70.5156 119.25H67.5938C66.6973 119.25 66 119.98 66 120.844V132.531C66 133.428 66.6973 134.125 67.5938 134.125H77.1562C78.0195 134.125 78.75 133.428 78.75 132.531V120.844C78.75 119.98 78.0195 119.25 77.1562 119.25ZM72.375 118.188C72.8066 118.188 73.1719 118.553 73.1719 118.984C73.1719 119.449 72.8066 119.781 72.375 119.781C71.9102 119.781 71.5781 119.449 71.5781 118.984C71.5781 118.553 71.9102 118.188 72.375 118.188ZM77.6875 132.531C77.6875 132.83 77.4219 133.062 77.1562 133.062H67.5938C67.2949 133.062 67.0625 132.83 67.0625 132.531V120.844C67.0625 120.578 67.2949 120.312 67.5938 120.312H69.1875V120.977C69.1875 121.209 69.3535 121.375 69.5859 121.375H75.1641C75.3633 121.375 75.5625 121.209 75.5625 120.977V120.312H77.1562C77.4219 120.312 77.6875 120.578 77.6875 120.844V132.531Z" fill="#222222"/>
</g>
<g filter="url(#filter4_d)">
<path d="M64.6421 210.282L55.3921 194.282L64.6421 178.282H83.1421L92.3921 194.282C88.7797 200.53 86.7544 204.034 83.1421 210.282H64.6421Z" fill="white"/>
<path d="M64.8764 209.587H82.712L91.6315 194.14L82.712 178.696H64.8764L55.9569 194.14L64.8764 209.587ZM83.6922 211.282H63.8962L54 194.14L63.8962 177H83.6922L93.5884 194.14L83.6922 211.282Z" fill="#222222"/>
<path d="M83.5 192.282H79V185.782C79 185.532 78.75 185.282 78.5 185.282H69.5C69.2188 185.282 69 185.532 69 185.782V192.282H64.5C64.2188 192.282 64 192.532 64 192.782V200.782C64 201.064 64.2188 201.282 64.5 201.282H83.5C83.75 201.282 84 201.064 84 200.782V192.782C84 192.532 83.75 192.282 83.5 192.282ZM80 193.282V195.282H78V193.282H80ZM73 186.282H75V188.282H73V186.282ZM70 186.282H72V188.282C72 188.845 72.4375 189.282 73 189.282H75C75.5312 189.282 76 188.845 76 188.282V186.282H78V192.282H70V186.282ZM68 193.282H70V195.282H68V193.282ZM73.5 200.282H65V193.282H67V195.282C67 195.845 67.4375 196.282 68 196.282H70C70.5312 196.282 71 195.845 71 195.282V193.282H73.5V200.282ZM83 200.282H74.5V193.282H77V195.282C77 195.845 77.4375 196.282 78 196.282H80C80.5312 196.282 81 195.845 81 195.282V193.282H83V200.282Z" fill="#222222"/>
</g>
<defs>
<filter id="filter0_d" x="94" y="143" width="51.5884" height="46.2825" filterUnits="userSpaceOnUse" color-interpolation-filters="sRGB">
<feFlood flood-opacity="0" result="BackgroundImageFix"/>
<feColorMatrix in="SourceAlpha" type="matrix" values="0 0 0 0 0 0 0 0 0 0 0 0 0 0 0 0 0 0 127 0"/>
<feOffset dy="4"/>
<feGaussianBlur stdDeviation="3"/>
<feColorMatrix type="matrix" values="0 0 0 0 0 0 0 0 0 0 0 0 0 0 0 0 0 0 0.25 0"/>
<feBlend mode="normal" in2="BackgroundImageFix" result="effect1_dropShadow"/>
<feBlend mode="normal" in="SourceGraphic" in2="effect1_dropShadow" result="shape"/>
</filter>
<filter id="filter1_d" x="0" y="211" width="51.5884" height="46.2825" filterUnits="userSpaceOnUse" color-interpolation-filters="sRGB">
<feFlood flood-opacity="0" result="BackgroundImageFix"/>
<feColorMatrix in="SourceAlpha" type="matrix" values="0 0 0 0 0 0 0 0 0 0 0 0 0 0 0 0 0 0 127 0"/>
<feOffset dy="4"/>
<feGaussianBlur stdDeviation="3"/>
<feColorMatrix type="matrix" values="0 0 0 0 0 0 0 0 0 0 0 0 0 0 0 0 0 0 0.25 0"/>
<feBlend mode="normal" in2="BackgroundImageFix" result="effect1_dropShadow"/>
<feBlend mode="normal" in="SourceGraphic" in2="effect1_dropShadow" result="shape"/>
</filter>
<filter id="filter2_d" x="50" y="243" width="51.5884" height="46.2825" filterUnits="userSpaceOnUse" color-interpolation-filters="sRGB">
<feFlood flood-opacity="0" result="BackgroundImageFix"/>
<feColorMatrix in="SourceAlpha" type="matrix" values="0 0 0 0 0 0 0 0 0 0 0 0 0 0 0 0 0 0 127 0"/>
<feOffset dy="4"/>
<feGaussianBlur stdDeviation="3"/>
<feColorMatrix type="matrix" values="0 0 0 0 0 0 0 0 0 0 0 0 0 0 0 0 0 0 0.25 0"/>
<feBlend mode="normal" in2="BackgroundImageFix" result="effect1_dropShadow"/>
<feBlend mode="normal" in="SourceGraphic" in2="effect1_dropShadow" result="shape"/>
</filter>
<filter id="filter3_d" x="47" y="107" width="51.5884" height="46.2825" filterUnits="userSpaceOnUse" color-interpolation-filters="sRGB">
<feFlood flood-opacity="0" result="BackgroundImageFix"/>
<feColorMatrix in="SourceAlpha" type="matrix" values="0 0 0 0 0 0 0 0 0 0 0 0 0 0 0 0 0 0 127 0"/>
<feOffset dy="4"/>
<feGaussianBlur stdDeviation="3"/>
<feColorMatrix type="matrix" values="0 0 0 0 0 0 0 0 0 0 0 0 0 0 0 0 0 0 0.25 0"/>
<feBlend mode="normal" in2="BackgroundImageFix" result="effect1_dropShadow"/>
<feBlend mode="normal" in="SourceGraphic" in2="effect1_dropShadow" result="shape"/>
</filter>
<filter id="filter4_d" x="48" y="175" width="51.5884" height="46.2825" filterUnits="userSpaceOnUse" color-interpolation-filters="sRGB">
<feFlood flood-opacity="0" result="BackgroundImageFix"/>
<feColorMatrix in="SourceAlpha" type="matrix" values="0 0 0 0 0 0 0 0 0 0 0 0 0 0 0 0 0 0 127 0"/>
<feOffset dy="4"/>
<feGaussianBlur stdDeviation="3"/>
<feColorMatrix type="matrix" values="0 0 0 0 0 0 0 0 0 0 0 0 0 0 0 0 0 0 0.25 0"/>
<feBlend mode="normal" in2="BackgroundImageFix" result="effect1_dropShadow"/>
<feBlend mode="normal" in="SourceGraphic" in2="effect1_dropShadow" result="shape"/>
</filter>
<linearGradient id="paint0_linear" x1="-134.921" y1="236.735" x2="134.2" y2="235.59" gradientUnits="userSpaceOnUse">
<stop stop-color="#80203B"/>
<stop offset="0.0348449" stop-color="#80203B"/>
<stop offset="0.225296" stop-color="#F57336"/>
<stop offset="0.258693" stop-color="#F57336"/>
<stop offset="0.359375" stop-color="#3B7FA4"/>
<stop offset="0.619792" stop-color="#222222"/>
<stop offset="0.778656" stop-color="#4DAAAB"/>
<stop offset="0.787808" stop-color="#4DAAAB"/>
<stop offset="0.996047" stop-color="#004563"/>
<stop offset="0.99606" stop-color="#004563"/>
<stop offset="1" stop-color="#004563"/>
</linearGradient>
<linearGradient id="paint1_linear" x1="-134.921" y1="236.735" x2="134.2" y2="235.59" gradientUnits="userSpaceOnUse">
<stop stop-color="#80203B"/>
<stop offset="0.0348449" stop-color="#80203B"/>
<stop offset="0.225296" stop-color="#F57336"/>
<stop offset="0.258693" stop-color="#F57336"/>
<stop offset="0.359375" stop-color="#3B7FA4"/>
<stop offset="0.619792" stop-color="#222222"/>
<stop offset="0.778656" stop-color="#4DAAAB"/>
<stop offset="0.787808" stop-color="#4DAAAB"/>
<stop offset="0.996047" stop-color="#004563"/>
<stop offset="0.99606" stop-color="#004563"/>
<stop offset="1" stop-color="#004563"/>
</linearGradient>
<linearGradient id="paint2_linear" x1="-84.9208" y1="268.735" x2="184.2" y2="267.59" gradientUnits="userSpaceOnUse">
<stop stop-color="#80203B"/>
<stop offset="0.0348449" stop-color="#80203B"/>
<stop offset="0.225296" stop-color="#F57336"/>
<stop offset="0.258693" stop-color="#F57336"/>
<stop offset="0.359375" stop-color="#3B7FA4"/>
<stop offset="0.619792" stop-color="#222222"/>
<stop offset="0.778656" stop-color="#4DAAAB"/>
<stop offset="0.787808" stop-color="#4DAAAB"/>
<stop offset="0.996047" stop-color="#004563"/>
<stop offset="0.99606" stop-color="#004563"/>
<stop offset="1" stop-color="#004563"/>
</linearGradient>
<linearGradient id="paint3_linear" x1="-84.9208" y1="268.735" x2="184.2" y2="267.59" gradientUnits="userSpaceOnUse">
<stop stop-color="#80203B"/>
<stop offset="0.0348449" stop-color="#80203B"/>
<stop offset="0.225296" stop-color="#F57336"/>
<stop offset="0.258693" stop-color="#F57336"/>
<stop offset="0.359375" stop-color="#3B7FA4"/>
<stop offset="0.619792" stop-color="#222222"/>
<stop offset="0.778656" stop-color="#4DAAAB"/>
<stop offset="0.787808" stop-color="#4DAAAB"/>
<stop offset="0.996047" stop-color="#004563"/>
<stop offset="0.99606" stop-color="#004563"/>
<stop offset="1" stop-color="#004563"/>
</linearGradient>
<linearGradient id="paint4_linear" x1="-87.9208" y1="132.735" x2="181.2" y2="131.59" gradientUnits="userSpaceOnUse">
<stop stop-color="#80203B"/>
<stop offset="0.0348449" stop-color="#80203B"/>
<stop offset="0.225296" stop-color="#F57336"/>
<stop offset="0.258693" stop-color="#F57336"/>
<stop offset="0.359375" stop-color="#3B7FA4"/>
<stop offset="0.619792" stop-color="#222222"/>
<stop offset="0.778656" stop-color="#4DAAAB"/>
<stop offset="0.787808" stop-color="#4DAAAB"/>
<stop offset="0.996047" stop-color="#004563"/>
<stop offset="0.99606" stop-color="#004563"/>
<stop offset="1" stop-color="#004563"/>
</linearGradient>
<linearGradient id="paint5_linear" x1="-87.9208" y1="132.735" x2="181.2" y2="131.59" gradientUnits="userSpaceOnUse">
<stop stop-color="#80203B"/>
<stop offset="0.0348449" stop-color="#80203B"/>
<stop offset="0.225296" stop-color="#F57336"/>
<stop offset="0.258693" stop-color="#F57336"/>
<stop offset="0.359375" stop-color="#3B7FA4"/>
<stop offset="0.619792" stop-color="#222222"/>
<stop offset="0.778656" stop-color="#4DAAAB"/>
<stop offset="0.787808" stop-color="#4DAAAB"/>
<stop offset="0.996047" stop-color="#004563"/>
<stop offset="0.99606" stop-color="#004563"/>
<stop offset="1" stop-color="#004563"/>
</linearGradient>
</defs>
</svg>
