<svg width="1139" height="514" viewBox="0 0 1139 514" fill="none" xmlns="http://www.w3.org/2000/svg">
<path d="M336.5 177.5L475 201L764.5 202" stroke="#7FC591" stroke-opacity="0.4" stroke-width="2"/>
<rect x="294" y="159" width="14" height="21" fill="white"/>
<path d="M301.5 152L337 177L438.328 220.308L729.023 288.133L938.022 328.32L1138 367" stroke="#CD4358" stroke-opacity="0.4" stroke-width="2"/>
<rect x="756" y="284" width="15" height="19" fill="white"/>
<rect x="467" y="220" width="15" height="17" fill="white"/>
<line x1="158.998" y1="179.5" x2="1044" y2="175.473" stroke="#222222" stroke-opacity="0.1"/>
<line x1="158.998" y1="76.5273" x2="1044" y2="72.5" stroke="#222222" stroke-opacity="0.1"/>
<rect x="330" y="180" width="15" height="27" fill="white"/>
<rect x="203" y="121" width="15" height="21" fill="white"/>
<rect x="467" y="197" width="15" height="267" fill="url(#paint0_linear)"/>
<rect x="330" y="173" width="15" height="291" fill="url(#paint1_linear)"/>
<path d="M159 466H1024" stroke="#222222" stroke-width="2"/>
<path d="M160 465L160 51" stroke="#222222" stroke-width="2"/>
<line x1="159.001" y1="396.5" x2="1044" y2="398.5" stroke="#222222" stroke-opacity="0.1"/>
<line x1="159.001" y1="288.5" x2="1044" y2="289.529" stroke="#222222" stroke-opacity="0.1"/>
<path d="M567.366 495.602V489.705H568.705V495.602H567.366ZM565.087 493.322V491.984H570.984V493.322H565.087ZM578.8 488.273V497H577.219V489.811H577.167L575.126 491.115V489.666L577.295 488.273H578.8ZM588.877 488.273H590.812L593.403 494.597H593.505L596.096 488.273H598.031V497H596.514V491.004H596.433L594.021 496.974H592.887L590.475 490.991H590.394V497H588.877V488.273ZM609.95 492.636C609.95 493.577 609.774 494.382 609.422 495.053C609.073 495.72 608.595 496.232 607.99 496.587C607.388 496.942 606.705 497.119 605.941 497.119C605.176 497.119 604.492 496.942 603.887 496.587C603.284 496.229 602.807 495.716 602.455 495.048C602.105 494.378 601.931 493.574 601.931 492.636C601.931 491.696 602.105 490.892 602.455 490.224C602.807 489.554 603.284 489.041 603.887 488.686C604.492 488.331 605.176 488.153 605.941 488.153C606.705 488.153 607.388 488.331 607.99 488.686C608.595 489.041 609.073 489.554 609.422 490.224C609.774 490.892 609.95 491.696 609.95 492.636ZM608.361 492.636C608.361 491.974 608.257 491.416 608.05 490.962C607.845 490.504 607.561 490.159 607.198 489.926C606.834 489.69 606.415 489.572 605.941 489.572C605.466 489.572 605.047 489.69 604.683 489.926C604.32 490.159 604.034 490.504 603.827 490.962C603.622 491.416 603.52 491.974 603.52 492.636C603.52 493.298 603.622 493.858 603.827 494.315C604.034 494.77 604.32 495.115 604.683 495.351C605.047 495.584 605.466 495.7 605.941 495.7C606.415 495.7 606.834 495.584 607.198 495.351C607.561 495.115 607.845 494.77 608.05 494.315C608.257 493.858 608.361 493.298 608.361 492.636ZM621.017 488.273V497H619.611L615.499 491.055H615.426V497H613.845V488.273H615.26L619.368 494.222H619.445V488.273H621.017ZM624.756 489.598V488.273H631.719V489.598H629.022V497H627.454V489.598H624.756ZM635.462 497V488.273H637.043V491.967H641.087V488.273H642.672V497H641.087V493.293H637.043V497H635.462Z" fill="black" fill-opacity="0.8"/>
<path d="M290.861 496V487.273H296.452V488.598H292.442V490.967H296.068V492.293H292.442V496H290.861ZM301.873 487.273V496H300.292V487.273H301.873ZM305.985 496V487.273H309.258C309.928 487.273 310.491 487.389 310.945 487.622C311.403 487.855 311.748 488.182 311.981 488.602C312.217 489.02 312.334 489.507 312.334 490.064C312.334 490.624 312.215 491.109 311.976 491.521C311.741 491.93 311.393 492.247 310.932 492.472C310.472 492.693 309.907 492.804 309.236 492.804H306.905V491.491H309.023C309.415 491.491 309.736 491.437 309.986 491.33C310.236 491.219 310.421 491.058 310.54 490.848C310.663 490.635 310.724 490.374 310.724 490.064C310.724 489.754 310.663 489.49 310.54 489.271C310.418 489.05 310.232 488.882 309.982 488.768C309.732 488.652 309.41 488.594 309.015 488.594H307.566V496H305.985ZM310.494 492.045L312.654 496H310.89L308.768 492.045H310.494ZM320.933 489.672C320.893 489.3 320.725 489.01 320.43 488.803C320.137 488.595 319.756 488.491 319.288 488.491C318.958 488.491 318.675 488.541 318.44 488.641C318.204 488.74 318.024 488.875 317.899 489.045C317.774 489.216 317.71 489.411 317.707 489.629C317.707 489.811 317.748 489.969 317.83 490.102C317.916 490.236 318.031 490.349 318.175 490.443C318.32 490.534 318.481 490.611 318.657 490.673C318.833 490.736 319.011 490.788 319.19 490.831L320.008 491.036C320.337 491.112 320.654 491.216 320.958 491.347C321.265 491.477 321.539 491.642 321.781 491.841C322.025 492.04 322.218 492.28 322.36 492.561C322.502 492.842 322.573 493.172 322.573 493.55C322.573 494.061 322.443 494.511 322.181 494.901C321.92 495.287 321.542 495.589 321.048 495.808C320.556 496.024 319.961 496.132 319.262 496.132C318.583 496.132 317.994 496.027 317.494 495.817C316.997 495.607 316.607 495.3 316.326 494.896C316.048 494.493 315.897 494.001 315.874 493.422H317.43C317.452 493.726 317.546 493.979 317.711 494.18C317.876 494.382 318.09 494.533 318.354 494.632C318.622 494.732 318.92 494.781 319.249 494.781C319.593 494.781 319.894 494.73 320.153 494.628C320.414 494.523 320.619 494.378 320.766 494.193C320.914 494.006 320.989 493.787 320.992 493.537C320.989 493.31 320.923 493.122 320.792 492.974C320.661 492.824 320.478 492.699 320.242 492.599C320.009 492.497 319.737 492.406 319.424 492.327L318.431 492.071C317.712 491.886 317.144 491.607 316.727 491.232C316.312 490.854 316.104 490.352 316.104 489.727C316.104 489.213 316.244 488.763 316.522 488.376C316.803 487.99 317.185 487.69 317.668 487.477C318.151 487.261 318.698 487.153 319.309 487.153C319.928 487.153 320.471 487.261 320.937 487.477C321.406 487.69 321.774 487.987 322.041 488.368C322.308 488.746 322.445 489.18 322.454 489.672H320.933ZM325.999 488.598V487.273H332.962V488.598H330.265V496H328.697V488.598H325.999ZM290.861 502.273H292.795L295.386 508.597H295.489L298.08 502.273H300.014V511H298.497V505.004H298.416L296.004 510.974H294.871L292.459 504.991H292.378V511H290.861V502.273ZM304.136 511V502.273H309.812V503.598H305.717V505.967H309.518V507.293H305.717V509.675H309.846V511H304.136ZM313.825 511V502.273H319.501V503.598H315.406V505.967H319.207V507.293H315.406V509.675H319.535V511H313.825ZM323.13 503.598V502.273H330.093V503.598H327.396V511H325.828V503.598H323.13ZM335.417 502.273V511H333.836V502.273H335.417ZM346.701 502.273V511H345.294L341.182 505.055H341.11V511H339.529V502.273H340.944L345.051 508.222H345.128V502.273H346.701ZM356.67 505.06C356.599 504.83 356.501 504.624 356.376 504.442C356.254 504.257 356.106 504.099 355.933 503.969C355.762 503.838 355.566 503.74 355.345 503.675C355.123 503.607 354.882 503.572 354.62 503.572C354.151 503.572 353.734 503.69 353.367 503.926C353.001 504.162 352.713 504.509 352.502 504.966C352.295 505.42 352.191 505.974 352.191 506.628C352.191 507.287 352.295 507.845 352.502 508.303C352.71 508.76 352.998 509.108 353.367 509.347C353.737 509.582 354.166 509.7 354.654 509.7C355.097 509.7 355.481 509.615 355.805 509.445C356.132 509.274 356.383 509.033 356.559 508.72C356.735 508.405 356.823 508.036 356.823 507.612L357.181 507.668H354.812V506.432H358.353V507.48C358.353 508.227 358.194 508.874 357.876 509.419C357.558 509.964 357.12 510.385 356.563 510.68C356.007 510.973 355.367 511.119 354.646 511.119C353.842 511.119 353.136 510.939 352.528 510.578C351.923 510.214 351.45 509.699 351.109 509.031C350.771 508.361 350.602 507.565 350.602 506.645C350.602 505.94 350.701 505.311 350.9 504.757C351.102 504.203 351.383 503.733 351.744 503.347C352.105 502.957 352.528 502.662 353.014 502.46C353.499 502.256 354.028 502.153 354.599 502.153C355.082 502.153 355.532 502.224 355.95 502.366C356.367 502.506 356.738 502.705 357.062 502.963C357.389 503.222 357.657 503.528 357.867 503.884C358.078 504.239 358.215 504.631 358.281 505.06H356.67Z" fill="black" fill-opacity="0.8"/>
<path d="M184.033 486.273V495H182.626L178.514 489.055H178.442V495H176.861V486.273H178.276L182.384 492.222H182.46V486.273H184.033ZM195.954 490.636C195.954 491.577 195.777 492.382 195.425 493.053C195.076 493.72 194.599 494.232 193.993 494.587C193.391 494.942 192.708 495.119 191.944 495.119C191.179 495.119 190.495 494.942 189.89 494.587C189.287 494.229 188.81 493.716 188.458 493.048C188.108 492.378 187.934 491.574 187.934 490.636C187.934 489.696 188.108 488.892 188.458 488.224C188.81 487.554 189.287 487.041 189.89 486.686C190.495 486.331 191.179 486.153 191.944 486.153C192.708 486.153 193.391 486.331 193.993 486.686C194.599 487.041 195.076 487.554 195.425 488.224C195.777 488.892 195.954 489.696 195.954 490.636ZM194.364 490.636C194.364 489.974 194.26 489.416 194.053 488.962C193.849 488.504 193.564 488.159 193.201 487.926C192.837 487.69 192.418 487.572 191.944 487.572C191.469 487.572 191.05 487.69 190.687 487.926C190.323 488.159 190.037 488.504 189.83 488.962C189.625 489.416 189.523 489.974 189.523 490.636C189.523 491.298 189.625 491.858 189.83 492.315C190.037 492.77 190.323 493.115 190.687 493.351C191.05 493.584 191.469 493.7 191.944 493.7C192.418 493.7 192.837 493.584 193.201 493.351C193.564 493.115 193.849 492.77 194.053 492.315C194.26 491.858 194.364 491.298 194.364 490.636ZM201.462 495L198.999 486.273H200.7L202.272 492.686H202.353L204.032 486.273H205.579L207.262 492.69H207.339L208.911 486.273H210.611L208.148 495H206.589L204.842 488.876H204.773L203.022 495H201.462Z" fill="black" fill-opacity="0.8"/>
<path d="M423.861 496V487.273H427.134C427.804 487.273 428.366 487.398 428.821 487.648C429.278 487.898 429.624 488.241 429.857 488.679C430.092 489.114 430.21 489.608 430.21 490.162C430.21 490.722 430.092 491.219 429.857 491.653C429.621 492.088 429.273 492.43 428.812 492.68C428.352 492.928 427.786 493.051 427.112 493.051H424.943V491.751H426.899C427.291 491.751 427.612 491.683 427.862 491.547C428.112 491.411 428.297 491.223 428.416 490.984C428.538 490.746 428.599 490.472 428.599 490.162C428.599 489.852 428.538 489.58 428.416 489.344C428.297 489.108 428.111 488.925 427.858 488.794C427.608 488.661 427.286 488.594 426.891 488.594H425.442V496H423.861ZM433.983 496V487.273H437.256C437.927 487.273 438.489 487.389 438.944 487.622C439.401 487.855 439.746 488.182 439.979 488.602C440.215 489.02 440.333 489.507 440.333 490.064C440.333 490.624 440.214 491.109 439.975 491.521C439.739 491.93 439.391 492.247 438.931 492.472C438.471 492.693 437.905 492.804 437.235 492.804H434.904V491.491H437.022C437.414 491.491 437.735 491.437 437.985 491.33C438.235 491.219 438.42 491.058 438.539 490.848C438.661 490.635 438.722 490.374 438.722 490.064C438.722 489.754 438.661 489.49 438.539 489.271C438.417 489.05 438.231 488.882 437.981 488.768C437.731 488.652 437.408 488.594 437.013 488.594H435.564V496H433.983ZM438.492 492.045L440.652 496H438.888L436.766 492.045H438.492ZM451.986 491.636C451.986 492.577 451.81 493.382 451.458 494.053C451.109 494.72 450.631 495.232 450.026 495.587C449.424 495.942 448.741 496.119 447.976 496.119C447.212 496.119 446.528 495.942 445.923 495.587C445.32 495.229 444.843 494.716 444.491 494.048C444.141 493.378 443.967 492.574 443.967 491.636C443.967 490.696 444.141 489.892 444.491 489.224C444.843 488.554 445.32 488.041 445.923 487.686C446.528 487.331 447.212 487.153 447.976 487.153C448.741 487.153 449.424 487.331 450.026 487.686C450.631 488.041 451.109 488.554 451.458 489.224C451.81 489.892 451.986 490.696 451.986 491.636ZM450.397 491.636C450.397 490.974 450.293 490.416 450.086 489.962C449.881 489.504 449.597 489.159 449.234 488.926C448.87 488.69 448.451 488.572 447.976 488.572C447.502 488.572 447.083 488.69 446.719 488.926C446.356 489.159 446.07 489.504 445.863 489.962C445.658 490.416 445.556 490.974 445.556 491.636C445.556 492.298 445.658 492.858 445.863 493.315C446.07 493.77 446.356 494.115 446.719 494.351C447.083 494.584 447.502 494.7 447.976 494.7C448.451 494.7 448.87 494.584 449.234 494.351C449.597 494.115 449.881 493.77 450.086 493.315C450.293 492.858 450.397 492.298 450.397 491.636ZM458.838 496H455.881V487.273H458.898C459.765 487.273 460.509 487.447 461.131 487.797C461.756 488.143 462.236 488.642 462.571 489.293C462.907 489.943 463.074 490.722 463.074 491.628C463.074 492.537 462.905 493.318 462.567 493.972C462.232 494.625 461.748 495.126 461.114 495.476C460.483 495.825 459.725 496 458.838 496ZM457.462 494.632H458.762C459.37 494.632 459.877 494.521 460.283 494.3C460.689 494.075 460.995 493.741 461.199 493.298C461.404 492.852 461.506 492.295 461.506 491.628C461.506 490.96 461.404 490.406 461.199 489.966C460.995 489.523 460.692 489.192 460.292 488.973C459.894 488.751 459.4 488.641 458.809 488.641H457.462V494.632ZM472.478 487.273H474.059V492.974C474.059 493.599 473.911 494.149 473.616 494.624C473.323 495.098 472.911 495.469 472.38 495.736C471.849 496 471.228 496.132 470.518 496.132C469.805 496.132 469.182 496 468.651 495.736C468.12 495.469 467.708 495.098 467.415 494.624C467.123 494.149 466.976 493.599 466.976 492.974V487.273H468.557V492.842C468.557 493.206 468.637 493.53 468.796 493.814C468.958 494.098 469.185 494.321 469.478 494.483C469.77 494.642 470.117 494.722 470.518 494.722C470.918 494.722 471.265 494.642 471.557 494.483C471.853 494.321 472.08 494.098 472.239 493.814C472.398 493.53 472.478 493.206 472.478 492.842V487.273ZM485.647 490.217H484.054C484.008 489.956 483.924 489.724 483.802 489.523C483.68 489.318 483.528 489.145 483.346 489.003C483.164 488.861 482.957 488.754 482.724 488.683C482.494 488.609 482.245 488.572 481.978 488.572C481.504 488.572 481.083 488.692 480.717 488.93C480.35 489.166 480.064 489.513 479.856 489.97C479.649 490.425 479.545 490.98 479.545 491.636C479.545 492.304 479.649 492.866 479.856 493.324C480.066 493.778 480.353 494.122 480.717 494.355C481.083 494.585 481.502 494.7 481.974 494.7C482.235 494.7 482.48 494.666 482.707 494.598C482.937 494.527 483.143 494.423 483.325 494.287C483.51 494.151 483.664 493.983 483.789 493.784C483.917 493.585 484.005 493.358 484.054 493.102L485.647 493.111C485.588 493.526 485.458 493.915 485.26 494.278C485.064 494.642 484.806 494.963 484.488 495.241C484.17 495.517 483.798 495.733 483.372 495.889C482.946 496.043 482.473 496.119 481.953 496.119C481.186 496.119 480.501 495.942 479.899 495.587C479.297 495.232 478.822 494.719 478.475 494.048C478.129 493.378 477.956 492.574 477.956 491.636C477.956 490.696 478.13 489.892 478.48 489.224C478.829 488.554 479.305 488.041 479.907 487.686C480.51 487.331 481.191 487.153 481.953 487.153C482.439 487.153 482.89 487.222 483.308 487.358C483.725 487.494 484.098 487.695 484.424 487.959C484.751 488.22 485.02 488.541 485.23 488.922C485.443 489.3 485.582 489.732 485.647 490.217ZM489.112 488.598V487.273H496.075V488.598H493.377V496H491.809V488.598H489.112ZM428.604 504.672C428.564 504.3 428.396 504.01 428.101 503.803C427.808 503.595 427.428 503.491 426.959 503.491C426.629 503.491 426.347 503.541 426.111 503.641C425.875 503.74 425.695 503.875 425.57 504.045C425.445 504.216 425.381 504.411 425.378 504.629C425.378 504.811 425.419 504.969 425.501 505.102C425.587 505.236 425.702 505.349 425.847 505.443C425.991 505.534 426.152 505.611 426.328 505.673C426.504 505.736 426.682 505.788 426.861 505.831L427.679 506.036C428.009 506.112 428.325 506.216 428.629 506.347C428.936 506.477 429.21 506.642 429.452 506.841C429.696 507.04 429.889 507.28 430.031 507.561C430.173 507.842 430.244 508.172 430.244 508.55C430.244 509.061 430.114 509.511 429.852 509.901C429.591 510.287 429.213 510.589 428.719 510.808C428.227 511.024 427.632 511.132 426.933 511.132C426.254 511.132 425.665 511.027 425.165 510.817C424.668 510.607 424.278 510.3 423.997 509.896C423.719 509.493 423.568 509.001 423.545 508.422H425.101C425.124 508.726 425.217 508.979 425.382 509.18C425.547 509.382 425.761 509.533 426.026 509.632C426.293 509.732 426.591 509.781 426.92 509.781C427.264 509.781 427.565 509.73 427.824 509.628C428.085 509.523 428.29 509.378 428.438 509.193C428.585 509.006 428.661 508.787 428.663 508.537C428.661 508.31 428.594 508.122 428.463 507.974C428.332 507.824 428.149 507.699 427.913 507.599C427.68 507.497 427.408 507.406 427.095 507.327L426.102 507.071C425.384 506.886 424.815 506.607 424.398 506.232C423.983 505.854 423.776 505.352 423.776 504.727C423.776 504.213 423.915 503.763 424.193 503.376C424.474 502.99 424.857 502.69 425.339 502.477C425.822 502.261 426.369 502.153 426.98 502.153C427.599 502.153 428.142 502.261 428.608 502.477C429.077 502.69 429.445 502.987 429.712 503.368C429.979 503.746 430.116 504.18 430.125 504.672H428.604ZM434.054 511V502.273H435.635V505.967H439.679V502.273H441.264V511H439.679V507.293H435.635V511H434.054ZM453.182 506.636C453.182 507.577 453.006 508.382 452.653 509.053C452.304 509.72 451.827 510.232 451.222 510.587C450.619 510.942 449.936 511.119 449.172 511.119C448.408 511.119 447.723 510.942 447.118 510.587C446.516 510.229 446.038 509.716 445.686 509.048C445.337 508.378 445.162 507.574 445.162 506.636C445.162 505.696 445.337 504.892 445.686 504.224C446.038 503.554 446.516 503.041 447.118 502.686C447.723 502.331 448.408 502.153 449.172 502.153C449.936 502.153 450.619 502.331 451.222 502.686C451.827 503.041 452.304 503.554 452.653 504.224C453.006 504.892 453.182 505.696 453.182 506.636ZM451.592 506.636C451.592 505.974 451.489 505.416 451.281 504.962C451.077 504.504 450.793 504.159 450.429 503.926C450.065 503.69 449.646 503.572 449.172 503.572C448.697 503.572 448.278 503.69 447.915 503.926C447.551 504.159 447.266 504.504 447.058 504.962C446.854 505.416 446.751 505.974 446.751 506.636C446.751 507.298 446.854 507.858 447.058 508.315C447.266 508.77 447.551 509.115 447.915 509.351C448.278 509.584 448.697 509.7 449.172 509.7C449.646 509.7 450.065 509.584 450.429 509.351C450.793 509.115 451.077 508.77 451.281 508.315C451.489 507.858 451.592 507.298 451.592 506.636ZM458.69 511L456.227 502.273H457.928L459.5 508.686H459.581L461.26 502.273H462.807L464.49 508.69H464.567L466.139 502.273H467.84L465.376 511H463.817L462.07 504.876H462.001L460.25 511H458.69ZM478.337 505.217H476.743C476.698 504.956 476.614 504.724 476.492 504.523C476.37 504.318 476.218 504.145 476.036 504.003C475.854 503.861 475.647 503.754 475.414 503.683C475.184 503.609 474.935 503.572 474.668 503.572C474.194 503.572 473.773 503.692 473.407 503.93C473.04 504.166 472.753 504.513 472.546 504.97C472.339 505.425 472.235 505.98 472.235 506.636C472.235 507.304 472.339 507.866 472.546 508.324C472.756 508.778 473.043 509.122 473.407 509.355C473.773 509.585 474.192 509.7 474.664 509.7C474.925 509.7 475.17 509.666 475.397 509.598C475.627 509.527 475.833 509.423 476.015 509.287C476.199 509.151 476.354 508.983 476.479 508.784C476.607 508.585 476.695 508.358 476.743 508.102L478.337 508.111C478.278 508.526 478.148 508.915 477.949 509.278C477.753 509.642 477.496 509.963 477.178 510.241C476.86 510.517 476.488 510.733 476.062 510.889C475.636 511.043 475.162 511.119 474.643 511.119C473.876 511.119 473.191 510.942 472.589 510.587C471.986 510.232 471.512 509.719 471.165 509.048C470.819 508.378 470.645 507.574 470.645 506.636C470.645 505.696 470.82 504.892 471.17 504.224C471.519 503.554 471.995 503.041 472.597 502.686C473.199 502.331 473.881 502.153 474.643 502.153C475.128 502.153 475.58 502.222 475.998 502.358C476.415 502.494 476.787 502.695 477.114 502.959C477.441 503.22 477.709 503.541 477.92 503.922C478.133 504.3 478.272 504.732 478.337 505.217ZM483.2 511H481.513L484.585 502.273H486.537L489.614 511H487.926L485.595 504.062H485.527L483.2 511ZM483.256 507.578H487.858V508.848H483.256V507.578ZM497.765 504.672C497.726 504.3 497.558 504.01 497.263 503.803C496.97 503.595 496.589 503.491 496.121 503.491C495.791 503.491 495.508 503.541 495.273 503.641C495.037 503.74 494.856 503.875 494.731 504.045C494.606 504.216 494.542 504.411 494.54 504.629C494.54 504.811 494.581 504.969 494.663 505.102C494.748 505.236 494.863 505.349 495.008 505.443C495.153 505.534 495.314 505.611 495.49 505.673C495.666 505.736 495.844 505.788 496.023 505.831L496.841 506.036C497.17 506.112 497.487 506.216 497.791 506.347C498.098 506.477 498.372 506.642 498.613 506.841C498.858 507.04 499.051 507.28 499.193 507.561C499.335 507.842 499.406 508.172 499.406 508.55C499.406 509.061 499.275 509.511 499.014 509.901C498.753 510.287 498.375 510.589 497.88 510.808C497.389 511.024 496.794 511.132 496.095 511.132C495.416 511.132 494.826 511.027 494.326 510.817C493.829 510.607 493.44 510.3 493.159 509.896C492.88 509.493 492.73 509.001 492.707 508.422H494.263C494.285 508.726 494.379 508.979 494.544 509.18C494.709 509.382 494.923 509.533 495.187 509.632C495.454 509.732 495.753 509.781 496.082 509.781C496.426 509.781 496.727 509.73 496.986 509.628C497.247 509.523 497.451 509.378 497.599 509.193C497.747 509.006 497.822 508.787 497.825 508.537C497.822 508.31 497.755 508.122 497.625 507.974C497.494 507.824 497.311 507.699 497.075 507.599C496.842 507.497 496.569 507.406 496.257 507.327L495.264 507.071C494.545 506.886 493.977 506.607 493.559 506.232C493.145 505.854 492.937 505.352 492.937 504.727C492.937 504.213 493.076 503.763 493.355 503.376C493.636 502.99 494.018 502.69 494.501 502.477C494.984 502.261 495.531 502.153 496.142 502.153C496.761 502.153 497.304 502.261 497.77 502.477C498.238 502.69 498.606 502.987 498.873 503.368C499.14 503.746 499.278 504.18 499.287 504.672H497.765ZM503.215 511V502.273H508.892V503.598H504.796V505.967H508.598V507.293H504.796V509.675H508.926V511H503.215Z" fill="black" fill-opacity="0.8"/>
<path d="M707.366 494.602V488.705H708.705V494.602H707.366ZM705.087 492.322V490.984H710.984V492.322H705.087ZM714.957 496V494.858L717.987 491.888C718.276 491.595 718.518 491.335 718.711 491.108C718.904 490.881 719.049 490.661 719.146 490.447C719.242 490.234 719.291 490.007 719.291 489.766C719.291 489.49 719.228 489.254 719.103 489.058C718.978 488.859 718.806 488.706 718.587 488.598C718.369 488.49 718.12 488.436 717.842 488.436C717.555 488.436 717.303 488.496 717.087 488.615C716.872 488.732 716.704 488.898 716.585 489.114C716.468 489.33 716.41 489.587 716.41 489.885H714.906C714.906 489.331 715.032 488.849 715.285 488.44C715.538 488.031 715.886 487.714 716.329 487.49C716.775 487.266 717.286 487.153 717.863 487.153C718.448 487.153 718.962 487.263 719.406 487.482C719.849 487.7 720.193 488 720.437 488.381C720.684 488.761 720.808 489.196 720.808 489.685C720.808 490.011 720.745 490.332 720.62 490.648C720.495 490.963 720.275 491.312 719.96 491.696C719.647 492.08 719.208 492.544 718.643 493.089L717.139 494.619V494.679H720.94V496H714.957ZM730.272 487.273H732.206L734.797 493.597H734.9L737.49 487.273H739.425V496H737.908V490.004H737.827L735.415 495.974H734.282L731.87 489.991H731.789V496H730.272V487.273ZM751.345 491.636C751.345 492.577 751.169 493.382 750.817 494.053C750.467 494.72 749.99 495.232 749.385 495.587C748.783 495.942 748.099 496.119 747.335 496.119C746.571 496.119 745.886 495.942 745.281 495.587C744.679 495.229 744.202 494.716 743.849 494.048C743.5 493.378 743.325 492.574 743.325 491.636C743.325 490.696 743.5 489.892 743.849 489.224C744.202 488.554 744.679 488.041 745.281 487.686C745.886 487.331 746.571 487.153 747.335 487.153C748.099 487.153 748.783 487.331 749.385 487.686C749.99 488.041 750.467 488.554 750.817 489.224C751.169 489.892 751.345 490.696 751.345 491.636ZM749.756 491.636C749.756 490.974 749.652 490.416 749.444 489.962C749.24 489.504 748.956 489.159 748.592 488.926C748.229 488.69 747.81 488.572 747.335 488.572C746.861 488.572 746.442 488.69 746.078 488.926C745.714 489.159 745.429 489.504 745.221 489.962C745.017 490.416 744.915 490.974 744.915 491.636C744.915 492.298 745.017 492.858 745.221 493.315C745.429 493.77 745.714 494.115 746.078 494.351C746.442 494.584 746.861 494.7 747.335 494.7C747.81 494.7 748.229 494.584 748.592 494.351C748.956 494.115 749.24 493.77 749.444 493.315C749.652 492.858 749.756 492.298 749.756 491.636ZM762.412 487.273V496H761.005L756.893 490.055H756.821V496H755.24V487.273H756.654L760.762 493.222H760.839V487.273H762.412ZM766.151 488.598V487.273H773.114V488.598H770.416V496H768.848V488.598H766.151ZM776.856 496V487.273H778.437V490.967H782.481V487.273H784.066V496H782.481V492.293H778.437V496H776.856ZM792.929 489.672C792.889 489.3 792.721 489.01 792.426 488.803C792.133 488.595 791.753 488.491 791.284 488.491C790.954 488.491 790.672 488.541 790.436 488.641C790.2 488.74 790.02 488.875 789.895 489.045C789.77 489.216 789.706 489.411 789.703 489.629C789.703 489.811 789.744 489.969 789.826 490.102C789.912 490.236 790.027 490.349 790.172 490.443C790.316 490.534 790.477 490.611 790.653 490.673C790.829 490.736 791.007 490.788 791.186 490.831L792.004 491.036C792.334 491.112 792.65 491.216 792.954 491.347C793.261 491.477 793.535 491.642 793.777 491.841C794.021 492.04 794.214 492.28 794.356 492.561C794.498 492.842 794.569 493.172 794.569 493.55C794.569 494.061 794.439 494.511 794.177 494.901C793.916 495.287 793.538 495.589 793.044 495.808C792.552 496.024 791.957 496.132 791.258 496.132C790.579 496.132 789.99 496.027 789.49 495.817C788.993 495.607 788.603 495.3 788.322 494.896C788.044 494.493 787.893 494.001 787.87 493.422H789.426C789.449 493.726 789.542 493.979 789.707 494.18C789.872 494.382 790.086 494.533 790.351 494.632C790.618 494.732 790.916 494.781 791.245 494.781C791.589 494.781 791.89 494.73 792.149 494.628C792.41 494.523 792.615 494.378 792.762 494.193C792.91 494.006 792.986 493.787 792.988 493.537C792.986 493.31 792.919 493.122 792.788 492.974C792.657 492.824 792.474 492.699 792.238 492.599C792.005 492.497 791.733 492.406 791.42 492.327L790.427 492.071C789.709 491.886 789.14 491.607 788.723 491.232C788.308 490.854 788.101 490.352 788.101 489.727C788.101 489.213 788.24 488.763 788.518 488.376C788.799 487.99 789.182 487.69 789.664 487.477C790.147 487.261 790.694 487.153 791.305 487.153C791.924 487.153 792.467 487.261 792.933 487.477C793.402 487.69 793.77 487.987 794.037 488.368C794.304 488.746 794.441 489.18 794.45 489.672H792.929Z" fill="black" fill-opacity="0.8"/>
<path d="M961.366 496.602V490.705H962.705V496.602H961.366ZM959.087 494.322V492.984H964.984V494.322H959.087ZM972.446 498.119C972.028 498.116 971.621 498.044 971.223 497.902C970.828 497.757 970.471 497.523 970.153 497.199C969.835 496.872 969.582 496.439 969.395 495.899C969.207 495.357 969.113 494.685 969.113 493.884C969.113 493.131 969.193 492.46 969.352 491.872C969.511 491.284 969.74 490.787 970.038 490.381C970.336 489.972 970.696 489.661 971.116 489.447C971.54 489.234 972.013 489.128 972.535 489.128C973.084 489.128 973.569 489.237 973.993 489.456C974.419 489.672 974.763 489.969 975.024 490.347C975.285 490.722 975.447 491.148 975.51 491.625H973.954C973.875 491.278 973.711 491.004 973.464 490.803C973.22 490.598 972.91 490.496 972.535 490.496C971.93 490.496 971.464 490.76 971.138 491.288C970.814 491.817 970.65 492.545 970.648 493.474H970.707C970.846 493.224 971.027 493.01 971.248 492.831C971.47 492.652 971.72 492.514 971.998 492.418C972.28 492.318 972.576 492.268 972.889 492.268C973.4 492.268 973.859 492.391 974.265 492.635C974.675 492.879 974.998 493.216 975.237 493.645C975.476 494.071 975.594 494.56 975.591 495.111C975.594 495.685 975.463 496.2 975.199 496.658C974.934 497.112 974.567 497.47 974.095 497.732C973.623 497.993 973.074 498.122 972.446 498.119ZM972.437 496.841C972.747 496.841 973.024 496.766 973.268 496.615C973.513 496.464 973.706 496.261 973.848 496.006C973.99 495.75 974.059 495.463 974.057 495.145C974.059 494.832 973.991 494.55 973.852 494.297C973.716 494.044 973.527 493.844 973.285 493.696C973.044 493.548 972.768 493.474 972.459 493.474C972.228 493.474 972.014 493.518 971.815 493.607C971.616 493.695 971.443 493.817 971.295 493.973C971.148 494.126 971.031 494.305 970.946 494.51C970.863 494.712 970.821 494.928 970.818 495.158C970.821 495.462 970.892 495.741 971.031 495.997C971.17 496.253 971.362 496.457 971.606 496.611C971.851 496.764 972.128 496.841 972.437 496.841ZM984.893 489.273H986.827L989.418 495.597H989.521L992.112 489.273H994.046V498H992.529V492.004H992.448L990.036 497.974H988.903L986.491 491.991H986.41V498H984.893V489.273ZM1005.97 493.636C1005.97 494.577 1005.79 495.382 1005.44 496.053C1005.09 496.72 1004.61 497.232 1004.01 497.587C1003.4 497.942 1002.72 498.119 1001.96 498.119C1001.19 498.119 1000.51 497.942 999.902 497.587C999.3 497.229 998.823 496.716 998.47 496.048C998.121 495.378 997.946 494.574 997.946 493.636C997.946 492.696 998.121 491.892 998.47 491.224C998.823 490.554 999.3 490.041 999.902 489.686C1000.51 489.331 1001.19 489.153 1001.96 489.153C1002.72 489.153 1003.4 489.331 1004.01 489.686C1004.61 490.041 1005.09 490.554 1005.44 491.224C1005.79 491.892 1005.97 492.696 1005.97 493.636ZM1004.38 493.636C1004.38 492.974 1004.27 492.416 1004.07 491.962C1003.86 491.504 1003.58 491.159 1003.21 490.926C1002.85 490.69 1002.43 490.572 1001.96 490.572C1001.48 490.572 1001.06 490.69 1000.7 490.926C1000.34 491.159 1000.05 491.504 999.843 491.962C999.638 492.416 999.536 492.974 999.536 493.636C999.536 494.298 999.638 494.858 999.843 495.315C1000.05 495.77 1000.34 496.115 1000.7 496.351C1001.06 496.584 1001.48 496.7 1001.96 496.7C1002.43 496.7 1002.85 496.584 1003.21 496.351C1003.58 496.115 1003.86 495.77 1004.07 495.315C1004.27 494.858 1004.38 494.298 1004.38 493.636ZM1017.03 489.273V498H1015.63L1011.51 492.055H1011.44V498H1009.86V489.273H1011.28L1015.38 495.222H1015.46V489.273H1017.03ZM1020.77 490.598V489.273H1027.73V490.598H1025.04V498H1023.47V490.598H1020.77ZM1031.48 498V489.273H1033.06V492.967H1037.1V489.273H1038.69V498H1037.1V494.293H1033.06V498H1031.48ZM1047.55 491.672C1047.51 491.3 1047.34 491.01 1047.05 490.803C1046.75 490.595 1046.37 490.491 1045.9 490.491C1045.58 490.491 1045.29 490.541 1045.06 490.641C1044.82 490.74 1044.64 490.875 1044.52 491.045C1044.39 491.216 1044.33 491.411 1044.32 491.629C1044.32 491.811 1044.37 491.969 1044.45 492.102C1044.53 492.236 1044.65 492.349 1044.79 492.443C1044.94 492.534 1045.1 492.611 1045.27 492.673C1045.45 492.736 1045.63 492.788 1045.81 492.831L1046.63 493.036C1046.95 493.112 1047.27 493.216 1047.58 493.347C1047.88 493.477 1048.16 493.642 1048.4 493.841C1048.64 494.04 1048.84 494.28 1048.98 494.561C1049.12 494.842 1049.19 495.172 1049.19 495.55C1049.19 496.061 1049.06 496.511 1048.8 496.901C1048.54 497.287 1048.16 497.589 1047.66 497.808C1047.17 498.024 1046.58 498.132 1045.88 498.132C1045.2 498.132 1044.61 498.027 1044.11 497.817C1043.61 497.607 1043.22 497.3 1042.94 496.896C1042.66 496.493 1042.51 496.001 1042.49 495.422H1044.05C1044.07 495.726 1044.16 495.979 1044.33 496.18C1044.49 496.382 1044.71 496.533 1044.97 496.632C1045.24 496.732 1045.54 496.781 1045.87 496.781C1046.21 496.781 1046.51 496.73 1046.77 496.628C1047.03 496.523 1047.24 496.378 1047.38 496.193C1047.53 496.006 1047.61 495.787 1047.61 495.537C1047.61 495.31 1047.54 495.122 1047.41 494.974C1047.28 494.824 1047.1 494.699 1046.86 494.599C1046.63 494.497 1046.35 494.406 1046.04 494.327L1045.05 494.071C1044.33 493.886 1043.76 493.607 1043.34 493.232C1042.93 492.854 1042.72 492.352 1042.72 491.727C1042.72 491.213 1042.86 490.763 1043.14 490.376C1043.42 489.99 1043.8 489.69 1044.29 489.477C1044.77 489.261 1045.32 489.153 1045.93 489.153C1046.55 489.153 1047.09 489.261 1047.55 489.477C1048.02 489.69 1048.39 489.987 1048.66 490.368C1048.92 490.746 1049.06 491.18 1049.07 491.672H1047.55Z" fill="#222222" fill-opacity="0.8"/>
<path d="M70.0608 178.455L71.7642 183.607H71.8314L73.5316 178.455H74.8356L72.5281 185H71.0643L68.76 178.455H70.0608ZM77.4977 185V178.455H81.7548V179.449H78.6835V181.225H81.5343V182.219H78.6835V184.006H81.7804V185H77.4977ZM84.7645 185V178.455H87.2191C87.7219 178.455 88.1438 178.542 88.4847 178.717C88.8277 178.891 89.0866 179.136 89.2613 179.452C89.4382 179.765 89.5266 180.13 89.5266 180.548C89.5266 180.968 89.4371 181.332 89.2581 181.641C89.0813 181.948 88.8203 182.185 88.4751 182.354C88.13 182.52 87.7059 182.603 87.2031 182.603H85.4549V181.619H87.0433C87.3373 181.619 87.5781 181.578 87.7656 181.497C87.9531 181.414 88.0916 181.294 88.1811 181.136C88.2727 180.976 88.3185 180.78 88.3185 180.548C88.3185 180.316 88.2727 180.118 88.1811 179.953C88.0895 179.787 87.9499 179.662 87.7624 179.576C87.5749 179.489 87.3331 179.445 87.0369 179.445H85.9503V185H84.7645ZM88.1459 182.034L89.7663 185H88.4432L86.8515 182.034H88.1459ZM91.9706 178.455H93.3097L94.911 181.35H94.9749L96.5761 178.455H97.9152L95.5342 182.558V185H94.3517V182.558L91.9706 178.455ZM104.587 185V178.455H105.773V181.225H108.806V178.455H109.995V185H108.806V182.219H105.773V185H104.587ZM114.27 178.455V185H113.085V178.455H114.27ZM121.739 180.545C121.686 180.372 121.613 180.218 121.519 180.081C121.427 179.943 121.316 179.825 121.186 179.727C121.059 179.629 120.912 179.555 120.745 179.506C120.579 179.455 120.398 179.429 120.202 179.429C119.85 179.429 119.537 179.518 119.262 179.695C118.988 179.871 118.771 180.131 118.614 180.474C118.458 180.815 118.38 181.231 118.38 181.721C118.38 182.215 118.458 182.634 118.614 182.977C118.769 183.32 118.985 183.581 119.262 183.76C119.539 183.937 119.861 184.025 120.228 184.025C120.56 184.025 120.848 183.961 121.091 183.833C121.336 183.706 121.524 183.525 121.656 183.29C121.788 183.054 121.854 182.777 121.854 182.459L122.123 182.501H120.346V181.574H123.002V182.36C123.002 182.92 122.882 183.405 122.644 183.814C122.405 184.223 122.077 184.539 121.659 184.76C121.242 184.98 120.762 185.089 120.221 185.089C119.618 185.089 119.089 184.954 118.633 184.684C118.179 184.411 117.824 184.024 117.569 183.523C117.315 183.021 117.188 182.424 117.188 181.734C117.188 181.205 117.263 180.733 117.412 180.318C117.563 179.902 117.774 179.55 118.045 179.26C118.315 178.968 118.633 178.746 118.997 178.595C119.361 178.442 119.758 178.365 120.186 178.365C120.548 178.365 120.886 178.418 121.199 178.525C121.512 178.629 121.79 178.778 122.033 178.972C122.278 179.166 122.48 179.396 122.637 179.663C122.795 179.929 122.898 180.223 122.947 180.545H121.739ZM125.948 185V178.455H127.134V181.225H130.167V178.455H131.356V185H130.167V182.219H127.134V185H125.948Z" fill="#8A81A5"/>
<path d="M54.1555 68.4545H55.3412V72.7308C55.3412 73.1996 55.2304 73.6119 55.0088 73.9677C54.7893 74.3235 54.4804 74.6016 54.0819 74.8018C53.6835 75 53.218 75.0991 52.6853 75.0991C52.1505 75.0991 51.6839 75 51.2854 74.8018C50.887 74.6016 50.578 74.3235 50.3586 73.9677C50.1391 73.6119 50.0294 73.1996 50.0294 72.7308V68.4545H51.2151V72.6317C51.2151 72.9045 51.2748 73.1474 51.3941 73.3604C51.5155 73.5735 51.686 73.7408 51.9055 73.8622C52.1249 73.9815 52.3849 74.0412 52.6853 74.0412C52.9857 74.0412 53.2457 73.9815 53.4651 73.8622C53.6867 73.7408 53.8572 73.5735 53.9765 73.3604C54.0958 73.1474 54.1555 72.9045 54.1555 72.6317V68.4545ZM63.8089 68.4545V75H62.7542L59.67 70.5415H59.6157V75H58.43V68.4545H59.4911L62.572 72.9162H62.6295V68.4545H63.8089ZM66.9009 75V68.4545H69.3554C69.8583 68.4545 70.2801 68.5419 70.621 68.7166C70.9641 68.8913 71.223 69.1364 71.3977 69.4517C71.5745 69.7649 71.6629 70.1303 71.6629 70.5479C71.6629 70.9677 71.5735 71.332 71.3945 71.641C71.2176 71.9478 70.9566 72.1854 70.6115 72.3537C70.2663 72.5199 69.8423 72.603 69.3394 72.603H67.5912V71.6186H69.1796C69.4737 71.6186 69.7144 71.5781 69.9019 71.4972C70.0894 71.4141 70.2279 71.2937 70.3174 71.136C70.409 70.9762 70.4548 70.7802 70.4548 70.5479C70.4548 70.3157 70.409 70.1175 70.3174 69.9535C70.2258 69.7873 70.0862 69.6616 69.8987 69.5763C69.7112 69.489 69.4694 69.4453 69.1732 69.4453H68.0866V75H66.9009ZM70.2823 72.0341L71.9026 75H70.5795L68.9879 72.0341H70.2823ZM74.5544 75V68.4545H78.8115V69.4485H75.7401V71.2255H78.591V72.2195H75.7401V74.006H78.8371V75H74.5544ZM82.6617 75H81.3961L83.7004 68.4545H85.1642L87.4717 75H86.2061L84.4579 69.7969H84.4068L82.6617 75ZM82.7033 72.4336H86.155V73.386H82.7033V72.4336ZM90.1339 75V68.4545H91.3196V74.006H94.2024V75H90.1339ZM98.2173 68.4545V75H97.0315V68.4545H98.2173ZM104.858 70.2539C104.829 69.9748 104.703 69.7575 104.481 69.6019C104.262 69.4464 103.976 69.3686 103.625 69.3686C103.378 69.3686 103.166 69.4059 102.989 69.4805C102.812 69.555 102.677 69.6562 102.583 69.7841C102.489 69.9119 102.441 70.0579 102.439 70.2219C102.439 70.3583 102.47 70.4766 102.532 70.5767C102.596 70.6768 102.682 70.7621 102.791 70.8324C102.899 70.9006 103.02 70.9581 103.152 71.005C103.284 71.0518 103.417 71.0913 103.551 71.1232L104.165 71.2766C104.412 71.3342 104.65 71.4119 104.878 71.5099C105.108 71.608 105.313 71.7315 105.494 71.8807C105.678 72.0298 105.823 72.2099 105.929 72.4208C106.036 72.6317 106.089 72.8789 106.089 73.1623C106.089 73.5458 105.991 73.8835 105.795 74.1754C105.599 74.4652 105.315 74.6921 104.945 74.8562C104.576 75.0181 104.13 75.0991 103.606 75.0991C103.096 75.0991 102.654 75.0202 102.279 74.8626C101.906 74.7049 101.614 74.4748 101.404 74.1722C101.195 73.8697 101.082 73.5011 101.065 73.0664H102.231C102.248 73.2944 102.319 73.484 102.442 73.6353C102.566 73.7866 102.727 73.8995 102.925 73.9741C103.125 74.0487 103.349 74.0859 103.596 74.0859C103.854 74.0859 104.08 74.0476 104.274 73.9709C104.47 73.892 104.623 73.7834 104.734 73.6449C104.845 73.5043 104.901 73.3402 104.903 73.1527C104.901 72.9822 104.851 72.8416 104.753 72.7308C104.655 72.6179 104.518 72.5241 104.341 72.4496C104.166 72.3729 103.961 72.3047 103.727 72.245L102.982 72.0533C102.443 71.9148 102.017 71.7049 101.704 71.4237C101.393 71.1403 101.237 70.7642 101.237 70.2955C101.237 69.9098 101.342 69.5721 101.551 69.2823C101.761 68.9925 102.048 68.7678 102.41 68.608C102.772 68.446 103.183 68.3651 103.641 68.3651C104.105 68.3651 104.512 68.446 104.862 68.608C105.213 68.7678 105.489 68.9904 105.689 69.2759C105.89 69.5593 105.993 69.8853 105.999 70.2539H104.858ZM108.658 69.4485V68.4545H113.881V69.4485H111.858V75H110.681V69.4485H108.658ZM117.873 68.4545V75H116.687V68.4545H117.873ZM126.56 70.663H125.364C125.33 70.467 125.267 70.2933 125.176 70.142C125.084 69.9886 124.97 69.8587 124.834 69.7521C124.698 69.6456 124.542 69.5657 124.367 69.5124C124.195 69.457 124.008 69.4293 123.808 69.4293C123.452 69.4293 123.137 69.5188 122.862 69.6978C122.587 69.8746 122.372 70.1346 122.216 70.4776C122.061 70.8185 121.983 71.2351 121.983 71.7273C121.983 72.228 122.061 72.6499 122.216 72.9929C122.374 73.3338 122.589 73.5916 122.862 73.7663C123.137 73.9389 123.451 74.0252 123.805 74.0252C124.001 74.0252 124.184 73.9996 124.354 73.9485C124.527 73.8952 124.682 73.8175 124.818 73.7152C124.956 73.6129 125.073 73.4872 125.166 73.3381C125.262 73.1889 125.328 73.0185 125.364 72.8267L126.56 72.8331C126.515 73.1442 126.418 73.4361 126.269 73.7088C126.122 73.9815 125.929 74.2223 125.69 74.4311C125.452 74.6378 125.173 74.7997 124.853 74.9169C124.533 75.032 124.179 75.0895 123.789 75.0895C123.214 75.0895 122.7 74.9563 122.248 74.69C121.797 74.4237 121.441 74.0391 121.181 73.5362C120.921 73.0334 120.791 72.4304 120.791 71.7273C120.791 71.022 120.922 70.419 121.184 69.9183C121.446 69.4155 121.803 69.0309 122.255 68.7646C122.706 68.4982 123.218 68.3651 123.789 68.3651C124.153 68.3651 124.492 68.4162 124.805 68.5185C125.118 68.6207 125.397 68.771 125.642 68.9691C125.888 69.1651 126.089 69.4059 126.247 69.6914C126.406 69.9748 126.511 70.2987 126.56 70.663Z" fill="#8A81A5"/>
<path d="M99.5874 289V282.455H100.773V285.225H103.806V282.455H104.995V289H103.806V286.219H100.773V289H99.5874ZM109.27 282.455V289H108.085V282.455H109.27ZM116.739 284.545C116.686 284.372 116.613 284.218 116.519 284.081C116.427 283.943 116.316 283.825 116.186 283.727C116.059 283.629 115.912 283.555 115.745 283.506C115.579 283.455 115.398 283.429 115.202 283.429C114.85 283.429 114.537 283.518 114.262 283.695C113.988 283.871 113.771 284.131 113.614 284.474C113.458 284.815 113.38 285.231 113.38 285.721C113.38 286.215 113.458 286.634 113.614 286.977C113.769 287.32 113.985 287.581 114.262 287.76C114.539 287.937 114.861 288.025 115.228 288.025C115.56 288.025 115.848 287.961 116.091 287.833C116.336 287.706 116.524 287.525 116.656 287.29C116.788 287.054 116.854 286.777 116.854 286.459L117.123 286.501H115.346V285.574H118.002V286.36C118.002 286.92 117.882 287.405 117.644 287.814C117.405 288.223 117.077 288.539 116.659 288.76C116.242 288.98 115.762 289.089 115.221 289.089C114.618 289.089 114.089 288.954 113.633 288.684C113.179 288.411 112.824 288.024 112.569 287.523C112.315 287.021 112.188 286.424 112.188 285.734C112.188 285.205 112.263 284.733 112.412 284.318C112.563 283.902 112.774 283.55 113.045 283.26C113.315 282.968 113.633 282.746 113.997 282.595C114.361 282.442 114.758 282.365 115.186 282.365C115.548 282.365 115.886 282.418 116.199 282.525C116.512 282.629 116.79 282.778 117.033 282.972C117.278 283.166 117.48 283.396 117.637 283.663C117.795 283.929 117.898 284.223 117.947 284.545H116.739ZM120.948 289V282.455H122.134V285.225H125.167V282.455H126.356V289H125.167V286.219H122.134V289H120.948Z" fill="#8A81A5"/>
<path d="M64.9479 390.455H66.3989L68.3421 395.197H68.4188L70.362 390.455H71.813V397H70.6752V392.503H70.6145L68.8055 396.981H67.9554L66.1465 392.494H66.0857V397H64.9479V390.455ZM80.7529 393.727C80.7529 394.433 80.6208 395.037 80.3566 395.539C80.0945 396.04 79.7366 396.424 79.2827 396.69C78.831 396.956 78.3186 397.089 77.7455 397.089C77.1723 397.089 76.6588 396.956 76.205 396.69C75.7533 396.422 75.3953 396.037 75.1311 395.536C74.869 395.033 74.738 394.43 74.738 393.727C74.738 393.022 74.869 392.419 75.1311 391.918C75.3953 391.415 75.7533 391.031 76.205 390.765C76.6588 390.498 77.1723 390.365 77.7455 390.365C78.3186 390.365 78.831 390.498 79.2827 390.765C79.7366 391.031 80.0945 391.415 80.3566 391.918C80.6208 392.419 80.7529 393.022 80.7529 393.727ZM79.5608 393.727C79.5608 393.231 79.483 392.812 79.3275 392.471C79.1741 392.128 78.961 391.869 78.6883 391.695C78.4156 391.518 78.1013 391.429 77.7455 391.429C77.3896 391.429 77.0754 391.518 76.8026 391.695C76.5299 391.869 76.3158 392.128 76.1602 392.471C76.0068 392.812 75.9301 393.231 75.9301 393.727C75.9301 394.224 76.0068 394.643 76.1602 394.987C76.3158 395.327 76.5299 395.586 76.8026 395.763C77.0754 395.938 77.3896 396.025 77.7455 396.025C78.1013 396.025 78.4156 395.938 78.6883 395.763C78.961 395.586 79.1741 395.327 79.3275 394.987C79.483 394.643 79.5608 394.224 79.5608 393.727ZM85.892 397H83.6739V390.455H85.9367C86.5866 390.455 87.1448 390.586 87.6114 390.848C88.0802 391.108 88.4403 391.482 88.6917 391.969C88.9431 392.457 89.0688 393.041 89.0688 393.721C89.0688 394.403 88.942 394.989 88.6885 395.479C88.4371 395.969 88.0738 396.345 87.5986 396.607C87.1256 396.869 86.5567 397 85.892 397ZM84.8596 395.974H85.8344C86.2904 395.974 86.6707 395.891 86.9754 395.725C87.2801 395.556 87.5091 395.306 87.6626 394.974C87.816 394.639 87.8927 394.222 87.8927 393.721C87.8927 393.22 87.816 392.805 87.6626 392.474C87.5091 392.142 87.2822 391.894 86.9818 391.73C86.6835 391.564 86.3128 391.48 85.8696 391.48H84.8596V395.974ZM91.9954 397V390.455H96.2525V391.449H93.1811V393.225H96.032V394.219H93.1811V396.006H96.2781V397H91.9954ZM99.2622 397V390.455H101.717C102.22 390.455 102.641 390.542 102.982 390.717C103.325 390.891 103.584 391.136 103.759 391.452C103.936 391.765 104.024 392.13 104.024 392.548C104.024 392.968 103.935 393.332 103.756 393.641C103.579 393.948 103.318 394.185 102.973 394.354C102.628 394.52 102.204 394.603 101.701 394.603H99.9525V393.619H101.541C101.835 393.619 102.076 393.578 102.263 393.497C102.451 393.414 102.589 393.294 102.679 393.136C102.77 392.976 102.816 392.78 102.816 392.548C102.816 392.316 102.77 392.118 102.679 391.953C102.587 391.787 102.448 391.662 102.26 391.576C102.073 391.489 101.831 391.445 101.535 391.445H100.448V397H99.2622ZM102.644 394.034L104.264 397H102.941L101.349 394.034H102.644ZM107.756 397H106.491L108.795 390.455H110.259L112.566 397H111.301L109.552 391.797H109.501L107.756 397ZM107.798 394.434H111.25V395.386H107.798V394.434ZM114.15 391.449V390.455H119.372V391.449H117.349V397H116.173V391.449H114.15ZM122.179 397V390.455H126.436V391.449H123.365V393.225H126.215V394.219H123.365V396.006H126.461V397H122.179Z" fill="#8A81A5"/>
<path d="M10.2655 12V3.27273H15.9416V4.59801H11.8464V6.96733H15.6476V8.29261H11.8464V10.6747H15.9757V12H10.2655ZM21.2756 3.27273L23.1974 6.46875H23.2656L25.196 3.27273H26.9986L24.3097 7.63636L27.0412 12H25.2088L23.2656 8.82528H23.1974L21.2543 12H19.4304L22.1875 7.63636L19.4645 3.27273H21.2756ZM30.6397 12V3.27273H33.9124C34.5829 3.27273 35.1454 3.39773 35.5999 3.64773C36.0573 3.89773 36.4025 4.24148 36.6354 4.67898C36.8712 5.11364 36.9891 5.60795 36.9891 6.16193C36.9891 6.72159 36.8712 7.21875 36.6354 7.65341C36.3996 8.08807 36.0516 8.4304 35.5914 8.6804C35.1312 8.92756 34.5644 9.05114 33.8911 9.05114H31.7221V7.75142H33.6781C34.0701 7.75142 34.3911 7.68324 34.6411 7.54688C34.8911 7.41051 35.0758 7.22301 35.1951 6.98438C35.3173 6.74574 35.3783 6.47159 35.3783 6.16193C35.3783 5.85227 35.3173 5.57955 35.1951 5.34375C35.0758 5.10795 34.8897 4.92472 34.6369 4.79403C34.3869 4.66051 34.0644 4.59375 33.6695 4.59375H32.2207V12H30.6397ZM40.7624 12V3.27273H46.4385V4.59801H42.3433V6.96733H46.1445V8.29261H42.3433V10.6747H46.4726V12H40.7624ZM57.9216 6.21733H56.3278C56.2824 5.95597 56.1986 5.72443 56.0764 5.52273C55.9543 5.31818 55.8023 5.14489 55.6205 5.00284C55.4386 4.8608 55.2312 4.75426 54.9983 4.68324C54.7682 4.60938 54.5196 4.57244 54.2526 4.57244C53.7781 4.57244 53.3577 4.69176 52.9912 4.9304C52.6247 5.16619 52.3378 5.51278 52.1304 5.97017C51.923 6.42472 51.8193 6.98011 51.8193 7.63636C51.8193 8.30398 51.923 8.86648 52.1304 9.32386C52.3406 9.77841 52.6276 10.1222 52.9912 10.3551C53.3577 10.5852 53.7767 10.7003 54.2483 10.7003C54.5097 10.7003 54.754 10.6662 54.9812 10.598C55.2114 10.527 55.4173 10.4233 55.5991 10.2869C55.7838 10.1506 55.9386 9.98295 56.0636 9.78409C56.1915 9.58523 56.2795 9.35795 56.3278 9.10227L57.9216 9.1108C57.8619 9.52557 57.7327 9.91477 57.5338 10.2784C57.3378 10.642 57.0807 10.9631 56.7625 11.2415C56.4443 11.517 56.0722 11.733 55.646 11.8892C55.2199 12.0426 54.7469 12.1193 54.227 12.1193C53.4599 12.1193 52.7753 11.9418 52.173 11.5866C51.5707 11.2315 51.0963 10.7188 50.7497 10.0483C50.4031 9.37784 50.2298 8.57386 50.2298 7.63636C50.2298 6.69602 50.4045 5.89205 50.754 5.22443C51.1034 4.55398 51.5793 4.04119 52.1815 3.68608C52.7838 3.33097 53.4656 3.15341 54.227 3.15341C54.7128 3.15341 55.1645 3.22159 55.5821 3.35795C55.9997 3.49432 56.3719 3.6946 56.6986 3.95881C57.0253 4.22017 57.2937 4.54119 57.504 4.92188C57.717 5.29972 57.8562 5.73153 57.9216 6.21733ZM61.3859 4.59801V3.27273H68.3489V4.59801H65.6515V12H64.0833V4.59801H61.3859ZM72.1573 12H70.4698L73.5423 3.27273H75.494L78.5707 12H76.8832L74.5522 5.0625H74.484L72.1573 12ZM72.2127 8.57812H76.815V9.84801H72.2127V8.57812ZM80.682 4.59801V3.27273H87.645V4.59801H84.9476V12H83.3794V4.59801H80.682ZM92.9683 3.27273V12H91.3874V3.27273H92.9683ZM104.879 7.63636C104.879 8.5767 104.702 9.3821 104.35 10.0526C104.001 10.7202 103.524 11.2315 102.918 11.5866C102.316 11.9418 101.633 12.1193 100.869 12.1193C100.104 12.1193 99.4198 11.9418 98.8147 11.5866C98.2124 11.2287 97.7352 10.7159 97.3829 10.0483C97.0334 9.37784 96.8587 8.57386 96.8587 7.63636C96.8587 6.69602 97.0334 5.89205 97.3829 5.22443C97.7352 4.55398 98.2124 4.04119 98.8147 3.68608C99.4198 3.33097 100.104 3.15341 100.869 3.15341C101.633 3.15341 102.316 3.33097 102.918 3.68608C103.524 4.04119 104.001 4.55398 104.35 5.22443C104.702 5.89205 104.879 6.69602 104.879 7.63636ZM103.289 7.63636C103.289 6.97443 103.185 6.41619 102.978 5.96165C102.774 5.50426 102.489 5.15909 102.126 4.92614C101.762 4.69034 101.343 4.57244 100.869 4.57244C100.394 4.57244 99.9752 4.69034 99.6116 4.92614C99.2479 5.15909 98.9624 5.50426 98.755 5.96165C98.5505 6.41619 98.4482 6.97443 98.4482 7.63636C98.4482 8.2983 98.5505 8.85795 98.755 9.31534C98.9624 9.76989 99.2479 10.1151 99.6116 10.3509C99.9752 10.5838 100.394 10.7003 100.869 10.7003C101.343 10.7003 101.762 10.5838 102.126 10.3509C102.489 10.1151 102.774 9.76989 102.978 9.31534C103.185 8.85795 103.289 8.2983 103.289 7.63636ZM115.945 3.27273V12H114.539L110.427 6.0554H110.354V12H108.773V3.27273H110.188L114.296 9.22159H114.373V3.27273H115.945ZM124.811 5.67188C124.771 5.29972 124.603 5.00994 124.308 4.80256C124.015 4.59517 123.635 4.49148 123.166 4.49148C122.836 4.49148 122.554 4.54119 122.318 4.64062C122.082 4.74006 121.902 4.875 121.777 5.04545C121.652 5.21591 121.588 5.41051 121.585 5.62926C121.585 5.81108 121.626 5.96875 121.708 6.10227C121.794 6.2358 121.909 6.34943 122.054 6.44318C122.199 6.53409 122.359 6.6108 122.535 6.6733C122.711 6.7358 122.889 6.78835 123.068 6.83097L123.886 7.03551C124.216 7.11222 124.532 7.21591 124.836 7.34659C125.143 7.47727 125.417 7.64205 125.659 7.84091C125.903 8.03977 126.096 8.27983 126.238 8.56108C126.38 8.84233 126.451 9.17187 126.451 9.54972C126.451 10.0611 126.321 10.5114 126.059 10.9006C125.798 11.2869 125.42 11.5895 124.926 11.8082C124.434 12.0241 123.839 12.1321 123.14 12.1321C122.461 12.1321 121.872 12.027 121.372 11.8168C120.875 11.6065 120.485 11.2997 120.204 10.8963C119.926 10.4929 119.775 10.0014 119.752 9.42188H121.308C121.331 9.72585 121.424 9.97869 121.589 10.1804C121.754 10.3821 121.968 10.5327 122.233 10.6321C122.5 10.7315 122.798 10.7812 123.127 10.7812C123.471 10.7812 123.772 10.7301 124.031 10.6278C124.292 10.5227 124.497 10.3778 124.645 10.1932C124.792 10.0057 124.868 9.78693 124.87 9.53693C124.868 9.30966 124.801 9.12216 124.67 8.97443C124.539 8.82386 124.356 8.69886 124.12 8.59943C123.887 8.49716 123.615 8.40625 123.302 8.3267L122.309 8.07102C121.591 7.88636 121.022 7.60653 120.605 7.23153C120.19 6.85369 119.983 6.35227 119.983 5.72727C119.983 5.21307 120.122 4.76278 120.4 4.37642C120.681 3.99006 121.064 3.69034 121.547 3.47727C122.029 3.26136 122.576 3.15341 123.187 3.15341C123.806 3.15341 124.349 3.26136 124.815 3.47727C125.284 3.69034 125.652 3.98722 125.919 4.3679C126.186 4.74574 126.324 5.1804 126.332 5.67188H124.811Z" fill="#222222"/>
<path d="M467.697 151L465.234 142.273H466.935L468.507 148.686H468.588L470.267 142.273H471.814L473.497 148.69H473.574L475.146 142.273H476.847L474.384 151H472.824L471.077 144.876H471.009L469.257 151H467.697ZM487.672 146.636C487.672 147.577 487.496 148.382 487.144 149.053C486.795 149.72 486.317 150.232 485.712 150.587C485.11 150.942 484.427 151.119 483.662 151.119C482.898 151.119 482.214 150.942 481.608 150.587C481.006 150.229 480.529 149.716 480.177 149.048C479.827 148.378 479.652 147.574 479.652 146.636C479.652 145.696 479.827 144.892 480.177 144.224C480.529 143.554 481.006 143.041 481.608 142.686C482.214 142.331 482.898 142.153 483.662 142.153C484.427 142.153 485.11 142.331 485.712 142.686C486.317 143.041 486.795 143.554 487.144 144.224C487.496 144.892 487.672 145.696 487.672 146.636ZM486.083 146.636C486.083 145.974 485.979 145.416 485.772 144.962C485.567 144.504 485.283 144.159 484.92 143.926C484.556 143.69 484.137 143.572 483.662 143.572C483.188 143.572 482.769 143.69 482.405 143.926C482.042 144.159 481.756 144.504 481.549 144.962C481.344 145.416 481.242 145.974 481.242 146.636C481.242 147.298 481.344 147.858 481.549 148.315C481.756 148.77 482.042 149.115 482.405 149.351C482.769 149.584 483.188 149.7 483.662 149.7C484.137 149.7 484.556 149.584 484.92 149.351C485.283 149.115 485.567 148.77 485.772 148.315C485.979 147.858 486.083 147.298 486.083 146.636ZM491.567 151V142.273H494.84C495.51 142.273 496.073 142.389 496.527 142.622C496.985 142.855 497.33 143.182 497.563 143.602C497.799 144.02 497.916 144.507 497.916 145.064C497.916 145.624 497.797 146.109 497.559 146.521C497.323 146.93 496.975 147.247 496.514 147.472C496.054 147.693 495.489 147.804 494.818 147.804H492.487V146.491H494.605C494.997 146.491 495.318 146.437 495.568 146.33C495.818 146.219 496.003 146.058 496.122 145.848C496.245 145.635 496.306 145.374 496.306 145.064C496.306 144.754 496.245 144.49 496.122 144.271C496 144.05 495.814 143.882 495.564 143.768C495.314 143.652 494.992 143.594 494.597 143.594H493.148V151H491.567ZM496.076 147.045L498.236 151H496.472L494.35 147.045H496.076ZM501.772 151V142.273H503.353V146.283H503.459L506.864 142.273H508.794L505.419 146.189L508.824 151H506.924L504.32 147.259L503.353 148.401V151H501.772ZM513.874 142.273V151H512.293V142.273H513.874ZM525.158 142.273V151H523.751L519.639 145.055H519.567V151H517.986V142.273H519.401L523.509 148.222H523.585V142.273H525.158ZM535.127 145.06C535.056 144.83 534.958 144.624 534.833 144.442C534.711 144.257 534.563 144.099 534.39 143.969C534.219 143.838 534.023 143.74 533.802 143.675C533.58 143.607 533.339 143.572 533.077 143.572C532.608 143.572 532.191 143.69 531.824 143.926C531.458 144.162 531.17 144.509 530.959 144.966C530.752 145.42 530.648 145.974 530.648 146.628C530.648 147.287 530.752 147.845 530.959 148.303C531.167 148.76 531.455 149.108 531.824 149.347C532.194 149.582 532.623 149.7 533.111 149.7C533.554 149.7 533.938 149.615 534.262 149.445C534.589 149.274 534.84 149.033 535.016 148.72C535.192 148.405 535.28 148.036 535.28 147.612L535.638 147.668H533.269V146.432H536.81V147.48C536.81 148.227 536.651 148.874 536.333 149.419C536.015 149.964 535.577 150.385 535.02 150.68C534.464 150.973 533.824 151.119 533.103 151.119C532.299 151.119 531.593 150.939 530.985 150.578C530.38 150.214 529.907 149.699 529.566 149.031C529.228 148.361 529.059 147.565 529.059 146.645C529.059 145.94 529.158 145.311 529.357 144.757C529.559 144.203 529.84 143.733 530.201 143.347C530.562 142.957 530.985 142.662 531.471 142.46C531.956 142.256 532.485 142.153 533.056 142.153C533.539 142.153 533.989 142.224 534.407 142.366C534.824 142.506 535.195 142.705 535.519 142.963C535.846 143.222 536.114 143.528 536.324 143.884C536.535 144.239 536.672 144.631 536.738 145.06H535.127ZM470.604 159.672C470.564 159.3 470.396 159.01 470.101 158.803C469.808 158.595 469.428 158.491 468.959 158.491C468.629 158.491 468.347 158.541 468.111 158.641C467.875 158.74 467.695 158.875 467.57 159.045C467.445 159.216 467.381 159.411 467.378 159.629C467.378 159.811 467.419 159.969 467.501 160.102C467.587 160.236 467.702 160.349 467.847 160.443C467.991 160.534 468.152 160.611 468.328 160.673C468.504 160.736 468.682 160.788 468.861 160.831L469.679 161.036C470.009 161.112 470.325 161.216 470.629 161.347C470.936 161.477 471.21 161.642 471.452 161.841C471.696 162.04 471.889 162.28 472.031 162.561C472.173 162.842 472.244 163.172 472.244 163.55C472.244 164.061 472.114 164.511 471.852 164.901C471.591 165.287 471.213 165.589 470.719 165.808C470.227 166.024 469.632 166.132 468.933 166.132C468.254 166.132 467.665 166.027 467.165 165.817C466.668 165.607 466.278 165.3 465.997 164.896C465.719 164.493 465.568 164.001 465.545 163.422H467.101C467.124 163.726 467.217 163.979 467.382 164.18C467.547 164.382 467.761 164.533 468.026 164.632C468.293 164.732 468.591 164.781 468.92 164.781C469.264 164.781 469.565 164.73 469.824 164.628C470.085 164.523 470.29 164.378 470.438 164.193C470.585 164.006 470.661 163.787 470.663 163.537C470.661 163.31 470.594 163.122 470.463 162.974C470.332 162.824 470.149 162.699 469.913 162.599C469.68 162.497 469.408 162.406 469.095 162.327L468.102 162.071C467.384 161.886 466.815 161.607 466.398 161.232C465.983 160.854 465.776 160.352 465.776 159.727C465.776 159.213 465.915 158.763 466.193 158.376C466.474 157.99 466.857 157.69 467.339 157.477C467.822 157.261 468.369 157.153 468.98 157.153C469.599 157.153 470.142 157.261 470.608 157.477C471.077 157.69 471.445 157.987 471.712 158.368C471.979 158.746 472.116 159.18 472.125 159.672H470.604ZM483.852 161.636C483.852 162.577 483.676 163.382 483.324 164.053C482.974 164.72 482.497 165.232 481.892 165.587C481.29 165.942 480.606 166.119 479.842 166.119C479.078 166.119 478.393 165.942 477.788 165.587C477.186 165.229 476.709 164.716 476.356 164.048C476.007 163.378 475.832 162.574 475.832 161.636C475.832 160.696 476.007 159.892 476.356 159.224C476.709 158.554 477.186 158.041 477.788 157.686C478.393 157.331 479.078 157.153 479.842 157.153C480.606 157.153 481.29 157.331 481.892 157.686C482.497 158.041 482.974 158.554 483.324 159.224C483.676 159.892 483.852 160.696 483.852 161.636ZM482.263 161.636C482.263 160.974 482.159 160.416 481.951 159.962C481.747 159.504 481.463 159.159 481.099 158.926C480.736 158.69 480.317 158.572 479.842 158.572C479.368 158.572 478.949 158.69 478.585 158.926C478.221 159.159 477.936 159.504 477.728 159.962C477.524 160.416 477.422 160.974 477.422 161.636C477.422 162.298 477.524 162.858 477.728 163.315C477.936 163.77 478.221 164.115 478.585 164.351C478.949 164.584 479.368 164.7 479.842 164.7C480.317 164.7 480.736 164.584 481.099 164.351C481.463 164.115 481.747 163.77 481.951 163.315C482.159 162.858 482.263 162.298 482.263 161.636ZM487.747 166V157.273H489.328V164.675H493.171V166H487.747ZM502.445 157.273H504.026V162.974C504.026 163.599 503.878 164.149 503.583 164.624C503.29 165.098 502.878 165.469 502.347 165.736C501.816 166 501.195 166.132 500.485 166.132C499.772 166.132 499.15 166 498.618 165.736C498.087 165.469 497.675 165.098 497.383 164.624C497.09 164.149 496.944 163.599 496.944 162.974V157.273H498.525V162.842C498.525 163.206 498.604 163.53 498.763 163.814C498.925 164.098 499.152 164.321 499.445 164.483C499.738 164.642 500.084 164.722 500.485 164.722C500.885 164.722 501.232 164.642 501.525 164.483C501.82 164.321 502.047 164.098 502.206 163.814C502.365 163.53 502.445 163.206 502.445 162.842V157.273ZM507.761 158.598V157.273H514.724V158.598H512.026V166H510.458V158.598H507.761ZM520.047 157.273V166H518.466V157.273H520.047ZM531.958 161.636C531.958 162.577 531.781 163.382 531.429 164.053C531.08 164.72 530.602 165.232 529.997 165.587C529.395 165.942 528.712 166.119 527.948 166.119C527.183 166.119 526.499 165.942 525.894 165.587C525.291 165.229 524.814 164.716 524.462 164.048C524.112 163.378 523.938 162.574 523.938 161.636C523.938 160.696 524.112 159.892 524.462 159.224C524.814 158.554 525.291 158.041 525.894 157.686C526.499 157.331 527.183 157.153 527.948 157.153C528.712 157.153 529.395 157.331 529.997 157.686C530.602 158.041 531.08 158.554 531.429 159.224C531.781 159.892 531.958 160.696 531.958 161.636ZM530.368 161.636C530.368 160.974 530.264 160.416 530.057 159.962C529.852 159.504 529.568 159.159 529.205 158.926C528.841 158.69 528.422 158.572 527.948 158.572C527.473 158.572 527.054 158.69 526.69 158.926C526.327 159.159 526.041 159.504 525.834 159.962C525.629 160.416 525.527 160.974 525.527 161.636C525.527 162.298 525.629 162.858 525.834 163.315C526.041 163.77 526.327 164.115 526.69 164.351C527.054 164.584 527.473 164.7 527.948 164.7C528.422 164.7 528.841 164.584 529.205 164.351C529.568 164.115 529.852 163.77 530.057 163.315C530.264 162.858 530.368 162.298 530.368 161.636ZM543.024 157.273V166H541.618L537.506 160.055H537.433V166H535.852V157.273H537.267L541.375 163.222H541.452V157.273H543.024Z" fill="#578763"/>
<path d="M764.659 146.636C764.659 147.577 764.483 148.382 764.131 149.053C763.781 149.72 763.304 150.232 762.699 150.587C762.097 150.942 761.413 151.119 760.649 151.119C759.885 151.119 759.2 150.942 758.595 150.587C757.993 150.229 757.516 149.716 757.163 149.048C756.814 148.378 756.639 147.574 756.639 146.636C756.639 145.696 756.814 144.892 757.163 144.224C757.516 143.554 757.993 143.041 758.595 142.686C759.2 142.331 759.885 142.153 760.649 142.153C761.413 142.153 762.097 142.331 762.699 142.686C763.304 143.041 763.781 143.554 764.131 144.224C764.483 144.892 764.659 145.696 764.659 146.636ZM763.07 146.636C763.07 145.974 762.966 145.416 762.759 144.962C762.554 144.504 762.27 144.159 761.906 143.926C761.543 143.69 761.124 143.572 760.649 143.572C760.175 143.572 759.756 143.69 759.392 143.926C759.028 144.159 758.743 144.504 758.536 144.962C758.331 145.416 758.229 145.974 758.229 146.636C758.229 147.298 758.331 147.858 758.536 148.315C758.743 148.77 759.028 149.115 759.392 149.351C759.756 149.584 760.175 149.7 760.649 149.7C761.124 149.7 761.543 149.584 761.906 149.351C762.27 149.115 762.554 148.77 762.759 148.315C762.966 147.858 763.07 147.298 763.07 146.636ZM775.726 142.273V151H774.319L770.207 145.055H770.135V151H768.554V142.273H769.969L774.076 148.222H774.153V142.273H775.726ZM779.848 151V142.273H783.189C783.82 142.273 784.344 142.372 784.762 142.571C785.182 142.767 785.496 143.036 785.703 143.376C785.914 143.717 786.019 144.104 786.019 144.536C786.019 144.891 785.951 145.195 785.814 145.447C785.678 145.697 785.495 145.901 785.264 146.057C785.034 146.213 784.777 146.325 784.493 146.393V146.479C784.803 146.496 785.1 146.591 785.384 146.764C785.671 146.935 785.905 147.176 786.087 147.489C786.269 147.801 786.36 148.179 786.36 148.622C786.36 149.074 786.25 149.48 786.032 149.841C785.813 150.199 785.483 150.482 785.043 150.689C784.603 150.896 784.049 151 783.381 151H779.848ZM781.429 149.679H783.13C783.703 149.679 784.117 149.57 784.37 149.351C784.625 149.129 784.753 148.845 784.753 148.499C784.753 148.24 784.689 148.007 784.561 147.8C784.434 147.589 784.252 147.425 784.016 147.305C783.78 147.183 783.499 147.122 783.172 147.122H781.429V149.679ZM781.429 145.984H782.993C783.266 145.984 783.512 145.935 783.73 145.835C783.949 145.733 784.121 145.589 784.246 145.405C784.374 145.217 784.438 144.996 784.438 144.74C784.438 144.402 784.318 144.124 784.08 143.905C783.844 143.686 783.493 143.577 783.027 143.577H781.429V145.984ZM797.933 146.636C797.933 147.577 797.757 148.382 797.405 149.053C797.055 149.72 796.578 150.232 795.973 150.587C795.371 150.942 794.688 151.119 793.923 151.119C793.159 151.119 792.475 150.942 791.869 150.587C791.267 150.229 790.79 149.716 790.438 149.048C790.088 148.378 789.913 147.574 789.913 146.636C789.913 145.696 790.088 144.892 790.438 144.224C790.79 143.554 791.267 143.041 791.869 142.686C792.475 142.331 793.159 142.153 793.923 142.153C794.688 142.153 795.371 142.331 795.973 142.686C796.578 143.041 797.055 143.554 797.405 144.224C797.757 144.892 797.933 145.696 797.933 146.636ZM796.344 146.636C796.344 145.974 796.24 145.416 796.033 144.962C795.828 144.504 795.544 144.159 795.18 143.926C794.817 143.69 794.398 143.572 793.923 143.572C793.449 143.572 793.03 143.69 792.666 143.926C792.303 144.159 792.017 144.504 791.81 144.962C791.605 145.416 791.503 145.974 791.503 146.636C791.503 147.298 791.605 147.858 791.81 148.315C792.017 148.77 792.303 149.115 792.666 149.351C793.03 149.584 793.449 149.7 793.923 149.7C794.398 149.7 794.817 149.584 795.18 149.351C795.544 149.115 795.828 148.77 796.033 148.315C796.24 147.858 796.344 147.298 796.344 146.636ZM802.48 151H800.792L803.865 142.273H805.817L808.893 151H807.206L804.875 144.062H804.807L802.48 151ZM802.535 147.578H807.138V148.848H802.535V147.578ZM812.443 151V142.273H815.716C816.386 142.273 816.949 142.389 817.403 142.622C817.86 142.855 818.206 143.182 818.439 143.602C818.674 144.02 818.792 144.507 818.792 145.064C818.792 145.624 818.673 146.109 818.434 146.521C818.199 146.93 817.85 147.247 817.39 147.472C816.93 147.693 816.365 147.804 815.694 147.804H813.363V146.491H815.481C815.873 146.491 816.194 146.437 816.444 146.33C816.694 146.219 816.879 146.058 816.998 145.848C817.12 145.635 817.181 145.374 817.181 145.064C817.181 144.754 817.12 144.49 816.998 144.271C816.876 144.05 816.69 143.882 816.44 143.768C816.19 143.652 815.868 143.594 815.473 143.594H814.024V151H812.443ZM816.951 147.045L819.112 151H817.348L815.225 147.045H816.951ZM825.605 151H822.648V142.273H825.665C826.531 142.273 827.275 142.447 827.898 142.797C828.523 143.143 829.003 143.642 829.338 144.293C829.673 144.943 829.841 145.722 829.841 146.628C829.841 147.537 829.672 148.318 829.334 148.972C828.998 149.625 828.514 150.126 827.88 150.476C827.25 150.825 826.491 151 825.605 151ZM824.228 149.632H825.528C826.136 149.632 826.643 149.521 827.05 149.3C827.456 149.075 827.761 148.741 827.966 148.298C828.17 147.852 828.273 147.295 828.273 146.628C828.273 145.96 828.17 145.406 827.966 144.966C827.761 144.523 827.459 144.192 827.058 143.973C826.66 143.751 826.166 143.641 825.575 143.641H824.228V149.632ZM835.324 142.273V151H833.743V142.273H835.324ZM846.608 142.273V151H845.201L841.089 145.055H841.017V151H839.436V142.273H840.851L844.959 148.222H845.035V142.273H846.608ZM856.577 145.06C856.506 144.83 856.408 144.624 856.283 144.442C856.161 144.257 856.013 144.099 855.84 143.969C855.669 143.838 855.473 143.74 855.252 143.675C855.03 143.607 854.789 143.572 854.527 143.572C854.058 143.572 853.641 143.69 853.274 143.926C852.908 144.162 852.62 144.509 852.409 144.966C852.202 145.42 852.098 145.974 852.098 146.628C852.098 147.287 852.202 147.845 852.409 148.303C852.617 148.76 852.905 149.108 853.274 149.347C853.644 149.582 854.073 149.7 854.561 149.7C855.004 149.7 855.388 149.615 855.712 149.445C856.039 149.274 856.29 149.033 856.466 148.72C856.642 148.405 856.73 148.036 856.73 147.612L857.088 147.668H854.719V146.432H858.26V147.48C858.26 148.227 858.101 148.874 857.783 149.419C857.465 149.964 857.027 150.385 856.47 150.68C855.914 150.973 855.274 151.119 854.553 151.119C853.749 151.119 853.043 150.939 852.435 150.578C851.83 150.214 851.357 149.699 851.016 149.031C850.678 148.361 850.509 147.565 850.509 146.645C850.509 145.94 850.608 145.311 850.807 144.757C851.009 144.203 851.29 143.733 851.651 143.347C852.012 142.957 852.435 142.662 852.921 142.46C853.406 142.256 853.935 142.153 854.506 142.153C854.989 142.153 855.439 142.224 855.857 142.366C856.274 142.506 856.645 142.705 856.969 142.963C857.296 143.222 857.564 143.528 857.774 143.884C857.985 144.239 858.122 144.631 858.188 145.06H856.577ZM764.331 160.217H762.737C762.692 159.956 762.608 159.724 762.486 159.523C762.364 159.318 762.212 159.145 762.03 159.003C761.848 158.861 761.641 158.754 761.408 158.683C761.178 158.609 760.929 158.572 760.662 158.572C760.188 158.572 759.767 158.692 759.401 158.93C759.034 159.166 758.747 159.513 758.54 159.97C758.332 160.425 758.229 160.98 758.229 161.636C758.229 162.304 758.332 162.866 758.54 163.324C758.75 163.778 759.037 164.122 759.401 164.355C759.767 164.585 760.186 164.7 760.658 164.7C760.919 164.7 761.163 164.666 761.391 164.598C761.621 164.527 761.827 164.423 762.009 164.287C762.193 164.151 762.348 163.983 762.473 163.784C762.601 163.585 762.689 163.358 762.737 163.102L764.331 163.111C764.271 163.526 764.142 163.915 763.943 164.278C763.747 164.642 763.49 164.963 763.172 165.241C762.854 165.517 762.482 165.733 762.055 165.889C761.629 166.043 761.156 166.119 760.636 166.119C759.869 166.119 759.185 165.942 758.582 165.587C757.98 165.232 757.506 164.719 757.159 164.048C756.813 163.378 756.639 162.574 756.639 161.636C756.639 160.696 756.814 159.892 757.163 159.224C757.513 158.554 757.989 158.041 758.591 157.686C759.193 157.331 759.875 157.153 760.636 157.153C761.122 157.153 761.574 157.222 761.991 157.358C762.409 157.494 762.781 157.695 763.108 157.959C763.435 158.22 763.703 158.541 763.913 158.922C764.126 159.3 764.266 159.732 764.331 160.217ZM775.977 161.636C775.977 162.577 775.801 163.382 775.449 164.053C775.099 164.72 774.622 165.232 774.017 165.587C773.415 165.942 772.731 166.119 771.967 166.119C771.203 166.119 770.518 165.942 769.913 165.587C769.311 165.229 768.834 164.716 768.481 164.048C768.132 163.378 767.957 162.574 767.957 161.636C767.957 160.696 768.132 159.892 768.481 159.224C768.834 158.554 769.311 158.041 769.913 157.686C770.518 157.331 771.203 157.153 771.967 157.153C772.731 157.153 773.415 157.331 774.017 157.686C774.622 158.041 775.099 158.554 775.449 159.224C775.801 159.892 775.977 160.696 775.977 161.636ZM774.388 161.636C774.388 160.974 774.284 160.416 774.076 159.962C773.872 159.504 773.588 159.159 773.224 158.926C772.861 158.69 772.442 158.572 771.967 158.572C771.493 158.572 771.074 158.69 770.71 158.926C770.346 159.159 770.061 159.504 769.853 159.962C769.649 160.416 769.547 160.974 769.547 161.636C769.547 162.298 769.649 162.858 769.853 163.315C770.061 163.77 770.346 164.115 770.71 164.351C771.074 164.584 771.493 164.7 771.967 164.7C772.442 164.7 772.861 164.584 773.224 164.351C773.588 164.115 773.872 163.77 774.076 163.315C774.284 162.858 774.388 162.298 774.388 161.636ZM779.872 157.273H781.806L784.397 163.597H784.5L787.09 157.273H789.025V166H787.508V160.004H787.427L785.015 165.974H783.882L781.47 159.991H781.389V166H779.872V157.273ZM793.147 166V157.273H796.419C797.09 157.273 797.652 157.398 798.107 157.648C798.564 157.898 798.91 158.241 799.142 158.679C799.378 159.114 799.496 159.608 799.496 160.162C799.496 160.722 799.378 161.219 799.142 161.653C798.907 162.088 798.559 162.43 798.098 162.68C797.638 162.928 797.071 163.051 796.398 163.051H794.229V161.751H796.185C796.577 161.751 796.898 161.683 797.148 161.547C797.398 161.411 797.583 161.223 797.702 160.984C797.824 160.746 797.885 160.472 797.885 160.162C797.885 159.852 797.824 159.58 797.702 159.344C797.583 159.108 797.397 158.925 797.144 158.794C796.894 158.661 796.571 158.594 796.177 158.594H794.728V166H793.147ZM803.269 166V157.273H804.85V164.675H808.694V166H803.269ZM812.466 166V157.273H818.142V158.598H814.047V160.967H817.848V162.293H814.047V164.675H818.176V166H812.466ZM821.772 158.598V157.273H828.735V158.598H826.037V166H824.469V158.598H821.772ZM832.477 166V157.273H838.153V158.598H834.058V160.967H837.859V162.293H834.058V164.675H838.187V166H832.477ZM845.124 166H842.166V157.273H845.183C846.05 157.273 846.794 157.447 847.416 157.797C848.041 158.143 848.521 158.642 848.857 159.293C849.192 159.943 849.359 160.722 849.359 161.628C849.359 162.537 849.19 163.318 848.852 163.972C848.517 164.625 848.033 165.126 847.399 165.476C846.769 165.825 846.01 166 845.124 166ZM843.747 164.632H845.047C845.655 164.632 846.162 164.521 846.568 164.3C846.974 164.075 847.28 163.741 847.484 163.298C847.689 162.852 847.791 162.295 847.791 161.628C847.791 160.96 847.689 160.406 847.484 159.966C847.28 159.523 846.977 159.192 846.577 158.973C846.179 158.751 845.685 158.641 845.094 158.641H843.747V164.632Z" fill="#578763"/>
<path d="M990.697 293L988.234 284.273H989.935L991.507 290.686H991.588L993.267 284.273H994.814L996.497 290.69H996.574L998.146 284.273H999.847L997.384 293H995.824L994.077 286.876H994.009L992.257 293H990.697ZM1010.67 288.636C1010.67 289.577 1010.5 290.382 1010.14 291.053C1009.79 291.72 1009.32 292.232 1008.71 292.587C1008.11 292.942 1007.43 293.119 1006.66 293.119C1005.9 293.119 1005.21 292.942 1004.61 292.587C1004.01 292.229 1003.53 291.716 1003.18 291.048C1002.83 290.378 1002.65 289.574 1002.65 288.636C1002.65 287.696 1002.83 286.892 1003.18 286.224C1003.53 285.554 1004.01 285.041 1004.61 284.686C1005.21 284.331 1005.9 284.153 1006.66 284.153C1007.43 284.153 1008.11 284.331 1008.71 284.686C1009.32 285.041 1009.79 285.554 1010.14 286.224C1010.5 286.892 1010.67 287.696 1010.67 288.636ZM1009.08 288.636C1009.08 287.974 1008.98 287.416 1008.77 286.962C1008.57 286.504 1008.28 286.159 1007.92 285.926C1007.56 285.69 1007.14 285.572 1006.66 285.572C1006.19 285.572 1005.77 285.69 1005.41 285.926C1005.04 286.159 1004.76 286.504 1004.55 286.962C1004.34 287.416 1004.24 287.974 1004.24 288.636C1004.24 289.298 1004.34 289.858 1004.55 290.315C1004.76 290.77 1005.04 291.115 1005.41 291.351C1005.77 291.584 1006.19 291.7 1006.66 291.7C1007.14 291.7 1007.56 291.584 1007.92 291.351C1008.28 291.115 1008.57 290.77 1008.77 290.315C1008.98 289.858 1009.08 289.298 1009.08 288.636ZM1014.57 293V284.273H1017.84C1018.51 284.273 1019.07 284.389 1019.53 284.622C1019.98 284.855 1020.33 285.182 1020.56 285.602C1020.8 286.02 1020.92 286.507 1020.92 287.064C1020.92 287.624 1020.8 288.109 1020.56 288.521C1020.32 288.93 1019.97 289.247 1019.51 289.472C1019.05 289.693 1018.49 289.804 1017.82 289.804H1015.49V288.491H1017.61C1018 288.491 1018.32 288.437 1018.57 288.33C1018.82 288.219 1019 288.058 1019.12 287.848C1019.24 287.635 1019.31 287.374 1019.31 287.064C1019.31 286.754 1019.24 286.49 1019.12 286.271C1019 286.05 1018.81 285.882 1018.56 285.768C1018.31 285.652 1017.99 285.594 1017.6 285.594H1016.15V293H1014.57ZM1019.08 289.045L1021.24 293H1019.47L1017.35 289.045H1019.08ZM1024.77 293V284.273H1026.35V288.283H1026.46L1029.86 284.273H1031.79L1028.42 288.189L1031.82 293H1029.92L1027.32 289.259L1026.35 290.401V293H1024.77ZM1036.87 284.273V293H1035.29V284.273H1036.87ZM1048.16 284.273V293H1046.75L1042.64 287.055H1042.57V293H1040.99V284.273H1042.4L1046.51 290.222H1046.59V284.273H1048.16ZM1058.13 287.06C1058.06 286.83 1057.96 286.624 1057.83 286.442C1057.71 286.257 1057.56 286.099 1057.39 285.969C1057.22 285.838 1057.02 285.74 1056.8 285.675C1056.58 285.607 1056.34 285.572 1056.08 285.572C1055.61 285.572 1055.19 285.69 1054.82 285.926C1054.46 286.162 1054.17 286.509 1053.96 286.966C1053.75 287.42 1053.65 287.974 1053.65 288.628C1053.65 289.287 1053.75 289.845 1053.96 290.303C1054.17 290.76 1054.46 291.108 1054.82 291.347C1055.19 291.582 1055.62 291.7 1056.11 291.7C1056.55 291.7 1056.94 291.615 1057.26 291.445C1057.59 291.274 1057.84 291.033 1058.02 290.72C1058.19 290.405 1058.28 290.036 1058.28 289.612L1058.64 289.668H1056.27V288.432H1059.81V289.48C1059.81 290.227 1059.65 290.874 1059.33 291.419C1059.01 291.964 1058.58 292.385 1058.02 292.68C1057.46 292.973 1056.82 293.119 1056.1 293.119C1055.3 293.119 1054.59 292.939 1053.98 292.578C1053.38 292.214 1052.91 291.699 1052.57 291.031C1052.23 290.361 1052.06 289.565 1052.06 288.645C1052.06 287.94 1052.16 287.311 1052.36 286.757C1052.56 286.203 1052.84 285.733 1053.2 285.347C1053.56 284.957 1053.98 284.662 1054.47 284.46C1054.96 284.256 1055.48 284.153 1056.06 284.153C1056.54 284.153 1056.99 284.224 1057.41 284.366C1057.82 284.506 1058.2 284.705 1058.52 284.963C1058.85 285.222 1059.11 285.528 1059.32 285.884C1059.53 286.239 1059.67 286.631 1059.74 287.06H1058.13ZM993.604 301.672C993.564 301.3 993.396 301.01 993.101 300.803C992.808 300.595 992.428 300.491 991.959 300.491C991.629 300.491 991.347 300.541 991.111 300.641C990.875 300.74 990.695 300.875 990.57 301.045C990.445 301.216 990.381 301.411 990.378 301.629C990.378 301.811 990.419 301.969 990.501 302.102C990.587 302.236 990.702 302.349 990.847 302.443C990.991 302.534 991.152 302.611 991.328 302.673C991.504 302.736 991.682 302.788 991.861 302.831L992.679 303.036C993.009 303.112 993.325 303.216 993.629 303.347C993.936 303.477 994.21 303.642 994.452 303.841C994.696 304.04 994.889 304.28 995.031 304.561C995.173 304.842 995.244 305.172 995.244 305.55C995.244 306.061 995.114 306.511 994.852 306.901C994.591 307.287 994.213 307.589 993.719 307.808C993.227 308.024 992.632 308.132 991.933 308.132C991.254 308.132 990.665 308.027 990.165 307.817C989.668 307.607 989.278 307.3 988.997 306.896C988.719 306.493 988.568 306.001 988.545 305.422H990.101C990.124 305.726 990.217 305.979 990.382 306.18C990.547 306.382 990.761 306.533 991.026 306.632C991.293 306.732 991.591 306.781 991.92 306.781C992.264 306.781 992.565 306.73 992.824 306.628C993.085 306.523 993.29 306.378 993.438 306.193C993.585 306.006 993.661 305.787 993.663 305.537C993.661 305.31 993.594 305.122 993.463 304.974C993.332 304.824 993.149 304.699 992.913 304.599C992.68 304.497 992.408 304.406 992.095 304.327L991.102 304.071C990.384 303.886 989.815 303.607 989.398 303.232C988.983 302.854 988.776 302.352 988.776 301.727C988.776 301.213 988.915 300.763 989.193 300.376C989.474 299.99 989.857 299.69 990.339 299.477C990.822 299.261 991.369 299.153 991.98 299.153C992.599 299.153 993.142 299.261 993.608 299.477C994.077 299.69 994.445 299.987 994.712 300.368C994.979 300.746 995.116 301.18 995.125 301.672H993.604ZM1006.85 303.636C1006.85 304.577 1006.68 305.382 1006.32 306.053C1005.97 306.72 1005.5 307.232 1004.89 307.587C1004.29 307.942 1003.61 308.119 1002.84 308.119C1002.08 308.119 1001.39 307.942 1000.79 307.587C1000.19 307.229 999.709 306.716 999.356 306.048C999.007 305.378 998.832 304.574 998.832 303.636C998.832 302.696 999.007 301.892 999.356 301.224C999.709 300.554 1000.19 300.041 1000.79 299.686C1001.39 299.331 1002.08 299.153 1002.84 299.153C1003.61 299.153 1004.29 299.331 1004.89 299.686C1005.5 300.041 1005.97 300.554 1006.32 301.224C1006.68 301.892 1006.85 302.696 1006.85 303.636ZM1005.26 303.636C1005.26 302.974 1005.16 302.416 1004.95 301.962C1004.75 301.504 1004.46 301.159 1004.1 300.926C1003.74 300.69 1003.32 300.572 1002.84 300.572C1002.37 300.572 1001.95 300.69 1001.59 300.926C1001.22 301.159 1000.94 301.504 1000.73 301.962C1000.52 302.416 1000.42 302.974 1000.42 303.636C1000.42 304.298 1000.52 304.858 1000.73 305.315C1000.94 305.77 1001.22 306.115 1001.59 306.351C1001.95 306.584 1002.37 306.7 1002.84 306.7C1003.32 306.7 1003.74 306.584 1004.1 306.351C1004.46 306.115 1004.75 305.77 1004.95 305.315C1005.16 304.858 1005.26 304.298 1005.26 303.636ZM1010.75 308V299.273H1012.33V306.675H1016.17V308H1010.75ZM1025.45 299.273H1027.03V304.974C1027.03 305.599 1026.88 306.149 1026.58 306.624C1026.29 307.098 1025.88 307.469 1025.35 307.736C1024.82 308 1024.2 308.132 1023.48 308.132C1022.77 308.132 1022.15 308 1021.62 307.736C1021.09 307.469 1020.68 307.098 1020.38 306.624C1020.09 306.149 1019.94 305.599 1019.94 304.974V299.273H1021.52V304.842C1021.52 305.206 1021.6 305.53 1021.76 305.814C1021.93 306.098 1022.15 306.321 1022.45 306.483C1022.74 306.642 1023.08 306.722 1023.48 306.722C1023.89 306.722 1024.23 306.642 1024.52 306.483C1024.82 306.321 1025.05 306.098 1025.21 305.814C1025.37 305.53 1025.45 305.206 1025.45 304.842V299.273ZM1030.76 300.598V299.273H1037.72V300.598H1035.03V308H1033.46V300.598H1030.76ZM1043.05 299.273V308H1041.47V299.273H1043.05ZM1054.96 303.636C1054.96 304.577 1054.78 305.382 1054.43 306.053C1054.08 306.72 1053.6 307.232 1053 307.587C1052.4 307.942 1051.71 308.119 1050.95 308.119C1050.18 308.119 1049.5 307.942 1048.89 307.587C1048.29 307.229 1047.81 306.716 1047.46 306.048C1047.11 305.378 1046.94 304.574 1046.94 303.636C1046.94 302.696 1047.11 301.892 1047.46 301.224C1047.81 300.554 1048.29 300.041 1048.89 299.686C1049.5 299.331 1050.18 299.153 1050.95 299.153C1051.71 299.153 1052.4 299.331 1053 299.686C1053.6 300.041 1054.08 300.554 1054.43 301.224C1054.78 301.892 1054.96 302.696 1054.96 303.636ZM1053.37 303.636C1053.37 302.974 1053.26 302.416 1053.06 301.962C1052.85 301.504 1052.57 301.159 1052.2 300.926C1051.84 300.69 1051.42 300.572 1050.95 300.572C1050.47 300.572 1050.05 300.69 1049.69 300.926C1049.33 301.159 1049.04 301.504 1048.83 301.962C1048.63 302.416 1048.53 302.974 1048.53 303.636C1048.53 304.298 1048.63 304.858 1048.83 305.315C1049.04 305.77 1049.33 306.115 1049.69 306.351C1050.05 306.584 1050.47 306.7 1050.95 306.7C1051.42 306.7 1051.84 306.584 1052.2 306.351C1052.57 306.115 1052.85 305.77 1053.06 305.315C1053.26 304.858 1053.37 304.298 1053.37 303.636ZM1066.02 299.273V308H1064.62L1060.51 302.055H1060.43V308H1058.85V299.273H1060.27L1064.37 305.222H1064.45V299.273H1066.02Z" fill="#7C2532"/>
<path d="M1063.48 460.598V459.273H1070.44V460.598H1067.74V468H1066.17V460.598H1063.48ZM1075.76 459.273V468H1074.18V459.273H1075.76ZM1079.88 459.273H1081.81L1084.4 465.597H1084.5L1087.09 459.273H1089.03V468H1087.51V462.004H1087.43L1085.02 467.974H1083.89L1081.47 461.991H1081.39V468H1079.88V459.273ZM1093.15 468V459.273H1098.83V460.598H1094.73V462.967H1098.53V464.293H1094.73V466.675H1098.86V468H1093.15Z" fill="#222222"/>
<ellipse cx="210.5" cy="113" rx="11.5" ry="11" fill="#7FC591"/>
<ellipse cx="337.5" cy="176" rx="11.5" ry="11" fill="#7FC591"/>
<rect x="203" y="114" width="15" height="351" fill="url(#paint2_linear)"/>
<ellipse cx="473.5" cy="201" rx="11.5" ry="11" fill="#7FC591"/>
<ellipse cx="763.5" cy="201" rx="11.5" ry="11" fill="#7FC591"/>
<rect x="756" y="204" width="15" height="262" fill="url(#paint3_linear)"/>
<circle cx="182.5" cy="112.5" r="11.5" fill="#CD4358"/>
<circle cx="300.5" cy="151.5" r="11.5" fill="#CD4358"/>
<circle cx="438.5" cy="220.5" r="11.5" fill="#CD4358"/>
<circle cx="995.5" cy="57.5" r="7.5" fill="#CD4358"/>
<rect x="176" y="113" width="14" height="351" fill="url(#paint4_linear)"/>
<rect x="294" y="151" width="14" height="312" fill="url(#paint5_linear)"/>
<rect x="432" y="224" width="14" height="242" fill="url(#paint6_linear)"/>
<circle cx="729.5" cy="288.5" r="11.5" fill="#CD4358"/>
<rect x="723" y="280" width="14" height="184" fill="url(#paint7_linear)"/>
<circle cx="995.5" cy="340.5" r="11.5" fill="#CD4358"/>
<rect x="989" y="341" width="14" height="124" fill="url(#paint8_linear)"/>
<path d="M1024.56 28.982C1024.62 29.09 1024.74 29.18 1024.87 29.18H1025.05C1025.19 29.18 1025.3 29.09 1025.35 28.982L1030.88 16.868C1030.99 16.634 1030.84 16.4 1030.57 16.4H1029.3C1029.13 16.4 1029.03 16.508 1028.99 16.598L1025.03 25.508H1024.92L1020.96 16.598C1020.93 16.508 1020.8 16.4 1020.66 16.4H1019.38C1019.11 16.4 1018.96 16.634 1019.07 16.868L1024.56 28.982ZM1033.49 22.718C1033.49 26.318 1036.36 29.18 1039.96 29.18C1043.56 29.18 1046.44 26.318 1046.44 22.718C1046.44 19.118 1043.56 16.22 1039.96 16.22C1036.36 16.22 1033.49 19.118 1033.49 22.718ZM1035.29 22.718C1035.29 20.162 1037.4 18.02 1039.96 18.02C1042.53 18.02 1044.64 20.162 1044.64 22.718C1044.64 25.292 1042.53 27.38 1039.96 27.38C1037.4 27.38 1035.29 25.292 1035.29 22.718ZM1050.8 28.658C1050.8 28.838 1050.95 29 1051.14 29H1052.31C1052.49 29 1052.66 28.838 1052.66 28.658V24.068H1055.37L1057.77 28.838C1057.8 28.91 1057.91 29 1058.06 29H1059.46C1059.77 29 1059.89 28.712 1059.77 28.478L1057.3 23.906C1058.87 23.276 1059.96 21.908 1059.96 20.252C1059.96 18.11 1058.2 16.4 1056.04 16.4H1051.14C1050.95 16.4 1050.8 16.562 1050.8 16.742V28.658ZM1052.69 22.52V18.146H1055.9C1057.07 18.146 1058.09 19.118 1058.09 20.288C1058.09 21.53 1057.07 22.52 1055.9 22.52H1052.69ZM1066.3 28.658C1066.3 28.838 1066.46 29 1066.64 29H1067.83C1068.01 29 1068.17 28.838 1068.17 28.658V18.092H1071.11C1071.3 18.092 1071.45 17.93 1071.45 17.75V16.742C1071.45 16.562 1071.3 16.4 1071.11 16.4H1063.37C1063.17 16.4 1063.02 16.562 1063.02 16.742V17.75C1063.02 17.93 1063.17 18.092 1063.37 18.092H1066.3V28.658ZM1073.12 29H1074.26C1074.47 29 1074.62 28.856 1074.67 28.73C1075.03 27.902 1075.41 27.092 1075.77 26.264H1081.66L1082.77 28.73C1082.84 28.892 1082.97 29 1083.19 29H1084.32C1084.59 29 1084.73 28.766 1084.63 28.532L1079.14 16.418C1079.08 16.31 1078.92 16.22 1078.83 16.22H1078.65C1078.56 16.22 1078.4 16.31 1078.34 16.418L1072.82 28.532C1072.71 28.766 1072.85 29 1073.12 29ZM1076.47 24.716L1078.67 19.784H1078.76L1080.97 24.716H1076.47Z" fill="#0D1224"/>
<ellipse cx="995.5" cy="22.1739" rx="7.5" ry="7.17391" fill="#7FC591"/>
<path d="M1020.44 66V52.9091H1028.65V54.6094H1022.41V58.598H1028.22V60.2919H1022.41V64.2997H1028.72V66H1020.44ZM1033.08 66V52.9091H1037.75C1038.76 52.9091 1039.61 53.0838 1040.27 53.4332C1040.95 53.7827 1041.45 54.2663 1041.78 54.8842C1042.12 55.4979 1042.28 56.2074 1042.28 57.0128C1042.28 57.8139 1042.11 58.5192 1041.78 59.1286C1041.44 59.7337 1040.94 60.2045 1040.27 60.5412C1039.6 60.8778 1038.76 61.0462 1037.74 61.0462H1034.21V59.3459H1037.56C1038.2 59.3459 1038.72 59.2543 1039.12 59.071C1039.53 58.8878 1039.83 58.6214 1040.01 58.272C1040.2 57.9226 1040.29 57.5028 1040.29 57.0128C1040.29 56.5185 1040.2 56.0902 1040.01 55.728C1039.82 55.3658 1039.52 55.0888 1039.12 54.897C1038.72 54.701 1038.19 54.603 1037.54 54.603H1035.06V66H1033.08ZM1039.55 60.0938L1042.78 66H1040.53L1037.36 60.0938H1039.55ZM1046.49 66V52.9091H1051.15C1052.17 52.9091 1053.01 53.0945 1053.68 53.4652C1054.35 53.8359 1054.85 54.343 1055.19 54.9865C1055.52 55.6257 1055.68 56.3459 1055.68 57.147C1055.68 57.9524 1055.52 58.6768 1055.18 59.3203C1054.85 59.9595 1054.34 60.4666 1053.67 60.8416C1053 61.2124 1052.16 61.3977 1051.15 61.3977H1047.94V59.723H1050.97C1051.61 59.723 1052.13 59.6122 1052.53 59.3906C1052.93 59.1648 1053.23 58.858 1053.41 58.4702C1053.6 58.0824 1053.7 57.6413 1053.7 57.147C1053.7 56.6527 1053.6 56.2138 1053.41 55.8303C1053.23 55.4467 1052.93 55.1463 1052.53 54.929C1052.13 54.7116 1051.6 54.603 1050.94 54.603H1048.46V66H1046.49Z" fill="#0D1224"/>
<path d="M160.707 35.2929C160.317 34.9024 159.683 34.9024 159.293 35.2929L152.929 41.6569C152.538 42.0474 152.538 42.6805 152.929 43.0711C153.319 43.4616 153.953 43.4616 154.343 43.0711L160 37.4142L165.657 43.0711C166.047 43.4616 166.681 43.4616 167.071 43.0711C167.462 42.6805 167.462 42.0474 167.071 41.6569L160.707 35.2929ZM161 51L161 36L159 36L159 51L161 51Z" fill="#222222"/>
<path d="M1044.21 466.707C1044.6 466.317 1044.6 465.683 1044.21 465.293L1037.84 458.929C1037.45 458.538 1036.82 458.538 1036.43 458.929C1036.04 459.319 1036.04 459.953 1036.43 460.343L1042.09 466L1036.43 471.657C1036.04 472.047 1036.04 472.681 1036.43 473.071C1036.82 473.462 1037.45 473.462 1037.84 473.071L1044.21 466.707ZM1024 467H1043.5V465H1024V467Z" fill="#222222"/>
<defs>
<linearGradient id="paint0_linear" x1="474.5" y1="197" x2="474.5" y2="464" gradientUnits="userSpaceOnUse">
<stop stop-color="#7FC591" stop-opacity="0.4"/>
<stop offset="1" stop-color="#7FC591" stop-opacity="0"/>
</linearGradient>
<linearGradient id="paint1_linear" x1="337.5" y1="173" x2="337.5" y2="464" gradientUnits="userSpaceOnUse">
<stop stop-color="#7FC591" stop-opacity="0.4"/>
<stop offset="1" stop-color="#7FC591" stop-opacity="0"/>
</linearGradient>
<linearGradient id="paint2_linear" x1="210.5" y1="114" x2="210.5" y2="465" gradientUnits="userSpaceOnUse">
<stop stop-color="#7FC591" stop-opacity="0.4"/>
<stop offset="1" stop-color="#7FC591" stop-opacity="0"/>
</linearGradient>
<linearGradient id="paint3_linear" x1="763.5" y1="204" x2="763.5" y2="466" gradientUnits="userSpaceOnUse">
<stop stop-color="#7FC591" stop-opacity="0.4"/>
<stop offset="1" stop-color="#7FC591" stop-opacity="0"/>
</linearGradient>
<linearGradient id="paint4_linear" x1="183" y1="113" x2="183" y2="464" gradientUnits="userSpaceOnUse">
<stop stop-color="#CD4358" stop-opacity="0.4"/>
<stop offset="1" stop-color="#CD4358" stop-opacity="0"/>
</linearGradient>
<linearGradient id="paint5_linear" x1="301" y1="151" x2="301" y2="463" gradientUnits="userSpaceOnUse">
<stop stop-color="#CD4358" stop-opacity="0.4"/>
<stop offset="1" stop-color="#CD4358" stop-opacity="0"/>
</linearGradient>
<linearGradient id="paint6_linear" x1="439" y1="224" x2="439" y2="466" gradientUnits="userSpaceOnUse">
<stop stop-color="#CD4358" stop-opacity="0.4"/>
<stop offset="1" stop-color="#CD4358" stop-opacity="0"/>
</linearGradient>
<linearGradient id="paint7_linear" x1="730" y1="280" x2="730" y2="464" gradientUnits="userSpaceOnUse">
<stop stop-color="#CD4358" stop-opacity="0.4"/>
<stop offset="1" stop-color="#CD4358" stop-opacity="0"/>
</linearGradient>
<linearGradient id="paint8_linear" x1="996" y1="341" x2="996" y2="465" gradientUnits="userSpaceOnUse">
<stop stop-color="#CD4358" stop-opacity="0.4"/>
<stop offset="1" stop-color="#CD4358" stop-opacity="0"/>
</linearGradient>
</defs>
</svg>
