<svg width="87" height="69" viewBox="0 0 87 69" fill="none" xmlns="http://www.w3.org/2000/svg">
<g filter="url(#filter0_d)">
<path d="M73.5373 10L68.1043 19.3057L56.6122 19.3057L50.002 29.3247L36.1451 29.4868L36 30L50.295 29.8257L56.9051 19.8066L68.4163 19.8066L74 10.243L73.5373 10Z" fill="url(#paint0_linear)"/>
<path d="M12.7528 50.9766L18.2212 41.0894H29.7882L36.4414 30.4443L36.1465 29.9121L29.4933 40.5572H17.9072L12.2871 50.7185L12.7528 50.9766Z" fill="url(#paint1_linear)"/>
<path d="M12.7528 50.9766L18.2212 41.0894H29.7882L36.4414 30.4443L36.1465 29.9121L29.4933 40.5572H17.9072L12.2871 50.7185L12.7528 50.9766Z" fill="url(#paint2_linear)"/>
<path d="M13 60L14 58.5L16 55L13 50H7L4.5 55L7.5 60H13Z" fill="url(#paint3_linear)"/>
<path d="M13.0124 59.6875H7.41412L4.61445 54.8392L7.41412 49.9914H13.0124L15.812 54.8392L13.0124 59.6875ZM7.10646 60.2197H13.32L16.4263 54.8392L13.32 49.4591H7.10646L4.00022 54.8392L7.10646 60.2197Z" fill="url(#paint4_linear)"/>
<path d="M58.8871 19.625C58.8871 18.8048 58.2223 18.1395 57.4015 18.1395C56.5808 18.1395 55.916 18.8048 55.916 19.625C55.916 20.4452 56.5808 21.1105 57.4015 21.1105C58.2223 21.1105 58.8871 20.4452 58.8871 19.625Z" fill="url(#paint5_linear)"/>
<path d="M74 0.335876L71 5.33613L74 10.3359L80 10.3359L83 5.33613L80 0.335876L74 0.335876Z" fill="url(#paint6_linear)"/>
<path d="M73.9881 0.532256L79.5864 0.532256L82.386 5.38057L79.5864 10.2284L73.9881 10.2284L71.1884 5.38057L73.9881 0.532256ZM79.894 -6.33621e-08L73.6805 -2.11182e-08L70.5742 5.38057L73.6805 10.7606L79.894 10.7606L83.0003 5.38057L79.894 -6.33621e-08Z" fill="url(#paint7_linear)"/>
<path d="M73.6886 50.0646L68.2202 40.1774L56.6532 40.1774L50 29.5323L50.2949 29L56.9481 39.6451L68.5342 39.6451L74.1543 49.8064L73.6886 50.0646Z" fill="url(#paint8_linear)"/>
<path d="M58.3285 39.3891C58.3285 40.2093 57.6637 40.8746 56.8429 40.8746C56.0222 40.8746 55.3574 40.2093 55.3574 39.3891C55.3574 38.5688 56.0222 37.9035 56.8429 37.9035C57.6637 37.9035 58.3285 38.5688 58.3285 39.3891Z" fill="url(#paint9_linear)"/>
<path d="M73 59L70 53.9997L73 49L79 49L82 53.9997L79 59L73 59Z" fill="url(#paint10_linear)"/>
<path d="M73.4295 58.7755L79.0278 58.7755L81.8274 53.9272L79.0278 49.0794L73.4295 49.0794L70.6299 53.9272L73.4295 58.7755ZM79.3354 59.3077L73.1219 59.3077L70.0156 53.9272L73.1219 48.5471L79.3354 48.5471L82.4417 53.9272L79.3354 59.3077Z" fill="url(#paint11_linear)"/>
<path d="M35.0001 29.4855C35.0001 30.3058 35.6649 30.9711 36.4857 30.9711C37.3064 30.9711 37.9712 30.3058 37.9712 29.4855C37.9712 28.6653 37.3064 28 36.4857 28C35.6649 28 35.0001 28.6653 35.0001 29.4855Z" fill="url(#paint12_linear)"/>
</g>
<defs>
<filter id="filter0_d" x="0" y="0" width="87.0003" height="68.2197" filterUnits="userSpaceOnUse" color-interpolation-filters="sRGB">
<feFlood flood-opacity="0" result="BackgroundImageFix"/>
<feColorMatrix in="SourceAlpha" type="matrix" values="0 0 0 0 0 0 0 0 0 0 0 0 0 0 0 0 0 0 127 0"/>
<feOffset dy="4"/>
<feGaussianBlur stdDeviation="2"/>
<feColorMatrix type="matrix" values="0 0 0 0 0 0 0 0 0 0 0 0 0 0 0 0 0 0 0.25 0"/>
<feBlend mode="normal" in2="BackgroundImageFix" result="effect1_dropShadow"/>
<feBlend mode="normal" in="SourceGraphic" in2="effect1_dropShadow" result="shape"/>
</filter>
<linearGradient id="paint0_linear" x1="-118.245" y1="19.1949" x2="168.37" y2="20.6837" gradientUnits="userSpaceOnUse">
<stop stop-color="#802071"/>
<stop offset="0.0348449" stop-color="#80203B"/>
<stop offset="0.225296" stop-color="#F57336"/>
<stop offset="0.258693" stop-color="#F57336"/>
<stop offset="0.529644" stop-color="#21409A"/>
<stop offset="0.580765" stop-color="#21409A"/>
<stop offset="0.778656" stop-color="#4DAAAB"/>
<stop offset="0.787808" stop-color="#4DAAAB"/>
<stop offset="0.996047" stop-color="#004563"/>
<stop offset="0.99606" stop-color="#004563"/>
<stop offset="1" stop-color="#004563"/>
</linearGradient>
<linearGradient id="paint1_linear" x1="205.785" y1="41.2071" x2="-82.6983" y2="39.7876" gradientUnits="userSpaceOnUse">
<stop stop-color="#80203B"/>
<stop offset="0.0348449" stop-color="#80203B"/>
<stop offset="0.225296" stop-color="#F57336"/>
<stop offset="0.258693" stop-color="#F57336"/>
<stop offset="0.529644" stop-color="#21409A"/>
<stop offset="0.580765" stop-color="#21409A"/>
<stop offset="0.778656" stop-color="#4DAAAB"/>
<stop offset="0.787808" stop-color="#4DAAAB"/>
<stop offset="0.996047" stop-color="#004563"/>
<stop offset="0.99606" stop-color="#004563"/>
<stop offset="1" stop-color="#004563"/>
</linearGradient>
<linearGradient id="paint2_linear" x1="44.4379" y1="40.5437" x2="-53.9016" y2="40.0632" gradientUnits="userSpaceOnUse">
<stop stop-color="#80203B"/>
<stop offset="0.0348449" stop-color="#80203B"/>
<stop offset="0.225296" stop-color="#F57336"/>
<stop offset="0.258693" stop-color="#F57336"/>
<stop offset="0.529644" stop-color="#21409A"/>
<stop offset="0.580765" stop-color="#21409A"/>
<stop offset="0.778656" stop-color="#4DAAAB"/>
<stop offset="0.787808" stop-color="#4DAAAB"/>
<stop offset="0.996047" stop-color="#004563"/>
<stop offset="0.99606" stop-color="#004563"/>
<stop offset="1" stop-color="#004563"/>
</linearGradient>
<linearGradient id="paint3_linear" x1="19.8072" y1="55.0472" x2="-27.0128" y2="54.8177" gradientUnits="userSpaceOnUse">
<stop stop-color="#80203B"/>
<stop offset="0.0348449" stop-color="#80203B"/>
<stop offset="0.225296" stop-color="#F57336"/>
<stop offset="0.258693" stop-color="#F57336"/>
<stop offset="0.529644" stop-color="#21409A"/>
<stop offset="0.580765" stop-color="#21409A"/>
<stop offset="0.778656" stop-color="#4DAAAB"/>
<stop offset="0.787808" stop-color="#4DAAAB"/>
<stop offset="0.996047" stop-color="#004563"/>
<stop offset="0.99606" stop-color="#004563"/>
<stop offset="1" stop-color="#004563"/>
</linearGradient>
<linearGradient id="paint4_linear" x1="20.54" y1="54.8902" x2="-30.0501" y2="54.6412" gradientUnits="userSpaceOnUse">
<stop stop-color="#80203B"/>
<stop offset="0.0348449" stop-color="#80203B"/>
<stop offset="0.225296" stop-color="#F57336"/>
<stop offset="0.258693" stop-color="#F57336"/>
<stop offset="0.529644" stop-color="#21409A"/>
<stop offset="0.580765" stop-color="#21409A"/>
<stop offset="0.778656" stop-color="#4DAAAB"/>
<stop offset="0.787808" stop-color="#4DAAAB"/>
<stop offset="0.996047" stop-color="#004563"/>
<stop offset="0.99606" stop-color="#004563"/>
<stop offset="1" stop-color="#004563"/>
</linearGradient>
<linearGradient id="paint5_linear" x1="-118.74" y1="18.7585" x2="169.742" y2="20.178" gradientUnits="userSpaceOnUse">
<stop stop-color="#80203B"/>
<stop offset="0.0348449" stop-color="#80203B"/>
<stop offset="0.225296" stop-color="#F57336"/>
<stop offset="0.258693" stop-color="#F57336"/>
<stop offset="0.529644" stop-color="#21409A"/>
<stop offset="0.580765" stop-color="#21409A"/>
<stop offset="0.778656" stop-color="#4DAAAB"/>
<stop offset="0.787808" stop-color="#4DAAAB"/>
<stop offset="0.996047" stop-color="#004563"/>
<stop offset="0.99606" stop-color="#004563"/>
<stop offset="1" stop-color="#004563"/>
</linearGradient>
<linearGradient id="paint6_linear" x1="28.2843" y1="3.4126" x2="109.86" y2="3.77301" gradientUnits="userSpaceOnUse">
<stop stop-color="#80203B"/>
<stop offset="0.0348449" stop-color="#80203B"/>
<stop offset="0.225296" stop-color="#F57336"/>
<stop offset="0.258693" stop-color="#F57336"/>
<stop offset="0.529644" stop-color="#21409A"/>
<stop offset="0.580765" stop-color="#21409A"/>
<stop offset="0.778656" stop-color="#4DAAAB"/>
<stop offset="0.787808" stop-color="#4DAAAB"/>
<stop offset="0.996047" stop-color="#004563"/>
<stop offset="0.99606" stop-color="#004563"/>
<stop offset="1" stop-color="#004563"/>
</linearGradient>
<linearGradient id="paint7_linear" x1="-118.712" y1="4.41826" x2="169.771" y2="5.83778" gradientUnits="userSpaceOnUse">
<stop stop-color="#80203B"/>
<stop offset="0.0348449" stop-color="#80203B"/>
<stop offset="0.225296" stop-color="#F57336"/>
<stop offset="0.258693" stop-color="#F57336"/>
<stop offset="0.529644" stop-color="#21409A"/>
<stop offset="0.580765" stop-color="#21409A"/>
<stop offset="0.778656" stop-color="#4DAAAB"/>
<stop offset="0.787808" stop-color="#4DAAAB"/>
<stop offset="0.996047" stop-color="#004563"/>
<stop offset="0.99606" stop-color="#004563"/>
<stop offset="1" stop-color="#004563"/>
</linearGradient>
<linearGradient id="paint8_linear" x1="-119.343" y1="40.2951" x2="169.14" y2="38.8755" gradientUnits="userSpaceOnUse">
<stop stop-color="#80203B"/>
<stop offset="0.0348449" stop-color="#80203B"/>
<stop offset="0.225296" stop-color="#F57336"/>
<stop offset="0.258693" stop-color="#F57336"/>
<stop offset="0.529644" stop-color="#21409A"/>
<stop offset="0.580765" stop-color="#21409A"/>
<stop offset="0.778656" stop-color="#4DAAAB"/>
<stop offset="0.787808" stop-color="#4DAAAB"/>
<stop offset="0.996047" stop-color="#004563"/>
<stop offset="0.99606" stop-color="#004563"/>
<stop offset="1" stop-color="#004563"/>
</linearGradient>
<linearGradient id="paint9_linear" x1="-119.299" y1="40.2556" x2="169.183" y2="38.836" gradientUnits="userSpaceOnUse">
<stop stop-color="#80203B"/>
<stop offset="0.0348449" stop-color="#80203B"/>
<stop offset="0.225296" stop-color="#F57336"/>
<stop offset="0.258693" stop-color="#F57336"/>
<stop offset="0.529644" stop-color="#21409A"/>
<stop offset="0.580765" stop-color="#21409A"/>
<stop offset="0.778656" stop-color="#4DAAAB"/>
<stop offset="0.787808" stop-color="#4DAAAB"/>
<stop offset="0.996047" stop-color="#004563"/>
<stop offset="0.99606" stop-color="#004563"/>
<stop offset="1" stop-color="#004563"/>
</linearGradient>
<linearGradient id="paint10_linear" x1="27.2843" y1="55.9233" x2="108.86" y2="55.5629" gradientUnits="userSpaceOnUse">
<stop stop-color="#80203B"/>
<stop offset="0.0348449" stop-color="#80203B"/>
<stop offset="0.225296" stop-color="#F57336"/>
<stop offset="0.258693" stop-color="#F57336"/>
<stop offset="0.529644" stop-color="#21409A"/>
<stop offset="0.580765" stop-color="#21409A"/>
<stop offset="0.778656" stop-color="#4DAAAB"/>
<stop offset="0.787808" stop-color="#4DAAAB"/>
<stop offset="0.996047" stop-color="#004563"/>
<stop offset="0.99606" stop-color="#004563"/>
<stop offset="1" stop-color="#004563"/>
</linearGradient>
<linearGradient id="paint11_linear" x1="-119.271" y1="54.8895" x2="169.212" y2="53.47" gradientUnits="userSpaceOnUse">
<stop stop-color="#80203B"/>
<stop offset="0.0348449" stop-color="#80203B"/>
<stop offset="0.225296" stop-color="#F57336"/>
<stop offset="0.258693" stop-color="#F57336"/>
<stop offset="0.529644" stop-color="#21409A"/>
<stop offset="0.580765" stop-color="#21409A"/>
<stop offset="0.778656" stop-color="#4DAAAB"/>
<stop offset="0.787808" stop-color="#4DAAAB"/>
<stop offset="0.996047" stop-color="#004563"/>
<stop offset="0.99606" stop-color="#004563"/>
<stop offset="1" stop-color="#004563"/>
</linearGradient>
<linearGradient id="paint12_linear" x1="38.9548" y1="29.4996" x2="26.8587" y2="29.448" gradientUnits="userSpaceOnUse">
<stop stop-color="#80203B"/>
<stop offset="0.0348449" stop-color="#80203B"/>
<stop offset="0.225296" stop-color="#F57336"/>
<stop offset="0.258693" stop-color="#F57336"/>
<stop offset="0.529644" stop-color="#21409A"/>
<stop offset="0.580765" stop-color="#21409A"/>
<stop offset="0.778656" stop-color="#4DAAAB"/>
<stop offset="0.787808" stop-color="#4DAAAB"/>
<stop offset="0.996047" stop-color="#004563"/>
<stop offset="0.99606" stop-color="#004563"/>
<stop offset="1" stop-color="#004563"/>
</linearGradient>
</defs>
</svg>
