<svg width="146" height="39" viewBox="0 0 146 39" fill="none" xmlns="http://www.w3.org/2000/svg">
<path d="M18.9377 1.05206L19.5516 2.98279H21.5368L19.931 4.1758L20.5442 6.10653L18.9377 4.91216L17.3319 6.10653L17.9451 4.1758L16.3386 2.98279H18.3245L18.9377 1.05206ZM18.9377 32.8216L19.5516 34.7524H21.5368L19.931 35.9454L20.5442 37.8754L18.9377 36.6824L17.3319 37.8754L17.9451 35.9454L16.3386 34.7524H18.3245L18.9377 32.8216V32.8216ZM27.1067 3.63816L27.7206 5.56821H29.7065L28.0993 6.7619L28.7132 8.69195L27.1067 7.49894L25.5002 8.69195L26.1141 6.7619L24.5069 5.56821H26.4928L27.1067 3.63816V3.63816ZM33.791 9.41606L34.4042 11.3461H36.39L34.7836 12.5391L35.3974 14.4698L33.791 13.2768L32.1845 14.4698L32.7984 12.5391L31.1919 11.3461H33.1771L33.791 9.41606V9.41606ZM33.791 24.8789L34.4042 26.8103H36.39L34.7836 28.0033L35.3974 29.9334L33.791 28.7404L32.1845 29.9334L32.7984 28.0033L31.1919 26.8103H33.1778L33.791 24.8789ZM4.08448 9.41606L4.69838 11.3461H6.68357L5.07778 12.5391L5.69098 14.4698L4.08448 13.2768L2.47799 14.4698L3.09189 12.5391L1.48539 11.3461H3.47129L4.08448 9.41606V9.41606ZM35.2763 16.9362L35.8895 18.8669H37.8754L36.2689 20.0599L36.8828 21.9906L35.2763 20.7983L33.6699 21.9906L34.2838 20.0599L32.6773 18.8669H34.6625L35.2763 16.9362ZM2.59979 16.9362L3.21299 18.8669H5.19888L3.59098 20.0599L4.20558 21.9906L2.59909 20.7983L0.991896 21.9906L1.60579 20.0599L0 18.8669H1.98589L2.59979 16.9362V16.9362ZM4.08518 24.8789L4.69838 26.8103H6.68357L5.07778 28.0033L5.69098 29.9334L4.08518 28.7404L2.47869 29.9334L3.09189 28.0033L1.48539 26.8103H3.47129L4.08518 24.8789V24.8789ZM28.5928 31.3775L29.206 33.3075H31.1919L29.5847 34.5012L30.1986 36.4313L28.5928 35.2383L26.9856 36.4313L27.5995 34.5012L25.993 33.3075H27.9789L28.5928 31.3775V31.3775ZM10.7688 3.63816L11.382 5.56821H13.3678L11.7613 6.7619L12.3752 8.69195L10.7688 7.49894L9.16226 8.69195L9.77616 6.7619L8.16897 5.56821H10.1549L10.7688 3.63816V3.63816ZM9.28336 31.3775L9.89656 33.3082H11.8824L10.276 34.5012L10.8899 36.4313L9.28336 35.2389L7.67687 36.4313L8.29076 34.5012L6.68357 33.3082H8.66946L9.28336 31.3775V31.3775Z" fill="black"/>
<path fill-rule="evenodd" clip-rule="evenodd" d="M18.9376 0L19.6306 2.30272H21.8507L20.0548 3.71241L20.7446 6.00714L18.9377 4.58775L17.1313 6.00727L17.8212 3.71243L16.0245 2.30272H18.2454L18.9376 0ZM18.9377 0.856954L18.4271 2.55568H16.7526L18.1071 3.61849L17.5941 5.32508L18.9376 4.26927L20.2819 5.32522L19.7689 3.61851L21.1229 2.55568H19.4489L18.9377 0.856954ZM26.9496 3.10833L26.832 3.07096L26.2567 4.98186H24.0358L25.8331 6.39225L25.1425 8.6861L26.9496 7.26822L28.7567 8.6861L28.0661 6.39225L29.8634 4.98186H27.6425L27.0672 3.07096L26.9496 3.10833ZM26.9496 3.53645L26.4383 5.23483H24.7638L26.1191 6.29837L25.6055 8.00455L26.9496 6.94991L28.2938 8.00455L27.7801 6.29837L29.1354 5.23483H27.4609L26.9496 3.53645ZM10.9256 3.53667L10.4144 5.23483H8.73988L10.0952 6.29837L9.58155 8.00455L10.9257 6.94991L12.2698 8.00455L11.7562 6.29839L13.111 5.23483H11.4363L10.9256 3.53667ZM10.8081 3.07096L10.9257 3.10833L11.0433 3.071L11.6179 4.98186H13.8387L12.0422 6.39223L12.7328 8.6861L10.9257 7.26822L9.11861 8.6861L9.80917 6.39225L8.01187 4.98186H10.2328L10.8081 3.07096ZM4.3699 9.09568L4.25225 9.05836L3.67765 10.9692H1.45672L3.25337 12.3789L2.56286 14.6734L4.3699 13.2556L6.17676 14.6733L5.48708 12.3789L7.28295 10.9692H5.0628L4.48753 9.05832L4.3699 9.09568ZM4.36997 9.52402L3.85932 11.2222H2.18481L3.53939 12.285L3.0257 13.9919L4.3699 12.9373L5.71427 13.9921L5.20112 12.285L6.55511 11.2222H4.88119L4.36997 9.52402ZM33.5053 9.52402L32.9941 11.2222H31.3203L32.6749 12.285L32.1612 13.9919L33.5054 12.9373L34.8496 13.9919L34.3359 12.285L35.6905 11.2222H34.016L33.5053 9.52402ZM33.5054 9.09568L33.3878 9.05832L32.8125 10.9692H30.5922L32.3889 12.3789L31.6984 14.6734L33.5054 13.2556L35.3124 14.6734L34.6219 12.3789L36.4186 10.9692H34.1977L33.6231 9.05836L33.5054 9.09568ZM34.9623 16.4599L35.6545 18.7627H37.8754L36.0788 20.1723L36.7692 22.4667L34.9623 21.0497L33.1553 22.4667L33.8457 20.1723L32.0491 18.7627H34.2693L34.9623 16.4599ZM2.91367 17.3169L2.40246 19.0156H0.727838L2.08185 20.0785L1.56808 21.7857L2.91307 20.7314L4.25713 21.7854L3.74284 20.0784L5.09858 19.0156H3.42431L2.91367 17.3169ZM2.91374 16.8884L2.7961 16.8511L2.22083 18.7627H0L1.79585 20.1723L1.10543 22.4665L2.91304 21.0497L4.72021 22.4668L4.02893 20.1724L5.82717 18.7627H3.606L3.03139 16.8511L2.91374 16.8884ZM34.9622 17.3169L34.451 19.0156H32.7772L34.1317 20.0784L33.618 21.7856L34.9623 20.7314L36.3065 21.7856L35.7928 20.0784L37.1473 19.0156H35.4728L34.9622 17.3169ZM33.5054 24.6902L34.1977 26.994H36.4186L34.6219 28.4037L35.3125 30.6976L33.5054 29.2797L31.6983 30.6976L32.3889 28.4037L30.5922 26.994H32.8131L33.5054 24.6902ZM4.37052 25.5477L3.85931 27.247H2.18481L3.53937 28.3098L3.02627 30.0161L4.3706 28.9614L5.71417 30.016L5.20112 28.3098L6.55511 27.247H4.88114L4.37052 25.5477ZM4.37059 25.1191L4.25294 25.0817L3.67766 26.994H1.45672L3.25339 28.4037L2.56367 30.6974L4.37057 29.2797L6.17686 30.6976L5.48709 28.4037L7.28295 26.994H5.06285L4.48824 25.0818L4.37059 25.1191ZM33.5054 25.5479L32.9949 27.247H31.3203L32.6749 28.3098L32.1613 30.016L33.5054 28.9614L34.8496 30.016L34.3359 28.3098L35.6905 27.247H34.016L33.5054 25.5479ZM28.4071 32.2816L27.8959 33.9798H26.2212L27.5759 35.0433L27.0623 36.7496L28.4072 35.6949L29.7506 36.7494L29.237 35.0433L30.5923 33.9798H28.9177L28.4071 32.2816ZM28.4071 31.8533L28.2895 31.8159L27.7142 33.7268H25.4934L27.2899 35.1372L26.5994 37.4309L28.4071 36.0132L30.2136 37.4312L29.523 35.1372L31.3203 33.7268H29.0994L28.5248 31.8159L28.4071 31.8533ZM9.46879 32.2818L8.95757 33.9805H7.28321L8.63836 35.0433L8.12466 36.7497L9.46885 35.6956L10.8131 36.7497L10.2994 35.0433L11.6539 33.9805H9.97942L9.46879 32.2818ZM9.46886 31.8533L9.35122 31.8159L8.77594 33.7275H6.55486L8.35231 35.1372L7.66182 37.4309L9.46885 36.0138L11.2759 37.4309L10.5854 35.1372L12.382 33.7275H10.1611L9.5865 31.816L9.46886 31.8533ZM18.9377 33.3498L18.82 33.3124L18.2454 35.224H16.0245L17.8211 36.6337L17.1314 38.9275L18.9377 37.5097L20.7446 38.9274L20.0548 36.6337L21.8507 35.224H19.6306L19.0553 33.3124L18.9377 33.3498ZM18.9377 33.7782L18.4271 35.477H16.7526L18.1071 36.5398L17.5941 38.246L18.9376 37.1913L20.282 38.2461L19.7689 36.5398L21.1229 35.477H19.4489L18.9377 33.7782Z" fill="black"/>
<path d="M24.0764 17.4511L18.3989 22.8628C18.2356 23.0191 17.913 23.1461 17.6816 23.1461H17.1909C16.9595 23.1461 16.6362 23.0184 16.4729 22.8628L13.7996 20.3088C13.721 20.2327 13.6771 20.1311 13.6772 20.0254C13.6774 19.9197 13.7215 19.8181 13.8002 19.7422L14.8524 18.7412C14.8912 18.7042 14.9375 18.6747 14.9887 18.6547C15.0398 18.6346 15.0947 18.6243 15.1502 18.6243C15.2056 18.6243 15.2606 18.6346 15.3117 18.6547C15.3628 18.6747 15.4091 18.7042 15.4479 18.7412L17.1562 20.3621C17.3195 20.5177 17.5877 20.5177 17.7517 20.3621L22.4327 15.8988C22.4716 15.8617 22.5179 15.8323 22.569 15.8121C22.6201 15.792 22.6751 15.7816 22.7306 15.7814C22.7861 15.7813 22.841 15.7915 22.8923 15.8114C22.9435 15.8314 22.99 15.8606 23.0289 15.8975L24.075 16.8858C24.1538 16.9615 24.1979 17.0627 24.1982 17.1682C24.1985 17.2737 24.1548 17.3751 24.0764 17.4511Z" fill="black" fill-opacity="0.8"/>
<path d="M54.7582 10.9419C54.6837 10.6896 54.5791 10.4667 54.4444 10.2732C54.3097 10.0761 54.1448 9.91025 53.9498 9.77545C53.7583 9.6372 53.5385 9.53178 53.2903 9.4592C53.0456 9.38662 52.7744 9.35033 52.4766 9.35033C51.9199 9.35033 51.4306 9.48512 51.0087 9.75471C50.5903 10.0243 50.2641 10.4166 50.0301 10.9316C49.7961 11.4431 49.679 12.0687 49.679 12.8083C49.679 13.548 49.7943 14.177 50.0247 14.6955C50.2552 15.2139 50.5814 15.6097 51.0033 15.8827C51.4253 16.1523 51.9234 16.2871 52.4978 16.2871C53.019 16.2871 53.464 16.1972 53.8328 16.0175C54.2051 15.8343 54.4887 15.5768 54.6837 15.245C54.8823 14.9132 54.9816 14.5209 54.9816 14.0682L55.4496 14.1356H52.6414V12.4454H57.1994V13.783C57.1994 14.7162 56.9973 15.5181 56.5931 16.1886C56.1888 16.8557 55.6322 17.3707 54.9231 17.7336C54.2139 18.093 53.402 18.2727 52.4872 18.2727C51.466 18.2727 50.569 18.0533 49.7961 17.6143C49.0231 17.1719 48.4203 16.5446 47.9878 15.7324C47.5587 14.9167 47.3442 13.9489 47.3442 12.8291C47.3442 11.9685 47.4719 11.2012 47.7272 10.5272C47.986 9.84976 48.3477 9.27602 48.8121 8.80596C49.2766 8.3359 49.8173 7.97818 50.4343 7.73278C51.0512 7.48738 51.7196 7.36469 52.4393 7.36469C53.0563 7.36469 53.6307 7.45282 54.1625 7.62909C54.6944 7.80191 55.1659 8.0473 55.5772 8.36528C55.9921 8.68326 56.3307 9.06172 56.5931 9.50067C56.8554 9.93617 57.0238 10.4166 57.0983 10.9419H54.7582Z" fill="#222222"/>
<path d="M65.7858 18.1276H61.9245V7.50985H65.8177C66.9133 7.50985 67.8564 7.72241 68.6471 8.14754C69.4378 8.5692 70.0458 9.17578 70.4713 9.96727C70.9003 10.7588 71.1149 11.7058 71.1149 12.8083C71.1149 13.9144 70.9003 14.8648 70.4713 15.6598C70.0458 16.4547 69.4342 17.0648 68.6365 17.4899C67.8422 17.915 66.892 18.1276 65.7858 18.1276ZM64.2274 16.2042H65.69C66.3708 16.2042 66.9434 16.0866 67.4079 15.8516C67.8759 15.6131 68.2269 15.245 68.4609 14.7473C68.6985 14.2462 68.8173 13.5998 68.8173 12.8083C68.8173 12.0238 68.6985 11.3826 68.4609 10.8849C68.2269 10.3872 67.8777 10.0208 67.4132 9.78582C66.9487 9.55079 66.3761 9.43328 65.6953 9.43328H64.2274V16.2042Z" fill="#222222"/>
<path d="M75.8161 18.1276V7.50985H80.1134C80.9396 7.50985 81.6434 7.66365 82.2249 7.97126C82.8064 8.27542 83.2496 8.69881 83.5545 9.24145C83.863 9.78063 84.0172 10.4028 84.0172 11.1079C84.0172 11.8129 83.8612 12.4351 83.5492 12.9742C83.2372 13.5134 82.7851 13.9334 82.193 14.2341C81.6044 14.5348 80.8917 14.6851 80.0549 14.6851H77.3159V12.8861H79.6826C80.1258 12.8861 80.491 12.8118 80.7782 12.6632C81.069 12.5111 81.2853 12.302 81.4271 12.0359C81.5725 11.7663 81.6452 11.4569 81.6452 11.1079C81.6452 10.7553 81.5725 10.4477 81.4271 10.185C81.2853 9.91889 81.069 9.71324 80.7782 9.56807C80.4875 9.41945 80.1188 9.34514 79.672 9.34514H78.119V18.1276H75.8161Z" fill="#222222"/>
<path d="M88.5084 18.1276V7.50985H92.8057C93.6283 7.50985 94.3303 7.65329 94.9118 7.94016C95.4968 8.22357 95.9418 8.62623 96.2467 9.14813C96.5552 9.66658 96.7094 10.2766 96.7094 10.9782C96.7094 11.6833 96.5534 12.2899 96.2414 12.798C95.9294 13.3026 95.4773 13.6897 94.8852 13.9593C94.2966 14.2289 93.584 14.3637 92.7472 14.3637H89.8699V12.5595H92.3749C92.8146 12.5595 93.1798 12.5007 93.4705 12.3832C93.7612 12.2657 93.9775 12.0894 94.1194 11.8544C94.2647 11.6194 94.3374 11.3273 94.3374 10.9782C94.3374 10.6257 94.2647 10.3285 94.1194 10.0865C93.9775 9.84458 93.7595 9.66139 93.4652 9.53697C93.1744 9.40908 92.8075 9.34514 92.3643 9.34514H90.8113V18.1276H88.5084ZM94.3906 13.2957L97.0977 18.1276H94.5555L91.9069 13.2957H94.3906Z" fill="#222222"/>
<path d="M55.4579 27.0494H54.5691C54.5029 26.7268 54.3831 26.4288 54.2098 26.1554C54.0396 25.8789 53.8253 25.6377 53.5668 25.4319C53.3084 25.226 53.0153 25.0663 52.6875 24.9526C52.3597 24.8389 52.0052 24.7821 51.6238 24.7821C51.0124 24.7821 50.4546 24.9372 49.9503 25.2475C49.4492 25.5578 49.0473 26.0141 48.7448 26.6162C48.4454 27.2153 48.2957 27.9496 48.2957 28.819C48.2957 29.6946 48.4454 30.432 48.7448 31.0311C49.0473 31.6302 49.4492 32.0849 49.9503 32.3952C50.4546 32.7024 51.0124 32.856 51.6238 32.856C52.0052 32.856 52.3597 32.7992 52.6875 32.6855C53.0153 32.5718 53.3084 32.4136 53.5668 32.2108C53.8253 32.005 54.0396 31.7638 54.2098 31.4873C54.3831 31.2108 54.5029 30.9113 54.5691 30.5887H55.4579C55.3791 31.0219 55.2309 31.4259 55.0135 31.8007C54.7992 32.1724 54.525 32.4981 54.1909 32.7777C53.86 33.0572 53.4786 33.2754 53.0468 33.432C52.615 33.5887 52.1407 33.6671 51.6238 33.6671C50.8107 33.6671 50.089 33.4689 49.4586 33.0726C48.8283 32.6732 48.3335 32.111 47.9742 31.3859C47.618 30.6609 47.44 29.8052 47.44 28.819C47.44 27.8329 47.618 26.9772 47.9742 26.2522C48.3335 25.5271 48.8283 24.9664 49.4586 24.5701C50.089 24.1707 50.8107 23.971 51.6238 23.971C52.1407 23.971 52.615 24.0494 53.0468 24.206C53.4786 24.3597 53.86 24.5778 54.1909 24.8604C54.525 25.14 54.7992 25.4657 55.0135 25.8374C55.2309 26.2092 55.3791 26.6132 55.4579 27.0494Z" fill="#222222"/>
<path d="M68.1345 28.819C68.1345 29.8022 67.9548 30.6578 67.5955 31.3859C67.2362 32.111 66.7414 32.6732 66.1111 33.0726C65.4839 33.4689 64.7622 33.6671 63.9459 33.6671C63.1296 33.6671 62.4063 33.4689 61.776 33.0726C61.1488 32.6732 60.6555 32.111 60.2962 31.3859C59.9401 30.6578 59.762 29.8022 59.762 28.819C59.762 27.8359 59.9401 26.9818 60.2962 26.2568C60.6555 25.5287 61.1503 24.9664 61.7807 24.5701C62.411 24.1707 63.1328 23.971 63.9459 23.971C64.7622 23.971 65.4839 24.1707 66.1111 24.5701C66.7414 24.9664 67.2362 25.5287 67.5955 26.2568C67.9548 26.9818 68.1345 27.8359 68.1345 28.819ZM67.2741 28.819C67.2741 27.9742 67.1291 27.2507 66.8391 26.6485C66.5492 26.0433 66.1536 25.5809 65.6525 25.2614C65.1514 24.9419 64.5825 24.7821 63.9459 24.7821C63.3124 24.7821 62.7451 24.9419 62.244 25.2614C61.7429 25.5809 61.3457 26.0417 61.0526 26.6439C60.7627 27.246 60.6177 27.9711 60.6177 28.819C60.6177 29.6639 60.7627 30.3874 61.0526 30.9896C61.3426 31.5918 61.7381 32.0541 62.2393 32.3767C62.7404 32.6962 63.3092 32.856 63.9459 32.856C64.5825 32.856 65.1514 32.6962 65.6525 32.3767C66.1568 32.0572 66.5539 31.5964 66.8439 30.9942C67.1338 30.389 67.2772 29.6639 67.2741 28.819Z" fill="#222222"/>
<path d="M72.935 24.1001H73.9562L77.4687 32.3214H77.5538L81.0664 24.1001H82.0875V33.538H81.2555V25.9204H81.1798L77.9131 33.538H77.1095L73.8427 25.9204H73.7671V33.538H72.935V24.1001Z" fill="#222222"/>
<path d="M87.3242 33.538V24.1001H90.4491C91.1362 24.1001 91.7098 24.2291 92.1699 24.4872C92.6332 24.7422 92.9815 25.0893 93.2147 25.5287C93.4511 25.968 93.5693 26.4626 93.5693 27.0126C93.5693 27.5625 93.4527 28.0587 93.2194 28.5011C92.9862 28.9404 92.6395 29.2891 92.1794 29.5472C91.7192 29.8022 91.1472 29.9297 90.4633 29.9297H88.005V29.1555H90.4397C90.9471 29.1555 91.3678 29.0633 91.7019 28.879C92.036 28.6915 92.285 28.4365 92.4488 28.114C92.6159 27.7914 92.6994 27.4242 92.6994 27.0126C92.6994 26.6009 92.6159 26.2337 92.4488 25.9112C92.285 25.5886 92.0344 25.3351 91.6972 25.1508C91.3631 24.9664 90.9392 24.8743 90.4255 24.8743H88.2083V33.538H87.3242Z" fill="#222222"/>
<path d="M98.3072 33.538V24.1001H99.1912V32.7638H103.805V33.538H98.3072Z" fill="#222222"/>
<path d="M109.342 24.1001V33.538H108.458V24.1001H109.342Z" fill="#222222"/>
<path d="M114.593 33.538H113.666L117.188 24.1001H118.134L121.656 33.538H120.729L117.694 25.2199H117.628L114.593 33.538ZM115.26 29.9205H120.063V30.6947H115.26V29.9205Z" fill="#222222"/>
<path d="M133.518 24.1001V33.538H132.658L126.938 25.6346H126.862V33.538H125.978V24.1001H126.834L132.573 32.0127H132.648V24.1001H133.518Z" fill="#222222"/>
<path d="M138.169 24.8743V24.1001H145.189V24.8743H142.121V33.538H141.237V24.8743H138.169Z" fill="#222222"/>
</svg>
