<svg width="107" height="36" viewBox="0 0 107 36" fill="none" xmlns="http://www.w3.org/2000/svg">
<path d="M1 19.6829V11.1428H1.98525V14.6624H6.65886V11.1428H7.64411V19.6829H6.65886V15.5681H1.98525V19.6829H1Z" fill="#222222"/>
<path d="M12.9999 15.4128C12.9746 14.1965 13.3915 13.1528 14.2504 12.2815C15.1094 11.4103 16.1325 10.9832 17.3198 11.0005C18.4988 10.9832 19.5219 11.4103 20.3893 12.2815C21.2566 13.1528 21.6777 14.1965 21.6524 15.4128C21.6777 16.6292 21.2566 17.6729 20.3893 18.5442C19.5219 19.4154 18.4988 19.8425 17.3198 19.8252C16.1409 19.8511 15.1178 19.4241 14.2504 18.5442C13.3915 17.6643 12.9746 16.6205 12.9999 15.4128ZM20.6293 15.3999C20.6461 14.4338 20.3303 13.61 19.6819 12.9285C19.0335 12.247 18.2504 11.9149 17.3325 11.9321C16.3893 11.9321 15.602 12.2643 14.9704 12.9285C14.3388 13.5841 14.0231 14.4079 14.0231 15.3999C14.0231 16.3919 14.3388 17.2244 14.9704 17.8972C15.602 18.5614 16.3893 18.8936 17.3325 18.8936C18.2504 18.9108 19.0335 18.5787 19.6819 17.8972C20.3303 17.2071 20.6461 16.3747 20.6293 15.3999Z" fill="#222222"/>
<path d="M26.3797 17.9878L27.1123 17.4314C27.7355 18.4062 28.5102 18.8936 29.4365 18.8936C29.9418 18.8936 30.346 18.7642 30.6491 18.5054C30.9607 18.2466 31.1165 17.9015 31.1165 17.4702C31.1165 17.1079 31.0154 16.8362 30.8133 16.655C30.6196 16.4653 30.2575 16.2367 29.727 15.9692L28.7923 15.5164C28.1607 15.2144 27.6892 14.891 27.3776 14.5459C27.066 14.2009 26.9102 13.7609 26.9102 13.2261C26.9102 12.5705 27.1544 12.0357 27.6428 11.6216C28.1313 11.2075 28.7249 11.0005 29.4239 11.0005C29.9712 11.0005 30.4723 11.1342 30.927 11.4016C31.3902 11.6604 31.7607 12.0098 32.0386 12.4497L31.3186 13.0061C30.847 12.2901 30.2112 11.9321 29.4112 11.9321C28.9902 11.9321 28.6365 12.0443 28.3502 12.2686C28.0723 12.4929 27.9334 12.7948 27.9334 13.1743C27.9334 13.4245 27.9881 13.6315 28.0976 13.7954C28.1986 13.9507 28.3291 14.0801 28.4891 14.1836C28.6491 14.2871 28.9102 14.4295 29.2723 14.6106L30.1944 15.0635C30.8765 15.4085 31.3691 15.7579 31.6723 16.1116C31.9838 16.4653 32.1396 16.9095 32.1396 17.4443C32.1396 18.1431 31.887 18.7167 31.3817 19.1653C30.8765 19.6052 30.2323 19.8252 29.4491 19.8252C28.8091 19.8252 28.2197 19.6656 27.6807 19.3464C27.1418 19.0186 26.7081 18.5658 26.3797 17.9878Z" fill="#222222"/>
<path d="M39.6757 19.6829V12.0486H36.7452V11.1428H43.6041V12.0486H40.661V19.6829H39.6757Z" fill="#222222"/>
<path d="M48.5942 19.6829V11.1428H53.9372V12.0486H49.5794V14.6624H52.9141V15.5681H49.5794V18.7771H54.0888V19.6829H48.5942Z" fill="#222222"/>
<path d="M59.3486 19.6829V11.1428H61.8244C63.2054 11.1428 64.3043 11.5396 65.1211 12.3333C65.9464 13.1183 66.359 14.1405 66.359 15.3999C66.359 16.6507 65.9464 17.6773 65.1211 18.4795C64.2959 19.2817 63.197 19.6829 61.8244 19.6829H59.3486ZM60.3339 18.7771H61.8117C62.8896 18.7771 63.7443 18.4622 64.3759 17.8325C65.0159 17.2028 65.3359 16.3919 65.3359 15.3999C65.3359 14.3993 65.0201 13.5927 64.3885 12.9802C63.757 12.3591 62.898 12.0486 61.8117 12.0486H60.3339V18.7771Z" fill="#222222"/>
<path d="M1 35.8572V27.3171H1.98525V35.8572H1Z" fill="#222222"/>
<path d="M13.5277 27.3171H14.5129V35.9995H14.1592L8.85406 29.4521V35.8572H7.86881V27.1748H8.22249L13.5277 33.7351V27.3171Z" fill="#222222"/>
<path d="M27.0089 31.5871C26.9921 30.3622 27.4089 29.3184 28.2594 28.4558C29.1183 27.5845 30.1457 27.1575 31.3415 27.1748C32.0404 27.1748 32.6846 27.3301 33.2741 27.6406C33.8635 27.9425 34.3519 28.3695 34.7393 28.9216L33.9941 29.5168C33.312 28.5766 32.4278 28.1064 31.3415 28.1064C30.3983 28.0892 29.6068 28.4213 28.9668 29.1028C28.3268 29.7842 28.0152 30.6081 28.032 31.5742C28.0152 32.5576 28.331 33.3944 28.9794 34.0845C29.6362 34.7746 30.4404 35.111 31.392 35.0937C31.9899 35.0937 32.5288 34.96 33.0088 34.6926C33.4972 34.4166 33.8846 34.0413 34.1709 33.5669V32.4153H31.3288V31.5095H35.1561V33.7868C34.7856 34.4597 34.2593 34.9988 33.5772 35.4043C32.912 35.8011 32.1667 35.9995 31.3415 35.9995C30.1457 36.0167 29.1183 35.5941 28.2594 34.7314C27.4089 33.8602 26.9921 32.8121 27.0089 31.5871Z" fill="#222222"/>
<path d="M40.5762 35.8572V27.3171H45.9193V28.2229H41.5614V30.8367H44.8961V31.7424H41.5614V34.9514H46.0708V35.8572H40.5762Z" fill="#222222"/>
<path d="M57.8358 35.8572H56.6863L54.0969 32.2729H52.3159V35.8572H51.3306V27.3171H54.2611C55.0611 27.3171 55.7053 27.55 56.1937 28.0159C56.6821 28.4731 56.9263 29.064 56.9263 29.7886C56.9263 30.3665 56.7705 30.8668 56.459 31.2895C56.1474 31.7036 55.7179 31.9926 55.1706 32.1565L57.8358 35.8572ZM52.3159 28.2229V31.3672H54.2232C54.7537 31.3672 55.1664 31.2292 55.4611 30.9531C55.7558 30.6684 55.9032 30.2846 55.9032 29.8015C55.9032 29.3271 55.7516 28.9475 55.4485 28.6628C55.1537 28.3695 54.7453 28.2229 54.2232 28.2229H52.3159Z" fill="#222222"/>
<path d="M70.1144 27.1748H70.4554V35.8572H69.4702V29.7368L66.805 33.4375H66.4513L63.7734 29.7109V35.8572H62.7882V27.1748H63.1419L66.6155 32.1047L70.1144 27.1748Z" fill="#222222"/>
<path d="M82.1402 35.8572L81.4329 34.1233H77.3403L76.633 35.8572H75.5972L79.2098 27.1748H79.5761L83.1887 35.8572H82.1402ZM81.054 33.2175L79.3866 29.0122L77.7193 33.2175H81.054Z" fill="#222222"/>
<path d="M93.9896 27.3171H94.9748V35.9995H94.6211L89.316 29.4521V35.8572H88.3307V27.1748H88.6844L93.9896 33.7351V27.3171Z" fill="#222222"/>
<path d="M107 27.3171L104.107 32.3247V35.8572H103.122V32.3247L100.23 27.3171H101.341L103.615 31.3284L105.901 27.3171H107Z" fill="#222222"/>
<path d="M0 1C0 0.447716 0.447715 0 1 0H30.8749C31.4272 0 31.8749 0.447715 31.8749 1V2.98436C31.8749 3.53665 31.4272 3.98436 30.8749 3.98436H1C0.447716 3.98436 0 3.53665 0 2.98436V1Z" fill="#222222"/>
<path d="M37.4531 1C37.4531 0.447716 37.9008 0 38.4531 0H68.328C68.8803 0 69.328 0.447715 69.328 1V2.98436C69.328 3.53665 68.8803 3.98436 68.328 3.98436H38.4531C37.9008 3.98436 37.4531 3.53665 37.4531 2.98436V1Z" fill="#E33D24"/>
<path d="M74.9058 1C74.9058 0.447716 75.3535 0 75.9058 0H105.781C106.333 0 106.781 0.447715 106.781 1V2.98436C106.781 3.53665 106.333 3.98436 105.781 3.98436H75.9058C75.3535 3.98436 74.9058 3.53665 74.9058 2.98436V1Z" fill="#F6CC46"/>
</svg>
