<svg width="466" height="206" viewBox="0 0 466 206" fill="none" xmlns="http://www.w3.org/2000/svg">
<g filter="url(#filter0_d)">
<path d="M188.5 32.3043L122.061 32.3042L99 76.9145L99.9395 78.6102L123 33.9999L189.5 34L188.5 32.3043Z" fill="url(#paint0_linear)"/>
<path d="M45.3313 45.4478L62.7532 76.9476H99.6047L120.801 110.862L119.862 112.558L98.6653 78.6433H61.7527L43.8475 46.2702L45.3313 45.4478Z" fill="url(#paint1_linear)"/>
<path d="M94.4014 78.2201C94.4014 75.6069 96.5194 73.4873 99.1342 73.4873C101.749 73.4873 103.867 75.6069 103.867 78.2201C103.867 80.8332 101.749 82.9528 99.1342 82.9528C96.5194 82.9528 94.4014 80.8332 94.4014 78.2201Z" fill="url(#paint2_linear)"/>
<path d="M46.5 17L56 33.0008L46.5 49H27.5L18 33.0008L27.5 17H46.5Z" fill="white"/>
<path d="M45.3313 45.4478L62.7532 76.9476H99.6047L120.801 110.862L119.862 112.558L98.6653 78.6433H61.7527L43.8475 46.2702L45.3313 45.4478Z" fill="url(#paint3_linear)"/>
<path d="M120.801 110.862L157.852 111L179.048 144.915L178.109 146.61L156.912 112.696L119.862 112.558L120.801 110.862Z" fill="url(#paint4_linear)"/>
<path d="M252.001 77.4008L290.439 77.4007L291.438 79.0622L253 79.0622L252.001 77.4008Z" fill="url(#paint5_linear)"/>
<path d="M290.439 77.4007L309.084 45.383L349.053 43.9835L350.051 45.645L310.082 47.0444L291.438 79.0622L290.439 77.4007Z" fill="url(#paint6_linear)"/>
<path d="M215.048 77.0001L178.197 77L157 110.915L157.94 112.61L179.136 78.6957H216.049L215.048 77.0001Z" fill="url(#paint7_linear)"/>
<path d="M46.5 17L56 33.0008L46.5 49H27.5L18 33.0008L27.5 17H46.5Z" fill="white"/>
<path d="M46.1583 17.6957H28.3227L19.4031 33.1421L28.3227 48.5868H46.1583L55.0778 33.1421L46.1583 17.6957ZM27.3425 16H47.1384L57.0347 33.1421L47.1384 50.2825H27.3425L17.4462 33.1421L27.3425 16Z" fill="url(#paint8_linear)"/>
<path d="M179.642 178.273L170.392 162.273L179.642 146.273H198.142L207.392 162.273C203.78 168.521 201.754 172.025 198.142 178.273H179.642Z" fill="white"/>
<path d="M179.876 177.587H197.712L206.632 162.14L197.712 146.696H179.876L170.957 162.14L179.876 177.587ZM198.692 179.282H178.896L169 162.14L178.896 145H198.692L208.588 162.14L198.692 179.282Z" fill="url(#paint9_linear)"/>
<path d="M179.876 177.587H197.712L206.632 162.14L197.712 146.696H179.876L170.957 162.14L179.876 177.587ZM198.692 179.282H178.896L169 162.14L178.896 145H198.692L208.588 162.14L198.692 179.282Z" fill="url(#paint10_linear)"/>
<path d="M224.642 94.2733L215.392 78.2725L224.642 62.2733H243.142L252.392 78.2725C248.78 84.5212 246.754 88.0246 243.142 94.2733H224.642Z" fill="white"/>
<path d="M224.876 93.5867H242.712L251.632 78.1404L242.712 62.6957H224.876L215.957 78.1404L224.876 93.5867ZM243.692 95.2825H223.896L214 78.1404L223.896 61H243.692L253.588 78.1404L243.692 95.2825Z" fill="url(#paint11_linear)"/>
<path d="M39.8438 31.6875H35.9062C35.7305 31.6875 35.625 31.8281 35.625 31.9688V32.5312C35.625 32.707 35.7305 32.8125 35.9062 32.8125H39.8438C39.9844 32.8125 40.125 32.707 40.125 32.5312V31.9688C40.125 31.8281 39.9844 31.6875 39.8438 31.6875ZM39.8438 35.0625H35.9062C35.7305 35.0625 35.625 35.2031 35.625 35.3438V35.9062C35.625 36.082 35.7305 36.1875 35.9062 36.1875H39.8438C39.9844 36.1875 40.125 36.082 40.125 35.9062V35.3438C40.125 35.2031 39.9844 35.0625 39.8438 35.0625ZM33.9375 31.4062C33.4453 31.4062 33.0938 31.793 33.0938 32.25C33.0938 32.7422 33.4453 33.0938 33.9375 33.0938C34.3945 33.0938 34.7812 32.7422 34.7812 32.25C34.7812 31.793 34.3945 31.4062 33.9375 31.4062ZM33.9375 34.7812C33.4453 34.7812 33.0938 35.168 33.0938 35.625C33.0938 36.1172 33.4453 36.4688 33.9375 36.4688C34.3945 36.4688 34.7812 36.1172 34.7812 35.625C34.7812 35.168 34.3945 34.7812 33.9375 34.7812ZM41.8125 25.5H38.6836C38.6836 25.4297 38.7188 25.3242 38.7188 25.2188C38.7188 24.1641 37.8047 23.25 36.75 23.25C35.6602 23.25 34.7812 24.1641 34.7812 25.2188C34.7812 25.3242 34.7812 25.4297 34.7812 25.5H31.6875C30.7383 25.5 30 26.2734 30 27.1875V39.5625C30 40.5117 30.7383 41.25 31.6875 41.25H41.8125C42.7266 41.25 43.5 40.5117 43.5 39.5625V27.1875C43.5 26.2734 42.7266 25.5 41.8125 25.5ZM36.75 24.375C37.207 24.375 37.5938 24.7617 37.5938 25.2188C37.5938 25.7109 37.207 26.0625 36.75 26.0625C36.2578 26.0625 35.9062 25.7109 35.9062 25.2188C35.9062 24.7617 36.2578 24.375 36.75 24.375ZM42.375 39.5625C42.375 39.8789 42.0938 40.125 41.8125 40.125H31.6875C31.3711 40.125 31.125 39.8789 31.125 39.5625V27.1875C31.125 26.9062 31.3711 26.625 31.6875 26.625H33.375V27.3281C33.375 27.5742 33.5508 27.75 33.7969 27.75H39.7031C39.9141 27.75 40.125 27.5742 40.125 27.3281V26.625H41.8125C42.0938 26.625 42.375 26.9062 42.375 27.1875V39.5625Z" fill="#22419B"/>
<path d="M192.054 17L201.554 33.0008L192.054 49H173.054L163.554 33.0008L173.054 17H192.054Z" fill="white"/>
<path d="M192.054 17L201.554 33.0008L192.054 49H173.054L163.554 33.0008L173.054 17H192.054Z" fill="white"/>
<path d="M191.712 17.6957H173.876L164.957 33.1421L173.876 48.5868H191.712L200.632 33.1421L191.712 17.6957ZM172.896 16H192.692L202.588 33.1421L192.692 50.2825H172.896L163 33.1421L172.896 16Z" fill="url(#paint12_linear)"/>
<path d="M189 26H177C175.875 26 175 26.9062 175 28V37C175 38.125 175.875 39 177 39H180V41.625C180 41.875 180.156 42 180.375 42C180.438 42 180.5 42 180.594 41.9375L184.5 39H189C190.094 39 191 38.125 191 37V28C191 26.9062 190.094 26 189 26ZM190 37C190 37.5625 189.531 38 189 38H184.156L183.875 38.2188L181 40.375V38H177C176.438 38 176 37.5625 176 37V28C176 27.4688 176.438 27 177 27H189C189.531 27 190 27.4688 190 28V37ZM183 34.25C182.562 34.25 182.25 34.5938 182.25 35C182.25 35.4375 182.562 35.75 183 35.75C183.406 35.75 183.75 35.4375 183.75 35C183.75 34.5938 183.406 34.25 183 34.25ZM182.719 33.5H183.25C183.375 33.5 183.5 33.4062 183.5 33.2812L183.719 29.7812C183.719 29.625 183.625 29.5 183.469 29.5H182.5C182.344 29.5 182.25 29.625 182.25 29.7812L182.469 33.2812C182.469 33.4062 182.594 33.5 182.719 33.5Z" fill="#A2393A"/>
<path d="M194.414 165.875C194.613 165.875 194.812 165.709 194.812 165.477V164.148C194.812 163.949 194.613 163.75 194.414 163.75H193.086C192.854 163.75 192.688 163.949 192.688 164.148V165.477C192.688 165.709 192.854 165.875 193.086 165.875H194.414ZM190.562 165.477V164.148C190.562 163.949 190.363 163.75 190.164 163.75H188.836C188.604 163.75 188.438 163.949 188.438 164.148V165.477C188.438 165.709 188.604 165.875 188.836 165.875H190.164C190.363 165.875 190.562 165.709 190.562 165.477ZM186.312 165.477V164.148C186.312 163.949 186.113 163.75 185.914 163.75H184.586C184.354 163.75 184.188 163.949 184.188 164.148V165.477C184.188 165.709 184.354 165.875 184.586 165.875H185.914C186.113 165.875 186.312 165.709 186.312 165.477ZM198 159.234C198 158.637 197.369 158.271 196.838 158.537L191.625 161.16V159.234C191.625 158.637 190.994 158.271 190.463 158.537L185.25 161.16V154.984C185.25 154.553 184.885 154.188 184.453 154.188H181.797C181.332 154.188 181 154.553 181 154.984V168.266C181 168.73 181.332 169.062 181.797 169.062H197.203C197.635 169.062 198 168.73 198 168.266V159.234ZM184.188 162.422C184.188 162.621 184.387 162.754 184.553 162.688L190.562 159.666V162.422C190.562 162.621 190.762 162.754 190.928 162.688L196.938 159.666V168H182.062V155.25H184.188V162.422Z" fill="#22419B"/>
<path d="M243.5 76H239V69.5C239 69.25 238.75 69 238.5 69H229.5C229.219 69 229 69.25 229 69.5V76H224.5C224.219 76 224 76.25 224 76.5V84.5C224 84.7812 224.219 85 224.5 85H243.5C243.75 85 244 84.7812 244 84.5V76.5C244 76.25 243.75 76 243.5 76ZM240 77V79H238V77H240ZM233 70H235V72H233V70ZM230 70H232V72C232 72.5625 232.438 73 233 73H235C235.531 73 236 72.5625 236 72V70H238V76H230V70ZM228 77H230V79H228V77ZM233.5 84H225V77H227V79C227 79.5625 227.438 80 228 80H230C230.531 80 231 79.5625 231 79V77H233.5V84ZM243 84H234.5V77H237V79C237 79.5625 237.438 80 238 80H240C240.531 80 241 79.5625 241 79V77H243V84Z" fill="#22419B"/>
<path d="M243.5 76H239V69.5C239 69.25 238.75 69 238.5 69H229.5C229.219 69 229 69.25 229 69.5V76H224.5C224.219 76 224 76.25 224 76.5V84.5C224 84.7812 224.219 85 224.5 85H243.5C243.75 85 244 84.7812 244 84.5V76.5C244 76.25 243.75 76 243.5 76ZM240 77V79H238V77H240ZM233 70H235V72H233V70ZM230 70H232V72C232 72.5625 232.438 73 233 73H235C235.531 73 236 72.5625 236 72V70H238V76H230V70ZM228 77H230V79H228V77ZM233.5 84H225V77H227V79C227 79.5625 227.438 80 228 80H230C230.531 80 231 79.5625 231 79V77H233.5V84ZM243 84H234.5V77H237V79C237 79.5625 237.438 80 238 80H240C240.531 80 241 79.5625 241 79V77H243V84Z" fill="#22419B"/>
<path d="M188.68 195V189.32H191.048C191.299 189.32 191.528 189.373 191.736 189.48C191.949 189.581 192.131 189.72 192.28 189.896C192.435 190.067 192.555 190.261 192.64 190.48C192.725 190.693 192.768 190.912 192.768 191.136C192.768 191.371 192.728 191.597 192.648 191.816C192.568 192.035 192.453 192.229 192.304 192.4C192.16 192.571 191.984 192.707 191.776 192.808C191.573 192.909 191.347 192.96 191.096 192.96H189.4V195H188.68ZM189.4 192.32H191.056C191.205 192.32 191.339 192.291 191.456 192.232C191.579 192.168 191.683 192.083 191.768 191.976C191.853 191.864 191.92 191.736 191.968 191.592C192.016 191.448 192.04 191.296 192.04 191.136C192.04 190.971 192.011 190.816 191.952 190.672C191.899 190.528 191.824 190.403 191.728 190.296C191.637 190.189 191.528 190.107 191.4 190.048C191.277 189.989 191.147 189.96 191.008 189.96H189.4V192.32ZM195.264 195V189.32H197.696C197.947 189.32 198.176 189.373 198.384 189.48C198.598 189.581 198.779 189.72 198.928 189.896C199.083 190.067 199.203 190.261 199.288 190.48C199.374 190.693 199.416 190.912 199.416 191.136C199.416 191.333 199.387 191.525 199.328 191.712C199.275 191.893 199.195 192.059 199.088 192.208C198.987 192.357 198.862 192.485 198.712 192.592C198.568 192.699 198.406 192.776 198.224 192.824L199.6 195H198.784L197.488 192.96H195.984V195H195.264ZM195.984 192.32H197.704C197.854 192.32 197.987 192.288 198.104 192.224C198.227 192.16 198.331 192.075 198.416 191.968C198.502 191.856 198.568 191.728 198.616 191.584C198.664 191.44 198.688 191.291 198.688 191.136C198.688 190.976 198.659 190.827 198.6 190.688C198.547 190.544 198.472 190.419 198.376 190.312C198.286 190.2 198.176 190.115 198.048 190.056C197.926 189.992 197.795 189.96 197.656 189.96H195.984V192.32ZM204.426 195.04C204.026 195.04 203.661 194.96 203.33 194.8C203.005 194.635 202.725 194.419 202.49 194.152C202.256 193.88 202.074 193.571 201.946 193.224C201.818 192.877 201.754 192.523 201.754 192.16C201.754 191.781 201.821 191.419 201.954 191.072C202.093 190.725 202.282 190.419 202.522 190.152C202.762 189.885 203.045 189.675 203.37 189.52C203.701 189.36 204.058 189.28 204.442 189.28C204.842 189.28 205.205 189.365 205.53 189.536C205.856 189.701 206.136 189.92 206.37 190.192C206.605 190.464 206.786 190.773 206.914 191.12C207.042 191.461 207.106 191.811 207.106 192.168C207.106 192.547 207.037 192.909 206.898 193.256C206.765 193.603 206.578 193.909 206.338 194.176C206.104 194.437 205.821 194.648 205.49 194.808C205.165 194.963 204.81 195.04 204.426 195.04ZM202.482 192.16C202.482 192.448 202.528 192.728 202.618 193C202.714 193.267 202.848 193.504 203.018 193.712C203.189 193.92 203.394 194.085 203.634 194.208C203.874 194.331 204.141 194.392 204.434 194.392C204.738 194.392 205.01 194.328 205.25 194.2C205.49 194.067 205.693 193.896 205.858 193.688C206.029 193.475 206.157 193.235 206.242 192.968C206.333 192.701 206.378 192.432 206.378 192.16C206.378 191.872 206.33 191.595 206.234 191.328C206.144 191.056 206.01 190.819 205.834 190.616C205.664 190.408 205.458 190.243 205.218 190.12C204.984 189.997 204.722 189.936 204.434 189.936C204.13 189.936 203.858 190 203.618 190.128C203.378 190.256 203.173 190.424 203.002 190.632C202.837 190.84 202.709 191.077 202.618 191.344C202.528 191.611 202.482 191.883 202.482 192.16ZM209.339 192.12C209.339 191.779 209.397 191.44 209.515 191.104C209.637 190.763 209.813 190.459 210.043 190.192C210.277 189.92 210.563 189.701 210.899 189.536C211.235 189.371 211.616 189.288 212.043 189.288C212.549 189.288 212.984 189.403 213.347 189.632C213.709 189.861 213.979 190.16 214.155 190.528L213.587 190.896C213.501 190.715 213.397 190.563 213.275 190.44C213.157 190.317 213.027 190.219 212.883 190.144C212.744 190.069 212.6 190.016 212.451 189.984C212.301 189.952 212.155 189.936 212.011 189.936C211.696 189.936 211.416 190.003 211.171 190.136C210.931 190.264 210.728 190.435 210.563 190.648C210.397 190.856 210.272 191.093 210.187 191.36C210.107 191.621 210.067 191.885 210.067 192.152C210.067 192.451 210.115 192.736 210.211 193.008C210.312 193.275 210.451 193.512 210.627 193.72C210.803 193.928 211.011 194.093 211.251 194.216C211.491 194.339 211.752 194.4 212.035 194.4C212.184 194.4 212.336 194.381 212.491 194.344C212.651 194.307 212.803 194.248 212.947 194.168C213.091 194.083 213.224 193.979 213.347 193.856C213.475 193.728 213.579 193.576 213.659 193.4L214.259 193.728C214.168 193.941 214.04 194.131 213.875 194.296C213.715 194.456 213.531 194.592 213.323 194.704C213.12 194.816 212.904 194.901 212.675 194.96C212.445 195.019 212.221 195.048 212.003 195.048C211.613 195.048 211.256 194.963 210.931 194.792C210.605 194.621 210.323 194.4 210.083 194.128C209.848 193.851 209.664 193.539 209.531 193.192C209.403 192.84 209.339 192.483 209.339 192.12ZM219.096 194.392C219.426 194.392 219.701 194.328 219.92 194.2C220.138 194.072 220.312 193.907 220.44 193.704C220.573 193.496 220.666 193.261 220.72 193C220.773 192.733 220.8 192.464 220.8 192.192V189.32H221.52V192.192C221.52 192.576 221.474 192.941 221.384 193.288C221.298 193.629 221.16 193.931 220.968 194.192C220.776 194.453 220.525 194.661 220.216 194.816C219.912 194.965 219.541 195.04 219.104 195.04C218.65 195.04 218.269 194.96 217.96 194.8C217.65 194.64 217.4 194.429 217.208 194.168C217.021 193.901 216.885 193.597 216.8 193.256C216.72 192.909 216.68 192.555 216.68 192.192V189.32H217.4V192.192C217.4 192.475 217.426 192.749 217.48 193.016C217.538 193.277 217.632 193.509 217.76 193.712C217.893 193.915 218.066 194.08 218.28 194.208C218.498 194.331 218.77 194.392 219.096 194.392ZM224.399 195V189.32H226.831C227.081 189.32 227.311 189.373 227.519 189.48C227.732 189.581 227.913 189.72 228.063 189.896C228.217 190.067 228.337 190.261 228.423 190.48C228.508 190.693 228.551 190.912 228.551 191.136C228.551 191.333 228.521 191.525 228.463 191.712C228.409 191.893 228.329 192.059 228.223 192.208C228.121 192.357 227.996 192.485 227.847 192.592C227.703 192.699 227.54 192.776 227.359 192.824L228.735 195H227.919L226.623 192.96H225.119V195H224.399ZM225.119 192.32H226.839C226.988 192.32 227.121 192.288 227.239 192.224C227.361 192.16 227.465 192.075 227.551 191.968C227.636 191.856 227.703 191.728 227.751 191.584C227.799 191.44 227.823 191.291 227.823 191.136C227.823 190.976 227.793 190.827 227.735 190.688C227.681 190.544 227.607 190.419 227.511 190.312C227.42 190.2 227.311 190.115 227.183 190.056C227.06 189.992 226.929 189.96 226.791 189.96H225.119V192.32ZM235.113 194.36V195H231.257V189.32H235.041V189.96H231.977V191.8H234.641V192.4H231.977V194.36H235.113ZM242.612 195V190.608L240.724 193.976H240.316L238.42 190.608V195H237.7V189.32H238.46L240.516 193.008L242.58 189.32H243.332V195H242.612ZM250.148 194.36V195H246.292V189.32H250.076V189.96H247.012V191.8H249.676V192.4H247.012V194.36H250.148ZM253.456 190.664V195H252.736V189.32H253.296L256.816 193.744V189.328H257.536V195H256.928L253.456 190.664ZM264.589 189.96H262.629V195H261.909V189.96H259.949V189.32H264.589V189.96Z" fill="black"/>
<path d="M358.5 61.2733L349.5 45.2725L358.5 29.2733H375.142L384.392 45.2725C380.78 51.5212 378.755 55.0246 375.142 61.2733H358.5Z" fill="white"/>
<path d="M358.876 60.5867H376.712L385.632 45.1404L376.712 29.6957H358.876L349.957 45.1404L358.876 60.5867ZM377.692 62.2825H357.896L348 45.1404L357.896 28H377.692L387.588 45.1404L377.692 62.2825Z" fill="url(#paint13_linear)"/>
<path d="M358.876 60.5867H376.712L385.632 45.1404L376.712 29.6957H358.876L349.957 45.1404L358.876 60.5867ZM377.692 62.2825H357.896L348 45.1404L357.896 28H377.692L387.588 45.1404L377.692 62.2825Z" fill="url(#paint14_linear)"/>
<path d="M358.876 60.5867H376.712L385.632 45.1404L376.712 29.6957H358.876L349.957 45.1404L358.876 60.5867ZM377.692 62.2825H357.896L348 45.1404L357.896 28H377.692L387.588 45.1404L377.692 62.2825Z" fill="url(#paint15_linear)"/>
<path d="M378.75 49H378V45.625C378 45.125 377.781 44.5938 377.406 44.2188L374.781 41.5938C374.406 41.2188 373.906 41 373.375 41H372V39.4688C372 38.6562 371.281 38 370.438 38H360.531C359.688 38 359 38.6562 359 39.4688V48.5625C359 49.375 359.688 50 360.531 50H361.031C361 50.1875 361 50.3438 361 50.5C361 51.9062 362.094 53 363.5 53C364.875 53 366 51.9062 366 50.5C366 50.3438 365.969 50.1875 365.938 50H372.031C372 50.1875 372 50.3438 372 50.5C372 51.9062 373.094 53 374.5 53C375.875 53 377 51.9062 377 50.5C377 50.3438 376.969 50.1875 376.938 50H378.75C378.875 50 379 49.9062 379 49.75V49.25C379 49.125 378.875 49 378.75 49ZM373.375 42C373.625 42 373.875 42.125 374.062 42.3125L376.688 44.9375C376.719 44.9688 376.719 45 376.75 45.0312H372V42.0312H373.375V42ZM363.5 52C362.656 52 362 51.3438 362 50.5C362 49.6875 362.656 49 363.5 49C364.312 49 365 49.6875 365 50.5C365 51.3438 364.312 52 363.5 52ZM365.469 49C365.031 48.4062 364.312 48 363.5 48C362.688 48 361.969 48.4062 361.5 49H360.531C360.219 49 360 48.8125 360 48.5625V39.4688C360 39.2188 360.219 39 360.531 39H370.438C370.75 39 371 39.2188 371 39.4688V49H365.469ZM374.5 52C373.656 52 373 51.3438 373 50.5C373 49.6875 373.656 49 374.5 49C375.312 49 376 49.6875 376 50.5C376 51.3438 375.312 52 374.5 52ZM374.5 48C373.656 48 372.969 48.4062 372.5 49H372V46H377V49H376.469C376.031 48.4062 375.312 48 374.5 48Z" fill="#22419B"/>
<path d="M371.016 72.512C370.952 72.4373 370.867 72.3653 370.76 72.296C370.653 72.2267 370.533 72.1653 370.4 72.112C370.267 72.0533 370.12 72.008 369.96 71.976C369.805 71.9387 369.643 71.92 369.472 71.92C369.029 71.92 368.704 72.0027 368.496 72.168C368.293 72.3333 368.192 72.56 368.192 72.848C368.192 73.0027 368.221 73.1307 368.28 73.232C368.339 73.3333 368.429 73.4213 368.552 73.496C368.68 73.5653 368.837 73.6267 369.024 73.68C369.211 73.7333 369.432 73.7893 369.688 73.848C369.981 73.912 370.245 73.9867 370.48 74.072C370.72 74.152 370.923 74.2533 371.088 74.376C371.259 74.4987 371.387 74.648 371.472 74.824C371.563 75 371.608 75.216 371.608 75.472C371.608 75.744 371.555 75.9813 371.448 76.184C371.341 76.3813 371.195 76.5467 371.008 76.68C370.827 76.808 370.611 76.904 370.36 76.968C370.109 77.0267 369.837 77.056 369.544 77.056C369.107 77.056 368.691 76.9893 368.296 76.856C367.907 76.7173 367.552 76.5173 367.232 76.256L367.576 75.648C367.661 75.7387 367.771 75.8293 367.904 75.92C368.043 76.0107 368.197 76.0933 368.368 76.168C368.544 76.2373 368.731 76.296 368.928 76.344C369.131 76.3867 369.341 76.408 369.56 76.408C369.965 76.408 370.28 76.336 370.504 76.192C370.728 76.048 370.84 75.832 370.84 75.544C370.84 75.384 370.803 75.2507 370.728 75.144C370.659 75.032 370.555 74.936 370.416 74.856C370.277 74.776 370.104 74.7067 369.896 74.648C369.693 74.584 369.461 74.52 369.2 74.456C368.912 74.3867 368.659 74.312 368.44 74.232C368.221 74.152 368.037 74.056 367.888 73.944C367.744 73.832 367.635 73.696 367.56 73.536C367.485 73.376 367.448 73.184 367.448 72.96C367.448 72.688 367.499 72.448 367.6 72.24C367.701 72.032 367.843 71.856 368.024 71.712C368.205 71.568 368.421 71.4613 368.672 71.392C368.923 71.3173 369.195 71.28 369.488 71.28C369.872 71.28 370.219 71.3387 370.528 71.456C370.837 71.5733 371.112 71.7307 371.352 71.928L371.016 72.512ZM378.723 71.32V77H378.003V74.416H374.875V77H374.155V71.32H374.875V73.776H378.003V71.32H378.723ZM381.685 77V71.32H382.405V77H381.685ZM385.363 77V71.32H387.731C387.981 71.32 388.211 71.3733 388.419 71.48C388.632 71.5813 388.813 71.72 388.963 71.896C389.117 72.0667 389.237 72.2613 389.323 72.48C389.408 72.6933 389.451 72.912 389.451 73.136C389.451 73.3707 389.411 73.5973 389.331 73.816C389.251 74.0347 389.136 74.2293 388.987 74.4C388.843 74.5707 388.667 74.7067 388.459 74.808C388.256 74.9093 388.029 74.96 387.779 74.96H386.083V77H385.363ZM386.083 74.32H387.739C387.888 74.32 388.021 74.2907 388.139 74.232C388.261 74.168 388.365 74.0827 388.451 73.976C388.536 73.864 388.603 73.736 388.651 73.592C388.699 73.448 388.723 73.296 388.723 73.136C388.723 72.9707 388.693 72.816 388.635 72.672C388.581 72.528 388.507 72.4027 388.411 72.296C388.32 72.1893 388.211 72.1067 388.083 72.048C387.96 71.9893 387.829 71.96 387.691 71.96H386.083V74.32ZM396.859 77V72.608L394.971 75.976H394.563L392.667 72.608V77H391.947V71.32H392.707L394.763 75.008L396.827 71.32H397.579V77H396.859ZM404.395 76.36V77H400.539V71.32H404.323V71.96H401.259V73.8H403.923V74.4H401.259V76.36H404.395ZM407.703 72.664V77H406.983V71.32H407.543L411.063 75.744V71.328H411.783V77H411.175L407.703 72.664ZM418.835 71.96H416.875V77H416.155V71.96H414.195V71.32H418.835V71.96ZM424.589 72.512C424.525 72.4373 424.44 72.3653 424.333 72.296C424.227 72.2267 424.107 72.1653 423.973 72.112C423.84 72.0533 423.693 72.008 423.533 71.976C423.379 71.9387 423.216 71.92 423.045 71.92C422.603 71.92 422.277 72.0027 422.069 72.168C421.867 72.3333 421.765 72.56 421.765 72.848C421.765 73.0027 421.795 73.1307 421.853 73.232C421.912 73.3333 422.003 73.4213 422.125 73.496C422.253 73.5653 422.411 73.6267 422.597 73.68C422.784 73.7333 423.005 73.7893 423.261 73.848C423.555 73.912 423.819 73.9867 424.053 74.072C424.293 74.152 424.496 74.2533 424.661 74.376C424.832 74.4987 424.96 74.648 425.045 74.824C425.136 75 425.181 75.216 425.181 75.472C425.181 75.744 425.128 75.9813 425.021 76.184C424.915 76.3813 424.768 76.5467 424.581 76.68C424.4 76.808 424.184 76.904 423.933 76.968C423.683 77.0267 423.411 77.056 423.117 77.056C422.68 77.056 422.264 76.9893 421.869 76.856C421.48 76.7173 421.125 76.5173 420.805 76.256L421.149 75.648C421.235 75.7387 421.344 75.8293 421.477 75.92C421.616 76.0107 421.771 76.0933 421.941 76.168C422.117 76.2373 422.304 76.296 422.501 76.344C422.704 76.3867 422.915 76.408 423.133 76.408C423.539 76.408 423.853 76.336 424.077 76.192C424.301 76.048 424.413 75.832 424.413 75.544C424.413 75.384 424.376 75.2507 424.301 75.144C424.232 75.032 424.128 74.936 423.989 74.856C423.851 74.776 423.677 74.7067 423.469 74.648C423.267 74.584 423.035 74.52 422.773 74.456C422.485 74.3867 422.232 74.312 422.013 74.232C421.795 74.152 421.611 74.056 421.461 73.944C421.317 73.832 421.208 73.696 421.133 73.536C421.059 73.376 421.021 73.184 421.021 72.96C421.021 72.688 421.072 72.448 421.173 72.24C421.275 72.032 421.416 71.856 421.597 71.712C421.779 71.568 421.995 71.4613 422.245 71.392C422.496 71.3173 422.768 71.28 423.061 71.28C423.445 71.28 423.792 71.3387 424.101 71.456C424.411 71.5733 424.685 71.7307 424.925 71.928L424.589 72.512Z" fill="black"/>
<path d="M234.68 111V105.32H235.4V111H234.68ZM239.078 106.664V111H238.358V105.32H238.918L242.438 109.744V105.328H243.158V111H242.55L239.078 106.664ZM246.274 105.32L248.154 110.096L250.026 105.32H250.786L248.466 111H247.842L245.514 105.32H246.274ZM257.008 110.36V111H253.152V105.32H256.936V105.96H253.872V107.8H256.536V108.4H253.872V110.36H257.008ZM260.316 106.664V111H259.596V105.32H260.156L263.676 109.744V105.328H264.396V111H263.788L260.316 106.664ZM271.448 105.96H269.488V111H268.768V105.96H266.808V105.32H271.448V105.96ZM275.998 111.04C275.598 111.04 275.233 110.96 274.902 110.8C274.577 110.635 274.297 110.419 274.062 110.152C273.827 109.88 273.646 109.571 273.518 109.224C273.39 108.877 273.326 108.523 273.326 108.16C273.326 107.781 273.393 107.419 273.526 107.072C273.665 106.725 273.854 106.419 274.094 106.152C274.334 105.885 274.617 105.675 274.942 105.52C275.273 105.36 275.63 105.28 276.014 105.28C276.414 105.28 276.777 105.365 277.102 105.536C277.427 105.701 277.707 105.92 277.942 106.192C278.177 106.464 278.358 106.773 278.486 107.12C278.614 107.461 278.678 107.811 278.678 108.168C278.678 108.547 278.609 108.909 278.47 109.256C278.337 109.603 278.15 109.909 277.91 110.176C277.675 110.437 277.393 110.648 277.062 110.808C276.737 110.963 276.382 111.04 275.998 111.04ZM274.054 108.16C274.054 108.448 274.099 108.728 274.19 109C274.286 109.267 274.419 109.504 274.59 109.712C274.761 109.92 274.966 110.085 275.206 110.208C275.446 110.331 275.713 110.392 276.006 110.392C276.31 110.392 276.582 110.328 276.822 110.2C277.062 110.067 277.265 109.896 277.43 109.688C277.601 109.475 277.729 109.235 277.814 108.968C277.905 108.701 277.95 108.432 277.95 108.16C277.95 107.872 277.902 107.595 277.806 107.328C277.715 107.056 277.582 106.819 277.406 106.616C277.235 106.408 277.03 106.243 276.79 106.12C276.555 105.997 276.294 105.936 276.006 105.936C275.702 105.936 275.43 106 275.19 106.128C274.95 106.256 274.745 106.424 274.574 106.632C274.409 106.84 274.281 107.077 274.19 107.344C274.099 107.611 274.054 107.883 274.054 108.16ZM281.278 111V105.32H283.71C283.961 105.32 284.19 105.373 284.398 105.48C284.612 105.581 284.793 105.72 284.942 105.896C285.097 106.067 285.217 106.261 285.302 106.48C285.388 106.693 285.43 106.912 285.43 107.136C285.43 107.333 285.401 107.525 285.342 107.712C285.289 107.893 285.209 108.059 285.102 108.208C285.001 108.357 284.876 108.485 284.726 108.592C284.582 108.699 284.42 108.776 284.238 108.824L285.614 111H284.798L283.502 108.96H281.998V111H281.278ZM281.998 108.32H283.718C283.868 108.32 284.001 108.288 284.118 108.224C284.241 108.16 284.345 108.075 284.43 107.968C284.516 107.856 284.582 107.728 284.63 107.584C284.678 107.44 284.702 107.291 284.702 107.136C284.702 106.976 284.673 106.827 284.614 106.688C284.561 106.544 284.486 106.419 284.39 106.312C284.3 106.2 284.19 106.115 284.062 106.056C283.94 105.992 283.809 105.96 283.67 105.96H281.998V108.32ZM288.102 105.32L289.822 108.28L291.558 105.32H292.342L290.182 108.928V111H289.462V108.912L287.31 105.32H288.102Z" fill="black"/>
<path d="M6.984 65.04C6.584 65.04 6.21867 64.96 5.888 64.8C5.56267 64.6347 5.28267 64.4187 5.048 64.152C4.81333 63.88 4.632 63.5707 4.504 63.224C4.376 62.8773 4.312 62.5227 4.312 62.16C4.312 61.7813 4.37867 61.4187 4.512 61.072C4.65067 60.7253 4.84 60.4187 5.08 60.152C5.32 59.8853 5.60267 59.6747 5.928 59.52C6.25867 59.36 6.616 59.28 7 59.28C7.4 59.28 7.76267 59.3653 8.088 59.536C8.41333 59.7013 8.69333 59.92 8.928 60.192C9.16267 60.464 9.344 60.7733 9.472 61.12C9.6 61.4613 9.664 61.8107 9.664 62.168C9.664 62.5467 9.59467 62.9093 9.456 63.256C9.32267 63.6027 9.136 63.9093 8.896 64.176C8.66133 64.4373 8.37867 64.648 8.048 64.808C7.72267 64.9627 7.368 65.04 6.984 65.04ZM5.04 62.16C5.04 62.448 5.08533 62.728 5.176 63C5.272 63.2667 5.40533 63.504 5.576 63.712C5.74667 63.92 5.952 64.0853 6.192 64.208C6.432 64.3307 6.69867 64.392 6.992 64.392C7.296 64.392 7.568 64.328 7.808 64.2C8.048 64.0667 8.25067 63.896 8.416 63.688C8.58667 63.4747 8.71467 63.2347 8.8 62.968C8.89067 62.7013 8.936 62.432 8.936 62.16C8.936 61.872 8.888 61.5947 8.792 61.328C8.70133 61.056 8.568 60.8187 8.392 60.616C8.22133 60.408 8.016 60.2427 7.776 60.12C7.54133 59.9973 7.28 59.936 6.992 59.936C6.688 59.936 6.416 60 6.176 60.128C5.936 60.256 5.73067 60.424 5.56 60.632C5.39467 60.84 5.26667 61.0773 5.176 61.344C5.08533 61.6107 5.04 61.8827 5.04 62.16ZM12.2644 65V59.32H14.6964C14.947 59.32 15.1764 59.3733 15.3844 59.48C15.5977 59.5813 15.779 59.72 15.9284 59.896C16.083 60.0667 16.203 60.2613 16.2884 60.48C16.3737 60.6933 16.4164 60.912 16.4164 61.136C16.4164 61.3333 16.387 61.5253 16.3284 61.712C16.275 61.8933 16.195 62.0587 16.0884 62.208C15.987 62.3573 15.8617 62.4853 15.7124 62.592C15.5684 62.6987 15.4057 62.776 15.2244 62.824L16.6004 65H15.7844L14.4884 62.96H12.9844V65H12.2644ZM12.9844 62.32H14.7044C14.8537 62.32 14.987 62.288 15.1044 62.224C15.227 62.16 15.331 62.0747 15.4164 61.968C15.5017 61.856 15.5684 61.728 15.6164 61.584C15.6644 61.44 15.6884 61.2907 15.6884 61.136C15.6884 60.976 15.659 60.8267 15.6004 60.688C15.547 60.544 15.4724 60.4187 15.3764 60.312C15.2857 60.2 15.1764 60.1147 15.0484 60.056C14.9257 59.992 14.795 59.96 14.6564 59.96H12.9844V62.32ZM19.1222 65V59.32H21.0902C21.5435 59.32 21.9409 59.3947 22.2822 59.544C22.6289 59.6933 22.9169 59.896 23.1462 60.152C23.3755 60.408 23.5462 60.7093 23.6582 61.056C23.7755 61.3973 23.8342 61.7627 23.8342 62.152C23.8342 62.584 23.7702 62.976 23.6422 63.328C23.5142 63.6747 23.3302 63.9733 23.0902 64.224C22.8502 64.4693 22.5595 64.6613 22.2182 64.8C21.8822 64.9333 21.5062 65 21.0902 65H19.1222ZM23.1062 62.152C23.1062 61.832 23.0609 61.5387 22.9702 61.272C22.8849 61 22.7542 60.768 22.5782 60.576C22.4075 60.384 22.1969 60.2347 21.9462 60.128C21.6955 60.016 21.4102 59.96 21.0902 59.96H19.8422V64.36H21.0902C21.4155 64.36 21.7035 64.304 21.9542 64.192C22.2102 64.08 22.4209 63.9253 22.5862 63.728C22.7569 63.5307 22.8849 63.2987 22.9702 63.032C23.0609 62.76 23.1062 62.4667 23.1062 62.152ZM30.3047 64.36V65H26.4487V59.32H30.2327V59.96H27.1687V61.8H29.8327V62.4H27.1687V64.36H30.3047ZM32.8925 65V59.32H35.3245C35.5752 59.32 35.8045 59.3733 36.0125 59.48C36.2258 59.5813 36.4072 59.72 36.5565 59.896C36.7112 60.0667 36.8312 60.2613 36.9165 60.48C37.0018 60.6933 37.0445 60.912 37.0445 61.136C37.0445 61.3333 37.0152 61.5253 36.9565 61.712C36.9032 61.8933 36.8232 62.0587 36.7165 62.208C36.6152 62.3573 36.4898 62.4853 36.3405 62.592C36.1965 62.6987 36.0338 62.776 35.8525 62.824L37.2285 65H36.4125L35.1165 62.96H33.6125V65H32.8925ZM33.6125 62.32H35.3325C35.4818 62.32 35.6152 62.288 35.7325 62.224C35.8552 62.16 35.9592 62.0747 36.0445 61.968C36.1298 61.856 36.1965 61.728 36.2445 61.584C36.2925 61.44 36.3165 61.2907 36.3165 61.136C36.3165 60.976 36.2872 60.8267 36.2285 60.688C36.1752 60.544 36.1005 60.4187 36.0045 60.312C35.9138 60.2 35.8045 60.1147 35.6765 60.056C35.5538 59.992 35.4232 59.96 35.2845 59.96H33.6125V62.32ZM43.0863 60.512C43.0223 60.4373 42.937 60.3653 42.8303 60.296C42.7236 60.2267 42.6036 60.1653 42.4703 60.112C42.337 60.0533 42.1903 60.008 42.0303 59.976C41.8756 59.9387 41.713 59.92 41.5423 59.92C41.0996 59.92 40.7743 60.0027 40.5663 60.168C40.3636 60.3333 40.2623 60.56 40.2623 60.848C40.2623 61.0027 40.2916 61.1307 40.3503 61.232C40.409 61.3333 40.4996 61.4213 40.6223 61.496C40.7503 61.5653 40.9076 61.6267 41.0943 61.68C41.281 61.7333 41.5023 61.7893 41.7583 61.848C42.0516 61.912 42.3156 61.9867 42.5503 62.072C42.7903 62.152 42.993 62.2533 43.1583 62.376C43.329 62.4987 43.457 62.648 43.5423 62.824C43.633 63 43.6783 63.216 43.6783 63.472C43.6783 63.744 43.625 63.9813 43.5183 64.184C43.4116 64.3813 43.265 64.5467 43.0783 64.68C42.897 64.808 42.681 64.904 42.4303 64.968C42.1796 65.0267 41.9076 65.056 41.6143 65.056C41.177 65.056 40.761 64.9893 40.3663 64.856C39.977 64.7173 39.6223 64.5173 39.3023 64.256L39.6463 63.648C39.7316 63.7387 39.841 63.8293 39.9743 63.92C40.113 64.0107 40.2676 64.0933 40.4383 64.168C40.6143 64.2373 40.801 64.296 40.9983 64.344C41.201 64.3867 41.4116 64.408 41.6303 64.408C42.0356 64.408 42.3503 64.336 42.5743 64.192C42.7983 64.048 42.9103 63.832 42.9103 63.544C42.9103 63.384 42.873 63.2507 42.7983 63.144C42.729 63.032 42.625 62.936 42.4863 62.856C42.3476 62.776 42.1743 62.7067 41.9663 62.648C41.7636 62.584 41.5316 62.52 41.2703 62.456C40.9823 62.3867 40.729 62.312 40.5103 62.232C40.2916 62.152 40.1076 62.056 39.9583 61.944C39.8143 61.832 39.705 61.696 39.6303 61.536C39.5556 61.376 39.5183 61.184 39.5183 60.96C39.5183 60.688 39.569 60.448 39.6703 60.24C39.7716 60.032 39.913 59.856 40.0943 59.712C40.2756 59.568 40.4916 59.4613 40.7423 59.392C40.993 59.3173 41.265 59.28 41.5583 59.28C41.9423 59.28 42.289 59.3387 42.5983 59.456C42.9076 59.5733 43.1823 59.7307 43.4223 59.928L43.0863 60.512Z" fill="black"/>
<path d="M180.312 4.12C180.312 3.77867 180.371 3.44 180.488 3.104C180.611 2.76267 180.787 2.45867 181.016 2.192C181.251 1.92 181.536 1.70133 181.872 1.536C182.208 1.37067 182.589 1.288 183.016 1.288C183.523 1.288 183.957 1.40267 184.32 1.632C184.683 1.86133 184.952 2.16 185.128 2.528L184.56 2.896C184.475 2.71467 184.371 2.56267 184.248 2.44C184.131 2.31733 184 2.21867 183.856 2.144C183.717 2.06933 183.573 2.016 183.424 1.984C183.275 1.952 183.128 1.936 182.984 1.936C182.669 1.936 182.389 2.00267 182.144 2.136C181.904 2.264 181.701 2.43467 181.536 2.648C181.371 2.856 181.245 3.09333 181.16 3.36C181.08 3.62133 181.04 3.88533 181.04 4.152C181.04 4.45067 181.088 4.736 181.184 5.008C181.285 5.27467 181.424 5.512 181.6 5.72C181.776 5.928 181.984 6.09333 182.224 6.216C182.464 6.33867 182.725 6.4 183.008 6.4C183.157 6.4 183.309 6.38133 183.464 6.344C183.624 6.30667 183.776 6.248 183.92 6.168C184.064 6.08267 184.197 5.97867 184.32 5.856C184.448 5.728 184.552 5.576 184.632 5.4L185.232 5.728C185.141 5.94133 185.013 6.13067 184.848 6.296C184.688 6.456 184.504 6.592 184.296 6.704C184.093 6.816 183.877 6.90133 183.648 6.96C183.419 7.01867 183.195 7.048 182.976 7.048C182.587 7.048 182.229 6.96267 181.904 6.792C181.579 6.62133 181.296 6.4 181.056 6.128C180.821 5.85067 180.637 5.53867 180.504 5.192C180.376 4.84 180.312 4.48267 180.312 4.12ZM187.733 7V1.32H188.453V6.36H191.621V7H187.733ZM195.733 1.32H196.341L198.661 7H197.893L197.221 5.336H194.837L194.173 7H193.405L195.733 1.32ZM197.061 4.776L196.037 2.152L194.981 4.776H197.061ZM201.019 7V1.32H201.739V7H201.019ZM209.609 7V2.608L207.721 5.976H207.313L205.417 2.608V7H204.697V1.32H205.457L207.513 5.008L209.577 1.32H210.329V7H209.609ZM216.625 2.512C216.561 2.43733 216.476 2.36533 216.369 2.296C216.263 2.22667 216.143 2.16533 216.009 2.112C215.876 2.05333 215.729 2.008 215.569 1.976C215.415 1.93867 215.252 1.92 215.081 1.92C214.639 1.92 214.313 2.00267 214.105 2.168C213.903 2.33333 213.801 2.56 213.801 2.848C213.801 3.00267 213.831 3.13067 213.889 3.232C213.948 3.33333 214.039 3.42133 214.161 3.496C214.289 3.56533 214.447 3.62667 214.633 3.68C214.82 3.73333 215.041 3.78933 215.297 3.848C215.591 3.912 215.855 3.98667 216.089 4.072C216.329 4.152 216.532 4.25333 216.697 4.376C216.868 4.49867 216.996 4.648 217.081 4.824C217.172 5 217.217 5.216 217.217 5.472C217.217 5.744 217.164 5.98133 217.057 6.184C216.951 6.38133 216.804 6.54667 216.617 6.68C216.436 6.808 216.22 6.904 215.969 6.968C215.719 7.02667 215.447 7.056 215.153 7.056C214.716 7.056 214.3 6.98933 213.905 6.856C213.516 6.71733 213.161 6.51733 212.841 6.256L213.185 5.648C213.271 5.73867 213.38 5.82933 213.513 5.92C213.652 6.01067 213.807 6.09333 213.977 6.168C214.153 6.23733 214.34 6.296 214.537 6.344C214.74 6.38667 214.951 6.408 215.169 6.408C215.575 6.408 215.889 6.336 216.113 6.192C216.337 6.048 216.449 5.832 216.449 5.544C216.449 5.384 216.412 5.25067 216.337 5.144C216.268 5.032 216.164 4.936 216.025 4.856C215.887 4.776 215.713 4.70667 215.505 4.648C215.303 4.584 215.071 4.52 214.809 4.456C214.521 4.38667 214.268 4.312 214.049 4.232C213.831 4.152 213.647 4.056 213.497 3.944C213.353 3.832 213.244 3.696 213.169 3.536C213.095 3.376 213.057 3.184 213.057 2.96C213.057 2.688 213.108 2.448 213.209 2.24C213.311 2.032 213.452 1.856 213.633 1.712C213.815 1.568 214.031 1.46133 214.281 1.392C214.532 1.31733 214.804 1.28 215.097 1.28C215.481 1.28 215.828 1.33867 216.137 1.456C216.447 1.57333 216.721 1.73067 216.961 1.928L216.625 2.512Z" fill="black"/>
<path d="M364.5 114.696H310L290 78.6957L290.94 77L310.939 113H320.068L365.5 113L364.5 114.696Z" fill="url(#paint16_linear)"/>
<path d="M393.054 98L402.554 114.001L393.054 130H374.054L364.554 114.001L374.054 98H393.054Z" fill="white"/>
<path d="M393.054 98L402.554 114.001L393.054 130H374.054L364.554 114.001L374.054 98H393.054Z" fill="white"/>
<path d="M392.712 98.6957H374.876L365.957 114.142L374.876 129.587H392.712L401.632 114.142L392.712 98.6957ZM373.896 97H393.692L403.588 114.142L393.692 131.282H373.896L364 114.142L373.896 97Z" fill="url(#paint17_linear)"/>
<path d="M384.844 116.25L383.438 115.812C383.25 115.781 383.156 115.625 383.156 115.438C383.156 115.188 383.312 115 383.531 115H384.406C384.531 115 384.688 115.062 384.812 115.125C384.906 115.188 385.031 115.188 385.125 115.094L385.469 114.75C385.594 114.656 385.594 114.469 385.469 114.375C385.188 114.156 384.844 114.031 384.469 114.031V113.25C384.469 113.125 384.375 113 384.219 113H383.719C383.594 113 383.469 113.125 383.469 113.25V114.031C382.75 114.031 382.156 114.656 382.156 115.438C382.156 116.062 382.562 116.594 383.125 116.781L384.531 117.219C384.719 117.25 384.812 117.406 384.812 117.594C384.812 117.844 384.656 118 384.438 118H383.562C383.438 118 383.281 117.969 383.156 117.906C383.062 117.844 382.938 117.844 382.844 117.938L382.5 118.281C382.375 118.375 382.375 118.562 382.5 118.656C382.781 118.875 383.125 119 383.5 119V119.75C383.5 119.906 383.594 120 383.75 120H384.25C384.375 120 384.5 119.906 384.5 119.75V119C385.219 119 385.812 118.375 385.812 117.594C385.812 116.969 385.406 116.406 384.844 116.25ZM380.25 109H383.75C383.875 109 384 108.906 384 108.75V108.25C384 108.125 383.875 108 383.75 108H380.25C380.094 108 380 108.125 380 108.25V108.75C380 108.906 380.094 109 380.25 109ZM384 110.75V110.25C384 110.125 383.875 110 383.75 110H380.25C380.094 110 380 110.125 380 110.25V110.75C380 110.906 380.094 111 380.25 111H383.75C383.875 111 384 110.906 384 110.75ZM389.531 109.062L386.938 106.469C386.656 106.188 386.25 106 385.875 106H379.469C378.656 106.031 378 106.688 378 107.531V120.531C378 121.344 378.656 122 379.469 122H388.5C389.312 122 390 121.344 390 120.531V110.125C390 109.75 389.812 109.344 389.531 109.062ZM386 107.031C386.062 107.062 386.156 107.094 386.219 107.156L388.844 109.781C388.906 109.844 388.938 109.938 388.969 110.031H386V107.031ZM389 120.531C389 120.781 388.75 121.031 388.5 121.031H379.469C379.219 121.031 378.969 120.781 378.969 120.531V107.531C378.969 107.25 379.219 107 379.469 107H385V110.281C385 110.688 385.312 111 385.75 111H389V120.531Z" fill="#A2393A"/>
<path d="M385.408 142.32H386.016L388.336 148H387.568L386.896 146.336H384.512L383.848 148H383.08L385.408 142.32ZM386.736 145.776L385.712 143.152L384.656 145.776H386.736ZM390.115 145.12C390.115 144.779 390.174 144.44 390.291 144.104C390.414 143.763 390.59 143.459 390.819 143.192C391.054 142.92 391.339 142.701 391.675 142.536C392.011 142.371 392.392 142.288 392.819 142.288C393.326 142.288 393.76 142.403 394.123 142.632C394.486 142.861 394.755 143.16 394.931 143.528L394.363 143.896C394.278 143.715 394.174 143.563 394.051 143.44C393.934 143.317 393.803 143.219 393.659 143.144C393.52 143.069 393.376 143.016 393.227 142.984C393.078 142.952 392.931 142.936 392.787 142.936C392.472 142.936 392.192 143.003 391.947 143.136C391.707 143.264 391.504 143.435 391.339 143.648C391.174 143.856 391.048 144.093 390.963 144.36C390.883 144.621 390.843 144.885 390.843 145.152C390.843 145.451 390.891 145.736 390.987 146.008C391.088 146.275 391.227 146.512 391.403 146.72C391.579 146.928 391.787 147.093 392.027 147.216C392.267 147.339 392.528 147.4 392.811 147.4C392.96 147.4 393.112 147.381 393.267 147.344C393.427 147.307 393.579 147.248 393.723 147.168C393.867 147.083 394 146.979 394.123 146.856C394.251 146.728 394.355 146.576 394.435 146.4L395.035 146.728C394.944 146.941 394.816 147.131 394.651 147.296C394.491 147.456 394.307 147.592 394.099 147.704C393.896 147.816 393.68 147.901 393.451 147.96C393.222 148.019 392.998 148.048 392.779 148.048C392.39 148.048 392.032 147.963 391.707 147.792C391.382 147.621 391.099 147.4 390.859 147.128C390.624 146.851 390.44 146.539 390.307 146.192C390.179 145.84 390.115 145.483 390.115 145.12ZM397.106 145.12C397.106 144.779 397.164 144.44 397.282 144.104C397.404 143.763 397.58 143.459 397.81 143.192C398.044 142.92 398.33 142.701 398.666 142.536C399.002 142.371 399.383 142.288 399.81 142.288C400.316 142.288 400.751 142.403 401.114 142.632C401.476 142.861 401.746 143.16 401.922 143.528L401.354 143.896C401.268 143.715 401.164 143.563 401.042 143.44C400.924 143.317 400.794 143.219 400.65 143.144C400.511 143.069 400.367 143.016 400.218 142.984C400.068 142.952 399.922 142.936 399.778 142.936C399.463 142.936 399.183 143.003 398.938 143.136C398.698 143.264 398.495 143.435 398.33 143.648C398.164 143.856 398.039 144.093 397.954 144.36C397.874 144.621 397.834 144.885 397.834 145.152C397.834 145.451 397.882 145.736 397.978 146.008C398.079 146.275 398.218 146.512 398.394 146.72C398.57 146.928 398.778 147.093 399.018 147.216C399.258 147.339 399.519 147.4 399.802 147.4C399.951 147.4 400.103 147.381 400.258 147.344C400.418 147.307 400.57 147.248 400.714 147.168C400.858 147.083 400.991 146.979 401.114 146.856C401.242 146.728 401.346 146.576 401.426 146.4L402.026 146.728C401.935 146.941 401.807 147.131 401.642 147.296C401.482 147.456 401.298 147.592 401.09 147.704C400.887 147.816 400.671 147.901 400.442 147.96C400.212 148.019 399.988 148.048 399.77 148.048C399.38 148.048 399.023 147.963 398.698 147.792C398.372 147.621 398.09 147.4 397.85 147.128C397.615 146.851 397.431 146.539 397.298 146.192C397.17 145.84 397.106 145.483 397.106 145.12ZM406.768 148.04C406.368 148.04 406.003 147.96 405.672 147.8C405.347 147.635 405.067 147.419 404.832 147.152C404.598 146.88 404.416 146.571 404.288 146.224C404.16 145.877 404.096 145.523 404.096 145.16C404.096 144.781 404.163 144.419 404.296 144.072C404.435 143.725 404.624 143.419 404.864 143.152C405.104 142.885 405.387 142.675 405.712 142.52C406.043 142.36 406.4 142.28 406.784 142.28C407.184 142.28 407.547 142.365 407.872 142.536C408.198 142.701 408.478 142.92 408.712 143.192C408.947 143.464 409.128 143.773 409.256 144.12C409.384 144.461 409.448 144.811 409.448 145.168C409.448 145.547 409.379 145.909 409.24 146.256C409.107 146.603 408.92 146.909 408.68 147.176C408.446 147.437 408.163 147.648 407.832 147.808C407.507 147.963 407.152 148.04 406.768 148.04ZM404.824 145.16C404.824 145.448 404.87 145.728 404.96 146C405.056 146.267 405.19 146.504 405.36 146.712C405.531 146.92 405.736 147.085 405.976 147.208C406.216 147.331 406.483 147.392 406.776 147.392C407.08 147.392 407.352 147.328 407.592 147.2C407.832 147.067 408.035 146.896 408.2 146.688C408.371 146.475 408.499 146.235 408.584 145.968C408.675 145.701 408.72 145.432 408.72 145.16C408.72 144.872 408.672 144.595 408.576 144.328C408.486 144.056 408.352 143.819 408.176 143.616C408.006 143.408 407.8 143.243 407.56 143.12C407.326 142.997 407.064 142.936 406.776 142.936C406.472 142.936 406.2 143 405.96 143.128C405.72 143.256 405.515 143.424 405.344 143.632C405.179 143.84 405.051 144.077 404.96 144.344C404.87 144.611 404.824 144.883 404.824 145.16ZM414.385 147.392C414.715 147.392 414.99 147.328 415.209 147.2C415.427 147.072 415.601 146.907 415.729 146.704C415.862 146.496 415.955 146.261 416.009 146C416.062 145.733 416.089 145.464 416.089 145.192V142.32H416.809V145.192C416.809 145.576 416.763 145.941 416.673 146.288C416.587 146.629 416.449 146.931 416.257 147.192C416.065 147.453 415.814 147.661 415.505 147.816C415.201 147.965 414.83 148.04 414.393 148.04C413.939 148.04 413.558 147.96 413.249 147.8C412.939 147.64 412.689 147.429 412.497 147.168C412.31 146.901 412.174 146.597 412.089 146.256C412.009 145.909 411.969 145.555 411.969 145.192V142.32H412.689V145.192C412.689 145.475 412.715 145.749 412.769 146.016C412.827 146.277 412.921 146.509 413.049 146.712C413.182 146.915 413.355 147.08 413.569 147.208C413.787 147.331 414.059 147.392 414.385 147.392ZM420.408 143.664V148H419.688V142.32H420.248L423.768 146.744V142.328H424.488V148H423.88L420.408 143.664ZM431.54 142.96H429.58V148H428.86V142.96H426.9V142.32H431.54V142.96ZM433.958 148V142.32H434.678V148H433.958ZM438.356 143.664V148H437.636V142.32H438.196L441.716 146.744V142.328H442.436V148H441.828L438.356 143.664ZM449.401 147.232C448.899 147.771 448.323 148.04 447.673 148.04C447.294 148.04 446.942 147.957 446.617 147.792C446.297 147.627 446.019 147.411 445.785 147.144C445.55 146.872 445.363 146.563 445.225 146.216C445.091 145.869 445.025 145.512 445.025 145.144C445.025 144.76 445.091 144.397 445.225 144.056C445.358 143.709 445.542 143.405 445.777 143.144C446.011 142.877 446.291 142.667 446.617 142.512C446.942 142.357 447.294 142.28 447.673 142.28C448.222 142.28 448.673 142.395 449.025 142.624C449.382 142.853 449.654 143.152 449.841 143.52L449.289 143.904C449.118 143.573 448.891 143.328 448.609 143.168C448.326 143.008 448.009 142.928 447.657 142.928C447.369 142.928 447.107 142.992 446.873 143.12C446.638 143.243 446.438 143.408 446.273 143.616C446.107 143.819 445.979 144.056 445.889 144.328C445.798 144.595 445.753 144.872 445.753 145.16C445.753 145.464 445.803 145.752 445.905 146.024C446.006 146.291 446.145 146.528 446.321 146.736C446.497 146.939 446.705 147.099 446.945 147.216C447.185 147.333 447.446 147.392 447.729 147.392C448.347 147.392 448.905 147.093 449.401 146.496V145.712H448.177V145.168H450.009V148H449.401V147.232Z" fill="black"/>
<path d="M153 112.733C153 115.346 155.118 117.466 157.733 117.466C160.347 117.466 162.465 115.346 162.465 112.733C162.465 110.12 160.347 108 157.733 108C155.118 108 153 110.12 153 112.733Z" fill="url(#paint18_linear)"/>
<path d="M287 78.7328C287 81.3459 289.118 83.4656 291.733 83.4656C294.348 83.4656 296.466 81.3459 296.466 78.7328C296.466 76.1197 294.348 74.0001 291.733 74.0001C289.118 74.0001 287 76.1197 287 78.7328Z" fill="url(#paint19_linear)"/>
</g>
<defs>
<filter id="filter0_d" x="0.312012" y="1.28003" width="453.697" height="201.768" filterUnits="userSpaceOnUse" color-interpolation-filters="sRGB">
<feFlood flood-opacity="0" result="BackgroundImageFix"/>
<feColorMatrix in="SourceAlpha" type="matrix" values="0 0 0 0 0 0 0 0 0 0 0 0 0 0 0 0 0 0 127 0"/>
<feOffset dy="4"/>
<feGaussianBlur stdDeviation="2"/>
<feColorMatrix type="matrix" values="0 0 0 0 0 0 0 0 0 0 0 0 0 0 0 0 0 0 0.25 0"/>
<feBlend mode="normal" in2="BackgroundImageFix" result="effect1_dropShadow"/>
<feBlend mode="normal" in="SourceGraphic" in2="effect1_dropShadow" result="shape"/>
</filter>
<linearGradient id="paint0_linear" x1="69.0392" y1="55.2387" x2="437.477" y2="58.3072" gradientUnits="userSpaceOnUse">
<stop stop-color="#80203B"/>
<stop offset="0.0348449" stop-color="#80203B"/>
<stop offset="0.225296" stop-color="#F57336"/>
<stop offset="0.258693" stop-color="#F57336"/>
<stop offset="0.529644" stop-color="#21409A"/>
<stop offset="0.580765" stop-color="#21409A"/>
<stop offset="0.778656" stop-color="#4DAAAB"/>
<stop offset="0.787808" stop-color="#4DAAAB"/>
<stop offset="0.996047" stop-color="#004563"/>
<stop offset="0.99606" stop-color="#004563"/>
<stop offset="1" stop-color="#004563"/>
</linearGradient>
<linearGradient id="paint1_linear" x1="660.315" y1="76.5726" x2="-258.769" y2="81.0951" gradientUnits="userSpaceOnUse">
<stop stop-color="#80203B"/>
<stop offset="0.0348449" stop-color="#80203B"/>
<stop offset="0.225296" stop-color="#F57336"/>
<stop offset="0.258693" stop-color="#F57336"/>
<stop offset="0.529644" stop-color="#21409A"/>
<stop offset="0.580765" stop-color="#21409A"/>
<stop offset="0.778656" stop-color="#4DAAAB"/>
<stop offset="0.787808" stop-color="#4DAAAB"/>
<stop offset="0.996047" stop-color="#004563"/>
<stop offset="0.99606" stop-color="#004563"/>
<stop offset="1" stop-color="#004563"/>
</linearGradient>
<linearGradient id="paint2_linear" x1="660.308" y1="75.4594" x2="-258.773" y2="79.9819" gradientUnits="userSpaceOnUse">
<stop stop-color="#80203B"/>
<stop offset="0.0348449" stop-color="#80203B"/>
<stop offset="0.225296" stop-color="#F57336"/>
<stop offset="0.258693" stop-color="#F57336"/>
<stop offset="0.529644" stop-color="#21409A"/>
<stop offset="0.580765" stop-color="#21409A"/>
<stop offset="0.778656" stop-color="#4DAAAB"/>
<stop offset="0.787808" stop-color="#4DAAAB"/>
<stop offset="0.996047" stop-color="#004563"/>
<stop offset="0.99606" stop-color="#004563"/>
<stop offset="1" stop-color="#004563"/>
</linearGradient>
<linearGradient id="paint3_linear" x1="660.315" y1="76.5726" x2="-258.769" y2="81.0951" gradientUnits="userSpaceOnUse">
<stop stop-color="#80203B"/>
<stop offset="0.0348449" stop-color="#80203B"/>
<stop offset="0.225296" stop-color="#F57336"/>
<stop offset="0.258693" stop-color="#F57336"/>
<stop offset="0.529644" stop-color="#21409A"/>
<stop offset="0.580765" stop-color="#21409A"/>
<stop offset="0.778656" stop-color="#4DAAAB"/>
<stop offset="0.787808" stop-color="#4DAAAB"/>
<stop offset="0.996047" stop-color="#004563"/>
<stop offset="0.99606" stop-color="#004563"/>
<stop offset="1" stop-color="#004563"/>
</linearGradient>
<linearGradient id="paint4_linear" x1="660.315" y1="76.5726" x2="-258.769" y2="81.0951" gradientUnits="userSpaceOnUse">
<stop stop-color="#80203B"/>
<stop offset="0.0348449" stop-color="#80203B"/>
<stop offset="0.225296" stop-color="#F57336"/>
<stop offset="0.258693" stop-color="#F57336"/>
<stop offset="0.529644" stop-color="#21409A"/>
<stop offset="0.580765" stop-color="#21409A"/>
<stop offset="0.778656" stop-color="#4DAAAB"/>
<stop offset="0.787808" stop-color="#4DAAAB"/>
<stop offset="0.996047" stop-color="#004563"/>
<stop offset="0.99606" stop-color="#004563"/>
<stop offset="1" stop-color="#004563"/>
</linearGradient>
<linearGradient id="paint5_linear" x1="448.677" y1="-220.771" x2="184.108" y2="241.933" gradientUnits="userSpaceOnUse">
<stop stop-color="#80203B"/>
<stop offset="0.0348449" stop-color="#80203B"/>
<stop offset="0.225296" stop-color="#F57336"/>
<stop offset="0.258693" stop-color="#F57336"/>
<stop offset="0.529644" stop-color="#21409A"/>
<stop offset="0.580765" stop-color="#21409A"/>
<stop offset="0.778656" stop-color="#4DAAAB"/>
<stop offset="0.787808" stop-color="#4DAAAB"/>
<stop offset="0.996047" stop-color="#004563"/>
<stop offset="0.99606" stop-color="#004563"/>
<stop offset="1" stop-color="#004563"/>
</linearGradient>
<linearGradient id="paint6_linear" x1="448.677" y1="-220.771" x2="184.108" y2="241.933" gradientUnits="userSpaceOnUse">
<stop stop-color="#80203B"/>
<stop offset="0.0348449" stop-color="#80203B"/>
<stop offset="0.225296" stop-color="#F57336"/>
<stop offset="0.258693" stop-color="#F57336"/>
<stop offset="0.529644" stop-color="#21409A"/>
<stop offset="0.580765" stop-color="#21409A"/>
<stop offset="0.778656" stop-color="#4DAAAB"/>
<stop offset="0.787808" stop-color="#4DAAAB"/>
<stop offset="0.996047" stop-color="#004563"/>
<stop offset="0.99606" stop-color="#004563"/>
<stop offset="1" stop-color="#004563"/>
</linearGradient>
<linearGradient id="paint7_linear" x1="-53.192" y1="87.9563" x2="348.21" y2="90.4069" gradientUnits="userSpaceOnUse">
<stop stop-color="#80203B"/>
<stop offset="0.0348449" stop-color="#80203B"/>
<stop offset="0.225296" stop-color="#F57336"/>
<stop offset="0.258693" stop-color="#F57336"/>
<stop offset="0.529644" stop-color="#21409A"/>
<stop offset="0.580765" stop-color="#21409A"/>
<stop offset="0.778656" stop-color="#4DAAAB"/>
<stop offset="0.787808" stop-color="#4DAAAB"/>
<stop offset="0.996047" stop-color="#004563"/>
<stop offset="0.99606" stop-color="#004563"/>
<stop offset="1" stop-color="#004563"/>
</linearGradient>
<linearGradient id="paint8_linear" x1="660.086" y1="30.0762" x2="-258.998" y2="34.5987" gradientUnits="userSpaceOnUse">
<stop stop-color="#80203B"/>
<stop offset="0.0348449" stop-color="#80203B"/>
<stop offset="0.225296" stop-color="#F57336"/>
<stop offset="0.258693" stop-color="#F57336"/>
<stop offset="0.529644" stop-color="#21409A"/>
<stop offset="0.580765" stop-color="#21409A"/>
<stop offset="0.778656" stop-color="#4DAAAB"/>
<stop offset="0.787808" stop-color="#4DAAAB"/>
<stop offset="0.996047" stop-color="#004563"/>
<stop offset="0.99606" stop-color="#004563"/>
<stop offset="1" stop-color="#004563"/>
</linearGradient>
<linearGradient id="paint9_linear" x1="28.0792" y1="168.735" x2="297.2" y2="167.59" gradientUnits="userSpaceOnUse">
<stop stop-color="#80203B"/>
<stop offset="0.0348449" stop-color="#80203B"/>
<stop offset="0.225296" stop-color="#F57336"/>
<stop offset="0.258693" stop-color="#F57336"/>
<stop offset="0.529644" stop-color="#21409A"/>
<stop offset="0.580765" stop-color="#21409A"/>
<stop offset="0.778656" stop-color="#4DAAAB"/>
<stop offset="0.787808" stop-color="#4DAAAB"/>
<stop offset="0.996047" stop-color="#004563"/>
<stop offset="0.99606" stop-color="#004563"/>
<stop offset="1" stop-color="#004563"/>
</linearGradient>
<linearGradient id="paint10_linear" x1="28.0792" y1="168.735" x2="297.2" y2="167.59" gradientUnits="userSpaceOnUse">
<stop stop-color="#80203B"/>
<stop offset="0.0348449" stop-color="#80203B"/>
<stop offset="0.225296" stop-color="#F57336"/>
<stop offset="0.258693" stop-color="#F57336"/>
<stop offset="0.529644" stop-color="#21409A"/>
<stop offset="0.580765" stop-color="#21409A"/>
<stop offset="0.778656" stop-color="#4DAAAB"/>
<stop offset="0.787808" stop-color="#4DAAAB"/>
<stop offset="0.996047" stop-color="#004563"/>
<stop offset="0.99606" stop-color="#004563"/>
<stop offset="1" stop-color="#004563"/>
</linearGradient>
<linearGradient id="paint11_linear" x1="73.0792" y1="84.7347" x2="342.2" y2="83.5905" gradientUnits="userSpaceOnUse">
<stop stop-color="#80203B"/>
<stop offset="0.0348449" stop-color="#80203B"/>
<stop offset="0.225296" stop-color="#F57336"/>
<stop offset="0.258693" stop-color="#F57336"/>
<stop offset="0.529644" stop-color="#21409A"/>
<stop offset="0.580765" stop-color="#21409A"/>
<stop offset="0.778656" stop-color="#4DAAAB"/>
<stop offset="0.787808" stop-color="#4DAAAB"/>
<stop offset="0.996047" stop-color="#004563"/>
<stop offset="0.99606" stop-color="#004563"/>
<stop offset="1" stop-color="#004563"/>
</linearGradient>
<linearGradient id="paint12_linear" x1="215.694" y1="32.9795" x2="54.5181" y2="33.7726" gradientUnits="userSpaceOnUse">
<stop stop-color="#80203B"/>
<stop offset="0.0348449" stop-color="#80203B"/>
<stop offset="0.225296" stop-color="#F57336"/>
<stop offset="0.258693" stop-color="#F57336"/>
<stop offset="0.529644" stop-color="#21409A"/>
<stop offset="0.580765" stop-color="#21409A"/>
<stop offset="0.778656" stop-color="#4DAAAB"/>
<stop offset="0.787808" stop-color="#4DAAAB"/>
<stop offset="0.996047" stop-color="#004563"/>
<stop offset="0.99606" stop-color="#004563"/>
<stop offset="1" stop-color="#004563"/>
</linearGradient>
<linearGradient id="paint13_linear" x1="207.079" y1="51.7347" x2="476.2" y2="50.5905" gradientUnits="userSpaceOnUse">
<stop stop-color="#80203B"/>
<stop offset="0.0348449" stop-color="#80203B"/>
<stop offset="0.225296" stop-color="#F57336"/>
<stop offset="0.258693" stop-color="#F57336"/>
<stop offset="0.529644" stop-color="#21409A"/>
<stop offset="0.580765" stop-color="#21409A"/>
<stop offset="0.778656" stop-color="#4DAAAB"/>
<stop offset="0.787808" stop-color="#4DAAAB"/>
<stop offset="0.996047" stop-color="#004563"/>
<stop offset="0.99606" stop-color="#004563"/>
<stop offset="1" stop-color="#004563"/>
</linearGradient>
<linearGradient id="paint14_linear" x1="207.079" y1="51.7347" x2="476.2" y2="50.5905" gradientUnits="userSpaceOnUse">
<stop stop-color="#80203B"/>
<stop offset="0.0348449" stop-color="#80203B"/>
<stop offset="0.225296" stop-color="#F57336"/>
<stop offset="0.258693" stop-color="#F57336"/>
<stop offset="0.529644" stop-color="#21409A"/>
<stop offset="0.580765" stop-color="#21409A"/>
<stop offset="0.778656" stop-color="#4DAAAB"/>
<stop offset="0.787808" stop-color="#4DAAAB"/>
<stop offset="0.996047" stop-color="#004563"/>
<stop offset="0.99606" stop-color="#004563"/>
<stop offset="1" stop-color="#004563"/>
</linearGradient>
<linearGradient id="paint15_linear" x1="207.079" y1="51.7347" x2="476.2" y2="50.5905" gradientUnits="userSpaceOnUse">
<stop stop-color="#80203B"/>
<stop offset="0.0348449" stop-color="#80203B"/>
<stop offset="0.225296" stop-color="#F57336"/>
<stop offset="0.258693" stop-color="#F57336"/>
<stop offset="0.529644" stop-color="#21409A"/>
<stop offset="0.580765" stop-color="#21409A"/>
<stop offset="0.778656" stop-color="#4DAAAB"/>
<stop offset="0.787808" stop-color="#4DAAAB"/>
<stop offset="0.996047" stop-color="#004563"/>
<stop offset="0.99606" stop-color="#004563"/>
<stop offset="1" stop-color="#004563"/>
</linearGradient>
<linearGradient id="paint16_linear" x1="265.005" y1="96.0257" x2="572.375" y2="93.4023" gradientUnits="userSpaceOnUse">
<stop stop-color="#80203B"/>
<stop offset="0.0348449" stop-color="#80203B"/>
<stop offset="0.225296" stop-color="#F57336"/>
<stop offset="0.258693" stop-color="#F57336"/>
<stop offset="0.529644" stop-color="#21409A"/>
<stop offset="0.580765" stop-color="#21409A"/>
<stop offset="0.778656" stop-color="#4DAAAB"/>
<stop offset="0.787808" stop-color="#4DAAAB"/>
<stop offset="0.996047" stop-color="#004563"/>
<stop offset="0.99606" stop-color="#004563"/>
<stop offset="1" stop-color="#004563"/>
</linearGradient>
<linearGradient id="paint17_linear" x1="416.694" y1="113.979" x2="255.518" y2="114.773" gradientUnits="userSpaceOnUse">
<stop stop-color="#80203B"/>
<stop offset="0.0348449" stop-color="#80203B"/>
<stop offset="0.225296" stop-color="#F57336"/>
<stop offset="0.258693" stop-color="#F57336"/>
<stop offset="0.529644" stop-color="#21409A"/>
<stop offset="0.580765" stop-color="#21409A"/>
<stop offset="0.778656" stop-color="#4DAAAB"/>
<stop offset="0.787808" stop-color="#4DAAAB"/>
<stop offset="0.996047" stop-color="#004563"/>
<stop offset="0.99606" stop-color="#004563"/>
<stop offset="1" stop-color="#004563"/>
</linearGradient>
<linearGradient id="paint18_linear" x1="718.906" y1="115.493" x2="-200.175" y2="110.971" gradientUnits="userSpaceOnUse">
<stop stop-color="#80203B"/>
<stop offset="0.0348449" stop-color="#80203B"/>
<stop offset="0.225296" stop-color="#F57336"/>
<stop offset="0.258693" stop-color="#F57336"/>
<stop offset="0.529644" stop-color="#21409A"/>
<stop offset="0.580765" stop-color="#21409A"/>
<stop offset="0.778656" stop-color="#4DAAAB"/>
<stop offset="0.787808" stop-color="#4DAAAB"/>
<stop offset="0.996047" stop-color="#004563"/>
<stop offset="0.99606" stop-color="#004563"/>
<stop offset="1" stop-color="#004563"/>
</linearGradient>
<linearGradient id="paint19_linear" x1="852.907" y1="81.4935" x2="-66.1744" y2="76.971" gradientUnits="userSpaceOnUse">
<stop stop-color="#80203B"/>
<stop offset="0.0348449" stop-color="#80203B"/>
<stop offset="0.225296" stop-color="#F57336"/>
<stop offset="0.258693" stop-color="#F57336"/>
<stop offset="0.529644" stop-color="#21409A"/>
<stop offset="0.580765" stop-color="#21409A"/>
<stop offset="0.778656" stop-color="#4DAAAB"/>
<stop offset="0.787808" stop-color="#4DAAAB"/>
<stop offset="0.996047" stop-color="#004563"/>
<stop offset="0.99606" stop-color="#004563"/>
<stop offset="1" stop-color="#004563"/>
</linearGradient>
</defs>
</svg>
