<svg width="551" height="250" viewBox="0 0 551 250" fill="none" xmlns="http://www.w3.org/2000/svg">
<g filter="url(#filter0_d)">
<path d="M440.523 163L423.185 131.361L386.509 131.361L365.413 97.2959L277.463 96.7449L277 95L366.348 95.5927L387.444 129.657L424.18 129.657L442 162.174L440.523 163Z" fill="url(#paint0_linear)"/>
<path d="M300 194L287.548 186.807L257.992 171.195L257.992 137.089L257.514 61.3985L256 61L256.515 137.894L256.515 172L286.071 187.664L299.283 195.271L300 194Z" fill="url(#paint1_linear)"/>
<path d="M45.331 161.6L62.7529 130.1H99.6044L120.801 96.1853H287.077V94.4895H119.862L98.665 128.404H61.7524L43.8472 160.777L45.331 161.6Z" fill="url(#paint2_linear)"/>
<path d="M94.4014 128.828C94.4014 131.441 96.5194 133.56 99.1342 133.56C101.749 133.56 103.867 131.441 103.867 128.828C103.867 126.215 101.749 124.095 99.1342 124.095C96.5194 124.095 94.4014 126.215 94.4014 128.828Z" fill="url(#paint3_linear)"/>
<path d="M46.5 190L56 173.999L46.5 158H27.5L18 173.999L27.5 190H46.5Z" fill="white"/>
<path d="M46.1583 189.352H28.3227L19.4031 173.905L28.3227 158.461H46.1583L55.0778 173.905L46.1583 189.352ZM27.3425 191.047H47.1384L57.0347 173.905L47.1384 156.765H27.3425L17.4462 173.905L27.3425 191.047Z" fill="url(#paint4_linear)"/>
<path d="M45.3313 29.4478L62.7532 60.9476H99.6047L120.801 94.8621L119.862 96.5578L98.6653 62.6433H61.7527L43.8475 30.2702L45.3313 29.4478Z" fill="url(#paint5_linear)"/>
<path d="M94.4014 62.2201C94.4014 59.6069 96.5194 57.4873 99.1342 57.4873C101.749 57.4873 103.867 59.6069 103.867 62.2201C103.867 64.8332 101.749 66.9528 99.1342 66.9528C96.5194 66.9528 94.4014 64.8332 94.4014 62.2201Z" fill="url(#paint6_linear)"/>
<path d="M46.5 1L56 17.0008L46.5 33H27.5L18 17.0008L27.5 1H46.5Z" fill="white"/>
<path d="M45.3313 29.4478L62.7532 60.9476H99.6047L120.801 94.8621L119.862 96.5578L98.6653 62.6433H61.7527L43.8475 30.2702L45.3313 29.4478Z" fill="url(#paint7_linear)"/>
<path d="M46.5 1L56 17.0008L46.5 33H27.5L18 17.0008L27.5 1H46.5Z" fill="white"/>
<path d="M46.1583 1.69573H28.3227L19.4031 17.1421L28.3227 32.5868H46.1583L55.0778 17.1421L46.1583 1.69573ZM27.3425 0H47.1384L57.0347 17.1421L47.1384 34.2825H27.3425L17.4462 17.1421L27.3425 0Z" fill="url(#paint8_linear)"/>
<path d="M174.311 195.561L156.889 164.061H120.038L98.8411 130.147L99.7806 128.451L120.977 162.366H157.89L175.795 194.739L174.311 195.561Z" fill="url(#paint9_linear)"/>
<path d="M173.25 224L164 207.999L173.25 192H191.75L201 207.999L191.75 224H173.25Z" fill="white"/>
<path d="M173.484 223.313H191.32L200.239 207.867L191.32 192.422H173.484L164.565 207.867L173.484 223.313ZM192.3 225.009H172.504L162.608 207.867L172.504 190.727H192.3L202.196 207.867L192.3 225.009Z" fill="url(#paint10_linear)"/>
<path d="M39.8438 15.6875H35.9062C35.7305 15.6875 35.625 15.8281 35.625 15.9688V16.5312C35.625 16.707 35.7305 16.8125 35.9062 16.8125H39.8438C39.9844 16.8125 40.125 16.707 40.125 16.5312V15.9688C40.125 15.8281 39.9844 15.6875 39.8438 15.6875ZM39.8438 19.0625H35.9062C35.7305 19.0625 35.625 19.2031 35.625 19.3438V19.9062C35.625 20.082 35.7305 20.1875 35.9062 20.1875H39.8438C39.9844 20.1875 40.125 20.082 40.125 19.9062V19.3438C40.125 19.2031 39.9844 19.0625 39.8438 19.0625ZM33.9375 15.4062C33.4453 15.4062 33.0938 15.793 33.0938 16.25C33.0938 16.7422 33.4453 17.0938 33.9375 17.0938C34.3945 17.0938 34.7812 16.7422 34.7812 16.25C34.7812 15.793 34.3945 15.4062 33.9375 15.4062ZM33.9375 18.7812C33.4453 18.7812 33.0938 19.168 33.0938 19.625C33.0938 20.1172 33.4453 20.4688 33.9375 20.4688C34.3945 20.4688 34.7812 20.1172 34.7812 19.625C34.7812 19.168 34.3945 18.7812 33.9375 18.7812ZM41.8125 9.5H38.6836C38.6836 9.42969 38.7188 9.32422 38.7188 9.21875C38.7188 8.16406 37.8047 7.25 36.75 7.25C35.6602 7.25 34.7812 8.16406 34.7812 9.21875C34.7812 9.32422 34.7812 9.42969 34.7812 9.5H31.6875C30.7383 9.5 30 10.2734 30 11.1875V23.5625C30 24.5117 30.7383 25.25 31.6875 25.25H41.8125C42.7266 25.25 43.5 24.5117 43.5 23.5625V11.1875C43.5 10.2734 42.7266 9.5 41.8125 9.5ZM36.75 8.375C37.207 8.375 37.5938 8.76172 37.5938 9.21875C37.5938 9.71094 37.207 10.0625 36.75 10.0625C36.2578 10.0625 35.9062 9.71094 35.9062 9.21875C35.9062 8.76172 36.2578 8.375 36.75 8.375ZM42.375 23.5625C42.375 23.8789 42.0938 24.125 41.8125 24.125H31.6875C31.3711 24.125 31.125 23.8789 31.125 23.5625V11.1875C31.125 10.9062 31.3711 10.625 31.6875 10.625H33.375V11.3281C33.375 11.5742 33.5508 11.75 33.7969 11.75H39.7031C39.9141 11.75 40.125 11.5742 40.125 11.3281V10.625H41.8125C42.0938 10.625 42.375 10.9062 42.375 11.1875V23.5625Z" fill="#3B7DA4"/>
<path d="M185.297 206.094H181.578C181.412 206.094 181.312 206.227 181.312 206.359V206.891C181.312 207.057 181.412 207.156 181.578 207.156H185.297C185.43 207.156 185.562 207.057 185.562 206.891V206.359C185.562 206.227 185.43 206.094 185.297 206.094ZM185.297 209.281H181.578C181.412 209.281 181.312 209.414 181.312 209.547V210.078C181.312 210.244 181.412 210.344 181.578 210.344H185.297C185.43 210.344 185.562 210.244 185.562 210.078V209.547C185.562 209.414 185.43 209.281 185.297 209.281ZM179.719 205.828C179.254 205.828 178.922 206.193 178.922 206.625C178.922 207.09 179.254 207.422 179.719 207.422C180.15 207.422 180.516 207.09 180.516 206.625C180.516 206.193 180.15 205.828 179.719 205.828ZM179.719 209.016C179.254 209.016 178.922 209.381 178.922 209.812C178.922 210.277 179.254 210.609 179.719 210.609C180.15 210.609 180.516 210.277 180.516 209.812C180.516 209.381 180.15 209.016 179.719 209.016ZM187.156 200.25H184.201C184.201 200.184 184.234 200.084 184.234 199.984C184.234 198.988 183.371 198.125 182.375 198.125C181.346 198.125 180.516 198.988 180.516 199.984C180.516 200.084 180.516 200.184 180.516 200.25H177.594C176.697 200.25 176 200.98 176 201.844V213.531C176 214.428 176.697 215.125 177.594 215.125H187.156C188.02 215.125 188.75 214.428 188.75 213.531V201.844C188.75 200.98 188.02 200.25 187.156 200.25ZM182.375 199.188C182.807 199.188 183.172 199.553 183.172 199.984C183.172 200.449 182.807 200.781 182.375 200.781C181.91 200.781 181.578 200.449 181.578 199.984C181.578 199.553 181.91 199.188 182.375 199.188ZM187.688 213.531C187.688 213.83 187.422 214.062 187.156 214.062H177.594C177.295 214.062 177.062 213.83 177.062 213.531V201.844C177.062 201.578 177.295 201.312 177.594 201.312H179.188V201.977C179.188 202.209 179.354 202.375 179.586 202.375H185.164C185.363 202.375 185.562 202.209 185.562 201.977V201.312H187.156C187.422 201.312 187.688 201.578 187.688 201.844V213.531Z" fill="#3B7DA4"/>
<path d="M39.8438 172.688H35.9062C35.7305 172.688 35.625 172.828 35.625 172.969V173.531C35.625 173.707 35.7305 173.812 35.9062 173.812H39.8438C39.9844 173.812 40.125 173.707 40.125 173.531V172.969C40.125 172.828 39.9844 172.688 39.8438 172.688ZM39.8438 176.062H35.9062C35.7305 176.062 35.625 176.203 35.625 176.344V176.906C35.625 177.082 35.7305 177.188 35.9062 177.188H39.8438C39.9844 177.188 40.125 177.082 40.125 176.906V176.344C40.125 176.203 39.9844 176.062 39.8438 176.062ZM33.9375 172.406C33.4453 172.406 33.0938 172.793 33.0938 173.25C33.0938 173.742 33.4453 174.094 33.9375 174.094C34.3945 174.094 34.7812 173.742 34.7812 173.25C34.7812 172.793 34.3945 172.406 33.9375 172.406ZM33.9375 175.781C33.4453 175.781 33.0938 176.168 33.0938 176.625C33.0938 177.117 33.4453 177.469 33.9375 177.469C34.3945 177.469 34.7812 177.117 34.7812 176.625C34.7812 176.168 34.3945 175.781 33.9375 175.781ZM41.8125 166.5H38.6836C38.6836 166.43 38.7188 166.324 38.7188 166.219C38.7188 165.164 37.8047 164.25 36.75 164.25C35.6602 164.25 34.7812 165.164 34.7812 166.219C34.7812 166.324 34.7812 166.43 34.7812 166.5H31.6875C30.7383 166.5 30 167.273 30 168.188V180.562C30 181.512 30.7383 182.25 31.6875 182.25H41.8125C42.7266 182.25 43.5 181.512 43.5 180.562V168.188C43.5 167.273 42.7266 166.5 41.8125 166.5ZM36.75 165.375C37.207 165.375 37.5938 165.762 37.5938 166.219C37.5938 166.711 37.207 167.062 36.75 167.062C36.2578 167.062 35.9062 166.711 35.9062 166.219C35.9062 165.762 36.2578 165.375 36.75 165.375ZM42.375 180.562C42.375 180.879 42.0938 181.125 41.8125 181.125H31.6875C31.3711 181.125 31.125 180.879 31.125 180.562V168.188C31.125 167.906 31.3711 167.625 31.6875 167.625H33.375V168.328C33.375 168.574 33.5508 168.75 33.7969 168.75H39.7031C39.9141 168.75 40.125 168.574 40.125 168.328V167.625H41.8125C42.0938 167.625 42.375 167.906 42.375 168.188V180.562Z" fill="#3B7DA4"/>
<path d="M153.984 239.04C153.584 239.04 153.219 238.96 152.888 238.8C152.563 238.635 152.283 238.419 152.048 238.152C151.813 237.88 151.632 237.571 151.504 237.224C151.376 236.877 151.312 236.523 151.312 236.16C151.312 235.781 151.379 235.419 151.512 235.072C151.651 234.725 151.84 234.419 152.08 234.152C152.32 233.885 152.603 233.675 152.928 233.52C153.259 233.36 153.616 233.28 154 233.28C154.4 233.28 154.763 233.365 155.088 233.536C155.413 233.701 155.693 233.92 155.928 234.192C156.163 234.464 156.344 234.773 156.472 235.12C156.6 235.461 156.664 235.811 156.664 236.168C156.664 236.547 156.595 236.909 156.456 237.256C156.323 237.603 156.136 237.909 155.896 238.176C155.661 238.437 155.379 238.648 155.048 238.808C154.723 238.963 154.368 239.04 153.984 239.04ZM152.04 236.16C152.04 236.448 152.085 236.728 152.176 237C152.272 237.267 152.405 237.504 152.576 237.712C152.747 237.92 152.952 238.085 153.192 238.208C153.432 238.331 153.699 238.392 153.992 238.392C154.296 238.392 154.568 238.328 154.808 238.2C155.048 238.067 155.251 237.896 155.416 237.688C155.587 237.475 155.715 237.235 155.8 236.968C155.891 236.701 155.936 236.432 155.936 236.16C155.936 235.872 155.888 235.595 155.792 235.328C155.701 235.056 155.568 234.819 155.392 234.616C155.221 234.408 155.016 234.243 154.776 234.12C154.541 233.997 154.28 233.936 153.992 233.936C153.688 233.936 153.416 234 153.176 234.128C152.936 234.256 152.731 234.424 152.56 234.632C152.395 234.84 152.267 235.077 152.176 235.344C152.085 235.611 152.04 235.883 152.04 236.16ZM159.264 239V233.32H161.696C161.947 233.32 162.176 233.373 162.384 233.48C162.598 233.581 162.779 233.72 162.928 233.896C163.083 234.067 163.203 234.261 163.288 234.48C163.374 234.693 163.416 234.912 163.416 235.136C163.416 235.333 163.387 235.525 163.328 235.712C163.275 235.893 163.195 236.059 163.088 236.208C162.987 236.357 162.862 236.485 162.712 236.592C162.568 236.699 162.406 236.776 162.224 236.824L163.6 239H162.784L161.488 236.96H159.984V239H159.264ZM159.984 236.32H161.704C161.854 236.32 161.987 236.288 162.104 236.224C162.227 236.16 162.331 236.075 162.416 235.968C162.502 235.856 162.568 235.728 162.616 235.584C162.664 235.44 162.688 235.291 162.688 235.136C162.688 234.976 162.659 234.827 162.6 234.688C162.547 234.544 162.472 234.419 162.376 234.312C162.286 234.2 162.176 234.115 162.048 234.056C161.926 233.992 161.795 233.96 161.656 233.96H159.984V236.32ZM166.122 239V233.32H168.09C168.544 233.32 168.941 233.395 169.282 233.544C169.629 233.693 169.917 233.896 170.146 234.152C170.376 234.408 170.546 234.709 170.658 235.056C170.776 235.397 170.834 235.763 170.834 236.152C170.834 236.584 170.77 236.976 170.642 237.328C170.514 237.675 170.33 237.973 170.09 238.224C169.85 238.469 169.56 238.661 169.218 238.8C168.882 238.933 168.506 239 168.09 239H166.122ZM170.106 236.152C170.106 235.832 170.061 235.539 169.97 235.272C169.885 235 169.754 234.768 169.578 234.576C169.408 234.384 169.197 234.235 168.946 234.128C168.696 234.016 168.41 233.96 168.09 233.96H166.842V238.36H168.09C168.416 238.36 168.704 238.304 168.954 238.192C169.21 238.08 169.421 237.925 169.586 237.728C169.757 237.531 169.885 237.299 169.97 237.032C170.061 236.76 170.106 236.467 170.106 236.152ZM177.305 238.36V239H173.449V233.32H177.233V233.96H174.169V235.8H176.833V236.4H174.169V238.36H177.305ZM179.892 239V233.32H182.324C182.575 233.32 182.804 233.373 183.012 233.48C183.226 233.581 183.407 233.72 183.556 233.896C183.711 234.067 183.831 234.261 183.916 234.48C184.002 234.693 184.044 234.912 184.044 235.136C184.044 235.333 184.015 235.525 183.957 235.712C183.903 235.893 183.823 236.059 183.716 236.208C183.615 236.357 183.49 236.485 183.34 236.592C183.196 236.699 183.034 236.776 182.852 236.824L184.228 239H183.412L182.116 236.96H180.612V239H179.892ZM180.612 236.32H182.332C182.482 236.32 182.615 236.288 182.732 236.224C182.855 236.16 182.959 236.075 183.044 235.968C183.13 235.856 183.196 235.728 183.244 235.584C183.292 235.44 183.316 235.291 183.316 235.136C183.316 234.976 183.287 234.827 183.228 234.688C183.175 234.544 183.1 234.419 183.004 234.312C182.914 234.2 182.804 234.115 182.676 234.056C182.554 233.992 182.423 233.96 182.284 233.96H180.612V236.32Z" fill="black"/>
<path d="M6.984 205.04C6.584 205.04 6.21867 204.96 5.888 204.8C5.56267 204.635 5.28267 204.419 5.048 204.152C4.81333 203.88 4.632 203.571 4.504 203.224C4.376 202.877 4.312 202.523 4.312 202.16C4.312 201.781 4.37867 201.419 4.512 201.072C4.65067 200.725 4.84 200.419 5.08 200.152C5.32 199.885 5.60267 199.675 5.928 199.52C6.25867 199.36 6.616 199.28 7 199.28C7.4 199.28 7.76267 199.365 8.088 199.536C8.41333 199.701 8.69333 199.92 8.928 200.192C9.16267 200.464 9.344 200.773 9.472 201.12C9.6 201.461 9.664 201.811 9.664 202.168C9.664 202.547 9.59467 202.909 9.456 203.256C9.32267 203.603 9.136 203.909 8.896 204.176C8.66133 204.437 8.37867 204.648 8.048 204.808C7.72267 204.963 7.368 205.04 6.984 205.04ZM5.04 202.16C5.04 202.448 5.08533 202.728 5.176 203C5.272 203.267 5.40533 203.504 5.576 203.712C5.74667 203.92 5.952 204.085 6.192 204.208C6.432 204.331 6.69867 204.392 6.992 204.392C7.296 204.392 7.568 204.328 7.808 204.2C8.048 204.067 8.25067 203.896 8.416 203.688C8.58667 203.475 8.71467 203.235 8.8 202.968C8.89067 202.701 8.936 202.432 8.936 202.16C8.936 201.872 8.888 201.595 8.792 201.328C8.70133 201.056 8.568 200.819 8.392 200.616C8.22133 200.408 8.016 200.243 7.776 200.12C7.54133 199.997 7.28 199.936 6.992 199.936C6.688 199.936 6.416 200 6.176 200.128C5.936 200.256 5.73067 200.424 5.56 200.632C5.39467 200.84 5.26667 201.077 5.176 201.344C5.08533 201.611 5.04 201.883 5.04 202.16ZM12.2644 205V199.32H14.6964C14.947 199.32 15.1764 199.373 15.3844 199.48C15.5977 199.581 15.779 199.72 15.9284 199.896C16.083 200.067 16.203 200.261 16.2884 200.48C16.3737 200.693 16.4164 200.912 16.4164 201.136C16.4164 201.333 16.387 201.525 16.3284 201.712C16.275 201.893 16.195 202.059 16.0884 202.208C15.987 202.357 15.8617 202.485 15.7124 202.592C15.5684 202.699 15.4057 202.776 15.2244 202.824L16.6004 205H15.7844L14.4884 202.96H12.9844V205H12.2644ZM12.9844 202.32H14.7044C14.8537 202.32 14.987 202.288 15.1044 202.224C15.227 202.16 15.331 202.075 15.4164 201.968C15.5017 201.856 15.5684 201.728 15.6164 201.584C15.6644 201.44 15.6884 201.291 15.6884 201.136C15.6884 200.976 15.659 200.827 15.6004 200.688C15.547 200.544 15.4724 200.419 15.3764 200.312C15.2857 200.2 15.1764 200.115 15.0484 200.056C14.9257 199.992 14.795 199.96 14.6564 199.96H12.9844V202.32ZM19.1222 205V199.32H21.0902C21.5435 199.32 21.9409 199.395 22.2822 199.544C22.6289 199.693 22.9169 199.896 23.1462 200.152C23.3755 200.408 23.5462 200.709 23.6582 201.056C23.7755 201.397 23.8342 201.763 23.8342 202.152C23.8342 202.584 23.7702 202.976 23.6422 203.328C23.5142 203.675 23.3302 203.973 23.0902 204.224C22.8502 204.469 22.5595 204.661 22.2182 204.8C21.8822 204.933 21.5062 205 21.0902 205H19.1222ZM23.1062 202.152C23.1062 201.832 23.0609 201.539 22.9702 201.272C22.8849 201 22.7542 200.768 22.5782 200.576C22.4075 200.384 22.1969 200.235 21.9462 200.128C21.6955 200.016 21.4102 199.96 21.0902 199.96H19.8422V204.36H21.0902C21.4155 204.36 21.7035 204.304 21.9542 204.192C22.2102 204.08 22.4209 203.925 22.5862 203.728C22.7569 203.531 22.8849 203.299 22.9702 203.032C23.0609 202.76 23.1062 202.467 23.1062 202.152ZM30.3047 204.36V205H26.4487V199.32H30.2327V199.96H27.1687V201.8H29.8327V202.4H27.1687V204.36H30.3047ZM32.8925 205V199.32H35.3245C35.5752 199.32 35.8045 199.373 36.0125 199.48C36.2258 199.581 36.4072 199.72 36.5565 199.896C36.7112 200.067 36.8312 200.261 36.9165 200.48C37.0018 200.693 37.0445 200.912 37.0445 201.136C37.0445 201.333 37.0152 201.525 36.9565 201.712C36.9032 201.893 36.8232 202.059 36.7165 202.208C36.6152 202.357 36.4898 202.485 36.3405 202.592C36.1965 202.699 36.0338 202.776 35.8525 202.824L37.2285 205H36.4125L35.1165 202.96H33.6125V205H32.8925ZM33.6125 202.32H35.3325C35.4818 202.32 35.6152 202.288 35.7325 202.224C35.8552 202.16 35.9592 202.075 36.0445 201.968C36.1298 201.856 36.1965 201.728 36.2445 201.584C36.2925 201.44 36.3165 201.291 36.3165 201.136C36.3165 200.976 36.2872 200.827 36.2285 200.688C36.1752 200.544 36.1005 200.419 36.0045 200.312C35.9138 200.2 35.8045 200.115 35.6765 200.056C35.5538 199.992 35.4232 199.96 35.2845 199.96H33.6125V202.32Z" fill="black"/>
<path d="M6.984 49.04C6.584 49.04 6.21867 48.96 5.888 48.8C5.56267 48.6347 5.28267 48.4187 5.048 48.152C4.81333 47.88 4.632 47.5707 4.504 47.224C4.376 46.8773 4.312 46.5227 4.312 46.16C4.312 45.7813 4.37867 45.4187 4.512 45.072C4.65067 44.7253 4.84 44.4187 5.08 44.152C5.32 43.8853 5.60267 43.6747 5.928 43.52C6.25867 43.36 6.616 43.28 7 43.28C7.4 43.28 7.76267 43.3653 8.088 43.536C8.41333 43.7013 8.69333 43.92 8.928 44.192C9.16267 44.464 9.344 44.7733 9.472 45.12C9.6 45.4613 9.664 45.8107 9.664 46.168C9.664 46.5467 9.59467 46.9093 9.456 47.256C9.32267 47.6027 9.136 47.9093 8.896 48.176C8.66133 48.4373 8.37867 48.648 8.048 48.808C7.72267 48.9627 7.368 49.04 6.984 49.04ZM5.04 46.16C5.04 46.448 5.08533 46.728 5.176 47C5.272 47.2667 5.40533 47.504 5.576 47.712C5.74667 47.92 5.952 48.0853 6.192 48.208C6.432 48.3307 6.69867 48.392 6.992 48.392C7.296 48.392 7.568 48.328 7.808 48.2C8.048 48.0667 8.25067 47.896 8.416 47.688C8.58667 47.4747 8.71467 47.2347 8.8 46.968C8.89067 46.7013 8.936 46.432 8.936 46.16C8.936 45.872 8.888 45.5947 8.792 45.328C8.70133 45.056 8.568 44.8187 8.392 44.616C8.22133 44.408 8.016 44.2427 7.776 44.12C7.54133 43.9973 7.28 43.936 6.992 43.936C6.688 43.936 6.416 44 6.176 44.128C5.936 44.256 5.73067 44.424 5.56 44.632C5.39467 44.84 5.26667 45.0773 5.176 45.344C5.08533 45.6107 5.04 45.8827 5.04 46.16ZM12.2644 49V43.32H14.6964C14.947 43.32 15.1764 43.3733 15.3844 43.48C15.5977 43.5813 15.779 43.72 15.9284 43.896C16.083 44.0667 16.203 44.2613 16.2884 44.48C16.3737 44.6933 16.4164 44.912 16.4164 45.136C16.4164 45.3333 16.387 45.5253 16.3284 45.712C16.275 45.8933 16.195 46.0587 16.0884 46.208C15.987 46.3573 15.8617 46.4853 15.7124 46.592C15.5684 46.6987 15.4057 46.776 15.2244 46.824L16.6004 49H15.7844L14.4884 46.96H12.9844V49H12.2644ZM12.9844 46.32H14.7044C14.8537 46.32 14.987 46.288 15.1044 46.224C15.227 46.16 15.331 46.0747 15.4164 45.968C15.5017 45.856 15.5684 45.728 15.6164 45.584C15.6644 45.44 15.6884 45.2907 15.6884 45.136C15.6884 44.976 15.659 44.8267 15.6004 44.688C15.547 44.544 15.4724 44.4187 15.3764 44.312C15.2857 44.2 15.1764 44.1147 15.0484 44.056C14.9257 43.992 14.795 43.96 14.6564 43.96H12.9844V46.32ZM19.1222 49V43.32H21.0902C21.5435 43.32 21.9409 43.3947 22.2822 43.544C22.6289 43.6933 22.9169 43.896 23.1462 44.152C23.3755 44.408 23.5462 44.7093 23.6582 45.056C23.7755 45.3973 23.8342 45.7627 23.8342 46.152C23.8342 46.584 23.7702 46.976 23.6422 47.328C23.5142 47.6747 23.3302 47.9733 23.0902 48.224C22.8502 48.4693 22.5595 48.6613 22.2182 48.8C21.8822 48.9333 21.5062 49 21.0902 49H19.1222ZM23.1062 46.152C23.1062 45.832 23.0609 45.5387 22.9702 45.272C22.8849 45 22.7542 44.768 22.5782 44.576C22.4075 44.384 22.1969 44.2347 21.9462 44.128C21.6955 44.016 21.4102 43.96 21.0902 43.96H19.8422V48.36H21.0902C21.4155 48.36 21.7035 48.304 21.9542 48.192C22.2102 48.08 22.4209 47.9253 22.5862 47.728C22.7569 47.5307 22.8849 47.2987 22.9702 47.032C23.0609 46.76 23.1062 46.4667 23.1062 46.152ZM30.3047 48.36V49H26.4487V43.32H30.2327V43.96H27.1687V45.8H29.8327V46.4H27.1687V48.36H30.3047ZM32.8925 49V43.32H35.3245C35.5752 43.32 35.8045 43.3733 36.0125 43.48C36.2258 43.5813 36.4072 43.72 36.5565 43.896C36.7112 44.0667 36.8312 44.2613 36.9165 44.48C37.0018 44.6933 37.0445 44.912 37.0445 45.136C37.0445 45.3333 37.0152 45.5253 36.9565 45.712C36.9032 45.8933 36.8232 46.0587 36.7165 46.208C36.6152 46.3573 36.4898 46.4853 36.3405 46.592C36.1965 46.6987 36.0338 46.776 35.8525 46.824L37.2285 49H36.4125L35.1165 46.96H33.6125V49H32.8925ZM33.6125 46.32H35.3325C35.4818 46.32 35.6152 46.288 35.7325 46.224C35.8552 46.16 35.9592 46.0747 36.0445 45.968C36.1298 45.856 36.1965 45.728 36.2445 45.584C36.2925 45.44 36.3165 45.2907 36.3165 45.136C36.3165 44.976 36.2872 44.8267 36.2285 44.688C36.1752 44.544 36.1005 44.4187 36.0045 44.312C35.9138 44.2 35.8045 44.1147 35.6765 44.056C35.5538 43.992 35.4232 43.96 35.2845 43.96H33.6125V46.32Z" fill="black"/>
<path d="M279.25 136L302 96.0007L279.25 56H233.75L211 96.0007L233.75 136H279.25Z" fill="white"/>
<path d="M279.059 133.505H235.219L213.299 95.5392L235.219 57.5723H279.059L300.979 95.5392L279.059 133.505ZM233.711 136.118H280.567L303.996 95.5392L280.567 54.959H233.711L210.282 95.5392L233.711 136.118Z" fill="url(#paint11_linear)"/>
<path d="M391.088 127.828C391.088 130.441 388.97 132.561 386.355 132.561C383.74 132.561 381.622 130.441 381.622 127.828C381.622 125.215 383.74 123.095 386.355 123.095C388.97 123.095 391.088 125.215 391.088 127.828Z" fill="url(#paint12_linear)"/>
<path d="M262.466 172.733C262.466 175.346 260.348 177.466 257.733 177.466C255.118 177.466 253 175.346 253 172.733C253 170.12 255.118 168 257.733 168C260.348 168 262.466 170.12 262.466 172.733Z" fill="#274F9D"/>
<path d="M440.25 191L431 174.999L440.25 159L458.75 159L468 174.999L458.75 191L440.25 191Z" fill="white"/>
<path d="M440.331 190.352L458.167 190.352L467.086 174.905L458.167 159.461L440.331 159.461L431.411 174.905L440.331 190.352ZM459.147 192.047L439.351 192.047L429.455 174.905L439.351 157.765L459.147 157.765L469.043 174.905L459.147 192.047Z" fill="url(#paint13_linear)"/>
<path d="M441.158 30.448L423.736 61.9478L386.885 61.9478L365.688 95.8623L366.628 97.5581L387.824 63.6435L424.737 63.6435L442.642 31.2704L441.158 30.448Z" fill="url(#paint14_linear)"/>
<path d="M392.088 63.2201C392.088 60.6069 389.97 58.4873 387.355 58.4873C384.74 58.4873 382.622 60.6069 382.622 63.2201C382.622 65.8332 384.74 67.9528 387.355 67.9528C389.97 67.9528 392.088 65.8332 392.088 63.2201Z" fill="url(#paint15_linear)"/>
<path d="M440.25 2L431 18.0008L440.25 34L458.75 34L468 18.0008L458.75 2L440.25 2Z" fill="white"/>
<path d="M441.158 30.448L423.736 61.9478L386.885 61.9478L365.688 95.8623L366.628 97.5581L387.824 63.6435L424.737 63.6435L442.642 31.2704L441.158 30.448Z" fill="url(#paint16_linear)"/>
<path d="M440.25 2L431 18.0008L440.25 34L458.75 34L468 18.0008L458.75 2L440.25 2Z" fill="white"/>
<path d="M440.331 2.69573L458.167 2.69573L467.086 18.1421L458.167 33.5868L440.331 33.5868L431.411 18.1421L440.331 2.69573ZM459.147 1L439.351 1L429.455 18.1421L439.351 35.2825L459.147 35.2825L469.043 18.1421L459.147 1Z" fill="url(#paint17_linear)"/>
<path d="M454.414 21.875C454.613 21.875 454.812 21.709 454.812 21.4766V20.1484C454.812 19.9492 454.613 19.75 454.414 19.75H453.086C452.854 19.75 452.688 19.9492 452.688 20.1484V21.4766C452.688 21.709 452.854 21.875 453.086 21.875H454.414ZM450.562 21.4766V20.1484C450.562 19.9492 450.363 19.75 450.164 19.75H448.836C448.604 19.75 448.438 19.9492 448.438 20.1484V21.4766C448.438 21.709 448.604 21.875 448.836 21.875H450.164C450.363 21.875 450.562 21.709 450.562 21.4766ZM446.312 21.4766V20.1484C446.312 19.9492 446.113 19.75 445.914 19.75H444.586C444.354 19.75 444.188 19.9492 444.188 20.1484V21.4766C444.188 21.709 444.354 21.875 444.586 21.875H445.914C446.113 21.875 446.312 21.709 446.312 21.4766ZM458 15.2344C458 14.6367 457.369 14.2715 456.838 14.5371L451.625 17.1602V15.2344C451.625 14.6367 450.994 14.2715 450.463 14.5371L445.25 17.1602V10.9844C445.25 10.5527 444.885 10.1875 444.453 10.1875H441.797C441.332 10.1875 441 10.5527 441 10.9844V24.2656C441 24.7305 441.332 25.0625 441.797 25.0625H457.203C457.635 25.0625 458 24.7305 458 24.2656V15.2344ZM444.188 18.4219C444.188 18.6211 444.387 18.7539 444.553 18.6875L450.562 15.666V18.4219C450.562 18.6211 450.762 18.7539 450.928 18.6875L456.938 15.666V24H442.062V11.25H444.188V18.4219Z" fill="#3B7DA4"/>
<path d="M455.592 49V44.608L453.704 47.976H453.296L451.4 44.608V49H450.68V43.32H451.44L453.496 47.008L455.56 43.32H456.312V49H455.592ZM461 43.32H461.608L463.928 49H463.16L462.488 47.336H460.104L459.44 49H458.672L461 43.32ZM462.328 46.776L461.304 44.152L460.248 46.776H462.328ZM467.006 44.664V49H466.286V43.32H466.846L470.366 47.744V43.328H471.086V49H470.478L467.006 44.664ZM476.378 48.392C476.709 48.392 476.984 48.328 477.202 48.2C477.421 48.072 477.594 47.9067 477.722 47.704C477.856 47.496 477.949 47.2613 478.002 47C478.056 46.7333 478.082 46.464 478.082 46.192V43.32H478.802V46.192C478.802 46.576 478.757 46.9413 478.666 47.288C478.581 47.6293 478.442 47.9307 478.25 48.192C478.058 48.4533 477.808 48.6613 477.498 48.816C477.194 48.9653 476.824 49.04 476.386 49.04C475.933 49.04 475.552 48.96 475.242 48.8C474.933 48.64 474.682 48.4293 474.49 48.168C474.304 47.9013 474.168 47.5973 474.082 47.256C474.002 46.9093 473.962 46.5547 473.962 46.192V43.32H474.682V46.192C474.682 46.4747 474.709 46.7493 474.762 47.016C474.821 47.2773 474.914 47.5093 475.042 47.712C475.176 47.9147 475.349 48.08 475.562 48.208C475.781 48.3307 476.053 48.392 476.378 48.392ZM481.682 49V43.32H485.434V43.96H482.402V45.856H484.954V46.456H482.402V49H481.682ZM489.236 43.32H489.844L492.164 49H491.396L490.724 47.336H488.34L487.676 49H486.908L489.236 43.32ZM490.564 46.776L489.54 44.152L488.484 46.776H490.564ZM493.943 46.12C493.943 45.7787 494.002 45.44 494.119 45.104C494.242 44.7627 494.418 44.4587 494.647 44.192C494.882 43.92 495.167 43.7013 495.503 43.536C495.839 43.3707 496.221 43.288 496.647 43.288C497.154 43.288 497.589 43.4027 497.951 43.632C498.314 43.8613 498.583 44.16 498.759 44.528L498.191 44.896C498.106 44.7147 498.002 44.5627 497.879 44.44C497.762 44.3173 497.631 44.2187 497.487 44.144C497.349 44.0693 497.205 44.016 497.055 43.984C496.906 43.952 496.759 43.936 496.615 43.936C496.301 43.936 496.021 44.0027 495.775 44.136C495.535 44.264 495.333 44.4347 495.167 44.648C495.002 44.856 494.877 45.0933 494.791 45.36C494.711 45.6213 494.671 45.8853 494.671 46.152C494.671 46.4507 494.719 46.736 494.815 47.008C494.917 47.2747 495.055 47.512 495.231 47.72C495.407 47.928 495.615 48.0933 495.855 48.216C496.095 48.3387 496.357 48.4 496.639 48.4C496.789 48.4 496.941 48.3813 497.095 48.344C497.255 48.3067 497.407 48.248 497.551 48.168C497.695 48.0827 497.829 47.9787 497.951 47.856C498.079 47.728 498.183 47.576 498.263 47.4L498.863 47.728C498.773 47.9413 498.645 48.1307 498.479 48.296C498.319 48.456 498.135 48.592 497.927 48.704C497.725 48.816 497.509 48.9013 497.279 48.96C497.05 49.0187 496.826 49.048 496.607 49.048C496.218 49.048 495.861 48.9627 495.535 48.792C495.21 48.6213 494.927 48.4 494.687 48.128C494.453 47.8507 494.269 47.5387 494.135 47.192C494.007 46.84 493.943 46.4827 493.943 46.12ZM505.46 43.96H503.5V49H502.78V43.96H500.82V43.32H505.46V43.96ZM510.214 48.392C510.545 48.392 510.82 48.328 511.038 48.2C511.257 48.072 511.43 47.9067 511.558 47.704C511.692 47.496 511.785 47.2613 511.838 47C511.892 46.7333 511.918 46.464 511.918 46.192V43.32H512.638V46.192C512.638 46.576 512.593 46.9413 512.502 47.288C512.417 47.6293 512.278 47.9307 512.086 48.192C511.894 48.4533 511.644 48.6613 511.334 48.816C511.03 48.9653 510.66 49.04 510.222 49.04C509.769 49.04 509.388 48.96 509.078 48.8C508.769 48.64 508.518 48.4293 508.326 48.168C508.14 47.9013 508.004 47.5973 507.918 47.256C507.838 46.9093 507.798 46.5547 507.798 46.192V43.32H508.518V46.192C508.518 46.4747 508.545 46.7493 508.598 47.016C508.657 47.2773 508.75 47.5093 508.878 47.712C509.012 47.9147 509.185 48.08 509.398 48.208C509.617 48.3307 509.889 48.392 510.214 48.392ZM515.518 49V43.32H517.95C518.2 43.32 518.43 43.3733 518.638 43.48C518.851 43.5813 519.032 43.72 519.182 43.896C519.336 44.0667 519.456 44.2613 519.542 44.48C519.627 44.6933 519.67 44.912 519.67 45.136C519.67 45.3333 519.64 45.5253 519.582 45.712C519.528 45.8933 519.448 46.0587 519.342 46.208C519.24 46.3573 519.115 46.4853 518.966 46.592C518.822 46.6987 518.659 46.776 518.478 46.824L519.854 49H519.038L517.742 46.96H516.238V49H515.518ZM516.238 46.32H517.958C518.107 46.32 518.24 46.288 518.358 46.224C518.48 46.16 518.584 46.0747 518.67 45.968C518.755 45.856 518.822 45.728 518.87 45.584C518.918 45.44 518.942 45.2907 518.942 45.136C518.942 44.976 518.912 44.8267 518.854 44.688C518.8 44.544 518.726 44.4187 518.63 44.312C518.539 44.2 518.43 44.1147 518.302 44.056C518.179 43.992 518.048 43.96 517.91 43.96H516.238V46.32ZM522.375 49V43.32H523.095V49H522.375ZM526.773 44.664V49H526.053V43.32H526.613L530.133 47.744V43.328H530.853V49H530.245L526.773 44.664ZM537.818 48.232C537.316 48.7707 536.74 49.04 536.09 49.04C535.711 49.04 535.359 48.9573 535.034 48.792C534.714 48.6267 534.436 48.4107 534.202 48.144C533.967 47.872 533.78 47.5627 533.642 47.216C533.508 46.8693 533.442 46.512 533.442 46.144C533.442 45.76 533.508 45.3973 533.642 45.056C533.775 44.7093 533.959 44.4053 534.194 44.144C534.428 43.8773 534.708 43.6667 535.034 43.512C535.359 43.3573 535.711 43.28 536.09 43.28C536.639 43.28 537.09 43.3947 537.442 43.624C537.799 43.8533 538.071 44.152 538.258 44.52L537.706 44.904C537.535 44.5733 537.308 44.328 537.026 44.168C536.743 44.008 536.426 43.928 536.074 43.928C535.786 43.928 535.524 43.992 535.29 44.12C535.055 44.2427 534.855 44.408 534.69 44.616C534.524 44.8187 534.396 45.056 534.306 45.328C534.215 45.5947 534.17 45.872 534.17 46.16C534.17 46.464 534.22 46.752 534.322 47.024C534.423 47.2907 534.562 47.528 534.738 47.736C534.914 47.9387 535.122 48.0987 535.362 48.216C535.602 48.3333 535.863 48.392 536.146 48.392C536.764 48.392 537.322 48.0933 537.818 47.496V46.712H536.594V46.168H538.426V49H537.818V48.232ZM452.984 58.04C452.584 58.04 452.219 57.96 451.888 57.8C451.563 57.6347 451.283 57.4187 451.048 57.152C450.813 56.88 450.632 56.5707 450.504 56.224C450.376 55.8773 450.312 55.5227 450.312 55.16C450.312 54.7813 450.379 54.4187 450.512 54.072C450.651 53.7253 450.84 53.4187 451.08 53.152C451.32 52.8853 451.603 52.6747 451.928 52.52C452.259 52.36 452.616 52.28 453 52.28C453.4 52.28 453.763 52.3653 454.088 52.536C454.413 52.7013 454.693 52.92 454.928 53.192C455.163 53.464 455.344 53.7733 455.472 54.12C455.6 54.4613 455.664 54.8107 455.664 55.168C455.664 55.5467 455.595 55.9093 455.456 56.256C455.323 56.6027 455.136 56.9093 454.896 57.176C454.661 57.4373 454.379 57.648 454.048 57.808C453.723 57.9627 453.368 58.04 452.984 58.04ZM451.04 55.16C451.04 55.448 451.085 55.728 451.176 56C451.272 56.2667 451.405 56.504 451.576 56.712C451.747 56.92 451.952 57.0853 452.192 57.208C452.432 57.3307 452.699 57.392 452.992 57.392C453.296 57.392 453.568 57.328 453.808 57.2C454.048 57.0667 454.251 56.896 454.416 56.688C454.587 56.4747 454.715 56.2347 454.8 55.968C454.891 55.7013 454.936 55.432 454.936 55.16C454.936 54.872 454.888 54.5947 454.792 54.328C454.701 54.056 454.568 53.8187 454.392 53.616C454.221 53.408 454.016 53.2427 453.776 53.12C453.541 52.9973 453.28 52.936 452.992 52.936C452.688 52.936 452.416 53 452.176 53.128C451.936 53.256 451.731 53.424 451.56 53.632C451.395 53.84 451.267 54.0773 451.176 54.344C451.085 54.6107 451.04 54.8827 451.04 55.16ZM458.264 58V52.32H460.696C460.947 52.32 461.176 52.3733 461.384 52.48C461.598 52.5813 461.779 52.72 461.928 52.896C462.083 53.0667 462.203 53.2613 462.288 53.48C462.374 53.6933 462.416 53.912 462.416 54.136C462.416 54.3333 462.387 54.5253 462.328 54.712C462.275 54.8933 462.195 55.0587 462.088 55.208C461.987 55.3573 461.862 55.4853 461.712 55.592C461.568 55.6987 461.406 55.776 461.224 55.824L462.6 58H461.784L460.488 55.96H458.984V58H458.264ZM458.984 55.32H460.704C460.854 55.32 460.987 55.288 461.104 55.224C461.227 55.16 461.331 55.0747 461.416 54.968C461.502 54.856 461.568 54.728 461.616 54.584C461.664 54.44 461.688 54.2907 461.688 54.136C461.688 53.976 461.659 53.8267 461.6 53.688C461.547 53.544 461.472 53.4187 461.376 53.312C461.286 53.2 461.176 53.1147 461.048 53.056C460.926 52.992 460.795 52.96 460.656 52.96H458.984V55.32ZM465.122 58V52.32H467.09C467.544 52.32 467.941 52.3947 468.282 52.544C468.629 52.6933 468.917 52.896 469.146 53.152C469.376 53.408 469.546 53.7093 469.658 54.056C469.776 54.3973 469.834 54.7627 469.834 55.152C469.834 55.584 469.77 55.976 469.642 56.328C469.514 56.6747 469.33 56.9733 469.09 57.224C468.85 57.4693 468.56 57.6613 468.218 57.8C467.882 57.9333 467.506 58 467.09 58H465.122ZM469.106 55.152C469.106 54.832 469.061 54.5387 468.97 54.272C468.885 54 468.754 53.768 468.578 53.576C468.408 53.384 468.197 53.2347 467.946 53.128C467.696 53.016 467.41 52.96 467.09 52.96H465.842V57.36H467.09C467.416 57.36 467.704 57.304 467.954 57.192C468.21 57.08 468.421 56.9253 468.586 56.728C468.757 56.5307 468.885 56.2987 468.97 56.032C469.061 55.76 469.106 55.4667 469.106 55.152ZM476.305 57.36V58H472.449V52.32H476.233V52.96H473.169V54.8H475.833V55.4H473.169V57.36H476.305ZM478.892 58V52.32H481.324C481.575 52.32 481.804 52.3733 482.012 52.48C482.226 52.5813 482.407 52.72 482.556 52.896C482.711 53.0667 482.831 53.2613 482.916 53.48C483.002 53.6933 483.044 53.912 483.044 54.136C483.044 54.3333 483.015 54.5253 482.957 54.712C482.903 54.8933 482.823 55.0587 482.716 55.208C482.615 55.3573 482.49 55.4853 482.34 55.592C482.196 55.6987 482.034 55.776 481.852 55.824L483.228 58H482.412L481.116 55.96H479.612V58H478.892ZM479.612 55.32H481.332C481.482 55.32 481.615 55.288 481.732 55.224C481.855 55.16 481.959 55.0747 482.044 54.968C482.13 54.856 482.196 54.728 482.244 54.584C482.292 54.44 482.316 54.2907 482.316 54.136C482.316 53.976 482.287 53.8267 482.228 53.688C482.175 53.544 482.1 53.4187 482.004 53.312C481.914 53.2 481.804 53.1147 481.676 53.056C481.554 52.992 481.423 52.96 481.284 52.96H479.612V55.32ZM489.086 53.512C489.022 53.4373 488.937 53.3653 488.83 53.296C488.724 53.2267 488.604 53.1653 488.47 53.112C488.337 53.0533 488.19 53.008 488.03 52.976C487.876 52.9387 487.713 52.92 487.542 52.92C487.1 52.92 486.774 53.0027 486.566 53.168C486.364 53.3333 486.262 53.56 486.262 53.848C486.262 54.0027 486.292 54.1307 486.35 54.232C486.409 54.3333 486.5 54.4213 486.622 54.496C486.75 54.5653 486.908 54.6267 487.094 54.68C487.281 54.7333 487.502 54.7893 487.758 54.848C488.052 54.912 488.316 54.9867 488.55 55.072C488.79 55.152 488.993 55.2533 489.158 55.376C489.329 55.4987 489.457 55.648 489.542 55.824C489.633 56 489.678 56.216 489.678 56.472C489.678 56.744 489.625 56.9813 489.518 57.184C489.412 57.3813 489.265 57.5467 489.078 57.68C488.897 57.808 488.681 57.904 488.43 57.968C488.18 58.0267 487.908 58.056 487.614 58.056C487.177 58.056 486.761 57.9893 486.366 57.856C485.977 57.7173 485.622 57.5173 485.302 57.256L485.646 56.648C485.732 56.7387 485.841 56.8293 485.974 56.92C486.113 57.0107 486.268 57.0933 486.438 57.168C486.614 57.2373 486.801 57.296 486.998 57.344C487.201 57.3867 487.412 57.408 487.63 57.408C488.036 57.408 488.35 57.336 488.574 57.192C488.798 57.048 488.91 56.832 488.91 56.544C488.91 56.384 488.873 56.2507 488.798 56.144C488.729 56.032 488.625 55.936 488.486 55.856C488.348 55.776 488.174 55.7067 487.966 55.648C487.764 55.584 487.532 55.52 487.27 55.456C486.982 55.3867 486.729 55.312 486.51 55.232C486.292 55.152 486.108 55.056 485.958 54.944C485.814 54.832 485.705 54.696 485.63 54.536C485.556 54.376 485.518 54.184 485.518 53.96C485.518 53.688 485.569 53.448 485.67 53.24C485.772 53.032 485.913 52.856 486.094 52.712C486.276 52.568 486.492 52.4613 486.742 52.392C486.993 52.3173 487.265 52.28 487.558 52.28C487.942 52.28 488.289 52.3387 488.598 52.456C488.908 52.5733 489.182 52.7307 489.422 52.928L489.086 53.512Z" fill="black"/>
<path d="M454.016 203.512C453.952 203.437 453.867 203.365 453.76 203.296C453.653 203.227 453.533 203.165 453.4 203.112C453.267 203.053 453.12 203.008 452.96 202.976C452.805 202.939 452.643 202.92 452.472 202.92C452.029 202.92 451.704 203.003 451.496 203.168C451.293 203.333 451.192 203.56 451.192 203.848C451.192 204.003 451.221 204.131 451.28 204.232C451.339 204.333 451.429 204.421 451.552 204.496C451.68 204.565 451.837 204.627 452.024 204.68C452.211 204.733 452.432 204.789 452.688 204.848C452.981 204.912 453.245 204.987 453.48 205.072C453.72 205.152 453.923 205.253 454.088 205.376C454.259 205.499 454.387 205.648 454.472 205.824C454.563 206 454.608 206.216 454.608 206.472C454.608 206.744 454.555 206.981 454.448 207.184C454.341 207.381 454.195 207.547 454.008 207.68C453.827 207.808 453.611 207.904 453.36 207.968C453.109 208.027 452.837 208.056 452.544 208.056C452.107 208.056 451.691 207.989 451.296 207.856C450.907 207.717 450.552 207.517 450.232 207.256L450.576 206.648C450.661 206.739 450.771 206.829 450.904 206.92C451.043 207.011 451.197 207.093 451.368 207.168C451.544 207.237 451.731 207.296 451.928 207.344C452.131 207.387 452.341 207.408 452.56 207.408C452.965 207.408 453.28 207.336 453.504 207.192C453.728 207.048 453.84 206.832 453.84 206.544C453.84 206.384 453.803 206.251 453.728 206.144C453.659 206.032 453.555 205.936 453.416 205.856C453.277 205.776 453.104 205.707 452.896 205.648C452.693 205.584 452.461 205.52 452.2 205.456C451.912 205.387 451.659 205.312 451.44 205.232C451.221 205.152 451.037 205.056 450.888 204.944C450.744 204.832 450.635 204.696 450.56 204.536C450.485 204.376 450.448 204.184 450.448 203.96C450.448 203.688 450.499 203.448 450.6 203.24C450.701 203.032 450.843 202.856 451.024 202.712C451.205 202.568 451.421 202.461 451.672 202.392C451.923 202.317 452.195 202.28 452.488 202.28C452.872 202.28 453.219 202.339 453.528 202.456C453.837 202.573 454.112 202.731 454.352 202.928L454.016 203.512ZM459.491 207.392C459.822 207.392 460.096 207.328 460.315 207.2C460.534 207.072 460.707 206.907 460.835 206.704C460.968 206.496 461.062 206.261 461.115 206C461.168 205.733 461.195 205.464 461.195 205.192V202.32H461.915V205.192C461.915 205.576 461.87 205.941 461.779 206.288C461.694 206.629 461.555 206.931 461.363 207.192C461.171 207.453 460.92 207.661 460.611 207.816C460.307 207.965 459.936 208.04 459.499 208.04C459.046 208.04 458.664 207.96 458.355 207.8C458.046 207.64 457.795 207.429 457.603 207.168C457.416 206.901 457.28 206.597 457.195 206.256C457.115 205.909 457.075 205.555 457.075 205.192V202.32H457.795V205.192C457.795 205.475 457.822 205.749 457.875 206.016C457.934 206.277 458.027 206.509 458.155 206.712C458.288 206.915 458.462 207.08 458.675 207.208C458.894 207.331 459.166 207.392 459.491 207.392ZM464.794 208V202.32H467.162C467.413 202.32 467.642 202.373 467.85 202.48C468.063 202.581 468.245 202.72 468.394 202.896C468.549 203.067 468.669 203.261 468.754 203.48C468.839 203.693 468.882 203.912 468.882 204.136C468.882 204.371 468.842 204.597 468.762 204.816C468.682 205.035 468.567 205.229 468.418 205.4C468.274 205.571 468.098 205.707 467.89 205.808C467.687 205.909 467.461 205.96 467.21 205.96H465.514V208H464.794ZM465.514 205.32H467.17C467.319 205.32 467.453 205.291 467.57 205.232C467.693 205.168 467.797 205.083 467.882 204.976C467.967 204.864 468.034 204.736 468.082 204.592C468.13 204.448 468.154 204.296 468.154 204.136C468.154 203.971 468.125 203.816 468.066 203.672C468.013 203.528 467.938 203.403 467.842 203.296C467.751 203.189 467.642 203.107 467.514 203.048C467.391 202.989 467.261 202.96 467.122 202.96H465.514V205.32ZM471.378 208V202.32H473.746C473.997 202.32 474.226 202.373 474.434 202.48C474.648 202.581 474.829 202.72 474.978 202.896C475.133 203.067 475.253 203.261 475.338 203.48C475.424 203.693 475.466 203.912 475.466 204.136C475.466 204.371 475.426 204.597 475.346 204.816C475.266 205.035 475.152 205.229 475.002 205.4C474.858 205.571 474.682 205.707 474.474 205.808C474.272 205.909 474.045 205.96 473.794 205.96H472.098V208H471.378ZM472.098 205.32H473.754C473.904 205.32 474.037 205.291 474.154 205.232C474.277 205.168 474.381 205.083 474.466 204.976C474.552 204.864 474.618 204.736 474.666 204.592C474.714 204.448 474.738 204.296 474.738 204.136C474.738 203.971 474.709 203.816 474.65 203.672C474.597 203.528 474.522 203.403 474.426 203.296C474.336 203.189 474.226 203.107 474.098 203.048C473.976 202.989 473.845 202.96 473.706 202.96H472.098V205.32ZM477.963 208V202.32H478.683V207.36H481.851V208H477.963ZM484.235 208V202.32H484.955V208H484.235ZM491.769 207.36V208H487.913V202.32H491.697V202.96H488.633V204.8H491.297V205.4H488.633V207.36H491.769ZM494.357 208V202.32H496.789C497.039 202.32 497.269 202.373 497.477 202.48C497.69 202.581 497.871 202.72 498.021 202.896C498.175 203.067 498.295 203.261 498.381 203.48C498.466 203.693 498.509 203.912 498.509 204.136C498.509 204.333 498.479 204.525 498.421 204.712C498.367 204.893 498.287 205.059 498.181 205.208C498.079 205.357 497.954 205.485 497.805 205.592C497.661 205.699 497.498 205.776 497.317 205.824L498.693 208H497.877L496.581 205.96H495.077V208H494.357ZM495.077 205.32H496.797C496.946 205.32 497.079 205.288 497.197 205.224C497.319 205.16 497.423 205.075 497.509 204.968C497.594 204.856 497.661 204.728 497.709 204.584C497.757 204.44 497.781 204.291 497.781 204.136C497.781 203.976 497.751 203.827 497.693 203.688C497.639 203.544 497.565 203.419 497.469 203.312C497.378 203.2 497.269 203.115 497.141 203.056C497.018 202.992 496.887 202.96 496.749 202.96H495.077V205.32ZM452.984 217.04C452.584 217.04 452.219 216.96 451.888 216.8C451.563 216.635 451.283 216.419 451.048 216.152C450.813 215.88 450.632 215.571 450.504 215.224C450.376 214.877 450.312 214.523 450.312 214.16C450.312 213.781 450.379 213.419 450.512 213.072C450.651 212.725 450.84 212.419 451.08 212.152C451.32 211.885 451.603 211.675 451.928 211.52C452.259 211.36 452.616 211.28 453 211.28C453.4 211.28 453.763 211.365 454.088 211.536C454.413 211.701 454.693 211.92 454.928 212.192C455.163 212.464 455.344 212.773 455.472 213.12C455.6 213.461 455.664 213.811 455.664 214.168C455.664 214.547 455.595 214.909 455.456 215.256C455.323 215.603 455.136 215.909 454.896 216.176C454.661 216.437 454.379 216.648 454.048 216.808C453.723 216.963 453.368 217.04 452.984 217.04ZM451.04 214.16C451.04 214.448 451.085 214.728 451.176 215C451.272 215.267 451.405 215.504 451.576 215.712C451.747 215.92 451.952 216.085 452.192 216.208C452.432 216.331 452.699 216.392 452.992 216.392C453.296 216.392 453.568 216.328 453.808 216.2C454.048 216.067 454.251 215.896 454.416 215.688C454.587 215.475 454.715 215.235 454.8 214.968C454.891 214.701 454.936 214.432 454.936 214.16C454.936 213.872 454.888 213.595 454.792 213.328C454.701 213.056 454.568 212.819 454.392 212.616C454.221 212.408 454.016 212.243 453.776 212.12C453.541 211.997 453.28 211.936 452.992 211.936C452.688 211.936 452.416 212 452.176 212.128C451.936 212.256 451.731 212.424 451.56 212.632C451.395 212.84 451.267 213.077 451.176 213.344C451.085 213.611 451.04 213.883 451.04 214.16ZM458.264 217V211.32H460.696C460.947 211.32 461.176 211.373 461.384 211.48C461.598 211.581 461.779 211.72 461.928 211.896C462.083 212.067 462.203 212.261 462.288 212.48C462.374 212.693 462.416 212.912 462.416 213.136C462.416 213.333 462.387 213.525 462.328 213.712C462.275 213.893 462.195 214.059 462.088 214.208C461.987 214.357 461.862 214.485 461.712 214.592C461.568 214.699 461.406 214.776 461.224 214.824L462.6 217H461.784L460.488 214.96H458.984V217H458.264ZM458.984 214.32H460.704C460.854 214.32 460.987 214.288 461.104 214.224C461.227 214.16 461.331 214.075 461.416 213.968C461.502 213.856 461.568 213.728 461.616 213.584C461.664 213.44 461.688 213.291 461.688 213.136C461.688 212.976 461.659 212.827 461.6 212.688C461.547 212.544 461.472 212.419 461.376 212.312C461.286 212.2 461.176 212.115 461.048 212.056C460.926 211.992 460.795 211.96 460.656 211.96H458.984V214.32ZM465.122 217V211.32H467.09C467.544 211.32 467.941 211.395 468.282 211.544C468.629 211.693 468.917 211.896 469.146 212.152C469.376 212.408 469.546 212.709 469.658 213.056C469.776 213.397 469.834 213.763 469.834 214.152C469.834 214.584 469.77 214.976 469.642 215.328C469.514 215.675 469.33 215.973 469.09 216.224C468.85 216.469 468.56 216.661 468.218 216.8C467.882 216.933 467.506 217 467.09 217H465.122ZM469.106 214.152C469.106 213.832 469.061 213.539 468.97 213.272C468.885 213 468.754 212.768 468.578 212.576C468.408 212.384 468.197 212.235 467.946 212.128C467.696 212.016 467.41 211.96 467.09 211.96H465.842V216.36H467.09C467.416 216.36 467.704 216.304 467.954 216.192C468.21 216.08 468.421 215.925 468.586 215.728C468.757 215.531 468.885 215.299 468.97 215.032C469.061 214.76 469.106 214.467 469.106 214.152ZM476.305 216.36V217H472.449V211.32H476.233V211.96H473.169V213.8H475.833V214.4H473.169V216.36H476.305ZM478.892 217V211.32H481.324C481.575 211.32 481.804 211.373 482.012 211.48C482.226 211.581 482.407 211.72 482.556 211.896C482.711 212.067 482.831 212.261 482.916 212.48C483.002 212.693 483.044 212.912 483.044 213.136C483.044 213.333 483.015 213.525 482.957 213.712C482.903 213.893 482.823 214.059 482.716 214.208C482.615 214.357 482.49 214.485 482.34 214.592C482.196 214.699 482.034 214.776 481.852 214.824L483.228 217H482.412L481.116 214.96H479.612V217H478.892ZM479.612 214.32H481.332C481.482 214.32 481.615 214.288 481.732 214.224C481.855 214.16 481.959 214.075 482.044 213.968C482.13 213.856 482.196 213.728 482.244 213.584C482.292 213.44 482.316 213.291 482.316 213.136C482.316 212.976 482.287 212.827 482.228 212.688C482.175 212.544 482.1 212.419 482.004 212.312C481.914 212.2 481.804 212.115 481.676 212.056C481.554 211.992 481.423 211.96 481.284 211.96H479.612V214.32ZM489.086 212.512C489.022 212.437 488.937 212.365 488.83 212.296C488.724 212.227 488.604 212.165 488.47 212.112C488.337 212.053 488.19 212.008 488.03 211.976C487.876 211.939 487.713 211.92 487.542 211.92C487.1 211.92 486.774 212.003 486.566 212.168C486.364 212.333 486.262 212.56 486.262 212.848C486.262 213.003 486.292 213.131 486.35 213.232C486.409 213.333 486.5 213.421 486.622 213.496C486.75 213.565 486.908 213.627 487.094 213.68C487.281 213.733 487.502 213.789 487.758 213.848C488.052 213.912 488.316 213.987 488.55 214.072C488.79 214.152 488.993 214.253 489.158 214.376C489.329 214.499 489.457 214.648 489.542 214.824C489.633 215 489.678 215.216 489.678 215.472C489.678 215.744 489.625 215.981 489.518 216.184C489.412 216.381 489.265 216.547 489.078 216.68C488.897 216.808 488.681 216.904 488.43 216.968C488.18 217.027 487.908 217.056 487.614 217.056C487.177 217.056 486.761 216.989 486.366 216.856C485.977 216.717 485.622 216.517 485.302 216.256L485.646 215.648C485.732 215.739 485.841 215.829 485.974 215.92C486.113 216.011 486.268 216.093 486.438 216.168C486.614 216.237 486.801 216.296 486.998 216.344C487.201 216.387 487.412 216.408 487.63 216.408C488.036 216.408 488.35 216.336 488.574 216.192C488.798 216.048 488.91 215.832 488.91 215.544C488.91 215.384 488.873 215.251 488.798 215.144C488.729 215.032 488.625 214.936 488.486 214.856C488.348 214.776 488.174 214.707 487.966 214.648C487.764 214.584 487.532 214.52 487.27 214.456C486.982 214.387 486.729 214.312 486.51 214.232C486.292 214.152 486.108 214.056 485.958 213.944C485.814 213.832 485.705 213.696 485.63 213.536C485.556 213.376 485.518 213.184 485.518 212.96C485.518 212.688 485.569 212.448 485.67 212.24C485.772 212.032 485.913 211.856 486.094 211.712C486.276 211.568 486.492 211.461 486.742 211.392C486.993 211.317 487.265 211.28 487.558 211.28C487.942 211.28 488.289 211.339 488.598 211.456C488.908 211.573 489.182 211.731 489.422 211.928L489.086 212.512Z" fill="black"/>
<path d="M311.68 234V228.32H312.4V234H311.68ZM316.078 229.664V234H315.358V228.32H315.918L319.438 232.744V228.328H320.158V234H319.55L316.078 229.664ZM323.274 228.32L325.154 233.096L327.026 228.32H327.786L325.466 234H324.842L322.514 228.32H323.274ZM334.008 233.36V234H330.152V228.32H333.936V228.96H330.872V230.8H333.536V231.4H330.872V233.36H334.008ZM337.316 229.664V234H336.596V228.32H337.156L340.676 232.744V228.328H341.396V234H340.788L337.316 229.664ZM348.448 228.96H346.488V234H345.768V228.96H343.808V228.32H348.448V228.96ZM352.998 234.04C352.598 234.04 352.233 233.96 351.902 233.8C351.577 233.635 351.297 233.419 351.062 233.152C350.827 232.88 350.646 232.571 350.518 232.224C350.39 231.877 350.326 231.523 350.326 231.16C350.326 230.781 350.393 230.419 350.526 230.072C350.665 229.725 350.854 229.419 351.094 229.152C351.334 228.885 351.617 228.675 351.942 228.52C352.273 228.36 352.63 228.28 353.014 228.28C353.414 228.28 353.777 228.365 354.102 228.536C354.427 228.701 354.707 228.92 354.942 229.192C355.177 229.464 355.358 229.773 355.486 230.12C355.614 230.461 355.678 230.811 355.678 231.168C355.678 231.547 355.609 231.909 355.47 232.256C355.337 232.603 355.15 232.909 354.91 233.176C354.675 233.437 354.393 233.648 354.062 233.808C353.737 233.963 353.382 234.04 352.998 234.04ZM351.054 231.16C351.054 231.448 351.099 231.728 351.19 232C351.286 232.267 351.419 232.504 351.59 232.712C351.761 232.92 351.966 233.085 352.206 233.208C352.446 233.331 352.713 233.392 353.006 233.392C353.31 233.392 353.582 233.328 353.822 233.2C354.062 233.067 354.265 232.896 354.43 232.688C354.601 232.475 354.729 232.235 354.814 231.968C354.905 231.701 354.95 231.432 354.95 231.16C354.95 230.872 354.902 230.595 354.806 230.328C354.715 230.056 354.582 229.819 354.406 229.616C354.235 229.408 354.03 229.243 353.79 229.12C353.555 228.997 353.294 228.936 353.006 228.936C352.702 228.936 352.43 229 352.19 229.128C351.95 229.256 351.745 229.424 351.574 229.632C351.409 229.84 351.281 230.077 351.19 230.344C351.099 230.611 351.054 230.883 351.054 231.16ZM358.278 234V228.32H360.71C360.961 228.32 361.19 228.373 361.398 228.48C361.612 228.581 361.793 228.72 361.942 228.896C362.097 229.067 362.217 229.261 362.302 229.48C362.388 229.693 362.43 229.912 362.43 230.136C362.43 230.333 362.401 230.525 362.342 230.712C362.289 230.893 362.209 231.059 362.102 231.208C362.001 231.357 361.876 231.485 361.726 231.592C361.582 231.699 361.42 231.776 361.238 231.824L362.614 234H361.798L360.502 231.96H358.998V234H358.278ZM358.998 231.32H360.718C360.868 231.32 361.001 231.288 361.118 231.224C361.241 231.16 361.345 231.075 361.43 230.968C361.516 230.856 361.582 230.728 361.63 230.584C361.678 230.44 361.702 230.291 361.702 230.136C361.702 229.976 361.673 229.827 361.614 229.688C361.561 229.544 361.486 229.419 361.39 229.312C361.3 229.2 361.19 229.115 361.062 229.056C360.94 228.992 360.809 228.96 360.67 228.96H358.998V231.32ZM365.102 228.32L366.822 231.28L368.558 228.32H369.342L367.182 231.928V234H366.462V231.912L364.31 228.32H365.102Z" fill="black"/>
<path d="M301.642 218.273L292.392 202.273L301.642 186.273H320.142L329.392 202.273C325.78 208.521 323.754 212.025 320.142 218.273H301.642Z" fill="white"/>
<path d="M301.876 217.587H319.712L328.632 202.14L319.712 186.696H301.876L292.957 202.14L301.876 217.587ZM320.692 219.282H300.896L291 202.14L300.896 185H320.692L330.588 202.14L320.692 219.282Z" fill="url(#paint18_linear)"/>
<path d="M320.5 200H316V193.5C316 193.25 315.75 193 315.5 193H306.5C306.219 193 306 193.25 306 193.5V200H301.5C301.219 200 301 200.25 301 200.5V208.5C301 208.781 301.219 209 301.5 209H320.5C320.75 209 321 208.781 321 208.5V200.5C321 200.25 320.75 200 320.5 200ZM317 201V203H315V201H317ZM310 194H312V196H310V194ZM307 194H309V196C309 196.562 309.438 197 310 197H312C312.531 197 313 196.562 313 196V194H315V200H307V194ZM305 201H307V203H305V201ZM310.5 208H302V201H304V203C304 203.562 304.438 204 305 204H307C307.531 204 308 203.562 308 203V201H310.5V208ZM320 208H311.5V201H314V203C314 203.562 314.438 204 315 204H317C317.531 204 318 203.562 318 203V201H320V208Z" fill="#3B7DA4"/>
<path d="M264.5 95C264.5 95.875 265.125 96.5 266 96.5C266.812 96.5 267.5 95.875 267.5 95C267.5 94.1875 266.812 93.5 266 93.5C265.125 93.5 264.5 94.1875 264.5 95ZM262 96.5C262.812 96.5 263.5 95.875 263.5 95C263.5 94.1875 262.812 93.5 262 93.5C261.125 93.5 260.5 94.1875 260.5 95C260.5 95.875 261.125 96.5 262 96.5ZM273 88.5V83.5C273 81.875 271.625 80.5 270 80.5H244C242.312 80.5 241 81.875 241 83.5V88.5C241 89.3125 241.25 90 241.75 90.5C241.25 91.0625 241 91.75 241 92.5V97.5C241 98.3125 241.25 99 241.75 99.5C241.25 100.062 241 100.75 241 101.5V106.5C241 108.188 242.312 109.5 244 109.5H270C271.625 109.5 273 108.188 273 106.5V101.5C273 100.75 272.688 100.062 272.188 99.5C272.688 99 273 98.3125 273 97.5V92.5C273 91.75 272.688 91.0625 272.188 90.5C272.688 90 273 89.3125 273 88.5ZM243 88.5V83.5C243 83 243.438 82.5 244 82.5H270C270.5 82.5 271 83 271 83.5V88.5C271 89.0625 270.5 89.5 270 89.5H244C243.438 89.5 243 89.0625 243 88.5ZM270 91.5C270.5 91.5 271 92 271 92.5V97.5C271 98.0625 270.5 98.5 270 98.5H244C243.438 98.5 243 98.0625 243 97.5V92.5C243 92 243.438 91.5 244 91.5H270ZM271 101.5V106.5C271 107.062 270.5 107.5 270 107.5H244C243.438 107.5 243 107.062 243 106.5V101.5C243 101 243.438 100.5 244 100.5H270C270.5 100.5 271 101 271 101.5ZM266 87.5C266.812 87.5 267.5 86.875 267.5 86C267.5 85.1875 266.812 84.5 266 84.5C265.125 84.5 264.5 85.1875 264.5 86C264.5 86.875 265.125 87.5 266 87.5ZM262 87.5C262.812 87.5 263.5 86.875 263.5 86C263.5 85.1875 262.812 84.5 262 84.5C261.125 84.5 260.5 85.1875 260.5 86C260.5 86.875 261.125 87.5 262 87.5ZM266 102.5C265.125 102.5 264.5 103.188 264.5 104C264.5 104.875 265.125 105.5 266 105.5C266.812 105.5 267.5 104.875 267.5 104C267.5 103.188 266.812 102.5 266 102.5ZM262 102.5C261.125 102.5 260.5 103.188 260.5 104C260.5 104.875 261.125 105.5 262 105.5C262.812 105.5 263.5 104.875 263.5 104C263.5 103.188 262.812 102.5 262 102.5Z" fill="url(#paint19_linear)"/>
<path d="M255.68 34V28.32H258.048C258.299 28.32 258.528 28.3733 258.736 28.48C258.949 28.5813 259.131 28.72 259.28 28.896C259.435 29.0667 259.555 29.2613 259.64 29.48C259.725 29.6933 259.768 29.912 259.768 30.136C259.768 30.3707 259.728 30.5973 259.648 30.816C259.568 31.0347 259.453 31.2293 259.304 31.4C259.16 31.5707 258.984 31.7067 258.776 31.808C258.573 31.9093 258.347 31.96 258.096 31.96H256.4V34H255.68ZM256.4 31.32H258.056C258.205 31.32 258.339 31.2907 258.456 31.232C258.579 31.168 258.683 31.0827 258.768 30.976C258.853 30.864 258.92 30.736 258.968 30.592C259.016 30.448 259.04 30.296 259.04 30.136C259.04 29.9707 259.011 29.816 258.952 29.672C258.899 29.528 258.824 29.4027 258.728 29.296C258.637 29.1893 258.528 29.1067 258.4 29.048C258.277 28.9893 258.147 28.96 258.008 28.96H256.4V31.32ZM262.264 34V28.32H264.696C264.947 28.32 265.176 28.3733 265.384 28.48C265.598 28.5813 265.779 28.72 265.928 28.896C266.083 29.0667 266.203 29.2613 266.288 29.48C266.374 29.6933 266.416 29.912 266.416 30.136C266.416 30.3333 266.387 30.5253 266.328 30.712C266.275 30.8933 266.195 31.0587 266.088 31.208C265.987 31.3573 265.862 31.4853 265.712 31.592C265.568 31.6987 265.406 31.776 265.224 31.824L266.6 34H265.784L264.488 31.96H262.984V34H262.264ZM262.984 31.32H264.704C264.854 31.32 264.987 31.288 265.104 31.224C265.227 31.16 265.331 31.0747 265.416 30.968C265.502 30.856 265.568 30.728 265.616 30.584C265.664 30.44 265.688 30.2907 265.688 30.136C265.688 29.976 265.659 29.8267 265.6 29.688C265.547 29.544 265.472 29.4187 265.376 29.312C265.286 29.2 265.176 29.1147 265.048 29.056C264.926 28.992 264.795 28.96 264.656 28.96H262.984V31.32ZM271.426 34.04C271.026 34.04 270.661 33.96 270.33 33.8C270.005 33.6347 269.725 33.4187 269.49 33.152C269.256 32.88 269.074 32.5707 268.946 32.224C268.818 31.8773 268.754 31.5227 268.754 31.16C268.754 30.7813 268.821 30.4187 268.954 30.072C269.093 29.7253 269.282 29.4187 269.522 29.152C269.762 28.8853 270.045 28.6747 270.37 28.52C270.701 28.36 271.058 28.28 271.442 28.28C271.842 28.28 272.205 28.3653 272.53 28.536C272.856 28.7013 273.136 28.92 273.37 29.192C273.605 29.464 273.786 29.7733 273.914 30.12C274.042 30.4613 274.106 30.8107 274.106 31.168C274.106 31.5467 274.037 31.9093 273.898 32.256C273.765 32.6027 273.578 32.9093 273.338 33.176C273.104 33.4373 272.821 33.648 272.49 33.808C272.165 33.9627 271.81 34.04 271.426 34.04ZM269.482 31.16C269.482 31.448 269.528 31.728 269.618 32C269.714 32.2667 269.848 32.504 270.018 32.712C270.189 32.92 270.394 33.0853 270.634 33.208C270.874 33.3307 271.141 33.392 271.434 33.392C271.738 33.392 272.01 33.328 272.25 33.2C272.49 33.0667 272.693 32.896 272.858 32.688C273.029 32.4747 273.157 32.2347 273.242 31.968C273.333 31.7013 273.378 31.432 273.378 31.16C273.378 30.872 273.33 30.5947 273.234 30.328C273.144 30.056 273.01 29.8187 272.834 29.616C272.664 29.408 272.458 29.2427 272.218 29.12C271.984 28.9973 271.722 28.936 271.434 28.936C271.13 28.936 270.858 29 270.618 29.128C270.378 29.256 270.173 29.424 270.002 29.632C269.837 29.84 269.709 30.0773 269.618 30.344C269.528 30.6107 269.482 30.8827 269.482 31.16ZM276.339 31.12C276.339 30.7787 276.397 30.44 276.515 30.104C276.637 29.7627 276.813 29.4587 277.043 29.192C277.277 28.92 277.563 28.7013 277.899 28.536C278.235 28.3707 278.616 28.288 279.043 28.288C279.549 28.288 279.984 28.4027 280.347 28.632C280.709 28.8613 280.979 29.16 281.155 29.528L280.587 29.896C280.501 29.7147 280.397 29.5627 280.275 29.44C280.157 29.3173 280.027 29.2187 279.883 29.144C279.744 29.0693 279.6 29.016 279.451 28.984C279.301 28.952 279.155 28.936 279.011 28.936C278.696 28.936 278.416 29.0027 278.171 29.136C277.931 29.264 277.728 29.4347 277.563 29.648C277.397 29.856 277.272 30.0933 277.187 30.36C277.107 30.6213 277.067 30.8853 277.067 31.152C277.067 31.4507 277.115 31.736 277.211 32.008C277.312 32.2747 277.451 32.512 277.627 32.72C277.803 32.928 278.011 33.0933 278.251 33.216C278.491 33.3387 278.752 33.4 279.035 33.4C279.184 33.4 279.336 33.3813 279.491 33.344C279.651 33.3067 279.803 33.248 279.947 33.168C280.091 33.0827 280.224 32.9787 280.347 32.856C280.475 32.728 280.579 32.576 280.659 32.4L281.259 32.728C281.168 32.9413 281.04 33.1307 280.875 33.296C280.715 33.456 280.531 33.592 280.323 33.704C280.12 33.816 279.904 33.9013 279.675 33.96C279.445 34.0187 279.221 34.048 279.003 34.048C278.613 34.048 278.256 33.9627 277.931 33.792C277.605 33.6213 277.323 33.4 277.083 33.128C276.848 32.8507 276.664 32.5387 276.531 32.192C276.403 31.84 276.339 31.4827 276.339 31.12ZM286.096 33.392C286.426 33.392 286.701 33.328 286.92 33.2C287.138 33.072 287.312 32.9067 287.44 32.704C287.573 32.496 287.666 32.2613 287.72 32C287.773 31.7333 287.8 31.464 287.8 31.192V28.32H288.52V31.192C288.52 31.576 288.474 31.9413 288.384 32.288C288.298 32.6293 288.16 32.9307 287.968 33.192C287.776 33.4533 287.525 33.6613 287.216 33.816C286.912 33.9653 286.541 34.04 286.104 34.04C285.65 34.04 285.269 33.96 284.96 33.8C284.65 33.64 284.4 33.4293 284.208 33.168C284.021 32.9013 283.885 32.5973 283.8 32.256C283.72 31.9093 283.68 31.5547 283.68 31.192V28.32H284.4V31.192C284.4 31.4747 284.426 31.7493 284.48 32.016C284.538 32.2773 284.632 32.5093 284.76 32.712C284.893 32.9147 285.066 33.08 285.28 33.208C285.498 33.3307 285.77 33.392 286.096 33.392ZM291.399 34V28.32H293.831C294.081 28.32 294.311 28.3733 294.519 28.48C294.732 28.5813 294.913 28.72 295.063 28.896C295.217 29.0667 295.337 29.2613 295.423 29.48C295.508 29.6933 295.551 29.912 295.551 30.136C295.551 30.3333 295.521 30.5253 295.463 30.712C295.409 30.8933 295.329 31.0587 295.223 31.208C295.121 31.3573 294.996 31.4853 294.847 31.592C294.703 31.6987 294.54 31.776 294.359 31.824L295.735 34H294.919L293.623 31.96H292.119V34H291.399ZM292.119 31.32H293.839C293.988 31.32 294.121 31.288 294.239 31.224C294.361 31.16 294.465 31.0747 294.551 30.968C294.636 30.856 294.703 30.728 294.751 30.584C294.799 30.44 294.823 30.2907 294.823 30.136C294.823 29.976 294.793 29.8267 294.735 29.688C294.681 29.544 294.607 29.4187 294.511 29.312C294.42 29.2 294.311 29.1147 294.183 29.056C294.06 28.992 293.929 28.96 293.791 28.96H292.119V31.32ZM303.169 34V29.608L301.281 32.976H300.873L298.977 29.608V34H298.257V28.32H299.017L301.073 32.008L303.137 28.32H303.889V34H303.169ZM310.705 33.36V34H306.849V28.32H310.633V28.96H307.569V30.8H310.233V31.4H307.569V33.36H310.705ZM314.012 29.664V34H313.292V28.32H313.852L317.372 32.744V28.328H318.092V34H317.484L314.012 29.664ZM325.145 28.96H323.185V34H322.465V28.96H320.505V28.32H325.145V28.96ZM259.536 42.36V43H255.68V37.32H259.464V37.96H256.4V39.8H259.064V40.4H256.4V42.36H259.536ZM262.844 38.664V43H262.124V37.32H262.684L266.204 41.744V37.328H266.924V43H266.316L262.844 38.664ZM273.888 42.232C273.387 42.7707 272.811 43.04 272.16 43.04C271.781 43.04 271.429 42.9573 271.104 42.792C270.784 42.6267 270.507 42.4107 270.272 42.144C270.037 41.872 269.851 41.5627 269.712 41.216C269.579 40.8693 269.512 40.512 269.512 40.144C269.512 39.76 269.579 39.3973 269.712 39.056C269.845 38.7093 270.029 38.4053 270.264 38.144C270.499 37.8773 270.779 37.6667 271.104 37.512C271.429 37.3573 271.781 37.28 272.16 37.28C272.709 37.28 273.16 37.3947 273.512 37.624C273.869 37.8533 274.141 38.152 274.328 38.52L273.776 38.904C273.605 38.5733 273.379 38.328 273.096 38.168C272.813 38.008 272.496 37.928 272.144 37.928C271.856 37.928 271.595 37.992 271.36 38.12C271.125 38.2427 270.925 38.408 270.76 38.616C270.595 38.8187 270.467 39.056 270.376 39.328C270.285 39.5947 270.24 39.872 270.24 40.16C270.24 40.464 270.291 40.752 270.392 41.024C270.493 41.2907 270.632 41.528 270.808 41.736C270.984 41.9387 271.192 42.0987 271.432 42.216C271.672 42.3333 271.933 42.392 272.216 42.392C272.835 42.392 273.392 42.0933 273.888 41.496V40.712H272.664V40.168H274.496V43H273.888V42.232ZM277.191 43V37.32H277.911V43H277.191ZM281.589 38.664V43H280.869V37.32H281.429L284.949 41.744V37.328H285.669V43H285.061L281.589 38.664ZM292.481 42.36V43H288.625V37.32H292.409V37.96H289.345V39.8H292.009V40.4H289.345V42.36H292.481Z" fill="black"/>
<path d="M441.938 177.25H451.781C452.279 177.25 452.719 176.84 452.719 176.312V169.75C452.719 169.252 452.279 168.812 451.781 168.812H441.938C441.41 168.812 441 169.252 441 169.75V176.312C441 176.84 441.41 177.25 441.938 177.25ZM441.938 169.75H451.781V176.312H441.938V169.75ZM459.193 173.91L457.465 172.182C457.113 171.83 456.645 171.654 456.146 171.654H454.125C453.861 171.654 453.656 171.859 453.656 172.123V178.217H447.68C447.328 177.924 446.889 177.748 446.391 177.748C445.717 177.748 445.131 178.041 444.75 178.539C444.34 178.041 443.754 177.719 443.109 177.719C441.938 177.719 441 178.686 441 179.828C441 181 441.938 181.938 443.109 181.938C443.754 181.938 444.34 181.645 444.75 181.146C445.131 181.645 445.717 181.938 446.391 181.938C447.533 181.938 448.5 181 448.5 179.828C448.5 179.594 448.441 179.359 448.354 179.125H454.154C454.066 179.535 454.096 179.945 454.242 180.385C454.477 181.117 455.121 181.703 455.883 181.879C457.406 182.26 458.812 181.088 458.812 179.594C458.812 179.447 458.783 179.301 458.754 179.125H459.281C459.516 179.125 459.75 178.92 459.75 178.656V175.229C459.75 174.73 459.545 174.262 459.193 173.91ZM443.109 181C442.436 181 441.938 180.502 441.938 179.828C441.938 179.184 442.436 178.656 443.109 178.656C443.754 178.656 444.281 179.184 444.281 179.828C444.281 180.502 443.754 181 443.109 181ZM446.391 181C445.717 181 445.219 180.502 445.219 179.828C445.219 179.184 445.717 178.656 446.391 178.656C447.035 178.656 447.562 179.184 447.562 179.828C447.562 180.502 447.035 181 446.391 181ZM454.594 172.562H456.146C456.41 172.562 456.645 172.68 456.82 172.855L458.402 174.438H454.594V172.562ZM456.469 181C455.678 181 455.062 180.385 455.062 179.594C455.062 178.832 455.678 178.188 456.469 178.188C457.23 178.188 457.875 178.832 457.875 179.594C457.875 180.385 457.23 181 456.469 181ZM458.812 178.188H458.314C457.904 177.631 457.23 177.25 456.469 177.25C455.678 177.25 455.033 177.631 454.594 178.188V175.375H458.812V178.188ZM444.047 175.375H444.516C444.633 175.375 444.75 175.287 444.75 175.141V170.922C444.75 170.805 444.633 170.688 444.516 170.688H444.047C443.9 170.688 443.812 170.805 443.812 170.922V175.141C443.812 175.287 443.9 175.375 444.047 175.375ZM446.859 175.375H447.328C447.445 175.375 447.562 175.287 447.562 175.141V170.922C447.562 170.805 447.445 170.688 447.328 170.688H446.859C446.713 170.688 446.625 170.805 446.625 170.922V175.141C446.625 175.287 446.713 175.375 446.859 175.375ZM449.672 175.375H450.141C450.258 175.375 450.375 175.287 450.375 175.141V170.922C450.375 170.805 450.258 170.688 450.141 170.688H449.672C449.525 170.688 449.438 170.805 449.438 170.922V175.141C449.438 175.287 449.525 175.375 449.672 175.375Z" fill="#3B7DA4"/>
</g>
<defs>
<filter id="filter0_d" x="0.312012" y="0" width="542.114" height="247.04" filterUnits="userSpaceOnUse" color-interpolation-filters="sRGB">
<feFlood flood-opacity="0" result="BackgroundImageFix"/>
<feColorMatrix in="SourceAlpha" type="matrix" values="0 0 0 0 0 0 0 0 0 0 0 0 0 0 0 0 0 0 127 0"/>
<feOffset dy="4"/>
<feGaussianBlur stdDeviation="2"/>
<feColorMatrix type="matrix" values="0 0 0 0 0 0 0 0 0 0 0 0 0 0 0 0 0 0 0.25 0"/>
<feBlend mode="normal" in2="BackgroundImageFix" result="effect1_dropShadow"/>
<feBlend mode="normal" in="SourceGraphic" in2="effect1_dropShadow" result="shape"/>
</filter>
<linearGradient id="paint0_linear" x1="-171.528" y1="131.737" x2="743.173" y2="127.277" gradientUnits="userSpaceOnUse">
<stop stop-color="#802071"/>
<stop offset="0.0348449" stop-color="#80203B"/>
<stop offset="0.225296" stop-color="#F57336"/>
<stop offset="0.258693" stop-color="#F57336"/>
<stop offset="0.529644" stop-color="#21409A"/>
<stop offset="0.580765" stop-color="#21409A"/>
<stop offset="0.778656" stop-color="#4DAAAB"/>
<stop offset="0.787808" stop-color="#4DAAAB"/>
<stop offset="0.996047" stop-color="#004563"/>
<stop offset="0.99606" stop-color="#004563"/>
<stop offset="1" stop-color="#004563"/>
</linearGradient>
<linearGradient id="paint1_linear" x1="286.462" y1="-416.957" x2="276.208" y2="495.712" gradientUnits="userSpaceOnUse">
<stop stop-color="#80203B"/>
<stop offset="0.0348449" stop-color="#80203B"/>
<stop offset="0.225296" stop-color="#F57336"/>
<stop offset="0.258693" stop-color="#F57336"/>
<stop offset="0.359375" stop-color="#3B7FA4"/>
<stop offset="0.510417" stop-color="#21409A"/>
<stop offset="0.778656" stop-color="#4DAAAB"/>
<stop offset="0.787808" stop-color="#4DAAAB"/>
<stop offset="0.996047" stop-color="#004563"/>
<stop offset="0.99606" stop-color="#004563"/>
<stop offset="1" stop-color="#004563"/>
</linearGradient>
<linearGradient id="paint2_linear" x1="660.315" y1="130.475" x2="-258.769" y2="125.952" gradientUnits="userSpaceOnUse">
<stop stop-color="#80203B"/>
<stop offset="0.0348449" stop-color="#80203B"/>
<stop offset="0.225296" stop-color="#F57336"/>
<stop offset="0.258693" stop-color="#F57336"/>
<stop offset="0.529644" stop-color="#21409A"/>
<stop offset="0.580765" stop-color="#21409A"/>
<stop offset="0.778656" stop-color="#4DAAAB"/>
<stop offset="0.787808" stop-color="#4DAAAB"/>
<stop offset="0.996047" stop-color="#004563"/>
<stop offset="0.99606" stop-color="#004563"/>
<stop offset="1" stop-color="#004563"/>
</linearGradient>
<linearGradient id="paint3_linear" x1="660.308" y1="131.588" x2="-258.773" y2="127.066" gradientUnits="userSpaceOnUse">
<stop stop-color="#80203B"/>
<stop offset="0.0348449" stop-color="#80203B"/>
<stop offset="0.225296" stop-color="#F57336"/>
<stop offset="0.258693" stop-color="#F57336"/>
<stop offset="0.529644" stop-color="#21409A"/>
<stop offset="0.580765" stop-color="#21409A"/>
<stop offset="0.778656" stop-color="#4DAAAB"/>
<stop offset="0.787808" stop-color="#4DAAAB"/>
<stop offset="0.996047" stop-color="#004563"/>
<stop offset="0.99606" stop-color="#004563"/>
<stop offset="1" stop-color="#004563"/>
</linearGradient>
<linearGradient id="paint4_linear" x1="660.086" y1="176.971" x2="-258.998" y2="172.449" gradientUnits="userSpaceOnUse">
<stop stop-color="#80203B"/>
<stop offset="0.0348449" stop-color="#80203B"/>
<stop offset="0.225296" stop-color="#F57336"/>
<stop offset="0.258693" stop-color="#F57336"/>
<stop offset="0.529644" stop-color="#21409A"/>
<stop offset="0.580765" stop-color="#21409A"/>
<stop offset="0.778656" stop-color="#4DAAAB"/>
<stop offset="0.787808" stop-color="#4DAAAB"/>
<stop offset="0.996047" stop-color="#004563"/>
<stop offset="0.99606" stop-color="#004563"/>
<stop offset="1" stop-color="#004563"/>
</linearGradient>
<linearGradient id="paint5_linear" x1="660.315" y1="60.5726" x2="-258.769" y2="65.0951" gradientUnits="userSpaceOnUse">
<stop stop-color="#80203B"/>
<stop offset="0.0348449" stop-color="#80203B"/>
<stop offset="0.225296" stop-color="#F57336"/>
<stop offset="0.258693" stop-color="#F57336"/>
<stop offset="0.529644" stop-color="#21409A"/>
<stop offset="0.580765" stop-color="#21409A"/>
<stop offset="0.778656" stop-color="#4DAAAB"/>
<stop offset="0.787808" stop-color="#4DAAAB"/>
<stop offset="0.996047" stop-color="#004563"/>
<stop offset="0.99606" stop-color="#004563"/>
<stop offset="1" stop-color="#004563"/>
</linearGradient>
<linearGradient id="paint6_linear" x1="660.308" y1="59.4594" x2="-258.773" y2="63.9819" gradientUnits="userSpaceOnUse">
<stop stop-color="#80203B"/>
<stop offset="0.0348449" stop-color="#80203B"/>
<stop offset="0.225296" stop-color="#F57336"/>
<stop offset="0.258693" stop-color="#F57336"/>
<stop offset="0.529644" stop-color="#21409A"/>
<stop offset="0.580765" stop-color="#21409A"/>
<stop offset="0.778656" stop-color="#4DAAAB"/>
<stop offset="0.787808" stop-color="#4DAAAB"/>
<stop offset="0.996047" stop-color="#004563"/>
<stop offset="0.99606" stop-color="#004563"/>
<stop offset="1" stop-color="#004563"/>
</linearGradient>
<linearGradient id="paint7_linear" x1="660.315" y1="60.5726" x2="-258.769" y2="65.0951" gradientUnits="userSpaceOnUse">
<stop stop-color="#80203B"/>
<stop offset="0.0348449" stop-color="#80203B"/>
<stop offset="0.225296" stop-color="#F57336"/>
<stop offset="0.258693" stop-color="#F57336"/>
<stop offset="0.529644" stop-color="#21409A"/>
<stop offset="0.580765" stop-color="#21409A"/>
<stop offset="0.778656" stop-color="#4DAAAB"/>
<stop offset="0.787808" stop-color="#4DAAAB"/>
<stop offset="0.996047" stop-color="#004563"/>
<stop offset="0.99606" stop-color="#004563"/>
<stop offset="1" stop-color="#004563"/>
</linearGradient>
<linearGradient id="paint8_linear" x1="660.086" y1="14.0762" x2="-258.998" y2="18.5987" gradientUnits="userSpaceOnUse">
<stop stop-color="#80203B"/>
<stop offset="0.0348449" stop-color="#80203B"/>
<stop offset="0.225296" stop-color="#F57336"/>
<stop offset="0.258693" stop-color="#F57336"/>
<stop offset="0.529644" stop-color="#21409A"/>
<stop offset="0.580765" stop-color="#21409A"/>
<stop offset="0.778656" stop-color="#4DAAAB"/>
<stop offset="0.787808" stop-color="#4DAAAB"/>
<stop offset="0.996047" stop-color="#004563"/>
<stop offset="0.99606" stop-color="#004563"/>
<stop offset="1" stop-color="#004563"/>
</linearGradient>
<linearGradient id="paint9_linear" x1="-440.673" y1="164.436" x2="478.411" y2="159.914" gradientUnits="userSpaceOnUse">
<stop stop-color="#80203B"/>
<stop offset="0.0348449" stop-color="#80203B"/>
<stop offset="0.225296" stop-color="#F57336"/>
<stop offset="0.258693" stop-color="#F57336"/>
<stop offset="0.529644" stop-color="#21409A"/>
<stop offset="0.580765" stop-color="#21409A"/>
<stop offset="0.778656" stop-color="#4DAAAB"/>
<stop offset="0.787808" stop-color="#4DAAAB"/>
<stop offset="0.996047" stop-color="#004563"/>
<stop offset="0.99606" stop-color="#004563"/>
<stop offset="1" stop-color="#004563"/>
</linearGradient>
<linearGradient id="paint10_linear" x1="-440.444" y1="210.933" x2="478.64" y2="206.41" gradientUnits="userSpaceOnUse">
<stop stop-color="#80203B"/>
<stop offset="0.0348449" stop-color="#80203B"/>
<stop offset="0.225296" stop-color="#F57336"/>
<stop offset="0.258693" stop-color="#F57336"/>
<stop offset="0.529644" stop-color="#21409A"/>
<stop offset="0.580765" stop-color="#21409A"/>
<stop offset="0.778656" stop-color="#4DAAAB"/>
<stop offset="0.787808" stop-color="#4DAAAB"/>
<stop offset="0.996047" stop-color="#004563"/>
<stop offset="0.99606" stop-color="#004563"/>
<stop offset="1" stop-color="#004563"/>
</linearGradient>
<linearGradient id="paint11_linear" x1="335.02" y1="95.9215" x2="-46.5159" y2="94.0441" gradientUnits="userSpaceOnUse">
<stop stop-color="#80203B"/>
<stop offset="0.0348449" stop-color="#80203B"/>
<stop offset="0.225296" stop-color="#F57336"/>
<stop offset="0.258693" stop-color="#F57336"/>
<stop offset="0.529644" stop-color="#21409A"/>
<stop offset="0.580765" stop-color="#21409A"/>
<stop offset="0.778656" stop-color="#4DAAAB"/>
<stop offset="0.787808" stop-color="#4DAAAB"/>
<stop offset="0.996047" stop-color="#004563"/>
<stop offset="0.99606" stop-color="#004563"/>
<stop offset="1" stop-color="#004563"/>
</linearGradient>
<linearGradient id="paint12_linear" x1="-174.819" y1="130.588" x2="744.262" y2="126.066" gradientUnits="userSpaceOnUse">
<stop stop-color="#80203B"/>
<stop offset="0.0348449" stop-color="#80203B"/>
<stop offset="0.225296" stop-color="#F57336"/>
<stop offset="0.258693" stop-color="#F57336"/>
<stop offset="0.529644" stop-color="#21409A"/>
<stop offset="0.580765" stop-color="#21409A"/>
<stop offset="0.778656" stop-color="#4DAAAB"/>
<stop offset="0.787808" stop-color="#4DAAAB"/>
<stop offset="0.996047" stop-color="#004563"/>
<stop offset="0.99606" stop-color="#004563"/>
<stop offset="1" stop-color="#004563"/>
</linearGradient>
<linearGradient id="paint13_linear" x1="-173.597" y1="177.971" x2="745.487" y2="173.449" gradientUnits="userSpaceOnUse">
<stop stop-color="#80203B"/>
<stop offset="0.0348449" stop-color="#80203B"/>
<stop offset="0.225296" stop-color="#F57336"/>
<stop offset="0.258693" stop-color="#F57336"/>
<stop offset="0.529644" stop-color="#21409A"/>
<stop offset="0.580765" stop-color="#21409A"/>
<stop offset="0.778656" stop-color="#4DAAAB"/>
<stop offset="0.787808" stop-color="#4DAAAB"/>
<stop offset="0.996047" stop-color="#004563"/>
<stop offset="0.99606" stop-color="#004563"/>
<stop offset="1" stop-color="#004563"/>
</linearGradient>
<linearGradient id="paint14_linear" x1="-173.826" y1="61.5729" x2="745.258" y2="66.0954" gradientUnits="userSpaceOnUse">
<stop stop-color="#80203B"/>
<stop offset="0.0348449" stop-color="#80203B"/>
<stop offset="0.225296" stop-color="#F57336"/>
<stop offset="0.258693" stop-color="#F57336"/>
<stop offset="0.529644" stop-color="#21409A"/>
<stop offset="0.580765" stop-color="#21409A"/>
<stop offset="0.778656" stop-color="#4DAAAB"/>
<stop offset="0.787808" stop-color="#4DAAAB"/>
<stop offset="0.996047" stop-color="#004563"/>
<stop offset="0.99606" stop-color="#004563"/>
<stop offset="1" stop-color="#004563"/>
</linearGradient>
<linearGradient id="paint15_linear" x1="-173.819" y1="60.4594" x2="745.262" y2="64.9819" gradientUnits="userSpaceOnUse">
<stop stop-color="#80203B"/>
<stop offset="0.0348449" stop-color="#80203B"/>
<stop offset="0.225296" stop-color="#F57336"/>
<stop offset="0.258693" stop-color="#F57336"/>
<stop offset="0.529644" stop-color="#21409A"/>
<stop offset="0.580765" stop-color="#21409A"/>
<stop offset="0.778656" stop-color="#4DAAAB"/>
<stop offset="0.787808" stop-color="#4DAAAB"/>
<stop offset="0.996047" stop-color="#004563"/>
<stop offset="0.99606" stop-color="#004563"/>
<stop offset="1" stop-color="#004563"/>
</linearGradient>
<linearGradient id="paint16_linear" x1="-173.826" y1="61.5729" x2="745.258" y2="66.0954" gradientUnits="userSpaceOnUse">
<stop stop-color="#80203B"/>
<stop offset="0.0348449" stop-color="#80203B"/>
<stop offset="0.225296" stop-color="#F57336"/>
<stop offset="0.258693" stop-color="#F57336"/>
<stop offset="0.529644" stop-color="#21409A"/>
<stop offset="0.580765" stop-color="#21409A"/>
<stop offset="0.778656" stop-color="#4DAAAB"/>
<stop offset="0.787808" stop-color="#4DAAAB"/>
<stop offset="0.996047" stop-color="#004563"/>
<stop offset="0.99606" stop-color="#004563"/>
<stop offset="1" stop-color="#004563"/>
</linearGradient>
<linearGradient id="paint17_linear" x1="-173.597" y1="15.0762" x2="745.487" y2="19.5987" gradientUnits="userSpaceOnUse">
<stop stop-color="#80203B"/>
<stop offset="0.0348449" stop-color="#80203B"/>
<stop offset="0.225296" stop-color="#F57336"/>
<stop offset="0.258693" stop-color="#F57336"/>
<stop offset="0.529644" stop-color="#21409A"/>
<stop offset="0.580765" stop-color="#21409A"/>
<stop offset="0.778656" stop-color="#4DAAAB"/>
<stop offset="0.787808" stop-color="#4DAAAB"/>
<stop offset="0.996047" stop-color="#004563"/>
<stop offset="0.99606" stop-color="#004563"/>
<stop offset="1" stop-color="#004563"/>
</linearGradient>
<linearGradient id="paint18_linear" x1="150.079" y1="208.735" x2="419.2" y2="207.59" gradientUnits="userSpaceOnUse">
<stop stop-color="#80203B"/>
<stop offset="0.0348449" stop-color="#80203B"/>
<stop offset="0.225296" stop-color="#F57336"/>
<stop offset="0.258693" stop-color="#F57336"/>
<stop offset="0.359375" stop-color="#3B7FA4"/>
<stop offset="0.510417" stop-color="#21409A"/>
<stop offset="0.778656" stop-color="#4DAAAB"/>
<stop offset="0.787808" stop-color="#4DAAAB"/>
<stop offset="0.996047" stop-color="#004563"/>
<stop offset="0.99606" stop-color="#004563"/>
<stop offset="1" stop-color="#004563"/>
</linearGradient>
<linearGradient id="paint19_linear" x1="236.365" y1="87.9151" x2="293.364" y2="88.104" gradientUnits="userSpaceOnUse">
<stop stop-color="#BC554E"/>
<stop offset="0.375" stop-color="#F57336"/>
<stop offset="0.697917" stop-color="#F57336"/>
<stop offset="1" stop-color="#80203B"/>
</linearGradient>
</defs>
</svg>
