<svg width="488" height="349" viewBox="0 0 488 349" fill="none" xmlns="http://www.w3.org/2000/svg">
<g filter="url(#filter0_d)">
<path d="M186.5 218.5L150.5 155.5L186.5 92.5H259.5L296 155.5L259.5 218.5H186.5Z" fill="white"/>
<path d="M187.349 217.193H258.259L293.715 155.782L258.259 94.3714H187.349L151.893 155.782L187.349 217.193ZM260.206 220.565H185.402L148 155.782L185.402 91H260.206L297.608 155.782L260.206 220.565Z" fill="url(#paint0_linear)"/>
<path d="M153.039 193.564L150.662 191.961L80.1252 230.677L77.6732 231.677L77.7484 231.982L22 274L23.5 275.5L77.7223 234.5L76.9473 309.234L68.0753 308.876L70.4521 310.479L79.3242 310.837L80.1252 233.585L147 310.837L149 308.876L82.5 232.282L153.039 193.564Z" fill="url(#paint1_linear)"/>
<path d="M374.439 63.6438L372.062 62.0409L369.61 63.0409L369.685 63.3455L292.5 110.936L291.5 28.5L289 28.5L290.5 112.073L292.5 113.5L369.659 65.8635L367.884 140.597L359.012 140.239L361.389 141.842L370.261 142.2L372.062 64.9485L441.209 110L443.209 108.039L374.437 63.645L374.439 63.6438Z" fill="url(#paint2_linear)"/>
<path d="M152.661 190.281L150.516 192.183L76 163.5L77.6407 161.183L152.661 190.281Z" fill="url(#paint3_linear)"/>
<path d="M245.812 163.187L243.75 157.187C243.281 155.968 242.156 155.124 240.844 155.124H240V143.124C240 136.562 234.562 131.124 228 131.124H222C215.344 131.124 210 136.562 210 143.124V155.124H209.062C207.75 155.124 206.625 155.968 206.25 157.187L204.094 163.187C203.438 165.156 204.938 167.124 207 167.124V178.374C207 178.843 207.281 179.124 207.75 179.124H209.25C209.625 179.124 210 178.843 210 178.374V167.124H240V178.374C240 178.843 240.281 179.124 240.75 179.124H242.25C242.625 179.124 243 178.843 243 178.374V167.124C245.062 167.124 246.469 165.156 245.812 163.187ZM231 134.687C234.469 135.999 237 139.281 237 143.124V155.124H231V134.687ZM222 134.124H228V155.124H222V134.124ZM213 143.124C213 139.281 215.438 135.999 219 134.687V155.124H213V143.124ZM207 164.124L209.062 158.124H240.844L243 164.124H207Z" fill="#2A549E"/>
<path d="M79 181.48L92 159.479L79 137.48H53L40 159.479L53 181.48H79Z" fill="white"/>
<path d="M78.1642 180.449H53.8358L41.6692 159.38L53.8358 138.313H78.1642L90.3308 159.38L78.1642 180.449ZM52.4988 182.763H79.5012L93 159.38L79.5012 136H52.4988L39 159.38L52.4988 182.763Z" fill="url(#paint4_linear)"/>
<path d="M66.68 127V121.32H67.4V126.36H70.568V127H66.68ZM76.8079 126.36V127H72.9519V121.32H76.7359V121.96H73.6719V123.8H76.3359V124.4H73.6719V126.36H76.8079ZM81.1236 121.32H81.7316L84.0516 127H83.2836L82.6116 125.336H80.2276L79.5636 127H78.7956L81.1236 121.32ZM82.4516 124.776L81.4276 122.152L80.3716 124.776H82.4516ZM89.9666 121.96H88.0066V127H87.2866V121.96H85.3266V121.32H89.9666V121.96ZM96.9527 121.32V127H96.2327V124.416H93.1047V127H92.3847V121.32H93.1047V123.776H96.2327V121.32H96.9527ZM103.77 126.36V127H99.9144V121.32H103.698V121.96H100.634V123.8H103.298V124.4H100.634V126.36H103.77ZM106.358 127V121.32H108.79C109.041 121.32 109.27 121.373 109.478 121.48C109.691 121.581 109.873 121.72 110.022 121.896C110.177 122.067 110.297 122.261 110.382 122.48C110.467 122.693 110.51 122.912 110.51 123.136C110.51 123.333 110.481 123.525 110.422 123.712C110.369 123.893 110.289 124.059 110.182 124.208C110.081 124.357 109.955 124.485 109.806 124.592C109.662 124.699 109.499 124.776 109.318 124.824L110.694 127H109.878L108.582 124.96H107.078V127H106.358ZM107.078 124.32H108.798C108.947 124.32 109.081 124.288 109.198 124.224C109.321 124.16 109.425 124.075 109.51 123.968C109.595 123.856 109.662 123.728 109.71 123.584C109.758 123.44 109.782 123.291 109.782 123.136C109.782 122.976 109.753 122.827 109.694 122.688C109.641 122.544 109.566 122.419 109.47 122.312C109.379 122.2 109.27 122.115 109.142 122.056C109.019 121.992 108.889 121.96 108.75 121.96H107.078V124.32Z" fill="black"/>
<path d="M88 327.11L97.75 310.609L88 294.11H68.5L58.75 310.609L68.5 327.11H88Z" fill="white"/>
<path d="M87.3732 326.337H69.1269L60.0019 310.535L69.1269 294.735H87.3732L96.4981 310.535L87.3732 326.337ZM68.1241 328.072H88.3759L98.5 310.535L88.3759 293H68.1241L58 310.535L68.1241 328.072Z" fill="url(#paint5_linear)"/>
<path d="M82.938 339.732C82.4367 340.271 81.8607 340.54 81.21 340.54C80.8313 340.54 80.4793 340.457 80.154 340.292C79.834 340.127 79.5567 339.911 79.322 339.644C79.0873 339.372 78.9007 339.063 78.762 338.716C78.6287 338.369 78.562 338.012 78.562 337.644C78.562 337.26 78.6287 336.897 78.762 336.556C78.8953 336.209 79.0793 335.905 79.314 335.644C79.5487 335.377 79.8287 335.167 80.154 335.012C80.4793 334.857 80.8313 334.78 81.21 334.78C81.7593 334.78 82.21 334.895 82.562 335.124C82.9193 335.353 83.1913 335.652 83.378 336.02L82.826 336.404C82.6553 336.073 82.4287 335.828 82.146 335.668C81.8633 335.508 81.546 335.428 81.194 335.428C80.906 335.428 80.6447 335.492 80.41 335.62C80.1753 335.743 79.9753 335.908 79.81 336.116C79.6447 336.319 79.5167 336.556 79.426 336.828C79.3353 337.095 79.29 337.372 79.29 337.66C79.29 337.964 79.3407 338.252 79.442 338.524C79.5433 338.791 79.682 339.028 79.858 339.236C80.034 339.439 80.242 339.599 80.482 339.716C80.722 339.833 80.9833 339.892 81.266 339.892C81.8847 339.892 82.442 339.593 82.938 338.996V338.212H81.714V337.668H83.546V340.5H82.938V339.732ZM86.2409 340.5V334.82H88.6729C88.9236 334.82 89.1529 334.873 89.3609 334.98C89.5743 335.081 89.7556 335.22 89.9049 335.396C90.0596 335.567 90.1796 335.761 90.2649 335.98C90.3503 336.193 90.3929 336.412 90.3929 336.636C90.3929 336.833 90.3636 337.025 90.3049 337.212C90.2516 337.393 90.1716 337.559 90.0649 337.708C89.9636 337.857 89.8383 337.985 89.6889 338.092C89.5449 338.199 89.3823 338.276 89.2009 338.324L90.5769 340.5H89.7609L88.4649 338.46H86.9609V340.5H86.2409ZM86.9609 337.82H88.6809C88.8303 337.82 88.9636 337.788 89.0809 337.724C89.2036 337.66 89.3076 337.575 89.3929 337.468C89.4783 337.356 89.5449 337.228 89.5929 337.084C89.6409 336.94 89.6649 336.791 89.6649 336.636C89.6649 336.476 89.6356 336.327 89.5769 336.188C89.5236 336.044 89.4489 335.919 89.3529 335.812C89.2623 335.7 89.1529 335.615 89.0249 335.556C88.9023 335.492 88.7716 335.46 88.6329 335.46H86.9609V337.82ZM96.9548 339.86V340.5H93.0987V334.82H96.8828V335.46H93.8187V337.3H96.4827V337.9H93.8187V339.86H96.9548ZM103.398 339.86V340.5H99.5425V334.82H103.326V335.46H100.262V337.3H102.926V337.9H100.262V339.86H103.398ZM106.706 336.164V340.5H105.986V334.82H106.546L110.066 339.244V334.828H110.786V340.5H110.178L106.706 336.164Z" fill="black"/>
<path d="M158 326.11L167.75 309.609L158 293.11H138.5L128.75 309.609L138.5 326.11H158Z" fill="white"/>
<path d="M157.373 325.337H139.127L130.002 309.535L139.127 293.735H157.373L166.498 309.535L157.373 325.337ZM138.124 327.072H158.376L168.5 309.535L158.376 292H138.124L128 309.535L138.124 327.072Z" fill="url(#paint6_linear)"/>
<path d="M153.29 338.036C153.29 338.255 153.245 338.455 153.154 338.636C153.069 338.817 152.949 338.972 152.794 339.1C152.645 339.228 152.469 339.327 152.266 339.396C152.069 339.465 151.855 339.5 151.626 339.5H148.93V333.82H151.754C151.951 333.82 152.13 333.863 152.29 333.948C152.45 334.033 152.586 334.145 152.698 334.284C152.81 334.417 152.895 334.572 152.954 334.748C153.018 334.919 153.05 335.092 153.05 335.268C153.05 335.551 152.978 335.812 152.834 336.052C152.695 336.292 152.495 336.471 152.234 336.588C152.559 336.684 152.815 336.863 153.002 337.124C153.194 337.38 153.29 337.684 153.29 338.036ZM152.562 337.908C152.562 337.78 152.538 337.657 152.49 337.54C152.447 337.417 152.386 337.311 152.306 337.22C152.231 337.129 152.141 337.057 152.034 337.004C151.927 336.951 151.81 336.924 151.682 336.924H149.65V338.876H151.626C151.759 338.876 151.882 338.849 151.994 338.796C152.106 338.743 152.205 338.673 152.29 338.588C152.375 338.497 152.442 338.393 152.49 338.276C152.538 338.159 152.562 338.036 152.562 337.908ZM149.65 334.444V336.34H151.458C151.586 336.34 151.703 336.316 151.81 336.268C151.917 336.215 152.007 336.145 152.082 336.06C152.162 335.975 152.223 335.876 152.266 335.764C152.314 335.647 152.338 335.524 152.338 335.396C152.338 335.263 152.317 335.137 152.274 335.02C152.231 334.903 152.173 334.801 152.098 334.716C152.029 334.631 151.941 334.564 151.834 334.516C151.733 334.468 151.623 334.444 151.506 334.444H149.65ZM155.897 339.5V333.82H156.617V338.86H159.785V339.5H155.897ZM164.302 338.892C164.633 338.892 164.907 338.828 165.126 338.7C165.345 338.572 165.518 338.407 165.646 338.204C165.779 337.996 165.873 337.761 165.926 337.5C165.979 337.233 166.006 336.964 166.006 336.692V333.82H166.726V336.692C166.726 337.076 166.681 337.441 166.59 337.788C166.505 338.129 166.366 338.431 166.174 338.692C165.982 338.953 165.731 339.161 165.422 339.316C165.118 339.465 164.747 339.54 164.31 339.54C163.857 339.54 163.475 339.46 163.166 339.3C162.857 339.14 162.606 338.929 162.414 338.668C162.227 338.401 162.091 338.097 162.006 337.756C161.926 337.409 161.886 337.055 161.886 336.692V333.82H162.606V336.692C162.606 336.975 162.633 337.249 162.686 337.516C162.745 337.777 162.838 338.009 162.966 338.212C163.099 338.415 163.273 338.58 163.486 338.708C163.705 338.831 163.977 338.892 164.302 338.892ZM173.461 338.86V339.5H169.605V333.82H173.389V334.46H170.325V336.3H172.989V336.9H170.325V338.86H173.461Z" fill="black"/>
<path d="M34 292.11L43.75 275.609L34 259.11H14.5L4.75 275.609L14.5 292.11H34Z" fill="white"/>
<path d="M33.3732 291.337H15.1269L6.00194 275.535L15.1269 259.735H33.3732L42.4981 275.535L33.3732 291.337ZM14.1241 293.072H34.3759L44.5 275.535L34.3759 258H14.1241L4 275.535L14.1241 293.072Z" fill="url(#paint7_linear)"/>
<path d="M29.29 304.036C29.29 304.255 29.2447 304.455 29.154 304.636C29.0687 304.817 28.9487 304.972 28.794 305.1C28.6447 305.228 28.4687 305.327 28.266 305.396C28.0687 305.465 27.8553 305.5 27.626 305.5H24.93V299.82H27.754C27.9513 299.82 28.13 299.863 28.29 299.948C28.45 300.033 28.586 300.145 28.698 300.284C28.81 300.417 28.8953 300.572 28.954 300.748C29.018 300.919 29.05 301.092 29.05 301.268C29.05 301.551 28.978 301.812 28.834 302.052C28.6953 302.292 28.4953 302.471 28.234 302.588C28.5593 302.684 28.8153 302.863 29.002 303.124C29.194 303.38 29.29 303.684 29.29 304.036ZM28.562 303.908C28.562 303.78 28.538 303.657 28.49 303.54C28.4473 303.417 28.386 303.311 28.306 303.22C28.2313 303.129 28.1407 303.057 28.034 303.004C27.9273 302.951 27.81 302.924 27.682 302.924H25.65V304.876H27.626C27.7593 304.876 27.882 304.849 27.994 304.796C28.106 304.743 28.2047 304.673 28.29 304.588C28.3753 304.497 28.442 304.393 28.49 304.276C28.538 304.159 28.562 304.036 28.562 303.908ZM25.65 300.444V302.34H27.458C27.586 302.34 27.7033 302.316 27.81 302.268C27.9167 302.215 28.0073 302.145 28.082 302.06C28.162 301.975 28.2233 301.876 28.266 301.764C28.314 301.647 28.338 301.524 28.338 301.396C28.338 301.263 28.3167 301.137 28.274 301.02C28.2313 300.903 28.1727 300.801 28.098 300.716C28.0287 300.631 27.9407 300.564 27.834 300.516C27.7327 300.468 27.6233 300.444 27.506 300.444H25.65ZM31.8972 305.5V299.82H32.6172V304.86H35.7852V305.5H31.8972ZM40.3019 304.892C40.6326 304.892 40.9073 304.828 41.1259 304.7C41.3446 304.572 41.5179 304.407 41.6459 304.204C41.7793 303.996 41.8726 303.761 41.9259 303.5C41.9793 303.233 42.0059 302.964 42.0059 302.692V299.82H42.7259V302.692C42.7259 303.076 42.6806 303.441 42.5899 303.788C42.5046 304.129 42.3659 304.431 42.1739 304.692C41.9819 304.953 41.7313 305.161 41.4219 305.316C41.1179 305.465 40.7473 305.54 40.3099 305.54C39.8566 305.54 39.4753 305.46 39.1659 305.3C38.8566 305.14 38.6059 304.929 38.4139 304.668C38.2273 304.401 38.0913 304.097 38.0059 303.756C37.9259 303.409 37.8859 303.055 37.8859 302.692V299.82H38.6059V302.692C38.6059 302.975 38.6326 303.249 38.6859 303.516C38.7446 303.777 38.8379 304.009 38.9659 304.212C39.0993 304.415 39.2726 304.58 39.4859 304.708C39.7046 304.831 39.9766 304.892 40.3019 304.892ZM49.461 304.86V305.5H45.605V299.82H49.389V300.46H46.325V302.3H48.989V302.9H46.325V304.86H49.461Z" fill="black"/>
<path d="M69.1641 158.641L64.9453 157.391C64.4375 157.273 64.125 156.805 64.125 156.297C64.125 155.672 64.6328 155.125 65.2578 155.125H67.8359C68.3438 155.125 68.8125 155.281 69.2031 155.555C69.4375 155.711 69.75 155.672 69.9453 155.477L71.3125 154.148C71.5859 153.875 71.5469 153.445 71.2344 153.172C70.2969 152.43 69.0859 152.039 67.875 152V150.125C67.875 149.812 67.5625 149.5 67.25 149.5H66C65.6484 149.5 65.375 149.812 65.375 150.125V152H65.2578C62.7578 152 60.7656 154.148 61 156.688C61.1562 158.484 62.5234 159.969 64.2812 160.477L68.2656 161.648C68.7734 161.766 69.125 162.234 69.125 162.742C69.125 163.367 68.5781 163.875 67.9531 163.875H65.375C64.9062 163.875 64.4375 163.758 64.0469 163.484C63.7734 163.328 63.4609 163.367 63.2656 163.562L61.8984 164.891C61.625 165.164 61.6641 165.594 61.9766 165.828C62.9531 166.609 64.125 167 65.375 167V168.875C65.375 169.227 65.6484 169.5 66 169.5H67.25C67.5625 169.5 67.875 169.227 67.875 168.875V167C69.6719 166.961 71.3906 165.906 71.9766 164.188C72.8359 161.766 71.4297 159.305 69.1641 158.641Z" fill="#6EA27A"/>
<path d="M385.209 89.48L398.209 67.4789L385.209 45.48H359.209L346.209 67.4789L359.209 89.48H385.209Z" fill="white"/>
<path d="M384.373 88.4495H360.045L347.878 67.3801L360.045 46.313H384.373L396.54 67.3801L384.373 88.4495ZM358.708 90.7625H385.71L399.209 67.3801L385.71 44H358.708L345.209 67.3801L358.708 90.7625Z" fill="url(#paint8_linear)"/>
<path d="M382.249 104.536C382.249 104.755 382.204 104.955 382.113 105.136C382.028 105.317 381.908 105.472 381.753 105.6C381.604 105.728 381.428 105.827 381.225 105.896C381.028 105.965 380.815 106 380.585 106H377.889V100.32H380.713C380.911 100.32 381.089 100.363 381.249 100.448C381.409 100.533 381.545 100.645 381.657 100.784C381.769 100.917 381.855 101.072 381.913 101.248C381.977 101.419 382.009 101.592 382.009 101.768C382.009 102.051 381.937 102.312 381.793 102.552C381.655 102.792 381.455 102.971 381.193 103.088C381.519 103.184 381.775 103.363 381.961 103.624C382.153 103.88 382.249 104.184 382.249 104.536ZM381.521 104.408C381.521 104.28 381.497 104.157 381.449 104.04C381.407 103.917 381.345 103.811 381.265 103.72C381.191 103.629 381.1 103.557 380.993 103.504C380.887 103.451 380.769 103.424 380.641 103.424H378.609V105.376H380.585C380.719 105.376 380.841 105.349 380.953 105.296C381.065 105.243 381.164 105.173 381.249 105.088C381.335 104.997 381.401 104.893 381.449 104.776C381.497 104.659 381.521 104.536 381.521 104.408ZM378.609 100.944V102.84H380.417C380.545 102.84 380.663 102.816 380.769 102.768C380.876 102.715 380.967 102.645 381.041 102.56C381.121 102.475 381.183 102.376 381.225 102.264C381.273 102.147 381.297 102.024 381.297 101.896C381.297 101.763 381.276 101.637 381.233 101.52C381.191 101.403 381.132 101.301 381.057 101.216C380.988 101.131 380.9 101.064 380.793 101.016C380.692 100.968 380.583 100.944 380.465 100.944H378.609ZM388.712 105.36V106H384.856V100.32H388.64V100.96H385.576V102.8H388.24V103.4H385.576V105.36H388.712ZM395.156 105.36V106H391.3V100.32H395.084V100.96H392.02V102.8H394.684V103.4H392.02V105.36H395.156ZM397.267 103.12C397.267 102.779 397.325 102.44 397.443 102.104C397.565 101.763 397.741 101.459 397.971 101.192C398.205 100.92 398.491 100.701 398.827 100.536C399.163 100.371 399.544 100.288 399.971 100.288C400.477 100.288 400.912 100.403 401.275 100.632C401.637 100.861 401.907 101.16 402.083 101.528L401.515 101.896C401.429 101.715 401.325 101.563 401.203 101.44C401.085 101.317 400.955 101.219 400.811 101.144C400.672 101.069 400.528 101.016 400.379 100.984C400.229 100.952 400.083 100.936 399.939 100.936C399.624 100.936 399.344 101.003 399.099 101.136C398.859 101.264 398.656 101.435 398.491 101.648C398.325 101.856 398.2 102.093 398.115 102.36C398.035 102.621 397.995 102.885 397.995 103.152C397.995 103.451 398.043 103.736 398.139 104.008C398.24 104.275 398.379 104.512 398.555 104.72C398.731 104.928 398.939 105.093 399.179 105.216C399.419 105.339 399.68 105.4 399.963 105.4C400.112 105.4 400.264 105.381 400.419 105.344C400.579 105.307 400.731 105.248 400.875 105.168C401.019 105.083 401.152 104.979 401.275 104.856C401.403 104.728 401.507 104.576 401.587 104.4L402.187 104.728C402.096 104.941 401.968 105.131 401.803 105.296C401.643 105.456 401.459 105.592 401.251 105.704C401.048 105.816 400.832 105.901 400.603 105.96C400.373 106.019 400.149 106.048 399.931 106.048C399.541 106.048 399.184 105.963 398.859 105.792C398.533 105.621 398.251 105.4 398.011 105.128C397.776 104.851 397.592 104.539 397.459 104.192C397.331 103.84 397.267 103.483 397.267 103.12ZM409.256 100.32V106H408.536V103.416H405.408V106H404.688V100.32H405.408V102.776H408.536V100.32H409.256Z" fill="black"/>
<path d="M374.373 66.6406L370.155 65.3906C369.647 65.2734 369.334 64.8047 369.334 64.2969C369.334 63.6719 369.842 63.125 370.467 63.125H373.045C373.553 63.125 374.022 63.2812 374.412 63.5547C374.647 63.7109 374.959 63.6719 375.155 63.4766L376.522 62.1484C376.795 61.875 376.756 61.4453 376.444 61.1719C375.506 60.4297 374.295 60.0391 373.084 60V58.125C373.084 57.8125 372.772 57.5 372.459 57.5H371.209C370.858 57.5 370.584 57.8125 370.584 58.125V60H370.467C367.967 60 365.975 62.1484 366.209 64.6875C366.365 66.4844 367.733 67.9688 369.49 68.4766L373.475 69.6484C373.983 69.7656 374.334 70.2344 374.334 70.7422C374.334 71.3672 373.787 71.875 373.162 71.875H370.584C370.115 71.875 369.647 71.7578 369.256 71.4844C368.983 71.3281 368.67 71.3672 368.475 71.5625L367.108 72.8906C366.834 73.1641 366.873 73.5938 367.186 73.8281C368.162 74.6094 369.334 75 370.584 75V76.875C370.584 77.2266 370.858 77.5 371.209 77.5H372.459C372.772 77.5 373.084 77.2266 373.084 76.875V75C374.881 74.9609 376.6 73.9062 377.186 72.1875C378.045 69.7656 376.639 67.3047 374.373 66.6406Z" fill="#6EA27A"/>
<path d="M452.209 125.11L461.959 108.609L452.209 92.11H432.709L422.959 108.609L432.709 125.11H452.209Z" fill="white"/>
<path d="M451.582 124.337H433.336L424.211 108.535L433.336 92.7348H451.582L460.707 108.535L451.582 124.337ZM432.333 126.072H452.585L462.709 108.535L452.585 91H432.333L422.209 108.535L432.333 126.072Z" fill="url(#paint9_linear)"/>
<path d="M445.443 138.54C445.043 138.54 444.678 138.46 444.347 138.3C444.022 138.135 443.742 137.919 443.507 137.652C443.273 137.38 443.091 137.071 442.963 136.724C442.835 136.377 442.771 136.023 442.771 135.66C442.771 135.281 442.838 134.919 442.971 134.572C443.11 134.225 443.299 133.919 443.539 133.652C443.779 133.385 444.062 133.175 444.387 133.02C444.718 132.86 445.075 132.78 445.459 132.78C445.859 132.78 446.222 132.865 446.547 133.036C446.873 133.201 447.153 133.42 447.387 133.692C447.622 133.964 447.803 134.273 447.931 134.62C448.059 134.961 448.123 135.311 448.123 135.668C448.123 136.047 448.054 136.409 447.915 136.756C447.782 137.103 447.595 137.409 447.355 137.676C447.121 137.937 446.838 138.148 446.507 138.308C446.182 138.463 445.827 138.54 445.443 138.54ZM443.499 135.66C443.499 135.948 443.545 136.228 443.635 136.5C443.731 136.767 443.865 137.004 444.035 137.212C444.206 137.42 444.411 137.585 444.651 137.708C444.891 137.831 445.158 137.892 445.451 137.892C445.755 137.892 446.027 137.828 446.267 137.7C446.507 137.567 446.71 137.396 446.875 137.188C447.046 136.975 447.174 136.735 447.259 136.468C447.35 136.201 447.395 135.932 447.395 135.66C447.395 135.372 447.347 135.095 447.251 134.828C447.161 134.556 447.027 134.319 446.851 134.116C446.681 133.908 446.475 133.743 446.235 133.62C446.001 133.497 445.739 133.436 445.451 133.436C445.147 133.436 444.875 133.5 444.635 133.628C444.395 133.756 444.19 133.924 444.019 134.132C443.854 134.34 443.726 134.577 443.635 134.844C443.545 135.111 443.499 135.383 443.499 135.66ZM450.724 138.5V132.82H451.444V138.5H450.724ZM454.402 138.5V132.82H455.122V137.86H458.29V138.5H454.402ZM464.53 137.86V138.5H460.674V132.82H464.458V133.46H461.394V135.3H464.058V135.9H461.394V137.86H464.53ZM467.117 138.5V132.82H469.085C469.539 132.82 469.936 132.895 470.277 133.044C470.624 133.193 470.912 133.396 471.141 133.652C471.371 133.908 471.541 134.209 471.653 134.556C471.771 134.897 471.829 135.263 471.829 135.652C471.829 136.084 471.765 136.476 471.637 136.828C471.509 137.175 471.325 137.473 471.085 137.724C470.845 137.969 470.555 138.161 470.213 138.3C469.877 138.433 469.501 138.5 469.085 138.5H467.117ZM471.101 135.652C471.101 135.332 471.056 135.039 470.965 134.772C470.88 134.5 470.749 134.268 470.573 134.076C470.403 133.884 470.192 133.735 469.941 133.628C469.691 133.516 469.405 133.46 469.085 133.46H467.837V137.86H469.085C469.411 137.86 469.699 137.804 469.949 137.692C470.205 137.58 470.416 137.425 470.581 137.228C470.752 137.031 470.88 136.799 470.965 136.532C471.056 136.26 471.101 135.967 471.101 135.652Z" fill="black"/>
<path d="M444.74 108.312L441.365 107.312C440.959 107.219 440.709 106.844 440.709 106.438C440.709 105.938 441.115 105.5 441.615 105.5H443.678C444.084 105.5 444.459 105.625 444.772 105.844C444.959 105.969 445.209 105.938 445.365 105.781L446.459 104.719C446.678 104.5 446.647 104.156 446.397 103.938C445.647 103.344 444.678 103.031 443.709 103V101.5C443.709 101.25 443.459 101 443.209 101H442.209C441.928 101 441.709 101.25 441.709 101.5V103H441.615C439.615 103 438.022 104.719 438.209 106.75C438.334 108.188 439.428 109.375 440.834 109.781L444.022 110.719C444.428 110.812 444.709 111.188 444.709 111.594C444.709 112.094 444.272 112.5 443.772 112.5H441.709C441.334 112.5 440.959 112.406 440.647 112.188C440.428 112.062 440.178 112.094 440.022 112.25L438.928 113.312C438.709 113.531 438.74 113.875 438.99 114.062C439.772 114.688 440.709 115 441.709 115V116.5C441.709 116.781 441.928 117 442.209 117H443.209C443.459 117 443.709 116.781 443.709 116.5V115C445.147 114.969 446.522 114.125 446.99 112.75C447.678 110.812 446.553 108.844 444.74 108.312Z" fill="#6EA27A"/>
<path d="M379.209 159.11L388.959 142.609L379.209 126.11H359.709L349.959 142.609L359.709 159.11H379.209Z" fill="white"/>
<path d="M378.582 158.337H360.336L351.211 142.535L360.336 126.735H378.582L387.707 142.535L378.582 158.337ZM359.333 160.072H379.585L389.709 142.535L379.585 125H359.333L349.209 142.535L359.333 160.072Z" fill="url(#paint10_linear)"/>
<path d="M370.609 167.664V172H369.889V166.32H370.449L373.969 170.744V166.328H374.689V172H374.081L370.609 167.664ZM379.373 166.32H379.981L382.301 172H381.533L380.861 170.336H378.477L377.813 172H377.045L379.373 166.32ZM380.701 169.776L379.677 167.152L378.621 169.776H380.701ZM388.216 166.96H386.256V172H385.536V166.96H383.576V166.32H388.216V166.96ZM392.971 171.392C393.301 171.392 393.576 171.328 393.795 171.2C394.013 171.072 394.187 170.907 394.315 170.704C394.448 170.496 394.541 170.261 394.595 170C394.648 169.733 394.675 169.464 394.675 169.192V166.32H395.395V169.192C395.395 169.576 395.349 169.941 395.259 170.288C395.173 170.629 395.035 170.931 394.843 171.192C394.651 171.453 394.4 171.661 394.091 171.816C393.787 171.965 393.416 172.04 392.979 172.04C392.525 172.04 392.144 171.96 391.835 171.8C391.525 171.64 391.275 171.429 391.083 171.168C390.896 170.901 390.76 170.597 390.675 170.256C390.595 169.909 390.555 169.555 390.555 169.192V166.32H391.275V169.192C391.275 169.475 391.301 169.749 391.355 170.016C391.413 170.277 391.507 170.509 391.635 170.712C391.768 170.915 391.941 171.08 392.155 171.208C392.373 171.331 392.645 171.392 392.971 171.392ZM398.274 172V166.32H400.706C400.956 166.32 401.186 166.373 401.394 166.48C401.607 166.581 401.788 166.72 401.938 166.896C402.092 167.067 402.212 167.261 402.298 167.48C402.383 167.693 402.426 167.912 402.426 168.136C402.426 168.333 402.396 168.525 402.338 168.712C402.284 168.893 402.204 169.059 402.098 169.208C401.996 169.357 401.871 169.485 401.722 169.592C401.578 169.699 401.415 169.776 401.234 169.824L402.61 172H401.794L400.498 169.96H398.994V172H398.274ZM398.994 169.32H400.714C400.863 169.32 400.996 169.288 401.114 169.224C401.236 169.16 401.34 169.075 401.426 168.968C401.511 168.856 401.578 168.728 401.626 168.584C401.674 168.44 401.698 168.291 401.698 168.136C401.698 167.976 401.668 167.827 401.61 167.688C401.556 167.544 401.482 167.419 401.386 167.312C401.295 167.2 401.186 167.115 401.058 167.056C400.935 166.992 400.804 166.96 400.666 166.96H398.994V169.32ZM406.859 166.32H407.467L409.787 172H409.019L408.347 170.336H405.963L405.299 172H404.531L406.859 166.32ZM408.187 169.776L407.163 167.152L406.107 169.776H408.187ZM412.145 172V166.32H412.865V171.36H416.033V172H412.145Z" fill="black"/>
<path d="M371.74 142.312L368.365 141.312C367.959 141.219 367.709 140.844 367.709 140.438C367.709 139.938 368.115 139.5 368.615 139.5H370.678C371.084 139.5 371.459 139.625 371.772 139.844C371.959 139.969 372.209 139.938 372.365 139.781L373.459 138.719C373.678 138.5 373.647 138.156 373.397 137.938C372.647 137.344 371.678 137.031 370.709 137V135.5C370.709 135.25 370.459 135 370.209 135H369.209C368.928 135 368.709 135.25 368.709 135.5V137H368.615C366.615 137 365.022 138.719 365.209 140.75C365.334 142.188 366.428 143.375 367.834 143.781L371.022 144.719C371.428 144.812 371.709 145.188 371.709 145.594C371.709 146.094 371.272 146.5 370.772 146.5H368.709C368.334 146.5 367.959 146.406 367.647 146.188C367.428 146.062 367.178 146.094 367.022 146.25L365.928 147.312C365.709 147.531 365.74 147.875 365.99 148.062C366.772 148.688 367.709 149 368.709 149V150.5C368.709 150.781 368.928 151 369.209 151H370.209C370.459 151 370.709 150.781 370.709 150.5V149C372.147 148.969 373.522 148.125 373.99 146.75C374.678 144.812 373.553 142.844 371.74 142.312Z" fill="#CCCCCC"/>
<path d="M150.531 309.312L147.156 308.312C146.75 308.219 146.5 307.844 146.5 307.438C146.5 306.938 146.906 306.5 147.406 306.5H149.469C149.875 306.5 150.25 306.625 150.562 306.844C150.75 306.969 151 306.938 151.156 306.781L152.25 305.719C152.469 305.5 152.438 305.156 152.188 304.938C151.438 304.344 150.469 304.031 149.5 304V302.5C149.5 302.25 149.25 302 149 302H148C147.719 302 147.5 302.25 147.5 302.5V304H147.406C145.406 304 143.812 305.719 144 307.75C144.125 309.188 145.219 310.375 146.625 310.781L149.812 311.719C150.219 311.812 150.5 312.188 150.5 312.594C150.5 313.094 150.062 313.5 149.562 313.5H147.5C147.125 313.5 146.75 313.406 146.438 313.188C146.219 313.062 145.969 313.094 145.812 313.25L144.719 314.312C144.5 314.531 144.531 314.875 144.781 315.062C145.562 315.688 146.5 316 147.5 316V317.5C147.5 317.781 147.719 318 148 318H149C149.25 318 149.5 317.781 149.5 317.5V316C150.938 315.969 152.312 315.125 152.781 313.75C153.469 311.812 152.344 309.844 150.531 309.312Z" fill="#CCCCCC"/>
<path d="M79.5312 310.312L76.1562 309.312C75.75 309.219 75.5 308.844 75.5 308.438C75.5 307.938 75.9062 307.5 76.4062 307.5H78.4688C78.875 307.5 79.25 307.625 79.5625 307.844C79.75 307.969 80 307.938 80.1562 307.781L81.25 306.719C81.4688 306.5 81.4375 306.156 81.1875 305.938C80.4375 305.344 79.4688 305.031 78.5 305V303.5C78.5 303.25 78.25 303 78 303H77C76.7188 303 76.5 303.25 76.5 303.5V305H76.4062C74.4062 305 72.8125 306.719 73 308.75C73.125 310.188 74.2188 311.375 75.625 311.781L78.8125 312.719C79.2188 312.812 79.5 313.188 79.5 313.594C79.5 314.094 79.0625 314.5 78.5625 314.5H76.5C76.125 314.5 75.75 314.406 75.4375 314.188C75.2188 314.062 74.9688 314.094 74.8125 314.25L73.7188 315.312C73.5 315.531 73.5312 315.875 73.7812 316.062C74.5625 316.688 75.5 317 76.5 317V318.5C76.5 318.781 76.7188 319 77 319H78C78.25 319 78.5 318.781 78.5 318.5V317C79.9375 316.969 81.3125 316.125 81.7812 314.75C82.4688 312.812 81.3438 310.844 79.5312 310.312Z" fill="#CCCCCC"/>
<path d="M26.5312 274.312L23.1562 273.312C22.75 273.219 22.5 272.844 22.5 272.438C22.5 271.938 22.9062 271.5 23.4062 271.5H25.4688C25.875 271.5 26.25 271.625 26.5625 271.844C26.75 271.969 27 271.938 27.1562 271.781L28.25 270.719C28.4688 270.5 28.4375 270.156 28.1875 269.938C27.4375 269.344 26.4688 269.031 25.5 269V267.5C25.5 267.25 25.25 267 25 267H24C23.7188 267 23.5 267.25 23.5 267.5V269H23.4062C21.4062 269 19.8125 270.719 20 272.75C20.125 274.188 21.2188 275.375 22.625 275.781L25.8125 276.719C26.2188 276.812 26.5 277.188 26.5 277.594C26.5 278.094 26.0625 278.5 25.5625 278.5H23.5C23.125 278.5 22.75 278.406 22.4375 278.188C22.2188 278.062 21.9688 278.094 21.8125 278.25L20.7188 279.312C20.5 279.531 20.5312 279.875 20.7812 280.062C21.5625 280.688 22.5 281 23.5 281V282.5C23.5 282.781 23.7188 283 24 283H25C25.25 283 25.5 282.781 25.5 282.5V281C26.9375 280.969 28.3125 280.125 28.7812 278.75C29.4688 276.812 28.3438 274.844 26.5312 274.312Z" fill="#CCCCCC"/>
<path d="M302 45.48L315 23.4789L302 1.48004H276L263 23.4789L276 45.48H302Z" fill="white"/>
<path d="M301.164 44.4495H276.836L264.669 23.3801L276.836 2.31303H301.164L313.331 23.3801L301.164 44.4495ZM275.499 46.7625H302.501L316 23.3801L302.501 1.47155e-06H275.499L262 23.3801L275.499 46.7625Z" fill="url(#paint11_linear)"/>
<path d="M299.775 61.04C299.375 61.04 299.009 60.96 298.679 60.8C298.353 60.6347 298.073 60.4187 297.839 60.152C297.604 59.88 297.423 59.5707 297.295 59.224C297.167 58.8773 297.103 58.5227 297.103 58.16C297.103 57.7813 297.169 57.4187 297.303 57.072C297.441 56.7253 297.631 56.4187 297.871 56.152C298.111 55.8853 298.393 55.6747 298.719 55.52C299.049 55.36 299.407 55.28 299.791 55.28C300.191 55.28 300.553 55.3653 300.879 55.536C301.204 55.7013 301.484 55.92 301.719 56.192C301.953 56.464 302.135 56.7733 302.263 57.12C302.391 57.4613 302.455 57.8107 302.455 58.168C302.455 58.5467 302.385 58.9093 302.247 59.256C302.113 59.6027 301.927 59.9093 301.687 60.176C301.452 60.4373 301.169 60.648 300.839 60.808C300.513 60.9627 300.159 61.04 299.775 61.04ZM297.831 58.16C297.831 58.448 297.876 58.728 297.967 59C298.063 59.2667 298.196 59.504 298.367 59.712C298.537 59.92 298.743 60.0853 298.983 60.208C299.223 60.3307 299.489 60.392 299.783 60.392C300.087 60.392 300.359 60.328 300.599 60.2C300.839 60.0667 301.041 59.896 301.207 59.688C301.377 59.4747 301.505 59.2347 301.591 58.968C301.681 58.7013 301.727 58.432 301.727 58.16C301.727 57.872 301.679 57.5947 301.583 57.328C301.492 57.056 301.359 56.8187 301.183 56.616C301.012 56.408 300.807 56.2427 300.567 56.12C300.332 55.9973 300.071 55.936 299.783 55.936C299.479 55.936 299.207 56 298.967 56.128C298.727 56.256 298.521 56.424 298.351 56.632C298.185 56.84 298.057 57.0773 297.967 57.344C297.876 57.6107 297.831 57.8827 297.831 58.16ZM306.572 55.32H307.18L309.5 61H308.732L308.06 59.336H305.676L305.012 61H304.244L306.572 55.32ZM307.9 58.776L306.876 56.152L305.82 58.776H307.9ZM311.858 61V55.328H312.578V58.464L315.506 55.32H316.282L314.002 57.824L316.41 61H315.626L313.562 58.24L312.578 59.264V61H311.858Z" fill="black"/>
<path d="M291.164 22.6406L286.945 21.3906C286.438 21.2734 286.125 20.8047 286.125 20.2969C286.125 19.6719 286.633 19.125 287.258 19.125H289.836C290.344 19.125 290.812 19.2812 291.203 19.5547C291.438 19.7109 291.75 19.6719 291.945 19.4766L293.312 18.1484C293.586 17.875 293.547 17.4453 293.234 17.1719C292.297 16.4297 291.086 16.0391 289.875 16V14.125C289.875 13.8125 289.562 13.5 289.25 13.5H288C287.648 13.5 287.375 13.8125 287.375 14.125V16H287.258C284.758 16 282.766 18.1484 283 20.6875C283.156 22.4844 284.523 23.9688 286.281 24.4766L290.266 25.6484C290.773 25.7656 291.125 26.2344 291.125 26.7422C291.125 27.3672 290.578 27.875 289.953 27.875H287.375C286.906 27.875 286.438 27.7578 286.047 27.4844C285.773 27.3281 285.461 27.3672 285.266 27.5625L283.898 28.8906C283.625 29.1641 283.664 29.5938 283.977 29.8281C284.953 30.6094 286.125 31 287.375 31V32.875C287.375 33.2266 287.648 33.5 288 33.5H289.25C289.562 33.5 289.875 33.2266 289.875 32.875V31C291.672 30.9609 293.391 29.9062 293.977 28.1875C294.836 25.7656 293.43 23.3047 291.164 22.6406Z" fill="#CCCCCC"/>
<path d="M91 253.48L104 231.479L91 209.48H65L52 231.479L65 253.48H91Z" fill="white"/>
<path d="M90.1642 252.449H65.8358L53.6692 231.38L65.8358 210.313H90.1642L102.331 231.38L90.1642 252.449ZM64.4988 254.763H91.5012L105 231.38L91.5012 208H64.4988L51 231.38L64.4988 254.763Z" fill="url(#paint12_linear)"/>
<path d="M12.68 219V213.32H16.432V213.96H13.4V215.856H15.952V216.456H13.4V219H12.68ZM20.2346 213.32H20.8426L23.1626 219H22.3946L21.7226 217.336H19.3386L18.6746 219H17.9066L20.2346 213.32ZM21.5626 216.776L20.5386 214.152L19.4826 216.776H21.5626ZM29.8806 217.536C29.8806 217.755 29.8353 217.955 29.7446 218.136C29.6593 218.317 29.5393 218.472 29.3846 218.6C29.2353 218.728 29.0593 218.827 28.8566 218.896C28.6593 218.965 28.446 219 28.2166 219H25.5206V213.32H28.3446C28.542 213.32 28.7206 213.363 28.8806 213.448C29.0406 213.533 29.1766 213.645 29.2886 213.784C29.4006 213.917 29.486 214.072 29.5446 214.248C29.6086 214.419 29.6406 214.592 29.6406 214.768C29.6406 215.051 29.5686 215.312 29.4246 215.552C29.286 215.792 29.086 215.971 28.8246 216.088C29.15 216.184 29.406 216.363 29.5926 216.624C29.7846 216.88 29.8806 217.184 29.8806 217.536ZM29.1526 217.408C29.1526 217.28 29.1286 217.157 29.0806 217.04C29.038 216.917 28.9766 216.811 28.8966 216.72C28.822 216.629 28.7313 216.557 28.6246 216.504C28.518 216.451 28.4006 216.424 28.2726 216.424H26.2406V218.376H28.2166C28.35 218.376 28.4726 218.349 28.5846 218.296C28.6966 218.243 28.7953 218.173 28.8806 218.088C28.966 217.997 29.0326 217.893 29.0806 217.776C29.1286 217.659 29.1526 217.536 29.1526 217.408ZM26.2406 213.944V215.84H28.0486C28.1766 215.84 28.294 215.816 28.4006 215.768C28.5073 215.715 28.598 215.645 28.6726 215.56C28.7526 215.475 28.814 215.376 28.8566 215.264C28.9046 215.147 28.9286 215.024 28.9286 214.896C28.9286 214.763 28.9073 214.637 28.8646 214.52C28.822 214.403 28.7633 214.301 28.6886 214.216C28.6193 214.131 28.5313 214.064 28.4246 214.016C28.3233 213.968 28.214 213.944 28.0966 213.944H26.2406ZM32.4878 219V213.32H34.9198C35.1705 213.32 35.3998 213.373 35.6078 213.48C35.8211 213.581 36.0025 213.72 36.1518 213.896C36.3065 214.067 36.4265 214.261 36.5118 214.48C36.5971 214.693 36.6398 214.912 36.6398 215.136C36.6398 215.333 36.6105 215.525 36.5518 215.712C36.4985 215.893 36.4185 216.059 36.3118 216.208C36.2105 216.357 36.0851 216.485 35.9358 216.592C35.7918 216.699 35.6291 216.776 35.4478 216.824L36.8238 219H36.0078L34.7118 216.96H33.2078V219H32.4878ZM33.2078 216.32H34.9278C35.0771 216.32 35.2105 216.288 35.3278 216.224C35.4505 216.16 35.5545 216.075 35.6398 215.968C35.7251 215.856 35.7918 215.728 35.8398 215.584C35.8878 215.44 35.9118 215.291 35.9118 215.136C35.9118 214.976 35.8825 214.827 35.8238 214.688C35.7705 214.544 35.6958 214.419 35.5998 214.312C35.5091 214.2 35.3998 214.115 35.2718 214.056C35.1491 213.992 35.0185 213.96 34.8798 213.96H33.2078V216.32ZM39.3456 219V213.32H40.0656V219H39.3456ZM42.6558 216.12C42.6558 215.779 42.7144 215.44 42.8318 215.104C42.9544 214.763 43.1304 214.459 43.3598 214.192C43.5944 213.92 43.8798 213.701 44.2158 213.536C44.5518 213.371 44.9331 213.288 45.3598 213.288C45.8664 213.288 46.3011 213.403 46.6638 213.632C47.0264 213.861 47.2958 214.16 47.4718 214.528L46.9038 214.896C46.8184 214.715 46.7144 214.563 46.5918 214.44C46.4744 214.317 46.3438 214.219 46.1998 214.144C46.0611 214.069 45.9171 214.016 45.7678 213.984C45.6184 213.952 45.4718 213.936 45.3278 213.936C45.0131 213.936 44.7331 214.003 44.4878 214.136C44.2478 214.264 44.0451 214.435 43.8798 214.648C43.7144 214.856 43.5891 215.093 43.5038 215.36C43.4238 215.621 43.3838 215.885 43.3838 216.152C43.3838 216.451 43.4318 216.736 43.5278 217.008C43.6291 217.275 43.7678 217.512 43.9438 217.72C44.1198 217.928 44.3278 218.093 44.5678 218.216C44.8078 218.339 45.0691 218.4 45.3518 218.4C45.5011 218.4 45.6531 218.381 45.8078 218.344C45.9678 218.307 46.1198 218.248 46.2638 218.168C46.4078 218.083 46.5411 217.979 46.6638 217.856C46.7918 217.728 46.8958 217.576 46.9758 217.4L47.5758 217.728C47.4851 217.941 47.3571 218.131 47.1918 218.296C47.0318 218.456 46.8478 218.592 46.6398 218.704C46.4371 218.816 46.2211 218.901 45.9918 218.96C45.7624 219.019 45.5384 219.048 45.3198 219.048C44.9304 219.048 44.5731 218.963 44.2478 218.792C43.9224 218.621 43.6398 218.4 43.3997 218.128C43.1651 217.851 42.9811 217.539 42.8478 217.192C42.7198 216.84 42.6558 216.483 42.6558 216.12Z" fill="black"/>
<path d="M80.1641 230.641L75.9453 229.391C75.4375 229.273 75.125 228.805 75.125 228.297C75.125 227.672 75.6328 227.125 76.2578 227.125H78.8359C79.3438 227.125 79.8125 227.281 80.2031 227.555C80.4375 227.711 80.75 227.672 80.9453 227.477L82.3125 226.148C82.5859 225.875 82.5469 225.445 82.2344 225.172C81.2969 224.43 80.0859 224.039 78.875 224V222.125C78.875 221.812 78.5625 221.5 78.25 221.5H77C76.6484 221.5 76.375 221.812 76.375 222.125V224H76.2578C73.7578 224 71.7656 226.148 72 228.688C72.1562 230.484 73.5234 231.969 75.2812 232.477L79.2656 233.648C79.7734 233.766 80.125 234.234 80.125 234.742C80.125 235.367 79.5781 235.875 78.9531 235.875H76.375C75.9062 235.875 75.4375 235.758 75.0469 235.484C74.7734 235.328 74.4609 235.367 74.2656 235.562L72.8984 236.891C72.625 237.164 72.6641 237.594 72.9766 237.828C73.9531 238.609 75.125 239 76.375 239V240.875C76.375 241.227 76.6484 241.5 77 241.5H78.25C78.5625 241.5 78.875 241.227 78.875 240.875V239C80.6719 238.961 82.3906 237.906 82.9766 236.188C83.8359 233.766 82.4297 231.305 80.1641 230.641Z" fill="#CCCCCC"/>
<path d="M135.754 219.851L119.309 191.368L135.754 162.887H168.642L185.086 191.368L168.642 219.851H135.754Z" fill="white"/>
<path d="M136.909 217.851H167.487L182.777 191.368L167.487 164.887H136.909L121.618 191.368L136.909 217.851ZM169.797 221.851H134.599L117 191.368L134.599 160.887H169.797L187.396 191.368L169.797 221.851Z" fill="url(#paint13_linear)"/>
<path d="M135.754 219.851L119.309 191.368L135.754 162.887H168.642L185.086 191.368L168.642 219.851H135.754Z" fill="white"/>
<path d="M142 190.57C141.933 190.497 141.837 190.42 141.71 190.34C141.583 190.253 141.433 190.173 141.26 190.1C141.093 190.027 140.907 189.967 140.7 189.92C140.5 189.873 140.293 189.85 140.08 189.85C139.607 189.85 139.257 189.937 139.03 190.11C138.81 190.283 138.7 190.523 138.7 190.83C138.7 191.003 138.733 191.147 138.8 191.26C138.873 191.367 138.983 191.463 139.13 191.55C139.277 191.63 139.46 191.703 139.68 191.77C139.9 191.83 140.157 191.897 140.45 191.97C140.81 192.057 141.133 192.153 141.42 192.26C141.713 192.367 141.96 192.497 142.16 192.65C142.36 192.803 142.513 192.993 142.62 193.22C142.733 193.44 142.79 193.71 142.79 194.03C142.79 194.39 142.72 194.7 142.58 194.96C142.447 195.22 142.26 195.433 142.02 195.6C141.787 195.76 141.513 195.88 141.2 195.96C140.887 196.033 140.55 196.07 140.19 196.07C139.65 196.07 139.127 195.99 138.62 195.83C138.12 195.663 137.667 195.423 137.26 195.11L137.77 194.15C137.857 194.237 137.98 194.333 138.14 194.44C138.307 194.547 138.497 194.647 138.71 194.74C138.93 194.827 139.167 194.903 139.42 194.97C139.673 195.03 139.937 195.06 140.21 195.06C140.65 195.06 140.99 194.983 141.23 194.83C141.47 194.677 141.59 194.45 141.59 194.15C141.59 193.97 141.543 193.82 141.45 193.7C141.363 193.58 141.237 193.477 141.07 193.39C140.903 193.297 140.7 193.213 140.46 193.14C140.22 193.067 139.947 192.99 139.64 192.91C139.287 192.817 138.977 192.72 138.71 192.62C138.45 192.513 138.233 192.387 138.06 192.24C137.887 192.093 137.753 191.923 137.66 191.73C137.573 191.53 137.53 191.29 137.53 191.01C137.53 190.663 137.597 190.357 137.73 190.09C137.863 189.817 138.043 189.59 138.27 189.41C138.503 189.223 138.777 189.083 139.09 188.99C139.403 188.897 139.743 188.85 140.11 188.85C140.59 188.85 141.033 188.927 141.44 189.08C141.847 189.233 142.203 189.423 142.51 189.65L142 190.57ZM150.783 195.01V196H145.913V188.9H150.693V189.89H147.033V191.91H150.203V192.84H147.033V195.01H150.783ZM156.029 188.9H157.009L159.809 196H158.629L157.879 194.07H155.139L154.399 196H153.209L156.029 188.9ZM157.659 193.24L156.519 190.19L155.339 193.24H157.659ZM167.194 189.89H164.834V196H163.704V189.89H161.334V188.9H167.194V189.89Z" fill="black"/>
<path d="M305.487 88H274.909L259.619 114.483L274.909 140.964H305.487L320.778 114.483L305.487 88ZM272.599 84H307.797L325.396 114.483L307.797 144.964H272.599L255 114.483L272.599 84" fill="url(#paint14_linear)"/>
<path d="M273.754 142.964L257.309 114.481L273.754 86H306.642L323.086 114.481L306.642 142.964H273.754Z" fill="white"/>
<path d="M275.8 119.113V112.013H276.92V118.123H280.73V119.113H275.8ZM288.51 118.123V119.113H283.64V112.013H288.42V113.003H284.76V115.023H287.93V115.953H284.76V118.123H288.51ZM296.489 118.233C295.889 118.853 295.199 119.163 294.419 119.163C293.945 119.163 293.505 119.067 293.099 118.873C292.692 118.673 292.339 118.407 292.039 118.073C291.739 117.74 291.502 117.353 291.329 116.913C291.162 116.473 291.079 116.013 291.079 115.533C291.079 115.053 291.162 114.597 291.329 114.163C291.502 113.73 291.739 113.35 292.039 113.023C292.339 112.697 292.695 112.44 293.109 112.253C293.522 112.06 293.972 111.963 294.459 111.963C295.139 111.963 295.709 112.107 296.169 112.393C296.629 112.673 296.975 113.047 297.209 113.513L296.349 114.133C296.155 113.747 295.889 113.457 295.549 113.263C295.209 113.07 294.835 112.973 294.429 112.973C294.095 112.973 293.792 113.047 293.519 113.193C293.245 113.333 293.012 113.523 292.819 113.763C292.625 113.997 292.475 114.27 292.369 114.583C292.269 114.897 292.219 115.223 292.219 115.563C292.219 115.923 292.275 116.26 292.389 116.573C292.509 116.887 292.669 117.16 292.869 117.393C293.075 117.627 293.319 117.813 293.599 117.953C293.879 118.087 294.182 118.153 294.509 118.153C294.869 118.153 295.212 118.07 295.539 117.903C295.872 117.737 296.189 117.473 296.489 117.113V116.353H294.999V115.523H297.429V119.113H296.489V118.233ZM304.906 113.683C304.84 113.61 304.743 113.533 304.616 113.453C304.49 113.367 304.34 113.287 304.166 113.213C304 113.14 303.813 113.08 303.606 113.033C303.406 112.987 303.2 112.963 302.986 112.963C302.513 112.963 302.163 113.05 301.936 113.223C301.716 113.397 301.606 113.637 301.606 113.943C301.606 114.117 301.64 114.26 301.706 114.373C301.78 114.48 301.89 114.577 302.036 114.663C302.183 114.743 302.366 114.817 302.586 114.883C302.806 114.943 303.063 115.01 303.356 115.083C303.716 115.17 304.04 115.267 304.326 115.373C304.62 115.48 304.866 115.61 305.066 115.763C305.266 115.917 305.42 116.107 305.526 116.333C305.64 116.553 305.696 116.823 305.696 117.143C305.696 117.503 305.626 117.813 305.486 118.073C305.353 118.333 305.166 118.547 304.926 118.713C304.693 118.873 304.42 118.993 304.106 119.073C303.793 119.147 303.456 119.183 303.096 119.183C302.556 119.183 302.033 119.103 301.526 118.943C301.026 118.777 300.573 118.537 300.166 118.223L300.676 117.263C300.763 117.35 300.886 117.447 301.046 117.553C301.213 117.66 301.403 117.76 301.616 117.853C301.836 117.94 302.073 118.017 302.326 118.083C302.58 118.143 302.843 118.173 303.116 118.173C303.556 118.173 303.896 118.097 304.136 117.943C304.376 117.79 304.496 117.563 304.496 117.263C304.496 117.083 304.45 116.933 304.356 116.813C304.27 116.693 304.143 116.59 303.976 116.503C303.81 116.41 303.606 116.327 303.366 116.253C303.126 116.18 302.853 116.103 302.546 116.023C302.193 115.93 301.883 115.833 301.616 115.733C301.356 115.627 301.14 115.5 300.966 115.353C300.793 115.207 300.66 115.037 300.566 114.843C300.48 114.643 300.436 114.403 300.436 114.123C300.436 113.777 300.503 113.47 300.636 113.203C300.77 112.93 300.95 112.703 301.176 112.523C301.41 112.337 301.683 112.197 301.996 112.103C302.31 112.01 302.65 111.963 303.016 111.963C303.496 111.963 303.94 112.04 304.346 112.193C304.753 112.347 305.11 112.537 305.416 112.763L304.906 113.683Z" fill="black"/>
</g>
<defs>
<filter id="filter0_d" x="0" y="0" width="487.709" height="348.54" filterUnits="userSpaceOnUse" color-interpolation-filters="sRGB">
<feFlood flood-opacity="0" result="BackgroundImageFix"/>
<feColorMatrix in="SourceAlpha" type="matrix" values="0 0 0 0 0 0 0 0 0 0 0 0 0 0 0 0 0 0 127 0"/>
<feOffset dy="4"/>
<feGaussianBlur stdDeviation="2"/>
<feColorMatrix type="matrix" values="0 0 0 0 0 0 0 0 0 0 0 0 0 0 0 0 0 0 0.25 0"/>
<feBlend mode="normal" in2="BackgroundImageFix" result="effect1_dropShadow"/>
<feBlend mode="normal" in="SourceGraphic" in2="effect1_dropShadow" result="shape"/>
</filter>
<linearGradient id="paint0_linear" x1="-384.551" y1="180.701" x2="632.477" y2="176.377" gradientUnits="userSpaceOnUse">
<stop stop-color="#80203B"/>
<stop offset="0.0348449" stop-color="#80203B"/>
<stop offset="0.225296" stop-color="#F57336"/>
<stop offset="0.258693" stop-color="#F57336"/>
<stop offset="0.529644" stop-color="#21409A"/>
<stop offset="0.580765" stop-color="#21409A"/>
<stop offset="0.778656" stop-color="#4DAAAB"/>
<stop offset="0.787808" stop-color="#4DAAAB"/>
<stop offset="0.996047" stop-color="#004563"/>
<stop offset="0.99606" stop-color="#004563"/>
<stop offset="1" stop-color="#004563"/>
</linearGradient>
<linearGradient id="paint1_linear" x1="83.0377" y1="351.708" x2="106.378" y2="-146.262" gradientUnits="userSpaceOnUse">
<stop stop-color="#80203B"/>
<stop offset="0.0348449" stop-color="#80203B"/>
<stop offset="0.225296" stop-color="#F57336"/>
<stop offset="0.258693" stop-color="#F57336"/>
<stop offset="0.529644" stop-color="#21409A"/>
<stop offset="0.580765" stop-color="#21409A"/>
<stop offset="0.778656" stop-color="#4DAAAB"/>
<stop offset="0.787808" stop-color="#4DAAAB"/>
<stop offset="0.996047" stop-color="#004563"/>
<stop offset="0.99606" stop-color="#004563"/>
<stop offset="1" stop-color="#004563"/>
</linearGradient>
<linearGradient id="paint2_linear" x1="351.293" y1="411.256" x2="390.998" y2="-416.388" gradientUnits="userSpaceOnUse">
<stop stop-color="#802052"/>
<stop offset="0.369792" stop-color="#80203B"/>
<stop offset="0.529644" stop-color="#21409A"/>
<stop offset="0.580765" stop-color="#21409A"/>
<stop offset="0.778656" stop-color="#4DAAAB"/>
<stop offset="0.787808" stop-color="#4DAAAB"/>
<stop offset="0.996047" stop-color="#004563"/>
<stop offset="0.99606" stop-color="#004563"/>
<stop offset="1" stop-color="#004563"/>
</linearGradient>
<linearGradient id="paint3_linear" x1="108.002" y1="140.843" x2="139.921" y2="316.025" gradientUnits="userSpaceOnUse">
<stop stop-color="#80203B"/>
<stop offset="0.0348449" stop-color="#80203B"/>
<stop offset="0.225296" stop-color="#F57336"/>
<stop offset="0.258693" stop-color="#F57336"/>
<stop offset="0.529644" stop-color="#21409A"/>
<stop offset="0.580765" stop-color="#21409A"/>
<stop offset="0.778656" stop-color="#4DAAAB"/>
<stop offset="0.787808" stop-color="#4DAAAB"/>
<stop offset="0.996047" stop-color="#004563"/>
<stop offset="0.99606" stop-color="#004563"/>
<stop offset="1" stop-color="#004563"/>
</linearGradient>
<linearGradient id="paint4_linear" x1="225.773" y1="160.167" x2="-182.319" y2="158.159" gradientUnits="userSpaceOnUse">
<stop stop-color="#80203B"/>
<stop offset="0.0348449" stop-color="#80203B"/>
<stop offset="0.225296" stop-color="#F57336"/>
<stop offset="0.258693" stop-color="#F57336"/>
<stop offset="0.529644" stop-color="#21409A"/>
<stop offset="0.580765" stop-color="#21409A"/>
<stop offset="0.778656" stop-color="#4DAAAB"/>
<stop offset="0.787808" stop-color="#4DAAAB"/>
<stop offset="0.996047" stop-color="#004563"/>
<stop offset="0.99606" stop-color="#004563"/>
<stop offset="1" stop-color="#004563"/>
</linearGradient>
<linearGradient id="paint5_linear" x1="198.08" y1="311.125" x2="-107.99" y2="309.619" gradientUnits="userSpaceOnUse">
<stop stop-color="#80203B"/>
<stop offset="0.0348449" stop-color="#80203B"/>
<stop offset="0.225296" stop-color="#F57336"/>
<stop offset="0.258693" stop-color="#F57336"/>
<stop offset="0.529644" stop-color="#21409A"/>
<stop offset="0.580765" stop-color="#21409A"/>
<stop offset="0.778656" stop-color="#4DAAAB"/>
<stop offset="0.787808" stop-color="#4DAAAB"/>
<stop offset="0.996047" stop-color="#004563"/>
<stop offset="0.99606" stop-color="#004563"/>
<stop offset="1" stop-color="#004563"/>
</linearGradient>
<linearGradient id="paint6_linear" x1="268.08" y1="310.125" x2="-37.9895" y2="308.619" gradientUnits="userSpaceOnUse">
<stop stop-color="#80203B"/>
<stop offset="0.0348449" stop-color="#80203B"/>
<stop offset="0.225296" stop-color="#F57336"/>
<stop offset="0.258693" stop-color="#F57336"/>
<stop offset="0.529644" stop-color="#21409A"/>
<stop offset="0.580765" stop-color="#21409A"/>
<stop offset="0.778656" stop-color="#4DAAAB"/>
<stop offset="0.787808" stop-color="#4DAAAB"/>
<stop offset="0.996047" stop-color="#004563"/>
<stop offset="0.99606" stop-color="#004563"/>
<stop offset="1" stop-color="#004563"/>
</linearGradient>
<linearGradient id="paint7_linear" x1="144.08" y1="276.125" x2="-161.99" y2="274.619" gradientUnits="userSpaceOnUse">
<stop stop-color="#80203B"/>
<stop offset="0.0348449" stop-color="#80203B"/>
<stop offset="0.225296" stop-color="#F57336"/>
<stop offset="0.258693" stop-color="#F57336"/>
<stop offset="0.529644" stop-color="#21409A"/>
<stop offset="0.580765" stop-color="#21409A"/>
<stop offset="0.778656" stop-color="#4DAAAB"/>
<stop offset="0.787808" stop-color="#4DAAAB"/>
<stop offset="0.996047" stop-color="#004563"/>
<stop offset="0.99606" stop-color="#004563"/>
<stop offset="1" stop-color="#004563"/>
</linearGradient>
<linearGradient id="paint8_linear" x1="531.983" y1="68.1669" x2="123.89" y2="66.1587" gradientUnits="userSpaceOnUse">
<stop stop-color="#802052"/>
<stop offset="0.369792" stop-color="#80203B"/>
<stop offset="0.529644" stop-color="#21409A"/>
<stop offset="0.580765" stop-color="#21409A"/>
<stop offset="0.778656" stop-color="#4DAAAB"/>
<stop offset="0.787808" stop-color="#4DAAAB"/>
<stop offset="0.996047" stop-color="#004563"/>
<stop offset="0.99606" stop-color="#004563"/>
<stop offset="1" stop-color="#004563"/>
</linearGradient>
<linearGradient id="paint9_linear" x1="562.289" y1="109.125" x2="256.22" y2="107.619" gradientUnits="userSpaceOnUse">
<stop stop-color="#802052"/>
<stop offset="0.369792" stop-color="#80203B"/>
<stop offset="0.529644" stop-color="#21409A"/>
<stop offset="0.580765" stop-color="#21409A"/>
<stop offset="0.778656" stop-color="#4DAAAB"/>
<stop offset="0.787808" stop-color="#4DAAAB"/>
<stop offset="0.996047" stop-color="#004563"/>
<stop offset="0.99606" stop-color="#004563"/>
<stop offset="1" stop-color="#004563"/>
</linearGradient>
<linearGradient id="paint10_linear" x1="489.289" y1="143.125" x2="183.22" y2="141.619" gradientUnits="userSpaceOnUse">
<stop stop-color="#802052"/>
<stop offset="0.369792" stop-color="#80203B"/>
<stop offset="0.529644" stop-color="#21409A"/>
<stop offset="0.580765" stop-color="#21409A"/>
<stop offset="0.778656" stop-color="#4DAAAB"/>
<stop offset="0.787808" stop-color="#4DAAAB"/>
<stop offset="0.996047" stop-color="#004563"/>
<stop offset="0.99606" stop-color="#004563"/>
<stop offset="1" stop-color="#004563"/>
</linearGradient>
<linearGradient id="paint11_linear" x1="448.773" y1="24.1669" x2="40.6806" y2="22.1587" gradientUnits="userSpaceOnUse">
<stop stop-color="#802052"/>
<stop offset="0.369792" stop-color="#80203B"/>
<stop offset="0.529644" stop-color="#21409A"/>
<stop offset="0.580765" stop-color="#21409A"/>
<stop offset="0.778656" stop-color="#4DAAAB"/>
<stop offset="0.787808" stop-color="#4DAAAB"/>
<stop offset="0.996047" stop-color="#004563"/>
<stop offset="0.99606" stop-color="#004563"/>
<stop offset="1" stop-color="#004563"/>
</linearGradient>
<linearGradient id="paint12_linear" x1="237.773" y1="232.167" x2="-170.319" y2="230.159" gradientUnits="userSpaceOnUse">
<stop stop-color="#80203B"/>
<stop offset="0.0348449" stop-color="#80203B"/>
<stop offset="0.225296" stop-color="#F57336"/>
<stop offset="0.258693" stop-color="#F57336"/>
<stop offset="0.529644" stop-color="#21409A"/>
<stop offset="0.580765" stop-color="#21409A"/>
<stop offset="0.778656" stop-color="#4DAAAB"/>
<stop offset="0.787808" stop-color="#4DAAAB"/>
<stop offset="0.996047" stop-color="#004563"/>
<stop offset="0.99606" stop-color="#004563"/>
<stop offset="1" stop-color="#004563"/>
</linearGradient>
<linearGradient id="paint13_linear" x1="90.0708" y1="191.675" x2="812.737" y2="188.119" gradientUnits="userSpaceOnUse">
<stop stop-color="#80203B"/>
<stop offset="0.0348449" stop-color="#80203B"/>
<stop offset="0.225296" stop-color="#F57336"/>
<stop offset="0.258693" stop-color="#F57336"/>
<stop offset="0.529644" stop-color="#21409A"/>
<stop offset="0.580765" stop-color="#21409A"/>
<stop offset="0.778656" stop-color="#4DAAAB"/>
<stop offset="0.787808" stop-color="#4DAAAB"/>
<stop offset="0.996047" stop-color="#004563"/>
<stop offset="0.99606" stop-color="#004563"/>
<stop offset="1" stop-color="#004563"/>
</linearGradient>
<linearGradient id="paint14_linear" x1="498.482" y1="113.458" x2="-33.5173" y2="116.076" gradientUnits="userSpaceOnUse">
<stop stop-color="#802052"/>
<stop offset="0.369792" stop-color="#80203B"/>
<stop offset="0.529644" stop-color="#21409A"/>
<stop offset="0.580765" stop-color="#21409A"/>
<stop offset="0.778656" stop-color="#4DAAAB"/>
<stop offset="0.787808" stop-color="#4DAAAB"/>
<stop offset="0.996047" stop-color="#004563"/>
<stop offset="0.99606" stop-color="#004563"/>
<stop offset="1" stop-color="#004563"/>
</linearGradient>
</defs>
</svg>
