<svg width="220" height="64" viewBox="0 0 220 64" fill="none" xmlns="http://www.w3.org/2000/svg">
<rect width="220" height="64" rx="15" fill="white"/>
<path d="M182.453 38.5216V22.5102H185.414V28.6954C186.028 27.4671 187.147 26.853 188.857 26.853C191.314 26.853 193.2 28.6735 193.2 31.5467V38.5216H190.239V32.2705C190.239 30.2965 189.252 29.4411 187.783 29.4411C186.533 29.4411 185.414 30.2965 185.414 32.2705V38.5216H182.453Z" fill="black"/>
<path d="M179.358 38.5215C177.098 38.5215 175.87 37.4687 175.87 34.9903V29.6385H174.269V27.1162H175.87V24.8132L178.831 24.5061V27.1162H181.244V29.6385H178.831V34.8367C178.831 35.5605 179.182 35.8895 179.752 35.8895H180.981V38.5215H179.358Z" fill="black"/>
<path d="M167.171 38.5215V27.1162H170.044V29.2876C170.439 27.6426 171.601 26.7433 173.575 26.853V29.6385H173.158C171.448 29.6385 170.132 30.7791 170.132 32.6873V38.5215H167.171Z" fill="black"/>
<path d="M159.565 38.8067C156.034 38.8067 153.49 36.1308 153.49 32.8408C153.49 29.5508 156.034 26.853 159.565 26.853C163.097 26.853 165.641 29.5508 165.641 32.8408C165.641 36.1308 163.097 38.8067 159.565 38.8067ZM156.451 32.8408C156.451 34.6174 157.679 36.1089 159.565 36.1089C161.452 36.1089 162.68 34.6174 162.68 32.8408C162.68 31.0642 161.452 29.5508 159.565 29.5508C157.679 29.5508 156.451 31.0642 156.451 32.8408Z" fill="black"/>
<path d="M141.307 38.5215V27.1162H144.225V28.7831C144.817 27.511 145.957 26.853 147.712 26.853C150.168 26.853 152.055 28.6734 152.055 31.5467V38.5215H149.094V32.2705C149.094 30.2965 148.107 29.4411 146.637 29.4411C145.387 29.4411 144.268 30.2965 144.268 32.2705V38.5215H141.307Z" fill="black"/>
<path d="M125.135 38.8067C121.998 38.8067 119.498 36.1528 119.498 32.8628C119.498 29.5727 121.998 26.8749 125.135 26.8749C127.109 26.8749 128.14 27.6865 128.754 28.9147V27.1162H131.693V38.5216H128.82V36.6572C128.206 37.9513 127.175 38.8067 125.135 38.8067ZM122.459 32.8408C122.459 34.5736 123.731 36.1308 125.617 36.1308C127.57 36.1308 128.82 34.6394 128.82 32.8628C128.82 31.0861 127.57 29.5508 125.617 29.5508C123.731 29.5508 122.459 31.0642 122.459 32.8408Z" fill="black"/>
<path d="M112.885 38.5215V27.1162H115.758V29.2876C116.153 27.6426 117.315 26.7433 119.289 26.853V29.6385H118.872C117.162 29.6385 115.846 30.7791 115.846 32.6873V38.5215H112.885Z" fill="black"/>
<path d="M105.279 38.8067C101.748 38.8067 99.2036 36.1308 99.2036 32.8408C99.2036 29.5508 101.748 26.853 105.279 26.853C108.81 26.853 111.355 29.5508 111.355 32.8408C111.355 36.1308 108.81 38.8067 105.279 38.8067ZM102.165 32.8408C102.165 34.6174 103.393 36.1089 105.279 36.1089C107.165 36.1089 108.394 34.6174 108.394 32.8408C108.394 31.0642 107.165 29.5508 105.279 29.5508C103.393 29.5508 102.165 31.0642 102.165 32.8408Z" fill="black"/>
<path d="M91.7351 43.1934C89.4321 43.1934 87.6336 42.645 86.2737 41.0439L88.1161 38.8725C89.1909 40.1008 90.3314 40.4517 91.7571 40.4517C93.3363 40.4517 94.7181 39.1576 94.7181 37.3371V36.8327C94.1039 37.8855 93.1169 38.5873 91.2745 38.5873C88.1381 38.5873 85.7473 35.9992 85.7473 32.7092C85.7473 29.4192 88.1381 26.8311 91.2745 26.8311C93.1608 26.8311 94.1697 27.5549 94.7619 28.6735V27.1162H97.6791V37.5126C97.6791 41.022 95.2225 43.1934 91.7351 43.1934ZM88.7083 32.7092C88.7083 34.4419 89.8269 35.8895 91.7571 35.8895C93.7091 35.8895 94.8497 34.4858 94.8497 32.7092C94.8497 30.9326 93.7091 29.5289 91.7571 29.5289C89.8269 29.5289 88.7083 30.9326 88.7083 32.7092Z" fill="black"/>
<path d="M77.6491 38.8067C74.5126 38.8067 72.0122 36.1528 72.0122 32.8628C72.0122 29.5727 74.5126 26.8749 77.6491 26.8749C79.6231 26.8749 80.654 27.6865 81.2681 28.9147V27.1162H84.2072V38.5216H81.3339V36.6572C80.7198 37.9513 79.6889 38.8067 77.6491 38.8067ZM74.9732 32.8408C74.9732 34.5736 76.2453 36.1308 78.1316 36.1308C80.0837 36.1308 81.3339 34.6394 81.3339 32.8628C81.3339 31.0861 80.0837 29.5508 78.1316 29.5508C76.2453 29.5508 74.9732 31.0642 74.9732 32.8408Z" fill="black"/>
<path d="M59.8298 38.5216V22.5102H62.7908V28.6954C63.405 27.4671 64.5236 26.853 66.2344 26.853C68.6909 26.853 70.5772 28.6735 70.5772 31.5467V38.5216H67.6162V32.2705C67.6162 30.2965 66.6292 29.4411 65.1596 29.4411C63.9094 29.4411 62.7908 30.2965 62.7908 32.2705V38.5216H59.8298Z" fill="black"/>
<path d="M56.7345 38.5215C54.4754 38.5215 53.2471 37.4687 53.2471 34.9903V29.6385H51.646V27.1162H53.2471V24.8132L56.2081 24.5061V27.1162H58.6208V29.6385H56.2081V34.8367C56.2081 35.5605 56.5591 35.8895 57.1293 35.8895H58.3576V38.5215H56.7345Z" fill="black"/>
<path d="M41.2121 43.1056C40.6199 43.1056 39.8303 43.0618 39.2381 42.8863L39.6767 40.0569C40.1154 40.1666 40.5321 40.2104 41.0147 40.2104C42.1552 40.2104 42.879 39.4866 43.208 38.4777L43.3615 37.9952L38.8433 27.1162H42.4184L44.6337 33.6304C44.8311 34.1788 45.0065 34.8587 45.1162 35.4509C45.2259 34.8587 45.4013 34.1788 45.5987 33.6304L47.814 27.1162H51.3234L46.2787 39.2454C45.3136 41.5484 43.8879 43.1056 41.2121 43.1056Z" fill="black"/>
<path d="M27 42.9082V27.1162H29.9171V28.9586C30.5313 27.7084 31.5621 26.8749 33.5581 26.8749C36.6946 26.8749 39.195 29.5727 39.195 32.8628C39.195 36.1528 36.6946 38.8067 33.5581 38.8067C31.606 38.8067 30.5751 38.0171 29.961 36.8327V42.9082H27ZM29.8733 32.8628C29.8733 34.6394 31.1235 36.1308 33.0755 36.1308C34.9618 36.1308 36.234 34.5736 36.234 32.8408C36.234 31.0642 34.9618 29.5508 33.0755 29.5508C31.1235 29.5508 29.8733 31.0861 29.8733 32.8628Z" fill="black"/>
<path d="M159.673 20L162.11 24.3867H157.236L159.673 20Z" fill="url(#paint0_linear_1112_22)"/>
<path d="M159.673 20L162.11 24.3867H157.236L159.673 20Z" fill="url(#paint1_linear_1112_22)"/>
<defs>
<linearGradient id="paint0_linear_1112_22" x1="159.673" y1="20" x2="159.673" y2="24.3867" gradientUnits="userSpaceOnUse">
<stop stop-color="#E7542F"/>
<stop offset="1" stop-color="#E7542F" stop-opacity="0.99"/>
</linearGradient>
<linearGradient id="paint1_linear_1112_22" x1="159.673" y1="20" x2="159.673" y2="24.3867" gradientUnits="userSpaceOnUse">
<stop stop-color="#E7542F"/>
<stop offset="1" stop-color="#E7542F" stop-opacity="0.99"/>
</linearGradient>
</defs>
</svg>
