<svg width="210" height="266" viewBox="0 0 210 266" fill="none" xmlns="http://www.w3.org/2000/svg">
<path d="M56.6932 77.0909C56.6932 75.2301 55.5795 74.1023 54.0739 74.1023C52.5625 74.1023 51.4517 75.2301 51.4517 77.0909C51.4517 78.9489 52.5625 80.0795 54.0739 80.0795C55.5795 80.0795 56.6932 78.9517 56.6932 77.0909ZM55.8239 77.0909C55.8239 78.5085 55.0739 79.2784 54.0739 79.2784C53.071 79.2784 52.3239 78.5085 52.3239 77.0909C52.3239 75.6733 53.071 74.9034 54.0739 74.9034C55.0739 74.9034 55.8239 75.6733 55.8239 77.0909ZM59.3876 80H60.2655V77.7983H61.4587C61.4786 77.7983 61.4956 77.7983 61.5155 77.7983L62.6973 80H63.6973L62.4075 77.6449C63.1206 77.3807 63.4757 76.7869 63.4757 76.0057C63.4757 74.9347 62.8109 74.1818 61.4615 74.1818H59.3876V80ZM60.2655 77.0426V74.9347H61.3678C62.2342 74.9347 62.5922 75.3466 62.5922 76.0057C62.5922 76.6619 62.2342 77.0426 61.3791 77.0426H60.2655ZM68.0274 80C69.8001 80 70.8257 78.9006 70.8257 77.0824C70.8257 75.2727 69.8001 74.1818 68.0871 74.1818H66.1439V80H68.0274ZM67.0217 79.233V74.9489H68.0331C69.3058 74.9489 69.9621 75.7102 69.9621 77.0824C69.9621 78.4602 69.3058 79.233 67.9791 79.233H67.0217ZM73.5173 80H77.1991V79.2443H74.3952V77.4631H76.9747V76.7102H74.3952V74.9375H77.1651V74.1818H73.5173V80ZM79.9376 80H80.8155V77.7983H82.0087C82.0286 77.7983 82.0456 77.7983 82.0655 77.7983L83.2473 80H84.2473L82.9575 77.6449C83.6706 77.3807 84.0257 76.7869 84.0257 76.0057C84.0257 74.9347 83.3609 74.1818 82.0115 74.1818H79.9376V80ZM80.8155 77.0426V74.9347H81.9178C82.7842 74.9347 83.1422 75.3466 83.1422 76.0057C83.1422 76.6619 82.7842 77.0426 81.9291 77.0426H80.8155Z" fill="black"/>
<path d="M182.472 112.074C182.273 110.83 181.298 110.102 180.068 110.102C178.562 110.102 177.452 111.23 177.452 113.091C177.452 114.952 178.557 116.08 180.068 116.08C181.347 116.08 182.281 115.278 182.472 114.128L181.585 114.125C181.435 114.869 180.81 115.278 180.074 115.278C179.077 115.278 178.324 114.514 178.324 113.091C178.324 111.679 179.074 110.903 180.077 110.903C180.818 110.903 181.44 111.321 181.585 112.074H182.472ZM185.122 116H188.636V115.244H186V110.182H185.122V116ZM192.018 116L192.552 114.46H194.825L195.356 116H196.288L194.194 110.182H193.18L191.086 116H192.018ZM192.808 113.722L193.666 111.239H193.711L194.569 113.722H192.808ZM199.606 110.182H198.728V116H199.606V110.182ZM202.485 110.182V116H203.32V111.787H203.374L205.09 115.991H205.783L207.499 111.79H207.553V116H208.388V110.182H207.323L205.47 114.705H205.402L203.55 110.182H202.485Z" fill="black"/>
<line x1="107.5" y1="186" x2="107.5" y2="266" stroke="#222222"/>
<line x1="104.5" y1="1.416e-08" x2="104.5" y2="80" stroke="#222222"/>
<line x1="155.279" y1="99.4148" x2="54.2792" y2="167.415" stroke="#222222"/>
<line x1="154.717" y1="99.412" x2="106.717" y2="66.412" stroke="#222222"/>
<line x1="107.734" y1="201.423" x2="53.7336" y2="167.423" stroke="#222222"/>
<g filter="url(#filter0_d)">
<path d="M96.6421 149.273L87.3921 133.273L96.6421 117.273H115.142L124.392 133.273C120.78 139.521 118.754 143.025 115.142 149.273H96.6421Z" fill="white"/>
<path d="M96.8764 148.587H114.712L123.632 133.14L114.712 117.696H96.8764L87.9569 133.14L96.8764 148.587ZM115.692 150.282H95.8962L86 133.14L95.8962 116H115.692L125.588 133.14L115.692 150.282Z" fill="#222222"/>
<path d="M110.625 136C110.812 136 111 135.844 111 135.625V134.375C111 134.188 110.812 134 110.625 134H109.375C109.156 134 109 134.188 109 134.375V135.625C109 135.844 109.156 136 109.375 136H110.625ZM107 135.625V134.375C107 134.188 106.812 134 106.625 134H105.375C105.156 134 105 134.188 105 134.375V135.625C105 135.844 105.156 136 105.375 136H106.625C106.812 136 107 135.844 107 135.625ZM103 135.625V134.375C103 134.188 102.812 134 102.625 134H101.375C101.156 134 101 134.188 101 134.375V135.625C101 135.844 101.156 136 101.375 136H102.625C102.812 136 103 135.844 103 135.625ZM114 129.75C114 129.188 113.406 128.844 112.906 129.094L108 131.562V129.75C108 129.188 107.406 128.844 106.906 129.094L102 131.562V125.75C102 125.344 101.656 125 101.25 125H98.75C98.3125 125 98 125.344 98 125.75V138.25C98 138.688 98.3125 139 98.75 139H113.25C113.656 139 114 138.688 114 138.25V129.75ZM101 132.75C101 132.938 101.188 133.062 101.344 133L107 130.156V132.75C107 132.938 107.188 133.062 107.344 133L113 130.156V138H99V126H101V132.75Z" fill="#222222"/>
</g>
<g filter="url(#filter1_d)">
<path d="M97.8577 217.273L87.3577 201.273L97.8577 185.273L116 185L125.5 201.273C121.888 207.521 119.612 211.025 116 217.273H97.8577Z" fill="white"/>
<path d="M97.8764 216.587H115.712L124.632 201.14L115.712 185.696H97.8764L88.9569 201.14L97.8764 216.587ZM116.692 218.282H96.8962L87 201.14L96.8962 184H116.692L126.588 201.14L116.692 218.282Z" fill="url(#paint0_linear)"/>
<path d="M97.8764 216.587H115.712L124.632 201.14L115.712 185.696H97.8764L88.9569 201.14L97.8764 216.587ZM116.692 218.282H96.8962L87 201.14L96.8962 184H116.692L126.588 201.14L116.692 218.282Z" fill="url(#paint1_linear)"/>
<path d="M117.75 205H117V201.625C117 201.125 116.781 200.594 116.406 200.219L113.781 197.594C113.406 197.219 112.906 197 112.375 197H111V195.469C111 194.656 110.281 194 109.438 194H99.5312C98.6875 194 98 194.656 98 195.469V204.562C98 205.375 98.6875 206 99.5312 206H100.031C100 206.188 100 206.344 100 206.5C100 207.906 101.094 209 102.5 209C103.875 209 105 207.906 105 206.5C105 206.344 104.969 206.188 104.938 206H111.031C111 206.188 111 206.344 111 206.5C111 207.906 112.094 209 113.5 209C114.875 209 116 207.906 116 206.5C116 206.344 115.969 206.188 115.938 206H117.75C117.875 206 118 205.906 118 205.75V205.25C118 205.125 117.875 205 117.75 205ZM112.375 198C112.625 198 112.875 198.125 113.062 198.312L115.688 200.938C115.719 200.969 115.719 201 115.75 201.031H111V198.031H112.375V198ZM102.5 208C101.656 208 101 207.344 101 206.5C101 205.688 101.656 205 102.5 205C103.312 205 104 205.688 104 206.5C104 207.344 103.312 208 102.5 208ZM104.469 205C104.031 204.406 103.312 204 102.5 204C101.688 204 100.969 204.406 100.5 205H99.5312C99.2188 205 99 204.812 99 204.562V195.469C99 195.219 99.2188 195 99.5312 195H109.438C109.75 195 110 195.219 110 195.469V205H104.469ZM113.5 208C112.656 208 112 207.344 112 206.5C112 205.688 112.656 205 113.5 205C114.312 205 115 205.688 115 206.5C115 207.344 114.312 208 113.5 208ZM113.5 204C112.656 204 111.969 204.406 111.5 205H111V202H116V205H115.469C115.031 204.406 114.312 204 113.5 204Z" fill="#222222"/>
</g>
<g filter="url(#filter2_d)">
<path d="M95.8577 81.2734L85.3577 65.2726L95.8577 49.2734L114 49.0001L123.5 65.2726C119.888 71.5213 117.612 75.0247 114 81.2734H95.8577Z" fill="white"/>
<path d="M95.8764 80.5867H113.712L122.632 65.1404L113.712 49.6957H95.8764L86.9569 65.1404L95.8764 80.5867ZM114.692 82.2825H94.8962L85 65.1404L94.8962 48H114.692L124.588 65.1404L114.692 82.2825Z" fill="url(#paint2_linear)"/>
<path d="M95.8764 80.5867H113.712L122.632 65.1404L113.712 49.6957H95.8764L86.9569 65.1404L95.8764 80.5867ZM114.692 82.2825H94.8962L85 65.1404L94.8962 48H114.692L124.588 65.1404L114.692 82.2825Z" fill="url(#paint3_linear)"/>
<path d="M95.8764 80.5867H113.712L122.632 65.1404L113.712 49.6957H95.8764L86.9569 65.1404L95.8764 80.5867ZM114.692 82.2825H94.8962L85 65.1404L94.8962 48H114.692L124.588 65.1404L114.692 82.2825Z" fill="#222222"/>
<path d="M107.297 64.0938H103.578C103.412 64.0938 103.312 64.2266 103.312 64.3594V64.8906C103.312 65.0566 103.412 65.1562 103.578 65.1562H107.297C107.43 65.1562 107.562 65.0566 107.562 64.8906V64.3594C107.562 64.2266 107.43 64.0938 107.297 64.0938ZM107.297 67.2812H103.578C103.412 67.2812 103.312 67.4141 103.312 67.5469V68.0781C103.312 68.2441 103.412 68.3438 103.578 68.3438H107.297C107.43 68.3438 107.562 68.2441 107.562 68.0781V67.5469C107.562 67.4141 107.43 67.2812 107.297 67.2812ZM101.719 63.8281C101.254 63.8281 100.922 64.1934 100.922 64.625C100.922 65.0898 101.254 65.4219 101.719 65.4219C102.15 65.4219 102.516 65.0898 102.516 64.625C102.516 64.1934 102.15 63.8281 101.719 63.8281ZM101.719 67.0156C101.254 67.0156 100.922 67.3809 100.922 67.8125C100.922 68.2773 101.254 68.6094 101.719 68.6094C102.15 68.6094 102.516 68.2773 102.516 67.8125C102.516 67.3809 102.15 67.0156 101.719 67.0156ZM109.156 58.25H106.201C106.201 58.1836 106.234 58.084 106.234 57.9844C106.234 56.9883 105.371 56.125 104.375 56.125C103.346 56.125 102.516 56.9883 102.516 57.9844C102.516 58.084 102.516 58.1836 102.516 58.25H99.5938C98.6973 58.25 98 58.9805 98 59.8438V71.5312C98 72.4277 98.6973 73.125 99.5938 73.125H109.156C110.02 73.125 110.75 72.4277 110.75 71.5312V59.8438C110.75 58.9805 110.02 58.25 109.156 58.25ZM104.375 57.1875C104.807 57.1875 105.172 57.5527 105.172 57.9844C105.172 58.4492 104.807 58.7812 104.375 58.7812C103.91 58.7812 103.578 58.4492 103.578 57.9844C103.578 57.5527 103.91 57.1875 104.375 57.1875ZM109.688 71.5312C109.688 71.8301 109.422 72.0625 109.156 72.0625H99.5938C99.2949 72.0625 99.0625 71.8301 99.0625 71.5312V59.8438C99.0625 59.5781 99.2949 59.3125 99.5938 59.3125H101.188V59.9766C101.188 60.209 101.354 60.375 101.586 60.375H107.164C107.363 60.375 107.562 60.209 107.562 59.9766V59.3125H109.156C109.422 59.3125 109.688 59.5781 109.688 59.8438V71.5312Z" fill="#222222"/>
</g>
<g filter="url(#filter3_d)">
<path d="M44.6421 183.282L35.3921 167.282L44.6421 151.282H63.1421L72.3921 167.282C68.7797 173.53 66.7544 177.034 63.1421 183.282H44.6421Z" fill="white"/>
<path d="M44.8764 182.587H62.712L71.6315 167.14L62.712 151.696H44.8764L35.9569 167.14L44.8764 182.587ZM63.6922 184.282H43.8962L34 167.14L43.8962 150H63.6922L73.5884 167.14L63.6922 184.282Z" fill="#222222"/>
<path d="M63.5 165.282H59V158.782C59 158.532 58.75 158.282 58.5 158.282H49.5C49.2188 158.282 49 158.532 49 158.782V165.282H44.5C44.2188 165.282 44 165.532 44 165.782V173.782C44 174.064 44.2188 174.282 44.5 174.282H63.5C63.75 174.282 64 174.064 64 173.782V165.782C64 165.532 63.75 165.282 63.5 165.282ZM60 166.282V168.282H58V166.282H60ZM53 159.282H55V161.282H53V159.282ZM50 159.282H52V161.282C52 161.845 52.4375 162.282 53 162.282H55C55.5312 162.282 56 161.845 56 161.282V159.282H58V165.282H50V159.282ZM48 166.282H50V168.282H48V166.282ZM53.5 173.282H45V166.282H47V168.282C47 168.845 47.4375 169.282 48 169.282H50C50.5312 169.282 51 168.845 51 168.282V166.282H53.5V173.282ZM63 173.282H54.5V166.282H57V168.282C57 168.845 57.4375 169.282 58 169.282H60C60.5312 169.282 61 168.845 61 168.282V166.282H63V173.282Z" fill="#222222"/>
</g>
<path d="M126.639 151H127.517V148.955H128.71C130.06 148.955 130.727 148.139 130.727 147.065C130.727 145.994 130.065 145.182 128.713 145.182H126.639V151ZM127.517 148.21V145.935H128.619C129.489 145.935 129.844 146.406 129.844 147.065C129.844 147.724 129.489 148.21 128.631 148.21H127.517ZM133.356 151H134.234V148.798H135.427C135.447 148.798 135.464 148.798 135.484 148.798L136.666 151H137.666L136.376 148.645C137.089 148.381 137.444 147.787 137.444 147.006C137.444 145.935 136.78 145.182 135.43 145.182H133.356V151ZM134.234 148.043V145.935H135.337C136.203 145.935 136.561 146.347 136.561 147.006C136.561 147.662 136.203 148.043 135.348 148.043H134.234ZM145.167 148.091C145.167 146.23 144.053 145.102 142.547 145.102C141.036 145.102 139.925 146.23 139.925 148.091C139.925 149.949 141.036 151.08 142.547 151.08C144.053 151.08 145.167 149.952 145.167 148.091ZM144.297 148.091C144.297 149.509 143.547 150.278 142.547 150.278C141.544 150.278 140.797 149.509 140.797 148.091C140.797 146.673 141.544 145.903 142.547 145.903C143.547 145.903 144.297 146.673 144.297 148.091ZM149.745 151C151.517 151 152.543 149.901 152.543 148.082C152.543 146.273 151.517 145.182 149.804 145.182H147.861V151H149.745ZM148.739 150.233V145.949H149.75C151.023 145.949 151.679 146.71 151.679 148.082C151.679 149.46 151.023 150.233 149.696 150.233H148.739ZM158.976 145.182V148.938C158.976 149.727 158.431 150.295 157.544 150.295C156.661 150.295 156.112 149.727 156.112 148.938V145.182H155.235V149.009C155.235 150.23 156.149 151.097 157.544 151.097C158.939 151.097 159.857 150.23 159.857 149.009V145.182H158.976ZM167.565 147.074C167.366 145.83 166.392 145.102 165.162 145.102C163.656 145.102 162.545 146.23 162.545 148.091C162.545 149.952 163.651 151.08 165.162 151.08C166.44 151.08 167.375 150.278 167.565 149.128L166.679 149.125C166.528 149.869 165.903 150.278 165.168 150.278C164.17 150.278 163.418 149.514 163.418 148.091C163.418 146.679 164.168 145.903 165.17 145.903C165.912 145.903 166.534 146.321 166.679 147.074H167.565ZM170.216 151H173.898V150.244H171.094V148.463H173.673V147.71H171.094V145.938H173.863V145.182H170.216V151Z" fill="black"/>
<path d="M3.8125 177.71H4.65909C4.63352 176.778 3.80966 176.102 2.62784 176.102C1.46023 176.102 0.565341 176.77 0.565341 177.773C0.565341 178.582 1.14489 179.057 2.07955 179.31L2.76705 179.497C3.3892 179.662 3.86932 179.866 3.86932 180.384C3.86932 180.952 3.3267 181.327 2.57955 181.327C1.90341 181.327 1.34091 181.026 1.28977 180.392H0.409091C0.465909 181.446 1.28125 182.097 2.58523 182.097C3.9517 182.097 4.73864 181.378 4.73864 180.392C4.73864 179.344 3.80398 178.938 3.06534 178.756L2.49716 178.608C2.04261 178.491 1.4375 178.278 1.44034 177.722C1.44034 177.227 1.89205 176.861 2.60795 176.861C3.27557 176.861 3.75 177.173 3.8125 177.71ZM7.10071 176.938H8.91321V182H9.78821V176.938H11.6036V176.182H7.10071V176.938ZM19.0104 179.091C19.0104 177.23 17.8967 176.102 16.3911 176.102C14.8797 176.102 13.7689 177.23 13.7689 179.091C13.7689 180.949 14.8797 182.08 16.3911 182.08C17.8967 182.08 19.0104 180.952 19.0104 179.091ZM18.1411 179.091C18.1411 180.509 17.3911 181.278 16.3911 181.278C15.3882 181.278 14.6411 180.509 14.6411 179.091C14.6411 177.673 15.3882 176.903 16.3911 176.903C17.3911 176.903 18.1411 177.673 18.1411 179.091ZM21.7048 182H22.5827V179.798H23.7759C23.7957 179.798 23.8128 179.798 23.8327 179.798L25.0145 182H26.0145L24.7247 179.645C25.4378 179.381 25.7929 178.787 25.7929 178.006C25.7929 176.935 25.1281 176.182 23.7787 176.182H21.7048V182ZM22.5827 179.043V176.935H23.6849C24.5514 176.935 24.9094 177.347 24.9094 178.006C24.9094 178.662 24.5514 179.043 23.6963 179.043H22.5827ZM28.4611 182H32.1429V181.244H29.3389V179.463H31.9185V178.71H29.3389V176.938H32.1088V176.182H28.4611V182Z" fill="black"/>
<path d="M131.812 212.71H132.659C132.634 211.778 131.81 211.102 130.628 211.102C129.46 211.102 128.565 211.77 128.565 212.773C128.565 213.582 129.145 214.057 130.08 214.31L130.767 214.497C131.389 214.662 131.869 214.866 131.869 215.384C131.869 215.952 131.327 216.327 130.58 216.327C129.903 216.327 129.341 216.026 129.29 215.392H128.409C128.466 216.446 129.281 217.097 130.585 217.097C131.952 217.097 132.739 216.378 132.739 215.392C132.739 214.344 131.804 213.938 131.065 213.756L130.497 213.608C130.043 213.491 129.438 213.278 129.44 212.722C129.44 212.227 129.892 211.861 130.608 211.861C131.276 211.861 131.75 212.173 131.812 212.71ZM135.388 217H136.265V214.463H139.166V217H140.047V211.182H139.166V213.71H136.265V211.182H135.388V217ZM143.803 211.182H142.925V217H143.803V211.182ZM146.681 217H147.559V214.955H148.752C150.102 214.955 150.769 214.139 150.769 213.065C150.769 211.994 150.108 211.182 148.755 211.182H146.681V217ZM147.559 214.21V211.935H148.662C149.531 211.935 149.886 212.406 149.886 213.065C149.886 213.724 149.531 214.21 148.673 214.21H147.559Z" fill="black"/>
<g filter="url(#filter4_d)">
<path d="M165.054 83L174.554 99.0008L165.054 115H146.054L136.554 99.0008L146.054 83H165.054" fill="white"/>
<path d="M165.054 83L174.554 99.0008L165.054 115H146.054L136.554 99.0008L146.054 83H165.054" fill="white"/>
<path d="M164.712 83.6957H146.876L137.957 99.1421L146.876 114.587H164.712L173.632 99.1421L164.712 83.6957ZM145.896 82H165.692L175.588 99.1421L165.692 116.282H145.896L136 99.1421L145.896 82Z" fill="#222222"/>
<path d="M162 92H150C148.875 92 148 92.9062 148 94V103C148 104.125 148.875 105 150 105H153V107.625C153 107.875 153.156 108 153.375 108C153.438 108 153.5 108 153.594 107.938L157.5 105H162C163.094 105 164 104.125 164 103V94C164 92.9062 163.094 92 162 92ZM163 103C163 103.562 162.531 104 162 104H157.156L156.875 104.219L154 106.375V104H150C149.438 104 149 103.562 149 103V94C149 93.4688 149.438 93 150 93H162C162.531 93 163 93.4688 163 94V103ZM156 100.25C155.562 100.25 155.25 100.594 155.25 101C155.25 101.438 155.562 101.75 156 101.75C156.406 101.75 156.75 101.438 156.75 101C156.75 100.594 156.406 100.25 156 100.25ZM155.719 99.5H156.25C156.375 99.5 156.5 99.4062 156.5 99.2812L156.719 95.7812C156.719 95.625 156.625 95.5 156.469 95.5H155.5C155.344 95.5 155.25 95.625 155.25 95.7812L155.469 99.2812C155.469 99.4062 155.594 99.5 155.719 99.5Z" fill="#222222"/>
</g>
<defs>
<filter id="filter0_d" x="80" y="114" width="51.5884" height="46.2825" filterUnits="userSpaceOnUse" color-interpolation-filters="sRGB">
<feFlood flood-opacity="0" result="BackgroundImageFix"/>
<feColorMatrix in="SourceAlpha" type="matrix" values="0 0 0 0 0 0 0 0 0 0 0 0 0 0 0 0 0 0 127 0"/>
<feOffset dy="4"/>
<feGaussianBlur stdDeviation="3"/>
<feColorMatrix type="matrix" values="0 0 0 0 0 0 0 0 0 0 0 0 0 0 0 0 0 0 0.25 0"/>
<feBlend mode="normal" in2="BackgroundImageFix" result="effect1_dropShadow"/>
<feBlend mode="normal" in="SourceGraphic" in2="effect1_dropShadow" result="shape"/>
</filter>
<filter id="filter1_d" x="81" y="182" width="51.5884" height="46.2825" filterUnits="userSpaceOnUse" color-interpolation-filters="sRGB">
<feFlood flood-opacity="0" result="BackgroundImageFix"/>
<feColorMatrix in="SourceAlpha" type="matrix" values="0 0 0 0 0 0 0 0 0 0 0 0 0 0 0 0 0 0 127 0"/>
<feOffset dy="4"/>
<feGaussianBlur stdDeviation="3"/>
<feColorMatrix type="matrix" values="0 0 0 0 0 0 0 0 0 0 0 0 0 0 0 0 0 0 0.25 0"/>
<feBlend mode="normal" in2="BackgroundImageFix" result="effect1_dropShadow"/>
<feBlend mode="normal" in="SourceGraphic" in2="effect1_dropShadow" result="shape"/>
</filter>
<filter id="filter2_d" x="79" y="46" width="51.5884" height="46.2825" filterUnits="userSpaceOnUse" color-interpolation-filters="sRGB">
<feFlood flood-opacity="0" result="BackgroundImageFix"/>
<feColorMatrix in="SourceAlpha" type="matrix" values="0 0 0 0 0 0 0 0 0 0 0 0 0 0 0 0 0 0 127 0"/>
<feOffset dy="4"/>
<feGaussianBlur stdDeviation="3"/>
<feColorMatrix type="matrix" values="0 0 0 0 0 0 0 0 0 0 0 0 0 0 0 0 0 0 0.25 0"/>
<feBlend mode="normal" in2="BackgroundImageFix" result="effect1_dropShadow"/>
<feBlend mode="normal" in="SourceGraphic" in2="effect1_dropShadow" result="shape"/>
</filter>
<filter id="filter3_d" x="28" y="148" width="51.5884" height="46.2825" filterUnits="userSpaceOnUse" color-interpolation-filters="sRGB">
<feFlood flood-opacity="0" result="BackgroundImageFix"/>
<feColorMatrix in="SourceAlpha" type="matrix" values="0 0 0 0 0 0 0 0 0 0 0 0 0 0 0 0 0 0 127 0"/>
<feOffset dy="4"/>
<feGaussianBlur stdDeviation="3"/>
<feColorMatrix type="matrix" values="0 0 0 0 0 0 0 0 0 0 0 0 0 0 0 0 0 0 0.25 0"/>
<feBlend mode="normal" in2="BackgroundImageFix" result="effect1_dropShadow"/>
<feBlend mode="normal" in="SourceGraphic" in2="effect1_dropShadow" result="shape"/>
</filter>
<filter id="filter4_d" x="130" y="80" width="51.5884" height="46.2825" filterUnits="userSpaceOnUse" color-interpolation-filters="sRGB">
<feFlood flood-opacity="0" result="BackgroundImageFix"/>
<feColorMatrix in="SourceAlpha" type="matrix" values="0 0 0 0 0 0 0 0 0 0 0 0 0 0 0 0 0 0 127 0"/>
<feOffset dy="4"/>
<feGaussianBlur stdDeviation="3"/>
<feColorMatrix type="matrix" values="0 0 0 0 0 0 0 0 0 0 0 0 0 0 0 0 0 0 0.25 0"/>
<feBlend mode="normal" in2="BackgroundImageFix" result="effect1_dropShadow"/>
<feBlend mode="normal" in="SourceGraphic" in2="effect1_dropShadow" result="shape"/>
</filter>
<linearGradient id="paint0_linear" x1="-53.9208" y1="207.735" x2="215.2" y2="206.59" gradientUnits="userSpaceOnUse">
<stop stop-color="#80203B"/>
<stop offset="0.0348449" stop-color="#80203B"/>
<stop offset="0.225296" stop-color="#F57336"/>
<stop offset="0.258693" stop-color="#F57336"/>
<stop offset="0.359375" stop-color="#3B7FA4"/>
<stop offset="0.619792" stop-color="#222222"/>
<stop offset="0.778656" stop-color="#4DAAAB"/>
<stop offset="0.787808" stop-color="#4DAAAB"/>
<stop offset="0.996047" stop-color="#004563"/>
<stop offset="0.99606" stop-color="#004563"/>
<stop offset="1" stop-color="#004563"/>
</linearGradient>
<linearGradient id="paint1_linear" x1="-53.9208" y1="207.735" x2="215.2" y2="206.59" gradientUnits="userSpaceOnUse">
<stop stop-color="#80203B"/>
<stop offset="0.0348449" stop-color="#80203B"/>
<stop offset="0.225296" stop-color="#F57336"/>
<stop offset="0.258693" stop-color="#F57336"/>
<stop offset="0.359375" stop-color="#3B7FA4"/>
<stop offset="0.619792" stop-color="#222222"/>
<stop offset="0.778656" stop-color="#4DAAAB"/>
<stop offset="0.787808" stop-color="#4DAAAB"/>
<stop offset="0.996047" stop-color="#004563"/>
<stop offset="0.99606" stop-color="#004563"/>
<stop offset="1" stop-color="#004563"/>
</linearGradient>
<linearGradient id="paint2_linear" x1="-55.9208" y1="71.7347" x2="213.2" y2="70.5905" gradientUnits="userSpaceOnUse">
<stop stop-color="#80203B"/>
<stop offset="0.0348449" stop-color="#80203B"/>
<stop offset="0.225296" stop-color="#F57336"/>
<stop offset="0.258693" stop-color="#F57336"/>
<stop offset="0.359375" stop-color="#3B7FA4"/>
<stop offset="0.619792" stop-color="#222222"/>
<stop offset="0.778656" stop-color="#4DAAAB"/>
<stop offset="0.787808" stop-color="#4DAAAB"/>
<stop offset="0.996047" stop-color="#004563"/>
<stop offset="0.99606" stop-color="#004563"/>
<stop offset="1" stop-color="#004563"/>
</linearGradient>
<linearGradient id="paint3_linear" x1="-55.9208" y1="71.7347" x2="213.2" y2="70.5905" gradientUnits="userSpaceOnUse">
<stop stop-color="#80203B"/>
<stop offset="0.0348449" stop-color="#80203B"/>
<stop offset="0.225296" stop-color="#F57336"/>
<stop offset="0.258693" stop-color="#F57336"/>
<stop offset="0.359375" stop-color="#3B7FA4"/>
<stop offset="0.619792" stop-color="#222222"/>
<stop offset="0.778656" stop-color="#4DAAAB"/>
<stop offset="0.787808" stop-color="#4DAAAB"/>
<stop offset="0.996047" stop-color="#004563"/>
<stop offset="0.99606" stop-color="#004563"/>
<stop offset="1" stop-color="#004563"/>
</linearGradient>
</defs>
</svg>
