<svg width="210" height="266" fill="none" xmlns="http://www.w3.org/2000/svg"><path d="M56.693 77.09c0-1.86-1.113-2.988-2.62-2.988-1.51 0-2.621 1.128-2.621 2.989 0 1.858 1.11 2.989 2.622 2.989 1.506 0 2.62-1.128 2.62-2.99zm-.87 0c0 1.418-.75 2.188-1.75 2.188-1.002 0-1.75-.77-1.75-2.187 0-1.418.748-2.188 1.75-2.188 1 0 1.75.77 1.75 2.188zM59.389 80h.878v-2.202h1.249L62.698 80h1l-1.29-2.355c.714-.264 1.069-.858 1.069-1.64 0-1.07-.665-1.823-2.014-1.823h-2.074V80zm.878-2.957v-2.108h1.102c.866 0 1.224.412 1.224 1.07 0 .657-.358 1.038-1.213 1.038h-1.113zM68.026 80c1.773 0 2.799-1.1 2.799-2.918 0-1.81-1.026-2.9-2.739-2.9h-1.943V80h1.883zm-1.005-.767v-4.284h1.011c1.273 0 1.93.761 1.93 2.133 0 1.378-.657 2.151-1.984 2.151h-.957zm6.495.767H77.2v-.756h-2.804v-1.78h2.58v-.754h-2.58v-1.772h2.77v-.756h-3.648V80zm6.42 0h.879v-2.202h1.249L83.248 80h1l-1.29-2.355c.714-.264 1.069-.858 1.069-1.64 0-1.07-.665-1.823-2.014-1.823h-2.074V80zm.879-2.957v-2.108h1.102c.866 0 1.224.412 1.224 1.07 0 .657-.358 1.038-1.213 1.038h-1.114zM182.472 112.074c-.199-1.244-1.174-1.972-2.404-1.972-1.506 0-2.616 1.128-2.616 2.989s1.105 2.989 2.616 2.989c1.279 0 2.213-.802 2.404-1.952l-.887-.003c-.15.744-.775 1.153-1.511 1.153-.997 0-1.75-.764-1.75-2.187 0-1.412.75-2.188 1.753-2.188.741 0 1.363.418 1.508 1.171h.887zm2.65 3.926h3.514v-.756H186v-5.062h-.878V116zm6.896 0l.534-1.54h2.273l.531 1.54h.932l-2.094-5.818h-1.014L191.086 116h.932zm.79-2.278l.858-2.483h.045l.858 2.483h-1.761zm6.798-3.54h-.878V116h.878v-5.818zm2.879 0V116h.835v-4.213h.054l1.716 4.204h.693l1.716-4.201h.054V116h.835v-5.818h-1.065l-1.853 4.523h-.068l-1.852-4.523h-1.065z" fill="#000"/><path stroke="#222" d="M107.5 186v80M104.5 0v80M155.279 99.415l-101 68M154.717 99.412l-48-33M107.734 201.423l-54-34"/><g filter="url(#filter0_d)"><path d="M96.642 149.273l-9.25-16 9.25-16h18.5l9.25 16-9.25 16h-18.5z" fill="#fff"/><path d="M96.876 148.587h17.836l8.92-15.447-8.92-15.444H96.876l-8.92 15.444 8.92 15.447zm18.816 1.695H95.896L86 133.14 95.896 116h19.796l9.896 17.14-9.896 17.142z" fill="#222"/><path d="M110.625 136a.38.38 0 00.375-.375v-1.25a.404.404 0 00-.375-.375h-1.25a.38.38 0 00-.375.375v1.25a.36.36 0 00.375.375h1.25zm-3.625-.375v-1.25a.404.404 0 00-.375-.375h-1.25a.38.38 0 00-.375.375v1.25a.36.36 0 00.375.375h1.25a.38.38 0 00.375-.375zm-4 0v-1.25a.404.404 0 00-.375-.375h-1.25a.38.38 0 00-.375.375v1.25a.36.36 0 00.375.375h1.25a.38.38 0 00.375-.375zm11-5.875c0-.562-.594-.906-1.094-.656L108 131.562v-1.812c0-.562-.594-.906-1.094-.656L102 131.562v-5.812a.76.76 0 00-.75-.75h-2.5a.74.74 0 00-.75.75v12.5c0 .438.313.75.75.75h14.5a.74.74 0 00.75-.75v-8.5zm-13 3c0 .188.188.312.344.25l5.656-2.844v2.594c0 .188.188.312.344.25l5.656-2.844V138H99v-12h2v6.75z" fill="#222"/></g><g filter="url(#filter1_d)"><path d="M97.858 217.273l-10.5-16 10.5-16L116 185l9.5 16.273c-3.612 6.248-5.888 9.752-9.5 16H97.858z" fill="#fff"/><path d="M97.876 216.587h17.836l8.92-15.447-8.92-15.444H97.876l-8.92 15.444 8.92 15.447zm18.816 1.695H96.896L87 201.14 96.896 184h19.796l9.896 17.14-9.896 17.142z" fill="url(#paint0_linear)"/><path d="M97.876 216.587h17.836l8.92-15.447-8.92-15.444H97.876l-8.92 15.444 8.92 15.447zm18.816 1.695H96.896L87 201.14 96.896 184h19.796l9.896 17.14-9.896 17.142z" fill="url(#paint1_linear)"/><path d="M117.75 205H117v-3.375c0-.5-.219-1.031-.594-1.406l-2.625-2.625a1.988 1.988 0 00-1.406-.594H111v-1.531c0-.813-.719-1.469-1.562-1.469h-9.907c-.844 0-1.531.656-1.531 1.469v9.093c0 .813.688 1.438 1.531 1.438h.5c-.031.188-.031.344-.031.5 0 1.406 1.094 2.5 2.5 2.5 1.375 0 2.5-1.094 2.5-2.5 0-.156-.031-.312-.062-.5h6.093c-.031.188-.031.344-.031.5 0 1.406 1.094 2.5 2.5 2.5 1.375 0 2.5-1.094 2.5-2.5 0-.156-.031-.312-.062-.5h1.812c.125 0 .25-.094.25-.25v-.5a.269.269 0 00-.25-.25zm-5.375-7c.25 0 .5.125.687.312l2.626 2.626c.031.031.031.062.062.093H111v-3h1.375V198zm-9.875 10a1.48 1.48 0 01-1.5-1.5 1.5 1.5 0 011.5-1.5c.812 0 1.5.688 1.5 1.5a1.5 1.5 0 01-1.5 1.5zm1.969-3a2.456 2.456 0 00-1.969-1c-.812 0-1.531.406-2 1h-.969c-.312 0-.531-.188-.531-.438v-9.093c0-.25.219-.469.531-.469h9.907c.312 0 .562.219.562.469V205h-5.531zm9.031 3a1.48 1.48 0 01-1.5-1.5 1.5 1.5 0 011.5-1.5c.812 0 1.5.688 1.5 1.5a1.5 1.5 0 01-1.5 1.5zm0-4c-.844 0-1.531.406-2 1h-.5v-3h5v3h-.531a2.456 2.456 0 00-1.969-1z" fill="#222"/></g><g filter="url(#filter2_d)"><path d="M95.858 81.273l-10.5-16 10.5-16L114 49l9.5 16.273c-3.612 6.248-5.888 9.752-9.5 16H95.858z" fill="#fff"/><path d="M95.876 80.587h17.836l8.92-15.447-8.92-15.444H95.876l-8.92 15.444 8.92 15.447zm18.816 1.695H94.896L85 65.14 94.896 48h19.796l9.896 17.14-9.896 17.142z" fill="url(#paint2_linear)"/><path d="M95.876 80.587h17.836l8.92-15.447-8.92-15.444H95.876l-8.92 15.444 8.92 15.447zm18.816 1.695H94.896L85 65.14 94.896 48h19.796l9.896 17.14-9.896 17.142z" fill="url(#paint3_linear)"/><path d="M95.876 80.587h17.836l8.92-15.447-8.92-15.444H95.876l-8.92 15.444 8.92 15.447zm18.816 1.695H94.896L85 65.14 94.896 48h19.796l9.896 17.14-9.896 17.142z" fill="#222"/><path d="M107.297 64.094h-3.719a.262.262 0 00-.266.265v.532c0 .166.1.265.266.265h3.719c.133 0 .265-.1.265-.265v-.532c0-.132-.132-.265-.265-.265zm0 3.187h-3.719a.262.262 0 00-.266.266v.531c0 .166.1.266.266.266h3.719c.133 0 .265-.1.265-.266v-.531c0-.133-.132-.266-.265-.266zm-5.578-3.453a.787.787 0 00-.797.797c0 .465.332.797.797.797a.787.787 0 00.797-.797.809.809 0 00-.797-.797zm0 3.188a.787.787 0 00-.797.796c0 .465.332.797.797.797a.787.787 0 00.797-.796.809.809 0 00-.797-.797zm7.437-8.766h-2.955c0-.066.033-.166.033-.266 0-.996-.863-1.859-1.859-1.859-1.029 0-1.859.863-1.859 1.86v.265h-2.922c-.897 0-1.594.73-1.594 1.594V71.53c0 .897.697 1.594 1.594 1.594h9.562c.864 0 1.594-.697 1.594-1.594V59.844c0-.864-.73-1.594-1.594-1.594zm-4.781-1.063c.432 0 .797.366.797.797a.786.786 0 01-.797.797.767.767 0 01-.797-.797c0-.431.332-.797.797-.797zm5.313 14.344a.546.546 0 01-.532.531h-9.562a.524.524 0 01-.531-.53V59.843c0-.266.232-.532.53-.532h1.595v.665c0 .232.166.398.398.398h5.578a.403.403 0 00.398-.398v-.664h1.594c.266 0 .532.265.532.53v11.688z" fill="#222"/></g><g filter="url(#filter3_d)"><path d="M44.642 183.282l-9.25-16 9.25-16h18.5l9.25 16-9.25 16h-18.5z" fill="#fff"/><path d="M44.876 182.587h17.836l8.92-15.447-8.92-15.444H44.876l-8.92 15.444 8.92 15.447zm18.816 1.695H43.896L34 167.14 43.896 150h19.796l9.896 17.14-9.896 17.142z" fill="#222"/><path d="M63.5 165.282H59v-6.5c0-.25-.25-.5-.5-.5h-9c-.281 0-.5.25-.5.5v6.5h-4.5c-.281 0-.5.25-.5.5v8c0 .282.219.5.5.5h19c.25 0 .5-.218.5-.5v-8c0-.25-.25-.5-.5-.5zm-3.5 1v2h-2v-2h2zm-7-7h2v2h-2v-2zm-3 0h2v2c0 .563.438 1 1 1h2c.531 0 1-.437 1-1v-2h2v6h-8v-6zm-2 7h2v2h-2v-2zm5.5 7H45v-7h2v2c0 .563.438 1 1 1h2c.531 0 1-.437 1-1v-2h2.5v7zm9.5 0h-8.5v-7H57v2c0 .563.438 1 1 1h2c.531 0 1-.437 1-1v-2h2v7z" fill="#222"/></g><path d="M126.639 151h.878v-2.045h1.193c1.35 0 2.017-.816 2.017-1.89 0-1.071-.662-1.883-2.014-1.883h-2.074V151zm.878-2.79v-2.275h1.102c.87 0 1.225.471 1.225 1.13 0 .659-.355 1.145-1.213 1.145h-1.114zm5.839 2.79h.878v-2.202h1.25l1.182 2.202h1l-1.29-2.355c.713-.264 1.068-.858 1.068-1.639 0-1.071-.664-1.824-2.014-1.824h-2.074V151zm.878-2.957v-2.108h1.103c.866 0 1.224.412 1.224 1.071 0 .656-.358 1.037-1.213 1.037h-1.114zm10.933.048c0-1.861-1.114-2.989-2.62-2.989-1.511 0-2.622 1.128-2.622 2.989 0 1.858 1.111 2.989 2.622 2.989 1.506 0 2.62-1.128 2.62-2.989zm-.87 0c0 1.418-.75 2.187-1.75 2.187-1.003 0-1.75-.769-1.75-2.187 0-1.418.747-2.188 1.75-2.188 1 0 1.75.77 1.75 2.188zm5.448 2.909c1.772 0 2.798-1.099 2.798-2.918 0-1.809-1.026-2.9-2.739-2.9h-1.943V151h1.884zm-1.006-.767v-4.284h1.011c1.273 0 1.929.761 1.929 2.133 0 1.378-.656 2.151-1.983 2.151h-.957zm10.237-5.051v3.756c0 .789-.545 1.357-1.432 1.357-.883 0-1.432-.568-1.432-1.357v-3.756h-.877v3.827c0 1.221.914 2.088 2.309 2.088s2.313-.867 2.313-2.088v-3.827h-.881zm8.589 1.892c-.199-1.244-1.173-1.972-2.403-1.972-1.506 0-2.617 1.128-2.617 2.989s1.106 2.989 2.617 2.989c1.278 0 2.213-.802 2.403-1.952l-.886-.003c-.151.744-.776 1.153-1.511 1.153-.998 0-1.75-.764-1.75-2.187 0-1.412.75-2.188 1.752-2.188.742 0 1.364.418 1.509 1.171h.886zm2.651 3.926h3.682v-.756h-2.804v-1.781h2.579v-.753h-2.579v-1.772h2.769v-.756h-3.647V151zM3.813 177.71h.846c-.025-.932-.85-1.608-2.031-1.608-1.168 0-2.063.668-2.063 1.671 0 .809.58 1.284 1.515 1.537l.687.187c.622.165 1.102.369 1.102.887 0 .568-.542.943-1.29.943-.676 0-1.238-.301-1.29-.935H.41c.057 1.054.872 1.705 2.176 1.705 1.367 0 2.154-.719 2.154-1.705 0-1.048-.935-1.454-1.674-1.636l-.568-.148c-.454-.117-1.06-.33-1.057-.886 0-.495.452-.861 1.168-.861.668 0 1.142.312 1.204.849zm3.288-.772h1.812V182h.875v-5.062h1.816v-.756H7.1v.756zm11.91 2.153c0-1.861-1.114-2.989-2.62-2.989-1.511 0-2.622 1.128-2.622 2.989 0 1.858 1.11 2.989 2.622 2.989 1.506 0 2.62-1.128 2.62-2.989zm-.87 0c0 1.418-.75 2.187-1.75 2.187-1.003 0-1.75-.769-1.75-2.187 0-1.418.747-2.188 1.75-2.188 1 0 1.75.77 1.75 2.188zM21.705 182h.878v-2.202h1.25L25.015 182h1l-1.29-2.355c.713-.264 1.068-.858 1.068-1.639 0-1.071-.665-1.824-2.014-1.824h-2.074V182zm.878-2.957v-2.108h1.102c.866 0 1.224.412 1.224 1.071 0 .656-.358 1.037-1.213 1.037h-1.113zM28.46 182h3.682v-.756h-2.804v-1.781h2.58v-.753h-2.58v-1.772h2.77v-.756H28.46V182zM131.812 212.71h.847c-.025-.932-.849-1.608-2.031-1.608-1.168 0-2.063.668-2.063 1.671 0 .809.58 1.284 1.515 1.537l.687.187c.622.165 1.102.369 1.102.887 0 .568-.542.943-1.289.943-.677 0-1.239-.301-1.29-.935h-.881c.057 1.054.872 1.705 2.176 1.705 1.367 0 2.154-.719 2.154-1.705 0-1.048-.935-1.454-1.674-1.636l-.568-.148c-.454-.117-1.059-.33-1.057-.886 0-.495.452-.861 1.168-.861.668 0 1.142.312 1.204.849zm3.576 4.29h.877v-2.537h2.901V217h.881v-5.818h-.881v2.528h-2.901v-2.528h-.877V217zm8.415-5.818h-.878V217h.878v-5.818zm2.878 5.818h.878v-2.045h1.193c1.35 0 2.017-.816 2.017-1.89 0-1.071-.661-1.883-2.014-1.883h-2.074V217zm.878-2.79v-2.275h1.103c.869 0 1.224.471 1.224 1.13 0 .659-.355 1.145-1.213 1.145h-1.114z" fill="#000"/><g filter="url(#filter4_d)"><path d="M165.054 83l9.5 16-9.5 16h-19l-9.5-16 9.5-16h19" fill="#fff"/><path d="M165.054 83l9.5 16-9.5 16h-19l-9.5-16 9.5-16h19" fill="#fff"/><path d="M164.712 83.696h-17.836l-8.919 15.446 8.919 15.445h17.836l8.92-15.445-8.92-15.446zM145.896 82h19.796l9.896 17.142-9.896 17.14h-19.796L136 99.142 145.896 82z" fill="#222"/><path d="M162 92h-12c-1.125 0-2 .906-2 2v9c0 1.125.875 2 2 2h3v2.625c0 .25.156.375.375.375.063 0 .125 0 .219-.062L157.5 105h4.5c1.094 0 2-.875 2-2v-9c0-1.094-.906-2-2-2zm1 11c0 .562-.469 1-1 1h-4.844l-.281.219-2.875 2.156V104h-4c-.562 0-1-.438-1-1v-9c0-.531.438-1 1-1h12c.531 0 1 .469 1 1v9zm-7-2.75a.74.74 0 00-.75.75c0 .438.312.75.75.75a.74.74 0 00.75-.75.76.76 0 00-.75-.75zm-.281-.75h.531c.125 0 .25-.094.25-.219l.219-3.5c0-.156-.094-.281-.25-.281h-.969c-.156 0-.25.125-.25.281l.219 3.5c0 .125.125.219.25.219z" fill="#222"/></g><defs><filter id="filter0_d" x="80" y="114" width="51.588" height="46.282" filterUnits="userSpaceOnUse" color-interpolation-filters="sRGB"><feFlood flood-opacity="0" result="BackgroundImageFix"/><feColorMatrix in="SourceAlpha" values="0 0 0 0 0 0 0 0 0 0 0 0 0 0 0 0 0 0 127 0"/><feOffset dy="4"/><feGaussianBlur stdDeviation="3"/><feColorMatrix values="0 0 0 0 0 0 0 0 0 0 0 0 0 0 0 0 0 0 0.25 0"/><feBlend in2="BackgroundImageFix" result="effect1_dropShadow"/><feBlend in="SourceGraphic" in2="effect1_dropShadow" result="shape"/></filter><filter id="filter1_d" x="81" y="182" width="51.588" height="46.282" filterUnits="userSpaceOnUse" color-interpolation-filters="sRGB"><feFlood flood-opacity="0" result="BackgroundImageFix"/><feColorMatrix in="SourceAlpha" values="0 0 0 0 0 0 0 0 0 0 0 0 0 0 0 0 0 0 127 0"/><feOffset dy="4"/><feGaussianBlur stdDeviation="3"/><feColorMatrix values="0 0 0 0 0 0 0 0 0 0 0 0 0 0 0 0 0 0 0.25 0"/><feBlend in2="BackgroundImageFix" result="effect1_dropShadow"/><feBlend in="SourceGraphic" in2="effect1_dropShadow" result="shape"/></filter><filter id="filter2_d" x="79" y="46" width="51.588" height="46.282" filterUnits="userSpaceOnUse" color-interpolation-filters="sRGB"><feFlood flood-opacity="0" result="BackgroundImageFix"/><feColorMatrix in="SourceAlpha" values="0 0 0 0 0 0 0 0 0 0 0 0 0 0 0 0 0 0 127 0"/><feOffset dy="4"/><feGaussianBlur stdDeviation="3"/><feColorMatrix values="0 0 0 0 0 0 0 0 0 0 0 0 0 0 0 0 0 0 0.25 0"/><feBlend in2="BackgroundImageFix" result="effect1_dropShadow"/><feBlend in="SourceGraphic" in2="effect1_dropShadow" result="shape"/></filter><filter id="filter3_d" x="28" y="148" width="51.588" height="46.282" filterUnits="userSpaceOnUse" color-interpolation-filters="sRGB"><feFlood flood-opacity="0" result="BackgroundImageFix"/><feColorMatrix in="SourceAlpha" values="0 0 0 0 0 0 0 0 0 0 0 0 0 0 0 0 0 0 127 0"/><feOffset dy="4"/><feGaussianBlur stdDeviation="3"/><feColorMatrix values="0 0 0 0 0 0 0 0 0 0 0 0 0 0 0 0 0 0 0.25 0"/><feBlend in2="BackgroundImageFix" result="effect1_dropShadow"/><feBlend in="SourceGraphic" in2="effect1_dropShadow" result="shape"/></filter><filter id="filter4_d" x="130" y="80" width="51.588" height="46.282" filterUnits="userSpaceOnUse" color-interpolation-filters="sRGB"><feFlood flood-opacity="0" result="BackgroundImageFix"/><feColorMatrix in="SourceAlpha" values="0 0 0 0 0 0 0 0 0 0 0 0 0 0 0 0 0 0 127 0"/><feOffset dy="4"/><feGaussianBlur stdDeviation="3"/><feColorMatrix values="0 0 0 0 0 0 0 0 0 0 0 0 0 0 0 0 0 0 0.25 0"/><feBlend in2="BackgroundImageFix" result="effect1_dropShadow"/><feBlend in="SourceGraphic" in2="effect1_dropShadow" result="shape"/></filter><linearGradient id="paint0_linear" x1="-53.921" y1="207.735" x2="215.2" y2="206.59" gradientUnits="userSpaceOnUse"><stop stop-color="#80203B"/><stop offset=".035" stop-color="#80203B"/><stop offset=".225" stop-color="#F57336"/><stop offset=".259" stop-color="#F57336"/><stop offset=".359" stop-color="#3B7FA4"/><stop offset=".62" stop-color="#222"/><stop offset=".779" stop-color="#4DAAAB"/><stop offset=".788" stop-color="#4DAAAB"/><stop offset=".996" stop-color="#004563"/><stop offset=".996" stop-color="#004563"/><stop offset="1" stop-color="#004563"/></linearGradient><linearGradient id="paint1_linear" x1="-53.921" y1="207.735" x2="215.2" y2="206.59" gradientUnits="userSpaceOnUse"><stop stop-color="#80203B"/><stop offset=".035" stop-color="#80203B"/><stop offset=".225" stop-color="#F57336"/><stop offset=".259" stop-color="#F57336"/><stop offset=".359" stop-color="#3B7FA4"/><stop offset=".62" stop-color="#222"/><stop offset=".779" stop-color="#4DAAAB"/><stop offset=".788" stop-color="#4DAAAB"/><stop offset=".996" stop-color="#004563"/><stop offset=".996" stop-color="#004563"/><stop offset="1" stop-color="#004563"/></linearGradient><linearGradient id="paint2_linear" x1="-55.921" y1="71.735" x2="213.2" y2="70.591" gradientUnits="userSpaceOnUse"><stop stop-color="#80203B"/><stop offset=".035" stop-color="#80203B"/><stop offset=".225" stop-color="#F57336"/><stop offset=".259" stop-color="#F57336"/><stop offset=".359" stop-color="#3B7FA4"/><stop offset=".62" stop-color="#222"/><stop offset=".779" stop-color="#4DAAAB"/><stop offset=".788" stop-color="#4DAAAB"/><stop offset=".996" stop-color="#004563"/><stop offset=".996" stop-color="#004563"/><stop offset="1" stop-color="#004563"/></linearGradient><linearGradient id="paint3_linear" x1="-55.921" y1="71.735" x2="213.2" y2="70.591" gradientUnits="userSpaceOnUse"><stop stop-color="#80203B"/><stop offset=".035" stop-color="#80203B"/><stop offset=".225" stop-color="#F57336"/><stop offset=".259" stop-color="#F57336"/><stop offset=".359" stop-color="#3B7FA4"/><stop offset=".62" stop-color="#222"/><stop offset=".779" stop-color="#4DAAAB"/><stop offset=".788" stop-color="#4DAAAB"/><stop offset=".996" stop-color="#004563"/><stop offset=".996" stop-color="#004563"/><stop offset="1" stop-color="#004563"/></linearGradient></defs></svg>