<svg width="869" height="78" viewBox="0 0 869 78" fill="none" xmlns="http://www.w3.org/2000/svg">
<path d="M79.5468 9.00006L49.4473 9L39 29.231L39.4256 30L49.8729 9.76902L80 9.76905L79.5468 9.00006Z" fill="#DDDDDD"/>
<path d="M36.1085 29.8628C36.1085 28.6367 37.1022 27.6421 38.3291 27.6421C39.556 27.6421 40.5498 28.6367 40.5498 29.8628C40.5498 31.0889 39.556 32.0834 38.3291 32.0834C37.1022 32.0834 36.1085 31.0889 36.1085 29.8628Z" fill="#DDDDDD"/>
<path d="M13.5 2L18 9.00036L13.5 16H4.5L0 9.00036L4.5 2H13.5" fill="white"/>
<path d="M12.7024 15L20.9494 29.6348H38.3938L48.4276 45.3914L47.9829 46.1793L37.9491 30.4226H20.4758L12 15.3821L12.7024 15Z" fill="#DDDDDD"/>
<path d="M48.4276 45.3914L65.9662 45.4555L76 61.2122L75.5553 62L65.5215 46.2433L47.9829 46.1793L48.4276 45.3914Z" fill="#DDDDDD"/>
<path d="M813.935 28.5382L823.008 12.9566L842.459 12.2755L842.946 13.0841L823.494 13.7651L814.421 29.3468L813.935 28.5382Z" fill="#DDDDDD"/>
<path d="M816.526 29L75.0511 29L65 45.1905L65.4455 46L75.4966 29.8095H817L816.526 29Z" fill="#DDDDDD"/>
<path d="M13.5 1.33167L18 8.83205L13.5 16.3317H4.5L0 8.83205L4.5 1.33167H13.5Z" fill="#DDDDDD"/>
<path d="M13.4719 1.79566H5.10316L0.918003 9.04327L5.10316 16.2901H13.4719L17.657 9.04327L13.4719 1.79566ZM4.64325 1H13.9318L18.5752 9.04327L13.9318 17.0858H4.64325L-0.00018692 9.04327L4.64325 1Z" fill="#DDDDDD"/>
<path d="M76.25 77L71.5 69L76 61.5L84.75 62L89 69.4996C87.3403 72.4287 86.4097 74.0709 84.75 77H76.25Z" fill="#DDDDDD"/>
<path d="M76.2142 76.4868H84.5829L88.768 69.2392L84.5829 61.9924H76.2142L72.029 69.2392L76.2142 76.4868ZM85.0428 77.2825H75.7543L71.1108 69.2392L75.7543 61.1967H85.0428L89.6862 69.2392L85.0428 77.2825Z" fill="url(#paint0_linear)"/>
<path d="M76.2142 76.4868H84.5829L88.768 69.2392L84.5829 61.9924H76.2142L72.029 69.2392L76.2142 76.4868ZM85.0428 77.2825H75.7543L71.1108 69.2392L75.7543 61.1967H85.0428L89.6862 69.2392L85.0428 77.2825Z" fill="#DDDDDD"/>
<path d="M82.5 2L87 9.00036L82.5 16H73.5L69 9.00036L73.5 2H82.5" fill="white"/>
<path d="M81.7681 1.44714L86.2681 8.94752L81.7681 16.4471H72.7681L68.2681 8.94752L72.7681 1.44714H81.7681Z" fill="#DDDDDD"/>
<path d="M81.7678 1.46399H73.3991L69.2139 8.71161L73.3991 15.9584H81.7678L85.9529 8.71161L81.7678 1.46399ZM72.9391 0.668335H82.2277L86.8711 8.71161L82.2277 16.7541H72.9391L68.2957 8.71161L72.9391 0.668335Z" fill="#DDDDDD"/>
<path d="M850.509 47H823.801L814 28.8547L814.46 28L824.261 46.1453H828.735L851 46.1453L850.509 47Z" fill="#DDDDDD"/>
<path d="M864.25 39L869 47.0004L864.25 55H854.75L850 47.0004L854.75 39H864.25Z" fill="#DDDDDD"/>
<path d="M856.25 5L861 13.0004L856.25 21H846.75L842 13.0004L846.75 5H856.25Z" fill="#DDDDDD"/>
<path d="M63.6036 46.0564C63.6036 47.2825 64.5974 48.2771 65.8243 48.2771C67.0512 48.2771 68.0449 47.2825 68.0449 46.0564C68.0449 44.8303 67.0512 43.8358 65.8243 43.8358C64.5974 43.8358 63.6036 44.8303 63.6036 46.0564Z" fill="#DDDDDD"/>
<path d="M812.261 29.1865C812.261 30.4582 813.291 31.4897 814.564 31.4897C815.836 31.4897 816.867 30.4582 816.867 29.1865C816.867 27.9148 815.836 26.8833 814.564 26.8833C813.291 26.8833 812.261 27.9148 812.261 29.1865Z" fill="#DDDDDD"/>
<defs>
<linearGradient id="paint0_linear" x1="4.98906" y1="72.3333" x2="131.264" y2="71.7965" gradientUnits="userSpaceOnUse">
<stop stop-color="#80203B"/>
<stop offset="0.0348449" stop-color="#80203B"/>
<stop offset="0.225296" stop-color="#F57336"/>
<stop offset="0.258693" stop-color="#F57336"/>
<stop offset="0.529644" stop-color="#21409A"/>
<stop offset="0.580765" stop-color="#21409A"/>
<stop offset="0.778656" stop-color="#4DAAAB"/>
<stop offset="0.787808" stop-color="#4DAAAB"/>
<stop offset="0.996047" stop-color="#004563"/>
<stop offset="0.99606" stop-color="#004563"/>
<stop offset="1" stop-color="#004563"/>
</linearGradient>
</defs>
</svg>
