<svg width="338" height="487" viewBox="0 0 338 487" fill="none" xmlns="http://www.w3.org/2000/svg">
<rect x="62" y="98" width="15" height="351" fill="white"/>
<rect x="62" y="98" width="15" height="351" fill="url(#paint0_linear)"/>
<ellipse cx="69.5" cy="96" rx="11.5" ry="11" fill="#7FC591"/>
<rect x="62" y="98" width="15" height="351" fill="white"/>
<rect x="62" y="98" width="15" height="351" fill="url(#paint1_linear)"/>
<ellipse cx="69.5" cy="96" rx="11.5" ry="11" fill="#7FC591"/>
<g opacity="0.6">
<rect x="161" y="37" width="15" height="450" fill="white"/>
<rect x="161" y="37" width="15" height="450" fill="url(#paint2_linear)"/>
</g>
<path d="M0 291C0 288.239 2.23858 286 5 286H138C140.761 286 143 288.239 143 291V317C143 319.761 140.761 322 138 322H5C2.23858 322 0 319.761 0 317V291Z" fill="#222222"/>
<path fill-rule="evenodd" clip-rule="evenodd" d="M249.022 220.711C246.813 220.72 245.017 219.408 245.011 217.781C245.005 216.154 246.791 214.829 249 214.82C251.209 214.812 253.005 216.124 253.011 217.751C253.017 219.378 251.231 220.703 249.022 220.711Z" fill="white"/>
<path d="M32.0112 304C32.0112 304.862 31.8498 305.6 31.5269 306.215C31.2065 306.827 30.769 307.296 30.2144 307.621C29.6623 307.947 29.036 308.109 28.3354 308.109C27.6349 308.109 27.0073 307.947 26.4526 307.621C25.9006 307.293 25.4631 306.823 25.1401 306.211C24.8198 305.596 24.6597 304.859 24.6597 304C24.6597 303.138 24.8198 302.401 25.1401 301.789C25.4631 301.174 25.9006 300.704 26.4526 300.379C27.0073 300.053 27.6349 299.891 28.3354 299.891C29.036 299.891 29.6623 300.053 30.2144 300.379C30.769 300.704 31.2065 301.174 31.5269 301.789C31.8498 302.401 32.0112 303.138 32.0112 304ZM30.5542 304C30.5542 303.393 30.4591 302.882 30.269 302.465C30.0815 302.046 29.8211 301.729 29.4878 301.516C29.1545 301.299 28.7703 301.191 28.3354 301.191C27.9006 301.191 27.5164 301.299 27.1831 301.516C26.8498 301.729 26.5881 302.046 26.3979 302.465C26.2104 302.882 26.1167 303.393 26.1167 304C26.1167 304.607 26.2104 305.12 26.3979 305.539C26.5881 305.956 26.8498 306.272 27.1831 306.488C27.5164 306.702 27.9006 306.809 28.3354 306.809C28.7703 306.809 29.1545 306.702 29.4878 306.488C29.8211 306.272 30.0815 305.956 30.269 305.539C30.4591 305.12 30.5542 304.607 30.5542 304ZM38.2923 308H35.5813L35.5813 300H38.347C39.1412 300 39.8235 300.16 40.3938 300.48C40.9668 300.798 41.4069 301.255 41.7142 301.852C42.0215 302.448 42.1751 303.161 42.1751 303.992C42.1751 304.826 42.0201 305.542 41.7103 306.141C41.403 306.74 40.959 307.199 40.3782 307.52C39.8001 307.84 39.1048 308 38.2923 308ZM37.0306 306.746H38.222C38.7793 306.746 39.2441 306.645 39.6165 306.441C39.9889 306.236 40.2688 305.93 40.4563 305.523C40.6438 305.115 40.7376 304.604 40.7376 303.992C40.7376 303.38 40.6438 302.872 40.4563 302.469C40.2688 302.062 39.9915 301.759 39.6243 301.559C39.2597 301.355 38.8066 301.254 38.2649 301.254H37.0306L37.0306 306.746ZM45.7521 308L45.7521 300H48.7521C49.3666 300 49.8823 300.107 50.2989 300.32C50.7182 300.534 51.0346 300.833 51.2481 301.219C51.4643 301.602 51.5724 302.048 51.5724 302.559C51.5724 303.072 51.463 303.517 51.2442 303.895C51.0281 304.27 50.7091 304.56 50.2872 304.766C49.8653 304.969 49.3471 305.07 48.7325 305.07H46.5958V303.867H48.5372C48.8966 303.867 49.1909 303.818 49.42 303.719C49.6492 303.617 49.8185 303.47 49.9278 303.277C50.0398 303.082 50.0958 302.842 50.0958 302.559C50.0958 302.275 50.0398 302.033 49.9278 301.832C49.8159 301.629 49.6453 301.475 49.4161 301.371C49.1869 301.264 48.8914 301.211 48.5294 301.211H47.2013L47.2013 308H45.7521ZM49.8849 304.375L51.8653 308H50.2481L48.3028 304.375H49.8849ZM54.9579 308V307.098L59.0595 301.215H54.9345L54.9345 300H60.8563V300.902L56.7587 306.785H60.8798L60.8798 308H54.9579ZM57.122 297.539L57.9149 298.539L58.7079 297.539H59.9462V297.594L58.4696 299.281H57.3642L55.8837 297.594V297.539H57.122ZM65.5095 308H63.9626L66.779 300H68.5681L71.3884 308H69.8415L67.7048 301.641H67.6423L65.5095 308ZM65.5603 304.863H69.779V306.027H65.5603V304.863ZM74.7993 300L76.8813 306.297H76.9634L79.0415 300H80.6353L77.8149 308H76.0259L73.2095 300L74.7993 300ZM83.9817 308H82.4349L85.2513 300H87.0403L89.8606 308H88.3138L86.1771 301.641H86.1146L83.9817 308ZM84.0325 304.863H88.2513V306.027H84.0325V304.863ZM99.6886 300L99.6886 308H98.3995L94.63 302.551H94.5636V308H93.1144L93.1144 300H94.4112L98.1769 305.453H98.2472L98.2472 300H99.6886ZM106.624 300L108.061 300L108.061 305.625C108.059 306.141 107.949 306.585 107.733 306.957C107.517 307.327 107.215 307.612 106.827 307.812C106.442 308.01 105.992 308.109 105.479 308.109C105.011 308.109 104.589 308.026 104.214 307.859C103.841 307.69 103.546 307.44 103.327 307.109C103.108 306.779 102.999 306.367 102.999 305.875H104.44C104.443 306.091 104.49 306.277 104.581 306.434C104.675 306.59 104.804 306.71 104.968 306.793C105.132 306.876 105.321 306.918 105.534 306.918C105.766 306.918 105.962 306.87 106.124 306.773C106.285 306.674 106.408 306.529 106.491 306.336C106.577 306.143 106.621 305.906 106.624 305.625L106.624 300ZM111.834 308L111.834 300H117.037L117.037 301.215H113.283V303.387H116.767V304.602H113.283V306.785H117.068V308H111.834Z" fill="white"/>
<path d="M0 232C0 229.239 2.23858 227 5 227H138C140.761 227 143 229.239 143 232V258C143 260.761 140.761 263 138 263H5C2.23858 263 0 260.761 0 258V232Z" fill="#222222"/>
<path d="M33.0135 249L33.0135 240.273H36.2863C36.9567 240.273 37.5192 240.398 37.9738 240.648C38.4311 240.898 38.7763 241.241 39.0093 241.679C39.2451 242.114 39.363 242.608 39.363 243.162C39.363 243.722 39.2451 244.219 39.0093 244.653C38.7735 245.088 38.4255 245.43 37.9652 245.68C37.505 245.928 36.9382 246.051 36.2649 246.051H34.0959V244.751H36.0519C36.4439 244.751 36.7649 244.683 37.0149 244.547C37.2649 244.411 37.4496 244.223 37.5689 243.984C37.6911 243.746 37.7522 243.472 37.7522 243.162C37.7522 242.852 37.6911 242.58 37.5689 242.344C37.4496 242.108 37.2635 241.925 37.0107 241.794C36.7607 241.661 36.4382 241.594 36.0434 241.594H34.5945L34.5945 249H33.0135ZM43.1362 249L43.1362 240.273H46.4089C47.0794 240.273 47.6419 240.389 48.0964 240.622C48.5538 240.855 48.899 241.182 49.1319 241.602C49.3677 242.02 49.4856 242.507 49.4856 243.064C49.4856 243.624 49.3663 244.109 49.1277 244.521C48.8919 244.93 48.5439 245.247 48.0836 245.472C47.6234 245.693 47.0581 245.804 46.3876 245.804H44.0566V244.491H46.1745C46.5666 244.491 46.8876 244.437 47.1376 244.33C47.3876 244.219 47.5723 244.058 47.6916 243.848C47.8137 243.635 47.8748 243.374 47.8748 243.064C47.8748 242.754 47.8137 242.49 47.6916 242.271C47.5694 242.05 47.3833 241.882 47.1333 241.768C46.8833 241.652 46.5609 241.594 46.166 241.594H44.7172L44.7172 249H43.1362ZM47.6447 245.045L49.8052 249H48.041L45.9189 245.045H47.6447ZM61.1392 244.636C61.1392 245.577 60.963 246.382 60.6108 247.053C60.2613 247.72 59.7841 248.232 59.1789 248.587C58.5767 248.942 57.8934 249.119 57.1292 249.119C56.365 249.119 55.6804 248.942 55.0752 248.587C54.473 248.229 53.9957 247.716 53.6434 247.048C53.294 246.378 53.1193 245.574 53.1193 244.636C53.1193 243.696 53.294 242.892 53.6434 242.224C53.9957 241.554 54.473 241.041 55.0752 240.686C55.6804 240.331 56.365 240.153 57.1292 240.153C57.8934 240.153 58.5767 240.331 59.1789 240.686C59.7841 241.041 60.2613 241.554 60.6108 242.224C60.963 242.892 61.1392 243.696 61.1392 244.636ZM59.5497 244.636C59.5497 243.974 59.446 243.416 59.2386 242.962C59.0341 242.504 58.75 242.159 58.3863 241.926C58.0227 241.69 57.6037 241.572 57.1292 241.572C56.6548 241.572 56.2358 241.69 55.8721 241.926C55.5085 242.159 55.223 242.504 55.0156 242.962C54.811 243.416 54.7088 243.974 54.7088 244.636C54.7088 245.298 54.811 245.858 55.0156 246.315C55.223 246.77 55.5085 247.115 55.8721 247.351C56.2358 247.584 56.6548 247.7 57.1292 247.7C57.6037 247.7 58.0227 247.584 58.3863 247.351C58.75 247.115 59.0341 246.77 59.2386 246.315C59.446 245.858 59.5497 245.298 59.5497 244.636ZM65.0338 240.273H66.9685L69.5594 246.597H69.6617L72.2526 240.273L74.1873 240.273L74.1873 249L72.6702 249L72.6702 243.004H72.5892L70.1773 248.974H69.0438L66.6319 242.991H66.5509L66.5509 249H65.0338L65.0338 240.273ZM81.752 240.273H83.3202L83.3202 246.409C83.3174 246.972 83.198 247.456 82.9622 247.862C82.7265 248.266 82.3969 248.577 81.9736 248.795C81.5532 249.011 81.0631 249.119 80.5034 249.119C79.9921 249.119 79.5319 249.028 79.1228 248.847C78.7165 248.662 78.3941 248.389 78.1554 248.028C77.9168 247.668 77.7975 247.219 77.7975 246.682H79.3699C79.3728 246.918 79.4239 247.121 79.5233 247.291C79.6256 247.462 79.7662 247.592 79.9452 247.683C80.1242 247.774 80.3301 247.82 80.5631 247.82C80.8159 247.82 81.0304 247.767 81.2066 247.662C81.3827 247.554 81.5162 247.395 81.6071 247.185C81.7009 246.974 81.7492 246.716 81.752 246.409L81.752 240.273ZM87.4354 249L87.4354 240.273L93.1115 240.273V241.598L89.0164 241.598L89.0164 243.967L92.8175 243.967V245.293L89.0164 245.293L89.0164 247.675L93.1456 247.675V249L87.4354 249ZM104.296 240.273L104.296 249H102.89L98.7779 243.055H98.7054V249H97.1245L97.1245 240.273H98.5392L102.647 246.222H102.724L102.724 240.273H104.296ZM108.419 249L108.419 240.273H114.095L114.095 241.598H110V243.967H113.801V245.293H110V247.675H114.129V249H108.419Z" fill="white"/>
<path d="M0 173C0 170.239 2.23858 168 5 168H138C140.761 168 143 170.239 143 173V199C143 201.761 140.761 204 138 204H5C2.23858 204 0 201.761 0 199V173Z" fill="#222222"/>
<path d="M0 173C0 170.239 2.23858 168 5 168H138C140.761 168 143 170.239 143 173V199C143 201.761 140.761 204 138 204H5C2.23858 204 0 201.761 0 199V173Z" fill="#222222"/>
<path d="M40.0538 190L40.0538 182H43.0538C43.6684 182 44.184 182.115 44.6007 182.344C45.02 182.573 45.3364 182.888 45.5499 183.289C45.7661 183.687 45.8741 184.141 45.8741 184.648C45.8741 185.161 45.7661 185.617 45.5499 186.016C45.3338 186.414 45.0147 186.728 44.5929 186.957C44.171 187.184 43.6515 187.297 43.0343 187.297H41.046V186.105H42.839C43.1983 186.105 43.4926 186.043 43.7218 185.918C43.9509 185.793 44.1202 185.621 44.2296 185.402C44.3416 185.184 44.3976 184.932 44.3976 184.648C44.3976 184.365 44.3416 184.115 44.2296 183.898C44.1202 183.682 43.9496 183.514 43.7179 183.395C43.4887 183.272 43.1931 183.211 42.8312 183.211H41.503L41.503 190H40.0538ZM56.4813 186C56.4813 186.862 56.3199 187.6 55.997 188.215C55.6767 188.827 55.2392 189.296 54.6845 189.621C54.1324 189.947 53.5061 190.109 52.8056 190.109C52.105 190.109 51.4774 189.947 50.9228 189.621C50.3707 189.293 49.9332 188.823 49.6103 188.211C49.2899 187.596 49.1298 186.859 49.1298 186C49.1298 185.138 49.2899 184.401 49.6103 183.789C49.9332 183.174 50.3707 182.704 50.9228 182.379C51.4774 182.053 52.105 181.891 52.8056 181.891C53.5061 181.891 54.1324 182.053 54.6845 182.379C55.2392 182.704 55.6767 183.174 55.997 183.789C56.3199 184.401 56.4813 185.138 56.4813 186ZM55.0243 186C55.0243 185.393 54.9293 184.882 54.7392 184.465C54.5517 184.046 54.2912 183.729 53.9579 183.516C53.6246 183.299 53.2405 183.191 52.8056 183.191C52.3707 183.191 51.9866 183.299 51.6532 183.516C51.3199 183.729 51.0582 184.046 50.8681 184.465C50.6806 184.882 50.5868 185.393 50.5868 186C50.5868 186.607 50.6806 187.12 50.8681 187.539C51.0582 187.956 51.3199 188.272 51.6532 188.488C51.9866 188.702 52.3707 188.809 52.8056 188.809C53.2405 188.809 53.6246 188.702 53.9579 188.488C54.2912 188.272 54.5517 187.956 54.7392 187.539C54.9293 187.12 55.0243 186.607 55.0243 186ZM62.7624 190H60.0515L60.0515 182H62.8171C63.6114 182 64.2937 182.16 64.864 182.48C65.4369 182.798 65.877 183.255 66.1843 183.852C66.4916 184.448 66.6452 185.161 66.6452 185.992C66.6452 186.826 66.4903 187.542 66.1804 188.141C65.8731 188.74 65.4291 189.199 64.8483 189.52C64.2702 189.84 63.5749 190 62.7624 190ZM61.5007 188.746H62.6921C63.2494 188.746 63.7142 188.645 64.0866 188.441C64.459 188.236 64.739 187.93 64.9265 187.523C65.114 187.115 65.2077 186.604 65.2077 185.992C65.2077 185.38 65.114 184.872 64.9265 184.469C64.739 184.062 64.4616 183.759 64.0944 183.559C63.7299 183.355 63.2767 183.254 62.7351 183.254H61.5007L61.5007 188.746ZM70.2222 190L70.2222 182H73.2222C73.8368 182 74.3524 182.107 74.769 182.32C75.1883 182.534 75.5047 182.833 75.7183 183.219C75.9344 183.602 76.0425 184.048 76.0425 184.559C76.0425 185.072 75.9331 185.517 75.7144 185.895C75.4982 186.27 75.1792 186.56 74.7573 186.766C74.3355 186.969 73.8172 187.07 73.2026 187.07H71.0659V185.867H73.0073C73.3667 185.867 73.661 185.818 73.8901 185.719C74.1193 185.617 74.2886 185.47 74.398 185.277C74.5099 185.082 74.5659 184.842 74.5659 184.559C74.5659 184.275 74.5099 184.033 74.398 183.832C74.286 183.629 74.1154 183.475 73.8862 183.371C73.6571 183.264 73.3615 183.211 72.9995 183.211H71.6714L71.6714 190H70.2222ZM74.355 186.375L76.3355 190H74.7183L72.773 186.375H74.355ZM83.9241 184.199C83.8877 183.858 83.734 183.592 83.4632 183.402C83.195 183.212 82.846 183.117 82.4163 183.117C82.1142 183.117 81.8551 183.163 81.639 183.254C81.4228 183.345 81.2575 183.469 81.1429 183.625C81.0283 183.781 80.9697 183.96 80.9671 184.16C80.9671 184.327 81.0049 184.471 81.0804 184.594C81.1585 184.716 81.264 184.82 81.3968 184.906C81.5296 184.99 81.6767 185.06 81.8382 185.117C81.9996 185.174 82.1624 185.223 82.3265 185.262L83.0765 185.449C83.3785 185.52 83.6689 185.615 83.9476 185.734C84.2288 185.854 84.4801 186.005 84.7015 186.188C84.9254 186.37 85.1025 186.59 85.2327 186.848C85.3629 187.105 85.428 187.408 85.428 187.754C85.428 188.223 85.3082 188.635 85.0687 188.992C84.8291 189.346 84.4827 189.624 84.0296 189.824C83.5791 190.022 83.0335 190.121 82.3929 190.121C81.7705 190.121 81.2301 190.025 80.7718 189.832C80.316 189.639 79.9593 189.358 79.7015 188.988C79.4463 188.618 79.3082 188.168 79.2874 187.637H80.7132C80.734 187.915 80.82 188.147 80.971 188.332C81.122 188.517 81.3187 188.655 81.5608 188.746C81.8056 188.837 82.0791 188.883 82.3812 188.883C82.6963 188.883 82.9723 188.836 83.2093 188.742C83.4489 188.646 83.6364 188.513 83.7718 188.344C83.9072 188.172 83.9762 187.971 83.9788 187.742C83.9762 187.534 83.915 187.362 83.7952 187.227C83.6754 187.089 83.5075 186.974 83.2913 186.883C83.0778 186.789 82.8278 186.706 82.5413 186.633L81.6312 186.398C80.9723 186.229 80.4515 185.973 80.0687 185.629C79.6884 185.283 79.4983 184.823 79.4983 184.25C79.4983 183.779 79.6259 183.366 79.8812 183.012C80.139 182.658 80.4892 182.383 80.9319 182.187C81.3746 181.99 81.8759 181.891 82.4358 181.891C83.0035 181.891 83.5009 181.99 83.928 182.187C84.3577 182.383 84.695 182.655 84.9397 183.004C85.1845 183.35 85.3108 183.749 85.3187 184.199H83.9241ZM81.5608 179.539L82.3538 180.539L83.1468 179.539H84.3851V179.594L82.9085 181.281H81.803L80.3226 179.594V179.539L81.5608 179.539ZM88.92 190L88.92 182H90.3692L90.3692 185.676H90.4669L93.588 182H95.3575L92.2638 185.59L95.3849 190H93.6427L91.256 186.57L90.3692 187.617L90.3692 190H88.92ZM99.5917 190H98.0448L100.861 182H102.65L105.471 190H103.924L101.787 183.641H101.725L99.5917 190ZM99.6425 186.863H103.861V188.027H99.6425V186.863Z" fill="white"/>
<path d="M22.0311 65.2727L24.3025 72.142H24.3919L26.659 65.2727H28.3976L25.3209 74L23.3692 74L20.2968 65.2727H22.0311ZM31.9471 74L31.9471 65.2727L35.2199 65.2727C35.8903 65.2727 36.4528 65.3892 36.9074 65.6222C37.3647 65.8551 37.7099 66.1818 37.9429 66.6023C38.1787 67.0199 38.2966 67.5071 38.2966 68.0639C38.2966 68.6236 38.1772 69.1094 37.9386 69.5213C37.7028 69.9304 37.3548 70.2472 36.8946 70.4716C36.4343 70.6932 35.869 70.804 35.1985 70.804H32.8676V69.4915H34.9855C35.3775 69.4915 35.6985 69.4375 35.9485 69.3295C36.1985 69.2187 36.3832 69.0582 36.5025 68.848C36.6247 68.6349 36.6858 68.3736 36.6858 68.0639C36.6858 67.7543 36.6247 67.4901 36.5025 67.2713C36.3804 67.0497 36.1943 66.8821 35.9443 66.7685C35.6943 66.652 35.3718 66.5937 34.977 66.5937H33.5281L33.5281 74H31.9471ZM36.4556 70.0455L38.6162 74H36.852L34.7298 70.0455H36.4556ZM43.7328 65.2727L43.7328 74H42.1518L42.1518 65.2727H43.7328ZM51.288 65.2727H52.8561L52.8561 71.4091C52.8533 71.9716 52.734 72.456 52.4982 72.8622C52.2624 73.2656 51.9328 73.5767 51.5096 73.7955C51.0891 74.0114 50.599 74.1193 50.0394 74.1193C49.528 74.1193 49.0678 74.0284 48.6587 73.8466C48.2525 73.6619 47.93 73.3892 47.6914 73.0284C47.4527 72.6676 47.3334 72.2187 47.3334 71.6818L48.9059 71.6818C48.9087 71.9176 48.9598 72.1207 49.0593 72.2912C49.1615 72.4616 49.3022 72.5923 49.4811 72.6832C49.6601 72.7741 49.8661 72.8196 50.099 72.8196C50.3519 72.8196 50.5664 72.767 50.7425 72.6619C50.9186 72.554 51.0522 72.3949 51.1431 72.1847C51.2368 71.9744 51.2851 71.7159 51.288 71.4091L51.288 65.2727ZM56.9713 74L56.9713 65.2727L62.6475 65.2727V66.598H58.5523L58.5523 68.9673H62.3534V70.2926H58.5523L58.5523 72.6747H62.6816V74L56.9713 74ZM69.6178 74H66.6604L66.6604 65.2727H69.6775C70.5439 65.2727 71.2882 65.4474 71.9104 65.7969C72.5354 66.1435 73.0155 66.642 73.3507 67.2926C73.686 67.9432 73.8536 68.7216 73.8536 69.6278C73.8536 70.5369 73.6846 71.3182 73.3465 71.9716C73.0113 72.625 72.5269 73.1264 71.8934 73.4759C71.2627 73.8253 70.5042 74 69.6178 74ZM68.2414 72.6321H69.5411C70.149 72.6321 70.6561 72.5213 71.0624 72.2997C71.4686 72.0753 71.774 71.7415 71.9786 71.2983C72.1831 70.8523 72.2854 70.2955 72.2854 69.6278C72.2854 68.9602 72.1831 68.4062 71.9786 67.9659C71.774 67.5227 71.4715 67.1918 71.0709 66.973C70.6732 66.7514 70.1789 66.6406 69.588 66.6406H68.2414L68.2414 72.6321ZM84.9276 65.2727L84.9276 74H83.5213L79.4091 68.0554H79.3367L79.3367 74H77.7557L77.7557 65.2727H79.1705L83.2784 71.2216H83.3552L83.3552 65.2727H84.9276ZM96.8485 69.6364C96.8485 70.5767 96.6724 71.3821 96.3201 72.0526C95.9707 72.7202 95.4934 73.2315 94.8883 73.5866C94.286 73.9418 93.6028 74.1193 92.8386 74.1193C92.0744 74.1193 91.3897 73.9418 90.7846 73.5866C90.1824 73.2287 89.7051 72.7159 89.3528 72.0483C89.0034 71.3778 88.8287 70.5739 88.8287 69.6364C88.8287 68.696 89.0034 67.892 89.3528 67.2244C89.7051 66.554 90.1824 66.0412 90.7846 65.6861C91.3897 65.331 92.0744 65.1534 92.8386 65.1534C93.6028 65.1534 94.286 65.331 94.8883 65.6861C95.4934 66.0412 95.9707 66.554 96.3201 67.2244C96.6724 67.892 96.8485 68.696 96.8485 69.6364ZM95.2591 69.6364C95.2591 68.9744 95.1554 68.4162 94.948 67.9616C94.7434 67.5043 94.4593 67.1591 94.0957 66.9261C93.7321 66.6903 93.313 66.5724 92.8386 66.5724C92.3642 66.5724 91.9451 66.6903 91.5815 66.9261C91.2179 67.1591 90.9324 67.5043 90.725 67.9616C90.5204 68.4162 90.4181 68.9744 90.4181 69.6364C90.4181 70.2983 90.5204 70.858 90.725 71.3153C90.9324 71.7699 91.2179 72.1151 91.5815 72.3509C91.9451 72.5838 92.3642 72.7003 92.8386 72.7003C93.313 72.7003 93.7321 72.5838 94.0957 72.3509C94.4593 72.1151 94.7434 71.7699 94.948 71.3153C95.1554 70.858 95.2591 70.2983 95.2591 69.6364ZM105.486 67.6719C105.446 67.2997 105.279 67.0099 104.983 66.8026C104.691 66.5952 104.31 66.4915 103.841 66.4915C103.512 66.4915 103.229 66.5412 102.993 66.6406C102.757 66.7401 102.577 66.875 102.452 67.0455C102.327 67.2159 102.263 67.4105 102.26 67.6293C102.26 67.8111 102.301 67.9687 102.384 68.1023C102.469 68.2358 102.584 68.3494 102.729 68.4432C102.874 68.5341 103.034 68.6108 103.211 68.6733C103.387 68.7358 103.564 68.7884 103.743 68.831L104.561 69.0355C104.891 69.1122 105.208 69.2159 105.512 69.3466C105.818 69.4773 106.093 69.642 106.334 69.8409C106.578 70.0398 106.772 70.2798 106.914 70.5611C107.056 70.8423 107.127 71.1719 107.127 71.5497C107.127 72.0611 106.996 72.5114 106.735 72.9006C106.473 73.2869 106.095 73.5895 105.601 73.8082C105.11 74.0241 104.515 74.1321 103.816 74.1321C103.137 74.1321 102.547 74.027 102.047 73.8168C101.55 73.6065 101.161 73.2997 100.88 72.8963C100.601 72.4929 100.451 72.0014 100.428 71.4219H101.983C102.006 71.7259 102.1 71.9787 102.265 72.1804C102.429 72.3821 102.644 72.5327 102.908 72.6321C103.175 72.7315 103.473 72.7812 103.803 72.7812C104.147 72.7812 104.448 72.7301 104.706 72.6278C104.968 72.5227 105.172 72.3778 105.32 72.1932C105.468 72.0057 105.543 71.7869 105.546 71.5369C105.543 71.3097 105.476 71.1222 105.345 70.9744C105.215 70.8239 105.032 70.6989 104.796 70.5994C104.563 70.4972 104.29 70.4062 103.978 70.3267L102.985 70.071C102.266 69.8864 101.698 69.6065 101.28 69.2315C100.865 68.8537 100.658 68.3523 100.658 67.7273C100.658 67.2131 100.797 66.7628 101.076 66.3764C101.357 65.9901 101.739 65.6903 102.222 65.4773C102.705 65.2614 103.252 65.1534 103.863 65.1534C104.482 65.1534 105.024 65.2614 105.49 65.4773C105.959 65.6903 106.327 65.9872 106.594 66.3679C106.861 66.7457 106.999 67.1804 107.007 67.6719H105.486ZM110.553 66.598L110.553 65.2727L117.516 65.2727L117.516 66.598L114.818 66.598V74L113.25 74V66.598H110.553Z" fill="#7FC591"/>
<path d="M137.348 3.27273L139.619 10.142L139.709 10.142L141.976 3.27273L143.714 3.27273L140.638 12L138.686 12L135.614 3.27273L137.348 3.27273ZM147.264 12L147.264 3.27273L150.537 3.27273C151.207 3.27273 151.77 3.3892 152.224 3.62216C152.682 3.85511 153.027 4.18182 153.26 4.60227C153.495 5.01989 153.613 5.5071 153.613 6.06392C153.613 6.62358 153.494 7.10937 153.255 7.52131C153.02 7.9304 152.672 8.24716 152.211 8.47159C151.751 8.69318 151.186 8.80398 150.515 8.80398L148.184 8.80398L148.184 7.49148L150.302 7.49148C150.694 7.49148 151.015 7.4375 151.265 7.32955C151.515 7.21875 151.7 7.05824 151.819 6.84801C151.941 6.63494 152.003 6.37358 152.003 6.06392C152.003 5.75426 151.941 5.49006 151.819 5.27131C151.697 5.04972 151.511 4.8821 151.261 4.76847C151.011 4.65199 150.689 4.59375 150.294 4.59375L148.845 4.59375L148.845 12L147.264 12ZM151.772 8.04545L153.933 12L152.169 12L150.047 8.04545L151.772 8.04545ZM159.05 3.27273L159.05 12L157.469 12L157.469 3.27273L159.05 3.27273ZM166.605 3.27273L168.173 3.27273V9.40909C168.17 9.97159 168.051 10.456 167.815 10.8622C167.579 11.2656 167.25 11.5767 166.826 11.7955C166.406 12.0114 165.916 12.1193 165.356 12.1193C164.845 12.1193 164.385 12.0284 163.975 11.8466C163.569 11.6619 163.247 11.3892 163.008 11.0284C162.77 10.6676 162.65 10.2187 162.65 9.68182L164.223 9.68182C164.225 9.91761 164.277 10.1207 164.376 10.2912C164.478 10.4616 164.619 10.5923 164.798 10.6832C164.977 10.7741 165.183 10.8196 165.416 10.8196C165.669 10.8196 165.883 10.767 166.059 10.6619C166.235 10.554 166.369 10.3949 166.46 10.1847C166.554 9.97443 166.602 9.71591 166.605 9.40909L166.605 3.27273ZM172.288 12L172.288 3.27273L177.964 3.27273V4.59801L173.869 4.59801V6.96733L177.67 6.96733V8.29261L173.869 8.29261L173.869 10.6747L177.998 10.6747V12L172.288 12ZM181.977 3.27273L183.912 3.27273L186.503 9.59659H186.605L189.196 3.27273L191.131 3.27273L191.131 12L189.614 12L189.614 6.00426H189.533L187.121 11.9744L185.987 11.9744L183.575 5.99148H183.494L183.494 12L181.977 12L181.977 3.27273ZM195.252 12L195.252 3.27273L200.928 3.27273V4.59801L196.833 4.59801V6.96733L200.634 6.96733V8.29261L196.833 8.29261L196.833 10.6747L200.962 10.6747V12L195.252 12Z" fill="#C0C0C0"/>
<path d="M227.944 447.598V446.273H234.908V447.598H232.21L232.21 455H230.642L230.642 447.598H227.944ZM238.65 455L238.65 446.273H241.923C242.593 446.273 243.156 446.389 243.61 446.622C244.067 446.855 244.413 447.182 244.646 447.602C244.881 448.02 244.999 448.507 244.999 449.064C244.999 449.624 244.88 450.109 244.641 450.521C244.406 450.93 244.058 451.247 243.597 451.472C243.137 451.693 242.572 451.804 241.901 451.804H239.57L239.57 450.491H241.688C242.08 450.491 242.401 450.437 242.651 450.33C242.901 450.219 243.086 450.058 243.205 449.848C243.327 449.635 243.388 449.374 243.388 449.064C243.388 448.754 243.327 448.49 243.205 448.271C243.083 448.05 242.897 447.882 242.647 447.768C242.397 447.652 242.075 447.594 241.68 447.594H240.231L240.231 455H238.65ZM243.158 451.045L245.319 455L243.555 455L241.433 451.045H243.158ZM256.653 450.636C256.653 451.577 256.477 452.382 256.124 453.053C255.775 453.72 255.298 454.232 254.693 454.587C254.09 454.942 253.407 455.119 252.643 455.119C251.879 455.119 251.194 454.942 250.589 454.587C249.987 454.229 249.509 453.716 249.157 453.048C248.808 452.378 248.633 451.574 248.633 450.636C248.633 449.696 248.808 448.892 249.157 448.224C249.509 447.554 249.987 447.041 250.589 446.686C251.194 446.331 251.879 446.153 252.643 446.153C253.407 446.153 254.09 446.331 254.693 446.686C255.298 447.041 255.775 447.554 256.124 448.224C256.477 448.892 256.653 449.696 256.653 450.636ZM255.063 450.636C255.063 449.974 254.96 449.416 254.752 448.962C254.548 448.504 254.264 448.159 253.9 447.926C253.536 447.69 253.117 447.572 252.643 447.572C252.168 447.572 251.749 447.69 251.386 447.926C251.022 448.159 250.737 448.504 250.529 448.962C250.325 449.416 250.222 449.974 250.222 450.636C250.222 451.298 250.325 451.858 250.529 452.315C250.737 452.77 251.022 453.115 251.386 453.351C251.749 453.584 252.168 453.7 252.643 453.7C253.117 453.7 253.536 453.584 253.9 453.351C254.264 453.115 254.548 452.77 254.752 452.315C254.96 451.858 255.063 451.298 255.063 450.636ZM265.29 448.672C265.251 448.3 265.083 448.01 264.788 447.803C264.495 447.595 264.114 447.491 263.646 447.491C263.316 447.491 263.033 447.541 262.798 447.641C262.562 447.74 262.381 447.875 262.256 448.045C262.131 448.216 262.067 448.411 262.065 448.629C262.065 448.811 262.106 448.969 262.188 449.102C262.273 449.236 262.388 449.349 262.533 449.443C262.678 449.534 262.839 449.611 263.015 449.673C263.191 449.736 263.369 449.788 263.548 449.831L264.366 450.036C264.695 450.112 265.012 450.216 265.316 450.347C265.623 450.477 265.897 450.642 266.138 450.841C266.383 451.04 266.576 451.28 266.718 451.561C266.86 451.842 266.931 452.172 266.931 452.55C266.931 453.061 266.8 453.511 266.539 453.901C266.278 454.287 265.9 454.589 265.405 454.808C264.914 455.024 264.319 455.132 263.62 455.132C262.941 455.132 262.351 455.027 261.851 454.817C261.354 454.607 260.965 454.3 260.684 453.896C260.405 453.493 260.255 453.001 260.232 452.422H261.788C261.81 452.726 261.904 452.979 262.069 453.18C262.234 453.382 262.448 453.533 262.712 453.632C262.979 453.732 263.278 453.781 263.607 453.781C263.951 453.781 264.252 453.73 264.511 453.628C264.772 453.523 264.976 453.378 265.124 453.193C265.272 453.006 265.347 452.787 265.35 452.537C265.347 452.31 265.28 452.122 265.15 451.974C265.019 451.824 264.836 451.699 264.6 451.599C264.367 451.497 264.094 451.406 263.782 451.327L262.789 451.071C262.07 450.886 261.502 450.607 261.084 450.232C260.67 449.854 260.462 449.352 260.462 448.727C260.462 448.213 260.601 447.763 260.88 447.376C261.161 446.99 261.543 446.69 262.026 446.477C262.509 446.261 263.056 446.153 263.667 446.153C264.286 446.153 264.829 446.261 265.295 446.477C265.763 446.69 266.131 446.987 266.398 447.368C266.665 447.746 266.803 448.18 266.812 448.672H265.29ZM262.712 443.588L263.577 444.679L264.442 443.588H265.793V443.648L264.182 445.489H262.976L261.361 443.648V443.588H262.712ZM270.74 455V446.273H272.321V450.283H272.428L275.833 446.273L277.763 446.273L274.388 450.189L277.793 455L275.892 455L273.289 451.259L272.321 452.401V455H270.74ZM288.591 450.636C288.591 451.577 288.415 452.382 288.063 453.053C287.713 453.72 287.236 454.232 286.631 454.587C286.029 454.942 285.345 455.119 284.581 455.119C283.817 455.119 283.132 454.942 282.527 454.587C281.925 454.229 281.448 453.716 281.095 453.048C280.746 452.378 280.571 451.574 280.571 450.636C280.571 449.696 280.746 448.892 281.095 448.224C281.448 447.554 281.925 447.041 282.527 446.686C283.132 446.331 283.817 446.153 284.581 446.153C285.345 446.153 286.029 446.331 286.631 446.686C287.236 447.041 287.713 447.554 288.063 448.224C288.415 448.892 288.591 449.696 288.591 450.636ZM287.002 450.636C287.002 449.974 286.898 449.416 286.691 448.962C286.486 448.504 286.202 448.159 285.838 447.926C285.475 447.69 285.056 447.572 284.581 447.572C284.107 447.572 283.688 447.69 283.324 447.926C282.96 448.159 282.675 448.504 282.468 448.962C282.263 449.416 282.161 449.974 282.161 450.636C282.161 451.298 282.263 451.858 282.468 452.315C282.675 452.77 282.96 453.115 283.324 453.351C283.688 453.584 284.107 453.7 284.581 453.7C285.056 453.7 285.475 453.584 285.838 453.351C286.202 453.115 286.486 452.77 286.691 452.315C286.898 451.858 287.002 451.298 287.002 450.636ZM293.185 446.273L295.456 453.142H295.545L297.812 446.273H299.551L296.474 455H294.523L291.45 446.273H293.185ZM304.682 446.273V455H303.101V446.273H304.682Z" fill="#CD4358"/>
<path d="M272 415L258 415L258 64L272 64L272 415Z" fill="white"/>
<path d="M272 415L258 415L258 64L272 64L272 415Z" fill="url(#paint3_linear)"/>
<circle cx="265.5" cy="416.5" r="11.5" transform="rotate(-180 265.5 416.5)" fill="#CD4358"/>
<path d="M194 173C194 170.239 196.239 168 199 168H332C334.761 168 337 170.239 337 173V199C337 201.761 334.761 204 332 204H199C196.239 204 194 201.761 194 199V173Z" fill="#222222"/>
<path d="M194 173C194 170.239 196.239 168 199 168H332C334.761 168 337 170.239 337 173V199C337 201.761 334.761 204 332 204H199C196.239 204 194 201.761 194 199V173Z" fill="#222222"/>
<path d="M214.175 190L214.175 182H215.625V185.676H215.722L218.843 182H220.613L217.519 185.59L220.64 190H218.898L216.511 186.57L215.625 187.617V190H214.175ZM230.538 186C230.538 186.862 230.377 187.6 230.054 188.215C229.734 188.827 229.296 189.296 228.742 189.621C228.19 189.947 227.563 190.109 226.863 190.109C226.162 190.109 225.535 189.947 224.98 189.621C224.428 189.293 223.99 188.823 223.667 188.211C223.347 187.596 223.187 186.859 223.187 186C223.187 185.138 223.347 184.401 223.667 183.789C223.99 183.174 224.428 182.704 224.98 182.379C225.535 182.053 226.162 181.891 226.863 181.891C227.563 181.891 228.19 182.053 228.742 182.379C229.296 182.704 229.734 183.174 230.054 183.789C230.377 184.401 230.538 185.138 230.538 186ZM229.081 186C229.081 185.393 228.986 184.882 228.796 184.465C228.609 184.046 228.348 183.729 228.015 183.516C227.682 183.299 227.298 183.191 226.863 183.191C226.428 183.191 226.044 183.299 225.71 183.516C225.377 183.729 225.115 184.046 224.925 184.465C224.738 184.882 224.644 185.393 224.644 186C224.644 186.607 224.738 187.12 224.925 187.539C225.115 187.956 225.377 188.272 225.71 188.488C226.044 188.702 226.428 188.809 226.863 188.809C227.298 188.809 227.682 188.702 228.015 188.488C228.348 188.272 228.609 187.956 228.796 187.539C228.986 187.12 229.081 186.607 229.081 186ZM240.683 182L240.683 190H239.394L235.624 184.551H235.558L235.558 190H234.109L234.109 182H235.405L239.171 187.453H239.241V182H240.683ZM248.81 184.199C248.773 183.858 248.619 183.592 248.349 183.402C248.08 183.212 247.731 183.117 247.302 183.117C247 183.117 246.741 183.163 246.524 183.254C246.308 183.345 246.143 183.469 246.028 183.625C245.914 183.781 245.855 183.96 245.853 184.16C245.853 184.327 245.89 184.471 245.966 184.594C246.044 184.716 246.149 184.82 246.282 184.906C246.415 184.99 246.562 185.06 246.724 185.117C246.885 185.174 247.048 185.223 247.212 185.262L247.962 185.449C248.264 185.52 248.554 185.615 248.833 185.734C249.114 185.854 249.366 186.005 249.587 186.188C249.811 186.37 249.988 186.59 250.118 186.848C250.248 187.105 250.313 187.408 250.313 187.754C250.313 188.223 250.194 188.635 249.954 188.992C249.715 189.346 249.368 189.624 248.915 189.824C248.465 190.022 247.919 190.121 247.278 190.121C246.656 190.121 246.116 190.025 245.657 189.832C245.201 189.639 244.845 189.358 244.587 188.988C244.332 188.618 244.194 188.168 244.173 187.637H245.599C245.619 187.915 245.705 188.147 245.856 188.332C246.007 188.517 246.204 188.655 246.446 188.746C246.691 188.837 246.965 188.883 247.267 188.883C247.582 188.883 247.858 188.836 248.095 188.742C248.334 188.646 248.522 188.513 248.657 188.344C248.793 188.172 248.862 187.971 248.864 187.742C248.862 187.534 248.8 187.362 248.681 187.227C248.561 187.089 248.393 186.974 248.177 186.883C247.963 186.789 247.713 186.706 247.427 186.633L246.517 186.398C245.858 186.229 245.337 185.973 244.954 185.629C244.574 185.283 244.384 184.823 244.384 184.25C244.384 183.779 244.511 183.366 244.767 183.012C245.024 182.658 245.375 182.383 245.817 182.187C246.26 181.99 246.761 181.891 247.321 181.891C247.889 181.891 248.386 181.99 248.813 182.187C249.243 182.383 249.58 182.655 249.825 183.004C250.07 183.35 250.196 183.749 250.204 184.199H248.81ZM258.848 182H260.298V187.227C260.298 187.799 260.162 188.303 259.891 188.738C259.623 189.173 259.246 189.513 258.759 189.758C258.272 190 257.703 190.121 257.052 190.121C256.398 190.121 255.828 190 255.341 189.758C254.854 189.513 254.476 189.173 254.208 188.738C253.94 188.303 253.805 187.799 253.805 187.227V182L255.255 182V187.105C255.255 187.439 255.328 187.736 255.473 187.996C255.622 188.257 255.83 188.461 256.098 188.609C256.367 188.755 256.684 188.828 257.052 188.828C257.419 188.828 257.736 188.755 258.005 188.609C258.276 188.461 258.484 188.257 258.63 187.996C258.776 187.736 258.848 187.439 258.848 187.105V182ZM264.073 190V182H265.522V188.785H269.046V190H264.073ZM271.131 183.215V182H277.514V183.215H275.041V190H273.604V183.215H271.131ZM281.005 190H279.458L282.275 182H284.064L286.884 190H285.337L283.2 183.641H283.138L281.005 190ZM281.056 186.863H285.275V188.027H281.056V186.863ZM296.609 184.699H295.148C295.107 184.46 295.03 184.247 294.918 184.062C294.806 183.875 294.667 183.716 294.5 183.586C294.333 183.456 294.143 183.358 293.93 183.293C293.719 183.225 293.491 183.191 293.246 183.191C292.811 183.191 292.426 183.301 292.09 183.52C291.754 183.736 291.491 184.053 291.301 184.473C291.111 184.889 291.016 185.398 291.016 186C291.016 186.612 291.111 187.128 291.301 187.547C291.493 187.964 291.757 188.279 292.09 188.492C292.426 188.703 292.81 188.809 293.242 188.809C293.482 188.809 293.706 188.777 293.914 188.715C294.125 188.65 294.314 188.555 294.48 188.43C294.65 188.305 294.792 188.151 294.906 187.969C295.023 187.786 295.104 187.578 295.148 187.344L296.609 187.352C296.555 187.732 296.436 188.089 296.254 188.422C296.074 188.755 295.839 189.049 295.547 189.305C295.255 189.557 294.914 189.755 294.523 189.898C294.133 190.039 293.699 190.109 293.223 190.109C292.52 190.109 291.892 189.947 291.34 189.621C290.788 189.296 290.353 188.826 290.035 188.211C289.717 187.596 289.559 186.859 289.559 186C289.559 185.138 289.719 184.401 290.039 183.789C290.359 183.174 290.796 182.704 291.348 182.379C291.9 182.053 292.525 181.891 293.223 181.891C293.668 181.891 294.082 181.953 294.465 182.078C294.848 182.203 295.189 182.387 295.488 182.629C295.788 182.868 296.034 183.163 296.227 183.512C296.422 183.858 296.549 184.254 296.609 184.699ZM301.586 182V190H300.137V182H301.586ZM308.511 182H309.949V187.625C309.946 188.141 309.837 188.585 309.621 188.957C309.405 189.327 309.102 189.612 308.714 189.812C308.329 190.01 307.88 190.109 307.367 190.109C306.898 190.109 306.476 190.026 306.101 189.859C305.729 189.69 305.433 189.44 305.214 189.109C304.996 188.779 304.886 188.367 304.886 187.875H306.328C306.33 188.091 306.377 188.277 306.468 188.434C306.562 188.59 306.691 188.71 306.855 188.793C307.019 188.876 307.208 188.918 307.421 188.918C307.653 188.918 307.85 188.87 308.011 188.773C308.173 188.674 308.295 188.529 308.379 188.336C308.464 188.143 308.509 187.906 308.511 187.625V182ZM313.721 190V182H318.924V183.215H315.17V185.387H318.655V186.602H315.17V188.785H318.955V190H313.721Z" fill="white"/>
<path d="M194 232C194 229.239 196.239 227 199 227H332C334.761 227 337 229.239 337 232V258C337 260.761 334.761 263 332 263H199C196.239 263 194 260.761 194 258V232Z" fill="#222222"/>
<path d="M194 232C194 229.239 196.239 227 199 227H332C334.761 227 337 229.239 337 232V258C337 260.761 334.761 263 332 263H199C196.239 263 194 260.761 194 258V232Z" fill="#222222"/>
<path d="M240.831 249L240.831 241H243.831C244.446 241 244.961 241.115 245.378 241.344C245.797 241.573 246.114 241.888 246.327 242.289C246.543 242.687 246.651 243.141 246.651 243.648C246.651 244.161 246.543 244.617 246.327 245.016C246.111 245.414 245.792 245.728 245.37 245.957C244.948 246.184 244.429 246.297 243.812 246.297H241.823V245.105H243.616C243.976 245.105 244.27 245.043 244.499 244.918C244.728 244.793 244.897 244.621 245.007 244.402C245.119 244.184 245.175 243.932 245.175 243.648C245.175 243.365 245.119 243.115 245.007 242.898C244.897 242.682 244.727 242.514 244.495 242.395C244.266 242.272 243.97 242.211 243.608 242.211H242.28L242.28 249H240.831ZM257.259 245C257.259 245.862 257.097 246.6 256.774 247.215C256.454 247.827 256.016 248.296 255.462 248.621C254.91 248.947 254.283 249.109 253.583 249.109C252.882 249.109 252.255 248.947 251.7 248.621C251.148 248.293 250.71 247.823 250.387 247.211C250.067 246.596 249.907 245.859 249.907 245C249.907 244.138 250.067 243.401 250.387 242.789C250.71 242.174 251.148 241.704 251.7 241.379C252.255 241.053 252.882 240.891 253.583 240.891C254.283 240.891 254.91 241.053 255.462 241.379C256.016 241.704 256.454 242.174 256.774 242.789C257.097 243.401 257.259 244.138 257.259 245ZM255.802 245C255.802 244.393 255.707 243.882 255.516 243.465C255.329 243.046 255.068 242.729 254.735 242.516C254.402 242.299 254.018 242.191 253.583 242.191C253.148 242.191 252.764 242.299 252.43 242.516C252.097 242.729 251.835 243.046 251.645 243.465C251.458 243.882 251.364 244.393 251.364 245C251.364 245.607 251.458 246.12 251.645 246.539C251.835 246.956 252.097 247.272 252.43 247.488C252.764 247.702 253.148 247.809 253.583 247.809C254.018 247.809 254.402 247.702 254.735 247.488C255.068 247.272 255.329 246.956 255.516 246.539C255.707 246.12 255.802 245.607 255.802 245ZM263.54 249H260.829V241H263.594C264.389 241 265.071 241.16 265.641 241.48C266.214 241.798 266.654 242.255 266.962 242.852C267.269 243.448 267.422 244.161 267.422 244.992C267.422 245.826 267.268 246.542 266.958 247.141C266.65 247.74 266.206 248.199 265.626 248.52C265.047 248.84 264.352 249 263.54 249ZM262.278 247.746H263.469C264.027 247.746 264.491 247.645 264.864 247.441C265.236 247.236 265.516 246.93 265.704 246.523C265.891 246.115 265.985 245.604 265.985 244.992C265.985 244.38 265.891 243.872 265.704 243.469C265.516 243.062 265.239 242.759 264.872 242.559C264.507 242.355 264.054 242.254 263.512 242.254H262.278V247.746ZM271.597 249H270.05L272.867 241H274.656L277.476 249H275.929L273.792 242.641H273.73L271.597 249ZM271.648 245.863H275.867V247.027H271.648V245.863ZM287.201 243.699H285.74C285.699 243.46 285.622 243.247 285.51 243.062C285.398 242.875 285.259 242.716 285.092 242.586C284.925 242.456 284.735 242.358 284.522 242.293C284.311 242.225 284.083 242.191 283.838 242.191C283.403 242.191 283.018 242.301 282.682 242.52C282.346 242.736 282.083 243.053 281.893 243.473C281.703 243.889 281.608 244.398 281.608 245C281.608 245.612 281.703 246.128 281.893 246.547C282.085 246.964 282.349 247.279 282.682 247.492C283.018 247.703 283.402 247.809 283.834 247.809C284.074 247.809 284.298 247.777 284.506 247.715C284.717 247.65 284.906 247.555 285.072 247.43C285.242 247.305 285.384 247.151 285.498 246.969C285.615 246.786 285.696 246.578 285.74 246.344L287.201 246.352C287.147 246.732 287.028 247.089 286.846 247.422C286.666 247.755 286.431 248.049 286.139 248.305C285.847 248.557 285.506 248.755 285.115 248.898C284.725 249.039 284.291 249.109 283.815 249.109C283.112 249.109 282.484 248.947 281.932 248.621C281.38 248.296 280.945 247.826 280.627 247.211C280.309 246.596 280.151 245.859 280.151 245C280.151 244.138 280.311 243.401 280.631 242.789C280.951 242.174 281.388 241.704 281.94 241.379C282.492 241.053 283.117 240.891 283.815 240.891C284.26 240.891 284.674 240.953 285.057 241.078C285.44 241.203 285.781 241.387 286.08 241.629C286.38 241.868 286.626 242.163 286.819 242.512C287.014 242.858 287.141 243.254 287.201 243.699ZM292.178 241V249H290.729V241H292.178Z" fill="white"/>
<path d="M195 291C195 288.239 197.239 286 200 286H333C335.761 286 338 288.239 338 291V317C338 319.761 335.761 322 333 322H200C197.239 322 195 319.761 195 317V291Z" fill="#222222"/>
<path d="M195 291C195 288.239 197.239 286 200 286H333C335.761 286 338 288.239 338 291V317C338 319.761 335.761 322 333 322H200C197.239 322 195 319.761 195 317V291Z" fill="#222222"/>
<path d="M211.864 300.364H213.237V305.733C213.234 306.225 213.13 306.649 212.923 307.004C212.717 307.357 212.429 307.63 212.058 307.821C211.69 308.01 211.262 308.104 210.772 308.104C210.325 308.104 209.922 308.025 209.564 307.866C209.208 307.704 208.926 307.466 208.717 307.15C208.509 306.834 208.404 306.441 208.404 305.972H209.78C209.783 306.178 209.827 306.356 209.914 306.505C210.004 306.654 210.127 306.768 210.284 306.848C210.44 306.927 210.62 306.967 210.824 306.967C211.045 306.967 211.233 306.921 211.387 306.829C211.541 306.735 211.658 306.596 211.738 306.412C211.82 306.228 211.862 306.001 211.864 305.733V300.364ZM216.837 308L216.837 300.364H221.804V301.523H218.221V303.596H221.547V304.756H218.221L218.221 306.84H221.834V308H216.837ZM227.903 308H225.315L225.315 300.364H227.955C228.713 300.364 229.365 300.517 229.909 300.822C230.456 301.126 230.876 301.562 231.169 302.131C231.463 302.7 231.609 303.381 231.609 304.174C231.609 304.97 231.461 305.653 231.166 306.225C230.872 306.797 230.449 307.236 229.894 307.541C229.342 307.847 228.679 308 227.903 308ZM226.699 306.803H227.836C228.368 306.803 228.812 306.706 229.167 306.512C229.523 306.316 229.79 306.024 229.969 305.636C230.148 305.246 230.237 304.759 230.237 304.174C230.237 303.59 230.148 303.105 229.969 302.72C229.79 302.332 229.525 302.043 229.175 301.851C228.827 301.657 228.394 301.561 227.877 301.561H226.699V306.803ZM241.299 300.364V308H240.069L236.47 302.798H236.407L236.407 308H235.024L235.024 300.364H236.262L239.856 305.569H239.923V300.364H241.299ZM251.73 304.182C251.73 305.005 251.576 305.709 251.268 306.296C250.962 306.88 250.544 307.328 250.015 307.638C249.488 307.949 248.89 308.104 248.221 308.104C247.553 308.104 246.954 307.949 246.424 307.638C245.897 307.325 245.479 306.876 245.171 306.292C244.865 305.706 244.713 305.002 244.713 304.182C244.713 303.359 244.865 302.656 245.171 302.071C245.479 301.485 245.897 301.036 246.424 300.725C246.954 300.415 247.553 300.259 248.221 300.259C248.89 300.259 249.488 300.415 250.015 300.725C250.544 301.036 250.962 301.485 251.268 302.071C251.576 302.656 251.73 303.359 251.73 304.182ZM250.339 304.182C250.339 303.603 250.248 303.114 250.067 302.716C249.888 302.316 249.639 302.014 249.321 301.81C249.003 301.604 248.636 301.501 248.221 301.501C247.806 301.501 247.439 301.604 247.121 301.81C246.803 302.014 246.553 302.316 246.372 302.716C246.193 303.114 246.103 303.603 246.103 304.182C246.103 304.761 246.193 305.251 246.372 305.651C246.553 306.049 246.803 306.351 247.121 306.557C247.439 306.761 247.806 306.863 248.221 306.863C248.636 306.863 249.003 306.761 249.321 306.557C249.639 306.351 249.888 306.049 250.067 305.651C250.248 305.251 250.339 304.761 250.339 304.182ZM259.288 302.463C259.253 302.137 259.106 301.884 258.848 301.702C258.592 301.521 258.259 301.43 257.849 301.43C257.56 301.43 257.313 301.474 257.107 301.561C256.9 301.648 256.742 301.766 256.633 301.915C256.524 302.064 256.468 302.234 256.465 302.426C256.465 302.585 256.501 302.723 256.573 302.839C256.648 302.956 256.749 303.056 256.875 303.138C257.002 303.217 257.143 303.284 257.297 303.339C257.451 303.394 257.606 303.44 257.763 303.477L258.479 303.656C258.767 303.723 259.044 303.814 259.31 303.928C259.579 304.043 259.819 304.187 260.03 304.361C260.244 304.535 260.413 304.745 260.537 304.991C260.661 305.237 260.723 305.525 260.723 305.856C260.723 306.303 260.609 306.697 260.38 307.038C260.152 307.376 259.821 307.641 259.389 307.832C258.958 308.021 258.438 308.116 257.826 308.116C257.232 308.116 256.716 308.024 256.279 307.84C255.844 307.656 255.503 307.387 255.257 307.034C255.014 306.681 254.882 306.251 254.862 305.744H256.223C256.243 306.01 256.325 306.231 256.469 306.408C256.613 306.584 256.801 306.716 257.032 306.803C257.266 306.89 257.527 306.934 257.815 306.934C258.116 306.934 258.379 306.889 258.606 306.799C258.834 306.707 259.013 306.581 259.142 306.419C259.272 306.255 259.338 306.064 259.34 305.845C259.338 305.646 259.279 305.482 259.165 305.353C259.05 305.221 258.89 305.112 258.684 305.025C258.48 304.935 258.241 304.855 257.968 304.786L257.099 304.562C256.47 304.401 255.973 304.156 255.608 303.828C255.245 303.497 255.063 303.058 255.063 302.511C255.063 302.061 255.185 301.667 255.429 301.329C255.675 300.991 256.009 300.729 256.432 300.543C256.854 300.354 257.333 300.259 257.867 300.259C258.409 300.259 258.884 300.354 259.292 300.543C259.702 300.729 260.024 300.989 260.257 301.322C260.491 301.653 260.612 302.033 260.619 302.463H259.288ZM263.721 301.523V300.364H269.814V301.523H267.454V308H266.081V301.523H263.721ZM273.146 308H271.67L274.358 300.364H276.066L278.758 308H277.281L275.242 301.93H275.182L273.146 308ZM273.195 305.006H277.222V306.117H273.195V305.006ZM282.014 300.364L284.001 306.374H284.079L286.063 300.364H287.584L284.892 308H283.184L280.496 300.364H282.014ZM296.966 300.364V308H295.735L292.137 302.798H292.074V308L290.69 308V300.364L291.928 300.364L295.523 305.569H295.59V300.364H296.966ZM307.396 304.182C307.396 305.005 307.242 305.709 306.934 306.296C306.628 306.88 306.211 307.328 305.681 307.638C305.154 307.949 304.556 308.104 303.888 308.104C303.219 308.104 302.62 307.949 302.09 307.638C301.563 307.325 301.146 306.876 300.838 306.292C300.532 305.706 300.379 305.002 300.379 304.182C300.379 303.359 300.532 302.656 300.838 302.071C301.146 301.485 301.563 301.036 302.09 300.725C302.62 300.415 303.219 300.259 303.888 300.259C304.556 300.259 305.154 300.415 305.681 300.725C306.211 301.036 306.628 301.485 306.934 302.071C307.242 302.656 307.396 303.359 307.396 304.182ZM306.006 304.182C306.006 303.603 305.915 303.114 305.733 302.716C305.554 302.316 305.306 302.014 304.988 301.81C304.669 301.604 304.303 301.501 303.888 301.501C303.473 301.501 303.106 301.604 302.788 301.81C302.47 302.014 302.22 302.316 302.038 302.716C301.859 303.114 301.77 303.603 301.77 304.182C301.77 304.761 301.859 305.251 302.038 305.651C302.22 306.049 302.47 306.351 302.788 306.557C303.106 306.761 303.473 306.863 303.888 306.863C304.303 306.863 304.669 306.761 304.988 306.557C305.306 306.351 305.554 306.049 305.733 305.651C305.915 305.251 306.006 304.761 306.006 304.182ZM314.954 302.463C314.919 302.137 314.773 301.884 314.514 301.702C314.258 301.521 313.925 301.43 313.515 301.43C313.227 301.43 312.979 301.474 312.773 301.561C312.567 301.648 312.409 301.766 312.299 301.915C312.19 302.064 312.134 302.234 312.132 302.426C312.132 302.585 312.168 302.723 312.24 302.839C312.314 302.956 312.415 303.056 312.542 303.138C312.669 303.217 312.809 303.284 312.963 303.339C313.117 303.394 313.273 303.44 313.429 303.477L314.145 303.656C314.433 303.723 314.711 303.814 314.977 303.928C315.245 304.043 315.485 304.187 315.696 304.361C315.91 304.535 316.079 304.745 316.203 304.991C316.328 305.237 316.39 305.525 316.39 305.856C316.39 306.303 316.275 306.697 316.047 307.038C315.818 307.376 315.487 307.641 315.055 307.832C314.625 308.021 314.104 308.116 313.493 308.116C312.899 308.116 312.383 308.024 311.945 307.84C311.51 307.656 311.17 307.387 310.924 307.034C310.68 306.681 310.548 306.251 310.528 305.744H311.889C311.909 306.01 311.991 306.231 312.135 306.408C312.28 306.584 312.467 306.716 312.698 306.803C312.932 306.89 313.193 306.934 313.481 306.934C313.782 306.934 314.046 306.889 314.272 306.799C314.501 306.707 314.68 306.581 314.809 306.419C314.938 306.255 315.004 306.064 315.006 305.845C315.004 305.646 314.946 305.482 314.831 305.353C314.717 305.221 314.557 305.112 314.35 305.025C314.146 304.935 313.908 304.855 313.634 304.786L312.766 304.562C312.137 304.401 311.639 304.156 311.274 303.828C310.911 303.497 310.73 303.058 310.73 302.511C310.73 302.061 310.851 301.667 311.095 301.329C311.341 300.991 311.675 300.729 312.098 300.543C312.521 300.354 312.999 300.259 313.534 300.259C314.076 300.259 314.55 300.354 314.958 300.543C315.368 300.729 315.69 300.989 315.924 301.322C316.157 301.653 316.278 302.033 316.285 302.463H314.954ZM319.387 301.523V300.364L325.48 300.364V301.523L323.12 301.523V308H321.748V301.523H319.387Z" fill="white"/>
<ellipse cx="168.5" cy="39" rx="11.5" ry="11" fill="#D1D1D1"/>
<defs>
<linearGradient id="paint0_linear" x1="69.5" y1="98" x2="69.5" y2="449" gradientUnits="userSpaceOnUse">
<stop stop-color="#7FC591" stop-opacity="0.4"/>
<stop offset="1" stop-color="#7FC591" stop-opacity="0"/>
</linearGradient>
<linearGradient id="paint1_linear" x1="69.5" y1="98" x2="69.5" y2="449" gradientUnits="userSpaceOnUse">
<stop stop-color="#7FC591" stop-opacity="0.4"/>
<stop offset="1" stop-color="#7FC591" stop-opacity="0"/>
</linearGradient>
<linearGradient id="paint2_linear" x1="168.5" y1="37" x2="168.5" y2="487" gradientUnits="userSpaceOnUse">
<stop stop-color="#BFBFBF" stop-opacity="0.4"/>
<stop offset="1" stop-color="#222222" stop-opacity="0"/>
</linearGradient>
<linearGradient id="paint3_linear" x1="265" y1="416" x2="265" y2="65" gradientUnits="userSpaceOnUse">
<stop stop-color="#CD4358" stop-opacity="0.4"/>
<stop offset="1" stop-color="#CD4358" stop-opacity="0"/>
</linearGradient>
</defs>
</svg>
