<svg width="99" height="19" viewBox="0 0 99 19" fill="none" xmlns="http://www.w3.org/2000/svg">
<path d="M8.416 17.976C8.488 18.12 8.608 18.24 8.824 18.24H9.064C9.28 18.24 9.4 18.12 9.472 17.976L16.912 1.824C17.056 1.512 16.864 1.2 16.504 1.2H14.056C13.84 1.2 13.696 1.344 13.648 1.464L9.04 11.784H8.872L4.264 1.464C4.216 1.344 4.072 1.2 3.856 1.2H1.408C1.048 1.2 0.856 1.512 1 1.824L8.416 17.976ZM22.5809 9.624C22.5809 14.424 26.3969 18.24 31.1969 18.24C35.9969 18.24 39.8369 14.424 39.8369 9.624C39.8369 4.824 35.9969 0.959999 31.1969 0.959999C26.3969 0.959999 22.5809 4.824 22.5809 9.624ZM25.7009 9.624C25.7009 6.6 28.1729 4.08 31.1969 4.08C34.2209 4.08 36.7169 6.6 36.7169 9.624C36.7169 12.648 34.2209 15.12 31.1969 15.12C28.1729 15.12 25.7009 12.648 25.7009 9.624ZM47.7762 17.544C47.7762 17.784 47.9682 18 48.2322 18H50.4402C50.6802 18 50.8962 17.784 50.8962 17.544V11.424H53.5602L56.7522 17.784C56.8002 17.88 56.9202 18 57.1362 18H59.6562C60.0642 18 60.2322 17.616 60.0642 17.304L56.7762 11.208C58.8642 10.368 60.3282 8.568 60.3282 6.36C60.3282 3.504 57.9762 1.2 55.0962 1.2H48.2322C47.9682 1.2 47.7762 1.416 47.7762 1.656V17.544ZM50.9202 8.856V4.08H54.8322C56.1042 4.08 57.2082 5.136 57.2082 6.408C57.2082 7.752 56.1042 8.856 54.8322 8.856H50.9202ZM70.8166 17.544C70.8166 17.784 71.0326 18 71.2726 18H73.5046C73.7446 18 73.9606 17.784 73.9606 17.544V4.08H77.6326C77.8966 4.08 78.0886 3.864 78.0886 3.624V1.656C78.0886 1.416 77.8966 1.2 77.6326 1.2H67.1446C66.8806 1.2 66.6886 1.416 66.6886 1.656V3.624C66.6886 3.864 66.8806 4.08 67.1446 4.08H70.8166V17.544ZM82.6939 18H84.7819C85.1659 18 85.3819 17.76 85.4779 17.52L86.6539 14.928H93.8299L95.0059 17.52C95.1739 17.856 95.3419 18 95.7019 18H97.7899C98.1499 18 98.3419 17.688 98.1979 17.376L90.8059 1.224C90.7339 1.08 90.6379 0.959999 90.3979 0.959999H90.1579C89.9419 0.959999 89.8219 1.08 89.7499 1.224L82.2859 17.376C82.1419 17.688 82.3339 18 82.6939 18ZM87.8299 12.264L90.1819 6.984H90.2539L92.6539 12.264H87.8299Z" fill="white"/>
</svg>
