<svg width="338" height="487" viewBox="0 0 338 487" fill="none" xmlns="http://www.w3.org/2000/svg">
<rect x="62" y="98" width="15" height="351" fill="white"/>
<rect x="62" y="98" width="15" height="351" fill="url(#paint0_linear)"/>
<ellipse cx="69.5" cy="96" rx="11.5" ry="11" fill="#7FC591"/>
<rect x="62" y="98" width="15" height="351" fill="white"/>
<rect x="62" y="98" width="15" height="351" fill="url(#paint1_linear)"/>
<ellipse cx="69.5" cy="96" rx="11.5" ry="11" fill="#7FC591"/>
<g opacity="0.6">
<rect x="161" y="37" width="15" height="450" fill="white"/>
<rect x="161" y="37" width="15" height="450" fill="url(#paint2_linear)"/>
</g>
<path d="M0 291C0 288.239 2.23858 286 5 286H138C140.761 286 143 288.239 143 291V317C143 319.761 140.761 322 138 322H5C2.23858 322 0 319.761 0 317V291Z" fill="#222222"/>
<path fill-rule="evenodd" clip-rule="evenodd" d="M249.022 220.711C246.813 220.72 245.017 219.408 245.011 217.781C245.005 216.154 246.791 214.829 249 214.82C251.209 214.812 253.005 216.124 253.011 217.751C253.017 219.378 251.231 220.703 249.022 220.711Z" fill="white"/>
<path d="M45.8482 299H47.2975L47.2975 304.227C47.2975 304.799 47.162 305.303 46.8912 305.738C46.623 306.173 46.2454 306.513 45.7584 306.758C45.2714 307 44.7024 307.121 44.0514 307.121C43.3977 307.121 42.8274 307 42.3404 306.758C41.8535 306.513 41.4758 306.173 41.2076 305.738C40.9394 305.303 40.8053 304.799 40.8053 304.227L40.8053 299H42.2545L42.2545 304.105C42.2545 304.439 42.3274 304.736 42.4732 304.996C42.6217 305.257 42.83 305.461 43.0982 305.609C43.3665 305.755 43.6842 305.828 44.0514 305.828C44.4186 305.828 44.7363 305.755 45.0045 305.609C45.2753 305.461 45.4837 305.257 45.6295 304.996C45.7753 304.736 45.8482 304.439 45.8482 304.105L45.8482 299ZM51.0727 307L51.0727 299H54.0727C54.6872 299 55.2029 299.115 55.6195 299.344C56.0388 299.573 56.3552 299.888 56.5687 300.289C56.7849 300.687 56.893 301.141 56.893 301.648C56.893 302.161 56.7849 302.617 56.5687 303.016C56.3526 303.414 56.0336 303.728 55.6117 303.957C55.1898 304.184 54.6703 304.297 54.0531 304.297H52.0648V303.105H53.8578C54.2172 303.105 54.5115 303.043 54.7406 302.918C54.9698 302.793 55.1391 302.621 55.2484 302.402C55.3604 302.184 55.4164 301.932 55.4164 301.648C55.4164 301.365 55.3604 301.115 55.2484 300.898C55.1391 300.682 54.9685 300.514 54.7367 300.395C54.5076 300.272 54.212 300.211 53.85 300.211H52.5219L52.5219 307H51.0727ZM63.0627 307H60.3518L60.3518 299H63.1174C63.9117 299 64.5939 299.16 65.1643 299.48C65.7372 299.798 66.1773 300.255 66.4846 300.852C66.7919 301.448 66.9455 302.161 66.9455 302.992C66.9455 303.826 66.7906 304.542 66.4807 305.141C66.1734 305.74 65.7294 306.199 65.1486 306.52C64.5705 306.84 63.8752 307 63.0627 307ZM61.801 305.746H62.9924C63.5497 305.746 64.0145 305.645 64.3869 305.441C64.7593 305.236 65.0393 304.93 65.2268 304.523C65.4143 304.115 65.508 303.604 65.508 302.992C65.508 302.38 65.4143 301.872 65.2268 301.469C65.0393 301.062 64.7619 300.759 64.3947 300.559C64.0301 300.355 63.577 300.254 63.0354 300.254H61.801L61.801 305.746ZM71.1201 307H69.5732L72.3896 299H74.1787L76.999 307H75.4521L73.3154 300.641H73.2529L71.1201 307ZM71.1709 303.863H75.3896V305.027H71.1709V303.863ZM78.9344 300.215V299H85.3172V300.215H82.8445L82.8445 307H81.407L81.407 300.215H78.9344ZM88.7477 307L88.7477 299L93.9508 299V300.215H90.1969L90.1969 302.387H93.6813V303.602H90.1969V305.785H93.982L93.982 307L88.7477 307ZM101.977 301.199C101.94 300.858 101.787 300.592 101.516 300.402C101.248 300.212 100.899 300.117 100.469 300.117C100.167 300.117 99.9079 300.163 99.6918 300.254C99.4756 300.345 99.3103 300.469 99.1957 300.625C99.0811 300.781 99.0225 300.96 99.0199 301.16C99.0199 301.327 99.0577 301.471 99.1332 301.594C99.2113 301.716 99.3168 301.82 99.4496 301.906C99.5824 301.99 99.7296 302.06 99.891 302.117C100.052 302.174 100.215 302.223 100.379 302.262L101.129 302.449C101.431 302.52 101.722 302.615 102 302.734C102.282 302.854 102.533 303.005 102.754 303.188C102.978 303.37 103.155 303.59 103.286 303.848C103.416 304.105 103.481 304.408 103.481 304.754C103.481 305.223 103.361 305.635 103.121 305.992C102.882 306.346 102.536 306.624 102.082 306.824C101.632 307.022 101.086 307.121 100.446 307.121C99.8233 307.121 99.2829 307.025 98.8246 306.832C98.3689 306.639 98.0121 306.358 97.7543 305.988C97.4991 305.618 97.3611 305.168 97.3402 304.637H98.766C98.7868 304.915 98.8728 305.147 99.0238 305.332C99.1749 305.517 99.3715 305.655 99.6137 305.746C99.8585 305.837 100.132 305.883 100.434 305.883C100.749 305.883 101.025 305.836 101.262 305.742C101.502 305.646 101.689 305.513 101.825 305.344C101.96 305.172 102.029 304.971 102.032 304.742C102.029 304.534 101.968 304.362 101.848 304.227C101.728 304.089 101.56 303.974 101.344 303.883C101.131 303.789 100.881 303.706 100.594 303.633L99.684 303.398C99.0251 303.229 98.5043 302.973 98.1215 302.629C97.7413 302.283 97.5512 301.823 97.5512 301.25C97.5512 300.779 97.6788 300.366 97.934 300.012C98.1918 299.658 98.5421 299.383 98.9848 299.187C99.4275 298.99 99.9288 298.891 100.489 298.891C101.056 298.891 101.554 298.99 101.981 299.187C102.411 299.383 102.748 299.655 102.993 300.004C103.237 300.35 103.364 300.749 103.371 301.199H101.977Z" fill="white"/>
<path d="M0 232C0 229.239 2.23858 227 5 227H138C140.761 227 143 229.239 143 232V258C143 260.761 140.761 263 138 263H5C2.23858 263 0 260.761 0 258V232Z" fill="#222222"/>
<path d="M35.1815 249L35.1815 240.273H40.7724V241.598H36.7625L36.7625 243.967H40.3889V245.293H36.7625L36.7625 249H35.1815ZM44.6127 249L44.6127 240.273H50.2889V241.598H46.1937L46.1937 243.967H49.9948V245.293H46.1937V247.675H50.323L50.323 249H44.6127ZM55.4225 249H53.735L56.8075 240.273L58.7592 240.273L61.8359 249H60.1484L57.8174 242.062H57.7493L55.4225 249ZM55.4779 245.578L60.0802 245.578V246.848L55.4779 246.848V245.578ZM63.9472 241.598V240.273H70.9103V241.598H68.2128L68.2128 249H66.6446L66.6446 241.598H63.9472ZM80.154 240.273H81.735L81.735 245.974C81.735 246.599 81.5872 247.149 81.2918 247.624C80.9992 248.098 80.5872 248.469 80.056 248.736C79.5247 249 78.904 249.132 78.1938 249.132C77.4807 249.132 76.8586 249 76.3273 248.736C75.7961 248.469 75.3841 248.098 75.0915 247.624C74.7989 247.149 74.6526 246.599 74.6526 245.974L74.6526 240.273L76.2336 240.273L76.2336 245.842C76.2336 246.206 76.3131 246.53 76.4722 246.814C76.6341 247.098 76.8614 247.321 77.154 247.483C77.4466 247.642 77.7932 247.722 78.1938 247.722C78.5944 247.722 78.9409 247.642 79.2336 247.483C79.529 247.321 79.7563 247.098 79.9154 246.814C80.0745 246.53 80.154 246.206 80.154 245.842L80.154 240.273ZM85.8534 249L85.8534 240.273H89.1261C89.7966 240.273 90.3591 240.389 90.8136 240.622C91.271 240.855 91.6162 241.182 91.8491 241.602C92.0849 242.02 92.2028 242.507 92.2028 243.064C92.2028 243.624 92.0835 244.109 91.8448 244.521C91.6091 244.93 91.261 245.247 90.8008 245.472C90.3406 245.693 89.7752 245.804 89.1048 245.804H86.7738V244.491H88.8917C89.2838 244.491 89.6048 244.437 89.8548 244.33C90.1048 244.219 90.2895 244.058 90.4088 243.848C90.5309 243.635 90.592 243.374 90.592 243.064C90.592 242.754 90.5309 242.49 90.4088 242.271C90.2866 242.05 90.1005 241.882 89.8505 241.768C89.6005 241.652 89.2781 241.594 88.8832 241.594H87.4343L87.4343 249H85.8534ZM90.3619 245.045L92.5224 249L90.7582 249L88.636 245.045H90.3619ZM96.0581 249L96.0581 240.273H101.734L101.734 241.598H97.639L97.639 243.967H101.44V245.293H97.639L97.639 247.675H101.768V249H96.0581ZM110.49 242.672C110.45 242.3 110.283 242.01 109.987 241.803C109.695 241.595 109.314 241.491 108.845 241.491C108.516 241.491 108.233 241.541 107.997 241.641C107.761 241.74 107.581 241.875 107.456 242.045C107.331 242.216 107.267 242.411 107.264 242.629C107.264 242.811 107.305 242.969 107.388 243.102C107.473 243.236 107.588 243.349 107.733 243.443C107.878 243.534 108.038 243.611 108.214 243.673C108.391 243.736 108.568 243.788 108.747 243.831L109.565 244.036C109.895 244.112 110.212 244.216 110.516 244.347C110.822 244.477 111.097 244.642 111.338 244.841C111.582 245.04 111.776 245.28 111.918 245.561C112.06 245.842 112.131 246.172 112.131 246.55C112.131 247.061 112 247.511 111.739 247.901C111.477 248.287 111.099 248.589 110.605 248.808C110.114 249.024 109.518 249.132 108.82 249.132C108.141 249.132 107.551 249.027 107.051 248.817C106.554 248.607 106.165 248.3 105.883 247.896C105.605 247.493 105.455 247.001 105.432 246.422H106.987C107.01 246.726 107.104 246.979 107.268 247.18C107.433 247.382 107.648 247.533 107.912 247.632C108.179 247.732 108.477 247.781 108.807 247.781C109.151 247.781 109.452 247.73 109.71 247.628C109.972 247.523 110.176 247.378 110.324 247.193C110.472 247.006 110.547 246.787 110.55 246.537C110.547 246.31 110.48 246.122 110.349 245.974C110.219 245.824 110.035 245.699 109.8 245.599C109.567 245.497 109.294 245.406 108.982 245.327L107.989 245.071C107.27 244.886 106.702 244.607 106.284 244.232C105.869 243.854 105.662 243.352 105.662 242.727C105.662 242.213 105.801 241.763 106.08 241.376C106.361 240.99 106.743 240.69 107.226 240.477C107.709 240.261 108.256 240.153 108.866 240.153C109.486 240.153 110.028 240.261 110.494 240.477C110.963 240.69 111.331 240.987 111.598 241.368C111.865 241.746 112.003 242.18 112.011 242.672H110.49Z" fill="white"/>
<path d="M0 173C0 170.239 2.23858 168 5 168H138C140.761 168 143 170.239 143 173V199C143 201.761 140.761 204 138 204H5C2.23858 204 0 201.761 0 199V173Z" fill="#222222"/>
<path d="M0 173C0 170.239 2.23858 168 5 168H138C140.761 168 143 170.239 143 173V199C143 201.761 140.761 204 138 204H5C2.23858 204 0 201.761 0 199V173Z" fill="#222222"/>
<path d="M44.3849 184.199C44.3484 183.858 44.1948 183.592 43.9239 183.402C43.6557 183.212 43.3067 183.117 42.8771 183.117C42.575 183.117 42.3159 183.163 42.0997 183.254C41.8836 183.345 41.7182 183.469 41.6036 183.625C41.489 183.781 41.4304 183.96 41.4278 184.16C41.4278 184.327 41.4656 184.471 41.5411 184.594C41.6192 184.716 41.7247 184.82 41.8575 184.906C41.9903 184.99 42.1375 185.06 42.2989 185.117C42.4604 185.174 42.6231 185.223 42.7872 185.262L43.5372 185.449C43.8393 185.52 44.1297 185.615 44.4083 185.734C44.6896 185.854 44.9409 186.005 45.1622 186.188C45.3862 186.37 45.5633 186.59 45.6935 186.848C45.8237 187.105 45.8888 187.408 45.8888 187.754C45.8888 188.223 45.769 188.635 45.5294 188.992C45.2898 189.346 44.9435 189.624 44.4903 189.824C44.0398 190.022 43.4942 190.121 42.8536 190.121C42.2312 190.121 41.6909 190.025 41.2325 189.832C40.7768 189.639 40.42 189.358 40.1622 188.988C39.907 188.618 39.769 188.168 39.7481 187.637H41.1739C41.1948 187.915 41.2807 188.147 41.4317 188.332C41.5828 188.517 41.7794 188.655 42.0216 188.746C42.2664 188.837 42.5398 188.883 42.8419 188.883C43.157 188.883 43.433 188.836 43.67 188.742C43.9096 188.646 44.0971 188.513 44.2325 188.344C44.3679 188.172 44.4369 187.971 44.4396 187.742C44.4369 187.534 44.3758 187.362 44.256 187.227C44.1362 187.089 43.9682 186.974 43.7521 186.883C43.5385 186.789 43.2885 186.706 43.0021 186.633L42.0919 186.398C41.433 186.229 40.9122 185.973 40.5294 185.629C40.1492 185.283 39.9591 184.823 39.9591 184.25C39.9591 183.779 40.0867 183.366 40.3419 183.012C40.5997 182.658 40.95 182.383 41.3927 182.187C41.8354 181.99 42.3367 181.891 42.8966 181.891C43.4643 181.891 43.9617 181.99 44.3888 182.187C44.8185 182.383 45.1557 182.655 45.4005 183.004C45.6453 183.35 45.7716 183.749 45.7794 184.199H44.3849ZM54.4237 182H55.873L55.873 187.227C55.873 187.799 55.7375 188.303 55.4667 188.738C55.1985 189.173 54.8209 189.513 54.3339 189.758C53.8469 190 53.2779 190.121 52.6269 190.121C51.9732 190.121 51.4029 190 50.9159 189.758C50.4289 189.513 50.0513 189.173 49.7831 188.738C49.5149 188.303 49.3808 187.799 49.3808 187.227L49.3808 182H50.83L50.83 187.105C50.83 187.439 50.9029 187.736 51.0487 187.996C51.1972 188.257 51.4055 188.461 51.6737 188.609C51.942 188.755 52.2597 188.828 52.6269 188.828C52.994 188.828 53.3118 188.755 53.58 188.609C53.8508 188.461 54.0591 188.257 54.205 187.996C54.3508 187.736 54.4237 187.439 54.4237 187.105L54.4237 182ZM59.6481 190L59.6481 182H62.6481C63.2627 182 63.7784 182.115 64.195 182.344C64.6143 182.573 64.9307 182.888 65.1442 183.289C65.3604 183.687 65.4685 184.141 65.4685 184.648C65.4685 185.161 65.3604 185.617 65.1442 186.016C64.9281 186.414 64.6091 186.728 64.1872 186.957C63.7653 187.184 63.2458 187.297 62.6286 187.297H60.6403V186.105H62.4333C62.7927 186.105 63.0869 186.043 63.3161 185.918C63.5453 185.793 63.7146 185.621 63.8239 185.402C63.9359 185.184 63.9919 184.932 63.9919 184.648C63.9919 184.365 63.9359 184.115 63.8239 183.898C63.7146 183.682 63.544 183.514 63.3122 183.395C63.083 183.272 62.7875 183.211 62.4255 183.211H61.0974L61.0974 190H59.6481ZM68.9272 190L68.9272 182H71.9272C72.5418 182 73.0575 182.115 73.4741 182.344C73.8934 182.573 74.2098 182.888 74.4233 183.289C74.6395 183.687 74.7476 184.141 74.7476 184.648C74.7476 185.161 74.6395 185.617 74.4233 186.016C74.2072 186.414 73.8882 186.728 73.4663 186.957C73.0444 187.184 72.5249 187.297 71.9077 187.297H69.9194V186.105H71.7124C72.0718 186.105 72.3661 186.043 72.5952 185.918C72.8244 185.793 72.9937 185.621 73.103 185.402C73.215 185.184 73.271 184.932 73.271 184.648C73.271 184.365 73.215 184.115 73.103 183.898C72.9937 183.682 72.8231 183.514 72.5913 183.395C72.3621 183.272 72.0666 183.211 71.7046 183.211H70.3765L70.3765 190H68.9272ZM85.3548 186C85.3548 186.862 85.1933 187.6 84.8704 188.215C84.5501 188.827 84.1126 189.296 83.5579 189.621C83.0058 189.947 82.3795 190.109 81.679 190.109C80.9785 190.109 80.3509 189.947 79.7962 189.621C79.2441 189.293 78.8066 188.823 78.4837 188.211C78.1634 187.596 78.0032 186.859 78.0032 186C78.0032 185.138 78.1634 184.401 78.4837 183.789C78.8066 183.174 79.2441 182.704 79.7962 182.379C80.3509 182.053 80.9785 181.891 81.679 181.891C82.3795 181.891 83.0058 182.053 83.5579 182.379C84.1126 182.704 84.5501 183.174 84.8704 183.789C85.1933 184.401 85.3548 185.138 85.3548 186ZM83.8978 186C83.8978 185.393 83.8027 184.882 83.6126 184.465C83.4251 184.046 83.1647 183.729 82.8313 183.516C82.498 183.299 82.1139 183.191 81.679 183.191C81.2441 183.191 80.86 183.299 80.5267 183.516C80.1933 183.729 79.9316 184.046 79.7415 184.465C79.554 184.882 79.4603 185.393 79.4603 186C79.4603 186.607 79.554 187.12 79.7415 187.539C79.9316 187.956 80.1933 188.272 80.5267 188.488C80.86 188.702 81.2441 188.809 81.679 188.809C82.1139 188.809 82.498 188.702 82.8313 188.488C83.1647 188.272 83.4251 187.956 83.6126 187.539C83.8027 187.12 83.8978 186.607 83.8978 186ZM88.9249 190L88.9249 182H91.9249C92.5395 182 93.0551 182.107 93.4718 182.32C93.8911 182.534 94.2075 182.833 94.421 183.219C94.6371 183.602 94.7452 184.048 94.7452 184.559C94.7452 185.072 94.6358 185.517 94.4171 185.895C94.2009 186.27 93.8819 186.56 93.4601 186.766C93.0382 186.969 92.52 187.07 91.9054 187.07H89.7687V185.867H91.7101C92.0694 185.867 92.3637 185.818 92.5929 185.719C92.822 185.617 92.9913 185.47 93.1007 185.277C93.2127 185.082 93.2687 184.842 93.2687 184.559C93.2687 184.275 93.2127 184.033 93.1007 183.832C92.9887 183.629 92.8181 183.475 92.589 183.371C92.3598 183.264 92.0642 183.211 91.7022 183.211H90.3741L90.3741 190H88.9249ZM93.0577 186.375L95.0382 190H93.421L91.4757 186.375H93.0577ZM97.9276 183.215V182H104.31L104.31 183.215H101.838L101.838 190H100.4L100.4 183.215H97.9276Z" fill="white"/>
<path d="M47.1112 65.2727L49.3825 72.142H49.472L51.7391 65.2727H53.4777L50.401 74L48.4493 74L45.3768 65.2727H47.1112ZM57.1284 74L55.4409 74L58.5134 65.2727H60.4651L63.5418 74H61.8543L59.5233 67.0625H59.4551L57.1284 74ZM57.1838 70.5781H61.7861V71.848H57.1838V70.5781ZM67.0913 74L67.0913 65.2727H68.6722L68.6722 72.6747H72.516L72.516 74H67.0913ZM81.7896 65.2727L83.3705 65.2727L83.3705 70.9744C83.3705 71.5994 83.2228 72.1491 82.9273 72.6236C82.6347 73.098 82.2228 73.4687 81.6916 73.7358C81.1603 74 80.5396 74.1321 79.8293 74.1321C79.1163 74.1321 78.4941 74 77.9629 73.7358C77.4316 73.4687 77.0197 73.098 76.7271 72.6236C76.4344 72.1491 76.2881 71.5994 76.2881 70.9744L76.2881 65.2727H77.8691L77.8691 70.8423C77.8691 71.206 77.9487 71.5298 78.1077 71.8139C78.2697 72.098 78.4969 72.321 78.7896 72.483C79.0822 72.642 79.4288 72.7216 79.8293 72.7216C80.2299 72.7216 80.5765 72.642 80.8691 72.483C81.1646 72.321 81.3918 72.098 81.5509 71.8139C81.71 71.5298 81.7896 71.206 81.7896 70.8423L81.7896 65.2727ZM87.4889 74L87.4889 65.2727L93.1651 65.2727V66.598L89.0699 66.598L89.0699 68.9673L92.871 68.9673V70.2926L89.0699 70.2926L89.0699 72.6747L93.1991 72.6747V74L87.4889 74Z" fill="#7FC591"/>
<path d="M150.688 4.59801V3.27273L157.651 3.27273V4.59801L154.953 4.59801L154.953 12L153.385 12L153.385 4.59801L150.688 4.59801ZM162.974 3.27273L162.974 12L161.393 12L161.393 3.27273L162.974 3.27273ZM167.086 3.27273L169.021 3.27273L171.612 9.59659H171.714L174.305 3.27273L176.24 3.27273L176.24 12L174.723 12L174.723 6.00426H174.642L172.23 11.9744L171.096 11.9744L168.684 5.99148H168.603L168.603 12L167.086 12L167.086 3.27273ZM180.361 12L180.361 3.27273L186.037 3.27273V4.59801L181.942 4.59801V6.96733L185.743 6.96733V8.29261L181.942 8.29261L181.942 10.6747L186.071 10.6747V12L180.361 12Z" fill="#C0C0C0"/>
<path d="M248.672 449.217H247.078C247.032 448.956 246.949 448.724 246.826 448.523C246.704 448.318 246.552 448.145 246.37 448.003C246.189 447.861 245.981 447.754 245.748 447.683C245.518 447.609 245.27 447.572 245.003 447.572C244.528 447.572 244.108 447.692 243.741 447.93C243.375 448.166 243.088 448.513 242.88 448.97C242.673 449.425 242.569 449.98 242.569 450.636C242.569 451.304 242.673 451.866 242.88 452.324C243.091 452.778 243.378 453.122 243.741 453.355C244.108 453.585 244.527 453.7 244.998 453.7C245.26 453.7 245.504 453.666 245.731 453.598C245.961 453.527 246.167 453.423 246.349 453.287C246.534 453.151 246.689 452.983 246.814 452.784C246.941 452.585 247.03 452.358 247.078 452.102L248.672 452.111C248.612 452.526 248.483 452.915 248.284 453.278C248.088 453.642 247.831 453.963 247.513 454.241C247.194 454.517 246.822 454.733 246.396 454.889C245.97 455.043 245.497 455.119 244.977 455.119C244.21 455.119 243.525 454.942 242.923 454.587C242.321 454.232 241.846 453.719 241.5 453.048C241.153 452.378 240.98 451.574 240.98 450.636C240.98 449.696 241.155 448.892 241.504 448.224C241.853 447.554 242.329 447.041 242.932 446.686C243.534 446.331 244.216 446.153 244.977 446.153C245.463 446.153 245.914 446.222 246.332 446.358C246.75 446.494 247.122 446.695 247.449 446.959C247.775 447.22 248.044 447.541 248.254 447.922C248.467 448.3 248.606 448.732 248.672 449.217ZM260.318 450.636C260.318 451.577 260.142 452.382 259.789 453.053C259.44 453.72 258.963 454.232 258.357 454.587C257.755 454.942 257.072 455.119 256.308 455.119C255.544 455.119 254.859 454.942 254.254 454.587C253.651 454.229 253.174 453.716 252.822 453.048C252.473 452.378 252.298 451.574 252.298 450.636C252.298 449.696 252.473 448.892 252.822 448.224C253.174 447.554 253.651 447.041 254.254 446.686C254.859 446.331 255.544 446.153 256.308 446.153C257.072 446.153 257.755 446.331 258.357 446.686C258.963 447.041 259.44 447.554 259.789 448.224C260.142 448.892 260.318 449.696 260.318 450.636ZM258.728 450.636C258.728 449.974 258.625 449.416 258.417 448.962C258.213 448.504 257.928 448.159 257.565 447.926C257.201 447.69 256.782 447.572 256.308 447.572C255.833 447.572 255.414 447.69 255.051 447.926C254.687 448.159 254.401 448.504 254.194 448.962C253.99 449.416 253.887 449.974 253.887 450.636C253.887 451.298 253.99 451.858 254.194 452.315C254.401 452.77 254.687 453.115 255.051 453.351C255.414 453.584 255.833 453.7 256.308 453.7C256.782 453.7 257.201 453.584 257.565 453.351C257.928 453.115 258.213 452.77 258.417 452.315C258.625 451.858 258.728 451.298 258.728 450.636ZM268.955 448.672C268.915 448.3 268.748 448.01 268.452 447.803C268.16 447.595 267.779 447.491 267.31 447.491C266.981 447.491 266.698 447.541 266.462 447.641C266.227 447.74 266.046 447.875 265.921 448.045C265.796 448.216 265.732 448.411 265.729 448.629C265.729 448.811 265.771 448.969 265.853 449.102C265.938 449.236 266.053 449.349 266.198 449.443C266.343 449.534 266.504 449.611 266.68 449.673C266.856 449.736 267.033 449.788 267.212 449.831L268.031 450.036C268.36 450.112 268.677 450.216 268.981 450.347C269.288 450.477 269.562 450.642 269.803 450.841C270.048 451.04 270.241 451.28 270.383 451.561C270.525 451.842 270.596 452.172 270.596 452.55C270.596 453.061 270.465 453.511 270.204 453.901C269.942 454.287 269.565 454.589 269.07 454.808C268.579 455.024 267.984 455.132 267.285 455.132C266.606 455.132 266.016 455.027 265.516 454.817C265.019 454.607 264.63 454.3 264.349 453.896C264.07 453.493 263.92 453.001 263.897 452.422H265.452C265.475 452.726 265.569 452.979 265.734 453.18C265.898 453.382 266.113 453.533 266.377 453.632C266.644 453.732 266.942 453.781 267.272 453.781C267.616 453.781 267.917 453.73 268.175 453.628C268.437 453.523 268.641 453.378 268.789 453.193C268.937 453.006 269.012 452.787 269.015 452.537C269.012 452.31 268.945 452.122 268.815 451.974C268.684 451.824 268.501 451.699 268.265 451.599C268.032 451.497 267.759 451.406 267.447 451.327L266.454 451.071C265.735 450.886 265.167 450.607 264.749 450.232C264.335 449.854 264.127 449.352 264.127 448.727C264.127 448.213 264.266 447.763 264.545 447.376C264.826 446.99 265.208 446.69 265.691 446.477C266.174 446.261 266.721 446.153 267.332 446.153C267.951 446.153 268.494 446.261 268.96 446.477C269.428 446.69 269.796 446.987 270.063 447.368C270.33 447.746 270.468 448.18 270.477 448.672H268.955ZM274.022 447.598V446.273H280.985V447.598H278.287V455H276.719V447.598H274.022ZM289.47 448.672C289.43 448.3 289.263 448.01 288.967 447.803C288.675 447.595 288.294 447.491 287.825 447.491C287.496 447.491 287.213 447.541 286.977 447.641C286.741 447.74 286.561 447.875 286.436 448.045C286.311 448.216 286.247 448.411 286.244 448.629C286.244 448.811 286.285 448.969 286.368 449.102C286.453 449.236 286.568 449.349 286.713 449.443C286.858 449.534 287.018 449.611 287.195 449.673C287.371 449.736 287.548 449.788 287.727 449.831L288.545 450.036C288.875 450.112 289.192 450.216 289.496 450.347C289.802 450.477 290.077 450.642 290.318 450.841C290.562 451.04 290.756 451.28 290.898 451.561C291.04 451.842 291.111 452.172 291.111 452.55C291.111 453.061 290.98 453.511 290.719 453.901C290.457 454.287 290.079 454.589 289.585 454.808C289.094 455.024 288.499 455.132 287.8 455.132C287.121 455.132 286.531 455.027 286.031 454.817C285.534 454.607 285.145 454.3 284.864 453.896C284.585 453.493 284.435 453.001 284.412 452.422H285.967C285.99 452.726 286.084 452.979 286.249 453.18C286.413 453.382 286.628 453.533 286.892 453.632C287.159 453.732 287.457 453.781 287.787 453.781C288.131 453.781 288.432 453.73 288.69 453.628C288.952 453.523 289.156 453.378 289.304 453.193C289.452 453.006 289.527 452.787 289.53 452.537C289.527 452.31 289.46 452.122 289.329 451.974C289.199 451.824 289.016 451.699 288.78 451.599C288.547 451.497 288.274 451.406 287.962 451.327L286.969 451.071C286.25 450.886 285.682 450.607 285.264 450.232C284.849 449.854 284.642 449.352 284.642 448.727C284.642 448.213 284.781 447.763 285.06 447.376C285.341 446.99 285.723 446.69 286.206 446.477C286.689 446.261 287.236 446.153 287.847 446.153C288.466 446.153 289.008 446.261 289.474 446.477C289.943 446.69 290.311 446.987 290.578 447.368C290.845 447.746 290.983 448.18 290.991 448.672H289.47Z" fill="#CD4358"/>
<path d="M272 415L258 415L258 64L272 64L272 415Z" fill="white"/>
<path d="M272 415L258 415L258 64L272 64L272 415Z" fill="url(#paint3_linear)"/>
<circle cx="265.5" cy="416.5" r="11.5" transform="rotate(-180 265.5 416.5)" fill="#CD4358"/>
<path d="M194 173C194 170.239 196.239 168 199 168H332C334.761 168 337 170.239 337 173V199C337 201.761 334.761 204 332 204H199C196.239 204 194 201.761 194 199V173Z" fill="#222222"/>
<path d="M194 173C194 170.239 196.239 168 199 168H332C334.761 168 337 170.239 337 173V199C337 201.761 334.761 204 332 204H199C196.239 204 194 201.761 194 199V173Z" fill="#222222"/>
<path d="M220.839 184.699H219.378C219.336 184.46 219.259 184.247 219.147 184.062C219.035 183.875 218.896 183.716 218.729 183.586C218.563 183.456 218.373 183.358 218.159 183.293C217.948 183.225 217.72 183.191 217.476 183.191C217.041 183.191 216.655 183.301 216.319 183.52C215.983 183.736 215.72 184.053 215.53 184.473C215.34 184.889 215.245 185.398 215.245 186C215.245 186.612 215.34 187.128 215.53 187.547C215.723 187.964 215.986 188.279 216.319 188.492C216.655 188.703 217.039 188.809 217.472 188.809C217.711 188.809 217.935 188.777 218.144 188.715C218.354 188.65 218.543 188.555 218.71 188.43C218.879 188.305 219.021 188.151 219.136 187.969C219.253 187.786 219.334 187.578 219.378 187.344L220.839 187.352C220.784 187.732 220.666 188.089 220.483 188.422C220.304 188.755 220.068 189.049 219.776 189.305C219.485 189.557 219.144 189.755 218.753 189.898C218.362 190.039 217.929 190.109 217.452 190.109C216.749 190.109 216.121 189.947 215.569 189.621C215.017 189.296 214.582 188.826 214.265 188.211C213.947 187.596 213.788 186.859 213.788 186C213.788 185.138 213.948 184.401 214.269 183.789C214.589 183.174 215.025 182.704 215.577 182.379C216.129 182.053 216.754 181.891 217.452 181.891C217.897 181.891 218.312 181.953 218.694 182.078C219.077 182.203 219.418 182.387 219.718 182.629C220.017 182.868 220.263 183.163 220.456 183.512C220.651 183.858 220.779 184.254 220.839 184.699ZM231.514 186C231.514 186.862 231.353 187.6 231.03 188.215C230.71 188.827 230.272 189.296 229.718 189.621C229.165 189.947 228.539 190.109 227.839 190.109C227.138 190.109 226.511 189.947 225.956 189.621C225.404 189.293 224.966 188.823 224.643 188.211C224.323 187.596 224.163 186.859 224.163 186C224.163 185.138 224.323 184.401 224.643 183.789C224.966 183.174 225.404 182.704 225.956 182.379C226.511 182.053 227.138 181.891 227.839 181.891C228.539 181.891 229.165 182.053 229.718 182.379C230.272 182.704 230.71 183.174 231.03 183.789C231.353 184.401 231.514 185.138 231.514 186ZM230.057 186C230.057 185.393 229.962 184.882 229.772 184.465C229.585 184.046 229.324 183.729 228.991 183.516C228.658 183.299 228.274 183.191 227.839 183.191C227.404 183.191 227.02 183.299 226.686 183.516C226.353 183.729 226.091 184.046 225.901 184.465C225.714 184.882 225.62 185.393 225.62 186C225.62 186.607 225.714 187.12 225.901 187.539C226.091 187.956 226.353 188.272 226.686 188.488C227.02 188.702 227.404 188.809 227.839 188.809C228.274 188.809 228.658 188.702 228.991 188.488C229.324 188.272 229.585 187.956 229.772 187.539C229.962 187.12 230.057 186.607 230.057 186ZM241.659 182L241.659 190H240.37L236.6 184.551H236.534L236.534 190H235.085L235.085 182H236.381L240.147 187.453H240.217V182H241.659ZM249.786 184.199C249.749 183.858 249.595 183.592 249.325 183.402C249.056 183.212 248.707 183.117 248.278 183.117C247.976 183.117 247.717 183.163 247.5 183.254C247.284 183.345 247.119 183.469 247.004 183.625C246.89 183.781 246.831 183.96 246.829 184.16C246.829 184.327 246.866 184.471 246.942 184.594C247.02 184.716 247.125 184.82 247.258 184.906C247.391 184.99 247.538 185.06 247.7 185.117C247.861 185.174 248.024 185.223 248.188 185.262L248.938 185.449C249.24 185.52 249.53 185.615 249.809 185.734C250.09 185.854 250.342 186.005 250.563 186.188C250.787 186.37 250.964 186.59 251.094 186.848C251.224 187.105 251.289 187.408 251.289 187.754C251.289 188.223 251.17 188.635 250.93 188.992C250.69 189.346 250.344 189.624 249.891 189.824C249.44 190.022 248.895 190.121 248.254 190.121C247.632 190.121 247.092 190.025 246.633 189.832C246.177 189.639 245.821 189.358 245.563 188.988C245.308 188.618 245.17 188.168 245.149 187.637H246.575C246.595 187.915 246.681 188.147 246.832 188.332C246.983 188.517 247.18 188.655 247.422 188.746C247.667 188.837 247.94 188.883 248.243 188.883C248.558 188.883 248.834 188.836 249.071 188.742C249.31 188.646 249.498 188.513 249.633 188.344C249.769 188.172 249.838 187.971 249.84 187.742C249.838 187.534 249.776 187.362 249.657 187.227C249.537 187.089 249.369 186.974 249.153 186.883C248.939 186.789 248.689 186.706 248.403 186.633L247.493 186.398C246.834 186.229 246.313 185.973 245.93 185.629C245.55 185.283 245.36 184.823 245.36 184.25C245.36 183.779 245.487 183.366 245.743 183.012C246 182.658 246.351 182.383 246.793 182.187C247.236 181.99 247.737 181.891 248.297 181.891C248.865 181.891 249.362 181.99 249.789 182.187C250.219 182.383 250.556 182.655 250.801 183.004C251.046 183.35 251.172 183.749 251.18 184.199H249.786ZM259.824 182H261.274V187.227C261.274 187.799 261.138 188.303 260.867 188.738C260.599 189.173 260.222 189.513 259.735 189.758C259.248 190 258.679 190.121 258.028 190.121C257.374 190.121 256.804 190 256.317 189.758C255.83 189.513 255.452 189.173 255.184 188.738C254.916 188.303 254.781 187.799 254.781 187.227V182H256.231V187.105C256.231 187.439 256.304 187.736 256.449 187.996C256.598 188.257 256.806 188.461 257.074 188.609C257.343 188.755 257.66 188.828 258.028 188.828C258.395 188.828 258.712 188.755 258.981 188.609C259.251 188.461 259.46 188.257 259.606 187.996C259.751 187.736 259.824 187.439 259.824 187.105V182ZM265.049 190V182H266.498V188.785H270.021V190H265.049ZM272.107 183.215V182H278.49V183.215H276.017V190H274.58V183.215H272.107ZM281.981 190H280.434L283.251 182H285.04L287.86 190H286.313L284.176 183.641H284.114L281.981 190ZM282.032 186.863H286.251V188.027H282.032V186.863ZM297.688 182V190H296.399L292.629 184.551H292.563V190H291.114V182H292.411L296.176 187.453H296.246V182H297.688ZM308.315 184.699H306.854C306.812 184.46 306.735 184.247 306.623 184.062C306.511 183.875 306.372 183.716 306.205 183.586C306.039 183.456 305.849 183.358 305.635 183.293C305.424 183.225 305.196 183.191 304.951 183.191C304.516 183.191 304.131 183.301 303.795 183.52C303.459 183.736 303.196 184.053 303.006 184.473C302.816 184.889 302.721 185.398 302.721 186C302.721 186.612 302.816 187.128 303.006 187.547C303.199 187.964 303.462 188.279 303.795 188.492C304.131 188.703 304.515 188.809 304.947 188.809C305.187 188.809 305.411 188.777 305.619 188.715C305.83 188.65 306.019 188.555 306.186 188.43C306.355 188.305 306.497 188.151 306.612 187.969C306.729 187.786 306.809 187.578 306.854 187.344L308.315 187.352C308.26 187.732 308.141 188.089 307.959 188.422C307.779 188.755 307.544 189.049 307.252 189.305C306.96 189.557 306.619 189.755 306.229 189.898C305.838 190.039 305.404 190.109 304.928 190.109C304.225 190.109 303.597 189.947 303.045 189.621C302.493 189.296 302.058 188.826 301.74 188.211C301.423 187.596 301.264 186.859 301.264 186C301.264 185.138 301.424 184.401 301.744 183.789C302.065 183.174 302.501 182.704 303.053 182.379C303.605 182.053 304.23 181.891 304.928 181.891C305.373 181.891 305.787 181.953 306.17 182.078C306.553 182.203 306.894 182.387 307.194 182.629C307.493 182.868 307.739 183.163 307.932 183.512C308.127 183.858 308.255 184.254 308.315 184.699ZM311.295 182H312.932L314.889 185.539H314.967L316.924 182H318.561L315.65 187.016V190H314.205V187.016L311.295 182Z" fill="white"/>
<path d="M194 232C194 229.239 196.239 227 199 227H332C334.761 227 337 229.239 337 232V258C337 260.761 334.761 263 332 263H199C196.239 263 194 260.761 194 258V232Z" fill="#222222"/>
<path d="M194 232C194 229.239 196.239 227 199 227H332C334.761 227 337 229.239 337 232V258C337 260.761 334.761 263 332 263H199C196.239 263 194 260.761 194 258V232Z" fill="#222222"/>
<path d="M217.343 241L217.343 249H215.894L215.894 241H217.343ZM227.687 241L227.687 249H226.398L222.628 243.551H222.562L222.562 249H221.113L221.113 241H222.41L226.175 246.453H226.246V241H227.687ZM231.114 242.215V241H237.497V242.215H235.025L235.025 249H233.587L233.587 242.215H231.114ZM240.928 249L240.928 241H246.131V242.215H242.377V244.387H245.861V245.602H242.377L242.377 247.785H246.162V249H240.928ZM249.809 249L249.809 241H251.259V247.785H254.782L254.782 249H249.809ZM258.24 249V241H259.689V247.785H263.213V249H258.24ZM268.12 241V249H266.67V241H268.12ZM277.248 243.555C277.183 243.344 277.093 243.155 276.979 242.988C276.867 242.819 276.731 242.674 276.572 242.555C276.416 242.435 276.237 242.345 276.033 242.285C275.83 242.223 275.609 242.191 275.369 242.191C274.94 242.191 274.557 242.299 274.221 242.516C273.885 242.732 273.621 243.049 273.428 243.469C273.238 243.885 273.143 244.393 273.143 244.992C273.143 245.596 273.238 246.108 273.428 246.527C273.618 246.947 273.882 247.266 274.221 247.484C274.559 247.701 274.953 247.809 275.401 247.809C275.807 247.809 276.158 247.73 276.455 247.574C276.755 247.418 276.985 247.197 277.147 246.91C277.308 246.621 277.389 246.283 277.389 245.895L277.717 245.945H275.545V244.812H278.791V245.773C278.791 246.458 278.645 247.051 278.354 247.551C278.062 248.051 277.661 248.436 277.151 248.707C276.64 248.975 276.054 249.109 275.393 249.109C274.656 249.109 274.009 248.944 273.451 248.613C272.897 248.28 272.463 247.807 272.151 247.195C271.841 246.581 271.686 245.852 271.686 245.008C271.686 244.362 271.777 243.785 271.959 243.277C272.144 242.77 272.402 242.339 272.733 241.984C273.063 241.628 273.451 241.357 273.897 241.172C274.342 240.984 274.826 240.891 275.35 240.891C275.793 240.891 276.205 240.956 276.588 241.086C276.971 241.214 277.311 241.396 277.608 241.633C277.907 241.87 278.153 242.151 278.346 242.477C278.539 242.802 278.665 243.161 278.725 243.555H277.248ZM282.393 249V241H287.596V242.215H283.842V244.387H287.326V245.602H283.842V247.785H287.627V249H282.393ZM297.848 241V249H296.559L292.79 243.551H292.723V249H291.274V241H292.571L296.337 246.453H296.407V241H297.848ZM308.475 243.699H307.014C306.973 243.46 306.896 243.247 306.784 243.062C306.672 242.875 306.532 242.716 306.366 242.586C306.199 242.456 306.009 242.358 305.796 242.293C305.585 242.225 305.357 242.191 305.112 242.191C304.677 242.191 304.292 242.301 303.956 242.52C303.62 242.736 303.357 243.053 303.167 243.473C302.976 243.889 302.881 244.398 302.881 245C302.881 245.612 302.976 246.128 303.167 246.547C303.359 246.964 303.622 247.279 303.956 247.492C304.292 247.703 304.676 247.809 305.108 247.809C305.348 247.809 305.572 247.777 305.78 247.715C305.991 247.65 306.18 247.555 306.346 247.43C306.516 247.305 306.657 247.151 306.772 246.969C306.889 246.786 306.97 246.578 307.014 246.344L308.475 246.352C308.421 246.732 308.302 247.089 308.12 247.422C307.94 247.755 307.704 248.049 307.413 248.305C307.121 248.557 306.78 248.755 306.389 248.898C305.999 249.039 305.565 249.109 305.088 249.109C304.385 249.109 303.758 248.947 303.206 248.621C302.654 248.296 302.219 247.826 301.901 247.211C301.583 246.596 301.424 245.859 301.424 245C301.424 244.138 301.585 243.401 301.905 242.789C302.225 242.174 302.661 241.704 303.213 241.379C303.766 241.053 304.391 240.891 305.088 240.891C305.534 240.891 305.948 240.953 306.331 241.078C306.713 241.203 307.055 241.387 307.354 241.629C307.654 241.868 307.9 242.163 308.092 242.512C308.288 242.858 308.415 243.254 308.475 243.699ZM312.002 249V241H317.205V242.215H313.452V244.387H316.936V245.602H313.452V247.785H317.237V249H312.002Z" fill="white"/>
<path d="M195 291C195 288.239 197.239 286 200 286H333C335.761 286 338 288.239 338 291V317C338 319.761 335.761 322 333 322H200C197.239 322 195 319.761 195 317V291Z" fill="#222222"/>
<path d="M195 291C195 288.239 197.239 286 200 286H333C335.761 286 338 288.239 338 291V317C338 319.761 335.761 322 333 322H200C197.239 322 195 319.761 195 317V291Z" fill="#222222"/>
<path d="M214.364 302.199C214.327 301.858 214.173 301.592 213.903 301.402C213.634 301.212 213.285 301.117 212.856 301.117C212.554 301.117 212.295 301.163 212.078 301.254C211.862 301.345 211.697 301.469 211.582 301.625C211.468 301.781 211.409 301.96 211.407 302.16C211.407 302.327 211.444 302.471 211.52 302.594C211.598 302.716 211.703 302.82 211.836 302.906C211.969 302.99 212.116 303.06 212.278 303.117C212.439 303.174 212.602 303.223 212.766 303.262L213.516 303.449C213.818 303.52 214.108 303.615 214.387 303.734C214.668 303.854 214.92 304.005 215.141 304.188C215.365 304.37 215.542 304.59 215.672 304.848C215.802 305.105 215.867 305.408 215.867 305.754C215.867 306.223 215.748 306.635 215.508 306.992C215.269 307.346 214.922 307.624 214.469 307.824C214.019 308.022 213.473 308.121 212.832 308.121C212.21 308.121 211.67 308.025 211.211 307.832C210.756 307.639 210.399 307.358 210.141 306.988C209.886 306.618 209.748 306.168 209.727 305.637H211.153C211.173 305.915 211.259 306.147 211.41 306.332C211.561 306.517 211.758 306.655 212 306.746C212.245 306.837 212.519 306.883 212.821 306.883C213.136 306.883 213.412 306.836 213.649 306.742C213.888 306.646 214.076 306.513 214.211 306.344C214.347 306.172 214.416 305.971 214.418 305.742C214.416 305.534 214.354 305.362 214.235 305.227C214.115 305.089 213.947 304.974 213.731 304.883C213.517 304.789 213.267 304.706 212.981 304.633L212.071 304.398C211.412 304.229 210.891 303.973 210.508 303.629C210.128 303.283 209.938 302.823 209.938 302.25C209.938 301.779 210.065 301.366 210.321 301.012C210.578 300.658 210.929 300.383 211.371 300.187C211.814 299.99 212.315 299.891 212.875 299.891C213.443 299.891 213.94 299.99 214.367 300.187C214.797 300.383 215.134 300.655 215.379 301.004C215.624 301.35 215.75 301.749 215.758 302.199H214.364ZM220.809 300L220.809 308H219.359L219.359 300H220.809ZM224.578 300L226.351 300L228.726 305.797H228.82L231.195 300H232.969L232.969 308H231.578L231.578 302.504H231.504L229.293 307.977H228.254L226.043 302.492H225.969L225.969 308H224.578L224.578 300ZM236.747 308L236.747 300H239.747C240.361 300 240.877 300.115 241.294 300.344C241.713 300.573 242.029 300.888 242.243 301.289C242.459 301.687 242.567 302.141 242.567 302.648C242.567 303.161 242.459 303.617 242.243 304.016C242.027 304.414 241.708 304.728 241.286 304.957C240.864 305.184 240.344 305.297 239.727 305.297H237.739V304.105H239.532C239.891 304.105 240.186 304.043 240.415 303.918C240.644 303.793 240.813 303.621 240.923 303.402C241.035 303.184 241.091 302.932 241.091 302.648C241.091 302.365 241.035 302.115 240.923 301.898C240.813 301.682 240.643 301.514 240.411 301.395C240.182 301.272 239.886 301.211 239.524 301.211H238.196L238.196 308H236.747ZM246.026 308L246.026 300H247.475V306.785H250.999L250.999 308H246.026ZM255.906 300L255.906 308H254.456L254.456 300H255.906ZM259.675 308V300H264.8V301.215H261.124V303.387H264.448V304.602H261.124V308H259.675ZM269.769 300V308H268.32V300H269.769ZM280.386 302.699H278.925C278.884 302.46 278.807 302.247 278.695 302.062C278.583 301.875 278.444 301.716 278.277 301.586C278.11 301.456 277.92 301.358 277.707 301.293C277.496 301.225 277.268 301.191 277.023 301.191C276.588 301.191 276.203 301.301 275.867 301.52C275.531 301.736 275.268 302.053 275.078 302.473C274.888 302.889 274.793 303.398 274.793 304C274.793 304.612 274.888 305.128 275.078 305.547C275.271 305.964 275.534 306.279 275.867 306.492C276.203 306.703 276.587 306.809 277.019 306.809C277.259 306.809 277.483 306.777 277.691 306.715C277.902 306.65 278.091 306.555 278.258 306.43C278.427 306.305 278.569 306.151 278.683 305.969C278.8 305.786 278.881 305.578 278.925 305.344L280.386 305.352C280.332 305.732 280.213 306.089 280.031 306.422C279.851 306.755 279.616 307.049 279.324 307.305C279.032 307.557 278.691 307.755 278.3 307.898C277.91 308.039 277.476 308.109 277 308.109C276.297 308.109 275.669 307.947 275.117 307.621C274.565 307.296 274.13 306.826 273.812 306.211C273.494 305.596 273.336 304.859 273.336 304C273.336 303.138 273.496 302.401 273.816 301.789C274.136 301.174 274.573 300.704 275.125 300.379C275.677 300.053 276.302 299.891 277 299.891C277.445 299.891 277.859 299.953 278.242 300.078C278.625 300.203 278.966 300.387 279.265 300.629C279.565 300.868 279.811 301.163 280.004 301.512C280.199 301.858 280.327 302.254 280.386 302.699ZM284.844 308H283.297L286.114 300H287.903L290.723 308H289.176L287.04 301.641H286.977L284.844 308ZM284.895 304.863H289.114V306.027H284.895V304.863ZM292.658 301.215V300H299.041V301.215H296.569V308H295.131V301.215H292.658ZM303.921 300V308H302.472V300H303.921ZM314.839 304C314.839 304.862 314.677 305.6 314.354 306.215C314.034 306.827 313.597 307.296 313.042 307.621C312.49 307.947 311.864 308.109 311.163 308.109C310.462 308.109 309.835 307.947 309.28 307.621C308.728 307.293 308.291 306.823 307.968 306.211C307.647 305.596 307.487 304.859 307.487 304C307.487 303.138 307.647 302.401 307.968 301.789C308.291 301.174 308.728 300.704 309.28 300.379C309.835 300.053 310.462 299.891 311.163 299.891C311.864 299.891 312.49 300.053 313.042 300.379C313.597 300.704 314.034 301.174 314.354 301.789C314.677 302.401 314.839 303.138 314.839 304ZM313.382 304C313.382 303.393 313.287 302.882 313.097 302.465C312.909 302.046 312.649 301.729 312.315 301.516C311.982 301.299 311.598 301.191 311.163 301.191C310.728 301.191 310.344 301.299 310.011 301.516C309.677 301.729 309.416 302.046 309.225 302.465C309.038 302.882 308.944 303.393 308.944 304C308.944 304.607 309.038 305.12 309.225 305.539C309.416 305.956 309.677 306.272 310.011 306.488C310.344 306.702 310.728 306.809 311.163 306.809C311.598 306.809 311.982 306.702 312.315 306.488C312.649 306.272 312.909 305.956 313.097 305.539C313.287 305.12 313.382 304.607 313.382 304ZM324.983 300V308L323.694 308L319.925 302.551H319.858V308H318.409V300H319.706L323.471 305.453H323.542V300L324.983 300Z" fill="white"/>
<ellipse cx="168.5" cy="39" rx="11.5" ry="11" fill="#D1D1D1"/>
<defs>
<linearGradient id="paint0_linear" x1="69.5" y1="98" x2="69.5" y2="449" gradientUnits="userSpaceOnUse">
<stop stop-color="#7FC591" stop-opacity="0.4"/>
<stop offset="1" stop-color="#7FC591" stop-opacity="0"/>
</linearGradient>
<linearGradient id="paint1_linear" x1="69.5" y1="98" x2="69.5" y2="449" gradientUnits="userSpaceOnUse">
<stop stop-color="#7FC591" stop-opacity="0.4"/>
<stop offset="1" stop-color="#7FC591" stop-opacity="0"/>
</linearGradient>
<linearGradient id="paint2_linear" x1="168.5" y1="37" x2="168.5" y2="487" gradientUnits="userSpaceOnUse">
<stop stop-color="#BFBFBF" stop-opacity="0.4"/>
<stop offset="1" stop-color="#222222" stop-opacity="0"/>
</linearGradient>
<linearGradient id="paint3_linear" x1="265" y1="416" x2="265" y2="65" gradientUnits="userSpaceOnUse">
<stop stop-color="#CD4358" stop-opacity="0.4"/>
<stop offset="1" stop-color="#CD4358" stop-opacity="0"/>
</linearGradient>
</defs>
</svg>
