<svg width="146" height="27" viewBox="0 0 146 27" fill="none" xmlns="http://www.w3.org/2000/svg">
<path d="M11.124 25.964C11.232 26.18 11.484 26.36 11.736 26.36H12.096C12.384 26.36 12.6 26.18 12.708 25.964L23.76 1.736C23.976 1.268 23.688 0.799998 23.148 0.799998H20.592C20.268 0.799998 20.052 1.016 19.98 1.196L12.06 19.016H11.844L3.924 1.196C3.852 1.016 3.6 0.799998 3.312 0.799998H0.756C0.216 0.799998 -0.072 1.268 0.144 1.736L11.124 25.964ZM32.5865 13.436C32.5865 20.636 38.3105 26.36 45.5105 26.36C52.7105 26.36 58.4705 20.636 58.4705 13.436C58.4705 6.236 52.7105 0.439999 45.5105 0.439999C38.3105 0.439999 32.5865 6.236 32.5865 13.436ZM36.1865 13.436C36.1865 8.324 40.3985 4.04 45.5105 4.04C50.6585 4.04 54.8705 8.324 54.8705 13.436C54.8705 18.584 50.6585 22.76 45.5105 22.76C40.3985 22.76 36.1865 18.584 36.1865 13.436ZM70.8022 25.316C70.8022 25.676 71.0902 26 71.4862 26H73.8262C74.1862 26 74.5102 25.676 74.5102 25.316V16.136H79.9462L84.7342 25.676C84.8062 25.82 85.0222 26 85.3102 26H88.1182C88.7302 26 88.9822 25.424 88.7302 24.956L83.7982 15.812C86.9302 14.552 89.1262 11.816 89.1262 8.504C89.1262 4.22 85.5982 0.799998 81.2782 0.799998H71.4862C71.0902 0.799998 70.8022 1.124 70.8022 1.484V25.316ZM74.5822 13.04V4.292H80.9902C83.3302 4.292 85.3822 6.236 85.3822 8.576C85.3822 11.06 83.3302 13.04 80.9902 13.04H74.5822ZM105.4 25.316C105.4 25.676 105.724 26 106.084 26H108.46C108.82 26 109.144 25.676 109.144 25.316V4.184H115.012C115.408 4.184 115.696 3.86 115.696 3.5V1.484C115.696 1.124 115.408 0.799998 115.012 0.799998H99.5316C99.1356 0.799998 98.8476 1.124 98.8476 1.484V3.5C98.8476 3.86 99.1356 4.184 99.5316 4.184H105.4V25.316ZM122.649 26H124.917C125.349 26 125.637 25.712 125.745 25.46C126.465 23.804 127.221 22.184 127.941 20.528H139.713L141.945 25.46C142.089 25.784 142.341 26 142.773 26H145.041C145.581 26 145.869 25.532 145.653 25.064L134.673 0.835998C134.565 0.619998 134.241 0.439999 134.061 0.439999H133.701C133.521 0.439999 133.197 0.619998 133.089 0.835998L122.037 25.064C121.821 25.532 122.109 26 122.649 26ZM129.345 17.432L133.737 7.568H133.917L138.345 17.432H129.345Z" fill="white"/>
</svg>
