<svg width="45" height="160" viewBox="0 0 45 160" fill="none" xmlns="http://www.w3.org/2000/svg">
<path d="M10 74C10 71.2386 12.2386 69 15 69H32C34.7614 69 37 71.2386 37 74V100C37 102.761 34.7614 105 32 105H15C12.2386 105 10 102.761 10 100V74Z" fill="#222222"/>
<path fill-rule="evenodd" clip-rule="evenodd" d="M9.53595e-08 87C1.48025e-07 85.3431 1.34315 84 3 84C4.65685 84 6 85.3431 6 87C6 88.6569 4.65685 90 3 90C1.34315 90 4.26939e-08 88.6569 9.53595e-08 87Z" fill="#7FC591"/>
<path d="M3 74.75C1.75736 74.75 0.75 75.7574 0.75 77C0.75 78.2426 1.75736 79.25 3 79.25C4.24264 79.25 5.25 78.2426 5.25 77C5.25 75.7574 4.24264 74.75 3 74.75Z" fill="white" stroke="#222222" stroke-width="1.5"/>
<path d="M3 93.75C1.75736 93.75 0.75 94.7574 0.75 96C0.75 97.2426 1.75736 98.25 3 98.25C4.24264 98.25 5.25 97.2426 5.25 96C5.25 94.7574 4.24264 93.75 3 93.75Z" fill="white" stroke="#222222" stroke-width="1.5"/>
<path d="M42 85.75C40.7574 85.75 39.75 86.7574 39.75 88C39.75 89.2426 40.7574 90.25 42 90.25C43.2426 90.25 44.25 89.2426 44.25 88C44.25 86.7574 43.2426 85.75 42 85.75Z" fill="white" stroke="white" stroke-width="1.5"/>
<line x1="24.5" y1="-2.18557e-08" x2="24.5" y2="160" stroke="url(#paint0_linear)"/>
<defs>
<linearGradient id="paint0_linear" x1="24" y1="186.947" x2="24" y2="-41.1111" gradientUnits="userSpaceOnUse">
<stop offset="0.132007" stop-color="#222222" stop-opacity="0"/>
<stop offset="0.376865" stop-color="#222222"/>
<stop offset="0.47114" stop-color="#222222"/>
<stop offset="0.506218" stop-color="#222222"/>
<stop offset="0.764924" stop-color="#222222" stop-opacity="0"/>
</linearGradient>
</defs>
</svg>
