<svg width="338" height="543" viewBox="0 0 338 543" fill="none" xmlns="http://www.w3.org/2000/svg">
<rect x="62" y="109" width="15" height="351" fill="white"/>
<rect x="62" y="109" width="15" height="351" fill="url(#paint0_linear)"/>
<ellipse cx="69.5" cy="107" rx="11.5" ry="11" fill="#7FC591"/>
<rect x="62" y="109" width="15" height="351" fill="white"/>
<rect x="62" y="109" width="15" height="351" fill="url(#paint1_linear)"/>
<ellipse cx="69.5" cy="107" rx="11.5" ry="11" fill="#7FC591"/>
<g opacity="0.6">
<rect x="161" y="37" width="15" height="506" fill="white"/>
<rect x="161" y="37" width="15" height="506" fill="url(#paint2_linear)"/>
</g>
<path d="M0 302C0 299.239 2.23858 297 5 297H138C140.761 297 143 299.239 143 302V328C143 330.761 140.761 333 138 333H5C2.23858 333 0 330.761 0 328V302Z" fill="#222222"/>
<path fill-rule="evenodd" clip-rule="evenodd" d="M249.022 231.711C246.813 231.72 245.017 230.408 245.011 228.781C245.005 227.154 246.791 225.829 249 225.82C251.209 225.812 253.005 227.124 253.011 228.751C253.017 230.378 251.231 231.703 249.022 231.711Z" fill="white"/>
<path d="M45.8482 310H47.2975L47.2975 315.227C47.2975 315.799 47.162 316.303 46.8912 316.738C46.623 317.173 46.2454 317.513 45.7584 317.758C45.2714 318 44.7024 318.121 44.0514 318.121C43.3977 318.121 42.8274 318 42.3404 317.758C41.8535 317.513 41.4758 317.173 41.2076 316.738C40.9394 316.303 40.8053 315.799 40.8053 315.227L40.8053 310H42.2545L42.2545 315.105C42.2545 315.439 42.3274 315.736 42.4732 315.996C42.6217 316.257 42.83 316.461 43.0982 316.609C43.3665 316.755 43.6842 316.828 44.0514 316.828C44.4186 316.828 44.7363 316.755 45.0045 316.609C45.2753 316.461 45.4837 316.257 45.6295 315.996C45.7753 315.736 45.8482 315.439 45.8482 315.105L45.8482 310ZM51.0727 318L51.0727 310H54.0727C54.6872 310 55.2029 310.115 55.6195 310.344C56.0388 310.573 56.3552 310.888 56.5687 311.289C56.7849 311.687 56.893 312.141 56.893 312.648C56.893 313.161 56.7849 313.617 56.5687 314.016C56.3526 314.414 56.0336 314.728 55.6117 314.957C55.1898 315.184 54.6703 315.297 54.0531 315.297H52.0648V314.105H53.8578C54.2172 314.105 54.5115 314.043 54.7406 313.918C54.9698 313.793 55.1391 313.621 55.2484 313.402C55.3604 313.184 55.4164 312.932 55.4164 312.648C55.4164 312.365 55.3604 312.115 55.2484 311.898C55.1391 311.682 54.9685 311.514 54.7367 311.395C54.5076 311.272 54.212 311.211 53.85 311.211H52.5219L52.5219 318H51.0727ZM63.0627 318H60.3518L60.3518 310H63.1174C63.9117 310 64.5939 310.16 65.1643 310.48C65.7372 310.798 66.1773 311.255 66.4846 311.852C66.7919 312.448 66.9455 313.161 66.9455 313.992C66.9455 314.826 66.7906 315.542 66.4807 316.141C66.1734 316.74 65.7294 317.199 65.1486 317.52C64.5705 317.84 63.8752 318 63.0627 318ZM61.801 316.746H62.9924C63.5497 316.746 64.0145 316.645 64.3869 316.441C64.7593 316.236 65.0393 315.93 65.2268 315.523C65.4143 315.115 65.508 314.604 65.508 313.992C65.508 313.38 65.4143 312.872 65.2268 312.469C65.0393 312.062 64.7619 311.759 64.3947 311.559C64.0301 311.355 63.577 311.254 63.0354 311.254H61.801L61.801 316.746ZM71.1201 318H69.5732L72.3896 310H74.1787L76.999 318H75.4521L73.3154 311.641H73.2529L71.1201 318ZM71.1709 314.863H75.3896V316.027H71.1709V314.863ZM78.9344 311.215V310H85.3172V311.215H82.8445L82.8445 318H81.407L81.407 311.215H78.9344ZM88.7477 318L88.7477 310L93.9508 310V311.215H90.1969L90.1969 313.387H93.6813V314.602H90.1969V316.785H93.982L93.982 318L88.7477 318ZM101.977 312.199C101.94 311.858 101.787 311.592 101.516 311.402C101.248 311.212 100.899 311.117 100.469 311.117C100.167 311.117 99.9079 311.163 99.6918 311.254C99.4756 311.345 99.3103 311.469 99.1957 311.625C99.0811 311.781 99.0225 311.96 99.0199 312.16C99.0199 312.327 99.0577 312.471 99.1332 312.594C99.2113 312.716 99.3168 312.82 99.4496 312.906C99.5824 312.99 99.7296 313.06 99.891 313.117C100.052 313.174 100.215 313.223 100.379 313.262L101.129 313.449C101.431 313.52 101.722 313.615 102 313.734C102.282 313.854 102.533 314.005 102.754 314.188C102.978 314.37 103.155 314.59 103.286 314.848C103.416 315.105 103.481 315.408 103.481 315.754C103.481 316.223 103.361 316.635 103.121 316.992C102.882 317.346 102.536 317.624 102.082 317.824C101.632 318.022 101.086 318.121 100.446 318.121C99.8233 318.121 99.2829 318.025 98.8246 317.832C98.3689 317.639 98.0121 317.358 97.7543 316.988C97.4991 316.618 97.3611 316.168 97.3402 315.637H98.766C98.7868 315.915 98.8728 316.147 99.0238 316.332C99.1749 316.517 99.3715 316.655 99.6137 316.746C99.8585 316.837 100.132 316.883 100.434 316.883C100.749 316.883 101.025 316.836 101.262 316.742C101.502 316.646 101.689 316.513 101.825 316.344C101.96 316.172 102.029 315.971 102.032 315.742C102.029 315.534 101.968 315.362 101.848 315.227C101.728 315.089 101.56 314.974 101.344 314.883C101.131 314.789 100.881 314.706 100.594 314.633L99.684 314.398C99.0251 314.229 98.5043 313.973 98.1215 313.629C97.7413 313.283 97.5512 312.823 97.5512 312.25C97.5512 311.779 97.6788 311.366 97.934 311.012C98.1918 310.658 98.5421 310.383 98.9848 310.187C99.4275 309.99 99.9288 309.891 100.489 309.891C101.056 309.891 101.554 309.99 101.981 310.187C102.411 310.383 102.748 310.655 102.993 311.004C103.237 311.35 103.364 311.749 103.371 312.199H101.977Z" fill="white"/>
<path d="M0 243C0 240.239 2.23858 238 5 238H138C140.761 238 143 240.239 143 243V269C143 271.761 140.761 274 138 274H5C2.23858 274 0 271.761 0 269V243Z" fill="#222222"/>
<path d="M35.1815 260L35.1815 251.273H40.7724V252.598H36.7625L36.7625 254.967H40.3889V256.293H36.7625L36.7625 260H35.1815ZM44.6127 260L44.6127 251.273H50.2889V252.598H46.1937L46.1937 254.967H49.9948V256.293H46.1937V258.675H50.323L50.323 260H44.6127ZM55.4225 260H53.735L56.8075 251.273L58.7592 251.273L61.8359 260H60.1484L57.8174 253.062H57.7493L55.4225 260ZM55.4779 256.578H60.0802V257.848H55.4779V256.578ZM63.9472 252.598V251.273H70.9103V252.598H68.2128L68.2128 260H66.6446L66.6446 252.598H63.9472ZM80.154 251.273H81.735L81.735 256.974C81.735 257.599 81.5872 258.149 81.2918 258.624C80.9992 259.098 80.5872 259.469 80.056 259.736C79.5247 260 78.904 260.132 78.1938 260.132C77.4807 260.132 76.8586 260 76.3273 259.736C75.7961 259.469 75.3841 259.098 75.0915 258.624C74.7989 258.149 74.6526 257.599 74.6526 256.974L74.6526 251.273L76.2336 251.273L76.2336 256.842C76.2336 257.206 76.3131 257.53 76.4722 257.814C76.6341 258.098 76.8614 258.321 77.154 258.483C77.4466 258.642 77.7932 258.722 78.1938 258.722C78.5944 258.722 78.9409 258.642 79.2336 258.483C79.529 258.321 79.7563 258.098 79.9154 257.814C80.0745 257.53 80.154 257.206 80.154 256.842L80.154 251.273ZM85.8534 260L85.8534 251.273H89.1261C89.7966 251.273 90.3591 251.389 90.8136 251.622C91.271 251.855 91.6162 252.182 91.8491 252.602C92.0849 253.02 92.2028 253.507 92.2028 254.064C92.2028 254.624 92.0835 255.109 91.8448 255.521C91.6091 255.93 91.261 256.247 90.8008 256.472C90.3406 256.693 89.7752 256.804 89.1048 256.804H86.7738V255.491H88.8917C89.2838 255.491 89.6048 255.437 89.8548 255.33C90.1048 255.219 90.2895 255.058 90.4088 254.848C90.5309 254.635 90.592 254.374 90.592 254.064C90.592 253.754 90.5309 253.49 90.4088 253.271C90.2866 253.05 90.1005 252.882 89.8505 252.768C89.6005 252.652 89.2781 252.594 88.8832 252.594H87.4343L87.4343 260H85.8534ZM90.3619 256.045L92.5224 260H90.7582L88.636 256.045H90.3619ZM96.0581 260L96.0581 251.273H101.734L101.734 252.598H97.639L97.639 254.967H101.44V256.293H97.639L97.639 258.675H101.768V260H96.0581ZM110.49 253.672C110.45 253.3 110.283 253.01 109.987 252.803C109.695 252.595 109.314 252.491 108.845 252.491C108.516 252.491 108.233 252.541 107.997 252.641C107.761 252.74 107.581 252.875 107.456 253.045C107.331 253.216 107.267 253.411 107.264 253.629C107.264 253.811 107.305 253.969 107.388 254.102C107.473 254.236 107.588 254.349 107.733 254.443C107.878 254.534 108.038 254.611 108.214 254.673C108.391 254.736 108.568 254.788 108.747 254.831L109.565 255.036C109.895 255.112 110.212 255.216 110.516 255.347C110.822 255.477 111.097 255.642 111.338 255.841C111.582 256.04 111.776 256.28 111.918 256.561C112.06 256.842 112.131 257.172 112.131 257.55C112.131 258.061 112 258.511 111.739 258.901C111.477 259.287 111.099 259.589 110.605 259.808C110.114 260.024 109.518 260.132 108.82 260.132C108.141 260.132 107.551 260.027 107.051 259.817C106.554 259.607 106.165 259.3 105.883 258.896C105.605 258.493 105.455 258.001 105.432 257.422H106.987C107.01 257.726 107.104 257.979 107.268 258.18C107.433 258.382 107.648 258.533 107.912 258.632C108.179 258.732 108.477 258.781 108.807 258.781C109.151 258.781 109.452 258.73 109.71 258.628C109.972 258.523 110.176 258.378 110.324 258.193C110.472 258.006 110.547 257.787 110.55 257.537C110.547 257.31 110.48 257.122 110.349 256.974C110.219 256.824 110.035 256.699 109.8 256.599C109.567 256.497 109.294 256.406 108.982 256.327L107.989 256.071C107.27 255.886 106.702 255.607 106.284 255.232C105.869 254.854 105.662 254.352 105.662 253.727C105.662 253.213 105.801 252.763 106.08 252.376C106.361 251.99 106.743 251.69 107.226 251.477C107.709 251.261 108.256 251.153 108.866 251.153C109.486 251.153 110.028 251.261 110.494 251.477C110.963 251.69 111.331 251.987 111.598 252.368C111.865 252.746 112.003 253.18 112.011 253.672H110.49Z" fill="white"/>
<path d="M0 184C0 181.239 2.23858 179 5 179H138C140.761 179 143 181.239 143 184V210C143 212.761 140.761 215 138 215H5C2.23858 215 0 212.761 0 210V184Z" fill="#222222"/>
<path d="M0 184C0 181.239 2.23858 179 5 179H138C140.761 179 143 181.239 143 184V210C143 212.761 140.761 215 138 215H5C2.23858 215 0 212.761 0 210V184Z" fill="#222222"/>
<path d="M44.3849 195.199C44.3484 194.858 44.1948 194.592 43.9239 194.402C43.6557 194.212 43.3067 194.117 42.8771 194.117C42.575 194.117 42.3159 194.163 42.0997 194.254C41.8836 194.345 41.7182 194.469 41.6036 194.625C41.489 194.781 41.4304 194.96 41.4278 195.16C41.4278 195.327 41.4656 195.471 41.5411 195.594C41.6192 195.716 41.7247 195.82 41.8575 195.906C41.9903 195.99 42.1375 196.06 42.2989 196.117C42.4604 196.174 42.6231 196.223 42.7872 196.262L43.5372 196.449C43.8393 196.52 44.1297 196.615 44.4083 196.734C44.6896 196.854 44.9409 197.005 45.1622 197.188C45.3862 197.37 45.5633 197.59 45.6935 197.848C45.8237 198.105 45.8888 198.408 45.8888 198.754C45.8888 199.223 45.769 199.635 45.5294 199.992C45.2898 200.346 44.9435 200.624 44.4903 200.824C44.0398 201.022 43.4942 201.121 42.8536 201.121C42.2312 201.121 41.6909 201.025 41.2325 200.832C40.7768 200.639 40.42 200.358 40.1622 199.988C39.907 199.618 39.769 199.168 39.7481 198.637H41.1739C41.1948 198.915 41.2807 199.147 41.4317 199.332C41.5828 199.517 41.7794 199.655 42.0216 199.746C42.2664 199.837 42.5398 199.883 42.8419 199.883C43.157 199.883 43.433 199.836 43.67 199.742C43.9096 199.646 44.0971 199.513 44.2325 199.344C44.3679 199.172 44.4369 198.971 44.4396 198.742C44.4369 198.534 44.3758 198.362 44.256 198.227C44.1362 198.089 43.9682 197.974 43.7521 197.883C43.5385 197.789 43.2885 197.706 43.0021 197.633L42.0919 197.398C41.433 197.229 40.9122 196.973 40.5294 196.629C40.1492 196.283 39.9591 195.823 39.9591 195.25C39.9591 194.779 40.0867 194.366 40.3419 194.012C40.5997 193.658 40.95 193.383 41.3927 193.187C41.8354 192.99 42.3367 192.891 42.8966 192.891C43.4643 192.891 43.9617 192.99 44.3888 193.187C44.8185 193.383 45.1557 193.655 45.4005 194.004C45.6453 194.35 45.7716 194.749 45.7794 195.199H44.3849ZM54.4237 193H55.873L55.873 198.227C55.873 198.799 55.7375 199.303 55.4667 199.738C55.1985 200.173 54.8209 200.513 54.3339 200.758C53.8469 201 53.2779 201.121 52.6269 201.121C51.9732 201.121 51.4029 201 50.9159 200.758C50.4289 200.513 50.0513 200.173 49.7831 199.738C49.5149 199.303 49.3808 198.799 49.3808 198.227L49.3808 193H50.83L50.83 198.105C50.83 198.439 50.9029 198.736 51.0487 198.996C51.1972 199.257 51.4055 199.461 51.6737 199.609C51.942 199.755 52.2597 199.828 52.6269 199.828C52.994 199.828 53.3118 199.755 53.58 199.609C53.8508 199.461 54.0591 199.257 54.205 198.996C54.3508 198.736 54.4237 198.439 54.4237 198.105L54.4237 193ZM59.6481 201L59.6481 193H62.6481C63.2627 193 63.7784 193.115 64.195 193.344C64.6143 193.573 64.9307 193.888 65.1442 194.289C65.3604 194.687 65.4685 195.141 65.4685 195.648C65.4685 196.161 65.3604 196.617 65.1442 197.016C64.9281 197.414 64.6091 197.728 64.1872 197.957C63.7653 198.184 63.2458 198.297 62.6286 198.297H60.6403V197.105H62.4333C62.7927 197.105 63.0869 197.043 63.3161 196.918C63.5453 196.793 63.7146 196.621 63.8239 196.402C63.9359 196.184 63.9919 195.932 63.9919 195.648C63.9919 195.365 63.9359 195.115 63.8239 194.898C63.7146 194.682 63.544 194.514 63.3122 194.395C63.083 194.272 62.7875 194.211 62.4255 194.211H61.0974L61.0974 201H59.6481ZM68.9272 201L68.9272 193H71.9272C72.5418 193 73.0575 193.115 73.4741 193.344C73.8934 193.573 74.2098 193.888 74.4233 194.289C74.6395 194.687 74.7476 195.141 74.7476 195.648C74.7476 196.161 74.6395 196.617 74.4233 197.016C74.2072 197.414 73.8882 197.728 73.4663 197.957C73.0444 198.184 72.5249 198.297 71.9077 198.297H69.9194V197.105H71.7124C72.0718 197.105 72.3661 197.043 72.5952 196.918C72.8244 196.793 72.9937 196.621 73.103 196.402C73.215 196.184 73.271 195.932 73.271 195.648C73.271 195.365 73.215 195.115 73.103 194.898C72.9937 194.682 72.8231 194.514 72.5913 194.395C72.3621 194.272 72.0666 194.211 71.7046 194.211H70.3765L70.3765 201H68.9272ZM85.3548 197C85.3548 197.862 85.1933 198.6 84.8704 199.215C84.5501 199.827 84.1126 200.296 83.5579 200.621C83.0058 200.947 82.3795 201.109 81.679 201.109C80.9785 201.109 80.3509 200.947 79.7962 200.621C79.2441 200.293 78.8066 199.823 78.4837 199.211C78.1634 198.596 78.0032 197.859 78.0032 197C78.0032 196.138 78.1634 195.401 78.4837 194.789C78.8066 194.174 79.2441 193.704 79.7962 193.379C80.3509 193.053 80.9785 192.891 81.679 192.891C82.3795 192.891 83.0058 193.053 83.5579 193.379C84.1126 193.704 84.5501 194.174 84.8704 194.789C85.1933 195.401 85.3548 196.138 85.3548 197ZM83.8978 197C83.8978 196.393 83.8027 195.882 83.6126 195.465C83.4251 195.046 83.1647 194.729 82.8313 194.516C82.498 194.299 82.1139 194.191 81.679 194.191C81.2441 194.191 80.86 194.299 80.5267 194.516C80.1933 194.729 79.9316 195.046 79.7415 195.465C79.554 195.882 79.4603 196.393 79.4603 197C79.4603 197.607 79.554 198.12 79.7415 198.539C79.9316 198.956 80.1933 199.272 80.5267 199.488C80.86 199.702 81.2441 199.809 81.679 199.809C82.1139 199.809 82.498 199.702 82.8313 199.488C83.1647 199.272 83.4251 198.956 83.6126 198.539C83.8027 198.12 83.8978 197.607 83.8978 197ZM88.9249 201L88.9249 193H91.9249C92.5395 193 93.0551 193.107 93.4718 193.32C93.8911 193.534 94.2075 193.833 94.421 194.219C94.6371 194.602 94.7452 195.048 94.7452 195.559C94.7452 196.072 94.6358 196.517 94.4171 196.895C94.2009 197.27 93.8819 197.56 93.4601 197.766C93.0382 197.969 92.52 198.07 91.9054 198.07H89.7687V196.867H91.7101C92.0694 196.867 92.3637 196.818 92.5929 196.719C92.822 196.617 92.9913 196.47 93.1007 196.277C93.2127 196.082 93.2687 195.842 93.2687 195.559C93.2687 195.275 93.2127 195.033 93.1007 194.832C92.9887 194.629 92.8181 194.475 92.589 194.371C92.3598 194.264 92.0642 194.211 91.7022 194.211H90.3741L90.3741 201H88.9249ZM93.0577 197.375L95.0382 201H93.421L91.4757 197.375H93.0577ZM97.9276 194.215V193H104.31L104.31 194.215H101.838L101.838 201H100.4L100.4 194.215H97.9276Z" fill="white"/>
<path d="M47.1112 76.2727L49.3825 83.142H49.472L51.7391 76.2727H53.4777L50.401 85L48.4493 85L45.3768 76.2727H47.1112ZM57.1284 85L55.4409 85L58.5134 76.2727H60.4651L63.5418 85H61.8543L59.5233 78.0625H59.4551L57.1284 85ZM57.1838 81.5781H61.7861V82.848H57.1838V81.5781ZM67.0913 85L67.0913 76.2727H68.6722L68.6722 83.6747H72.516L72.516 85H67.0913ZM81.7896 76.2727L83.3705 76.2727L83.3705 81.9744C83.3705 82.5994 83.2228 83.1491 82.9273 83.6236C82.6347 84.098 82.2228 84.4687 81.6916 84.7358C81.1603 85 80.5396 85.1321 79.8293 85.1321C79.1163 85.1321 78.4941 85 77.9629 84.7358C77.4316 84.4687 77.0197 84.098 76.7271 83.6236C76.4344 83.1491 76.2881 82.5994 76.2881 81.9744L76.2881 76.2727H77.8691L77.8691 81.8423C77.8691 82.206 77.9487 82.5298 78.1077 82.8139C78.2697 83.098 78.4969 83.321 78.7896 83.483C79.0822 83.642 79.4288 83.7216 79.8293 83.7216C80.2299 83.7216 80.5765 83.642 80.8691 83.483C81.1646 83.321 81.3918 83.098 81.5509 82.8139C81.71 82.5298 81.7896 82.206 81.7896 81.8423L81.7896 76.2727ZM87.4889 85L87.4889 76.2727L93.1651 76.2727V77.598L89.0699 77.598L89.0699 79.9673L92.871 79.9673V81.2926L89.0699 81.2926L89.0699 83.6747L93.1991 83.6747V85L87.4889 85Z" fill="#7FC591"/>
<path d="M150.688 4.59801V3.27273L157.651 3.27273V4.59801L154.953 4.59801L154.953 12L153.385 12L153.385 4.59801L150.688 4.59801ZM162.974 3.27273L162.974 12L161.393 12L161.393 3.27273L162.974 3.27273ZM167.086 3.27273L169.021 3.27273L171.612 9.59659H171.714L174.305 3.27273L176.24 3.27273L176.24 12L174.723 12L174.723 6.00426H174.642L172.23 11.9744L171.096 11.9744L168.684 5.99148H168.603L168.603 12L167.086 12L167.086 3.27273ZM180.361 12L180.361 3.27273L186.037 3.27273V4.59801L181.942 4.59801V6.96733L185.743 6.96733V8.29261L181.942 8.29261L181.942 10.6747L186.071 10.6747V12L180.361 12Z" fill="#C0C0C0"/>
<path d="M248.672 460.217H247.078C247.032 459.956 246.949 459.724 246.826 459.523C246.704 459.318 246.552 459.145 246.37 459.003C246.189 458.861 245.981 458.754 245.748 458.683C245.518 458.609 245.27 458.572 245.003 458.572C244.528 458.572 244.108 458.692 243.741 458.93C243.375 459.166 243.088 459.513 242.88 459.97C242.673 460.425 242.569 460.98 242.569 461.636C242.569 462.304 242.673 462.866 242.88 463.324C243.091 463.778 243.378 464.122 243.741 464.355C244.108 464.585 244.527 464.7 244.998 464.7C245.26 464.7 245.504 464.666 245.731 464.598C245.961 464.527 246.167 464.423 246.349 464.287C246.534 464.151 246.689 463.983 246.814 463.784C246.941 463.585 247.03 463.358 247.078 463.102L248.672 463.111C248.612 463.526 248.483 463.915 248.284 464.278C248.088 464.642 247.831 464.963 247.513 465.241C247.194 465.517 246.822 465.733 246.396 465.889C245.97 466.043 245.497 466.119 244.977 466.119C244.21 466.119 243.525 465.942 242.923 465.587C242.321 465.232 241.846 464.719 241.5 464.048C241.153 463.378 240.98 462.574 240.98 461.636C240.98 460.696 241.155 459.892 241.504 459.224C241.853 458.554 242.329 458.041 242.932 457.686C243.534 457.331 244.216 457.153 244.977 457.153C245.463 457.153 245.914 457.222 246.332 457.358C246.75 457.494 247.122 457.695 247.449 457.959C247.775 458.22 248.044 458.541 248.254 458.922C248.467 459.3 248.606 459.732 248.672 460.217ZM260.318 461.636C260.318 462.577 260.142 463.382 259.789 464.053C259.44 464.72 258.963 465.232 258.357 465.587C257.755 465.942 257.072 466.119 256.308 466.119C255.544 466.119 254.859 465.942 254.254 465.587C253.651 465.229 253.174 464.716 252.822 464.048C252.473 463.378 252.298 462.574 252.298 461.636C252.298 460.696 252.473 459.892 252.822 459.224C253.174 458.554 253.651 458.041 254.254 457.686C254.859 457.331 255.544 457.153 256.308 457.153C257.072 457.153 257.755 457.331 258.357 457.686C258.963 458.041 259.44 458.554 259.789 459.224C260.142 459.892 260.318 460.696 260.318 461.636ZM258.728 461.636C258.728 460.974 258.625 460.416 258.417 459.962C258.213 459.504 257.928 459.159 257.565 458.926C257.201 458.69 256.782 458.572 256.308 458.572C255.833 458.572 255.414 458.69 255.051 458.926C254.687 459.159 254.401 459.504 254.194 459.962C253.99 460.416 253.887 460.974 253.887 461.636C253.887 462.298 253.99 462.858 254.194 463.315C254.401 463.77 254.687 464.115 255.051 464.351C255.414 464.584 255.833 464.7 256.308 464.7C256.782 464.7 257.201 464.584 257.565 464.351C257.928 464.115 258.213 463.77 258.417 463.315C258.625 462.858 258.728 462.298 258.728 461.636ZM268.955 459.672C268.915 459.3 268.748 459.01 268.452 458.803C268.16 458.595 267.779 458.491 267.31 458.491C266.981 458.491 266.698 458.541 266.462 458.641C266.227 458.74 266.046 458.875 265.921 459.045C265.796 459.216 265.732 459.411 265.729 459.629C265.729 459.811 265.771 459.969 265.853 460.102C265.938 460.236 266.053 460.349 266.198 460.443C266.343 460.534 266.504 460.611 266.68 460.673C266.856 460.736 267.033 460.788 267.212 460.831L268.031 461.036C268.36 461.112 268.677 461.216 268.981 461.347C269.288 461.477 269.562 461.642 269.803 461.841C270.048 462.04 270.241 462.28 270.383 462.561C270.525 462.842 270.596 463.172 270.596 463.55C270.596 464.061 270.465 464.511 270.204 464.901C269.942 465.287 269.565 465.589 269.07 465.808C268.579 466.024 267.984 466.132 267.285 466.132C266.606 466.132 266.016 466.027 265.516 465.817C265.019 465.607 264.63 465.3 264.349 464.896C264.07 464.493 263.92 464.001 263.897 463.422H265.452C265.475 463.726 265.569 463.979 265.734 464.18C265.898 464.382 266.113 464.533 266.377 464.632C266.644 464.732 266.942 464.781 267.272 464.781C267.616 464.781 267.917 464.73 268.175 464.628C268.437 464.523 268.641 464.378 268.789 464.193C268.937 464.006 269.012 463.787 269.015 463.537C269.012 463.31 268.945 463.122 268.815 462.974C268.684 462.824 268.501 462.699 268.265 462.599C268.032 462.497 267.759 462.406 267.447 462.327L266.454 462.071C265.735 461.886 265.167 461.607 264.749 461.232C264.335 460.854 264.127 460.352 264.127 459.727C264.127 459.213 264.266 458.763 264.545 458.376C264.826 457.99 265.208 457.69 265.691 457.477C266.174 457.261 266.721 457.153 267.332 457.153C267.951 457.153 268.494 457.261 268.96 457.477C269.428 457.69 269.796 457.987 270.063 458.368C270.33 458.746 270.468 459.18 270.477 459.672H268.955ZM274.022 458.598V457.273H280.985V458.598H278.287V466H276.719V458.598H274.022ZM289.47 459.672C289.43 459.3 289.263 459.01 288.967 458.803C288.675 458.595 288.294 458.491 287.825 458.491C287.496 458.491 287.213 458.541 286.977 458.641C286.741 458.74 286.561 458.875 286.436 459.045C286.311 459.216 286.247 459.411 286.244 459.629C286.244 459.811 286.285 459.969 286.368 460.102C286.453 460.236 286.568 460.349 286.713 460.443C286.858 460.534 287.018 460.611 287.195 460.673C287.371 460.736 287.548 460.788 287.727 460.831L288.545 461.036C288.875 461.112 289.192 461.216 289.496 461.347C289.802 461.477 290.077 461.642 290.318 461.841C290.562 462.04 290.756 462.28 290.898 462.561C291.04 462.842 291.111 463.172 291.111 463.55C291.111 464.061 290.98 464.511 290.719 464.901C290.457 465.287 290.079 465.589 289.585 465.808C289.094 466.024 288.499 466.132 287.8 466.132C287.121 466.132 286.531 466.027 286.031 465.817C285.534 465.607 285.145 465.3 284.864 464.896C284.585 464.493 284.435 464.001 284.412 463.422H285.967C285.99 463.726 286.084 463.979 286.249 464.18C286.413 464.382 286.628 464.533 286.892 464.632C287.159 464.732 287.457 464.781 287.787 464.781C288.131 464.781 288.432 464.73 288.69 464.628C288.952 464.523 289.156 464.378 289.304 464.193C289.452 464.006 289.527 463.787 289.53 463.537C289.527 463.31 289.46 463.122 289.329 462.974C289.199 462.824 289.016 462.699 288.78 462.599C288.547 462.497 288.274 462.406 287.962 462.327L286.969 462.071C286.25 461.886 285.682 461.607 285.264 461.232C284.849 460.854 284.642 460.352 284.642 459.727C284.642 459.213 284.781 458.763 285.06 458.376C285.341 457.99 285.723 457.69 286.206 457.477C286.689 457.261 287.236 457.153 287.847 457.153C288.466 457.153 289.008 457.261 289.474 457.477C289.943 457.69 290.311 457.987 290.578 458.368C290.845 458.746 290.983 459.18 290.991 459.672H289.47Z" fill="#CD4358"/>
<path d="M272 426L258 426L258 75L272 75L272 426Z" fill="white"/>
<path d="M272 426L258 426L258 75L272 75L272 426Z" fill="url(#paint3_linear)"/>
<circle cx="265.5" cy="427.5" r="11.5" transform="rotate(-180 265.5 427.5)" fill="#CD4358"/>
<path d="M194 184C194 181.239 196.239 179 199 179H332C334.761 179 337 181.239 337 184V210C337 212.761 334.761 215 332 215H199C196.239 215 194 212.761 194 210V184Z" fill="#222222"/>
<path d="M194 184C194 181.239 196.239 179 199 179H332C334.761 179 337 181.239 337 184V210C337 212.761 334.761 215 332 215H199C196.239 215 194 212.761 194 210V184Z" fill="#222222"/>
<path d="M220.839 195.699H219.378C219.336 195.46 219.259 195.247 219.147 195.062C219.035 194.875 218.896 194.716 218.729 194.586C218.563 194.456 218.373 194.358 218.159 194.293C217.948 194.225 217.72 194.191 217.476 194.191C217.041 194.191 216.655 194.301 216.319 194.52C215.983 194.736 215.72 195.053 215.53 195.473C215.34 195.889 215.245 196.398 215.245 197C215.245 197.612 215.34 198.128 215.53 198.547C215.723 198.964 215.986 199.279 216.319 199.492C216.655 199.703 217.039 199.809 217.472 199.809C217.711 199.809 217.935 199.777 218.144 199.715C218.354 199.65 218.543 199.555 218.71 199.43C218.879 199.305 219.021 199.151 219.136 198.969C219.253 198.786 219.334 198.578 219.378 198.344L220.839 198.352C220.784 198.732 220.666 199.089 220.483 199.422C220.304 199.755 220.068 200.049 219.776 200.305C219.485 200.557 219.144 200.755 218.753 200.898C218.362 201.039 217.929 201.109 217.452 201.109C216.749 201.109 216.121 200.947 215.569 200.621C215.017 200.296 214.582 199.826 214.265 199.211C213.947 198.596 213.788 197.859 213.788 197C213.788 196.138 213.948 195.401 214.269 194.789C214.589 194.174 215.025 193.704 215.577 193.379C216.129 193.053 216.754 192.891 217.452 192.891C217.897 192.891 218.312 192.953 218.694 193.078C219.077 193.203 219.418 193.387 219.718 193.629C220.017 193.868 220.263 194.163 220.456 194.512C220.651 194.858 220.779 195.254 220.839 195.699ZM231.514 197C231.514 197.862 231.353 198.6 231.03 199.215C230.71 199.827 230.272 200.296 229.718 200.621C229.165 200.947 228.539 201.109 227.839 201.109C227.138 201.109 226.511 200.947 225.956 200.621C225.404 200.293 224.966 199.823 224.643 199.211C224.323 198.596 224.163 197.859 224.163 197C224.163 196.138 224.323 195.401 224.643 194.789C224.966 194.174 225.404 193.704 225.956 193.379C226.511 193.053 227.138 192.891 227.839 192.891C228.539 192.891 229.165 193.053 229.718 193.379C230.272 193.704 230.71 194.174 231.03 194.789C231.353 195.401 231.514 196.138 231.514 197ZM230.057 197C230.057 196.393 229.962 195.882 229.772 195.465C229.585 195.046 229.324 194.729 228.991 194.516C228.658 194.299 228.274 194.191 227.839 194.191C227.404 194.191 227.02 194.299 226.686 194.516C226.353 194.729 226.091 195.046 225.901 195.465C225.714 195.882 225.62 196.393 225.62 197C225.62 197.607 225.714 198.12 225.901 198.539C226.091 198.956 226.353 199.272 226.686 199.488C227.02 199.702 227.404 199.809 227.839 199.809C228.274 199.809 228.658 199.702 228.991 199.488C229.324 199.272 229.585 198.956 229.772 198.539C229.962 198.12 230.057 197.607 230.057 197ZM241.659 193L241.659 201H240.37L236.6 195.551H236.534L236.534 201H235.085L235.085 193H236.381L240.147 198.453H240.217V193H241.659ZM249.786 195.199C249.749 194.858 249.595 194.592 249.325 194.402C249.056 194.212 248.707 194.117 248.278 194.117C247.976 194.117 247.717 194.163 247.5 194.254C247.284 194.345 247.119 194.469 247.004 194.625C246.89 194.781 246.831 194.96 246.829 195.16C246.829 195.327 246.866 195.471 246.942 195.594C247.02 195.716 247.125 195.82 247.258 195.906C247.391 195.99 247.538 196.06 247.7 196.117C247.861 196.174 248.024 196.223 248.188 196.262L248.938 196.449C249.24 196.52 249.53 196.615 249.809 196.734C250.09 196.854 250.342 197.005 250.563 197.188C250.787 197.37 250.964 197.59 251.094 197.848C251.224 198.105 251.289 198.408 251.289 198.754C251.289 199.223 251.17 199.635 250.93 199.992C250.69 200.346 250.344 200.624 249.891 200.824C249.44 201.022 248.895 201.121 248.254 201.121C247.632 201.121 247.092 201.025 246.633 200.832C246.177 200.639 245.821 200.358 245.563 199.988C245.308 199.618 245.17 199.168 245.149 198.637H246.575C246.595 198.915 246.681 199.147 246.832 199.332C246.983 199.517 247.18 199.655 247.422 199.746C247.667 199.837 247.94 199.883 248.243 199.883C248.558 199.883 248.834 199.836 249.071 199.742C249.31 199.646 249.498 199.513 249.633 199.344C249.769 199.172 249.838 198.971 249.84 198.742C249.838 198.534 249.776 198.362 249.657 198.227C249.537 198.089 249.369 197.974 249.153 197.883C248.939 197.789 248.689 197.706 248.403 197.633L247.493 197.398C246.834 197.229 246.313 196.973 245.93 196.629C245.55 196.283 245.36 195.823 245.36 195.25C245.36 194.779 245.487 194.366 245.743 194.012C246 193.658 246.351 193.383 246.793 193.187C247.236 192.99 247.737 192.891 248.297 192.891C248.865 192.891 249.362 192.99 249.789 193.187C250.219 193.383 250.556 193.655 250.801 194.004C251.046 194.35 251.172 194.749 251.18 195.199H249.786ZM259.824 193H261.274V198.227C261.274 198.799 261.138 199.303 260.867 199.738C260.599 200.173 260.222 200.513 259.735 200.758C259.248 201 258.679 201.121 258.028 201.121C257.374 201.121 256.804 201 256.317 200.758C255.83 200.513 255.452 200.173 255.184 199.738C254.916 199.303 254.781 198.799 254.781 198.227V193H256.231V198.105C256.231 198.439 256.304 198.736 256.449 198.996C256.598 199.257 256.806 199.461 257.074 199.609C257.343 199.755 257.66 199.828 258.028 199.828C258.395 199.828 258.712 199.755 258.981 199.609C259.251 199.461 259.46 199.257 259.606 198.996C259.751 198.736 259.824 198.439 259.824 198.105V193ZM265.049 201V193H266.498V199.785H270.021V201H265.049ZM272.107 194.215V193H278.49V194.215H276.017V201H274.58V194.215H272.107ZM281.981 201H280.434L283.251 193H285.04L287.86 201H286.313L284.176 194.641H284.114L281.981 201ZM282.032 197.863H286.251V199.027H282.032V197.863ZM297.688 193V201H296.399L292.629 195.551H292.563V201H291.114V193H292.411L296.176 198.453H296.246V193H297.688ZM308.315 195.699H306.854C306.812 195.46 306.735 195.247 306.623 195.062C306.511 194.875 306.372 194.716 306.205 194.586C306.039 194.456 305.849 194.358 305.635 194.293C305.424 194.225 305.196 194.191 304.951 194.191C304.516 194.191 304.131 194.301 303.795 194.52C303.459 194.736 303.196 195.053 303.006 195.473C302.816 195.889 302.721 196.398 302.721 197C302.721 197.612 302.816 198.128 303.006 198.547C303.199 198.964 303.462 199.279 303.795 199.492C304.131 199.703 304.515 199.809 304.947 199.809C305.187 199.809 305.411 199.777 305.619 199.715C305.83 199.65 306.019 199.555 306.186 199.43C306.355 199.305 306.497 199.151 306.612 198.969C306.729 198.786 306.809 198.578 306.854 198.344L308.315 198.352C308.26 198.732 308.141 199.089 307.959 199.422C307.779 199.755 307.544 200.049 307.252 200.305C306.96 200.557 306.619 200.755 306.229 200.898C305.838 201.039 305.404 201.109 304.928 201.109C304.225 201.109 303.597 200.947 303.045 200.621C302.493 200.296 302.058 199.826 301.74 199.211C301.423 198.596 301.264 197.859 301.264 197C301.264 196.138 301.424 195.401 301.744 194.789C302.065 194.174 302.501 193.704 303.053 193.379C303.605 193.053 304.23 192.891 304.928 192.891C305.373 192.891 305.787 192.953 306.17 193.078C306.553 193.203 306.894 193.387 307.194 193.629C307.493 193.868 307.739 194.163 307.932 194.512C308.127 194.858 308.255 195.254 308.315 195.699ZM311.295 193H312.932L314.889 196.539H314.967L316.924 193H318.561L315.65 198.016V201H314.205V198.016L311.295 193Z" fill="white"/>
<path d="M194 243C194 240.239 196.239 238 199 238H332C334.761 238 337 240.239 337 243V269C337 271.761 334.761 274 332 274H199C196.239 274 194 271.761 194 269V243Z" fill="#222222"/>
<path d="M194 243C194 240.239 196.239 238 199 238H332C334.761 238 337 240.239 337 243V269C337 271.761 334.761 274 332 274H199C196.239 274 194 271.761 194 269V243Z" fill="#222222"/>
<path d="M217.343 252L217.343 260H215.894L215.894 252H217.343ZM227.687 252L227.687 260H226.398L222.628 254.551H222.562L222.562 260H221.113L221.113 252H222.41L226.175 257.453H226.246V252H227.687ZM231.114 253.215V252H237.497V253.215H235.025L235.025 260H233.587L233.587 253.215H231.114ZM240.928 260L240.928 252H246.131V253.215H242.377V255.387H245.861V256.602H242.377L242.377 258.785H246.162V260H240.928ZM249.809 260L249.809 252H251.259V258.785H254.782L254.782 260H249.809ZM258.24 260V252H259.689V258.785H263.213V260H258.24ZM268.12 252V260H266.67V252H268.12ZM277.248 254.555C277.183 254.344 277.093 254.155 276.979 253.988C276.867 253.819 276.731 253.674 276.572 253.555C276.416 253.435 276.237 253.345 276.033 253.285C275.83 253.223 275.609 253.191 275.369 253.191C274.94 253.191 274.557 253.299 274.221 253.516C273.885 253.732 273.621 254.049 273.428 254.469C273.238 254.885 273.143 255.393 273.143 255.992C273.143 256.596 273.238 257.108 273.428 257.527C273.618 257.947 273.882 258.266 274.221 258.484C274.559 258.701 274.953 258.809 275.401 258.809C275.807 258.809 276.158 258.73 276.455 258.574C276.755 258.418 276.985 258.197 277.147 257.91C277.308 257.621 277.389 257.283 277.389 256.895L277.717 256.945H275.545V255.812H278.791V256.773C278.791 257.458 278.645 258.051 278.354 258.551C278.062 259.051 277.661 259.436 277.151 259.707C276.64 259.975 276.054 260.109 275.393 260.109C274.656 260.109 274.009 259.944 273.451 259.613C272.897 259.28 272.463 258.807 272.151 258.195C271.841 257.581 271.686 256.852 271.686 256.008C271.686 255.362 271.777 254.785 271.959 254.277C272.144 253.77 272.402 253.339 272.733 252.984C273.063 252.628 273.451 252.357 273.897 252.172C274.342 251.984 274.826 251.891 275.35 251.891C275.793 251.891 276.205 251.956 276.588 252.086C276.971 252.214 277.311 252.396 277.608 252.633C277.907 252.87 278.153 253.151 278.346 253.477C278.539 253.802 278.665 254.161 278.725 254.555H277.248ZM282.393 260V252H287.596V253.215H283.842V255.387H287.326V256.602H283.842V258.785H287.627V260H282.393ZM297.848 252V260H296.559L292.79 254.551H292.723V260H291.274V252H292.571L296.337 257.453H296.407V252H297.848ZM308.475 254.699H307.014C306.973 254.46 306.896 254.247 306.784 254.062C306.672 253.875 306.532 253.716 306.366 253.586C306.199 253.456 306.009 253.358 305.796 253.293C305.585 253.225 305.357 253.191 305.112 253.191C304.677 253.191 304.292 253.301 303.956 253.52C303.62 253.736 303.357 254.053 303.167 254.473C302.976 254.889 302.881 255.398 302.881 256C302.881 256.612 302.976 257.128 303.167 257.547C303.359 257.964 303.622 258.279 303.956 258.492C304.292 258.703 304.676 258.809 305.108 258.809C305.348 258.809 305.572 258.777 305.78 258.715C305.991 258.65 306.18 258.555 306.346 258.43C306.516 258.305 306.657 258.151 306.772 257.969C306.889 257.786 306.97 257.578 307.014 257.344L308.475 257.352C308.421 257.732 308.302 258.089 308.12 258.422C307.94 258.755 307.704 259.049 307.413 259.305C307.121 259.557 306.78 259.755 306.389 259.898C305.999 260.039 305.565 260.109 305.088 260.109C304.385 260.109 303.758 259.947 303.206 259.621C302.654 259.296 302.219 258.826 301.901 258.211C301.583 257.596 301.424 256.859 301.424 256C301.424 255.138 301.585 254.401 301.905 253.789C302.225 253.174 302.661 252.704 303.213 252.379C303.766 252.053 304.391 251.891 305.088 251.891C305.534 251.891 305.948 251.953 306.331 252.078C306.713 252.203 307.055 252.387 307.354 252.629C307.654 252.868 307.9 253.163 308.092 253.512C308.288 253.858 308.415 254.254 308.475 254.699ZM312.002 260V252H317.205V253.215H313.452V255.387H316.936V256.602H313.452V258.785H317.237V260H312.002Z" fill="white"/>
<path d="M195 302C195 299.239 197.239 297 200 297H333C335.761 297 338 299.239 338 302V328C338 330.761 335.761 333 333 333H200C197.239 333 195 330.761 195 328V302Z" fill="#222222"/>
<path d="M195 302C195 299.239 197.239 297 200 297H333C335.761 297 338 299.239 338 302V328C338 330.761 335.761 333 333 333H200C197.239 333 195 330.761 195 328V302Z" fill="#222222"/>
<path d="M214.364 313.199C214.327 312.858 214.173 312.592 213.903 312.402C213.634 312.212 213.285 312.117 212.856 312.117C212.554 312.117 212.295 312.163 212.078 312.254C211.862 312.345 211.697 312.469 211.582 312.625C211.468 312.781 211.409 312.96 211.407 313.16C211.407 313.327 211.444 313.471 211.52 313.594C211.598 313.716 211.703 313.82 211.836 313.906C211.969 313.99 212.116 314.06 212.278 314.117C212.439 314.174 212.602 314.223 212.766 314.262L213.516 314.449C213.818 314.52 214.108 314.615 214.387 314.734C214.668 314.854 214.92 315.005 215.141 315.188C215.365 315.37 215.542 315.59 215.672 315.848C215.802 316.105 215.867 316.408 215.867 316.754C215.867 317.223 215.748 317.635 215.508 317.992C215.269 318.346 214.922 318.624 214.469 318.824C214.019 319.022 213.473 319.121 212.832 319.121C212.21 319.121 211.67 319.025 211.211 318.832C210.756 318.639 210.399 318.358 210.141 317.988C209.886 317.618 209.748 317.168 209.727 316.637H211.153C211.173 316.915 211.259 317.147 211.41 317.332C211.561 317.517 211.758 317.655 212 317.746C212.245 317.837 212.519 317.883 212.821 317.883C213.136 317.883 213.412 317.836 213.649 317.742C213.888 317.646 214.076 317.513 214.211 317.344C214.347 317.172 214.416 316.971 214.418 316.742C214.416 316.534 214.354 316.362 214.235 316.227C214.115 316.089 213.947 315.974 213.731 315.883C213.517 315.789 213.267 315.706 212.981 315.633L212.071 315.398C211.412 315.229 210.891 314.973 210.508 314.629C210.128 314.283 209.938 313.823 209.938 313.25C209.938 312.779 210.065 312.366 210.321 312.012C210.578 311.658 210.929 311.383 211.371 311.187C211.814 310.99 212.315 310.891 212.875 310.891C213.443 310.891 213.94 310.99 214.367 311.187C214.797 311.383 215.134 311.655 215.379 312.004C215.624 312.35 215.75 312.749 215.758 313.199H214.364ZM220.809 311L220.809 319H219.359L219.359 311H220.809ZM224.578 311L226.351 311L228.726 316.797H228.82L231.195 311H232.969L232.969 319H231.578L231.578 313.504H231.504L229.293 318.977H228.254L226.043 313.492H225.969L225.969 319H224.578L224.578 311ZM236.747 319L236.747 311H239.747C240.361 311 240.877 311.115 241.294 311.344C241.713 311.573 242.029 311.888 242.243 312.289C242.459 312.687 242.567 313.141 242.567 313.648C242.567 314.161 242.459 314.617 242.243 315.016C242.027 315.414 241.708 315.728 241.286 315.957C240.864 316.184 240.344 316.297 239.727 316.297H237.739V315.105H239.532C239.891 315.105 240.186 315.043 240.415 314.918C240.644 314.793 240.813 314.621 240.923 314.402C241.035 314.184 241.091 313.932 241.091 313.648C241.091 313.365 241.035 313.115 240.923 312.898C240.813 312.682 240.643 312.514 240.411 312.395C240.182 312.272 239.886 312.211 239.524 312.211H238.196L238.196 319H236.747ZM246.026 319L246.026 311H247.475V317.785H250.999L250.999 319H246.026ZM255.906 311L255.906 319H254.456L254.456 311H255.906ZM259.675 319V311H264.8V312.215H261.124V314.387H264.448V315.602H261.124V319H259.675ZM269.769 311V319H268.32V311H269.769ZM280.386 313.699H278.925C278.884 313.46 278.807 313.247 278.695 313.062C278.583 312.875 278.444 312.716 278.277 312.586C278.11 312.456 277.92 312.358 277.707 312.293C277.496 312.225 277.268 312.191 277.023 312.191C276.588 312.191 276.203 312.301 275.867 312.52C275.531 312.736 275.268 313.053 275.078 313.473C274.888 313.889 274.793 314.398 274.793 315C274.793 315.612 274.888 316.128 275.078 316.547C275.271 316.964 275.534 317.279 275.867 317.492C276.203 317.703 276.587 317.809 277.019 317.809C277.259 317.809 277.483 317.777 277.691 317.715C277.902 317.65 278.091 317.555 278.258 317.43C278.427 317.305 278.569 317.151 278.683 316.969C278.8 316.786 278.881 316.578 278.925 316.344L280.386 316.352C280.332 316.732 280.213 317.089 280.031 317.422C279.851 317.755 279.616 318.049 279.324 318.305C279.032 318.557 278.691 318.755 278.3 318.898C277.91 319.039 277.476 319.109 277 319.109C276.297 319.109 275.669 318.947 275.117 318.621C274.565 318.296 274.13 317.826 273.812 317.211C273.494 316.596 273.336 315.859 273.336 315C273.336 314.138 273.496 313.401 273.816 312.789C274.136 312.174 274.573 311.704 275.125 311.379C275.677 311.053 276.302 310.891 277 310.891C277.445 310.891 277.859 310.953 278.242 311.078C278.625 311.203 278.966 311.387 279.265 311.629C279.565 311.868 279.811 312.163 280.004 312.512C280.199 312.858 280.327 313.254 280.386 313.699ZM284.844 319H283.297L286.114 311H287.903L290.723 319H289.176L287.04 312.641H286.977L284.844 319ZM284.895 315.863H289.114V317.027H284.895V315.863ZM292.658 312.215V311H299.041V312.215H296.569V319H295.131V312.215H292.658ZM303.921 311V319H302.472V311H303.921ZM314.839 315C314.839 315.862 314.677 316.6 314.354 317.215C314.034 317.827 313.597 318.296 313.042 318.621C312.49 318.947 311.864 319.109 311.163 319.109C310.462 319.109 309.835 318.947 309.28 318.621C308.728 318.293 308.291 317.823 307.968 317.211C307.647 316.596 307.487 315.859 307.487 315C307.487 314.138 307.647 313.401 307.968 312.789C308.291 312.174 308.728 311.704 309.28 311.379C309.835 311.053 310.462 310.891 311.163 310.891C311.864 310.891 312.49 311.053 313.042 311.379C313.597 311.704 314.034 312.174 314.354 312.789C314.677 313.401 314.839 314.138 314.839 315ZM313.382 315C313.382 314.393 313.287 313.882 313.097 313.465C312.909 313.046 312.649 312.729 312.315 312.516C311.982 312.299 311.598 312.191 311.163 312.191C310.728 312.191 310.344 312.299 310.011 312.516C309.677 312.729 309.416 313.046 309.225 313.465C309.038 313.882 308.944 314.393 308.944 315C308.944 315.607 309.038 316.12 309.225 316.539C309.416 316.956 309.677 317.272 310.011 317.488C310.344 317.702 310.728 317.809 311.163 317.809C311.598 317.809 311.982 317.702 312.315 317.488C312.649 317.272 312.909 316.956 313.097 316.539C313.287 316.12 313.382 315.607 313.382 315ZM324.983 311V319L323.694 319L319.925 313.551H319.858V319H318.409V311H319.706L323.471 316.453H323.542V311L324.983 311Z" fill="white"/>
<ellipse cx="168.5" cy="39" rx="11.5" ry="11" fill="#D1D1D1"/>
<defs>
<linearGradient id="paint0_linear" x1="69.5" y1="109" x2="69.5" y2="460" gradientUnits="userSpaceOnUse">
<stop stop-color="#7FC591" stop-opacity="0.4"/>
<stop offset="1" stop-color="#7FC591" stop-opacity="0"/>
</linearGradient>
<linearGradient id="paint1_linear" x1="69.5" y1="109" x2="69.5" y2="460" gradientUnits="userSpaceOnUse">
<stop stop-color="#7FC591" stop-opacity="0.4"/>
<stop offset="1" stop-color="#7FC591" stop-opacity="0"/>
</linearGradient>
<linearGradient id="paint2_linear" x1="168.5" y1="37" x2="168.5" y2="543" gradientUnits="userSpaceOnUse">
<stop stop-color="#BFBFBF" stop-opacity="0.4"/>
<stop offset="1" stop-color="#222222" stop-opacity="0"/>
</linearGradient>
<linearGradient id="paint3_linear" x1="265" y1="427" x2="265" y2="76" gradientUnits="userSpaceOnUse">
<stop stop-color="#CD4358" stop-opacity="0.4"/>
<stop offset="1" stop-color="#CD4358" stop-opacity="0"/>
</linearGradient>
</defs>
</svg>
