<svg width="51" height="223" viewBox="0 0 51 223" fill="none" xmlns="http://www.w3.org/2000/svg">
<path d="M10 128C10 125.239 12.2386 123 15 123H32C34.7614 123 37 125.239 37 128V154C37 156.761 34.7614 159 32 159H15C12.2386 159 10 156.761 10 154V128Z" fill="#222222"/>
<path d="M3 138.75C1.75736 138.75 0.75 139.757 0.75 141C0.75 142.243 1.75736 143.25 3 143.25C4.24264 143.25 5.25 142.243 5.25 141C5.25 139.757 4.24264 138.75 3 138.75Z" fill="white" stroke="#222222" stroke-width="1.5"/>
<path d="M45 138.75C43.7574 138.75 42.75 139.757 42.75 141C42.75 142.243 43.7574 143.25 45 143.25C46.2426 143.25 47.25 142.243 47.25 141C47.25 139.757 46.2426 138.75 45 138.75Z" fill="white" stroke="white" stroke-width="1.5"/>
<path fill-rule="evenodd" clip-rule="evenodd" d="M-1.43059e-07 131C-9.03934e-08 129.343 1.34315 128 3 128C4.65685 128 6 129.343 6 131C6 132.657 4.65685 134 3 134C1.34315 134 -1.95725e-07 132.657 -1.43059e-07 131Z" fill="#7FC591"/>
<path d="M3 147.75C1.75736 147.75 0.75 148.757 0.75 150C0.75 151.243 1.75736 152.25 3 152.25C4.24264 152.25 5.25 151.243 5.25 150C5.25 148.757 4.24264 147.75 3 147.75Z" fill="white" stroke="#222222" stroke-width="1.5"/>
<path d="M10 128C10 125.239 12.2386 123 15 123H32C34.7614 123 37 125.239 37 128V154C37 156.761 34.7614 159 32 159H15C12.2386 159 10 156.761 10 154V128Z" fill="#222222"/>
<path fill-rule="evenodd" clip-rule="evenodd" d="M-1.43059e-07 141C-9.03934e-08 139.343 1.34315 138 3 138C4.65685 138 6 139.343 6 141C6 142.657 4.65685 144 3 144C1.34315 144 -1.95725e-07 142.657 -1.43059e-07 141Z" fill="#7FC591"/>
<path fill-rule="evenodd" clip-rule="evenodd" d="M-1.43059e-07 150C-9.03934e-08 148.343 1.34315 147 3 147C4.65685 147 6 148.343 6 150C6 151.657 4.65685 153 3 153C1.34315 153 -1.95725e-07 151.657 -1.43059e-07 150Z" fill="#7FC591"/>
<path d="M48 139.75C46.7574 139.75 45.75 140.757 45.75 142C45.75 143.243 46.7574 144.25 48 144.25C49.2426 144.25 50.25 143.243 50.25 142C50.25 140.757 49.2426 139.75 48 139.75Z" fill="white" stroke="white" stroke-width="1.5"/>
<line x1="23.5" y1="-2.15617e-08" x2="23.5" y2="223" stroke="url(#paint0_linear)"/>
<defs>
<linearGradient id="paint0_linear" x1="23" y1="260.558" x2="23" y2="-57.2986" gradientUnits="userSpaceOnUse">
<stop offset="0.132007" stop-color="#222222" stop-opacity="0"/>
<stop offset="0.289621" stop-color="#222222"/>
<stop offset="0.390625" stop-color="#222222"/>
<stop offset="0.435913" stop-color="#222222"/>
<stop offset="0.791667" stop-color="#222222" stop-opacity="0"/>
</linearGradient>
</defs>
</svg>
