<svg width="1260" height="682" viewBox="0 0 1260 682" fill="none" xmlns="http://www.w3.org/2000/svg">
<path d="M1174.22 524.364L1177.25 533.523H1177.37L1180.39 524.364H1182.71L1178.61 536H1176.01L1171.91 524.364H1174.22ZM1187.44 536V524.364H1191.81C1192.7 524.364 1193.45 524.519 1194.06 524.83C1194.67 525.14 1195.13 525.576 1195.44 526.136C1195.75 526.693 1195.91 527.343 1195.91 528.085C1195.91 528.831 1195.75 529.479 1195.43 530.028C1195.12 530.574 1194.65 530.996 1194.04 531.295C1193.43 531.591 1192.67 531.739 1191.78 531.739H1188.67V529.989H1191.5C1192.02 529.989 1192.45 529.917 1192.78 529.773C1193.11 529.625 1193.36 529.411 1193.52 529.131C1193.68 528.847 1193.76 528.498 1193.76 528.085C1193.76 527.672 1193.68 527.32 1193.52 527.028C1193.36 526.733 1193.11 526.509 1192.77 526.358C1192.44 526.203 1192.01 526.125 1191.48 526.125H1189.55V536H1187.44ZM1193.46 530.727L1196.34 536H1193.98L1191.15 530.727H1193.46ZM1203.16 524.364V536H1201.05V524.364H1203.16ZM1213.23 524.364H1215.32V532.545C1215.32 533.295 1215.16 533.941 1214.85 534.483C1214.53 535.021 1214.09 535.436 1213.53 535.727C1212.97 536.015 1212.31 536.159 1211.57 536.159C1210.89 536.159 1210.27 536.038 1209.73 535.795C1209.19 535.549 1208.76 535.186 1208.44 534.705C1208.12 534.223 1207.96 533.625 1207.96 532.909H1210.06C1210.06 533.223 1210.13 533.494 1210.26 533.722C1210.4 533.949 1210.58 534.123 1210.82 534.244C1211.06 534.366 1211.34 534.426 1211.65 534.426C1211.98 534.426 1212.27 534.356 1212.51 534.216C1212.74 534.072 1212.92 533.86 1213.04 533.58C1213.16 533.299 1213.23 532.955 1213.23 532.545V524.364ZM1220.81 536V524.364H1228.38V526.131H1222.92V529.29H1227.99V531.057H1222.92V534.233H1228.42V536H1220.81ZM1233.73 524.364H1236.31L1239.76 532.795H1239.9L1243.35 524.364H1245.93V536H1243.91V528.006H1243.8L1240.59 535.966H1239.08L1235.86 527.989H1235.75V536H1233.73V524.364ZM1251.43 536V524.364H1259V526.131H1253.54V529.29H1258.61V531.057H1253.54V534.233H1259.04V536H1251.43Z" fill="#363145"/>
<path d="M3 576.74C1.75736 576.74 0.75 577.747 0.75 578.99C0.75 580.233 1.75736 581.24 3 581.24C4.24264 581.24 5.25 580.233 5.25 578.99C5.25 577.747 4.24264 576.74 3 576.74Z" fill="white" stroke="white" stroke-width="1.5"/>
<line x1="178" y1="213.49" x2="1134" y2="213.49" stroke="#222222" stroke-opacity="0.1"/>
<path d="M231 156.49L377.5 264.99L637 285.99C637 285.99 785 321.904 927 355.49C987.841 369.88 1144 417.5 1144 417.5" stroke="#CD4358" stroke-width="3"/>
<rect x="226.5" y="251.49" width="15" height="280" fill="white"/>
<line x1="178" y1="107.49" x2="1134" y2="107.49" stroke="#222222" stroke-opacity="0.1"/>
<path d="M164 529.99L1134 529.99" stroke="#222222" stroke-width="2"/>
<path d="M165 528.99L165 65.99" stroke="#222222" stroke-width="2"/>
<line x1="178" y1="425.49" x2="1134" y2="425.49" stroke="#222222" stroke-opacity="0.1"/>
<line x1="178" y1="319.49" x2="1134" y2="319.49" stroke="#222222" stroke-opacity="0.1"/>
<path d="M13.9604 207.263L16.2317 214.132H16.3212L18.5883 207.263H20.3269L17.2502 215.99H15.2985L12.2261 207.263H13.9604ZM23.8764 215.99V207.263H29.5526V208.588H25.4574V210.957H29.2585V212.283H25.4574V214.665H29.5866V215.99H23.8764ZM41.3638 211.626C41.3638 212.567 41.1876 213.372 40.8354 214.043C40.4859 214.71 40.0087 215.222 39.4035 215.577C38.8013 215.932 38.118 216.109 37.3538 216.109C36.5896 216.109 35.905 215.932 35.2999 215.577C34.6976 215.219 34.2203 214.706 33.868 214.038C33.5186 213.368 33.3439 212.564 33.3439 211.626C33.3439 210.686 33.5186 209.882 33.868 209.214C34.2203 208.544 34.6976 208.031 35.2999 207.676C35.905 207.321 36.5896 207.143 37.3538 207.143C38.118 207.143 38.8013 207.321 39.4035 207.676C40.0087 208.031 40.4859 208.544 40.8354 209.214C41.1876 209.882 41.3638 210.686 41.3638 211.626ZM39.7743 211.626C39.7743 210.964 39.6706 210.406 39.4632 209.952C39.2587 209.494 38.9746 209.149 38.6109 208.916C38.2473 208.68 37.8283 208.562 37.3538 208.562C36.8794 208.562 36.4604 208.68 36.0967 208.916C35.7331 209.149 35.4476 209.494 35.2402 209.952C35.0357 210.406 34.9334 210.964 34.9334 211.626C34.9334 212.288 35.0357 212.848 35.2402 213.305C35.4476 213.76 35.7331 214.105 36.0967 214.341C36.4604 214.574 36.8794 214.69 37.3538 214.69C37.8283 214.69 38.2473 214.574 38.6109 214.341C38.9746 214.105 39.2587 213.76 39.4632 213.305C39.6706 212.848 39.7743 212.288 39.7743 211.626ZM45.2585 207.263H47.1931L49.784 213.587H49.8863L52.4772 207.263H54.4119V215.99H52.8948V209.994H52.8138L50.4019 215.964H49.2684L46.8565 209.981H46.7755V215.99H45.2585V207.263ZM59.6542 215.99H57.9667L61.0391 207.263H62.9908L66.0675 215.99H64.38L62.0491 209.052H61.9809L59.6542 215.99ZM59.7096 212.568H64.3119V213.838H59.7096V212.568ZM76.1612 207.263L78.4325 214.132H78.522L80.7891 207.263H82.5277L79.451 215.99H77.4993L74.4268 207.263H76.1612ZM87.6582 207.263V215.99H86.0772V207.263H87.6582ZM96.5131 209.662C96.4733 209.29 96.3057 209 96.0102 208.793C95.7176 208.585 95.3369 208.481 94.8682 208.481C94.5386 208.481 94.256 208.531 94.0202 208.631C93.7844 208.73 93.604 208.865 93.479 209.035C93.354 209.206 93.2901 209.401 93.2872 209.619C93.2872 209.801 93.3284 209.959 93.4108 210.092C93.496 210.226 93.6111 210.339 93.756 210.433C93.9008 210.524 94.0614 210.601 94.2375 210.663C94.4136 210.726 94.5912 210.778 94.7702 210.821L95.5883 211.026C95.9179 211.102 96.2347 211.206 96.5386 211.337C96.8454 211.467 97.1196 211.632 97.3611 211.831C97.6054 212.03 97.7986 212.27 97.9406 212.551C98.0827 212.832 98.1537 213.162 98.1537 213.54C98.1537 214.051 98.023 214.501 97.7616 214.891C97.5003 215.277 97.1224 215.579 96.6281 215.798C96.1366 216.014 95.5415 216.122 94.8426 216.122C94.1636 216.122 93.5741 216.017 93.0741 215.807C92.577 215.597 92.1878 215.29 91.9065 214.886C91.6281 214.483 91.4776 213.991 91.4548 213.412H93.0102C93.033 213.716 93.1267 213.969 93.2915 214.17C93.4562 214.372 93.6707 214.523 93.9349 214.622C94.202 214.722 94.5003 214.771 94.8298 214.771C95.1736 214.771 95.4747 214.72 95.7332 214.618C95.9946 214.513 96.1991 214.368 96.3469 214.183C96.4946 213.996 96.5699 213.777 96.5727 213.527C96.5699 213.3 96.5031 213.112 96.3724 212.964C96.2418 212.814 96.0585 212.689 95.8227 212.589C95.5898 212.487 95.317 212.396 95.0045 212.317L94.0116 212.061C93.2929 211.876 92.7247 211.597 92.3071 211.222C91.8923 210.844 91.6849 210.342 91.6849 209.717C91.6849 209.203 91.8241 208.753 92.1026 208.366C92.3838 207.98 92.7659 207.68 93.2489 207.467C93.7318 207.251 94.2787 207.143 94.8895 207.143C95.5088 207.143 96.0514 207.251 96.5173 207.467C96.9861 207.68 97.354 207.977 97.621 208.358C97.8881 208.736 98.0258 209.17 98.0344 209.662H96.5131ZM109.761 211.626C109.761 212.567 109.585 213.372 109.233 214.043C108.884 214.71 108.406 215.222 107.801 215.577C107.199 215.932 106.516 216.109 105.751 216.109C104.987 216.109 104.303 215.932 103.698 215.577C103.095 215.219 102.618 214.706 102.266 214.038C101.916 213.368 101.742 212.564 101.742 211.626C101.742 210.686 101.916 209.882 102.266 209.214C102.618 208.544 103.095 208.031 103.698 207.676C104.303 207.321 104.987 207.143 105.751 207.143C106.516 207.143 107.199 207.321 107.801 207.676C108.406 208.031 108.884 208.544 109.233 209.214C109.585 209.882 109.761 210.686 109.761 211.626ZM108.172 211.626C108.172 210.964 108.068 210.406 107.861 209.952C107.656 209.494 107.372 209.149 107.009 208.916C106.645 208.68 106.226 208.562 105.751 208.562C105.277 208.562 104.858 208.68 104.494 208.916C104.131 209.149 103.845 209.494 103.638 209.952C103.433 210.406 103.331 210.964 103.331 211.626C103.331 212.288 103.433 212.848 103.638 213.305C103.845 213.76 104.131 214.105 104.494 214.341C104.858 214.574 105.277 214.69 105.751 214.69C106.226 214.69 106.645 214.574 107.009 214.341C107.372 214.105 107.656 213.76 107.861 213.305C108.068 212.848 108.172 212.288 108.172 211.626ZM113.656 215.99V207.263H115.237V211.273H115.344L118.748 207.263H120.679L117.304 211.179L120.709 215.99H118.808L116.204 212.249L115.237 213.391V215.99H113.656ZM125.298 215.99H123.61L126.683 207.263H128.635L131.711 215.99H130.024L127.693 209.052H127.625L125.298 215.99ZM125.353 212.568H129.956V213.838H125.353V212.568Z" fill="#8A81A5"/>
<path d="M15.678 99.2627V107.99H14.2717L10.1595 102.045H10.0871V107.99H8.5061V99.2627H9.92088L14.0288 105.212H14.1055V99.2627H15.678ZM19.8006 107.99V99.2627H25.4768V100.588H21.3816V102.957H25.1827V104.283H21.3816V106.665H25.5109V107.99H19.8006ZM29.4897 107.99V99.2627H32.7624C33.4329 99.2627 33.9954 99.3792 34.4499 99.6121C34.9073 99.8451 35.2525 100.172 35.4854 100.592C35.7212 101.01 35.8391 101.497 35.8391 102.054C35.8391 102.614 35.7198 103.099 35.4812 103.511C35.2454 103.92 34.8974 104.237 34.4371 104.462C33.9769 104.683 33.4116 104.794 32.7411 104.794H30.4102V103.481H32.5281C32.9201 103.481 33.2411 103.427 33.4911 103.32C33.7411 103.209 33.9258 103.048 34.0451 102.838C34.1673 102.625 34.2283 102.364 34.2283 102.054C34.2283 101.744 34.1673 101.48 34.0451 101.261C33.9229 101.04 33.7369 100.872 33.4869 100.758C33.2369 100.642 32.9144 100.584 32.5195 100.584H31.0707V107.99H29.4897ZM33.9982 104.035L36.1587 107.99H34.3945L32.2724 104.035H33.9982ZM39.6944 107.99V99.2627H45.3705V100.588H41.2754V102.957H45.0765V104.283H41.2754V106.665H45.4046V107.99H39.6944ZM50.5042 107.99H48.8167L51.8891 99.2627H53.8408L56.9175 107.99H55.23L52.8991 101.052H52.8309L50.5042 107.99ZM50.5596 104.568H55.1619V105.838H50.5596V104.568ZM60.467 107.99V99.2627H62.048V106.665H65.8918V107.99H60.467ZM71.2449 99.2627V107.99H69.6639V99.2627H71.2449ZM80.0998 101.662C80.06 101.29 79.8924 101 79.5969 100.793C79.3043 100.585 78.9237 100.481 78.4549 100.481C78.1254 100.481 77.8427 100.531 77.6069 100.631C77.3711 100.73 77.1907 100.865 77.0657 101.035C76.9407 101.206 76.8768 101.401 76.8739 101.619C76.8739 101.801 76.9151 101.959 76.9975 102.092C77.0827 102.226 77.1978 102.339 77.3427 102.433C77.4876 102.524 77.6481 102.601 77.8242 102.663C78.0004 102.726 78.1779 102.778 78.3569 102.821L79.1751 103.026C79.5046 103.102 79.8214 103.206 80.1254 103.337C80.4322 103.467 80.7063 103.632 80.9478 103.831C81.1921 104.03 81.3853 104.27 81.5273 104.551C81.6694 104.832 81.7404 105.162 81.7404 105.54C81.7404 106.051 81.6097 106.501 81.3484 106.891C81.087 107.277 80.7092 107.579 80.2148 107.798C79.7234 108.014 79.1282 108.122 78.4293 108.122C77.7504 108.122 77.1609 108.017 76.6609 107.807C76.1637 107.597 75.7745 107.29 75.4933 106.886C75.2148 106.483 75.0643 105.991 75.0415 105.412H76.5969C76.6197 105.716 76.7134 105.969 76.8782 106.17C77.043 106.372 77.2575 106.523 77.5217 106.622C77.7887 106.722 78.087 106.771 78.4165 106.771C78.7603 106.771 79.0614 106.72 79.32 106.618C79.5813 106.513 79.7859 106.368 79.9336 106.183C80.0813 105.996 80.1566 105.777 80.1594 105.527C80.1566 105.3 80.0898 105.112 79.9592 104.964C79.8285 104.814 79.6452 104.689 79.4094 104.589C79.1765 104.487 78.9038 104.396 78.5913 104.317L77.5984 104.061C76.8796 103.876 76.3114 103.597 75.8938 103.222C75.479 102.844 75.2717 102.342 75.2717 101.717C75.2717 101.203 75.4109 100.753 75.6893 100.366C75.9705 99.98 76.3526 99.6803 76.8356 99.4673C77.3185 99.2514 77.8654 99.1434 78.4762 99.1434C79.0955 99.1434 79.6381 99.2514 80.104 99.4673C80.5728 99.6803 80.9407 99.9772 81.2077 100.358C81.4748 100.736 81.6126 101.17 81.6211 101.662H80.0998ZM85.1663 100.588V99.2627H92.1294V100.588H89.432V107.99H87.8638V100.588H85.1663ZM97.4527 99.2627V107.99H95.8717V99.2627H97.4527ZM109.035 102.207H107.441C107.396 101.946 107.312 101.714 107.19 101.513C107.068 101.308 106.916 101.135 106.734 100.993C106.552 100.851 106.345 100.744 106.112 100.673C105.881 100.599 105.633 100.562 105.366 100.562C104.891 100.562 104.471 100.682 104.104 100.92C103.738 101.156 103.451 101.503 103.244 101.96C103.036 102.415 102.933 102.97 102.933 103.626C102.933 104.294 103.036 104.856 103.244 105.314C103.454 105.768 103.741 106.112 104.104 106.345C104.471 106.575 104.89 106.69 105.362 106.69C105.623 106.69 105.867 106.656 106.095 106.588C106.325 106.517 106.531 106.413 106.712 106.277C106.897 106.141 107.052 105.973 107.177 105.774C107.305 105.575 107.393 105.348 107.441 105.092L109.035 105.101C108.975 105.516 108.846 105.905 108.647 106.268C108.451 106.632 108.194 106.953 107.876 107.231C107.558 107.507 107.185 107.723 106.759 107.879C106.333 108.033 105.86 108.109 105.34 108.109C104.573 108.109 103.889 107.932 103.286 107.577C102.684 107.222 102.21 106.709 101.863 106.038C101.516 105.368 101.343 104.564 101.343 103.626C101.343 102.686 101.518 101.882 101.867 101.214C102.217 100.544 102.693 100.031 103.295 99.6761C103.897 99.321 104.579 99.1434 105.34 99.1434C105.826 99.1434 106.278 99.2116 106.695 99.3479C107.113 99.4843 107.485 99.6846 107.812 99.9488C108.139 100.21 108.407 100.531 108.617 100.912C108.83 101.29 108.97 101.722 109.035 102.207ZM104.475 96.5781L105.34 97.669L106.205 96.5781H107.556V96.6377L105.945 98.4786H104.739L103.124 96.6377V96.5781H104.475ZM120.055 99.2627V107.99H118.648L114.536 102.045H114.464V107.99H112.883V99.2627H114.297L118.405 105.212H118.482V99.2627H120.055ZM125.298 107.99H123.61L126.683 99.2627H128.635L131.711 107.99H130.024L127.693 101.052H127.625L125.298 107.99ZM125.353 104.568H129.956V105.838H125.353V104.568Z" fill="#8A81A5"/>
<path d="M76.1612 310.263L78.4325 317.132H78.522L80.7891 310.263H82.5277L79.451 318.99H77.4993L74.4268 310.263H76.1612ZM87.6582 310.263V318.99H86.0772V310.263H87.6582ZM96.5131 312.662C96.4733 312.29 96.3057 312 96.0102 311.793C95.7176 311.585 95.3369 311.481 94.8682 311.481C94.5386 311.481 94.256 311.531 94.0202 311.631C93.7844 311.73 93.604 311.865 93.479 312.035C93.354 312.206 93.2901 312.401 93.2872 312.619C93.2872 312.801 93.3284 312.959 93.4108 313.092C93.496 313.226 93.6111 313.339 93.756 313.433C93.9009 313.524 94.0614 313.601 94.2375 313.663C94.4136 313.726 94.5912 313.778 94.7702 313.821L95.5884 314.026C95.9179 314.102 96.2347 314.206 96.5386 314.337C96.8455 314.467 97.1196 314.632 97.3611 314.831C97.6054 315.03 97.7986 315.27 97.9406 315.551C98.0827 315.832 98.1537 316.162 98.1537 316.54C98.1537 317.051 98.023 317.501 97.7617 317.891C97.5003 318.277 97.1224 318.579 96.6281 318.798C96.1367 319.014 95.5415 319.122 94.8426 319.122C94.1636 319.122 93.5742 319.017 93.0742 318.807C92.577 318.597 92.1878 318.29 91.9065 317.886C91.6281 317.483 91.4776 316.991 91.4548 316.412H93.0102C93.033 316.716 93.1267 316.969 93.2915 317.17C93.4563 317.372 93.6707 317.523 93.9349 317.622C94.202 317.722 94.5003 317.771 94.8298 317.771C95.1736 317.771 95.4747 317.72 95.7332 317.618C95.9946 317.513 96.1992 317.368 96.3469 317.183C96.4946 316.996 96.5699 316.777 96.5727 316.527C96.5699 316.3 96.5031 316.112 96.3724 315.964C96.2418 315.814 96.0585 315.689 95.8227 315.589C95.5898 315.487 95.317 315.396 95.0045 315.317L94.0117 315.061C93.2929 314.876 92.7247 314.597 92.3071 314.222C91.8923 313.844 91.6849 313.342 91.6849 312.717C91.6849 312.203 91.8242 311.753 92.1026 311.366C92.3838 310.98 92.7659 310.68 93.2489 310.467C93.7318 310.251 94.2787 310.143 94.8895 310.143C95.5088 310.143 96.0514 310.251 96.5173 310.467C96.9861 310.68 97.354 310.977 97.621 311.358C97.8881 311.736 98.0259 312.17 98.0344 312.662H96.5131ZM109.761 314.626C109.761 315.567 109.585 316.372 109.233 317.043C108.884 317.71 108.406 318.222 107.801 318.577C107.199 318.932 106.516 319.109 105.751 319.109C104.987 319.109 104.303 318.932 103.698 318.577C103.095 318.219 102.618 317.706 102.266 317.038C101.916 316.368 101.742 315.564 101.742 314.626C101.742 313.686 101.916 312.882 102.266 312.214C102.618 311.544 103.095 311.031 103.698 310.676C104.303 310.321 104.987 310.143 105.751 310.143C106.516 310.143 107.199 310.321 107.801 310.676C108.406 311.031 108.884 311.544 109.233 312.214C109.585 312.882 109.761 313.686 109.761 314.626ZM108.172 314.626C108.172 313.964 108.068 313.406 107.861 312.952C107.656 312.494 107.372 312.149 107.009 311.916C106.645 311.68 106.226 311.562 105.751 311.562C105.277 311.562 104.858 311.68 104.494 311.916C104.131 312.149 103.845 312.494 103.638 312.952C103.433 313.406 103.331 313.964 103.331 314.626C103.331 315.288 103.433 315.848 103.638 316.305C103.845 316.76 104.131 317.105 104.494 317.341C104.858 317.574 105.277 317.69 105.751 317.69C106.226 317.69 106.645 317.574 107.009 317.341C107.372 317.105 107.656 316.76 107.861 316.305C108.068 315.848 108.172 315.288 108.172 314.626ZM113.656 318.99V310.263H115.237V314.273H115.344L118.748 310.263H120.679L117.304 314.179L120.709 318.99H118.808L116.204 315.249L115.237 316.391V318.99H113.656ZM125.298 318.99H123.61L126.683 310.263H128.635L131.711 318.99H130.024L127.693 312.052H127.625L125.298 318.99ZM125.353 315.568H129.956V316.838H125.353V315.568Z" fill="#8A81A5"/>
<path d="M55.1989 415.263H56.7799V420.964C56.7799 421.589 56.6322 422.139 56.3367 422.614C56.0441 423.088 55.6322 423.459 55.1009 423.726C54.5697 423.99 53.9489 424.122 53.2387 424.122C52.5256 424.122 51.9035 423.99 51.3722 423.726C50.841 423.459 50.429 423.088 50.1364 422.614C49.8438 422.139 49.6975 421.589 49.6975 420.964V415.263H51.2785V420.832C51.2785 421.196 51.358 421.52 51.5171 421.804C51.679 422.088 51.9063 422.311 52.1989 422.473C52.4915 422.632 52.8381 422.712 53.2387 422.712C53.6393 422.712 53.9859 422.632 54.2785 422.473C54.5739 422.311 54.8012 422.088 54.9603 421.804C55.1194 421.52 55.1989 421.196 55.1989 420.832V415.263ZM60.8983 415.263H62.833L65.4239 421.587H65.5261L68.117 415.263H70.0517V423.99H68.5347V417.994H68.4537L66.0418 423.964H64.9082L62.4963 417.981H62.4153V423.99H60.8983V415.263ZM77.6165 415.263H79.1847V421.399C79.1818 421.962 79.0625 422.446 78.8267 422.852C78.5909 423.256 78.2614 423.567 77.8381 423.785C77.4176 424.001 76.9276 424.109 76.3679 424.109C75.8565 424.109 75.3963 424.018 74.9872 423.837C74.581 423.652 74.2585 423.379 74.0199 423.018C73.7813 422.658 73.6619 422.209 73.6619 421.672H75.2344C75.2372 421.908 75.2884 422.111 75.3878 422.281C75.4901 422.452 75.6307 422.582 75.8097 422.673C75.9886 422.764 76.1946 422.81 76.4276 422.81C76.6804 422.81 76.8949 422.757 77.071 422.652C77.2472 422.544 77.3807 422.385 77.4716 422.175C77.5653 421.964 77.6136 421.706 77.6165 421.399V415.263ZM83.2999 423.99V415.263H88.976V416.588H84.8808V418.957H88.682V420.283H84.8808V422.665H89.0101V423.99H83.2999ZM92.9889 423.99V415.263H96.2616C96.9321 415.263 97.4946 415.379 97.9491 415.612C98.4065 415.845 98.7517 416.172 98.9847 416.592C99.2205 417.01 99.3383 417.497 99.3383 418.054C99.3383 418.614 99.219 419.099 98.9804 419.511C98.7446 419.92 98.3966 420.237 97.9364 420.462C97.4761 420.683 96.9108 420.794 96.2403 420.794H93.9094V419.481H96.0273C96.4193 419.481 96.7403 419.427 96.9903 419.32C97.2403 419.209 97.425 419.048 97.5443 418.838C97.6665 418.625 97.7276 418.364 97.7276 418.054C97.7276 417.744 97.6665 417.48 97.5443 417.261C97.4222 417.04 97.2361 416.872 96.9861 416.758C96.7361 416.642 96.4136 416.584 96.0187 416.584H94.5699V423.99H92.9889ZM97.4974 420.035L99.658 423.99H97.8937L95.7716 420.035H97.4974ZM103.194 423.99V415.263H108.87V416.588H104.775V418.957H108.576V420.283H104.775V422.665H108.904V423.99H103.194ZM120.055 415.263V423.99H118.648L114.536 418.045H114.464V423.99H112.883V415.263H114.297L118.405 421.212H118.482V415.263H120.055ZM125.298 423.99H123.61L126.683 415.263H128.635L131.711 423.99H130.024L127.693 417.052H127.625L125.298 423.99ZM125.353 420.568H129.956V421.838H125.353V420.568Z" fill="#8A81A5"/>
<path d="M93.6475 518.263V526.99H92.2413L88.129 521.045H88.0566V526.99H86.4756V518.263H87.8904L91.9984 524.212H92.0751V518.263H93.6475ZM99.3511 518.263V526.99H97.7702V518.263H99.3511ZM108.206 520.662C108.166 520.29 107.999 520 107.703 519.793C107.411 519.585 107.03 519.481 106.561 519.481C106.232 519.481 105.949 519.531 105.713 519.631C105.477 519.73 105.297 519.865 105.172 520.035C105.047 520.206 104.983 520.401 104.98 520.619C104.98 520.801 105.021 520.959 105.104 521.092C105.189 521.226 105.304 521.339 105.449 521.433C105.594 521.524 105.754 521.601 105.93 521.663C106.107 521.726 106.284 521.778 106.463 521.821L107.281 522.026C107.611 522.102 107.928 522.206 108.232 522.337C108.538 522.467 108.813 522.632 109.054 522.831C109.298 523.03 109.492 523.27 109.634 523.551C109.776 523.832 109.847 524.162 109.847 524.54C109.847 525.051 109.716 525.501 109.455 525.891C109.193 526.277 108.815 526.579 108.321 526.798C107.83 527.014 107.234 527.122 106.536 527.122C105.857 527.122 105.267 527.017 104.767 526.807C104.27 526.597 103.881 526.29 103.599 525.886C103.321 525.483 103.171 524.991 103.148 524.412H104.703C104.726 524.716 104.82 524.969 104.984 525.17C105.149 525.372 105.364 525.523 105.628 525.622C105.895 525.722 106.193 525.771 106.523 525.771C106.867 525.771 107.168 525.72 107.426 525.618C107.688 525.513 107.892 525.368 108.04 525.183C108.188 524.996 108.263 524.777 108.266 524.527C108.263 524.3 108.196 524.112 108.065 523.964C107.935 523.814 107.751 523.689 107.516 523.589C107.283 523.487 107.01 523.396 106.698 523.317L105.705 523.061C104.986 522.876 104.418 522.597 104 522.222C103.585 521.844 103.378 521.342 103.378 520.717C103.378 520.203 103.517 519.753 103.796 519.366C104.077 518.98 104.459 518.68 104.942 518.467C105.425 518.251 105.972 518.143 106.582 518.143C107.202 518.143 107.744 518.251 108.21 518.467C108.679 518.68 109.047 518.977 109.314 519.358C109.581 519.736 109.719 520.17 109.727 520.662H108.206ZM113.656 526.99V518.263H115.237V522.273H115.344L118.748 518.263H120.679L117.304 522.179L120.709 526.99H118.808L116.204 523.249L115.237 524.391V526.99H113.656ZM125.298 526.99H123.61L126.683 518.263H128.635L131.711 526.99H130.024L127.693 520.052H127.625L125.298 526.99ZM125.353 523.568H129.956V524.838H125.353V523.568Z" fill="#8A81A5"/>
<path d="M600.165 150.99V149.349L607.622 138.653H600.122V136.445H610.889V138.085L603.439 148.781H610.932V150.99H600.165ZM619.349 150.99H616.537L621.658 136.445H624.911L630.038 150.99H627.226L623.341 139.427H623.227L619.349 150.99ZM619.442 145.287H627.112V147.403H619.442V145.287ZM636.24 136.445L640.026 147.893H640.175L643.953 136.445H646.851L641.723 150.99H638.47L633.349 136.445H636.24ZM652.767 150.99V136.445H658.221C659.339 136.445 660.276 136.639 661.034 137.027C661.796 137.415 662.371 137.96 662.76 138.66C663.153 139.356 663.349 140.168 663.349 141.097C663.349 142.029 663.15 142.839 662.752 143.526C662.359 144.207 661.779 144.735 661.012 145.109C660.245 145.479 659.303 145.663 658.186 145.663H654.301V143.476H657.831C658.484 143.476 659.019 143.386 659.436 143.206C659.852 143.021 660.16 142.754 660.359 142.403C660.563 142.048 660.664 141.613 660.664 141.097C660.664 140.58 660.563 140.14 660.359 139.776C660.155 139.406 659.845 139.127 659.429 138.937C659.012 138.743 658.475 138.646 657.816 138.646H655.402V150.99H652.767ZM660.281 144.399L663.882 150.99H660.941L657.404 144.399H660.281ZM677.679 140.443C677.613 139.823 677.334 139.34 676.841 138.994C676.354 138.649 675.719 138.476 674.938 138.476C674.389 138.476 673.917 138.559 673.525 138.724C673.132 138.89 672.831 139.115 672.623 139.399C672.414 139.683 672.308 140.008 672.303 140.372C672.303 140.675 672.372 140.938 672.509 141.16C672.651 141.383 672.843 141.572 673.084 141.729C673.326 141.88 673.593 142.008 673.887 142.112C674.18 142.216 674.476 142.304 674.775 142.375L676.138 142.716C676.687 142.844 677.215 143.017 677.722 143.234C678.233 143.452 678.69 143.727 679.093 144.058C679.5 144.39 679.822 144.79 680.059 145.258C680.295 145.727 680.414 146.276 680.414 146.906C680.414 147.758 680.196 148.509 679.76 149.158C679.325 149.802 678.695 150.306 677.871 150.67C677.052 151.03 676.06 151.21 674.895 151.21C673.764 151.21 672.781 151.035 671.948 150.685C671.119 150.334 670.471 149.823 670.002 149.151C669.538 148.478 669.287 147.659 669.249 146.693H671.841C671.879 147.2 672.035 147.621 672.31 147.957C672.585 148.293 672.942 148.544 673.382 148.71C673.828 148.876 674.325 148.959 674.874 148.959C675.447 148.959 675.949 148.874 676.38 148.703C676.815 148.528 677.156 148.286 677.402 147.979C677.649 147.666 677.774 147.302 677.779 146.885C677.774 146.506 677.663 146.194 677.445 145.947C677.227 145.696 676.922 145.488 676.529 145.322C676.141 145.152 675.686 145 675.165 144.868L673.51 144.442C672.312 144.134 671.365 143.668 670.669 143.043C669.978 142.413 669.632 141.577 669.632 140.535C669.632 139.678 669.864 138.928 670.328 138.284C670.797 137.64 671.434 137.141 672.239 136.785C673.044 136.426 673.955 136.246 674.973 136.246C676.006 136.246 676.91 136.426 677.686 136.785C678.468 137.141 679.081 137.635 679.526 138.27C679.971 138.9 680.201 139.624 680.215 140.443H677.679ZM673.382 131.97L674.824 133.788L676.266 131.97H678.517V132.07L675.833 135.138H673.823L671.131 132.07V131.97H673.382ZM686.763 150.99V136.445H696.223V138.653H689.398V142.602H695.733V144.811H689.398V148.781H696.28V150.99H686.763ZM714.864 136.445V150.99H712.521L705.667 141.082H705.546V150.99H702.911V136.445H705.269L712.116 146.359H712.244V136.445H714.864ZM723.603 150.99H720.791L725.912 136.445H729.164L734.292 150.99H731.48L727.595 139.427H727.481L723.603 150.99ZM723.696 145.287H731.366V147.403H723.696V145.287ZM603.07 160.445V174.99H600.435V160.445H603.07ZM609.923 160.445H613.147L617.466 170.984H617.636L621.954 160.445H625.179V174.99H622.65V164.997H622.515L618.495 174.947H616.606L612.586 164.976H612.451V174.99H609.923V160.445ZM632.048 174.99V160.445H637.502C638.62 160.445 639.557 160.653 640.315 161.07C641.077 161.486 641.653 162.059 642.041 162.788C642.434 163.513 642.63 164.337 642.63 165.26C642.63 166.193 642.434 167.021 642.041 167.746C641.648 168.47 641.068 169.041 640.301 169.457C639.534 169.869 638.589 170.075 637.467 170.075H633.852V167.909H637.112C637.765 167.909 638.3 167.795 638.717 167.568C639.134 167.341 639.441 167.028 639.64 166.631C639.844 166.233 639.946 165.776 639.946 165.26C639.946 164.744 639.844 164.289 639.64 163.896C639.441 163.503 639.131 163.198 638.71 162.98C638.293 162.758 637.756 162.646 637.098 162.646H634.683V174.99H632.048ZM648.919 174.99V160.445H651.554V172.781H657.96V174.99H648.919ZM664.247 174.99V160.445H673.707V162.653H666.882V166.602H673.217V168.811H666.882V172.781H673.764V174.99H664.247ZM680.396 160.445H683.62L687.938 170.984H688.109L692.427 160.445H695.651V174.99H693.123V164.997H692.988L688.968 174.947H687.079L683.059 164.976H682.924V174.99H680.396V160.445ZM702.521 174.99V160.445H711.981V162.653H705.156V166.602H711.491V168.811H705.156V172.781H712.038V174.99H702.521ZM730.622 160.445V174.99H728.278L721.425 165.082H721.304V174.99H718.669V160.445H721.027L727.874 170.359H728.001V160.445H730.622ZM736.854 162.653V160.445H748.459V162.653H743.963V174.99H741.35V162.653H736.854ZM754.806 174.99H751.994L757.115 160.445H760.368L765.495 174.99H762.683L758.798 163.427H758.684L754.806 174.99ZM754.899 169.287H762.569V171.403H754.899V169.287ZM783.178 165.352H780.522C780.446 164.917 780.306 164.531 780.103 164.195C779.899 163.854 779.646 163.565 779.343 163.328C779.04 163.091 778.694 162.914 778.306 162.795C777.922 162.672 777.508 162.611 777.063 162.611C776.272 162.611 775.571 162.81 774.961 163.207C774.35 163.6 773.872 164.178 773.526 164.94C773.18 165.698 773.007 166.624 773.007 167.717C773.007 168.83 773.18 169.767 773.526 170.53C773.876 171.287 774.355 171.86 774.961 172.249C775.571 172.632 776.27 172.824 777.056 172.824C777.491 172.824 777.899 172.767 778.277 172.653C778.661 172.535 779.004 172.362 779.307 172.135C779.615 171.908 779.873 171.628 780.081 171.297C780.294 170.965 780.441 170.587 780.522 170.16L783.178 170.175C783.078 170.866 782.863 171.515 782.532 172.121C782.205 172.727 781.776 173.262 781.246 173.726C780.716 174.185 780.096 174.545 779.385 174.805C778.675 175.061 777.887 175.189 777.02 175.189C775.742 175.189 774.601 174.893 773.597 174.301C772.593 173.709 771.802 172.855 771.225 171.737C770.647 170.62 770.358 169.28 770.358 167.717C770.358 166.15 770.65 164.81 771.232 163.697C771.814 162.58 772.607 161.725 773.611 161.133C774.615 160.542 775.751 160.246 777.02 160.246C777.83 160.246 778.583 160.359 779.279 160.587C779.975 160.814 780.595 161.148 781.14 161.588C781.684 162.024 782.132 162.559 782.482 163.193C782.837 163.823 783.069 164.543 783.178 165.352ZM792.226 160.445V174.99H789.591V160.445H792.226ZM804.818 160.445H807.431V170.672C807.427 171.609 807.228 172.417 806.835 173.094C806.442 173.766 805.893 174.284 805.187 174.649C804.486 175.009 803.67 175.189 802.737 175.189C801.885 175.189 801.118 175.037 800.436 174.734C799.759 174.427 799.221 173.972 798.824 173.371C798.426 172.769 798.227 172.021 798.227 171.126H800.848C800.852 171.519 800.938 171.858 801.103 172.142C801.274 172.426 801.508 172.644 801.806 172.795C802.105 172.947 802.448 173.023 802.836 173.023C803.258 173.023 803.615 172.935 803.909 172.76C804.202 172.58 804.425 172.315 804.576 171.964C804.733 171.614 804.813 171.183 804.818 170.672V160.445ZM816.158 174.99H813.346L818.466 160.445H821.719L826.847 174.99H824.034L820.15 163.427H820.036L816.158 174.99ZM816.25 169.287H823.921V171.403H816.25V169.287Z" fill="#578763"/>
<circle cx="659.5" cy="651.49" r="7.5" fill="#CD4358"/>
<path d="M526.253 656.973C526.304 657.075 526.423 657.16 526.542 657.16H526.712C526.848 657.16 526.95 657.075 527.001 656.973L532.22 645.532C532.322 645.311 532.186 645.09 531.931 645.09H530.724C530.571 645.09 530.469 645.192 530.435 645.277L526.695 653.692H526.593L522.853 645.277C522.819 645.192 522.7 645.09 522.564 645.09H521.357C521.102 645.09 520.966 645.311 521.068 645.532L526.253 656.973ZM534.688 651.057C534.688 654.457 537.391 657.16 540.791 657.16C544.191 657.16 546.911 654.457 546.911 651.057C546.911 647.657 544.191 644.92 540.791 644.92C537.391 644.92 534.688 647.657 534.688 651.057ZM536.388 651.057C536.388 648.643 538.377 646.62 540.791 646.62C543.222 646.62 545.211 648.643 545.211 651.057C545.211 653.488 543.222 655.46 540.791 655.46C538.377 655.46 536.388 653.488 536.388 651.057ZM551.034 656.667C551.034 656.837 551.17 656.99 551.357 656.99H552.462C552.632 656.99 552.785 656.837 552.785 656.667V652.332H555.352L557.613 656.837C557.647 656.905 557.749 656.99 557.885 656.99H559.211C559.5 656.99 559.619 656.718 559.5 656.497L557.171 652.179C558.65 651.584 559.687 650.292 559.687 648.728C559.687 646.705 558.021 645.09 555.981 645.09H551.357C551.17 645.09 551.034 645.243 551.034 645.413V656.667ZM552.819 650.87V646.739H555.845C556.95 646.739 557.919 647.657 557.919 648.762C557.919 649.935 556.95 650.87 555.845 650.87H552.819ZM565.672 656.667C565.672 656.837 565.825 656.99 565.995 656.99H567.117C567.287 656.99 567.44 656.837 567.44 656.667V646.688H570.211C570.398 646.688 570.534 646.535 570.534 646.365V645.413C570.534 645.243 570.398 645.09 570.211 645.09H562.901C562.714 645.09 562.578 645.243 562.578 645.413V646.365C562.578 646.535 562.714 646.688 562.901 646.688H565.672V656.667ZM572.118 656.99H573.189C573.393 656.99 573.529 656.854 573.58 656.735C573.92 655.953 574.277 655.188 574.617 654.406H580.176L581.23 656.735C581.298 656.888 581.417 656.99 581.621 656.99H582.692C582.947 656.99 583.083 656.769 582.981 656.548L577.796 645.107C577.745 645.005 577.592 644.92 577.507 644.92H577.337C577.252 644.92 577.099 645.005 577.048 645.107L571.829 656.548C571.727 656.769 571.863 656.99 572.118 656.99ZM575.28 652.944L577.354 648.286H577.439L579.53 652.944H575.28Z" fill="#0D1224"/>
<ellipse cx="497.5" cy="650.164" rx="7.5" ry="7.17391" fill="#7FC591"/>
<path d="M684.358 656.99V644.626H692.11V646.232H686.224V649.999H691.705V651.599H686.224V655.384H692.182V656.99H684.358ZM696.301 656.99V644.626H700.708C701.666 644.626 702.461 644.791 703.093 645.121C703.729 645.451 704.204 645.908 704.518 646.492C704.832 647.071 704.989 647.741 704.989 648.502C704.989 649.259 704.83 649.925 704.512 650.5C704.198 651.072 703.723 651.517 703.087 651.834C702.455 652.152 701.66 652.311 700.702 652.311H697.364V650.706H700.533C701.137 650.706 701.628 650.619 702.006 650.446C702.389 650.273 702.668 650.021 702.846 649.691C703.023 649.361 703.111 648.965 703.111 648.502C703.111 648.035 703.021 647.631 702.839 647.289C702.662 646.947 702.383 646.685 702 646.504C701.622 646.319 701.125 646.226 700.509 646.226H698.167V656.99H696.301ZM702.405 651.412L705.459 656.99H703.334L700.34 651.412H702.405ZM708.959 656.99V644.626H713.365C714.327 644.626 715.124 644.801 715.756 645.152C716.388 645.502 716.861 645.981 717.175 646.588C717.489 647.192 717.646 647.872 717.646 648.629C717.646 649.389 717.487 650.074 717.169 650.681C716.855 651.285 716.38 651.764 715.744 652.118C715.112 652.468 714.317 652.643 713.359 652.643H710.329V651.062H713.19C713.798 651.062 714.291 650.957 714.669 650.748C715.048 650.534 715.325 650.245 715.503 649.878C715.68 649.512 715.768 649.096 715.768 648.629C715.768 648.162 715.68 647.747 715.503 647.385C715.325 647.023 715.046 646.739 714.663 646.534C714.285 646.329 713.786 646.226 713.166 646.226H710.824V656.99H708.959ZM727.732 656.99V644.626H732.139C733.096 644.626 733.891 644.791 734.523 645.121C735.159 645.451 735.634 645.908 735.948 646.492C736.262 647.071 736.419 647.741 736.419 648.502C736.419 649.259 736.26 649.925 735.942 650.5C735.628 651.072 735.153 651.517 734.517 651.834C733.885 652.152 733.09 652.311 732.132 652.311H728.794V650.706H731.963C732.567 650.706 733.058 650.619 733.436 650.446C733.819 650.273 734.099 650.021 734.276 649.691C734.453 649.361 734.541 648.965 734.541 648.502C734.541 648.035 734.451 647.631 734.27 647.289C734.092 646.947 733.813 646.685 733.43 646.504C733.052 646.319 732.555 646.226 731.939 646.226H729.597V656.99H727.732ZM733.835 651.412L736.89 656.99H734.765L731.77 651.412H733.835ZM745.194 644.626H747.053V653.392C747.053 654.185 746.896 654.863 746.582 655.426C746.273 655.99 745.836 656.421 745.272 656.718C744.709 657.012 744.049 657.159 743.292 657.159C742.596 657.159 741.97 657.032 741.415 656.779C740.863 656.525 740.427 656.157 740.105 655.674C739.787 655.187 739.628 654.595 739.628 653.899H741.481C741.481 654.241 741.56 654.537 741.717 654.787C741.878 655.036 742.097 655.231 742.375 655.372C742.656 655.509 742.978 655.577 743.341 655.577C743.735 655.577 744.069 655.495 744.343 655.33C744.62 655.161 744.832 654.913 744.977 654.587C745.122 654.261 745.194 653.863 745.194 653.392V644.626ZM751.468 656.99V644.626H759.22V646.232H753.334V649.999H758.815V651.599H753.334V655.384H759.292V656.99H751.468ZM770.155 647.874C770.09 647.303 769.825 646.86 769.358 646.546C768.891 646.228 768.304 646.069 767.595 646.069C767.088 646.069 766.649 646.15 766.279 646.311C765.909 646.468 765.621 646.685 765.416 646.963C765.215 647.236 765.114 647.548 765.114 647.898C765.114 648.192 765.182 648.446 765.319 648.659C765.46 648.872 765.643 649.051 765.869 649.196C766.098 649.337 766.344 649.456 766.605 649.552C766.867 649.645 767.118 649.722 767.36 649.782L768.567 650.096C768.962 650.192 769.366 650.323 769.781 650.488C770.195 650.653 770.579 650.871 770.934 651.14C771.288 651.41 771.574 651.744 771.791 652.142C772.012 652.541 772.123 653.018 772.123 653.573C772.123 654.273 771.942 654.895 771.58 655.438C771.221 655.982 770.7 656.41 770.016 656.724C769.336 657.038 768.513 657.195 767.547 657.195C766.621 657.195 765.82 657.048 765.144 656.755C764.468 656.461 763.939 656.044 763.557 655.505C763.174 654.962 762.963 654.318 762.923 653.573H764.794C764.83 654.02 764.975 654.392 765.229 654.69C765.486 654.984 765.814 655.203 766.213 655.348C766.615 655.489 767.056 655.559 767.535 655.559C768.062 655.559 768.531 655.477 768.941 655.312C769.356 655.143 769.682 654.909 769.919 654.611C770.157 654.31 770.276 653.957 770.276 653.555C770.276 653.189 770.171 652.889 769.962 652.655C769.756 652.422 769.477 652.229 769.123 652.076C768.772 651.923 768.376 651.788 767.933 651.671L766.472 651.273C765.482 651.003 764.697 650.607 764.118 650.084C763.542 649.561 763.255 648.868 763.255 648.007C763.255 647.295 763.448 646.673 763.834 646.142C764.221 645.61 764.744 645.198 765.404 644.904C766.064 644.606 766.808 644.457 767.637 644.457C768.475 644.457 769.213 644.604 769.853 644.898C770.497 645.192 771.004 645.596 771.374 646.111C771.745 646.623 771.938 647.21 771.954 647.874H770.155ZM766.273 640.865L767.517 642.483L768.754 640.865H770.39V640.956L768.265 643.516H766.762L764.643 640.956V640.865H766.273ZM776.052 656.99V644.626H783.803V646.232H777.917V649.999H783.399V651.599H777.917V655.384H783.876V656.99H776.052ZM797.974 644.626V656.99H796.26L789.975 647.923H789.861V656.99H787.995V644.626H789.722L796.012 653.706H796.127V644.626H797.974ZM807.201 644.626H809.06V653.392C809.06 654.185 808.903 654.863 808.589 655.426C808.279 655.99 807.843 656.421 807.279 656.718C806.716 657.012 806.056 657.159 805.299 657.159C804.603 657.159 803.977 657.032 803.422 656.779C802.87 656.525 802.434 656.157 802.112 655.674C801.794 655.187 801.635 654.595 801.635 653.899H803.488C803.488 654.241 803.567 654.537 803.724 654.787C803.885 655.036 804.104 655.231 804.382 655.372C804.663 655.509 804.985 655.577 805.347 655.577C805.742 655.577 806.076 655.495 806.35 655.33C806.627 655.161 806.839 654.913 806.983 654.587C807.128 654.261 807.201 653.863 807.201 653.392V644.626ZM814.52 656.99H812.54L816.989 644.626H819.144L823.593 656.99H821.613L818.118 646.872H818.021L814.52 656.99ZM814.852 652.148H821.275V653.718H814.852V652.148Z" fill="#0D1224"/>
<path d="M164.292 44.2929C164.683 43.9024 165.316 43.9024 165.706 44.2929L172.071 50.6567C172.461 51.0472 172.461 51.6803 172.071 52.0709C171.68 52.4614 171.047 52.4614 170.656 52.0709L164.999 46.4142L159.343 52.0712C158.952 52.4618 158.319 52.4618 157.929 52.0713C157.538 51.6807 157.538 51.0476 157.928 50.657L164.292 44.2929ZM164 65.9999L163.999 45L165.999 45L166 65.9999L164 65.9999Z" fill="#222222"/>
<path d="M1146.21 530.697C1146.6 530.307 1146.6 529.673 1146.21 529.283L1139.84 522.919C1139.45 522.528 1138.82 522.528 1138.43 522.919C1138.04 523.309 1138.04 523.943 1138.43 524.333L1144.09 529.99L1138.43 535.647C1138.04 536.037 1138.04 536.671 1138.43 537.061C1138.82 537.452 1139.45 537.452 1139.84 537.061L1146.21 530.697ZM1126 530.99H1145.5V528.99H1126V530.99Z" fill="#222222"/>
<path d="M200 251.99H214V526.99H200V251.99Z" fill="white"/>
<path d="M200 238.99H214V526.99H200V238.99Z" fill="url(#paint0_linear)"/>
<ellipse cx="233.5" cy="157.99" rx="11.5" ry="11" fill="#CD4358"/>
<path d="M346.004 554.99V544.808H349.822C350.605 544.808 351.261 544.954 351.791 545.246C352.325 545.537 352.728 545.938 352.999 546.449C353.274 546.956 353.412 547.533 353.412 548.179C353.412 548.832 353.274 549.412 352.999 549.919C352.724 550.426 352.318 550.825 351.781 551.117C351.244 551.405 350.583 551.55 349.798 551.55H347.267V550.033H349.549C350.006 550.033 350.381 549.954 350.673 549.795C350.964 549.636 351.18 549.417 351.319 549.138C351.461 548.86 351.533 548.54 351.533 548.179C351.533 547.818 351.461 547.499 351.319 547.224C351.18 546.949 350.963 546.735 350.668 546.583C350.376 546.427 350 546.349 349.539 546.349H347.849V554.99H346.004ZM357.814 554.99V544.808H361.632C362.414 544.808 363.071 544.944 363.601 545.216C364.135 545.488 364.537 545.869 364.809 546.359C365.084 546.847 365.222 547.415 365.222 548.065C365.222 548.717 365.082 549.284 364.804 549.765C364.529 550.242 364.123 550.612 363.586 550.874C363.049 551.132 362.39 551.261 361.607 551.261H358.888V549.73H361.359C361.816 549.73 362.191 549.667 362.482 549.541C362.774 549.412 362.989 549.225 363.129 548.979C363.271 548.731 363.342 548.426 363.342 548.065C363.342 547.703 363.271 547.395 363.129 547.14C362.986 546.881 362.769 546.686 362.477 546.553C362.186 546.417 361.81 546.349 361.349 546.349H359.658V554.99H357.814ZM363.074 550.376L365.595 554.99H363.536L361.06 550.376H363.074ZM369.719 554.99V544.808H376.342V546.354H371.564V549.119H375.999V550.665H371.564V553.444H376.381V554.99H369.719ZM380.834 554.99V553.842L386.055 546.354H380.805V544.808H388.342V545.957L383.126 553.444H388.371V554.99H380.834ZM392.956 554.99V544.808H399.578V546.354H394.801V549.119H399.235V550.665H394.801V553.444H399.618V554.99H392.956ZM412.627 544.808V554.99H410.987L406.189 548.055H406.105V554.99H404.26V544.808H405.911L410.703 551.749H410.793V544.808H412.627ZM416.99 546.354V544.808H425.113V546.354H421.966V554.99H420.137V546.354H416.99ZM429.556 554.99H427.588L431.172 544.808H433.449L437.039 554.99H435.07L432.35 546.896H432.271L429.556 554.99ZM429.621 550.998H434.99V552.479H429.621V550.998ZM449.416 548.244H447.557C447.504 547.939 447.406 547.668 447.264 547.433C447.121 547.195 446.944 546.992 446.732 546.827C446.52 546.661 446.278 546.537 446.006 546.454C445.737 546.368 445.447 546.325 445.136 546.325C444.582 546.325 444.092 546.464 443.664 546.742C443.237 547.017 442.902 547.422 442.66 547.955C442.418 548.485 442.297 549.133 442.297 549.899C442.297 550.678 442.418 551.334 442.66 551.868C442.905 552.398 443.24 552.799 443.664 553.071C444.092 553.339 444.581 553.474 445.131 553.474C445.436 553.474 445.721 553.434 445.986 553.354C446.254 553.271 446.495 553.151 446.707 552.991C446.922 552.832 447.103 552.637 447.249 552.405C447.398 552.173 447.501 551.908 447.557 551.609L449.416 551.619C449.347 552.103 449.196 552.557 448.964 552.981C448.735 553.406 448.435 553.78 448.064 554.105C447.693 554.427 447.259 554.678 446.762 554.861C446.264 555.04 445.713 555.129 445.106 555.129C444.211 555.129 443.412 554.922 442.71 554.508C442.007 554.093 441.454 553.495 441.049 552.713C440.645 551.931 440.443 550.993 440.443 549.899C440.443 548.802 440.646 547.864 441.054 547.085C441.462 546.303 442.017 545.705 442.72 545.29C443.422 544.876 444.218 544.669 445.106 544.669C445.673 544.669 446.2 544.749 446.687 544.908C447.174 545.067 447.608 545.3 447.989 545.609C448.371 545.914 448.684 546.288 448.929 546.732C449.178 547.173 449.34 547.677 449.416 548.244ZM455.75 544.808V554.99H453.905V544.808H455.75ZM464.564 544.808H466.394V551.967C466.391 552.624 466.251 553.189 465.976 553.663C465.701 554.133 465.317 554.496 464.823 554.751C464.332 555.003 463.761 555.129 463.108 555.129C462.511 555.129 461.974 555.023 461.497 554.811C461.023 554.596 460.647 554.277 460.368 553.856C460.09 553.436 459.951 552.912 459.951 552.285H461.785C461.788 552.561 461.848 552.798 461.964 552.996C462.083 553.195 462.248 553.348 462.456 553.454C462.665 553.56 462.905 553.613 463.177 553.613C463.472 553.613 463.722 553.552 463.928 553.429C464.133 553.303 464.289 553.117 464.395 552.872C464.505 552.627 464.561 552.325 464.564 551.967V544.808ZM472.502 554.99H470.534L474.118 544.808H476.395L479.985 554.99H478.016L475.296 546.896H475.217L472.502 554.99ZM472.567 550.998H477.936V552.479H472.567V550.998ZM346.004 571.99V561.808H349.822C350.605 561.808 351.261 561.944 351.791 562.216C352.325 562.488 352.728 562.869 352.999 563.359C353.274 563.847 353.412 564.415 353.412 565.065C353.412 565.717 353.273 566.284 352.994 566.765C352.719 567.242 352.313 567.612 351.776 567.874C351.239 568.132 350.58 568.261 349.798 568.261H347.078V566.73H349.549C350.006 566.73 350.381 566.667 350.673 566.541C350.964 566.412 351.18 566.225 351.319 565.979C351.461 565.731 351.533 565.426 351.533 565.065C351.533 564.703 351.461 564.395 351.319 564.14C351.176 563.881 350.959 563.686 350.668 563.553C350.376 563.417 350 563.349 349.539 563.349H347.849V571.99H346.004ZM351.264 567.376L353.785 571.99H351.727L349.251 567.376H351.264ZM361.927 561.808H363.756V568.967C363.753 569.624 363.614 570.189 363.339 570.663C363.064 571.133 362.679 571.496 362.185 571.751C361.695 572.003 361.123 572.129 360.47 572.129C359.874 572.129 359.337 572.023 358.859 571.811C358.385 571.596 358.009 571.277 357.731 570.856C357.452 570.436 357.313 569.912 357.313 569.285H359.148C359.151 569.561 359.211 569.798 359.327 569.996C359.446 570.195 359.61 570.348 359.819 570.454C360.028 570.56 360.268 570.613 360.54 570.613C360.835 570.613 361.085 570.552 361.29 570.429C361.496 570.303 361.652 570.117 361.758 569.872C361.867 569.627 361.923 569.325 361.927 568.967V561.808ZM368.557 571.99V561.808H375.18V563.354H370.402V566.119H374.837V567.665H370.402V570.444H375.219V571.99H368.557ZM385.395 564.607C385.348 564.173 385.153 563.835 384.808 563.593C384.467 563.351 384.023 563.23 383.476 563.23C383.091 563.23 382.761 563.288 382.486 563.404C382.211 563.52 382.001 563.677 381.855 563.876C381.709 564.075 381.634 564.302 381.631 564.557C381.631 564.77 381.679 564.954 381.775 565.109C381.875 565.265 382.009 565.398 382.178 565.507C382.347 565.613 382.534 565.703 382.74 565.776C382.945 565.848 383.152 565.91 383.361 565.959L384.316 566.198C384.7 566.288 385.07 566.409 385.425 566.561C385.782 566.713 386.102 566.906 386.384 567.138C386.669 567.37 386.894 567.65 387.06 567.978C387.226 568.306 387.309 568.691 387.309 569.131C387.309 569.728 387.156 570.253 386.851 570.707C386.546 571.158 386.106 571.511 385.529 571.766C384.956 572.018 384.261 572.144 383.446 572.144C382.654 572.144 381.966 572.021 381.383 571.776C380.803 571.531 380.349 571.173 380.02 570.702C379.696 570.232 379.52 569.658 379.493 568.982H381.308C381.335 569.337 381.444 569.632 381.636 569.867C381.828 570.102 382.079 570.278 382.387 570.394C382.698 570.51 383.046 570.568 383.431 570.568C383.832 570.568 384.183 570.508 384.485 570.389C384.79 570.267 385.028 570.097 385.201 569.882C385.373 569.663 385.461 569.408 385.464 569.116C385.461 568.851 385.383 568.633 385.231 568.46C385.078 568.284 384.864 568.139 384.589 568.023C384.317 567.903 383.999 567.797 383.635 567.704L382.476 567.406C381.638 567.191 380.975 566.864 380.488 566.427C380.004 565.986 379.762 565.401 379.762 564.672C379.762 564.072 379.924 563.547 380.249 563.096C380.577 562.645 381.023 562.295 381.586 562.047C382.15 561.795 382.788 561.669 383.5 561.669C384.223 561.669 384.856 561.795 385.4 562.047C385.947 562.295 386.376 562.642 386.687 563.086C386.999 563.527 387.16 564.034 387.17 564.607H385.395ZM382.387 558.676L383.396 559.949L384.405 558.676H385.981V558.746L384.102 560.893H382.695L380.811 558.746V558.676H382.387ZM391.753 571.99V561.808H398.375V563.354H393.598V566.119H398.032V567.665H393.598V570.444H398.415V571.99H391.753ZM411.424 561.808V571.99H409.784L404.986 565.055H404.901V571.99H403.057V561.808H404.708L409.5 568.749H409.59V561.808H411.424ZM420.251 561.808H422.081V568.967C422.077 569.624 421.938 570.189 421.663 570.663C421.388 571.133 421.003 571.496 420.51 571.751C420.019 572.003 419.447 572.129 418.794 572.129C418.198 572.129 417.661 572.023 417.184 571.811C416.71 571.596 416.333 571.277 416.055 570.856C415.777 570.436 415.637 569.912 415.637 569.285H417.472C417.475 569.561 417.535 569.798 417.651 569.996C417.77 570.195 417.934 570.348 418.143 570.454C418.352 570.56 418.592 570.613 418.864 570.613C419.159 570.613 419.409 570.552 419.615 570.429C419.82 570.303 419.976 570.117 420.082 569.872C420.191 569.627 420.248 569.325 420.251 568.967V561.808ZM428.189 571.99H426.22L429.805 561.808H432.082L435.671 571.99H433.703L430.983 563.896H430.904L428.189 571.99ZM428.254 567.998H433.623V569.479H428.254V567.998Z" fill="black" fill-opacity="0.8"/>
<rect x="361" y="526.99" width="3" height="2" fill="#222222"/>
<path d="M609.928 553.359V546.479H611.489V553.359H609.928ZM607.268 550.7V549.138H614.148V550.7H607.268ZM622.674 554.99H619.224V544.808H622.744C623.755 544.808 624.623 545.012 625.349 545.42C626.078 545.824 626.638 546.406 627.03 547.165C627.421 547.924 627.616 548.832 627.616 549.889C627.616 550.95 627.419 551.861 627.025 552.624C626.634 553.386 626.068 553.971 625.329 554.378C624.594 554.786 623.709 554.99 622.674 554.99ZM621.069 553.394H622.585C623.294 553.394 623.886 553.265 624.36 553.006C624.834 552.744 625.19 552.355 625.429 551.838C625.667 551.318 625.787 550.668 625.787 549.889C625.787 549.11 625.667 548.464 625.429 547.95C625.19 547.433 624.837 547.047 624.37 546.792C623.906 546.533 623.329 546.404 622.64 546.404H621.069V553.394ZM632.984 544.808L635.634 552.822H635.738L638.383 544.808H640.412L636.822 554.99H634.545L630.961 544.808H632.984ZM644.671 554.99H642.702L646.287 544.808H648.564L652.153 554.99H650.184L647.465 546.896H647.385L644.671 554.99ZM644.735 550.998H650.105V552.479H644.735V550.998ZM607.004 561.808H609.261L612.284 569.186H612.403L615.426 561.808H617.683V571.99H615.913V564.995H615.819L613.005 571.96H611.683L608.869 564.98H608.774V571.99H607.004V561.808ZM626.509 561.808H628.338V568.967C628.335 569.624 628.196 570.189 627.921 570.663C627.646 571.133 627.261 571.496 626.767 571.751C626.277 572.003 625.705 572.129 625.052 572.129C624.456 572.129 623.919 572.023 623.441 571.811C622.967 571.596 622.591 571.277 622.313 570.856C622.034 570.436 621.895 569.912 621.895 569.285H623.73C623.733 569.561 623.793 569.798 623.909 569.996C624.028 570.195 624.192 570.348 624.401 570.454C624.61 570.56 624.85 570.613 625.122 570.613C625.417 570.613 625.667 570.552 625.872 570.429C626.078 570.303 626.234 570.117 626.34 569.872C626.449 569.627 626.505 569.325 626.509 568.967V561.808ZM633.139 571.99V561.808H639.762V563.354H634.984V566.119H639.419V567.665H634.984V570.444H639.801V571.99H633.139ZM649.977 564.607C649.93 564.173 649.735 563.835 649.39 563.593C649.049 563.351 648.605 563.23 648.058 563.23C647.673 563.23 647.343 563.288 647.068 563.404C646.793 563.52 646.583 563.677 646.437 563.876C646.291 564.075 646.217 564.302 646.213 564.557C646.213 564.77 646.261 564.954 646.357 565.109C646.457 565.265 646.591 565.398 646.76 565.507C646.929 565.613 647.116 565.703 647.322 565.776C647.527 565.848 647.735 565.91 647.943 565.959L648.898 566.198C649.282 566.288 649.652 566.409 650.007 566.561C650.364 566.713 650.684 566.906 650.966 567.138C651.251 567.37 651.476 567.65 651.642 567.978C651.808 568.306 651.891 568.691 651.891 569.131C651.891 569.728 651.738 570.253 651.433 570.707C651.128 571.158 650.688 571.511 650.111 571.766C649.538 572.018 648.843 572.144 648.028 572.144C647.236 572.144 646.548 572.021 645.965 571.776C645.385 571.531 644.931 571.173 644.602 570.702C644.278 570.232 644.102 569.658 644.075 568.982H645.89C645.917 569.337 646.026 569.632 646.218 569.867C646.41 570.102 646.661 570.278 646.969 570.394C647.28 570.51 647.628 570.568 648.013 570.568C648.414 570.568 648.765 570.508 649.067 570.389C649.372 570.267 649.61 570.097 649.783 569.882C649.955 569.663 650.043 569.408 650.046 569.116C650.043 568.851 649.965 568.633 649.813 568.46C649.66 568.284 649.446 568.139 649.171 568.023C648.9 567.903 648.581 567.797 648.217 567.704L647.058 567.406C646.22 567.191 645.557 566.864 645.07 566.427C644.586 565.986 644.344 565.401 644.344 564.672C644.344 564.072 644.506 563.547 644.831 563.096C645.159 562.645 645.605 562.295 646.168 562.047C646.732 561.795 647.37 561.669 648.083 561.669C648.805 561.669 649.438 561.795 649.982 562.047C650.529 562.295 650.958 562.642 651.269 563.086C651.581 563.527 651.742 564.034 651.752 564.607H649.977ZM656.335 571.99V561.808H662.957V563.354H658.18V566.119H662.614V567.665H658.18V570.444H662.997V571.99H656.335ZM676.354 565.244H674.495C674.442 564.939 674.344 564.668 674.202 564.433C674.059 564.195 673.882 563.992 673.67 563.827C673.457 563.661 673.215 563.537 672.944 563.454C672.675 563.368 672.385 563.325 672.074 563.325C671.52 563.325 671.03 563.464 670.602 563.742C670.175 564.017 669.84 564.422 669.598 564.955C669.356 565.485 669.235 566.133 669.235 566.899C669.235 567.678 669.356 568.334 669.598 568.868C669.843 569.398 670.178 569.799 670.602 570.071C671.03 570.339 671.519 570.474 672.069 570.474C672.374 570.474 672.659 570.434 672.924 570.354C673.192 570.271 673.433 570.151 673.645 569.991C673.86 569.832 674.041 569.637 674.187 569.405C674.336 569.173 674.439 568.908 674.495 568.609L676.354 568.619C676.285 569.103 676.134 569.557 675.902 569.981C675.673 570.406 675.373 570.78 675.002 571.105C674.631 571.427 674.197 571.678 673.699 571.861C673.202 572.04 672.65 572.129 672.044 572.129C671.149 572.129 670.35 571.922 669.648 571.508C668.945 571.093 668.391 570.495 667.987 569.713C667.583 568.931 667.381 567.993 667.381 566.899C667.381 565.802 667.584 564.864 667.992 564.085C668.4 563.303 668.955 562.705 669.657 562.29C670.36 561.876 671.156 561.669 672.044 561.669C672.611 561.669 673.138 561.749 673.625 561.908C674.112 562.067 674.546 562.3 674.927 562.609C675.309 562.914 675.622 563.288 675.867 563.732C676.116 564.173 676.278 564.677 676.354 565.244ZM682.028 571.99H680.059L683.644 561.808H685.921L689.51 571.99H687.541L684.822 563.896H684.742L682.028 571.99ZM682.092 567.998H687.462V569.479H682.092V567.998Z" fill="black" fill-opacity="0.8"/>
<rect x="622" y="526.99" width="3" height="2" fill="#222222"/>
<path d="M956.928 553.359V546.479H958.489V553.359H956.928ZM954.268 550.7V549.138H961.148V550.7H954.268ZM971.758 547.607C971.711 547.173 971.516 546.835 971.171 546.593C970.83 546.351 970.385 546.23 969.839 546.23C969.454 546.23 969.124 546.288 968.849 546.404C968.574 546.52 968.364 546.677 968.218 546.876C968.072 547.075 967.997 547.302 967.994 547.557C967.994 547.77 968.042 547.954 968.138 548.109C968.238 548.265 968.372 548.398 968.541 548.507C968.71 548.613 968.897 548.703 969.103 548.776C969.308 548.848 969.515 548.91 969.724 548.959L970.679 549.198C971.063 549.288 971.433 549.409 971.787 549.561C972.145 549.713 972.465 549.906 972.747 550.138C973.032 550.37 973.257 550.65 973.423 550.978C973.589 551.306 973.672 551.691 973.672 552.131C973.672 552.728 973.519 553.253 973.214 553.707C972.909 554.158 972.469 554.511 971.892 554.766C971.318 555.018 970.624 555.144 969.809 555.144C969.017 555.144 968.329 555.021 967.745 554.776C967.165 554.531 966.711 554.173 966.383 553.702C966.058 553.232 965.883 552.658 965.856 551.982H967.671C967.697 552.337 967.807 552.632 967.999 552.867C968.191 553.102 968.442 553.278 968.75 553.394C969.061 553.51 969.409 553.568 969.794 553.568C970.195 553.568 970.546 553.508 970.848 553.389C971.153 553.267 971.391 553.097 971.564 552.882C971.736 552.663 971.824 552.408 971.827 552.116C971.824 551.851 971.746 551.633 971.594 551.46C971.441 551.284 971.227 551.139 970.952 551.023C970.68 550.903 970.362 550.797 969.998 550.704L968.839 550.406C968.001 550.191 967.338 549.864 966.851 549.427C966.367 548.986 966.125 548.401 966.125 547.672C966.125 547.072 966.287 546.547 966.612 546.096C966.94 545.645 967.386 545.295 967.949 545.047C968.513 544.795 969.151 544.669 969.863 544.669C970.586 544.669 971.219 544.795 971.763 545.047C972.309 545.295 972.739 545.642 973.05 546.086C973.362 546.527 973.522 547.034 973.532 547.607H971.758ZM968.75 541.676L969.759 542.949L970.768 541.676H972.344V541.746L970.465 543.893H969.058L967.174 541.746V541.676H968.75ZM978.116 554.99V544.808H984.738V546.354H979.96V549.119H984.395V550.665H979.96V553.444H984.778V554.99H978.116ZM994.953 547.607C994.907 547.173 994.711 546.835 994.367 546.593C994.025 546.351 993.581 546.23 993.034 546.23C992.65 546.23 992.32 546.288 992.045 546.404C991.77 546.52 991.559 546.677 991.413 546.876C991.268 547.075 991.193 547.302 991.19 547.557C991.19 547.77 991.238 547.954 991.334 548.109C991.433 548.265 991.568 548.398 991.737 548.507C991.906 548.613 992.093 548.703 992.298 548.776C992.504 548.848 992.711 548.91 992.92 548.959L993.874 549.198C994.259 549.288 994.628 549.409 994.983 549.561C995.341 549.713 995.661 549.906 995.943 550.138C996.228 550.37 996.453 550.65 996.619 550.978C996.784 551.306 996.867 551.691 996.867 552.131C996.867 552.728 996.715 553.253 996.41 553.707C996.105 554.158 995.664 554.511 995.088 554.766C994.514 555.018 993.82 555.144 993.004 555.144C992.212 555.144 991.525 555.021 990.941 554.776C990.361 554.531 989.907 554.173 989.579 553.702C989.254 553.232 989.079 552.658 989.052 551.982H990.867C990.893 552.337 991.003 552.632 991.195 552.867C991.387 553.102 991.637 553.278 991.945 553.394C992.257 553.51 992.605 553.568 992.989 553.568C993.391 553.568 993.742 553.508 994.043 553.389C994.348 553.267 994.587 553.097 994.759 552.882C994.932 552.663 995.02 552.408 995.023 552.116C995.02 551.851 994.942 551.633 994.789 551.46C994.637 551.284 994.423 551.139 994.148 551.023C993.876 550.903 993.558 550.797 993.193 550.704L992.035 550.406C991.196 550.191 990.534 549.864 990.046 549.427C989.562 548.986 989.32 548.401 989.32 547.672C989.32 547.072 989.483 546.547 989.808 546.096C990.136 545.645 990.582 545.295 991.145 545.047C991.708 544.795 992.346 544.669 993.059 544.669C993.782 544.669 994.415 544.795 994.958 545.047C995.505 545.295 995.934 545.642 996.246 546.086C996.557 546.527 996.718 547.034 996.728 547.607H994.953ZM1000.86 546.354V544.808H1008.99V546.354H1005.84V554.99H1004.01V546.354H1000.86ZM954.004 561.808H956.261L959.284 569.186H959.403L962.426 561.808H964.683V571.99H962.913V564.995H962.819L960.005 571.96H958.683L955.869 564.98H955.774V571.99H954.004V561.808ZM973.509 561.808H975.338V568.967C975.335 569.624 975.196 570.189 974.921 570.663C974.646 571.133 974.261 571.496 973.767 571.751C973.277 572.003 972.705 572.129 972.052 572.129C971.456 572.129 970.919 572.023 970.441 571.811C969.967 571.596 969.591 571.277 969.313 570.856C969.034 570.436 968.895 569.912 968.895 569.285H970.73C970.733 569.561 970.793 569.798 970.909 569.996C971.028 570.195 971.192 570.348 971.401 570.454C971.61 570.56 971.85 570.613 972.122 570.613C972.417 570.613 972.667 570.552 972.872 570.429C973.078 570.303 973.234 570.117 973.34 569.872C973.449 569.627 973.505 569.325 973.509 568.967V561.808ZM980.139 571.99V561.808H986.762V563.354H981.984V566.119H986.419V567.665H981.984V570.444H986.801V571.99H980.139ZM996.977 564.607C996.93 564.173 996.735 563.835 996.39 563.593C996.049 563.351 995.605 563.23 995.058 563.23C994.673 563.23 994.343 563.288 994.068 563.404C993.793 563.52 993.583 563.677 993.437 563.876C993.291 564.075 993.217 564.302 993.213 564.557C993.213 564.77 993.261 564.954 993.357 565.109C993.457 565.265 993.591 565.398 993.76 565.507C993.929 565.613 994.116 565.703 994.322 565.776C994.527 565.848 994.735 565.91 994.943 565.959L995.898 566.198C996.282 566.288 996.652 566.409 997.007 566.561C997.364 566.713 997.684 566.906 997.966 567.138C998.251 567.37 998.476 567.65 998.642 567.978C998.808 568.306 998.891 568.691 998.891 569.131C998.891 569.728 998.738 570.253 998.433 570.707C998.128 571.158 997.688 571.511 997.111 571.766C996.538 572.018 995.843 572.144 995.028 572.144C994.236 572.144 993.548 572.021 992.965 571.776C992.385 571.531 991.931 571.173 991.602 570.702C991.278 570.232 991.102 569.658 991.075 568.982H992.89C992.917 569.337 993.026 569.632 993.218 569.867C993.41 570.102 993.661 570.278 993.969 570.394C994.28 570.51 994.628 570.568 995.013 570.568C995.414 570.568 995.765 570.508 996.067 570.389C996.372 570.267 996.61 570.097 996.783 569.882C996.955 569.663 997.043 569.408 997.046 569.116C997.043 568.851 996.965 568.633 996.813 568.46C996.66 568.284 996.446 568.139 996.171 568.023C995.9 567.903 995.581 567.797 995.217 567.704L994.058 567.406C993.22 567.191 992.557 566.864 992.07 566.427C991.586 565.986 991.344 565.401 991.344 564.672C991.344 564.072 991.506 563.547 991.831 563.096C992.159 562.645 992.605 562.295 993.168 562.047C993.732 561.795 994.37 561.669 995.083 561.669C995.805 561.669 996.438 561.795 996.982 562.047C997.529 562.295 997.958 562.642 998.269 563.086C998.581 563.527 998.742 564.034 998.752 564.607H996.977ZM1003.34 571.99V561.808H1009.96V563.354H1005.18V566.119H1009.61V567.665H1005.18V570.444H1010V571.99H1003.34ZM1023.35 565.244H1021.49C1021.44 564.939 1021.34 564.668 1021.2 564.433C1021.06 564.195 1020.88 563.992 1020.67 563.827C1020.46 563.661 1020.22 563.537 1019.94 563.454C1019.68 563.368 1019.39 563.325 1019.07 563.325C1018.52 563.325 1018.03 563.464 1017.6 563.742C1017.17 564.017 1016.84 564.422 1016.6 564.955C1016.36 565.485 1016.23 566.133 1016.23 566.899C1016.23 567.678 1016.36 568.334 1016.6 568.868C1016.84 569.398 1017.18 569.799 1017.6 570.071C1018.03 570.339 1018.52 570.474 1019.07 570.474C1019.37 570.474 1019.66 570.434 1019.92 570.354C1020.19 570.271 1020.43 570.151 1020.64 569.991C1020.86 569.832 1021.04 569.637 1021.19 569.405C1021.34 569.173 1021.44 568.908 1021.49 568.609L1023.35 568.619C1023.28 569.103 1023.13 569.557 1022.9 569.981C1022.67 570.406 1022.37 570.78 1022 571.105C1021.63 571.427 1021.2 571.678 1020.7 571.861C1020.2 572.04 1019.65 572.129 1019.04 572.129C1018.15 572.129 1017.35 571.922 1016.65 571.508C1015.94 571.093 1015.39 570.495 1014.99 569.713C1014.58 568.931 1014.38 567.993 1014.38 566.899C1014.38 565.802 1014.58 564.864 1014.99 564.085C1015.4 563.303 1015.95 562.705 1016.66 562.29C1017.36 561.876 1018.16 561.669 1019.04 561.669C1019.61 561.669 1020.14 561.749 1020.62 561.908C1021.11 562.067 1021.55 562.3 1021.93 562.609C1022.31 562.914 1022.62 563.288 1022.87 563.732C1023.12 564.173 1023.28 564.677 1023.35 565.244ZM1029.69 561.808V571.99H1027.84V561.808H1029.69Z" fill="black" fill-opacity="0.8"/>
<rect x="969" y="526.99" width="3" height="2" fill="#222222"/>
<path d="M204.004 553.99V543.808H207.822C208.605 543.808 209.261 543.954 209.791 544.246C210.325 544.537 210.728 544.938 210.999 545.449C211.274 545.956 211.412 546.533 211.412 547.179C211.412 547.832 211.274 548.412 210.999 548.919C210.724 549.426 210.318 549.825 209.781 550.117C209.244 550.405 208.583 550.55 207.798 550.55H205.267V549.033H207.549C208.006 549.033 208.381 548.954 208.673 548.795C208.964 548.636 209.18 548.417 209.319 548.138C209.461 547.86 209.533 547.54 209.533 547.179C209.533 546.818 209.461 546.499 209.319 546.224C209.18 545.949 208.963 545.735 208.668 545.583C208.376 545.427 208 545.349 207.539 545.349H205.849V553.99H204.004ZM215.814 553.99V543.808H219.632C220.414 543.808 221.071 543.944 221.601 544.216C222.135 544.488 222.537 544.869 222.809 545.359C223.084 545.847 223.222 546.415 223.222 547.065C223.222 547.717 223.082 548.284 222.804 548.765C222.529 549.242 222.123 549.612 221.586 549.874C221.049 550.132 220.39 550.261 219.607 550.261H216.888V548.73H219.359C219.816 548.73 220.191 548.667 220.482 548.541C220.774 548.412 220.989 548.225 221.129 547.979C221.271 547.731 221.342 547.426 221.342 547.065C221.342 546.703 221.271 546.395 221.129 546.14C220.986 545.881 220.769 545.686 220.477 545.553C220.186 545.417 219.81 545.349 219.349 545.349H217.658V553.99H215.814ZM221.074 549.376L223.595 553.99H221.536L219.06 549.376H221.074ZM228.808 543.808L231.458 551.822H231.563L234.207 543.808H236.236L232.646 553.99H230.369L226.785 543.808H228.808ZM242.221 543.808V553.99H240.377V543.808H242.221ZM209.538 563.607C209.491 563.173 209.296 562.835 208.951 562.593C208.61 562.351 208.165 562.23 207.619 562.23C207.234 562.23 206.904 562.288 206.629 562.404C206.354 562.52 206.144 562.677 205.998 562.876C205.852 563.075 205.777 563.302 205.774 563.557C205.774 563.77 205.822 563.954 205.918 564.109C206.018 564.265 206.152 564.398 206.321 564.507C206.49 564.613 206.677 564.703 206.883 564.776C207.088 564.848 207.295 564.91 207.504 564.959L208.459 565.198C208.843 565.288 209.213 565.409 209.567 565.561C209.925 565.713 210.245 565.906 210.527 566.138C210.812 566.37 211.037 566.65 211.203 566.978C211.369 567.306 211.452 567.691 211.452 568.131C211.452 568.728 211.299 569.253 210.994 569.707C210.689 570.158 210.249 570.511 209.672 570.766C209.098 571.018 208.404 571.144 207.589 571.144C206.797 571.144 206.109 571.021 205.526 570.776C204.946 570.531 204.491 570.173 204.163 569.702C203.839 569.232 203.663 568.658 203.636 567.982H205.451C205.478 568.337 205.587 568.632 205.779 568.867C205.971 569.102 206.222 569.278 206.53 569.394C206.841 569.51 207.189 569.568 207.574 569.568C207.975 569.568 208.326 569.508 208.628 569.389C208.933 569.267 209.171 569.097 209.344 568.882C209.516 568.663 209.604 568.408 209.607 568.116C209.604 567.851 209.526 567.633 209.374 567.46C209.221 567.284 209.007 567.139 208.732 567.023C208.46 566.903 208.142 566.797 207.778 566.704L206.619 566.406C205.781 566.191 205.118 565.864 204.631 565.427C204.147 564.986 203.905 564.401 203.905 563.672C203.905 563.072 204.067 562.547 204.392 562.096C204.72 561.645 205.166 561.295 205.729 561.047C206.293 560.795 206.931 560.669 207.643 560.669C208.366 560.669 208.999 560.795 209.543 561.047C210.089 561.295 210.519 561.642 210.83 562.086C211.142 562.527 211.303 563.034 211.312 563.607H209.538ZM217.04 570.99H215.071L218.655 560.808H220.932L224.522 570.99H222.553L219.834 562.896H219.754L217.04 570.99ZM217.104 566.998H222.473V568.479H217.104V566.998ZM234.032 563.607C233.986 563.173 233.79 562.835 233.446 562.593C233.104 562.351 232.66 562.23 232.113 562.23C231.729 562.23 231.399 562.288 231.124 562.404C230.849 562.52 230.638 562.677 230.492 562.876C230.347 563.075 230.272 563.302 230.269 563.557C230.269 563.77 230.317 563.954 230.413 564.109C230.512 564.265 230.647 564.398 230.816 564.507C230.985 564.613 231.172 564.703 231.377 564.776C231.583 564.848 231.79 564.91 231.999 564.959L232.953 565.198C233.338 565.288 233.707 565.409 234.062 565.561C234.42 565.713 234.74 565.906 235.022 566.138C235.307 566.37 235.532 566.65 235.698 566.978C235.863 567.306 235.946 567.691 235.946 568.131C235.946 568.728 235.794 569.253 235.489 569.707C235.184 570.158 234.743 570.511 234.166 570.766C233.593 571.018 232.899 571.144 232.083 571.144C231.291 571.144 230.603 571.021 230.02 570.776C229.44 570.531 228.986 570.173 228.658 569.702C228.333 569.232 228.157 568.658 228.131 567.982H229.946C229.972 568.337 230.081 568.632 230.274 568.867C230.466 569.102 230.716 569.278 231.024 569.394C231.336 569.51 231.684 569.568 232.068 569.568C232.469 569.568 232.821 569.508 233.122 569.389C233.427 569.267 233.666 569.097 233.838 568.882C234.011 568.663 234.098 568.408 234.102 568.116C234.098 567.851 234.021 567.633 233.868 567.46C233.716 567.284 233.502 567.139 233.227 567.023C232.955 566.903 232.637 566.797 232.272 566.704L231.114 566.406C230.275 566.191 229.612 565.864 229.125 565.427C228.641 564.986 228.399 564.401 228.399 563.672C228.399 563.072 228.562 562.547 228.887 562.096C229.215 561.645 229.66 561.295 230.224 561.047C230.787 560.795 231.425 560.669 232.138 560.669C232.861 560.669 233.494 560.795 234.037 561.047C234.584 561.295 235.013 561.642 235.325 562.086C235.636 562.527 235.797 563.034 235.807 563.607H234.032ZM239.943 562.354V560.808H248.067V562.354H244.92V570.99H243.09V562.354H239.943ZM252.51 570.99H250.541L254.126 560.808H256.403L259.992 570.99H258.023L255.304 562.896H255.224L252.51 570.99ZM252.574 566.998H257.944V568.479H252.574V566.998ZM272.5 560.808V570.99H270.86L266.062 564.055H265.978V570.99H264.133V560.808H265.784L270.576 567.749H270.666V560.808H272.5ZM278.618 570.99H276.649L280.233 560.808H282.51L286.1 570.99H284.131L281.412 562.896H281.332L278.618 570.99ZM278.682 566.998H284.052V568.479H278.682V566.998ZM290.241 570.99V560.808H292.085V565.486H292.21L296.182 560.808H298.434L294.497 565.377L298.469 570.99H296.252L293.214 566.625L292.085 567.957V570.99H290.241Z" fill="black" fill-opacity="0.8"/>
<rect x="219" y="526.99" width="3" height="4" fill="#222222"/>
<rect x="370.5" y="248.49" width="15" height="280" fill="white"/>
<rect x="370" y="265.99" width="15" height="262" fill="url(#paint1_linear)"/>
<ellipse cx="377.5" cy="264.99" rx="11.5" ry="11" fill="#CD4358"/>
<path d="M603 305.99H617V526.99H603V305.99Z" fill="white"/>
<rect x="630" y="249.99" width="15" height="277" fill="white"/>
<rect x="630" y="285.99" width="15" height="241" fill="url(#paint2_linear)"/>
<path d="M978 372.99H992V529.99H978V372.99Z" fill="url(#paint3_linear)"/>
<path d="M649 284.99C649 291.065 643.851 295.99 637.5 295.99C631.149 295.99 626 291.065 626 284.99C626 278.915 631.149 273.99 637.5 273.99C643.851 273.99 649 278.915 649 284.99Z" fill="#CD4358"/>
<path d="M350.5 211.99L610 214.99" stroke="#7FC591" stroke-width="3"/>
<circle cx="985.5" cy="371.49" r="9.5" fill="white" stroke="#CD4358" stroke-width="4"/>
<circle cx="206.5" cy="236.49" r="11.5" fill="#7FC591"/>
<path d="M350.179 141.089C350.061 140.706 349.897 140.363 349.689 140.06C349.485 139.752 349.239 139.489 348.95 139.271C348.666 139.053 348.339 138.89 347.97 138.781C347.601 138.668 347.198 138.611 346.763 138.611C345.982 138.611 345.286 138.807 344.675 139.2C344.064 139.593 343.583 140.171 343.233 140.933C342.887 141.691 342.714 142.614 342.714 143.703C342.714 144.802 342.887 145.732 343.233 146.494C343.579 147.257 344.059 147.837 344.675 148.234C345.29 148.627 346.005 148.824 346.82 148.824C347.558 148.824 348.197 148.682 348.737 148.398C349.282 148.114 349.701 147.711 349.994 147.19C350.288 146.665 350.435 146.049 350.435 145.344L351.031 145.436H347.082V143.376H352.984V145.124C352.984 146.369 352.719 147.446 352.189 148.355C351.659 149.264 350.929 149.965 350.001 150.457C349.073 150.945 348.008 151.189 346.805 151.189C345.465 151.189 344.289 150.888 343.276 150.287C342.267 149.681 341.479 148.821 340.911 147.709C340.347 146.591 340.065 145.266 340.065 143.731C340.065 142.557 340.231 141.508 340.562 140.585C340.899 139.662 341.367 138.878 341.969 138.234C342.57 137.586 343.276 137.093 344.085 136.757C344.895 136.416 345.776 136.246 346.727 136.246C347.532 136.246 348.283 136.364 348.979 136.601C349.675 136.833 350.293 137.164 350.832 137.595C351.377 138.026 351.824 138.537 352.175 139.129C352.525 139.721 352.755 140.374 352.864 141.089H350.179ZM372.529 143.717C372.529 145.284 372.236 146.627 371.649 147.744C371.066 148.857 370.271 149.709 369.262 150.301C368.259 150.893 367.12 151.189 365.846 151.189C364.573 151.189 363.431 150.893 362.423 150.301C361.419 149.704 360.624 148.85 360.037 147.737C359.454 146.62 359.163 145.28 359.163 143.717C359.163 142.15 359.454 140.81 360.037 139.697C360.624 138.58 361.419 137.725 362.423 137.133C363.431 136.542 364.573 136.246 365.846 136.246C367.12 136.246 368.259 136.542 369.262 137.133C370.271 137.725 371.066 138.58 371.649 139.697C372.236 140.81 372.529 142.15 372.529 143.717ZM369.88 143.717C369.88 142.614 369.708 141.684 369.362 140.926C369.021 140.164 368.547 139.588 367.941 139.2C367.335 138.807 366.637 138.611 365.846 138.611C365.056 138.611 364.357 138.807 363.751 139.2C363.145 139.588 362.669 140.164 362.324 140.926C361.983 141.684 361.812 142.614 361.812 143.717C361.812 144.82 361.983 145.753 362.324 146.516C362.669 147.273 363.145 147.848 363.751 148.241C364.357 148.63 365.056 148.824 365.846 148.824C366.637 148.824 367.335 148.63 367.941 148.241C368.547 147.848 369.021 147.273 369.362 146.516C369.708 145.753 369.88 144.82 369.88 143.717ZM377.756 138.653V136.445H389.362V138.653H384.866V150.99H382.252V138.653H377.756ZM407.971 143.717C407.971 145.284 407.677 146.627 407.09 147.744C406.508 148.857 405.712 149.709 404.704 150.301C403.7 150.893 402.561 151.189 401.288 151.189C400.014 151.189 398.873 150.893 397.864 150.301C396.861 149.704 396.065 148.85 395.478 147.737C394.896 146.62 394.604 145.28 394.604 143.717C394.604 142.15 394.896 140.81 395.478 139.697C396.065 138.58 396.861 137.725 397.864 137.133C398.873 136.542 400.014 136.246 401.288 136.246C402.561 136.246 403.7 136.542 404.704 137.133C405.712 137.725 406.508 138.58 407.09 139.697C407.677 140.81 407.971 142.15 407.971 143.717ZM405.322 143.717C405.322 142.614 405.149 141.684 404.803 140.926C404.462 140.164 403.989 139.588 403.383 139.2C402.777 138.807 402.078 138.611 401.288 138.611C400.497 138.611 399.799 138.807 399.192 139.2C398.586 139.588 398.111 140.164 397.765 140.926C397.424 141.684 397.254 142.614 397.254 143.717C397.254 144.82 397.424 145.753 397.765 146.516C398.111 147.273 398.586 147.848 399.192 148.241C399.799 148.63 400.497 148.824 401.288 148.824C402.078 148.824 402.777 148.63 403.383 148.241C403.989 147.848 404.462 147.273 404.803 146.516C405.149 145.753 405.322 144.82 405.322 143.717ZM415.627 136.445L419.412 147.893H419.561L423.34 136.445H426.238L421.11 150.99H417.857L412.736 136.445H415.627ZM444.369 143.717C444.369 145.284 444.076 146.627 443.489 147.744C442.906 148.857 442.111 149.709 441.102 150.301C440.098 150.893 438.96 151.189 437.686 151.189C436.412 151.189 435.271 150.893 434.263 150.301C433.259 149.704 432.464 148.85 431.876 147.737C431.294 146.62 431.003 145.28 431.003 143.717C431.003 142.15 431.294 140.81 431.876 139.697C432.464 138.58 433.259 137.725 434.263 137.133C435.271 136.542 436.412 136.246 437.686 136.246C438.96 136.246 440.098 136.542 441.102 137.133C442.111 137.725 442.906 138.58 443.489 139.697C444.076 140.81 444.369 142.15 444.369 143.717ZM441.72 143.717C441.72 142.614 441.547 141.684 441.202 140.926C440.861 140.164 440.387 139.588 439.781 139.2C439.175 138.807 438.477 138.611 437.686 138.611C436.895 138.611 436.197 138.807 435.591 139.2C434.985 139.588 434.509 140.164 434.163 140.926C433.822 141.684 433.652 142.614 433.652 143.717C433.652 144.82 433.822 145.753 434.163 146.516C434.509 147.273 434.985 147.848 435.591 148.241C436.197 148.63 436.895 148.824 437.686 148.824C438.477 148.824 439.175 148.63 439.781 148.241C440.387 147.848 440.861 147.273 441.202 146.516C441.547 145.753 441.72 144.82 441.72 143.717ZM340.435 174.99V160.445H345.889C347.007 160.445 347.944 160.639 348.702 161.027C349.464 161.415 350.039 161.96 350.428 162.66C350.821 163.356 351.017 164.168 351.017 165.097C351.017 166.029 350.818 166.839 350.42 167.526C350.027 168.207 349.447 168.735 348.68 169.109C347.913 169.479 346.971 169.663 345.854 169.663H341.969V167.476H345.499C346.152 167.476 346.687 167.386 347.104 167.206C347.52 167.021 347.828 166.754 348.027 166.403C348.231 166.048 348.332 165.613 348.332 165.097C348.332 164.58 348.231 164.14 348.027 163.776C347.823 163.406 347.513 163.127 347.097 162.937C346.68 162.743 346.143 162.646 345.484 162.646H343.07V174.99H340.435ZM347.949 168.399L351.55 174.99H348.609L345.072 168.399H347.949ZM363.181 160.445H365.795V170.672C365.79 171.609 365.591 172.417 365.198 173.094C364.805 173.766 364.256 174.284 363.55 174.649C362.85 175.009 362.033 175.189 361.1 175.189C360.248 175.189 359.481 175.037 358.799 174.734C358.122 174.427 357.585 173.972 357.187 173.371C356.789 172.769 356.59 172.021 356.59 171.126H359.211C359.216 171.519 359.301 171.858 359.467 172.142C359.637 172.426 359.871 172.644 360.17 172.795C360.468 172.947 360.811 173.023 361.2 173.023C361.621 173.023 361.978 172.935 362.272 172.76C362.566 172.58 362.788 172.315 362.94 171.964C363.096 171.614 363.176 171.183 363.181 170.672V160.445ZM372.653 174.99V160.445H382.114V162.653H375.288V166.602H381.624V168.811H375.288V172.781H382.17V174.99H372.653ZM396.707 164.443C396.64 163.823 396.361 163.34 395.869 162.994C395.381 162.649 394.746 162.476 393.965 162.476C393.416 162.476 392.945 162.559 392.552 162.724C392.159 162.89 391.858 163.115 391.65 163.399C391.442 163.683 391.335 164.008 391.33 164.372C391.33 164.675 391.399 164.938 391.536 165.16C391.678 165.383 391.87 165.572 392.112 165.729C392.353 165.88 392.621 166.008 392.914 166.112C393.208 166.216 393.504 166.304 393.802 166.375L395.165 166.716C395.715 166.844 396.243 167.017 396.749 167.234C397.261 167.452 397.718 167.727 398.12 168.058C398.527 168.39 398.849 168.79 399.086 169.258C399.323 169.727 399.441 170.276 399.441 170.906C399.441 171.758 399.223 172.509 398.788 173.158C398.352 173.802 397.722 174.306 396.898 174.67C396.079 175.03 395.087 175.21 393.923 175.21C392.791 175.21 391.808 175.035 390.975 174.685C390.147 174.334 389.498 173.823 389.029 173.151C388.565 172.478 388.314 171.659 388.276 170.693H390.869C390.906 171.2 391.063 171.621 391.337 171.957C391.612 172.293 391.969 172.544 392.41 172.71C392.855 172.876 393.352 172.959 393.901 172.959C394.474 172.959 394.976 172.874 395.407 172.703C395.843 172.528 396.183 172.286 396.43 171.979C396.676 171.666 396.801 171.302 396.806 170.885C396.801 170.506 396.69 170.194 396.472 169.947C396.254 169.696 395.949 169.488 395.556 169.322C395.168 169.152 394.713 169 394.192 168.868L392.538 168.442C391.34 168.134 390.393 167.668 389.697 167.043C389.005 166.413 388.66 165.577 388.66 164.535C388.66 163.678 388.892 162.928 389.356 162.284C389.825 161.64 390.461 161.141 391.266 160.785C392.071 160.426 392.983 160.246 394.001 160.246C395.033 160.246 395.937 160.426 396.714 160.785C397.495 161.141 398.108 161.635 398.553 162.27C398.998 162.9 399.228 163.624 399.242 164.443H396.707ZM392.41 155.97L393.852 157.788L395.293 155.97H397.545V156.07L394.86 159.138H392.85L390.158 156.07V155.97H392.41ZM405.79 174.99V160.445H415.25V162.653H408.425V166.602H414.76V168.811H408.425V172.781H415.307V174.99H405.79ZM433.892 160.445V174.99H431.548L424.694 165.082H424.574V174.99H421.939V160.445H424.297L431.143 170.359H431.271V160.445H433.892ZM446.501 160.445H449.115V170.672C449.11 171.609 448.911 172.417 448.518 173.094C448.125 173.766 447.576 174.284 446.871 174.649C446.17 175.009 445.353 175.189 444.42 175.189C443.568 175.189 442.801 175.037 442.119 174.734C441.442 174.427 440.905 173.972 440.507 173.371C440.109 172.769 439.911 172.021 439.911 171.126H442.531C442.536 171.519 442.621 171.858 442.787 172.142C442.957 172.426 443.192 172.644 443.49 172.795C443.788 172.947 444.132 173.023 444.52 173.023C444.941 173.023 445.299 172.935 445.592 172.76C445.886 172.58 446.108 172.315 446.26 171.964C446.416 171.614 446.497 171.183 446.501 170.672V160.445ZM455.974 174.99V160.445H465.434V162.653H458.609V166.602H464.944V168.811H458.609V172.781H465.491V174.99H455.974Z" fill="#578763"/>
<path d="M992.179 288.099C992.061 287.716 991.897 287.373 991.689 287.07C991.485 286.762 991.239 286.499 990.95 286.281C990.666 286.063 990.339 285.9 989.97 285.791C989.601 285.678 989.198 285.621 988.763 285.621C987.982 285.621 987.286 285.817 986.675 286.21C986.064 286.603 985.583 287.181 985.233 287.943C984.887 288.701 984.714 289.624 984.714 290.713C984.714 291.812 984.887 292.742 985.233 293.504C985.579 294.267 986.059 294.847 986.675 295.244C987.29 295.637 988.005 295.834 988.82 295.834C989.558 295.834 990.197 295.692 990.737 295.408C991.282 295.124 991.701 294.721 991.994 294.2C992.288 293.675 992.435 293.059 992.435 292.354L993.031 292.446H989.082V290.386H994.984V292.134C994.984 293.379 994.719 294.456 994.189 295.365C993.659 296.274 992.929 296.975 992.001 297.467C991.073 297.955 990.008 298.199 988.805 298.199C987.465 298.199 986.289 297.898 985.276 297.297C984.267 296.691 983.479 295.831 982.911 294.719C982.347 293.601 982.065 292.276 982.065 290.741C982.065 289.567 982.231 288.518 982.562 287.595C982.899 286.672 983.367 285.888 983.969 285.244C984.57 284.596 985.276 284.103 986.085 283.767C986.895 283.426 987.776 283.256 988.727 283.256C989.532 283.256 990.283 283.374 990.979 283.611C991.675 283.843 992.293 284.174 992.832 284.605C993.377 285.036 993.824 285.547 994.175 286.139C994.525 286.731 994.755 287.384 994.864 288.099H992.179ZM1014.53 290.727C1014.53 292.295 1014.24 293.637 1013.65 294.754C1013.07 295.867 1012.27 296.719 1011.26 297.311C1010.26 297.903 1009.12 298.199 1007.85 298.199C1006.57 298.199 1005.43 297.903 1004.42 297.311C1003.42 296.714 1002.62 295.86 1002.04 294.747C1001.45 293.63 1001.16 292.29 1001.16 290.727C1001.16 289.16 1001.45 287.82 1002.04 286.707C1002.62 285.59 1003.42 284.735 1004.42 284.143C1005.43 283.552 1006.57 283.256 1007.85 283.256C1009.12 283.256 1010.26 283.552 1011.26 284.143C1012.27 284.735 1013.07 285.59 1013.65 286.707C1014.24 287.82 1014.53 289.16 1014.53 290.727ZM1011.88 290.727C1011.88 289.624 1011.71 288.694 1011.36 287.936C1011.02 287.174 1010.55 286.598 1009.94 286.21C1009.34 285.817 1008.64 285.621 1007.85 285.621C1007.06 285.621 1006.36 285.817 1005.75 286.21C1005.15 286.598 1004.67 287.174 1004.32 287.936C1003.98 288.694 1003.81 289.624 1003.81 290.727C1003.81 291.83 1003.98 292.763 1004.32 293.526C1004.67 294.283 1005.15 294.858 1005.75 295.251C1006.36 295.64 1007.06 295.834 1007.85 295.834C1008.64 295.834 1009.34 295.64 1009.94 295.251C1010.55 294.858 1011.02 294.283 1011.36 293.526C1011.71 292.763 1011.88 291.83 1011.88 290.727ZM1019.76 285.663V283.455H1031.36V285.663H1026.87V298H1024.25V285.663H1019.76ZM1049.97 290.727C1049.97 292.295 1049.68 293.637 1049.09 294.754C1048.51 295.867 1047.71 296.719 1046.7 297.311C1045.7 297.903 1044.56 298.199 1043.29 298.199C1042.01 298.199 1040.87 297.903 1039.86 297.311C1038.86 296.714 1038.07 295.86 1037.48 294.747C1036.9 293.63 1036.6 292.29 1036.6 290.727C1036.6 289.16 1036.9 287.82 1037.48 286.707C1038.07 285.59 1038.86 284.735 1039.86 284.143C1040.87 283.552 1042.01 283.256 1043.29 283.256C1044.56 283.256 1045.7 283.552 1046.7 284.143C1047.71 284.735 1048.51 285.59 1049.09 286.707C1049.68 287.82 1049.97 289.16 1049.97 290.727ZM1047.32 290.727C1047.32 289.624 1047.15 288.694 1046.8 287.936C1046.46 287.174 1045.99 286.598 1045.38 286.21C1044.78 285.817 1044.08 285.621 1043.29 285.621C1042.5 285.621 1041.8 285.817 1041.19 286.21C1040.59 286.598 1040.11 287.174 1039.76 287.936C1039.42 288.694 1039.25 289.624 1039.25 290.727C1039.25 291.83 1039.42 292.763 1039.76 293.526C1040.11 294.283 1040.59 294.858 1041.19 295.251C1041.8 295.64 1042.5 295.834 1043.29 295.834C1044.08 295.834 1044.78 295.64 1045.38 295.251C1045.99 294.858 1046.46 294.283 1046.8 293.526C1047.15 292.763 1047.32 291.83 1047.32 290.727ZM1057.63 283.455L1061.41 294.903H1061.56L1065.34 283.455H1068.24L1063.11 298H1059.86L1054.74 283.455H1057.63ZM1086.37 290.727C1086.37 292.295 1086.08 293.637 1085.49 294.754C1084.91 295.867 1084.11 296.719 1083.1 297.311C1082.1 297.903 1080.96 298.199 1079.69 298.199C1078.41 298.199 1077.27 297.903 1076.26 297.311C1075.26 296.714 1074.46 295.86 1073.88 294.747C1073.29 293.63 1073 292.29 1073 290.727C1073 289.16 1073.29 287.82 1073.88 286.707C1074.46 285.59 1075.26 284.735 1076.26 284.143C1077.27 283.552 1078.41 283.256 1079.69 283.256C1080.96 283.256 1082.1 283.552 1083.1 284.143C1084.11 284.735 1084.91 285.59 1085.49 286.707C1086.08 287.82 1086.37 289.16 1086.37 290.727ZM1083.72 290.727C1083.72 289.624 1083.55 288.694 1083.2 287.936C1082.86 287.174 1082.39 286.598 1081.78 286.21C1081.18 285.817 1080.48 285.621 1079.69 285.621C1078.9 285.621 1078.2 285.817 1077.59 286.21C1076.98 286.598 1076.51 287.174 1076.16 287.936C1075.82 288.694 1075.65 289.624 1075.65 290.727C1075.65 291.83 1075.82 292.763 1076.16 293.526C1076.51 294.283 1076.98 294.858 1077.59 295.251C1078.2 295.64 1078.9 295.834 1079.69 295.834C1080.48 295.834 1081.18 295.64 1081.78 295.251C1082.39 294.858 1082.86 294.283 1083.2 293.526C1083.55 292.763 1083.72 291.83 1083.72 290.727ZM982.435 322V307.455H987.889C989.007 307.455 989.944 307.649 990.702 308.037C991.464 308.425 992.039 308.97 992.428 309.67C992.821 310.366 993.017 311.179 993.017 312.107C993.017 313.039 992.818 313.849 992.42 314.536C992.027 315.217 991.447 315.745 990.68 316.119C989.913 316.489 988.971 316.673 987.854 316.673H983.969V314.486H987.499C988.152 314.486 988.687 314.396 989.104 314.216C989.52 314.031 989.828 313.764 990.027 313.413C990.231 313.058 990.332 312.623 990.332 312.107C990.332 311.59 990.231 311.15 990.027 310.786C989.823 310.416 989.513 310.137 989.097 309.947C988.68 309.753 988.143 309.656 987.484 309.656H985.07V322H982.435ZM989.949 315.409L993.55 322H990.609L987.072 315.409H989.949ZM1005.18 307.455H1007.79V317.682C1007.79 318.619 1007.59 319.427 1007.2 320.104C1006.81 320.776 1006.26 321.295 1005.55 321.659C1004.85 322.019 1004.03 322.199 1003.1 322.199C1002.25 322.199 1001.48 322.047 1000.8 321.744C1000.12 321.437 999.585 320.982 999.187 320.381C998.789 319.779 998.59 319.031 998.59 318.136H1001.21C1001.22 318.529 1001.3 318.868 1001.47 319.152C1001.64 319.436 1001.87 319.654 1002.17 319.805C1002.47 319.957 1002.81 320.033 1003.2 320.033C1003.62 320.033 1003.98 319.945 1004.27 319.77C1004.57 319.59 1004.79 319.325 1004.94 318.974C1005.1 318.624 1005.18 318.193 1005.18 317.682V307.455ZM1014.65 322V307.455H1024.11V309.663H1017.29V313.612H1023.62V315.821H1017.29V319.791H1024.17V322H1014.65ZM1038.71 311.453C1038.64 310.833 1038.36 310.35 1037.87 310.004C1037.38 309.659 1036.75 309.486 1035.97 309.486C1035.42 309.486 1034.94 309.569 1034.55 309.734C1034.16 309.9 1033.86 310.125 1033.65 310.409C1033.44 310.693 1033.33 311.018 1033.33 311.382C1033.33 311.685 1033.4 311.948 1033.54 312.17C1033.68 312.393 1033.87 312.582 1034.11 312.739C1034.35 312.89 1034.62 313.018 1034.91 313.122C1035.21 313.226 1035.5 313.314 1035.8 313.385L1037.17 313.726C1037.71 313.854 1038.24 314.027 1038.75 314.244C1039.26 314.462 1039.72 314.737 1040.12 315.068C1040.53 315.4 1040.85 315.8 1041.09 316.268C1041.32 316.737 1041.44 317.286 1041.44 317.916C1041.44 318.768 1041.22 319.519 1040.79 320.168C1040.35 320.812 1039.72 321.316 1038.9 321.68C1038.08 322.04 1037.09 322.22 1035.92 322.22C1034.79 322.22 1033.81 322.045 1032.98 321.695C1032.15 321.344 1031.5 320.833 1031.03 320.161C1030.57 319.488 1030.31 318.669 1030.28 317.703H1032.87C1032.91 318.21 1033.06 318.631 1033.34 318.967C1033.61 319.304 1033.97 319.554 1034.41 319.72C1034.85 319.886 1035.35 319.969 1035.9 319.969C1036.47 319.969 1036.98 319.884 1037.41 319.713C1037.84 319.538 1038.18 319.296 1038.43 318.989C1038.68 318.676 1038.8 318.312 1038.81 317.895C1038.8 317.516 1038.69 317.204 1038.47 316.957C1038.25 316.706 1037.95 316.498 1037.56 316.332C1037.17 316.162 1036.71 316.01 1036.19 315.878L1034.54 315.452C1033.34 315.144 1032.39 314.678 1031.7 314.053C1031.01 313.423 1030.66 312.587 1030.66 311.545C1030.66 310.688 1030.89 309.938 1031.36 309.294C1031.82 308.65 1032.46 308.151 1033.27 307.795C1034.07 307.436 1034.98 307.256 1036 307.256C1037.03 307.256 1037.94 307.436 1038.71 307.795C1039.5 308.151 1040.11 308.645 1040.55 309.28C1041 309.91 1041.23 310.634 1041.24 311.453H1038.71ZM1034.41 302.98L1035.85 304.798L1037.29 302.98H1039.54V303.08L1036.86 306.148H1034.85L1032.16 303.08V302.98H1034.41ZM1047.79 322V307.455H1057.25V309.663H1050.43V313.612H1056.76V315.821H1050.43V319.791H1057.31V322H1047.79ZM1075.89 307.455V322H1073.55L1066.69 312.092H1066.57V322H1063.94V307.455H1066.3L1073.14 317.369H1073.27V307.455H1075.89ZM1088.5 307.455H1091.12V317.682C1091.11 318.619 1090.91 319.427 1090.52 320.104C1090.13 320.776 1089.58 321.295 1088.87 321.659C1088.17 322.019 1087.35 322.199 1086.42 322.199C1085.57 322.199 1084.8 322.047 1084.12 321.744C1083.44 321.437 1082.9 320.982 1082.51 320.381C1082.11 319.779 1081.91 319.031 1081.91 318.136H1084.53C1084.54 318.529 1084.62 318.868 1084.79 319.152C1084.96 319.436 1085.19 319.654 1085.49 319.805C1085.79 319.957 1086.13 320.033 1086.52 320.033C1086.94 320.033 1087.3 319.945 1087.59 319.77C1087.89 319.59 1088.11 319.325 1088.26 318.974C1088.42 318.624 1088.5 318.193 1088.5 317.682V307.455ZM1097.97 322V307.455H1107.43V309.663H1100.61V313.612H1106.94V315.821H1100.61V319.791H1107.49V322H1097.97Z" fill="#CD4358"/>
<path d="M342 214.99H356V527.99H342V214.99Z" fill="white"/>
<path d="M342.5 217.49H356.5V528.49H342.5V217.49Z" fill="url(#paint4_linear)"/>
<path d="M603 213.99H617V526.99H603V213.99Z" fill="white"/>
<path d="M603 213.99H617V526.99H603V213.99Z" fill="url(#paint5_linear)"/>
<circle cx="610.5" cy="214.49" r="9.5" fill="white" stroke="#7FC591" stroke-width="4"/>
<rect x="226" y="157.99" width="15" height="373" fill="url(#paint6_linear)"/>
<path d="M203 235.99L351.5 212.99" stroke="#7FC591" stroke-width="3"/>
<circle cx="350.5" cy="211.49" r="9.5" fill="white" stroke="#7FC591" stroke-width="4"/>
<path d="M113.324 10.1818C113.324 11.4356 113.089 12.5095 112.619 13.4034C112.153 14.2936 111.517 14.9754 110.71 15.4489C109.907 15.9223 108.996 16.1591 107.977 16.1591C106.958 16.1591 106.045 15.9223 105.238 15.4489C104.435 14.9716 103.799 14.2879 103.329 13.3977C102.863 12.5038 102.63 11.4318 102.63 10.1818C102.63 8.92803 102.863 7.85606 103.329 6.96591C103.799 6.07197 104.435 5.38826 105.238 4.91477C106.045 4.44129 106.958 4.20455 107.977 4.20455C108.996 4.20455 109.907 4.44129 110.71 4.91477C111.517 5.38826 112.153 6.07197 112.619 6.96591C113.089 7.85606 113.324 8.92803 113.324 10.1818ZM111.204 10.1818C111.204 9.29924 111.066 8.55492 110.789 7.94886C110.517 7.33902 110.138 6.87879 109.653 6.56818C109.168 6.25379 108.61 6.09659 107.977 6.09659C107.344 6.09659 106.786 6.25379 106.301 6.56818C105.816 6.87879 105.435 7.33902 105.159 7.94886C104.886 8.55492 104.75 9.29924 104.75 10.1818C104.75 11.0644 104.886 11.8106 105.159 12.4205C105.435 13.0265 105.816 13.4867 106.301 13.8011C106.786 14.1117 107.344 14.267 107.977 14.267C108.61 14.267 109.168 14.1117 109.653 13.8011C110.138 13.4867 110.517 13.0265 110.789 12.4205C111.066 11.8106 111.204 11.0644 111.204 10.1818ZM128.477 8.28977H126.352C126.291 7.94129 126.179 7.63258 126.016 7.36364C125.854 7.09091 125.651 6.85985 125.409 6.67045C125.166 6.48106 124.89 6.33901 124.579 6.24432C124.272 6.14583 123.941 6.09659 123.585 6.09659C122.952 6.09659 122.391 6.25568 121.903 6.57386C121.414 6.88826 121.032 7.35038 120.755 7.96023C120.479 8.56629 120.34 9.30682 120.34 10.1818C120.34 11.072 120.479 11.822 120.755 12.4318C121.035 13.0379 121.418 13.4962 121.903 13.8068C122.391 14.1136 122.95 14.267 123.579 14.267C123.927 14.267 124.253 14.2216 124.556 14.1307C124.863 14.036 125.138 13.8977 125.38 13.7159C125.626 13.5341 125.833 13.3106 125.999 13.0455C126.17 12.7803 126.287 12.4773 126.352 12.1364L128.477 12.1477C128.397 12.7008 128.225 13.2197 127.96 13.7045C127.698 14.1894 127.355 14.6174 126.931 14.9886C126.507 15.3561 126.011 15.6439 125.443 15.8523C124.874 16.0568 124.244 16.1591 123.551 16.1591C122.528 16.1591 121.615 15.9223 120.812 15.4489C120.009 14.9754 119.376 14.2917 118.914 13.3977C118.452 12.5038 118.221 11.4318 118.221 10.1818C118.221 8.92803 118.454 7.85606 118.92 6.96591C119.386 6.07197 120.02 5.38826 120.823 4.91477C121.626 4.44129 122.535 4.20455 123.551 4.20455C124.198 4.20455 124.801 4.29545 125.357 4.47727C125.914 4.65909 126.41 4.92614 126.846 5.27841C127.282 5.62689 127.64 6.05492 127.92 6.5625C128.204 7.06629 128.39 7.64205 128.477 8.28977ZM122.397 0.78409L123.551 2.23864L124.704 0.78409H126.505V0.863636L124.357 3.31818H122.749L120.596 0.863636V0.78409H122.397ZM133.607 16V4.36364H141.175V6.13068H135.715V9.28977H140.783V11.0568H135.715V14.233H141.221V16H133.607ZM146.526 16V4.36364H148.634V9.71023H148.776L153.316 4.36364H155.889L151.389 9.58523L155.929 16H153.395L149.924 11.0114L148.634 12.5341V16H146.526ZM162.662 4.36364V16H160.554V4.36364H162.662ZM169.701 4.36364L172.73 13.5227H172.849L175.872 4.36364H178.19L174.088 16H171.486L167.389 4.36364H169.701ZM183.058 16H180.808L184.904 4.36364H187.507L191.609 16H189.359L186.251 6.75H186.16L183.058 16ZM183.132 11.4375H189.268V13.1307H183.132V11.4375ZM205.904 4.36364V16H204.029L198.546 8.07386H198.449V16H196.341V4.36364H198.228L203.705 12.2955H203.807V4.36364H205.904ZM215.992 4.36364H218.083V12.5455C218.079 13.2955 217.92 13.9413 217.605 14.483C217.291 15.0208 216.852 15.4356 216.287 15.7273C215.727 16.0152 215.073 16.1591 214.327 16.1591C213.645 16.1591 213.032 16.0379 212.486 15.7955C211.944 15.5492 211.514 15.1856 211.196 14.7045C210.878 14.2235 210.719 13.625 210.719 12.9091H212.816C212.819 13.2235 212.888 13.4943 213.02 13.7216C213.157 13.9489 213.344 14.1231 213.583 14.2443C213.821 14.3655 214.096 14.4261 214.407 14.4261C214.744 14.4261 215.03 14.3561 215.264 14.2159C215.499 14.072 215.677 13.8598 215.799 13.5795C215.924 13.2992 215.988 12.9545 215.992 12.5455V4.36364ZM225.064 16H222.814L226.911 4.36364H229.513L233.615 16H231.365L228.257 6.75H228.166L225.064 16ZM225.138 11.4375H231.274V13.1307H225.138V11.4375Z" fill="#363145"/>
<defs>
<linearGradient id="paint0_linear" x1="207" y1="238.99" x2="207" y2="526.99" gradientUnits="userSpaceOnUse">
<stop stop-color="#7FC591" stop-opacity="0.4"/>
<stop offset="1" stop-color="#7FC591" stop-opacity="0"/>
</linearGradient>
<linearGradient id="paint1_linear" x1="377.5" y1="265.244" x2="377.5" y2="527.244" gradientUnits="userSpaceOnUse">
<stop stop-color="#CD4358" stop-opacity="0.4"/>
<stop offset="1" stop-color="#CD4358" stop-opacity="0"/>
</linearGradient>
<linearGradient id="paint2_linear" x1="637.5" y1="285.303" x2="637.5" y2="526.303" gradientUnits="userSpaceOnUse">
<stop stop-color="#CD4358" stop-opacity="0.4"/>
<stop offset="1" stop-color="#CD4358" stop-opacity="0"/>
</linearGradient>
<linearGradient id="paint3_linear" x1="985" y1="372.543" x2="985" y2="529.543" gradientUnits="userSpaceOnUse">
<stop stop-color="#CD4358" stop-opacity="0.4"/>
<stop offset="1" stop-color="#CD4358" stop-opacity="0"/>
</linearGradient>
<linearGradient id="paint4_linear" x1="349.5" y1="217.49" x2="349.5" y2="528.49" gradientUnits="userSpaceOnUse">
<stop stop-color="#7FC591" stop-opacity="0.4"/>
<stop offset="1" stop-color="#7FC591" stop-opacity="0"/>
</linearGradient>
<linearGradient id="paint5_linear" x1="610" y1="213.99" x2="610" y2="526.99" gradientUnits="userSpaceOnUse">
<stop stop-color="#7FC591" stop-opacity="0.4"/>
<stop offset="1" stop-color="#7FC591" stop-opacity="0"/>
</linearGradient>
<linearGradient id="paint6_linear" x1="233.5" y1="156.927" x2="233.5" y2="529.927" gradientUnits="userSpaceOnUse">
<stop stop-color="#CD4358" stop-opacity="0.4"/>
<stop offset="1" stop-color="#CD4358" stop-opacity="0"/>
</linearGradient>
</defs>
</svg>
