<svg width="48" height="223" viewBox="0 0 48 223" fill="none" xmlns="http://www.w3.org/2000/svg">
<line x1="23.5" y1="-2.15617e-08" x2="23.5" y2="223" stroke="url(#paint0_linear)"/>
<path d="M10 128C10 125.239 12.2386 123 15 123H32C34.7614 123 37 125.239 37 128V154C37 156.761 34.7614 159 32 159H15C12.2386 159 10 156.761 10 154V128Z" fill="#222222"/>
<path d="M3 138.75C1.75736 138.75 0.75 139.757 0.75 141C0.75 142.243 1.75736 143.25 3 143.25C4.24264 143.25 5.25 142.243 5.25 141C5.25 139.757 4.24264 138.75 3 138.75Z" fill="white" stroke="#222222" stroke-width="1.5"/>
<path d="M45 138.75C43.7574 138.75 42.75 139.757 42.75 141C42.75 142.243 43.7574 143.25 45 143.25C46.2426 143.25 47.25 142.243 47.25 141C47.25 139.757 46.2426 138.75 45 138.75Z" fill="white" stroke="white" stroke-width="1.5"/>
<path d="M3 128.75C1.75736 128.75 0.75 129.757 0.75 131C0.75 132.243 1.75736 133.25 3 133.25C4.24264 133.25 5.25 132.243 5.25 131C5.25 129.757 4.24264 128.75 3 128.75Z" fill="#222222" stroke="#222222" stroke-width="1.5"/>
<path d="M3 147.75C1.75736 147.75 0.75 148.757 0.75 150C0.75 151.243 1.75736 152.25 3 152.25C4.24264 152.25 5.25 151.243 5.25 150C5.25 148.757 4.24264 147.75 3 147.75Z" fill="white" stroke="#222222" stroke-width="1.5"/>
<path d="M10 128C10 125.239 12.2386 123 15 123H32C34.7614 123 37 125.239 37 128V154C37 156.761 34.7614 159 32 159H15C12.2386 159 10 156.761 10 154V128Z" fill="#222222"/>
<path d="M3 138.75C1.75736 138.75 0.75 139.757 0.75 141C0.75 142.243 1.75736 143.25 3 143.25C4.24264 143.25 5.25 142.243 5.25 141C5.25 139.757 4.24264 138.75 3 138.75Z" fill="white" stroke="#222222" stroke-width="1.5"/>
<path d="M3 128.75C1.75736 128.75 0.75 129.757 0.75 131C0.75 132.243 1.75736 133.25 3 133.25C4.24264 133.25 5.25 132.243 5.25 131C5.25 129.757 4.24264 128.75 3 128.75Z" fill="#222222" stroke="#222222" stroke-width="1.5"/>
<path d="M3 147.75C1.75736 147.75 0.75 148.757 0.75 150C0.75 151.243 1.75736 152.25 3 152.25C4.24264 152.25 5.25 151.243 5.25 150C5.25 148.757 4.24264 147.75 3 147.75Z" fill="white" stroke="#222222" stroke-width="1.5"/>
<defs>
<linearGradient id="paint0_linear" x1="23" y1="260.558" x2="23" y2="-57.2986" gradientUnits="userSpaceOnUse">
<stop offset="0.132007" stop-color="#222222" stop-opacity="0"/>
<stop offset="0.289621" stop-color="#222222"/>
<stop offset="0.390625" stop-color="#222222"/>
<stop offset="0.435913" stop-color="#222222"/>
<stop offset="0.791667" stop-color="#222222" stop-opacity="0"/>
</linearGradient>
</defs>
</svg>
