<svg width="1219" height="677" viewBox="0 0 1219 677" fill="none" xmlns="http://www.w3.org/2000/svg">
<line x1="173" y1="208.5" x2="1129" y2="208.5" stroke="#222222" stroke-opacity="0.1"/>
<path d="M230.5 154L372.5 260L632 281C632 281 780 316.914 922 350.5C982.841 364.89 1144.5 414 1144.5 414" stroke="#CD4358" stroke-width="3"/>
<rect x="221.5" y="246.5" width="15" height="280" fill="white"/>
<line x1="173" y1="102.5" x2="1129" y2="102.5" stroke="#222222" stroke-opacity="0.1"/>
<path d="M159 525L1129 525" stroke="#222222" stroke-width="2"/>
<path d="M160 524L160 61" stroke="#222222" stroke-width="2"/>
<line x1="173" y1="420.5" x2="1129" y2="420.5" stroke="#222222" stroke-opacity="0.1"/>
<line x1="173" y1="314.5" x2="1129" y2="314.5" stroke="#222222" stroke-opacity="0.1"/>
<path d="M44.4143 202.273L46.6857 209.142H46.7751L49.0422 202.273H50.7808L47.7041 211H45.7524L42.68 202.273H44.4143ZM54.3303 211V202.273H60.0065V203.598H55.9113V205.967H59.7124V207.293H55.9113V209.675H60.0406V211H54.3303ZM64.0194 211V202.273H67.2921C67.9626 202.273 68.5251 202.389 68.9796 202.622C69.437 202.855 69.7822 203.182 70.0151 203.602C70.2509 204.02 70.3688 204.507 70.3688 205.064C70.3688 205.624 70.2495 206.109 70.0109 206.521C69.7751 206.93 69.4271 207.247 68.9668 207.472C68.5066 207.693 67.9413 207.804 67.2708 207.804H64.9398V206.491H67.0577C67.4498 206.491 67.7708 206.437 68.0208 206.33C68.2708 206.219 68.4555 206.058 68.5748 205.848C68.6969 205.635 68.758 205.374 68.758 205.064C68.758 204.754 68.6969 204.49 68.5748 204.271C68.4526 204.05 68.2666 203.882 68.0166 203.768C67.7666 203.652 67.4441 203.594 67.0492 203.594H65.6004V211H64.0194ZM68.5279 207.045L70.6884 211H68.9242L66.8021 207.045H68.5279ZM73.6275 202.273H75.413L77.5479 206.134H77.6332L79.7681 202.273H81.5536L78.3789 207.744V211H76.8022V207.744L73.6275 202.273ZM90.4499 211V202.273H92.0308V205.967H96.0749V202.273H97.6601V211H96.0749V207.293H92.0308V211H90.4499ZM103.361 202.273V211H101.78V202.273H103.361ZM113.319 205.06C113.248 204.83 113.15 204.624 113.025 204.442C112.903 204.257 112.755 204.099 112.582 203.969C112.411 203.838 112.215 203.74 111.994 203.675C111.772 203.607 111.531 203.572 111.269 203.572C110.801 203.572 110.383 203.69 110.017 203.926C109.65 204.162 109.362 204.509 109.151 204.966C108.944 205.42 108.84 205.974 108.84 206.628C108.84 207.287 108.944 207.845 109.151 208.303C109.359 208.76 109.647 209.108 110.017 209.347C110.386 209.582 110.815 209.7 111.303 209.7C111.747 209.7 112.13 209.615 112.454 209.445C112.781 209.274 113.032 209.033 113.208 208.72C113.384 208.405 113.473 208.036 113.473 207.612L113.83 207.668H111.461V206.432H115.002V207.48C115.002 208.227 114.843 208.874 114.525 209.419C114.207 209.964 113.769 210.385 113.213 210.68C112.656 210.973 112.017 211.119 111.295 211.119C110.491 211.119 109.785 210.939 109.177 210.578C108.572 210.214 108.099 209.699 107.758 209.031C107.42 208.361 107.251 207.565 107.251 206.645C107.251 205.94 107.35 205.311 107.549 204.757C107.751 204.203 108.032 203.733 108.393 203.347C108.754 202.957 109.177 202.662 109.663 202.46C110.149 202.256 110.677 202.153 111.248 202.153C111.731 202.153 112.181 202.224 112.599 202.366C113.017 202.506 113.387 202.705 113.711 202.963C114.038 203.222 114.306 203.528 114.517 203.884C114.727 204.239 114.865 204.631 114.93 205.06H113.319ZM118.931 211V202.273H120.512V205.967H124.556V202.273H126.141V211H124.556V207.293H120.512V211H118.931Z" fill="#8A81A5"/>
<path d="M29.8739 94.2727H31.4549V99.9744C31.4549 100.599 31.3072 101.149 31.0117 101.624C30.7191 102.098 30.3072 102.469 29.7759 102.736C29.2447 103 28.6239 103.132 27.9137 103.132C27.2006 103.132 26.5785 103 26.0472 102.736C25.516 102.469 25.104 102.098 24.8114 101.624C24.5188 101.149 24.3725 100.599 24.3725 99.9744V94.2727H25.9535V99.8423C25.9535 100.206 26.033 100.53 26.1921 100.814C26.354 101.098 26.5813 101.321 26.8739 101.483C27.1665 101.642 27.5131 101.722 27.9137 101.722C28.3143 101.722 28.6609 101.642 28.9535 101.483C29.2489 101.321 29.4762 101.098 29.6353 100.814C29.7944 100.53 29.8739 100.206 29.8739 99.8423V94.2727ZM42.7452 94.2727V103H41.3389L37.2267 97.0554H37.1543V103H35.5733V94.2727H36.9881L41.096 100.222H41.1727V94.2727H42.7452ZM46.8678 103V94.2727H50.1406C50.811 94.2727 51.3735 94.3892 51.8281 94.6222C52.2854 94.8551 52.6306 95.1818 52.8636 95.6023C53.0994 96.0199 53.2173 96.5071 53.2173 97.0639C53.2173 97.6236 53.0979 98.1094 52.8593 98.5213C52.6235 98.9304 52.2755 99.2472 51.8153 99.4716C51.355 99.6932 50.7897 99.804 50.1192 99.804H47.7883V98.4915H49.9062C50.2982 98.4915 50.6192 98.4375 50.8692 98.3295C51.1192 98.2187 51.3039 98.0582 51.4232 97.848C51.5454 97.6349 51.6065 97.3736 51.6065 97.0639C51.6065 96.7543 51.5454 96.4901 51.4232 96.2713C51.3011 96.0497 51.115 95.8821 50.865 95.7685C50.615 95.652 50.2925 95.5938 49.8977 95.5938H48.4488V103H46.8678ZM51.3763 99.0455L53.5369 103H51.7727L49.6505 99.0455H51.3763ZM57.0725 103V94.2727H62.7487V95.598H58.6535V97.9673H62.4546V99.2926H58.6535V101.675H62.7827V103H57.0725ZM67.8823 103H66.1948L69.2673 94.2727H71.219L74.2957 103H72.6082L70.2772 96.0625H70.209L67.8823 103ZM67.9377 99.5781H72.54V100.848H67.9377V99.5781ZM77.8452 103V94.2727H79.4261V101.675H83.2699V103H77.8452ZM88.623 94.2727V103H87.042V94.2727H88.623ZM97.4779 96.6719C97.4381 96.2997 97.2705 96.0099 96.9751 95.8026C96.6825 95.5952 96.3018 95.4915 95.833 95.4915C95.5035 95.4915 95.2208 95.5412 94.985 95.6406C94.7492 95.7401 94.5688 95.875 94.4438 96.0455C94.3188 96.2159 94.2549 96.4105 94.2521 96.6293C94.2521 96.8111 94.2933 96.9687 94.3756 97.1023C94.4609 97.2358 94.5759 97.3494 94.7208 97.4432C94.8657 97.5341 95.0262 97.6108 95.2023 97.6733C95.3785 97.7358 95.556 97.7884 95.735 97.831L96.5532 98.0355C96.8827 98.1122 97.1995 98.2159 97.5035 98.3466C97.8103 98.4773 98.0844 98.642 98.3259 98.8409C98.5702 99.0398 98.7634 99.2798 98.9055 99.5611C99.0475 99.8423 99.1185 100.172 99.1185 100.55C99.1185 101.061 98.9879 101.511 98.7265 101.901C98.4651 102.287 98.0873 102.589 97.593 102.808C97.1015 103.024 96.5063 103.132 95.8075 103.132C95.1285 103.132 94.539 103.027 94.039 102.817C93.5418 102.607 93.1526 102.3 92.8714 101.896C92.593 101.493 92.4424 101.001 92.4197 100.422H93.9751C93.9978 100.726 94.0916 100.979 94.2563 101.18C94.4211 101.382 94.6356 101.533 94.8998 101.632C95.1668 101.732 95.4651 101.781 95.7947 101.781C96.1384 101.781 96.4396 101.73 96.6981 101.628C96.9594 101.523 97.164 101.378 97.3117 101.193C97.4594 101.006 97.5347 100.787 97.5376 100.537C97.5347 100.31 97.468 100.122 97.3373 99.9744C97.2066 99.8239 97.0234 99.6989 96.7876 99.5994C96.5546 99.4972 96.2819 99.4062 95.9694 99.3267L94.9765 99.071C94.2577 98.8864 93.6896 98.6065 93.2719 98.2315C92.8572 97.8537 92.6498 97.3523 92.6498 96.7273C92.6498 96.2131 92.789 95.7628 93.0674 95.3764C93.3487 94.9901 93.7308 94.6903 94.2137 94.4773C94.6967 94.2614 95.2435 94.1534 95.8543 94.1534C96.4737 94.1534 97.0163 94.2614 97.4822 94.4773C97.9509 94.6903 98.3188 94.9872 98.5859 95.3679C98.8529 95.7457 98.9907 96.1804 98.9992 96.6719H97.4779ZM102.544 95.598V94.2727H109.508V95.598H106.81V103H105.242V95.598H102.544ZM114.831 94.2727V103H113.25V94.2727H114.831ZM126.413 97.2173H124.819C124.774 96.956 124.69 96.7244 124.568 96.5227C124.446 96.3182 124.294 96.1449 124.112 96.0028C123.93 95.8608 123.723 95.7543 123.49 95.6832C123.26 95.6094 123.011 95.5724 122.744 95.5724C122.27 95.5724 121.849 95.6918 121.483 95.9304C121.116 96.1662 120.829 96.5128 120.622 96.9702C120.414 97.4247 120.311 97.9801 120.311 98.6364C120.311 99.304 120.414 99.8665 120.622 100.324C120.832 100.778 121.119 101.122 121.483 101.355C121.849 101.585 122.268 101.7 122.74 101.7C123.001 101.7 123.245 101.666 123.473 101.598C123.703 101.527 123.909 101.423 124.091 101.287C124.275 101.151 124.43 100.983 124.555 100.784C124.683 100.585 124.771 100.358 124.819 100.102L126.413 100.111C126.353 100.526 126.224 100.915 126.025 101.278C125.829 101.642 125.572 101.963 125.254 102.241C124.936 102.517 124.564 102.733 124.137 102.889C123.711 103.043 123.238 103.119 122.718 103.119C121.951 103.119 121.267 102.942 120.664 102.587C120.062 102.232 119.588 101.719 119.241 101.048C118.895 100.378 118.721 99.5739 118.721 98.6364C118.721 97.696 118.896 96.892 119.245 96.2244C119.595 95.554 120.071 95.0412 120.673 94.6861C121.275 94.331 121.957 94.1534 122.718 94.1534C123.204 94.1534 123.656 94.2216 124.074 94.358C124.491 94.4943 124.863 94.6946 125.19 94.9588C125.517 95.2202 125.785 95.5412 125.995 95.9219C126.208 96.2997 126.348 96.7315 126.413 97.2173Z" fill="#8A81A5"/>
<path d="M90.4499 314V305.273H92.0308V308.967H96.0749V305.273H97.6601V314H96.0749V310.293H92.0308V314H90.4499ZM103.361 305.273V314H101.78V305.273H103.361ZM113.319 308.06C113.248 307.83 113.15 307.624 113.025 307.442C112.903 307.257 112.755 307.099 112.582 306.969C112.411 306.838 112.215 306.74 111.994 306.675C111.772 306.607 111.531 306.572 111.269 306.572C110.801 306.572 110.383 306.69 110.017 306.926C109.65 307.162 109.362 307.509 109.151 307.966C108.944 308.42 108.84 308.974 108.84 309.628C108.84 310.287 108.944 310.845 109.151 311.303C109.359 311.76 109.647 312.108 110.017 312.347C110.386 312.582 110.815 312.7 111.303 312.7C111.747 312.7 112.13 312.615 112.454 312.445C112.781 312.274 113.032 312.033 113.208 311.72C113.384 311.405 113.473 311.036 113.473 310.612L113.83 310.668H111.461V309.432H115.002V310.48C115.002 311.227 114.843 311.874 114.525 312.419C114.207 312.964 113.769 313.385 113.213 313.68C112.656 313.973 112.017 314.119 111.295 314.119C110.491 314.119 109.785 313.939 109.177 313.578C108.572 313.214 108.099 312.699 107.758 312.031C107.42 311.361 107.251 310.565 107.251 309.645C107.251 308.94 107.35 308.311 107.549 307.757C107.751 307.203 108.032 306.733 108.393 306.347C108.754 305.957 109.177 305.662 109.663 305.46C110.149 305.256 110.677 305.153 111.248 305.153C111.731 305.153 112.181 305.224 112.599 305.366C113.017 305.506 113.387 305.705 113.711 305.963C114.038 306.222 114.306 306.528 114.517 306.884C114.727 307.239 114.865 307.631 114.93 308.06H113.319ZM118.931 314V305.273H120.512V308.967H124.556V305.273H126.141V314H124.556V310.293H120.512V314H118.931Z" fill="#8A81A5"/>
<path d="M44.2639 410.273H46.1986L48.7895 416.597H48.8918L51.4827 410.273H53.4173V419H51.9003V413.004H51.8193L49.4074 418.974H48.2739L45.8619 412.991H45.781V419H44.2639V410.273ZM65.3372 414.636C65.3372 415.577 65.1611 416.382 64.8088 417.053C64.4594 417.72 63.9821 418.232 63.377 418.587C62.7747 418.942 62.0915 419.119 61.3273 419.119C60.5631 419.119 59.8784 418.942 59.2733 418.587C58.671 418.229 58.1937 417.716 57.8415 417.048C57.492 416.378 57.3173 415.574 57.3173 414.636C57.3173 413.696 57.492 412.892 57.8415 412.224C58.1937 411.554 58.671 411.041 59.2733 410.686C59.8784 410.331 60.5631 410.153 61.3273 410.153C62.0915 410.153 62.7747 410.331 63.377 410.686C63.9821 411.041 64.4594 411.554 64.8088 412.224C65.1611 412.892 65.3372 413.696 65.3372 414.636ZM63.7477 414.636C63.7477 413.974 63.644 413.416 63.4366 412.962C63.2321 412.504 62.948 412.159 62.5844 411.926C62.2207 411.69 61.8017 411.572 61.3273 411.572C60.8528 411.572 60.4338 411.69 60.0702 411.926C59.7065 412.159 59.421 412.504 59.2136 412.962C59.0091 413.416 58.9068 413.974 58.9068 414.636C58.9068 415.298 59.0091 415.858 59.2136 416.315C59.421 416.77 59.7065 417.115 60.0702 417.351C60.4338 417.584 60.8528 417.7 61.3273 417.7C61.8017 417.7 62.2207 417.584 62.5844 417.351C62.948 417.115 63.2321 416.77 63.4366 416.315C63.644 415.858 63.7477 415.298 63.7477 414.636ZM72.1893 419H69.2319V410.273H72.2489C73.1154 410.273 73.8597 410.447 74.4819 410.797C75.1069 411.143 75.587 411.642 75.9222 412.293C76.2575 412.943 76.4251 413.722 76.4251 414.628C76.4251 415.537 76.256 416.318 75.918 416.972C75.5827 417.625 75.0984 418.126 74.4648 418.476C73.8342 418.825 73.0756 419 72.1893 419ZM70.8129 417.632H72.1126C72.7205 417.632 73.2276 417.521 73.6339 417.3C74.0401 417.075 74.3455 416.741 74.5501 416.298C74.7546 415.852 74.8569 415.295 74.8569 414.628C74.8569 413.96 74.7546 413.406 74.5501 412.966C74.3455 412.523 74.043 412.192 73.6424 411.973C73.2447 411.751 72.7504 411.641 72.1594 411.641H70.8129V417.632ZM80.3272 419V410.273H86.0033V411.598H81.9082V413.967H85.7093V415.293H81.9082V417.675H86.0374V419H80.3272ZM90.0163 419V410.273H93.289C93.9594 410.273 94.5219 410.389 94.9765 410.622C95.4339 410.855 95.779 411.182 96.012 411.602C96.2478 412.02 96.3657 412.507 96.3657 413.064C96.3657 413.624 96.2464 414.109 96.0077 414.521C95.7719 414.93 95.4239 415.247 94.9637 415.472C94.5035 415.693 93.9381 415.804 93.2677 415.804H90.9367V414.491H93.0546C93.4467 414.491 93.7677 414.437 94.0177 414.33C94.2677 414.219 94.4523 414.058 94.5717 413.848C94.6938 413.635 94.7549 413.374 94.7549 413.064C94.7549 412.754 94.6938 412.49 94.5717 412.271C94.4495 412.05 94.2634 411.882 94.0134 411.768C93.7634 411.652 93.441 411.594 93.0461 411.594H91.5972V419H90.0163ZM94.5248 415.045L96.6853 419H94.9211L92.7989 415.045H94.5248ZM101.342 419H99.6542L102.727 410.273H104.678L107.755 419H106.068L103.737 412.062H103.668L101.342 419ZM101.397 415.578H105.999V416.848H101.397V415.578ZM109.866 411.598V410.273H116.829V411.598H114.132V419H112.564V411.598H109.866ZM120.572 419V410.273H126.248V411.598H122.153V413.967H125.954V415.293H122.153V417.675H126.282V419H120.572Z" fill="#8A81A5"/>
<path d="M95.4514 522V513.273H97.0324V520.675H100.876V522H95.4514ZM112.107 517.636C112.107 518.577 111.931 519.382 111.578 520.053C111.229 520.72 110.752 521.232 110.147 521.587C109.544 521.942 108.861 522.119 108.097 522.119C107.333 522.119 106.648 521.942 106.043 521.587C105.441 521.229 104.963 520.716 104.611 520.048C104.262 519.378 104.087 518.574 104.087 517.636C104.087 516.696 104.262 515.892 104.611 515.224C104.963 514.554 105.441 514.041 106.043 513.686C106.648 513.331 107.333 513.153 108.097 513.153C108.861 513.153 109.544 513.331 110.147 513.686C110.752 514.041 111.229 514.554 111.578 515.224C111.931 515.892 112.107 516.696 112.107 517.636ZM110.517 517.636C110.517 516.974 110.414 516.416 110.206 515.962C110.002 515.504 109.718 515.159 109.354 514.926C108.99 514.69 108.571 514.572 108.097 514.572C107.622 514.572 107.203 514.69 106.84 514.926C106.476 515.159 106.191 515.504 105.983 515.962C105.779 516.416 105.676 516.974 105.676 517.636C105.676 518.298 105.779 518.858 105.983 519.315C106.191 519.77 106.476 520.115 106.84 520.351C107.203 520.584 107.622 520.7 108.097 520.7C108.571 520.7 108.99 520.584 109.354 520.351C109.718 520.115 110.002 519.77 110.206 519.315C110.414 518.858 110.517 518.298 110.517 517.636ZM117.615 522L115.152 513.273H116.853L118.425 519.686H118.506L120.185 513.273H121.732L123.415 519.69H123.492L125.064 513.273H126.765L124.301 522H122.742L120.995 515.876H120.926L119.175 522H117.615Z" fill="#8A81A5"/>
<path d="M95.8097 14V3.81818H102.432V5.36435H97.6542V8.12855H102.089V9.67472H97.6542V12.4538H102.472V14H95.8097ZM108.655 3.81818L110.897 7.54688H110.977L113.229 3.81818H115.332L112.195 8.90909L115.381 14H113.244L110.977 10.2962H110.897L108.63 14H106.502L109.719 8.90909L106.542 3.81818H108.655ZM119.58 14V3.81818H123.398C124.18 3.81818 124.836 3.96401 125.367 4.25568C125.9 4.54735 126.303 4.94839 126.575 5.45881C126.85 5.96591 126.987 6.54261 126.987 7.18892C126.987 7.84186 126.85 8.42187 126.575 8.92898C126.3 9.43608 125.894 9.83546 125.357 10.1271C124.82 10.4155 124.158 10.5597 123.373 10.5597H120.842V9.04332H123.124C123.582 9.04332 123.956 8.96378 124.248 8.80469C124.54 8.6456 124.755 8.42685 124.894 8.14844C125.037 7.87003 125.108 7.55019 125.108 7.18892C125.108 6.82765 125.037 6.50947 124.894 6.23438C124.755 5.95928 124.538 5.7455 124.243 5.59304C123.951 5.43726 123.575 5.35938 123.114 5.35938H121.424V14H119.58ZM131.389 14V3.81818H138.012V5.36435H133.234V8.12855H137.669V9.67472H133.234V12.4538H138.051V14H131.389ZM151.409 7.25355H149.549C149.496 6.94863 149.398 6.6785 149.256 6.44318C149.113 6.20455 148.936 6.00237 148.724 5.83665C148.512 5.67093 148.27 5.54664 147.998 5.46378C147.73 5.3776 147.44 5.33452 147.128 5.33452C146.574 5.33452 146.084 5.47372 145.656 5.75213C145.229 6.02722 144.894 6.43158 144.652 6.9652C144.41 7.4955 144.289 8.14347 144.289 8.90909C144.289 9.68797 144.41 10.3442 144.652 10.8778C144.897 11.4081 145.232 11.8092 145.656 12.081C146.084 12.3494 146.573 12.4837 147.123 12.4837C147.428 12.4837 147.713 12.4439 147.978 12.3643C148.247 12.2815 148.487 12.1605 148.699 12.0014C148.914 11.8423 149.095 11.6468 149.241 11.4148C149.39 11.1828 149.493 10.9176 149.549 10.6193L151.409 10.6293C151.339 11.1132 151.188 11.5672 150.956 11.9915C150.727 12.4157 150.427 12.7902 150.056 13.1151C149.685 13.4366 149.251 13.6884 148.754 13.8707C148.257 14.0497 147.705 14.1392 147.098 14.1392C146.203 14.1392 145.404 13.9321 144.702 13.5178C143.999 13.1035 143.446 12.5052 143.041 11.723C142.637 10.9408 142.435 10.0028 142.435 8.90909C142.435 7.81203 142.639 6.87405 143.046 6.09517C143.454 5.31297 144.009 4.71473 144.712 4.30043C145.414 3.88613 146.21 3.67898 147.098 3.67898C147.665 3.67898 148.192 3.75852 148.679 3.91761C149.166 4.0767 149.601 4.31037 149.982 4.61861C150.363 4.92353 150.676 5.29806 150.921 5.74219C151.17 6.183 151.332 6.68679 151.409 7.25355ZM155.45 5.36435V3.81818H163.574V5.36435H160.427V14H158.597V5.36435H155.45ZM168.017 14H166.048L169.633 3.81818H171.91L175.499 14H173.53L170.811 5.90625H170.731L168.017 14ZM168.081 10.0078H173.451V11.4893H168.081V10.0078ZM177.962 5.36435V3.81818H186.086V5.36435H182.939V14H181.109V5.36435H177.962ZM192.296 3.81818V14H190.452V3.81818H192.296ZM206.192 8.90909C206.192 10.0062 205.986 10.9458 205.575 11.728C205.168 12.5069 204.611 13.1035 203.905 13.5178C203.202 13.9321 202.405 14.1392 201.513 14.1392C200.622 14.1392 199.823 13.9321 199.117 13.5178C198.414 13.1001 197.858 12.5019 197.447 11.723C197.039 10.9408 196.835 10.0028 196.835 8.90909C196.835 7.81203 197.039 6.87405 197.447 6.09517C197.858 5.31297 198.414 4.71473 199.117 4.30043C199.823 3.88613 200.622 3.67898 201.513 3.67898C202.405 3.67898 203.202 3.88613 203.905 4.30043C204.611 4.71473 205.168 5.31297 205.575 6.09517C205.986 6.87405 206.192 7.81203 206.192 8.90909ZM204.337 8.90909C204.337 8.13684 204.216 7.48556 203.974 6.95526C203.736 6.42164 203.404 6.01894 202.98 5.74716C202.556 5.47206 202.067 5.33452 201.513 5.33452C200.96 5.33452 200.471 5.47206 200.047 5.74716C199.623 6.01894 199.289 6.42164 199.048 6.95526C198.809 7.48556 198.69 8.13684 198.69 8.90909C198.69 9.68134 198.809 10.3343 199.048 10.8679C199.289 11.3982 199.623 11.8009 200.047 12.076C200.471 12.3478 200.96 12.4837 201.513 12.4837C202.067 12.4837 202.556 12.3478 202.98 12.076C203.404 11.8009 203.736 11.3982 203.974 10.8679C204.216 10.3343 204.337 9.68134 204.337 8.90909ZM219.103 3.81818V14H217.462L212.664 7.06463H212.58V14H210.736V3.81818H212.386L217.179 10.7585H217.268V3.81818H219.103ZM229.446 6.61719C229.399 6.183 229.204 5.84493 228.859 5.60298C228.518 5.36103 228.074 5.24006 227.527 5.24006C227.142 5.24006 226.813 5.29806 226.537 5.41406C226.262 5.53007 226.052 5.6875 225.906 5.88636C225.76 6.08523 225.686 6.31226 225.682 6.56747C225.682 6.77959 225.73 6.96354 225.827 7.11932C225.926 7.27509 226.06 7.40767 226.229 7.51705C226.398 7.62311 226.586 7.71259 226.791 7.78551C226.997 7.85843 227.204 7.91974 227.412 7.96946L228.367 8.2081C228.751 8.29758 229.121 8.41856 229.476 8.57102C229.834 8.72348 230.153 8.91572 230.435 9.14773C230.72 9.37973 230.946 9.6598 231.111 9.98793C231.277 10.3161 231.36 10.7005 231.36 11.1413C231.36 11.7379 231.207 12.2633 230.903 12.7173C230.598 13.1681 230.157 13.5211 229.58 13.7763C229.007 14.0282 228.312 14.1541 227.497 14.1541C226.705 14.1541 226.017 14.0315 225.434 13.7862C224.854 13.541 224.4 13.183 224.072 12.7124C223.747 12.2417 223.571 11.6683 223.545 10.9922H225.359C225.386 11.3468 225.495 11.6418 225.687 11.8771C225.88 12.1125 226.13 12.2881 226.438 12.4041C226.75 12.5201 227.098 12.5781 227.482 12.5781C227.883 12.5781 228.234 12.5185 228.536 12.3991C228.841 12.2765 229.08 12.1075 229.252 11.892C229.424 11.6733 229.512 11.4181 229.515 11.1264C229.512 10.8613 229.434 10.6425 229.282 10.4702C229.129 10.2945 228.916 10.1487 228.64 10.0327C228.369 9.91335 228.05 9.80729 227.686 9.71449L226.528 9.41619C225.689 9.20076 225.026 8.87429 224.539 8.43679C224.055 7.99598 223.813 7.41098 223.813 6.68182C223.813 6.08191 223.975 5.55658 224.3 5.10582C224.628 4.65507 225.074 4.3054 225.638 4.05682C226.201 3.80492 226.839 3.67898 227.552 3.67898C228.274 3.67898 228.907 3.80492 229.451 4.05682C229.998 4.3054 230.427 4.65175 230.738 5.09588C231.05 5.53669 231.211 6.0438 231.221 6.61719H229.446Z" fill="#222222"/>
<path d="M608.432 138.727C608.432 140.295 608.138 141.637 607.551 142.754C606.969 143.867 606.173 144.719 605.165 145.311C604.161 145.903 603.022 146.199 601.749 146.199C600.475 146.199 599.334 145.903 598.325 145.311C597.321 144.714 596.526 143.86 595.939 142.747C595.357 141.63 595.065 140.29 595.065 138.727C595.065 137.16 595.357 135.82 595.939 134.707C596.526 133.59 597.321 132.735 598.325 132.143C599.334 131.552 600.475 131.256 601.749 131.256C603.022 131.256 604.161 131.552 605.165 132.143C606.173 132.735 606.969 133.59 607.551 134.707C608.138 135.82 608.432 137.16 608.432 138.727ZM605.783 138.727C605.783 137.624 605.61 136.694 605.264 135.936C604.923 135.174 604.45 134.598 603.844 134.21C603.238 133.817 602.539 133.621 601.749 133.621C600.958 133.621 600.259 133.817 599.653 134.21C599.047 134.598 598.571 135.174 598.226 135.936C597.885 136.694 597.714 137.624 597.714 138.727C597.714 139.83 597.885 140.763 598.226 141.526C598.571 142.283 599.047 142.858 599.653 143.251C600.259 143.64 600.958 143.834 601.749 143.834C602.539 143.834 603.238 143.64 603.844 143.251C604.45 142.858 604.923 142.283 605.264 141.526C605.61 140.763 605.783 139.83 605.783 138.727ZM626.876 131.455V146H624.532L617.679 136.092H617.558V146H614.923V131.455H617.281L624.127 141.369H624.255V131.455H626.876ZM633.747 146V131.455H639.315C640.366 131.455 641.24 131.62 641.936 131.952C642.637 132.278 643.16 132.726 643.506 133.294C643.856 133.862 644.031 134.506 644.031 135.226C644.031 135.818 643.918 136.324 643.69 136.746C643.463 137.162 643.158 137.501 642.774 137.761C642.391 138.022 641.962 138.209 641.489 138.322V138.464C642.005 138.493 642.5 138.652 642.973 138.94C643.451 139.224 643.842 139.627 644.145 140.148C644.448 140.669 644.599 141.298 644.599 142.037C644.599 142.79 644.417 143.467 644.053 144.068C643.688 144.665 643.139 145.136 642.405 145.482C641.671 145.827 640.748 146 639.635 146H633.747ZM636.382 143.798H639.216C640.172 143.798 640.861 143.616 641.283 143.251C641.709 142.882 641.922 142.409 641.922 141.831C641.922 141.4 641.815 141.012 641.602 140.666C641.389 140.316 641.086 140.041 640.693 139.842C640.3 139.639 639.831 139.537 639.287 139.537H636.382V143.798ZM636.382 137.641H638.989C639.443 137.641 639.853 137.558 640.217 137.392C640.582 137.222 640.868 136.982 641.077 136.675C641.29 136.362 641.396 135.993 641.396 135.567C641.396 135.003 641.197 134.539 640.8 134.175C640.407 133.81 639.822 133.628 639.045 133.628H636.382V137.641ZM663.889 138.727C663.889 140.295 663.595 141.637 663.008 142.754C662.426 143.867 661.63 144.719 660.622 145.311C659.618 145.903 658.479 146.199 657.206 146.199C655.932 146.199 654.791 145.903 653.782 145.311C652.779 144.714 651.983 143.86 651.396 142.747C650.814 141.63 650.522 140.29 650.522 138.727C650.522 137.16 650.814 135.82 651.396 134.707C651.983 133.59 652.779 132.735 653.782 132.143C654.791 131.552 655.932 131.256 657.206 131.256C658.479 131.256 659.618 131.552 660.622 132.143C661.63 132.735 662.426 133.59 663.008 134.707C663.595 135.82 663.889 137.16 663.889 138.727ZM661.24 138.727C661.24 137.624 661.067 136.694 660.721 135.936C660.38 135.174 659.907 134.598 659.301 134.21C658.695 133.817 657.996 133.621 657.206 133.621C656.415 133.621 655.717 133.817 655.11 134.21C654.504 134.598 654.029 135.174 653.683 135.936C653.342 136.694 653.172 137.624 653.172 138.727C653.172 139.83 653.342 140.763 653.683 141.526C654.029 142.283 654.504 142.858 655.11 143.251C655.717 143.64 656.415 143.834 657.206 143.834C657.996 143.834 658.695 143.64 659.301 143.251C659.907 142.858 660.38 142.283 660.721 141.526C661.067 140.763 661.24 139.83 661.24 138.727ZM671.467 146H668.654L673.775 131.455H677.028L682.156 146H679.343L675.458 134.438H675.344L671.467 146ZM671.559 140.297H679.229V142.413H671.559V140.297ZM688.071 146V131.455H693.526C694.643 131.455 695.581 131.649 696.338 132.037C697.101 132.425 697.676 132.97 698.064 133.67C698.457 134.366 698.654 135.179 698.654 136.107C698.654 137.039 698.455 137.849 698.057 138.536C697.664 139.217 697.084 139.745 696.317 140.119C695.55 140.489 694.608 140.673 693.49 140.673H689.605V138.486H693.135C693.789 138.486 694.324 138.396 694.74 138.216C695.157 138.031 695.465 137.764 695.664 137.413C695.867 137.058 695.969 136.623 695.969 136.107C695.969 135.59 695.867 135.15 695.664 134.786C695.46 134.416 695.15 134.137 694.733 133.947C694.317 133.753 693.779 133.656 693.121 133.656H690.706V146H688.071ZM695.586 139.409L699.186 146H696.246L692.709 139.409H695.586ZM710.008 146H705.079V131.455H710.108C711.552 131.455 712.792 131.746 713.829 132.328C714.871 132.906 715.671 133.737 716.23 134.821C716.788 135.905 717.068 137.203 717.068 138.713C717.068 140.228 716.786 141.53 716.223 142.619C715.664 143.708 714.857 144.544 713.801 145.126C712.75 145.709 711.485 146 710.008 146ZM707.714 143.72H709.88C710.894 143.72 711.739 143.536 712.416 143.166C713.093 142.792 713.602 142.236 713.943 141.497C714.284 140.754 714.454 139.826 714.454 138.713C714.454 137.6 714.284 136.677 713.943 135.943C713.602 135.205 713.098 134.653 712.43 134.288C711.767 133.919 710.943 133.734 709.958 133.734H707.714V143.72ZM726.206 131.455V146H723.571V131.455H726.206ZM745.013 131.455V146H742.669L735.815 136.092H735.695V146H733.06V131.455H735.418L742.264 141.369H742.392V131.455H745.013ZM761.628 136.099C761.51 135.716 761.346 135.373 761.138 135.07C760.935 134.762 760.688 134.499 760.4 134.281C760.115 134.063 759.789 133.9 759.419 133.791C759.05 133.678 758.648 133.621 758.212 133.621C757.431 133.621 756.735 133.817 756.124 134.21C755.513 134.603 755.033 135.181 754.682 135.943C754.337 136.701 754.164 137.624 754.164 138.713C754.164 139.812 754.337 140.742 754.682 141.504C755.028 142.267 755.508 142.847 756.124 143.244C756.739 143.637 757.454 143.834 758.269 143.834C759.007 143.834 759.647 143.692 760.186 143.408C760.731 143.124 761.15 142.721 761.444 142.2C761.737 141.675 761.884 141.059 761.884 140.354L762.48 140.446H758.532V138.386H764.434V140.134C764.434 141.379 764.168 142.456 763.638 143.365C763.108 144.274 762.379 144.975 761.451 145.467C760.523 145.955 759.457 146.199 758.255 146.199C756.915 146.199 755.738 145.898 754.725 145.297C753.716 144.691 752.928 143.831 752.36 142.719C751.796 141.601 751.515 140.276 751.515 138.741C751.515 137.567 751.68 136.518 752.012 135.595C752.348 134.672 752.817 133.888 753.418 133.244C754.019 132.596 754.725 132.103 755.534 131.767C756.344 131.426 757.225 131.256 758.176 131.256C758.981 131.256 759.732 131.374 760.428 131.611C761.124 131.843 761.742 132.174 762.282 132.605C762.826 133.036 763.274 133.547 763.624 134.139C763.974 134.731 764.204 135.384 764.313 136.099H761.628ZM595.435 170V155.455H604.753V157.663H598.07V161.612H604.114V163.821H598.07V170H595.435ZM613.788 155.455V170H611.153V155.455H613.788ZM632.595 155.455V170H630.251L623.397 160.092H623.277V170H620.642V155.455H623L629.846 165.369H629.974V155.455H632.595ZM642.101 155.455V170H639.466V155.455H642.101ZM656.859 159.453C656.793 158.833 656.513 158.35 656.021 158.004C655.533 157.659 654.899 157.486 654.118 157.486C653.568 157.486 653.097 157.569 652.704 157.734C652.311 157.9 652.011 158.125 651.802 158.409C651.594 158.693 651.487 159.018 651.483 159.382C651.483 159.685 651.551 159.948 651.689 160.17C651.831 160.393 652.022 160.582 652.264 160.739C652.505 160.89 652.773 161.018 653.066 161.122C653.36 161.226 653.656 161.314 653.954 161.385L655.318 161.726C655.867 161.854 656.395 162.027 656.902 162.244C657.413 162.462 657.87 162.737 658.272 163.068C658.68 163.4 659.002 163.8 659.238 164.268C659.475 164.737 659.593 165.286 659.593 165.916C659.593 166.768 659.376 167.519 658.94 168.168C658.504 168.812 657.875 169.316 657.051 169.68C656.232 170.04 655.24 170.22 654.075 170.22C652.943 170.22 651.961 170.045 651.127 169.695C650.299 169.344 649.65 168.833 649.181 168.161C648.717 167.488 648.467 166.669 648.429 165.703H651.021C651.059 166.21 651.215 166.631 651.49 166.967C651.764 167.304 652.122 167.554 652.562 167.72C653.007 167.886 653.504 167.969 654.054 167.969C654.627 167.969 655.128 167.884 655.559 167.713C655.995 167.538 656.336 167.296 656.582 166.989C656.828 166.676 656.954 166.312 656.958 165.895C656.954 165.516 656.842 165.204 656.625 164.957C656.407 164.706 656.101 164.498 655.708 164.332C655.32 164.162 654.866 164.01 654.345 163.878L652.69 163.452C651.492 163.144 650.545 162.678 649.849 162.053C649.158 161.423 648.812 160.587 648.812 159.545C648.812 158.688 649.044 157.938 649.508 157.294C649.977 156.65 650.614 156.151 651.419 155.795C652.224 155.436 653.135 155.256 654.153 155.256C655.185 155.256 656.09 155.436 656.866 155.795C657.647 156.151 658.261 156.645 658.706 157.28C659.151 157.91 659.38 158.634 659.395 159.453H656.859ZM665.942 170V155.455H668.577V161.612H675.317V155.455H677.96V170H675.317V163.821H668.577V170H665.942ZM684.825 170V155.455H694.286V157.663H687.46V161.612H693.795V163.821H687.46V167.791H694.342V170H684.825ZM705.903 170H700.974V155.455H706.002C707.446 155.455 708.687 155.746 709.724 156.328C710.765 156.906 711.566 157.737 712.124 158.821C712.683 159.905 712.962 161.203 712.962 162.713C712.962 164.228 712.681 165.53 712.117 166.619C711.558 167.708 710.751 168.544 709.695 169.126C708.644 169.709 707.38 170 705.903 170ZM703.609 167.72H705.775C706.788 167.72 707.633 167.536 708.31 167.166C708.987 166.792 709.496 166.236 709.837 165.497C710.178 164.754 710.349 163.826 710.349 162.713C710.349 161.6 710.178 160.677 709.837 159.943C709.496 159.205 708.992 158.653 708.325 158.288C707.662 157.919 706.838 157.734 705.853 157.734H703.609V167.72Z" fill="#578763"/>
<path d="M914.496 286L910.391 271.455H913.224L915.845 282.143H915.98L918.778 271.455H921.357L924.162 282.151H924.29L926.911 271.455H929.744L925.639 286H923.04L920.128 275.794H920.014L917.095 286H914.496ZM947.787 278.727C947.787 280.295 947.494 281.637 946.907 282.754C946.324 283.867 945.529 284.719 944.52 285.311C943.516 285.903 942.378 286.199 941.104 286.199C939.83 286.199 938.689 285.903 937.681 285.311C936.677 284.714 935.882 283.86 935.294 282.747C934.712 281.63 934.421 280.29 934.421 278.727C934.421 277.16 934.712 275.82 935.294 274.707C935.882 273.59 936.677 272.735 937.681 272.143C938.689 271.552 939.83 271.256 941.104 271.256C942.378 271.256 943.516 271.552 944.52 272.143C945.529 272.735 946.324 273.59 946.907 274.707C947.494 275.82 947.787 277.16 947.787 278.727ZM945.138 278.727C945.138 277.624 944.965 276.694 944.62 275.936C944.279 275.174 943.805 274.598 943.199 274.21C942.593 273.817 941.895 273.621 941.104 273.621C940.313 273.621 939.615 273.817 939.009 274.21C938.403 274.598 937.927 275.174 937.581 275.936C937.24 276.694 937.07 277.624 937.07 278.727C937.07 279.83 937.24 280.763 937.581 281.526C937.927 282.283 938.403 282.858 939.009 283.251C939.615 283.64 940.313 283.834 941.104 283.834C941.895 283.834 942.593 283.64 943.199 283.251C943.805 282.858 944.279 282.283 944.62 281.526C944.965 280.763 945.138 279.83 945.138 278.727ZM954.278 286V271.455H959.733C960.85 271.455 961.788 271.649 962.545 272.037C963.308 272.425 963.883 272.97 964.271 273.67C964.664 274.366 964.861 275.179 964.861 276.107C964.861 277.039 964.662 277.849 964.264 278.536C963.871 279.217 963.291 279.745 962.524 280.119C961.757 280.489 960.815 280.673 959.697 280.673H955.812V278.486H959.342C959.996 278.486 960.531 278.396 960.947 278.216C961.364 278.031 961.672 277.764 961.871 277.413C962.074 277.058 962.176 276.623 962.176 276.107C962.176 275.59 962.074 275.15 961.871 274.786C961.667 274.416 961.357 274.137 960.94 273.947C960.524 273.753 959.986 273.656 959.328 273.656H956.913V286H954.278ZM961.793 279.409L965.393 286H962.453L958.916 279.409H961.793ZM971.286 286V271.455H973.921V278.138H974.099L979.773 271.455H982.991L977.366 277.982L983.04 286H979.873L975.533 279.764L973.921 281.668V286H971.286ZM991.456 271.455V286H988.821V271.455H991.456ZM1010.26 271.455V286H1007.92L1001.07 276.092H1000.94V286H998.31V271.455H1000.67L1007.51 281.369H1007.64V271.455H1010.26ZM1026.88 276.099C1026.76 275.716 1026.6 275.373 1026.39 275.07C1026.18 274.762 1025.94 274.499 1025.65 274.281C1025.37 274.063 1025.04 273.9 1024.67 273.791C1024.3 273.678 1023.9 273.621 1023.46 273.621C1022.68 273.621 1021.98 273.817 1021.37 274.21C1020.76 274.603 1020.28 275.181 1019.93 275.943C1019.59 276.701 1019.41 277.624 1019.41 278.713C1019.41 279.812 1019.59 280.742 1019.93 281.504C1020.28 282.267 1020.76 282.847 1021.37 283.244C1021.99 283.637 1022.7 283.834 1023.52 283.834C1024.26 283.834 1024.9 283.692 1025.44 283.408C1025.98 283.124 1026.4 282.721 1026.69 282.2C1026.99 281.675 1027.13 281.059 1027.13 280.354L1027.73 280.446H1023.78V278.386H1029.68V280.134C1029.68 281.379 1029.42 282.456 1028.89 283.365C1028.36 284.274 1027.63 284.975 1026.7 285.467C1025.77 285.955 1024.71 286.199 1023.5 286.199C1022.16 286.199 1020.99 285.898 1019.97 285.297C1018.97 284.691 1018.18 283.831 1017.61 282.719C1017.05 281.601 1016.76 280.276 1016.76 278.741C1016.76 277.567 1016.93 276.518 1017.26 275.595C1017.6 274.672 1018.07 273.888 1018.67 273.244C1019.27 272.596 1019.97 272.103 1020.78 271.767C1021.59 271.426 1022.47 271.256 1023.43 271.256C1024.23 271.256 1024.98 271.374 1025.68 271.611C1026.37 271.843 1026.99 272.174 1027.53 272.605C1028.08 273.036 1028.52 273.547 1028.87 274.139C1029.22 274.731 1029.45 275.384 1029.56 276.099H1026.88ZM919.339 299.453C919.273 298.833 918.994 298.35 918.501 298.004C918.014 297.659 917.379 297.486 916.598 297.486C916.049 297.486 915.578 297.569 915.185 297.734C914.792 297.9 914.491 298.125 914.283 298.409C914.074 298.693 913.968 299.018 913.963 299.382C913.963 299.685 914.032 299.948 914.169 300.17C914.311 300.393 914.503 300.582 914.744 300.739C914.986 300.89 915.253 301.018 915.547 301.122C915.84 301.226 916.136 301.314 916.435 301.385L917.798 301.726C918.348 301.854 918.875 302.027 919.382 302.244C919.893 302.462 920.35 302.737 920.753 303.068C921.16 303.4 921.482 303.8 921.719 304.268C921.955 304.737 922.074 305.286 922.074 305.916C922.074 306.768 921.856 307.519 921.42 308.168C920.985 308.812 920.355 309.316 919.531 309.68C918.712 310.04 917.72 310.22 916.555 310.22C915.424 310.22 914.441 310.045 913.608 309.695C912.779 309.344 912.131 308.833 911.662 308.161C911.198 307.488 910.947 306.669 910.909 305.703H913.501C913.539 306.21 913.696 306.631 913.97 306.967C914.245 307.304 914.602 307.554 915.043 307.72C915.488 307.886 915.985 307.969 916.534 307.969C917.107 307.969 917.609 307.884 918.04 307.713C918.475 307.538 918.816 307.296 919.062 306.989C919.309 306.676 919.434 306.312 919.439 305.895C919.434 305.516 919.323 305.204 919.105 304.957C918.887 304.706 918.582 304.498 918.189 304.332C917.801 304.162 917.346 304.01 916.825 303.878L915.17 303.452C913.973 303.144 913.026 302.678 912.33 302.053C911.638 301.423 911.293 300.587 911.293 299.545C911.293 298.688 911.525 297.938 911.989 297.294C912.457 296.65 913.094 296.151 913.899 295.795C914.704 295.436 915.616 295.256 916.634 295.256C917.666 295.256 918.57 295.436 919.347 295.795C920.128 296.151 920.741 296.645 921.186 297.28C921.631 297.91 921.861 298.634 921.875 299.453H919.339ZM941.42 302.727C941.42 304.295 941.127 305.637 940.539 306.754C939.957 307.867 939.162 308.719 938.153 309.311C937.149 309.903 936.011 310.199 934.737 310.199C933.463 310.199 932.322 309.903 931.314 309.311C930.31 308.714 929.514 307.86 928.927 306.747C928.345 305.63 928.054 304.29 928.054 302.727C928.054 301.16 928.345 299.82 928.927 298.707C929.514 297.59 930.31 296.735 931.314 296.143C932.322 295.552 933.463 295.256 934.737 295.256C936.011 295.256 937.149 295.552 938.153 296.143C939.162 296.735 939.957 297.59 940.539 298.707C941.127 299.82 941.42 301.16 941.42 302.727ZM938.771 302.727C938.771 301.624 938.598 300.694 938.252 299.936C937.912 299.174 937.438 298.598 936.832 298.21C936.226 297.817 935.528 297.621 934.737 297.621C933.946 297.621 933.248 297.817 932.642 298.21C932.036 298.598 931.56 299.174 931.214 299.936C930.873 300.694 930.703 301.624 930.703 302.727C930.703 303.83 930.873 304.763 931.214 305.526C931.56 306.283 932.036 306.858 932.642 307.251C933.248 307.64 933.946 307.834 934.737 307.834C935.528 307.834 936.226 307.64 936.832 307.251C937.438 306.858 937.912 306.283 938.252 305.526C938.598 304.763 938.771 303.83 938.771 302.727ZM947.911 310V295.455H950.546V307.791H956.952V310H947.911ZM972.408 295.455H975.043V304.957C975.043 305.999 974.797 306.915 974.305 307.706C973.817 308.497 973.13 309.115 972.245 309.56C971.36 310 970.325 310.22 969.141 310.22C967.953 310.22 966.916 310 966.031 309.56C965.145 309.115 964.459 308.497 963.971 307.706C963.483 306.915 963.239 305.999 963.239 304.957V295.455H965.874V304.737C965.874 305.343 966.007 305.883 966.272 306.357C966.542 306.83 966.921 307.202 967.408 307.472C967.896 307.737 968.474 307.869 969.141 307.869C969.809 307.869 970.387 307.737 970.874 307.472C971.367 307.202 971.746 306.83 972.011 306.357C972.276 305.883 972.408 305.343 972.408 304.737V295.455ZM981.268 297.663V295.455H992.873V297.663H988.377V310H985.764V297.663H981.268ZM1001.75 295.455V310H999.11V295.455H1001.75ZM1021.6 302.727C1021.6 304.295 1021.3 305.637 1020.72 306.754C1020.13 307.867 1019.34 308.719 1018.33 309.311C1017.33 309.903 1016.19 310.199 1014.91 310.199C1013.64 310.199 1012.5 309.903 1011.49 309.311C1010.49 308.714 1009.69 307.86 1009.1 306.747C1008.52 305.63 1008.23 304.29 1008.23 302.727C1008.23 301.16 1008.52 299.82 1009.1 298.707C1009.69 297.59 1010.49 296.735 1011.49 296.143C1012.5 295.552 1013.64 295.256 1014.91 295.256C1016.19 295.256 1017.33 295.552 1018.33 296.143C1019.34 296.735 1020.13 297.59 1020.72 298.707C1021.3 299.82 1021.6 301.16 1021.6 302.727ZM1018.95 302.727C1018.95 301.624 1018.77 300.694 1018.43 299.936C1018.09 299.174 1017.61 298.598 1017.01 298.21C1016.4 297.817 1015.7 297.621 1014.91 297.621C1014.12 297.621 1013.42 297.817 1012.82 298.21C1012.21 298.598 1011.74 299.174 1011.39 299.936C1011.05 300.694 1010.88 301.624 1010.88 302.727C1010.88 303.83 1011.05 304.763 1011.39 305.526C1011.74 306.283 1012.21 306.858 1012.82 307.251C1013.42 307.64 1014.12 307.834 1014.91 307.834C1015.7 307.834 1016.4 307.64 1017.01 307.251C1017.61 306.858 1018.09 306.283 1018.43 305.526C1018.77 304.763 1018.95 303.83 1018.95 302.727ZM1040.04 295.455V310H1037.7L1030.84 300.092H1030.72V310H1028.09V295.455H1030.44L1037.29 305.369H1037.42V295.455H1040.04Z" fill="#CD4358"/>
<circle cx="654.5" cy="646.5" r="7.5" fill="#CD4358"/>
<path d="M521.253 651.983C521.304 652.085 521.423 652.17 521.542 652.17H521.712C521.848 652.17 521.95 652.085 522.001 651.983L527.22 640.542C527.322 640.321 527.186 640.1 526.931 640.1H525.724C525.571 640.1 525.469 640.202 525.435 640.287L521.695 648.702H521.593L517.853 640.287C517.819 640.202 517.7 640.1 517.564 640.1H516.357C516.102 640.1 515.966 640.321 516.068 640.542L521.253 651.983ZM529.688 646.067C529.688 649.467 532.391 652.17 535.791 652.17C539.191 652.17 541.911 649.467 541.911 646.067C541.911 642.667 539.191 639.93 535.791 639.93C532.391 639.93 529.688 642.667 529.688 646.067ZM531.388 646.067C531.388 643.653 533.377 641.63 535.791 641.63C538.222 641.63 540.211 643.653 540.211 646.067C540.211 648.498 538.222 650.47 535.791 650.47C533.377 650.47 531.388 648.498 531.388 646.067ZM546.034 651.677C546.034 651.847 546.17 652 546.357 652H547.462C547.632 652 547.785 651.847 547.785 651.677V647.342H550.352L552.613 651.847C552.647 651.915 552.749 652 552.885 652H554.211C554.5 652 554.619 651.728 554.5 651.507L552.171 647.189C553.65 646.594 554.687 645.302 554.687 643.738C554.687 641.715 553.021 640.1 550.981 640.1H546.357C546.17 640.1 546.034 640.253 546.034 640.423V651.677ZM547.819 645.88V641.749H550.845C551.95 641.749 552.919 642.667 552.919 643.772C552.919 644.945 551.95 645.88 550.845 645.88H547.819ZM560.672 651.677C560.672 651.847 560.825 652 560.995 652H562.117C562.287 652 562.44 651.847 562.44 651.677V641.698H565.211C565.398 641.698 565.534 641.545 565.534 641.375V640.423C565.534 640.253 565.398 640.1 565.211 640.1H557.901C557.714 640.1 557.578 640.253 557.578 640.423V641.375C557.578 641.545 557.714 641.698 557.901 641.698H560.672V651.677ZM567.118 652H568.189C568.393 652 568.529 651.864 568.58 651.745C568.92 650.963 569.277 650.198 569.617 649.416H575.176L576.23 651.745C576.298 651.898 576.417 652 576.621 652H577.692C577.947 652 578.083 651.779 577.981 651.558L572.796 640.117C572.745 640.015 572.592 639.93 572.507 639.93H572.337C572.252 639.93 572.099 640.015 572.048 640.117L566.829 651.558C566.727 651.779 566.863 652 567.118 652ZM570.28 647.954L572.354 643.296H572.439L574.53 647.954H570.28Z" fill="#0D1224"/>
<ellipse cx="492.5" cy="645.174" rx="7.5" ry="7.17391" fill="#7FC591"/>
<path d="M678.749 641.242V639.636H688.317V641.242H684.46V652H682.6V641.242H678.749ZM692.132 652V639.636H696.539C697.496 639.636 698.291 639.801 698.923 640.131C699.559 640.461 700.034 640.918 700.348 641.502C700.662 642.081 700.819 642.751 700.819 643.512C700.819 644.269 700.66 644.935 700.342 645.51C700.028 646.082 699.553 646.527 698.917 646.844C698.285 647.162 697.49 647.321 696.532 647.321H693.194V645.716H696.363C696.967 645.716 697.458 645.629 697.836 645.456C698.219 645.283 698.499 645.031 698.676 644.701C698.853 644.371 698.941 643.975 698.941 643.512C698.941 643.045 698.851 642.641 698.67 642.299C698.492 641.957 698.213 641.695 697.83 641.514C697.452 641.329 696.955 641.236 696.339 641.236H693.997V652H692.132ZM698.235 646.422L701.29 652H699.165L696.17 646.422H698.235ZM705.833 652H703.853L708.302 639.636H710.457L714.906 652H712.926L709.431 641.882H709.334L705.833 652ZM706.165 647.158H712.588V648.728H706.165V647.158ZM722.394 652H718.392V639.636H722.521C723.733 639.636 724.773 639.884 725.642 640.379C726.512 640.87 727.178 641.576 727.64 642.498C728.107 643.415 728.341 644.516 728.341 645.8C728.341 647.088 728.105 648.195 727.634 649.12C727.168 650.046 726.491 650.758 725.606 651.257C724.721 651.752 723.65 652 722.394 652ZM720.257 650.37H722.292C723.234 650.37 724.016 650.193 724.64 649.839C725.264 649.481 725.731 648.963 726.041 648.287C726.351 647.607 726.506 646.778 726.506 645.8C726.506 644.83 726.351 644.007 726.041 643.331C725.735 642.655 725.278 642.142 724.67 641.792C724.063 641.441 723.308 641.266 722.406 641.266H720.257V650.37ZM734.226 639.636V652H732.36V639.636H734.226ZM738.033 641.242V639.636H747.601V641.242H743.744V652H741.884V641.242H738.033ZM753.281 639.636V652H751.416V639.636H753.281ZM768.437 645.818C768.437 647.138 768.196 648.273 767.713 649.223C767.23 650.169 766.568 650.897 765.727 651.408C764.89 651.915 763.938 652.169 762.871 652.169C761.801 652.169 760.845 651.915 760.004 651.408C759.167 650.897 758.507 650.167 758.024 649.217C757.541 648.267 757.299 647.134 757.299 645.818C757.299 644.498 757.541 643.365 758.024 642.419C758.507 641.47 759.167 640.741 760.004 640.234C760.845 639.723 761.801 639.467 762.871 639.467C763.938 639.467 764.89 639.723 765.727 640.234C766.568 640.741 767.23 641.47 767.713 642.419C768.196 643.365 768.437 644.498 768.437 645.818ZM766.59 645.818C766.59 644.812 766.427 643.965 766.101 643.277C765.779 642.584 765.336 642.061 764.773 641.707C764.214 641.349 763.58 641.17 762.871 641.17C762.159 641.17 761.523 641.349 760.964 641.707C760.404 642.061 759.962 642.584 759.636 643.277C759.314 643.965 759.153 644.812 759.153 645.818C759.153 646.824 759.314 647.674 759.636 648.366C759.962 649.054 760.404 649.577 760.964 649.935C761.523 650.29 762.159 650.467 762.871 650.467C763.58 650.467 764.214 650.29 764.773 649.935C765.336 649.577 765.779 649.054 766.101 648.366C766.427 647.674 766.59 646.824 766.59 645.818ZM782.442 639.636V652H780.728L774.443 642.933H774.329V652H772.463V639.636H774.19L780.48 648.716H780.595V639.636H782.442ZM787.908 652H785.928L790.377 639.636H792.532L796.981 652H795.001L791.506 641.882H791.409L787.908 652ZM788.24 647.158H794.663V648.728H788.24V647.158ZM800.467 652V639.636H802.332V650.394H807.934V652H800.467ZM817.961 652V639.636H825.713V641.242H819.827V645.009H825.308V646.609H819.827V650.394H825.785V652H817.961ZM829.905 652V639.636H834.312C835.269 639.636 836.064 639.801 836.696 640.131C837.332 640.461 837.807 640.918 838.121 641.502C838.435 642.081 838.592 642.751 838.592 643.512C838.592 644.269 838.433 644.935 838.115 645.51C837.801 646.082 837.326 646.527 836.69 646.844C836.058 647.162 835.263 647.321 834.306 647.321H830.967V645.716H834.136C834.74 645.716 835.231 645.629 835.61 645.456C835.992 645.283 836.272 645.031 836.449 644.701C836.626 644.371 836.714 643.975 836.714 643.512C836.714 643.045 836.624 642.641 836.443 642.299C836.266 641.957 835.986 641.695 835.603 641.514C835.225 641.329 834.728 641.236 834.112 641.236H831.77V652H829.905ZM836.008 646.422L839.063 652H836.938L833.943 646.422H836.008ZM842.562 652V639.636H846.969C847.93 639.636 848.727 639.811 849.359 640.162C849.991 640.512 850.464 640.991 850.778 641.598C851.092 642.202 851.249 642.882 851.249 643.639C851.249 644.4 851.09 645.084 850.772 645.691C850.458 646.295 849.983 646.774 849.347 647.128C848.715 647.478 847.92 647.653 846.963 647.653H843.932V646.072H846.794C847.401 646.072 847.894 645.967 848.273 645.758C848.651 645.545 848.929 645.255 849.106 644.888C849.283 644.522 849.371 644.106 849.371 643.639C849.371 643.172 849.283 642.757 849.106 642.395C848.929 642.033 848.649 641.749 848.267 641.544C847.888 641.339 847.389 641.236 846.769 641.236H844.427V652H842.562Z" fill="#0D1224"/>
<path d="M160.707 45.2929C160.317 44.9024 159.683 44.9024 159.293 45.2929L152.929 51.6569C152.538 52.0474 152.538 52.6805 152.929 53.0711C153.319 53.4616 153.953 53.4616 154.343 53.0711L160 47.4142L165.657 53.0711C166.047 53.4616 166.681 53.4616 167.071 53.0711C167.462 52.6805 167.462 52.0474 167.071 51.6569L160.707 45.2929ZM161 61L161 46L159 46L159 61L161 61Z" fill="#222222"/>
<path d="M1147.21 525.707C1147.6 525.317 1147.6 524.683 1147.21 524.293L1140.84 517.929C1140.45 517.538 1139.82 517.538 1139.43 517.929C1139.04 518.319 1139.04 518.953 1139.43 519.343L1145.09 525L1139.43 530.657C1139.04 531.047 1139.04 531.681 1139.43 532.071C1139.82 532.462 1140.45 532.462 1140.84 532.071L1147.21 525.707ZM1127 526H1146.5V524H1127V526Z" fill="#222222"/>
<path d="M195 247H209V522H195V247Z" fill="white"/>
<path d="M195 234H209V522H195V234Z" fill="url(#paint0_linear)"/>
<ellipse cx="228.5" cy="153" rx="11.5" ry="11" fill="#CD4358"/>
<path d="M341.004 550V539.818H344.822C345.605 539.818 346.261 539.964 346.791 540.256C347.325 540.547 347.728 540.948 347.999 541.459C348.274 541.966 348.412 542.543 348.412 543.189C348.412 543.842 348.274 544.422 347.999 544.929C347.724 545.436 347.318 545.835 346.781 546.127C346.244 546.415 345.583 546.56 344.798 546.56H342.267V545.043H344.549C345.006 545.043 345.381 544.964 345.673 544.805C345.964 544.646 346.18 544.427 346.319 544.148C346.461 543.87 346.533 543.55 346.533 543.189C346.533 542.828 346.461 542.509 346.319 542.234C346.18 541.959 345.963 541.746 345.668 541.593C345.376 541.437 345 541.359 344.539 541.359H342.849V550H341.004ZM352.814 550V539.818H356.632C357.414 539.818 358.071 539.954 358.601 540.226C359.135 540.498 359.537 540.879 359.809 541.369C360.084 541.857 360.222 542.425 360.222 543.075C360.222 543.728 360.082 544.294 359.804 544.775C359.529 545.252 359.123 545.622 358.586 545.884C358.049 546.142 357.39 546.271 356.607 546.271H353.888V544.74H356.359C356.816 544.74 357.191 544.677 357.482 544.551C357.774 544.422 357.989 544.235 358.129 543.989C358.271 543.741 358.342 543.436 358.342 543.075C358.342 542.713 358.271 542.405 358.129 542.15C357.986 541.891 357.769 541.696 357.477 541.563C357.186 541.427 356.81 541.359 356.349 541.359H354.658V550H352.814ZM358.074 545.386L360.595 550H358.536L356.06 545.386H358.074ZM373.818 544.909C373.818 546.006 373.612 546.946 373.201 547.728C372.793 548.507 372.237 549.103 371.531 549.518C370.828 549.932 370.031 550.139 369.139 550.139C368.248 550.139 367.449 549.932 366.743 549.518C366.04 549.1 365.483 548.502 365.072 547.723C364.665 546.941 364.461 546.003 364.461 544.909C364.461 543.812 364.665 542.874 365.072 542.095C365.483 541.313 366.04 540.715 366.743 540.3C367.449 539.886 368.248 539.679 369.139 539.679C370.031 539.679 370.828 539.886 371.531 540.3C372.237 540.715 372.793 541.313 373.201 542.095C373.612 542.874 373.818 543.812 373.818 544.909ZM371.963 544.909C371.963 544.137 371.842 543.486 371.6 542.955C371.362 542.422 371.03 542.019 370.606 541.747C370.182 541.472 369.693 541.335 369.139 541.335C368.586 541.335 368.097 541.472 367.673 541.747C367.248 542.019 366.915 542.422 366.673 542.955C366.435 543.486 366.315 544.137 366.315 544.909C366.315 545.681 366.435 546.334 366.673 546.868C366.915 547.398 367.248 547.801 367.673 548.076C368.097 548.348 368.586 548.484 369.139 548.484C369.693 548.484 370.182 548.348 370.606 548.076C371.03 547.801 371.362 547.398 371.6 546.868C371.842 546.334 371.963 545.681 371.963 544.909ZM381.812 550H378.361V539.818H381.881C382.892 539.818 383.76 540.022 384.486 540.43C385.215 540.834 385.776 541.416 386.167 542.175C386.558 542.934 386.753 543.842 386.753 544.899C386.753 545.96 386.556 546.871 386.162 547.634C385.771 548.396 385.206 548.981 384.466 549.388C383.731 549.796 382.846 550 381.812 550ZM380.206 548.404H381.722C382.431 548.404 383.023 548.275 383.497 548.016C383.971 547.754 384.327 547.365 384.566 546.848C384.804 546.328 384.924 545.678 384.924 544.899C384.924 544.12 384.804 543.474 384.566 542.96C384.327 542.443 383.974 542.057 383.507 541.802C383.043 541.543 382.466 541.414 381.777 541.414H380.206V548.404ZM397.724 539.818H399.569V546.47C399.569 547.199 399.396 547.841 399.052 548.394C398.71 548.948 398.23 549.38 397.61 549.692C396.99 550 396.266 550.154 395.437 550.154C394.605 550.154 393.879 550 393.26 549.692C392.64 549.38 392.159 548.948 391.818 548.394C391.477 547.841 391.306 547.199 391.306 546.47V539.818H393.15V546.316C393.15 546.74 393.243 547.118 393.429 547.45C393.618 547.781 393.883 548.041 394.224 548.23C394.566 548.416 394.97 548.509 395.437 548.509C395.905 548.509 396.309 548.416 396.65 548.23C396.995 548.041 397.26 547.781 397.446 547.45C397.631 547.118 397.724 546.74 397.724 546.316V539.818ZM413.089 543.254H411.229C411.176 542.949 411.078 542.679 410.936 542.443C410.793 542.205 410.616 542.002 410.404 541.837C410.192 541.671 409.95 541.547 409.678 541.464C409.41 541.378 409.12 541.335 408.808 541.335C408.255 541.335 407.764 541.474 407.336 541.752C406.909 542.027 406.574 542.432 406.332 542.965C406.09 543.496 405.969 544.143 405.969 544.909C405.969 545.688 406.09 546.344 406.332 546.878C406.577 547.408 406.912 547.809 407.336 548.081C407.764 548.349 408.253 548.484 408.803 548.484C409.108 548.484 409.393 548.444 409.658 548.364C409.927 548.281 410.167 548.161 410.379 548.001C410.595 547.842 410.775 547.647 410.921 547.415C411.07 547.183 411.173 546.918 411.229 546.619L413.089 546.629C413.019 547.113 412.868 547.567 412.636 547.991C412.407 548.416 412.108 548.79 411.736 549.115C411.365 549.437 410.931 549.688 410.434 549.871C409.937 550.05 409.385 550.139 408.778 550.139C407.883 550.139 407.085 549.932 406.382 549.518C405.679 549.103 405.126 548.505 404.721 547.723C404.317 546.941 404.115 546.003 404.115 544.909C404.115 543.812 404.319 542.874 404.726 542.095C405.134 541.313 405.689 540.715 406.392 540.3C407.095 539.886 407.89 539.679 408.778 539.679C409.345 539.679 409.872 539.759 410.359 539.918C410.846 540.077 411.281 540.31 411.662 540.619C412.043 540.924 412.356 541.298 412.601 541.742C412.85 542.183 413.012 542.687 413.089 543.254ZM417.13 541.364V539.818H425.254V541.364H422.107V550H420.277V541.364H417.13ZM346.538 559.617C346.491 559.183 346.296 558.845 345.951 558.603C345.61 558.361 345.165 558.24 344.619 558.24C344.234 558.24 343.904 558.298 343.629 558.414C343.354 558.53 343.144 558.687 342.998 558.886C342.852 559.085 342.777 559.312 342.774 559.567C342.774 559.78 342.822 559.964 342.918 560.119C343.018 560.275 343.152 560.408 343.321 560.517C343.49 560.623 343.677 560.713 343.883 560.786C344.088 560.858 344.295 560.92 344.504 560.969L345.459 561.208C345.843 561.298 346.213 561.419 346.567 561.571C346.925 561.723 347.245 561.916 347.527 562.148C347.812 562.38 348.037 562.66 348.203 562.988C348.369 563.316 348.452 563.701 348.452 564.141C348.452 564.738 348.299 565.263 347.994 565.717C347.689 566.168 347.249 566.521 346.672 566.776C346.098 567.028 345.404 567.154 344.589 567.154C343.797 567.154 343.109 567.031 342.526 566.786C341.946 566.541 341.491 566.183 341.163 565.712C340.839 565.242 340.663 564.668 340.636 563.992H342.451C342.478 564.347 342.587 564.642 342.779 564.877C342.971 565.112 343.222 565.288 343.53 565.404C343.841 565.52 344.189 565.578 344.574 565.578C344.975 565.578 345.326 565.518 345.628 565.399C345.933 565.277 346.171 565.107 346.344 564.892C346.516 564.673 346.604 564.418 346.607 564.126C346.604 563.861 346.526 563.643 346.374 563.47C346.221 563.295 346.007 563.149 345.732 563.033C345.46 562.913 345.142 562.807 344.778 562.714L343.619 562.416C342.781 562.201 342.118 561.874 341.631 561.437C341.147 560.996 340.905 560.411 340.905 559.682C340.905 559.082 341.067 558.557 341.392 558.106C341.72 557.655 342.166 557.305 342.729 557.057C343.293 556.805 343.931 556.679 344.643 556.679C345.366 556.679 345.999 556.805 346.543 557.057C347.089 557.305 347.519 557.652 347.83 558.096C348.142 558.537 348.303 559.044 348.312 559.617H346.538ZM352.896 567V556.818H354.741V561.129H359.459V556.818H361.308V567H359.459V562.675H354.741V567H352.896ZM375.212 561.909C375.212 563.006 375.007 563.946 374.596 564.728C374.188 565.507 373.631 566.103 372.925 566.518C372.222 566.932 371.425 567.139 370.534 567.139C369.642 567.139 368.843 566.932 368.137 566.518C367.435 566.1 366.878 565.502 366.467 564.723C366.059 563.941 365.856 563.003 365.856 561.909C365.856 560.812 366.059 559.874 366.467 559.095C366.878 558.313 367.435 557.715 368.137 557.3C368.843 556.886 369.642 556.679 370.534 556.679C371.425 556.679 372.222 556.886 372.925 557.3C373.631 557.715 374.188 558.313 374.596 559.095C375.007 559.874 375.212 560.812 375.212 561.909ZM373.358 561.909C373.358 561.137 373.237 560.486 372.995 559.955C372.756 559.422 372.425 559.019 372 558.747C371.576 558.472 371.087 558.335 370.534 558.335C369.98 558.335 369.491 558.472 369.067 558.747C368.643 559.019 368.31 559.422 368.068 559.955C367.829 560.486 367.71 561.137 367.71 561.909C367.71 562.681 367.829 563.334 368.068 563.868C368.31 564.398 368.643 564.801 369.067 565.076C369.491 565.348 369.98 565.484 370.534 565.484C371.087 565.484 371.576 565.348 372 565.076C372.425 564.801 372.756 564.398 372.995 563.868C373.237 563.334 373.358 562.681 373.358 561.909ZM381.639 567L378.765 556.818H380.749L382.583 564.3H382.678L384.637 556.818H386.441L388.405 564.305H388.495L390.329 556.818H392.313L389.439 567H387.62L385.581 559.856H385.502L383.458 567H381.639ZM404.56 560.254H402.701C402.648 559.949 402.55 559.679 402.407 559.443C402.265 559.205 402.088 559.002 401.875 558.837C401.663 558.671 401.421 558.547 401.15 558.464C400.881 558.378 400.591 558.335 400.28 558.335C399.726 558.335 399.236 558.474 398.808 558.752C398.38 559.027 398.046 559.432 397.804 559.965C397.562 560.496 397.441 561.143 397.441 561.909C397.441 562.688 397.562 563.344 397.804 563.878C398.049 564.408 398.384 564.809 398.808 565.081C399.236 565.349 399.724 565.484 400.275 565.484C400.579 565.484 400.865 565.444 401.13 565.364C401.398 565.281 401.638 565.161 401.851 565.001C402.066 564.842 402.247 564.647 402.392 564.415C402.542 564.183 402.644 563.918 402.701 563.619L404.56 563.629C404.49 564.113 404.34 564.567 404.108 564.991C403.879 565.416 403.579 565.79 403.208 566.115C402.837 566.437 402.402 566.688 401.905 566.871C401.408 567.05 400.856 567.139 400.25 567.139C399.355 567.139 398.556 566.932 397.853 566.518C397.151 566.103 396.597 565.505 396.193 564.723C395.789 563.941 395.586 563.003 395.586 561.909C395.586 560.812 395.79 559.874 396.198 559.095C396.606 558.313 397.161 557.715 397.863 557.3C398.566 556.886 399.361 556.679 400.25 556.679C400.816 556.679 401.343 556.759 401.831 556.918C402.318 557.077 402.752 557.31 403.133 557.619C403.514 557.924 403.828 558.298 404.073 558.742C404.321 559.183 404.484 559.687 404.56 560.254ZM410.234 567H408.265L411.849 556.818H414.126L417.716 567H415.747L413.028 558.906H412.948L410.234 567ZM410.298 563.008H415.668V564.489H410.298V563.008ZM427.226 559.617C427.18 559.183 426.984 558.845 426.64 558.603C426.298 558.361 425.854 558.24 425.307 558.24C424.923 558.24 424.593 558.298 424.318 558.414C424.043 558.53 423.832 558.687 423.687 558.886C423.541 559.085 423.466 559.312 423.463 559.567C423.463 559.78 423.511 559.964 423.607 560.119C423.706 560.275 423.841 560.408 424.01 560.517C424.179 560.623 424.366 560.713 424.571 560.786C424.777 560.858 424.984 560.92 425.193 560.969L426.147 561.208C426.532 561.298 426.902 561.419 427.256 561.571C427.614 561.723 427.934 561.916 428.216 562.148C428.501 562.38 428.726 562.66 428.892 562.988C429.058 563.316 429.14 563.701 429.14 564.141C429.14 564.738 428.988 565.263 428.683 565.717C428.378 566.168 427.937 566.521 427.361 566.776C426.787 567.028 426.093 567.154 425.277 567.154C424.485 567.154 423.798 567.031 423.214 566.786C422.634 566.541 422.18 566.183 421.852 565.712C421.527 565.242 421.352 564.668 421.325 563.992H423.14C423.166 564.347 423.276 564.642 423.468 564.877C423.66 565.112 423.91 565.288 424.219 565.404C424.53 565.52 424.878 565.578 425.263 565.578C425.664 565.578 426.015 565.518 426.317 565.399C426.621 565.277 426.86 565.107 427.032 564.892C427.205 564.673 427.293 564.418 427.296 564.126C427.293 563.861 427.215 563.643 427.062 563.47C426.91 563.295 426.696 563.149 426.421 563.033C426.149 562.913 425.831 562.807 425.466 562.714L424.308 562.416C423.469 562.201 422.807 561.874 422.319 561.437C421.835 560.996 421.594 560.411 421.594 559.682C421.594 559.082 421.756 558.557 422.081 558.106C422.409 557.655 422.855 557.305 423.418 557.057C423.982 556.805 424.62 556.679 425.332 556.679C426.055 556.679 426.688 556.805 427.231 557.057C427.778 557.305 428.207 557.652 428.519 558.096C428.83 558.537 428.991 559.044 429.001 559.617H427.226ZM433.585 567V556.818H440.207V558.364H435.429V561.129H439.864V562.675H435.429V565.454H440.247V567H433.585Z" fill="black" fill-opacity="0.8"/>
<rect x="356" y="522" width="3" height="2" fill="#222222"/>
<path d="M604.928 548.369V541.489H606.489V548.369H604.928ZM602.268 545.71V544.148H609.148V545.71H602.268ZM613.162 541.364V539.818H621.285V541.364H618.138V550H616.309V541.364H613.162ZM627.794 550L624.92 539.818H626.904L628.738 547.3H628.833L630.792 539.818H632.596L634.56 547.305H634.65L636.484 539.818H638.468L635.594 550H633.775L631.736 542.856H631.657L629.613 550H627.794ZM651.098 544.909C651.098 546.006 650.892 546.946 650.482 547.728C650.074 548.507 649.517 549.103 648.811 549.518C648.108 549.932 647.311 550.139 646.42 550.139C645.528 550.139 644.729 549.932 644.023 549.518C643.321 549.1 642.764 548.502 642.353 547.723C641.945 546.941 641.741 546.003 641.741 544.909C641.741 543.812 641.945 542.874 642.353 542.095C642.764 541.313 643.321 540.715 644.023 540.3C644.729 539.886 645.528 539.679 646.42 539.679C647.311 539.679 648.108 539.886 648.811 540.3C649.517 540.715 650.074 541.313 650.482 542.095C650.892 542.874 651.098 543.812 651.098 544.909ZM649.244 544.909C649.244 544.137 649.123 543.486 648.881 542.955C648.642 542.422 648.311 542.019 647.886 541.747C647.462 541.472 646.973 541.335 646.42 541.335C645.866 541.335 645.377 541.472 644.953 541.747C644.529 542.019 644.196 542.422 643.954 542.955C643.715 543.486 643.596 544.137 643.596 544.909C643.596 545.681 643.715 546.334 643.954 546.868C644.196 547.398 644.529 547.801 644.953 548.076C645.377 548.348 645.866 548.484 646.42 548.484C646.973 548.484 647.462 548.348 647.886 548.076C648.311 547.801 648.642 547.398 648.881 546.868C649.123 546.334 649.244 545.681 649.244 544.909ZM602.004 556.818H604.261L607.284 564.196H607.403L610.426 556.818H612.683V567H610.913V560.005H610.819L608.005 566.97H606.683L603.869 559.99H603.774V567H602.004V556.818ZM626.59 561.909C626.59 563.006 626.384 563.946 625.973 564.728C625.566 565.507 625.009 566.103 624.303 566.518C623.6 566.932 622.803 567.139 621.912 567.139C621.02 567.139 620.221 566.932 619.515 566.518C618.813 566.1 618.256 565.502 617.845 564.723C617.437 563.941 617.233 563.003 617.233 561.909C617.233 560.812 617.437 559.874 617.845 559.095C618.256 558.313 618.813 557.715 619.515 557.3C620.221 556.886 621.02 556.679 621.912 556.679C622.803 556.679 623.6 556.886 624.303 557.3C625.009 557.715 625.566 558.313 625.973 559.095C626.384 559.874 626.59 560.812 626.59 561.909ZM624.735 561.909C624.735 561.137 624.614 560.486 624.372 559.955C624.134 559.422 623.802 559.019 623.378 558.747C622.954 558.472 622.465 558.335 621.912 558.335C621.358 558.335 620.869 558.472 620.445 558.747C620.021 559.019 619.688 559.422 619.446 559.955C619.207 560.486 619.088 561.137 619.088 561.909C619.088 562.681 619.207 563.334 619.446 563.868C619.688 564.398 620.021 564.801 620.445 565.076C620.869 565.348 621.358 565.484 621.912 565.484C622.465 565.484 622.954 565.348 623.378 565.076C623.802 564.801 624.134 564.398 624.372 563.868C624.614 563.334 624.735 562.681 624.735 561.909ZM639.501 556.818V567H637.86L633.063 560.065H632.978V567H631.134V556.818H632.784L637.577 563.759H637.666V556.818H639.501ZM643.863 558.364V556.818H651.987V558.364H648.84V567H647.01V558.364H643.863ZM656.353 567V556.818H658.197V561.129H662.915V556.818H664.765V567H662.915V562.675H658.197V567H656.353ZM675.104 559.617C675.058 559.183 674.862 558.845 674.517 558.603C674.176 558.361 673.732 558.24 673.185 558.24C672.801 558.24 672.471 558.298 672.196 558.414C671.921 558.53 671.71 558.687 671.564 558.886C671.418 559.085 671.344 559.312 671.341 559.567C671.341 559.78 671.389 559.964 671.485 560.119C671.584 560.275 671.718 560.408 671.887 560.517C672.056 560.623 672.244 560.713 672.449 560.786C672.655 560.858 672.862 560.92 673.071 560.969L674.025 561.208C674.41 561.298 674.779 561.419 675.134 561.571C675.492 561.723 675.812 561.916 676.093 562.148C676.378 562.38 676.604 562.66 676.77 562.988C676.935 563.316 677.018 563.701 677.018 564.141C677.018 564.738 676.866 565.263 676.561 565.717C676.256 566.168 675.815 566.521 675.238 566.776C674.665 567.028 673.971 567.154 673.155 567.154C672.363 567.154 671.675 567.031 671.092 566.786C670.512 566.541 670.058 566.183 669.73 565.712C669.405 565.242 669.229 564.668 669.203 563.992H671.017C671.044 564.347 671.153 564.642 671.346 564.877C671.538 565.112 671.788 565.288 672.096 565.404C672.408 565.52 672.756 565.578 673.14 565.578C673.541 565.578 673.893 565.518 674.194 565.399C674.499 565.277 674.738 565.107 674.91 564.892C675.083 564.673 675.17 564.418 675.174 564.126C675.17 563.861 675.092 563.643 674.94 563.47C674.788 563.295 674.574 563.149 674.299 563.033C674.027 562.913 673.709 562.807 673.344 562.714L672.186 562.416C671.347 562.201 670.684 561.874 670.197 561.437C669.713 560.996 669.471 560.411 669.471 559.682C669.471 559.082 669.634 558.557 669.958 558.106C670.287 557.655 670.732 557.305 671.296 557.057C671.859 556.805 672.497 556.679 673.21 556.679C673.932 556.679 674.565 556.805 675.109 557.057C675.656 557.305 676.085 557.652 676.397 558.096C676.708 558.537 676.869 559.044 676.879 559.617H675.104Z" fill="black" fill-opacity="0.8"/>
<rect x="617" y="522" width="3" height="2" fill="#222222"/>
<path d="M894.928 548.369V541.489H896.489V548.369H894.928ZM892.268 545.71V544.148H899.148V545.71H892.268ZM909.758 542.617C909.711 542.183 909.516 541.845 909.171 541.603C908.83 541.361 908.385 541.24 907.839 541.24C907.454 541.24 907.124 541.298 906.849 541.414C906.574 541.53 906.364 541.687 906.218 541.886C906.072 542.085 905.997 542.312 905.994 542.567C905.994 542.78 906.042 542.964 906.138 543.119C906.238 543.275 906.372 543.408 906.541 543.517C906.71 543.623 906.897 543.713 907.103 543.786C907.308 543.858 907.515 543.92 907.724 543.969L908.679 544.208C909.063 544.298 909.433 544.419 909.787 544.571C910.145 544.723 910.465 544.916 910.747 545.148C911.032 545.38 911.257 545.66 911.423 545.988C911.589 546.316 911.672 546.701 911.672 547.141C911.672 547.738 911.519 548.263 911.214 548.717C910.909 549.168 910.469 549.521 909.892 549.776C909.318 550.028 908.624 550.154 907.809 550.154C907.017 550.154 906.329 550.031 905.745 549.786C905.165 549.541 904.711 549.183 904.383 548.712C904.058 548.242 903.883 547.668 903.856 546.992H905.671C905.697 547.347 905.807 547.642 905.999 547.877C906.191 548.112 906.442 548.288 906.75 548.404C907.061 548.52 907.409 548.578 907.794 548.578C908.195 548.578 908.546 548.518 908.848 548.399C909.153 548.277 909.391 548.107 909.564 547.892C909.736 547.673 909.824 547.418 909.827 547.126C909.824 546.861 909.746 546.643 909.594 546.47C909.441 546.295 909.227 546.149 908.952 546.033C908.68 545.913 908.362 545.807 907.998 545.714L906.839 545.416C906.001 545.201 905.338 544.874 904.851 544.437C904.367 543.996 904.125 543.411 904.125 542.682C904.125 542.082 904.287 541.557 904.612 541.106C904.94 540.655 905.386 540.305 905.949 540.057C906.513 539.805 907.151 539.679 907.863 539.679C908.586 539.679 909.219 539.805 909.763 540.057C910.309 540.305 910.739 540.652 911.05 541.096C911.362 541.537 911.522 542.044 911.532 542.617H909.758ZM917.96 539.818V550H916.116V539.818H917.96ZM924.299 539.818L926.541 543.547H926.621L928.873 539.818H930.976L927.839 544.909L931.026 550H928.888L926.621 546.296H926.541L924.274 550H922.146L925.363 544.909L922.186 539.818H924.299ZM892.004 556.818H894.261L897.284 564.196H897.403L900.426 556.818H902.683V567H900.913V560.005H900.819L898.005 566.97H896.683L893.869 559.99H893.774V567H892.004V556.818ZM916.59 561.909C916.59 563.006 916.384 563.946 915.973 564.728C915.566 565.507 915.009 566.103 914.303 566.518C913.6 566.932 912.803 567.139 911.912 567.139C911.02 567.139 910.221 566.932 909.515 566.518C908.813 566.1 908.256 565.502 907.845 564.723C907.437 563.941 907.233 563.003 907.233 561.909C907.233 560.812 907.437 559.874 907.845 559.095C908.256 558.313 908.813 557.715 909.515 557.3C910.221 556.886 911.02 556.679 911.912 556.679C912.803 556.679 913.6 556.886 914.303 557.3C915.009 557.715 915.566 558.313 915.973 559.095C916.384 559.874 916.59 560.812 916.59 561.909ZM914.735 561.909C914.735 561.137 914.614 560.486 914.372 559.955C914.134 559.422 913.802 559.019 913.378 558.747C912.954 558.472 912.465 558.335 911.912 558.335C911.358 558.335 910.869 558.472 910.445 558.747C910.021 559.019 909.688 559.422 909.446 559.955C909.207 560.486 909.088 561.137 909.088 561.909C909.088 562.681 909.207 563.334 909.446 563.868C909.688 564.398 910.021 564.801 910.445 565.076C910.869 565.348 911.358 565.484 911.912 565.484C912.465 565.484 912.954 565.348 913.378 565.076C913.802 564.801 914.134 564.398 914.372 563.868C914.614 563.334 914.735 562.681 914.735 561.909ZM929.501 556.818V567H927.86L923.063 560.065H922.978V567H921.134V556.818H922.784L927.577 563.759H927.666V556.818H929.501ZM933.863 558.364V556.818H941.987V558.364H938.84V567H937.01V558.364H933.863ZM946.353 567V556.818H948.197V561.129H952.915V556.818H954.765V567H952.915V562.675H948.197V567H946.353ZM965.104 559.617C965.058 559.183 964.862 558.845 964.517 558.603C964.176 558.361 963.732 558.24 963.185 558.24C962.801 558.24 962.471 558.298 962.196 558.414C961.921 558.53 961.71 558.687 961.564 558.886C961.418 559.085 961.344 559.312 961.341 559.567C961.341 559.78 961.389 559.964 961.485 560.119C961.584 560.275 961.718 560.408 961.887 560.517C962.056 560.623 962.244 560.713 962.449 560.786C962.655 560.858 962.862 560.92 963.071 560.969L964.025 561.208C964.41 561.298 964.779 561.419 965.134 561.571C965.492 561.723 965.812 561.916 966.093 562.148C966.378 562.38 966.604 562.66 966.77 562.988C966.935 563.316 967.018 563.701 967.018 564.141C967.018 564.738 966.866 565.263 966.561 565.717C966.256 566.168 965.815 566.521 965.238 566.776C964.665 567.028 963.971 567.154 963.155 567.154C962.363 567.154 961.675 567.031 961.092 566.786C960.512 566.541 960.058 566.183 959.73 565.712C959.405 565.242 959.229 564.668 959.203 563.992H961.017C961.044 564.347 961.153 564.642 961.346 564.877C961.538 565.112 961.788 565.288 962.096 565.404C962.408 565.52 962.756 565.578 963.14 565.578C963.541 565.578 963.893 565.518 964.194 565.399C964.499 565.277 964.738 565.107 964.91 564.892C965.083 564.673 965.17 564.418 965.174 564.126C965.17 563.861 965.092 563.643 964.94 563.47C964.788 563.295 964.574 563.149 964.299 563.033C964.027 562.913 963.709 562.807 963.344 562.714L962.186 562.416C961.347 562.201 960.684 561.874 960.197 561.437C959.713 560.996 959.471 560.411 959.471 559.682C959.471 559.082 959.634 558.557 959.958 558.106C960.287 557.655 960.732 557.305 961.296 557.057C961.859 556.805 962.497 556.679 963.21 556.679C963.932 556.679 964.565 556.805 965.109 557.057C965.656 557.305 966.085 557.652 966.397 558.096C966.708 558.537 966.869 559.044 966.879 559.617H965.104Z" fill="black" fill-opacity="0.8"/>
<rect x="907" y="522" width="3" height="2" fill="#222222"/>
<path d="M199.004 549V538.818H205.527V540.364H200.849V543.129H205.08V544.675H200.849V549H199.004ZM211.852 538.818V549H210.007V538.818H211.852ZM216.649 549V538.818H220.467C221.25 538.818 221.906 538.954 222.436 539.226C222.97 539.498 223.372 539.879 223.644 540.369C223.919 540.857 224.057 541.425 224.057 542.075C224.057 542.728 223.918 543.294 223.639 543.775C223.364 544.252 222.958 544.622 222.421 544.884C221.884 545.142 221.225 545.271 220.443 545.271H217.723V543.74H220.194C220.651 543.74 221.026 543.677 221.318 543.551C221.609 543.422 221.825 543.235 221.964 542.989C222.106 542.741 222.178 542.436 222.178 542.075C222.178 541.713 222.106 541.405 221.964 541.15C221.821 540.891 221.604 540.696 221.313 540.563C221.021 540.427 220.645 540.359 220.184 540.359H218.494V549H216.649ZM221.909 544.386L224.43 549H222.371L219.896 544.386H221.909ZM234.088 541.617C234.042 541.183 233.846 540.845 233.501 540.603C233.16 540.361 232.716 540.24 232.169 540.24C231.785 540.24 231.455 540.298 231.18 540.414C230.905 540.53 230.694 540.687 230.548 540.886C230.402 541.085 230.328 541.312 230.325 541.567C230.325 541.78 230.373 541.964 230.469 542.119C230.568 542.275 230.702 542.408 230.871 542.517C231.04 542.623 231.228 542.713 231.433 542.786C231.639 542.858 231.846 542.92 232.055 542.969L233.009 543.208C233.394 543.298 233.763 543.419 234.118 543.571C234.476 543.723 234.796 543.916 235.077 544.148C235.362 544.38 235.588 544.66 235.754 544.988C235.919 545.316 236.002 545.701 236.002 546.141C236.002 546.738 235.85 547.263 235.545 547.717C235.24 548.168 234.799 548.521 234.222 548.776C233.649 549.028 232.955 549.154 232.139 549.154C231.347 549.154 230.659 549.031 230.076 548.786C229.496 548.541 229.042 548.183 228.714 547.712C228.389 547.242 228.213 546.668 228.187 545.992H230.001C230.028 546.347 230.137 546.642 230.33 546.877C230.522 547.112 230.772 547.288 231.08 547.404C231.392 547.52 231.74 547.578 232.124 547.578C232.525 547.578 232.877 547.518 233.178 547.399C233.483 547.277 233.722 547.107 233.894 546.892C234.066 546.673 234.154 546.418 234.158 546.126C234.154 545.861 234.076 545.643 233.924 545.47C233.772 545.295 233.558 545.149 233.283 545.033C233.011 544.913 232.693 544.807 232.328 544.714L231.17 544.416C230.331 544.201 229.668 543.874 229.181 543.437C228.697 542.996 228.455 542.411 228.455 541.682C228.455 541.082 228.618 540.557 228.942 540.106C229.271 539.655 229.716 539.305 230.28 539.057C230.843 538.805 231.481 538.679 232.194 538.679C232.916 538.679 233.549 538.805 234.093 539.057C234.64 539.305 235.069 539.652 235.381 540.096C235.692 540.537 235.853 541.044 235.863 541.617H234.088ZM239.999 540.364V538.818H248.123V540.364H244.976V549H243.146V540.364H239.999ZM199.004 555.818H201.261L204.284 563.196H204.403L207.426 555.818H209.683V566H207.913V559.005H207.819L205.005 565.97H203.683L200.869 558.99H200.774V566H199.004V555.818ZM214.492 566V555.818H221.114V557.364H216.336V560.129H220.771V561.675H216.336V564.454H221.154V566H214.492ZM225.796 566V555.818H232.418V557.364H227.64V560.129H232.075V561.675H227.64V564.454H232.458V566H225.796ZM236.652 557.364V555.818H244.776V557.364H241.629V566H239.799V557.364H236.652ZM250.986 555.818V566H249.142V555.818H250.986ZM264.151 555.818V566H262.51L257.713 559.065H257.628V566H255.784V555.818H257.434L262.227 562.759H262.316V555.818H264.151ZM275.782 559.07C275.699 558.801 275.584 558.561 275.438 558.349C275.296 558.133 275.124 557.949 274.921 557.797C274.723 557.644 274.494 557.53 274.235 557.454C273.977 557.374 273.695 557.335 273.39 557.335C272.843 557.335 272.356 557.472 271.929 557.747C271.501 558.022 271.165 558.427 270.919 558.96C270.677 559.491 270.556 560.137 270.556 560.899C270.556 561.668 270.677 562.319 270.919 562.853C271.161 563.387 271.498 563.793 271.929 564.071C272.359 564.346 272.86 564.484 273.43 564.484C273.947 564.484 274.394 564.384 274.772 564.185C275.153 563.987 275.447 563.705 275.652 563.34C275.858 562.972 275.961 562.541 275.961 562.048L276.378 562.112H273.614V560.67H277.745V561.893C277.745 562.765 277.56 563.519 277.188 564.156C276.817 564.792 276.307 565.282 275.657 565.627C275.008 565.969 274.262 566.139 273.42 566.139C272.482 566.139 271.658 565.929 270.949 565.508C270.243 565.084 269.691 564.482 269.294 563.703C268.899 562.921 268.702 561.993 268.702 560.919C268.702 560.097 268.818 559.363 269.05 558.717C269.285 558.07 269.613 557.522 270.034 557.071C270.455 556.617 270.949 556.272 271.516 556.037C272.083 555.798 272.699 555.679 273.365 555.679C273.929 555.679 274.454 555.762 274.941 555.928C275.429 556.09 275.861 556.322 276.239 556.624C276.62 556.925 276.933 557.283 277.179 557.697C277.424 558.112 277.585 558.569 277.661 559.07H275.782Z" fill="black" fill-opacity="0.8"/>
<rect x="214" y="522" width="3" height="4" fill="#222222"/>
<rect x="365.5" y="243.5" width="15" height="280" fill="white"/>
<rect x="365" y="261" width="15" height="262" fill="url(#paint1_linear)"/>
<ellipse cx="372.5" cy="260" rx="11.5" ry="11" fill="#CD4358"/>
<path d="M598 301H612V522H598V301Z" fill="white"/>
<rect x="625" y="245" width="15" height="277" fill="white"/>
<rect x="625" y="281" width="15" height="241" fill="url(#paint2_linear)"/>
<path d="M915 349H929V523H915V349Z" fill="white"/>
<path d="M915 349H929V523H915V349Z" fill="url(#paint3_linear)"/>
<path d="M644 280C644 286.075 638.851 291 632.5 291C626.149 291 621 286.075 621 280C621 273.925 626.149 269 632.5 269C638.851 269 644 273.925 644 280Z" fill="#CD4358"/>
<path d="M1176.56 520.364V518.818H1184.68V520.364H1181.53V529H1179.7V520.364H1176.56ZM1190.89 518.818V529H1189.05V518.818H1190.89ZM1195.69 518.818H1197.95L1200.97 526.196H1201.09L1204.11 518.818H1206.37V529H1204.6V522.005H1204.5L1201.69 528.97H1200.37L1197.55 521.99H1197.46V529H1195.69V518.818ZM1211.18 529V518.818H1217.8V520.364H1213.02V523.129H1217.45V524.675H1213.02V527.454H1217.84V529H1211.18Z" fill="#222222"/>
<path d="M345.5 207L605 210" stroke="#7FC591" stroke-width="3"/>
<circle cx="922.5" cy="349.5" r="9.5" fill="white" stroke="#CD4358" stroke-width="4"/>
<circle cx="201.5" cy="231.5" r="11.5" fill="#7FC591"/>
<path d="M338.496 146L334.391 131.455H337.224L339.845 142.143H339.98L342.778 131.455H345.357L348.162 142.151H348.29L350.911 131.455H353.744L349.639 146H347.04L344.128 135.794H344.014L341.095 146H338.496ZM371.787 138.727C371.787 140.295 371.494 141.637 370.907 142.754C370.324 143.867 369.529 144.719 368.52 145.311C367.516 145.903 366.378 146.199 365.104 146.199C363.83 146.199 362.689 145.903 361.681 145.311C360.677 144.714 359.882 143.86 359.294 142.747C358.712 141.63 358.421 140.29 358.421 138.727C358.421 137.16 358.712 135.82 359.294 134.707C359.882 133.59 360.677 132.735 361.681 132.143C362.689 131.552 363.83 131.256 365.104 131.256C366.378 131.256 367.516 131.552 368.52 132.143C369.529 132.735 370.324 133.59 370.907 134.707C371.494 135.82 371.787 137.16 371.787 138.727ZM369.138 138.727C369.138 137.624 368.965 136.694 368.62 135.936C368.279 135.174 367.805 134.598 367.199 134.21C366.593 133.817 365.895 133.621 365.104 133.621C364.313 133.621 363.615 133.817 363.009 134.21C362.403 134.598 361.927 135.174 361.581 135.936C361.24 136.694 361.07 137.624 361.07 138.727C361.07 139.83 361.24 140.763 361.581 141.526C361.927 142.283 362.403 142.858 363.009 143.251C363.615 143.64 364.313 143.834 365.104 143.834C365.895 143.834 366.593 143.64 367.199 143.251C367.805 142.858 368.279 142.283 368.62 141.526C368.965 140.763 369.138 139.83 369.138 138.727ZM378.278 146V131.455H383.733C384.85 131.455 385.788 131.649 386.545 132.037C387.308 132.425 387.883 132.97 388.271 133.67C388.664 134.366 388.861 135.179 388.861 136.107C388.861 137.039 388.662 137.849 388.264 138.536C387.871 139.217 387.291 139.745 386.524 140.119C385.757 140.489 384.815 140.673 383.697 140.673H379.812V138.486H383.342C383.996 138.486 384.531 138.396 384.947 138.216C385.364 138.031 385.672 137.764 385.871 137.413C386.074 137.058 386.176 136.623 386.176 136.107C386.176 135.59 386.074 135.15 385.871 134.786C385.667 134.416 385.357 134.137 384.94 133.947C384.524 133.753 383.986 133.656 383.328 133.656H380.913V146H378.278ZM385.793 139.409L389.393 146H386.453L382.916 139.409H385.793ZM395.286 146V131.455H397.921V138.138H398.099L403.773 131.455H406.991L401.366 137.982L407.04 146H403.873L399.533 139.764L397.921 141.668V146H395.286ZM415.456 131.455V146H412.821V131.455H415.456ZM434.263 131.455V146H431.919L425.065 136.092H424.945V146H422.31V131.455H424.668L431.514 141.369H431.642V131.455H434.263ZM450.878 136.099C450.76 135.716 450.596 135.373 450.388 135.07C450.185 134.762 449.938 134.499 449.65 134.281C449.365 134.063 449.039 133.9 448.669 133.791C448.3 133.678 447.898 133.621 447.462 133.621C446.681 133.621 445.985 133.817 445.374 134.21C444.763 134.603 444.283 135.181 443.932 135.943C443.587 136.701 443.414 137.624 443.414 138.713C443.414 139.812 443.587 140.742 443.932 141.504C444.278 142.267 444.758 142.847 445.374 143.244C445.989 143.637 446.704 143.834 447.519 143.834C448.257 143.834 448.897 143.692 449.436 143.408C449.981 143.124 450.4 142.721 450.694 142.2C450.987 141.675 451.134 141.059 451.134 140.354L451.73 140.446H447.782V138.386H453.684V140.134C453.684 141.379 453.418 142.456 452.888 143.365C452.358 144.274 451.629 144.975 450.701 145.467C449.773 145.955 448.707 146.199 447.505 146.199C446.165 146.199 444.988 145.898 443.975 145.297C442.966 144.691 442.178 143.831 441.61 142.719C441.046 141.601 440.765 140.276 440.765 138.741C440.765 137.567 440.93 136.518 441.262 135.595C441.598 134.672 442.067 133.888 442.668 133.244C443.269 132.596 443.975 132.103 444.784 131.767C445.594 131.426 446.475 131.256 447.426 131.256C448.231 131.256 448.982 131.374 449.678 131.611C450.374 131.843 450.992 132.174 451.532 132.605C452.076 133.036 452.524 133.547 452.874 134.139C453.224 134.731 453.454 135.384 453.563 136.099H450.878ZM343.339 159.453C343.273 158.833 342.994 158.35 342.501 158.004C342.014 157.659 341.379 157.486 340.598 157.486C340.049 157.486 339.578 157.569 339.185 157.734C338.792 157.9 338.491 158.125 338.283 158.409C338.074 158.693 337.968 159.018 337.963 159.382C337.963 159.685 338.032 159.948 338.169 160.17C338.311 160.393 338.503 160.582 338.744 160.739C338.986 160.89 339.253 161.018 339.547 161.122C339.84 161.226 340.136 161.314 340.435 161.385L341.798 161.726C342.348 161.854 342.875 162.027 343.382 162.244C343.893 162.462 344.35 162.737 344.753 163.068C345.16 163.4 345.482 163.8 345.719 164.268C345.955 164.737 346.074 165.286 346.074 165.916C346.074 166.768 345.856 167.519 345.42 168.168C344.985 168.812 344.355 169.316 343.531 169.68C342.712 170.04 341.72 170.22 340.555 170.22C339.424 170.22 338.441 170.045 337.608 169.695C336.779 169.344 336.131 168.833 335.662 168.161C335.198 167.488 334.947 166.669 334.909 165.703H337.501C337.539 166.21 337.696 166.631 337.97 166.967C338.245 167.304 338.602 167.554 339.043 167.72C339.488 167.886 339.985 167.969 340.534 167.969C341.107 167.969 341.609 167.884 342.04 167.713C342.475 167.538 342.816 167.296 343.062 166.989C343.309 166.676 343.434 166.312 343.439 165.895C343.434 165.516 343.323 165.204 343.105 164.957C342.887 164.706 342.582 164.498 342.189 164.332C341.801 164.162 341.346 164.01 340.825 163.878L339.17 163.452C337.973 163.144 337.026 162.678 336.33 162.053C335.638 161.423 335.293 160.587 335.293 159.545C335.293 158.688 335.525 157.938 335.989 157.294C336.457 156.65 337.094 156.151 337.899 155.795C338.704 155.436 339.616 155.256 340.634 155.256C341.666 155.256 342.57 155.436 343.347 155.795C344.128 156.151 344.741 156.645 345.186 157.28C345.631 157.91 345.861 158.634 345.875 159.453H343.339ZM365.42 162.727C365.42 164.295 365.127 165.637 364.539 166.754C363.957 167.867 363.162 168.719 362.153 169.311C361.149 169.903 360.011 170.199 358.737 170.199C357.463 170.199 356.322 169.903 355.314 169.311C354.31 168.714 353.514 167.86 352.927 166.747C352.345 165.63 352.054 164.29 352.054 162.727C352.054 161.16 352.345 159.82 352.927 158.707C353.514 157.59 354.31 156.735 355.314 156.143C356.322 155.552 357.463 155.256 358.737 155.256C360.011 155.256 361.149 155.552 362.153 156.143C363.162 156.735 363.957 157.59 364.539 158.707C365.127 159.82 365.42 161.16 365.42 162.727ZM362.771 162.727C362.771 161.624 362.598 160.694 362.252 159.936C361.912 159.174 361.438 158.598 360.832 158.21C360.226 157.817 359.528 157.621 358.737 157.621C357.946 157.621 357.248 157.817 356.642 158.21C356.036 158.598 355.56 159.174 355.214 159.936C354.873 160.694 354.703 161.624 354.703 162.727C354.703 163.83 354.873 164.763 355.214 165.526C355.56 166.283 356.036 166.858 356.642 167.251C357.248 167.64 357.946 167.834 358.737 167.834C359.528 167.834 360.226 167.64 360.832 167.251C361.438 166.858 361.912 166.283 362.252 165.526C362.598 164.763 362.771 163.83 362.771 162.727ZM371.911 170V155.455H374.546V167.791H380.952V170H371.911ZM396.408 155.455H399.043V164.957C399.043 165.999 398.797 166.915 398.305 167.706C397.817 168.497 397.13 169.115 396.245 169.56C395.36 170 394.325 170.22 393.141 170.22C391.953 170.22 390.916 170 390.031 169.56C389.145 169.115 388.459 168.497 387.971 167.706C387.483 166.915 387.239 165.999 387.239 164.957V155.455H389.874V164.737C389.874 165.343 390.007 165.883 390.272 166.357C390.542 166.83 390.921 167.202 391.408 167.472C391.896 167.737 392.474 167.869 393.141 167.869C393.809 167.869 394.387 167.737 394.874 167.472C395.367 167.202 395.746 166.83 396.011 166.357C396.276 165.883 396.408 165.343 396.408 164.737V155.455ZM405.268 157.663V155.455H416.873V157.663H412.377V170H409.764V157.663H405.268ZM425.745 155.455V170H423.11V155.455H425.745ZM445.596 162.727C445.596 164.295 445.302 165.637 444.715 166.754C444.133 167.867 443.337 168.719 442.329 169.311C441.325 169.903 440.186 170.199 438.913 170.199C437.639 170.199 436.498 169.903 435.489 169.311C434.486 168.714 433.69 167.86 433.103 166.747C432.521 165.63 432.229 164.29 432.229 162.727C432.229 161.16 432.521 159.82 433.103 158.707C433.69 157.59 434.486 156.735 435.489 156.143C436.498 155.552 437.639 155.256 438.913 155.256C440.186 155.256 441.325 155.552 442.329 156.143C443.337 156.735 444.133 157.59 444.715 158.707C445.302 159.82 445.596 161.16 445.596 162.727ZM442.947 162.727C442.947 161.624 442.774 160.694 442.428 159.936C442.087 159.174 441.614 158.598 441.008 158.21C440.402 157.817 439.703 157.621 438.913 157.621C438.122 157.621 437.424 157.817 436.817 158.21C436.211 158.598 435.736 159.174 435.39 159.936C435.049 160.694 434.879 161.624 434.879 162.727C434.879 163.83 435.049 164.763 435.39 165.526C435.736 166.283 436.211 166.858 436.817 167.251C437.424 167.64 438.122 167.834 438.913 167.834C439.703 167.834 440.402 167.64 441.008 167.251C441.614 166.858 442.087 166.283 442.428 165.526C442.774 164.763 442.947 163.83 442.947 162.727ZM464.04 155.455V170H461.696L454.843 160.092H454.722V170H452.087V155.455H454.445L461.292 165.369H461.419V155.455H464.04Z" fill="#578763"/>
<path d="M337 210H351V523H337V210Z" fill="white"/>
<path d="M337.5 212.5H351.5V523.5H337.5V212.5Z" fill="url(#paint4_linear)"/>
<path d="M598 209H612V522H598V209Z" fill="white"/>
<path d="M598 209H612V522H598V209Z" fill="url(#paint5_linear)"/>
<circle cx="605.5" cy="209.5" r="9.5" fill="white" stroke="#7FC591" stroke-width="4"/>
<rect x="221" y="153" width="15" height="373" fill="url(#paint6_linear)"/>
<path d="M198 231L346.5 208" stroke="#7FC591" stroke-width="3"/>
<circle cx="345.5" cy="206.5" r="9.5" fill="white" stroke="#7FC591" stroke-width="4"/>
<defs>
<linearGradient id="paint0_linear" x1="202" y1="234" x2="202" y2="522" gradientUnits="userSpaceOnUse">
<stop stop-color="#7FC591" stop-opacity="0.4"/>
<stop offset="1" stop-color="#7FC591" stop-opacity="0"/>
</linearGradient>
<linearGradient id="paint1_linear" x1="372.5" y1="260.254" x2="372.5" y2="522.254" gradientUnits="userSpaceOnUse">
<stop stop-color="#CD4358" stop-opacity="0.4"/>
<stop offset="1" stop-color="#CD4358" stop-opacity="0"/>
</linearGradient>
<linearGradient id="paint2_linear" x1="632.5" y1="280.313" x2="632.5" y2="521.313" gradientUnits="userSpaceOnUse">
<stop stop-color="#CD4358" stop-opacity="0.4"/>
<stop offset="1" stop-color="#CD4358" stop-opacity="0"/>
</linearGradient>
<linearGradient id="paint3_linear" x1="922" y1="348.504" x2="922" y2="522.504" gradientUnits="userSpaceOnUse">
<stop stop-color="#CD4358" stop-opacity="0.4"/>
<stop offset="1" stop-color="#CD4358" stop-opacity="0"/>
</linearGradient>
<linearGradient id="paint4_linear" x1="344.5" y1="212.5" x2="344.5" y2="523.5" gradientUnits="userSpaceOnUse">
<stop stop-color="#7FC591" stop-opacity="0.4"/>
<stop offset="1" stop-color="#7FC591" stop-opacity="0"/>
</linearGradient>
<linearGradient id="paint5_linear" x1="605" y1="209" x2="605" y2="522" gradientUnits="userSpaceOnUse">
<stop stop-color="#7FC591" stop-opacity="0.4"/>
<stop offset="1" stop-color="#7FC591" stop-opacity="0"/>
</linearGradient>
<linearGradient id="paint6_linear" x1="228.5" y1="151.937" x2="228.5" y2="524.937" gradientUnits="userSpaceOnUse">
<stop stop-color="#CD4358" stop-opacity="0.4"/>
<stop offset="1" stop-color="#CD4358" stop-opacity="0"/>
</linearGradient>
</defs>
</svg>
