<svg width="730" height="451" viewBox="0 0 730 451" fill="none" xmlns="http://www.w3.org/2000/svg">
<path fill-rule="evenodd" clip-rule="evenodd" d="M281 230.5V229H131V230.5H281Z" fill="#444957" fill-opacity="0.3"/>
<path fill-rule="evenodd" clip-rule="evenodd" d="M514 207.25H446V208.75H514C519.937 208.75 524.75 203.937 524.75 198V187H523.25V198C523.25 203.109 519.109 207.25 514 207.25Z" fill="#444957" fill-opacity="0.3"/>
<path fill-rule="evenodd" clip-rule="evenodd" d="M589 230.75V229.25H446.5V230.75H589Z" fill="#444957" fill-opacity="0.3"/>
<path fill-rule="evenodd" clip-rule="evenodd" d="M514 254.34H446V252.84H514C519.937 252.84 524.75 257.653 524.75 263.59V272.5H523.25V263.59C523.25 258.481 519.109 254.34 514 254.34Z" fill="#444957" fill-opacity="0.3"/>
<path fill-rule="evenodd" clip-rule="evenodd" d="M479 274.75H447V273.25H479C484.937 273.25 489.75 278.063 489.75 284V306H488.25V284C488.25 278.891 484.109 274.75 479 274.75Z" fill="#444957" fill-opacity="0.3"/>
<path fill-rule="evenodd" clip-rule="evenodd" d="M523.25 173V187H524.75V173C524.75 167.891 528.891 163.75 534 163.75H588V162.25H534C528.063 162.25 523.25 167.063 523.25 173Z" fill="#444957" fill-opacity="0.3"/>
<path fill-rule="evenodd" clip-rule="evenodd" d="M488.25 355.59V305H489.75V355.59C489.75 360.698 493.891 364.84 499 364.84H586.5V366.34H499C493.063 366.34 488.25 361.527 488.25 355.59Z" fill="#444957" fill-opacity="0.3"/>
<path fill-rule="evenodd" clip-rule="evenodd" d="M363 451V4.37114e-08L364 0V451H363Z" fill="url(#paint0_linear_22_275)"/>
<path opacity="0.8" d="M103.356 67.3477L107.223 61.0195C108.454 59.1738 107.135 56.625 104.938 56.625H88.0629C85.7777 56.625 84.4594 59.1738 85.6898 61.0195L89.557 67.3477C73.1215 77.8066 74.0004 91.166 74.0004 92.8359C74.0004 97.7578 78.307 101.625 83.5805 101.625H109.332C114.606 101.625 118.913 97.7578 118.913 92.8359C118.913 91.166 119.704 77.7187 103.356 67.3477ZM88.0629 59.4375H104.938L100.543 66.4687H92.3695L88.0629 59.4375ZM116.188 92.8359C116.188 96.1758 113.112 98.8125 109.332 98.8125H83.5805C79.8012 98.8125 76.8129 96.1758 76.8129 92.8359V92.5723C76.725 87.2988 78.5707 77.3672 91.5785 69.2812H101.334C114.342 77.3672 116.188 87.2988 116.188 92.5723V92.8359Z" fill="#222222"/>
<path opacity="0.8" d="M100.844 90.3437L100.656 89.4375C100.594 89.2187 100.406 89.0937 100.188 89.1562C99.875 89.2187 99.375 89.3125 98.7813 89.3125C96.75 89.3125 95.125 88.0625 94.4688 86.2812H98.5313C98.6875 86.2812 98.8438 86.1562 98.875 85.9687L99.0313 85.2187C99.0938 84.9687 98.9063 84.7812 98.6875 84.7812H94.0625C94 84.25 94 83.75 94.0313 83.2812H99.125C99.2813 83.2812 99.4375 83.1562 99.4688 82.9687L99.625 82.2187C99.6875 82 99.5 81.7812 99.2813 81.7812H94.375C95.0312 79.9375 96.625 78.7187 98.75 78.7187C99.1875 78.7187 99.6562 78.7812 99.9375 78.8125C100.125 78.8437 100.312 78.75 100.375 78.5625L100.625 77.625C100.656 77.4062 100.531 77.1875 100.312 77.1562C99.9688 77.0937 99.4062 77 98.7812 77C95.6562 77 93.1562 79.0312 92.3438 81.75H91.375C91.1563 81.75 91 81.9375 91 82.125V82.875C91 83.0938 91.1563 83.25 91.375 83.25H92.0938C92.0313 83.75 92.0625 84.375 92.0938 84.75H91.375C91.1563 84.75 91 84.9375 91 85.125V85.875C91 86.0938 91.1563 86.25 91.375 86.25H92.375C93.1875 89.0312 95.5938 91 98.7813 91C99.5313 91 100.188 90.875 100.563 90.7812C100.781 90.75 100.906 90.5312 100.844 90.3437Z" fill="#222222"/>
<path fill-rule="evenodd" clip-rule="evenodd" d="M479 185.25H444V186.75H479C484.937 186.75 489.75 181.937 489.75 176V155H488.25V176C488.25 181.109 484.109 185.25 479 185.25Z" fill="#444957" fill-opacity="0.3"/>
<path fill-rule="evenodd" clip-rule="evenodd" d="M488.25 106V155H489.75V106C489.75 100.891 493.891 96.75 499 96.75H591V95.25H499C493.063 95.25 488.25 100.063 488.25 106Z" fill="#444957" fill-opacity="0.3"/>
<path fill-rule="evenodd" clip-rule="evenodd" d="M588 96C588 93.7909 589.791 92 592 92C594.209 92 596 93.7909 596 96C596 98.2091 594.209 100 592 100C589.791 100 588 98.2091 588 96Z" fill="white"/>
<path fill-rule="evenodd" clip-rule="evenodd" d="M589.5 96C589.5 94.6193 590.619 93.5 592 93.5C593.381 93.5 594.5 94.6193 594.5 96C594.5 97.3807 593.381 98.5 592 98.5C590.619 98.5 589.5 97.3807 589.5 96ZM592 92C589.791 92 588 93.7909 588 96C588 98.2091 589.791 100 592 100C594.209 100 596 98.2091 596 96C596 93.7909 594.209 92 592 92Z" fill="url(#paint1_linear_22_275)"/>
<path fill-rule="evenodd" clip-rule="evenodd" d="M439 186C439 183.791 440.791 182 443 182C445.209 182 447 183.791 447 186C447 188.209 445.209 190 443 190C440.791 190 439 188.209 439 186Z" fill="white"/>
<path fill-rule="evenodd" clip-rule="evenodd" d="M441.5 186C441.5 184.619 442.619 183.5 444 183.5C445.381 183.5 446.5 184.619 446.5 186C446.5 187.381 445.381 188.5 444 188.5C442.619 188.5 441.5 187.381 441.5 186ZM444 182C441.791 182 440 183.791 440 186C440 188.209 441.791 190 444 190C446.209 190 448 188.209 448 186C448 183.791 446.209 182 444 182Z" fill="url(#paint2_linear_22_275)"/>
<path fill-rule="evenodd" clip-rule="evenodd" d="M439 208C439 205.791 440.791 204 443 204C445.209 204 447 205.791 447 208C447 210.209 445.209 212 443 212C440.791 212 439 210.209 439 208Z" fill="white"/>
<path fill-rule="evenodd" clip-rule="evenodd" d="M441.5 208C441.5 206.619 442.619 205.5 444 205.5C445.381 205.5 446.5 206.619 446.5 208C446.5 209.381 445.381 210.5 444 210.5C442.619 210.5 441.5 209.381 441.5 208ZM444 204C441.791 204 440 205.791 440 208C440 210.209 441.791 212 444 212C446.209 212 448 210.209 448 208C448 205.791 446.209 204 444 204Z" fill="url(#paint3_linear_22_275)"/>
<path fill-rule="evenodd" clip-rule="evenodd" d="M439 230C439 227.791 440.791 226 443 226C445.209 226 447 227.791 447 230C447 232.209 445.209 234 443 234C440.791 234 439 232.209 439 230Z" fill="white"/>
<path fill-rule="evenodd" clip-rule="evenodd" d="M441.5 230C441.5 228.619 442.619 227.5 444 227.5C445.381 227.5 446.5 228.619 446.5 230C446.5 231.381 445.381 232.5 444 232.5C442.619 232.5 441.5 231.381 441.5 230ZM444 226C441.791 226 440 227.791 440 230C440 232.209 441.791 234 444 234C446.209 234 448 232.209 448 230C448 227.791 446.209 226 444 226Z" fill="url(#paint4_linear_22_275)"/>
<path fill-rule="evenodd" clip-rule="evenodd" d="M439 254C439 251.791 440.791 250 443 250C445.209 250 447 251.791 447 254C447 256.209 445.209 258 443 258C440.791 258 439 256.209 439 254Z" fill="white"/>
<path fill-rule="evenodd" clip-rule="evenodd" d="M441.5 253C441.5 251.619 442.619 250.5 444 250.5C445.381 250.5 446.5 251.619 446.5 253C446.5 254.381 445.381 255.5 444 255.5C442.619 255.5 441.5 254.381 441.5 253ZM444 249C441.791 249 440 250.791 440 253C440 255.209 441.791 257 444 257C446.209 257 448 255.209 448 253C448 250.791 446.209 249 444 249Z" fill="url(#paint5_linear_22_275)"/>
<path fill-rule="evenodd" clip-rule="evenodd" d="M439 274C439 271.791 440.791 270 443 270C445.209 270 447 271.791 447 274C447 276.209 445.209 278 443 278C440.791 278 439 276.209 439 274Z" fill="white"/>
<path fill-rule="evenodd" clip-rule="evenodd" d="M441.5 274C441.5 272.619 442.619 271.5 444 271.5C445.381 271.5 446.5 272.619 446.5 274C446.5 275.381 445.381 276.5 444 276.5C442.619 276.5 441.5 275.381 441.5 274ZM444 270C441.791 270 440 271.791 440 274C440 276.209 441.791 278 444 278C446.209 278 448 276.209 448 274C448 271.791 446.209 270 444 270Z" fill="url(#paint6_linear_22_275)"/>
<path fill-rule="evenodd" clip-rule="evenodd" d="M587 163C587 160.791 588.791 159 591 159C593.209 159 595 160.791 595 163C595 165.209 593.209 167 591 167C588.791 167 587 165.209 587 163Z" fill="white"/>
<path fill-rule="evenodd" clip-rule="evenodd" d="M588.5 163C588.5 161.619 589.619 160.5 591 160.5C592.381 160.5 593.5 161.619 593.5 163C593.5 164.381 592.381 165.5 591 165.5C589.619 165.5 588.5 164.381 588.5 163ZM591 159C588.791 159 587 160.791 587 163C587 165.209 588.791 167 591 167C593.209 167 595 165.209 595 163C595 160.791 593.209 159 591 159Z" fill="url(#paint7_linear_22_275)"/>
<path fill-rule="evenodd" clip-rule="evenodd" d="M585 230C585 227.791 586.791 226 589 226C591.209 226 593 227.791 593 230C593 232.209 591.209 234 589 234C586.791 234 585 232.209 585 230Z" fill="white"/>
<path fill-rule="evenodd" clip-rule="evenodd" d="M586.5 230C586.5 228.619 587.619 227.5 589 227.5C590.381 227.5 591.5 228.619 591.5 230C591.5 231.381 590.381 232.5 589 232.5C587.619 232.5 586.5 231.381 586.5 230ZM589 226C586.791 226 585 227.791 585 230C585 232.209 586.791 234 589 234C591.209 234 593 232.209 593 230C593 227.791 591.209 226 589 226Z" fill="#222222"/>
<path fill-rule="evenodd" clip-rule="evenodd" d="M585 296C585 293.791 586.791 292 589 292C591.209 292 593 293.791 593 296C593 298.209 591.209 300 589 300C586.791 300 585 298.209 585 296Z" fill="white"/>
<path fill-rule="evenodd" clip-rule="evenodd" d="M586.5 295C586.5 293.619 587.619 292.5 589 292.5C590.381 292.5 591.5 293.619 591.5 295C591.5 296.381 590.381 297.5 589 297.5C587.619 297.5 586.5 296.381 586.5 295ZM589 291C586.791 291 585 292.791 585 295C585 297.209 586.791 299 589 299C591.209 299 593 297.209 593 295C593 292.791 591.209 291 589 291Z" fill="url(#paint8_linear_22_275)"/>
<path fill-rule="evenodd" clip-rule="evenodd" d="M586 365C586 362.791 587.791 361 590 361C592.209 361 594 362.791 594 365C594 367.209 592.209 369 590 369C587.791 369 586 367.209 586 365Z" fill="white"/>
<path fill-rule="evenodd" clip-rule="evenodd" d="M587.5 365C587.5 363.619 588.619 362.5 590 362.5C591.381 362.5 592.5 363.619 592.5 365C592.5 366.381 591.381 367.5 590 367.5C588.619 367.5 587.5 366.381 587.5 365ZM590 361C587.791 361 586 362.791 586 365C586 367.209 587.791 369 590 369C592.209 369 594 367.209 594 365C594 362.791 592.209 361 590 361Z" fill="url(#paint9_linear_22_275)"/>
<path fill-rule="evenodd" clip-rule="evenodd" d="M523.25 284.59V271.5H524.75V284.59C524.75 289.698 528.891 293.84 534 293.84H586V295.34H534C528.063 295.34 523.25 290.527 523.25 284.59Z" fill="#444957" fill-opacity="0.3"/>
<path fill-rule="evenodd" clip-rule="evenodd" d="M246 197.25H281V198.75H246C240.063 198.75 235.25 193.937 235.25 188V168H236.75V188C236.75 193.109 240.891 197.25 246 197.25Z" fill="#444957" fill-opacity="0.3"/>
<path fill-rule="evenodd" clip-rule="evenodd" d="M236.75 119V168H235.25V119C235.25 113.891 231.109 109.75 226 109.75H183.5V108.25H226C231.937 108.25 236.75 113.063 236.75 119Z" fill="#444957" fill-opacity="0.3"/>
<path fill-rule="evenodd" clip-rule="evenodd" d="M246 262.75H281V261.25H246C240.063 261.25 235.25 266.063 235.25 272V290H236.75V272C236.75 266.891 240.891 262.75 246 262.75Z" fill="#444957" fill-opacity="0.3"/>
<path fill-rule="evenodd" clip-rule="evenodd" d="M236.75 339V290H235.25V339C235.25 344.109 231.109 348.25 226 348.25H183.5V349.75H226C231.937 349.75 236.75 344.937 236.75 339Z" fill="#444957" fill-opacity="0.3"/>
<path d="M104 93C104 91.8954 104.895 91 106 91H161C162.105 91 163 91.8954 163 93V106C163 107.105 162.105 108 161 108H106C104.895 108 104 107.105 104 106V93Z" fill="#7FC591"/>
<path fill-rule="evenodd" clip-rule="evenodd" d="M161 92H106C105.448 92 105 92.4477 105 93V106C105 106.552 105.448 107 106 107H161C161.552 107 162 106.552 162 106V93C162 92.4477 161.552 92 161 92ZM106 91C104.895 91 104 91.8954 104 93V106C104 107.105 104.895 108 106 108H161C162.105 108 163 107.105 163 106V93C163 91.8954 162.105 91 161 91H106Z" fill="#7FC591"/>
<path d="M118.312 103.625C118.566 103.625 118.781 103.43 118.781 103.156V99.25H120.793C121.223 99.25 121.418 98.7617 121.125 98.4492L117.707 95.0117C117.512 94.8359 117.219 94.8359 117.043 95.0117L113.605 98.4492C113.312 98.7617 113.508 99.25 113.937 99.25H115.969V103.156C115.969 103.43 116.164 103.625 116.437 103.625H118.312Z" fill="white"/>
<path opacity="0.8" d="M124.297 330.187L82.8125 330.188V299.953C82.8125 299.602 82.4609 299.25 82.1094 299.25H80.7031C80.2637 299.25 80 299.602 80 299.953V331.594C80 332.385 80.6152 333 81.4063 333H124.297C124.648 333 125 332.736 125 332.297V330.891C125 330.539 124.648 330.187 124.297 330.187ZM88.6133 316.828C88.3496 317.092 88.3496 317.531 88.6133 317.795L89.5801 318.762C89.8438 319.025 90.2832 319.025 90.5469 318.762L96.9629 312.434L104.434 319.904C104.961 320.432 105.84 320.432 106.367 319.904L114.629 311.643L118.496 315.51C118.936 315.949 119.463 316.125 119.99 316.125C121.133 316.125 122.188 315.334 122.188 314.016V303.557C122.188 302.766 121.484 302.062 120.693 302.062H110.234C108.301 302.062 107.334 304.436 108.74 305.754L112.607 309.709L105.4 316.916L98.0176 309.445C97.4023 308.918 96.5234 308.918 95.9961 309.445L88.6133 316.828ZM111.816 304.875H119.375V312.434L111.816 304.875Z" fill="#222222"/>
<path d="M628.312 148.125H622.188C621.914 148.125 621.75 148.344 621.75 148.562V149.438C621.75 149.711 621.914 149.875 622.188 149.875H628.312C628.531 149.875 628.75 149.711 628.75 149.438V148.562C628.75 148.344 628.531 148.125 628.312 148.125ZM628.312 153.375H622.188C621.914 153.375 621.75 153.594 621.75 153.812V154.688C621.75 154.961 621.914 155.125 622.188 155.125H628.312C628.531 155.125 628.75 154.961 628.75 154.688V153.812C628.75 153.594 628.531 153.375 628.312 153.375ZM619.125 147.688C618.359 147.688 617.812 148.289 617.812 149C617.812 149.766 618.359 150.312 619.125 150.312C619.836 150.312 620.438 149.766 620.438 149C620.438 148.289 619.836 147.688 619.125 147.688ZM619.125 152.938C618.359 152.938 617.812 153.539 617.812 154.25C617.812 155.016 618.359 155.562 619.125 155.562C619.836 155.562 620.438 155.016 620.438 154.25C620.438 153.539 619.836 152.938 619.125 152.938ZM631.375 138.5H626.508C626.508 138.391 626.562 138.227 626.562 138.062C626.562 136.422 625.141 135 623.5 135C621.805 135 620.438 136.422 620.438 138.062C620.438 138.227 620.438 138.391 620.438 138.5H615.625C614.148 138.5 613 139.703 613 141.125V160.375C613 161.852 614.148 163 615.625 163H631.375C632.797 163 634 161.852 634 160.375V141.125C634 139.703 632.797 138.5 631.375 138.5ZM623.5 136.75C624.211 136.75 624.812 137.352 624.812 138.062C624.812 138.828 624.211 139.375 623.5 139.375C622.734 139.375 622.188 138.828 622.188 138.062C622.188 137.352 622.734 136.75 623.5 136.75ZM632.25 160.375C632.25 160.867 631.812 161.25 631.375 161.25H615.625C615.133 161.25 614.75 160.867 614.75 160.375V141.125C614.75 140.688 615.133 140.25 615.625 140.25H618.25V141.344C618.25 141.727 618.523 142 618.906 142H628.094C628.422 142 628.75 141.727 628.75 141.344V140.25H631.375C631.812 140.25 632.25 140.688 632.25 141.125V160.375Z" fill="white"/>
<path opacity="0.8" fill-rule="evenodd" clip-rule="evenodd" d="M625.508 139.225C625.102 139.931 624.338 140.375 623.5 140.375C622.577 140.375 621.813 139.887 621.438 139.142V139.5H619.25V141H627.75V139.5H625.508V139.225ZM618.899 148.774C618.849 148.825 618.812 148.903 618.812 149C618.812 149.138 618.858 149.205 618.889 149.236C618.92 149.267 618.987 149.312 619.125 149.312C619.222 149.312 619.3 149.276 619.351 149.226C619.398 149.18 619.438 149.11 619.438 149C619.438 148.931 619.408 148.851 619.341 148.784C619.274 148.717 619.194 148.688 619.125 148.688C619.015 148.688 618.945 148.727 618.899 148.774ZM618.899 154.024C618.849 154.075 618.812 154.153 618.812 154.25C618.812 154.388 618.858 154.455 618.889 154.486C618.92 154.517 618.987 154.562 619.125 154.562C619.222 154.562 619.3 154.526 619.351 154.476C619.398 154.43 619.438 154.36 619.438 154.25C619.438 154.181 619.408 154.101 619.341 154.034C619.274 153.967 619.194 153.938 619.125 153.938C619.015 153.938 618.945 153.977 618.899 154.024ZM626.508 137.507C626.232 136.113 624.952 135 623.5 135C621.805 135 620.438 136.422 620.438 138.062V138.5H615.625C614.148 138.5 613 139.703 613 141.125V160.375C613 161.852 614.148 163 615.625 163H631.375C632.797 163 634 161.852 634 160.375V141.125C634 139.703 632.797 138.5 631.375 138.5H626.508C626.508 138.451 626.519 138.391 626.531 138.324C626.546 138.243 626.562 138.153 626.562 138.062C626.562 137.874 626.544 137.688 626.508 137.507ZM627.504 138.565C627.504 138.565 627.504 138.564 627.505 138.562L627.504 138.565ZM622.188 148.125H628.312C628.531 148.125 628.75 148.344 628.75 148.562V149.438C628.75 149.711 628.531 149.875 628.312 149.875H622.188C621.914 149.875 621.75 149.711 621.75 149.438V148.562C621.75 148.344 621.914 148.125 622.188 148.125ZM622.188 153.375H628.312C628.531 153.375 628.75 153.594 628.75 153.812V154.688C628.75 154.961 628.531 155.125 628.312 155.125H622.188C621.914 155.125 621.75 154.961 621.75 154.688V153.812C621.75 153.594 621.914 153.375 622.188 153.375ZM617.812 149C617.812 148.289 618.359 147.688 619.125 147.688C619.836 147.688 620.438 148.289 620.438 149C620.438 149.766 619.836 150.312 619.125 150.312C618.359 150.312 617.812 149.766 617.812 149ZM617.812 154.25C617.812 153.539 618.359 152.938 619.125 152.938C619.836 152.938 620.438 153.539 620.438 154.25C620.438 155.016 619.836 155.562 619.125 155.562C618.359 155.562 617.812 155.016 617.812 154.25ZM624.812 138.062C624.812 137.352 624.211 136.75 623.5 136.75C622.734 136.75 622.188 137.352 622.188 138.062C622.188 138.828 622.734 139.375 623.5 139.375C624.211 139.375 624.812 138.828 624.812 138.062ZM631.375 161.25C631.812 161.25 632.25 160.867 632.25 160.375V141.125C632.25 140.688 631.812 140.25 631.375 140.25H628.75V141.344C628.75 141.727 628.422 142 628.094 142H618.906C618.523 142 618.25 141.727 618.25 141.344V140.25H615.625C615.133 140.25 614.75 140.688 614.75 141.125V160.375C614.75 160.867 615.133 161.25 615.625 161.25H631.375Z" fill="#222222"/>
<path d="M102 325C102 323.895 102.895 323 104 323H159C160.105 323 161 323.895 161 325V338C161 339.105 160.105 340 159 340H104C102.895 340 102 339.105 102 338V325Z" fill="#7FC591"/>
<path fill-rule="evenodd" clip-rule="evenodd" d="M159 324H104C103.448 324 103 324.448 103 325V338C103 338.552 103.448 339 104 339H159C159.552 339 160 338.552 160 338V325C160 324.448 159.552 324 159 324ZM104 323C102.895 323 102 323.895 102 325V338C102 339.105 102.895 340 104 340H159C160.105 340 161 339.105 161 338V325C161 323.895 160.105 323 159 323H104Z" fill="#7FC591"/>
<path d="M116.312 335.625C116.566 335.625 116.781 335.43 116.781 335.156V331.25H118.793C119.223 331.25 119.418 330.762 119.125 330.449L115.707 327.012C115.512 326.836 115.219 326.836 115.043 327.012L111.605 330.449C111.312 330.762 111.508 331.25 111.937 331.25H113.969V335.156C113.969 335.43 114.164 335.625 114.437 335.625H116.312Z" fill="white"/>
<path d="M302 175C302 172.239 304.239 170 307 170H418C420.761 170 423 172.239 423 175V286C423 288.761 420.761 291 418 291H307C304.239 291 302 288.761 302 286V175Z" fill="#222222"/>
<g filter="url(#filter0_d_22_275)">
<path d="M324.829 238.571C324.896 238.705 325.052 238.816 325.207 238.816H325.43C325.608 238.816 325.741 238.705 325.808 238.571L332.637 223.601C332.771 223.312 332.593 223.022 332.259 223.022H330.68C330.479 223.022 330.346 223.156 330.301 223.267L325.408 234.278H325.274L320.38 223.267C320.336 223.156 320.18 223.022 320.002 223.022H318.423C318.089 223.022 317.911 223.312 318.045 223.601L324.829 238.571Z" fill="url(#paint10_linear_22_275)"/>
<path d="M324.829 238.571C324.896 238.705 325.052 238.816 325.207 238.816H325.43C325.608 238.816 325.741 238.705 325.808 238.571L332.637 223.601C332.771 223.312 332.593 223.022 332.259 223.022H330.68C330.479 223.022 330.346 223.156 330.301 223.267L325.408 234.278H325.274L320.38 223.267C320.336 223.156 320.18 223.022 320.002 223.022H318.423C318.089 223.022 317.911 223.312 318.045 223.601L324.829 238.571Z" fill="url(#paint11_linear_22_275)"/>
<path d="M338.091 230.83C338.091 235.279 341.628 238.816 346.077 238.816C350.526 238.816 354.085 235.279 354.085 230.83C354.085 226.381 350.526 222.8 346.077 222.8C341.628 222.8 338.091 226.381 338.091 230.83ZM340.315 230.83C340.315 227.672 342.918 225.025 346.077 225.025C349.258 225.025 351.86 227.672 351.86 230.83C351.86 234.011 349.258 236.592 346.077 236.592C342.918 236.592 340.315 234.011 340.315 230.83Z" fill="url(#paint12_linear_22_275)"/>
<path d="M338.091 230.83C338.091 235.279 341.628 238.816 346.077 238.816C350.526 238.816 354.085 235.279 354.085 230.83C354.085 226.381 350.526 222.8 346.077 222.8C341.628 222.8 338.091 226.381 338.091 230.83ZM340.315 230.83C340.315 227.672 342.918 225.025 346.077 225.025C349.258 225.025 351.86 227.672 351.86 230.83C351.86 234.011 349.258 236.592 346.077 236.592C342.918 236.592 340.315 234.011 340.315 230.83Z" fill="url(#paint13_linear_22_275)"/>
<path d="M361.705 238.171C361.705 238.394 361.883 238.594 362.127 238.594H363.573C363.796 238.594 363.996 238.394 363.996 238.171V232.499H367.355L370.313 238.394C370.358 238.483 370.491 238.594 370.669 238.594H372.404C372.783 238.594 372.938 238.238 372.783 237.949L369.735 232.299C371.67 231.52 373.027 229.829 373.027 227.783C373.027 225.136 370.847 223.022 368.178 223.022H362.127C361.883 223.022 361.705 223.223 361.705 223.445V238.171ZM364.04 230.586V225.18H368C369.446 225.18 370.714 226.381 370.714 227.827C370.714 229.362 369.446 230.586 368 230.586H364.04Z" fill="url(#paint14_linear_22_275)"/>
<path d="M361.705 238.171C361.705 238.394 361.883 238.594 362.127 238.594H363.573C363.796 238.594 363.996 238.394 363.996 238.171V232.499H367.355L370.313 238.394C370.358 238.483 370.491 238.594 370.669 238.594H372.404C372.783 238.594 372.938 238.238 372.783 237.949L369.735 232.299C371.67 231.52 373.027 229.829 373.027 227.783C373.027 225.136 370.847 223.022 368.178 223.022H362.127C361.883 223.022 361.705 223.223 361.705 223.445V238.171ZM364.04 230.586V225.18H368C369.446 225.18 370.714 226.381 370.714 227.827C370.714 229.362 369.446 230.586 368 230.586H364.04Z" fill="url(#paint15_linear_22_275)"/>
<path d="M383.083 238.171C383.083 238.394 383.283 238.594 383.505 238.594H384.973C385.196 238.594 385.396 238.394 385.396 238.171V225.113H389.022C389.267 225.113 389.445 224.913 389.445 224.691V223.445C389.445 223.223 389.267 223.022 389.022 223.022H379.457C379.212 223.022 379.034 223.223 379.034 223.445V224.691C379.034 224.913 379.212 225.113 379.457 225.113H383.083V238.171Z" fill="url(#paint16_linear_22_275)"/>
<path d="M383.083 238.171C383.083 238.394 383.283 238.594 383.505 238.594H384.973C385.196 238.594 385.396 238.394 385.396 238.171V225.113H389.022C389.267 225.113 389.445 224.913 389.445 224.691V223.445C389.445 223.223 389.267 223.022 389.022 223.022H379.457C379.212 223.022 379.034 223.223 379.034 223.445V224.691C379.034 224.913 379.212 225.113 379.457 225.113H383.083V238.171Z" fill="url(#paint17_linear_22_275)"/>
<path d="M393.741 238.594H395.143C395.409 238.594 395.587 238.416 395.654 238.26C396.099 237.237 396.566 236.236 397.011 235.213H404.285L405.664 238.26C405.753 238.46 405.909 238.594 406.176 238.594H407.577C407.911 238.594 408.089 238.305 407.955 238.015L401.171 223.045C401.104 222.911 400.904 222.8 400.793 222.8H400.57C400.459 222.8 400.259 222.911 400.192 223.045L393.363 238.015C393.229 238.305 393.407 238.594 393.741 238.594ZM397.879 233.3L400.592 227.204H400.704L403.44 233.3H397.879Z" fill="url(#paint18_linear_22_275)"/>
<path d="M393.741 238.594H395.143C395.409 238.594 395.587 238.416 395.654 238.26C396.099 237.237 396.566 236.236 397.011 235.213H404.285L405.664 238.26C405.753 238.46 405.909 238.594 406.176 238.594H407.577C407.911 238.594 408.089 238.305 407.955 238.015L401.171 223.045C401.104 222.911 400.904 222.8 400.793 222.8H400.57C400.459 222.8 400.259 222.911 400.192 223.045L393.363 238.015C393.229 238.305 393.407 238.594 393.741 238.594ZM397.879 233.3L400.592 227.204H400.704L403.44 233.3H397.879Z" fill="url(#paint19_linear_22_275)"/>
</g>
<path opacity="0.8" fill-rule="evenodd" clip-rule="evenodd" d="M621.286 67.5536C621.286 66.7126 620.573 66 619.732 66H614.554C613.647 66 613 66.7126 613 67.5536V93.4464C613 94.3527 613.647 95 614.554 95H644.589C645.43 95 646.143 94.3527 646.143 93.4464V75.8393C646.143 74.6741 644.912 73.9615 643.877 74.4794L633.714 79.5937V75.8393C633.714 74.6741 632.484 73.9615 631.448 74.4794L621.286 79.5937V67.5536ZM619.927 82.5714C619.603 82.7009 619.214 82.442 619.214 82.0536V68.0714H615.071V92.9286H644.071V76.6803L632.355 82.5714C632.031 82.7009 631.643 82.442 631.643 82.0536V76.6803L619.927 82.5714ZM638.893 87.75V85.6786H636.821V87.75H638.893ZM630.607 85.6786H628.536V87.75H630.607V85.6786ZM622.321 85.6786H620.25V87.75H622.321V85.6786ZM639.929 88.0089C639.929 88.4615 639.54 88.7857 639.152 88.7857H636.562C636.109 88.7857 635.786 88.4615 635.786 88.0089V85.4196C635.786 85.0312 636.109 84.6429 636.562 84.6429H639.152C639.54 84.6429 639.929 85.0312 639.929 85.4196V88.0089ZM631.643 85.4196V88.0089C631.643 88.4615 631.254 88.7857 630.866 88.7857H628.277C627.823 88.7857 627.5 88.4615 627.5 88.0089V85.4196C627.5 85.0312 627.823 84.6429 628.277 84.6429H630.866C631.254 84.6429 631.643 85.0312 631.643 85.4196ZM623.357 85.4196V88.0089C623.357 88.4615 622.969 88.7857 622.58 88.7857H619.991C619.537 88.7857 619.214 88.4626 619.214 88.0089V85.4196C619.214 85.0312 619.537 84.6429 619.991 84.6429H622.58C622.969 84.6429 623.357 85.0312 623.357 85.4196Z" fill="#222222"/>
<path d="M637.781 224.312H629.188V218.844C629.188 218.453 628.797 218.062 628.406 218.062H617.469C617.029 218.062 616.688 218.453 616.688 218.844V231.344C616.688 231.783 617.029 232.125 617.469 232.125H637.781C638.172 232.125 638.562 231.783 638.562 231.344V225.094C638.562 224.703 638.172 224.312 637.781 224.312ZM627.625 230.562H618.25V225.875H627.625V230.562ZM627.625 224.312H618.25V219.625H627.625V224.312ZM637 230.562H629.188V225.875H637V230.562ZM641.785 212.936L628.504 207.32C627.918 207.076 627.283 207.076 626.697 207.32L613.416 212.936C612.537 213.277 612 214.156 612 215.084V231.734C612 231.979 612.146 232.125 612.391 232.125H613.172C613.367 232.125 613.562 231.979 613.562 231.734V215.084C613.562 214.742 613.709 214.498 614.002 214.352L627.283 208.785C627.479 208.687 627.723 208.687 627.918 208.785L641.199 214.352C641.492 214.498 641.688 214.742 641.688 215.084V231.734C641.688 231.979 641.834 232.125 642.078 232.125H642.859C643.055 232.125 643.25 231.979 643.25 231.734V215.084C643.25 214.156 642.664 213.277 641.785 212.936Z" fill="white"/>
<path opacity="0.8" fill-rule="evenodd" clip-rule="evenodd" d="M628.504 207.32L641.785 212.936C642.664 213.277 643.25 214.156 643.25 215.084V231.734C643.25 231.979 643.055 232.125 642.859 232.125H642.078C641.834 232.125 641.688 231.979 641.688 231.734V215.084C641.688 214.742 641.492 214.498 641.199 214.352L627.918 208.785C627.723 208.687 627.479 208.687 627.283 208.785L614.002 214.352C613.709 214.498 613.562 214.742 613.562 215.084V231.734C613.562 231.979 613.367 232.125 613.172 232.125H612.391C612.146 232.125 612 231.979 612 231.734V215.084C612 214.156 612.537 213.277 613.416 212.936L626.697 207.32C627.283 207.076 627.918 207.076 628.504 207.32ZM637.781 224.312C638.172 224.312 638.562 224.703 638.562 225.094V231.344C638.562 231.783 638.172 232.125 637.781 232.125H617.469C617.029 232.125 616.688 231.783 616.688 231.344V218.844C616.688 218.453 617.029 218.062 617.469 218.062H628.406C628.797 218.062 629.188 218.453 629.188 218.844V224.312H637.781ZM627.625 230.562V225.875H618.25V230.562H627.625ZM627.625 224.312V219.625H618.25V224.312H627.625ZM637 230.562V225.875H629.188V230.562H637Z" fill="#222222"/>
<path opacity="0.8" d="M646.562 290.5H645.25V284.594C645.25 283.719 644.867 282.789 644.211 282.133L639.617 277.539C638.961 276.883 638.086 276.5 637.156 276.5H634.75V273.82C634.75 272.398 633.492 271.25 632.016 271.25H614.68C613.203 271.25 612 272.398 612 273.82V289.734C612 291.156 613.203 292.25 614.68 292.25H615.555C615.5 292.578 615.5 292.852 615.5 293.125C615.5 295.586 617.414 297.5 619.875 297.5C622.281 297.5 624.25 295.586 624.25 293.125C624.25 292.852 624.195 292.578 624.141 292.25H634.805C634.75 292.578 634.75 292.852 634.75 293.125C634.75 295.586 636.664 297.5 639.125 297.5C641.531 297.5 643.5 295.586 643.5 293.125C643.5 292.852 643.445 292.578 643.391 292.25H646.562C646.781 292.25 647 292.086 647 291.812V290.937C647 290.719 646.781 290.5 646.562 290.5ZM637.156 278.25C637.594 278.25 638.031 278.469 638.359 278.797L642.953 283.391C643.008 283.445 643.008 283.5 643.062 283.555H634.75V278.305H637.156V278.25ZM619.875 295.75C618.398 295.75 617.25 294.602 617.25 293.125C617.25 291.703 618.398 290.5 619.875 290.5C621.297 290.5 622.5 291.703 622.5 293.125C622.5 294.602 621.297 295.75 619.875 295.75ZM623.32 290.5C622.555 289.461 621.297 288.75 619.875 288.75C618.453 288.75 617.195 289.461 616.375 290.5H614.68C614.133 290.5 613.75 290.172 613.75 289.734V273.82C613.75 273.383 614.133 273 614.68 273H632.016C632.562 273 633 273.383 633 273.82V290.5H623.32ZM639.125 295.75C637.648 295.75 636.5 294.602 636.5 293.125C636.5 291.703 637.648 290.5 639.125 290.5C640.547 290.5 641.75 291.703 641.75 293.125C641.75 294.602 640.547 295.75 639.125 295.75ZM639.125 288.75C637.648 288.75 636.445 289.461 635.625 290.5H634.75V285.25H643.5V290.5H642.57C641.805 289.461 640.547 288.75 639.125 288.75Z" fill="white"/>
<path opacity="0.8" fill-rule="evenodd" clip-rule="evenodd" d="M645.25 286.555C645.25 286.568 645.25 286.581 645.25 286.594V292.5H646.562C646.781 292.5 647 292.719 647 292.937V293.812C647 294.086 646.781 294.25 646.562 294.25H643.391C643.399 294.298 643.407 294.345 643.414 294.39C643.46 294.658 643.5 294.891 643.5 295.125C643.5 295.167 643.499 295.208 643.498 295.25C643.433 297.65 641.49 299.5 639.125 299.5C636.706 299.5 634.815 297.65 634.752 295.25C634.751 295.208 634.75 295.167 634.75 295.125C634.75 294.852 634.75 294.578 634.805 294.25H624.141C624.149 294.298 624.157 294.345 624.164 294.39C624.21 294.658 624.25 294.891 624.25 295.125C624.25 295.167 624.249 295.208 624.248 295.25C624.183 297.65 622.24 299.5 619.875 299.5C617.456 299.5 615.565 297.65 615.502 295.25C615.501 295.208 615.5 295.167 615.5 295.125C615.5 294.852 615.5 294.578 615.555 294.25H614.68C614.634 294.25 614.589 294.249 614.544 294.247C613.13 294.182 612 293.113 612 291.734V275.82C612 274.398 613.203 273.25 614.68 273.25H632.016C633.492 273.25 634.75 274.398 634.75 275.82V278.5H637.156C638.086 278.5 638.961 278.883 639.617 279.539L644.211 284.133C644.798 284.72 645.166 285.526 645.237 286.315C645.245 286.395 645.249 286.475 645.25 286.555ZM642.953 285.391C642.98 285.418 642.994 285.445 643.008 285.473C643.021 285.5 643.035 285.527 643.062 285.555H634.75V280.305H637.156V280.25C637.286 280.25 637.415 280.269 637.542 280.305C637.76 280.366 637.97 280.475 638.156 280.619C638.228 280.673 638.296 280.733 638.359 280.797L642.953 285.391ZM616.375 292.5C617.195 291.461 618.453 290.75 619.875 290.75C621.297 290.75 622.555 291.461 623.32 292.5H633V275.82C633 275.383 632.562 275 632.016 275H614.68C614.133 275 613.75 275.383 613.75 275.82V291.734C613.75 292.172 614.133 292.5 614.68 292.5H616.375ZM642.5 292.407C641.729 291.419 640.504 290.75 639.125 290.75C637.722 290.75 636.565 291.392 635.75 292.348C635.707 292.398 635.666 292.448 635.625 292.5H634.75V287.25H643.5V292.5H642.57C642.547 292.469 642.524 292.438 642.5 292.407ZM617.25 295.125C617.25 296.602 618.398 297.75 619.875 297.75C621.297 297.75 622.5 296.602 622.5 295.125C622.5 293.703 621.297 292.5 619.875 292.5C618.398 292.5 617.25 293.703 617.25 295.125ZM636.5 295.125C636.5 296.602 637.648 297.75 639.125 297.75C640.547 297.75 641.75 296.602 641.75 295.125C641.75 293.703 640.547 292.5 639.125 292.5C637.648 292.5 636.5 293.703 636.5 295.125Z" fill="#222222"/>
<path d="M612.438 359.5H613.75V353.594C613.75 352.719 614.133 351.789 614.789 351.133L619.383 346.539C620.039 345.883 620.914 345.5 621.844 345.5H624.25V342.82C624.25 341.398 625.508 340.25 626.984 340.25H644.32C645.797 340.25 647 341.398 647 342.82V358.734C647 360.156 645.797 361.25 644.32 361.25H643.445C643.5 361.578 643.5 361.852 643.5 362.125C643.5 364.586 641.586 366.5 639.125 366.5C636.719 366.5 634.75 364.586 634.75 362.125C634.75 361.852 634.805 361.578 634.859 361.25H624.195C624.25 361.578 624.25 361.852 624.25 362.125C624.25 364.586 622.336 366.5 619.875 366.5C617.469 366.5 615.5 364.586 615.5 362.125C615.5 361.852 615.555 361.578 615.609 361.25H612.438C612.219 361.25 612 361.086 612 360.812V359.937C612 359.719 612.219 359.5 612.438 359.5ZM621.844 347.25C621.406 347.25 620.969 347.469 620.641 347.797L616.047 352.391C615.992 352.445 615.992 352.5 615.938 352.555H624.25V347.305H621.844V347.25ZM639.125 364.75C640.602 364.75 641.75 363.602 641.75 362.125C641.75 360.703 640.602 359.5 639.125 359.5C637.703 359.5 636.5 360.703 636.5 362.125C636.5 363.602 637.703 364.75 639.125 364.75ZM635.68 359.5C636.445 358.461 637.703 357.75 639.125 357.75C640.547 357.75 641.805 358.461 642.625 359.5H644.32C644.867 359.5 645.25 359.172 645.25 358.734V342.82C645.25 342.383 644.867 342 644.32 342H626.984C626.438 342 626 342.383 626 342.82V359.5H635.68ZM619.875 364.75C621.352 364.75 622.5 363.602 622.5 362.125C622.5 360.703 621.352 359.5 619.875 359.5C618.453 359.5 617.25 360.703 617.25 362.125C617.25 363.602 618.453 364.75 619.875 364.75ZM619.875 357.75C621.352 357.75 622.555 358.461 623.375 359.5H624.25V354.25H615.5V359.5H616.43C617.195 358.461 618.453 357.75 619.875 357.75Z" fill="white"/>
<path opacity="0.8" fill-rule="evenodd" clip-rule="evenodd" d="M613.75 355.555C613.75 355.568 613.75 355.581 613.75 355.594V361.5H612.438C612.219 361.5 612 361.719 612 361.937V362.812C612 363.086 612.219 363.25 612.438 363.25H615.609C615.601 363.298 615.593 363.345 615.586 363.39C615.54 363.658 615.5 363.891 615.5 364.125C615.5 364.167 615.501 364.208 615.502 364.25C615.567 366.65 617.51 368.5 619.875 368.5C622.294 368.5 624.185 366.65 624.248 364.25C624.249 364.208 624.25 364.167 624.25 364.125C624.25 363.852 624.25 363.578 624.195 363.25H634.859C634.851 363.298 634.843 363.345 634.836 363.39C634.79 363.658 634.75 363.891 634.75 364.125C634.75 364.167 634.751 364.208 634.752 364.25C634.817 366.65 636.76 368.5 639.125 368.5C641.544 368.5 643.435 366.65 643.498 364.25C643.499 364.208 643.5 364.167 643.5 364.125C643.5 363.852 643.5 363.578 643.445 363.25H644.32C644.366 363.25 644.411 363.249 644.456 363.247C645.87 363.182 647 362.113 647 360.734V344.82C647 343.398 645.797 342.25 644.32 342.25H626.984C625.508 342.25 624.25 343.398 624.25 344.82V347.5H621.844C620.914 347.5 620.039 347.883 619.383 348.539L614.789 353.133C614.202 353.72 613.834 354.526 613.763 355.315C613.755 355.395 613.751 355.475 613.75 355.555ZM616.047 354.391C616.02 354.418 616.006 354.445 615.992 354.473C615.979 354.5 615.965 354.527 615.938 354.555H624.25V349.305H621.844V349.25C621.714 349.25 621.585 349.269 621.458 349.305C621.24 349.366 621.03 349.475 620.844 349.619C620.772 349.673 620.704 349.733 620.641 349.797L616.047 354.391ZM642.625 361.5C641.805 360.461 640.547 359.75 639.125 359.75C637.703 359.75 636.445 360.461 635.68 361.5H626V344.82C626 344.383 626.438 344 626.984 344H644.32C644.867 344 645.25 344.383 645.25 344.82V360.734C645.25 361.172 644.867 361.5 644.32 361.5H642.625ZM616.5 361.407C617.271 360.419 618.496 359.75 619.875 359.75C621.278 359.75 622.435 360.392 623.25 361.348C623.293 361.398 623.334 361.448 623.375 361.5H624.25V356.25H615.5V361.5H616.43C616.453 361.469 616.476 361.438 616.5 361.407ZM641.75 364.125C641.75 365.602 640.602 366.75 639.125 366.75C637.703 366.75 636.5 365.602 636.5 364.125C636.5 362.703 637.703 361.5 639.125 361.5C640.602 361.5 641.75 362.703 641.75 364.125ZM622.5 364.125C622.5 365.602 621.352 366.75 619.875 366.75C618.453 366.75 617.25 365.602 617.25 364.125C617.25 362.703 618.453 361.5 619.875 361.5C621.352 361.5 622.5 362.703 622.5 364.125Z" fill="#222222"/>
<path fill-rule="evenodd" clip-rule="evenodd" d="M277 198C277 195.791 278.791 194 281 194C283.209 194 285 195.791 285 198C285 200.209 283.209 202 281 202C278.791 202 277 200.209 277 198Z" fill="white"/>
<path fill-rule="evenodd" clip-rule="evenodd" d="M278.5 198C278.5 196.619 279.619 195.5 281 195.5C282.381 195.5 283.5 196.619 283.5 198C283.5 199.381 282.381 200.5 281 200.5C279.619 200.5 278.5 199.381 278.5 198ZM281 194C278.791 194 277 195.791 277 198C277 200.209 278.791 202 281 202C283.209 202 285 200.209 285 198C285 195.791 283.209 194 281 194Z" fill="url(#paint20_linear_22_275)"/>
<path fill-rule="evenodd" clip-rule="evenodd" d="M178 349C178 346.791 179.791 345 182 345C184.209 345 186 346.791 186 349C186 351.209 184.209 353 182 353C179.791 353 178 351.209 178 349Z" fill="white"/>
<path fill-rule="evenodd" clip-rule="evenodd" d="M179.5 349C179.5 347.619 180.619 346.5 182 346.5C183.381 346.5 184.5 347.619 184.5 349C184.5 350.381 183.381 351.5 182 351.5C180.619 351.5 179.5 350.381 179.5 349ZM182 345C179.791 345 178 346.791 178 349C178 351.209 179.791 353 182 353C184.209 353 186 351.209 186 349C186 346.791 184.209 345 182 345Z" fill="url(#paint21_linear_22_275)"/>
<path fill-rule="evenodd" clip-rule="evenodd" d="M125 230C125 227.791 126.791 226 129 226C131.209 226 133 227.791 133 230C133 232.209 131.209 234 129 234C126.791 234 125 232.209 125 230Z" fill="white"/>
<path fill-rule="evenodd" clip-rule="evenodd" d="M178 109C178 106.791 179.791 105 182 105C184.209 105 186 106.791 186 109C186 111.209 184.209 113 182 113C179.791 113 178 111.209 178 109Z" fill="white"/>
<path fill-rule="evenodd" clip-rule="evenodd" d="M179.5 109C179.5 107.619 180.619 106.5 182 106.5C183.381 106.5 184.5 107.619 184.5 109C184.5 110.381 183.381 111.5 182 111.5C180.619 111.5 179.5 110.381 179.5 109ZM182 105C179.791 105 178 106.791 178 109C178 111.209 179.791 113 182 113C184.209 113 186 111.209 186 109C186 106.791 184.209 105 182 105Z" fill="url(#paint22_linear_22_275)"/>
<path fill-rule="evenodd" clip-rule="evenodd" d="M278 262C278 259.791 279.791 258 282 258C284.209 258 286 259.791 286 262C286 264.209 284.209 266 282 266C279.791 266 278 264.209 278 262Z" fill="white"/>
<path fill-rule="evenodd" clip-rule="evenodd" d="M278.5 262C278.5 260.619 279.619 259.5 281 259.5C282.381 259.5 283.5 260.619 283.5 262C283.5 263.381 282.381 264.5 281 264.5C279.619 264.5 278.5 263.381 278.5 262ZM281 258C278.791 258 277 259.791 277 262C277 264.209 278.791 266 281 266C283.209 266 285 264.209 285 262C285 259.791 283.209 258 281 258Z" fill="url(#paint23_linear_22_275)"/>
<path fill-rule="evenodd" clip-rule="evenodd" d="M277 230C277 227.791 278.791 226 281 226C283.209 226 285 227.791 285 230C285 232.209 283.209 234 281 234C278.791 234 277 232.209 277 230Z" fill="white"/>
<path fill-rule="evenodd" clip-rule="evenodd" d="M278.5 230C278.5 228.619 279.619 227.5 281 227.5C282.381 227.5 283.5 228.619 283.5 230C283.5 231.381 282.381 232.5 281 232.5C279.619 232.5 278.5 231.381 278.5 230ZM281 226C278.791 226 277 227.791 277 230C277 232.209 278.791 234 281 234C283.209 234 285 232.209 285 230C285 227.791 283.209 226 281 226Z" fill="url(#paint24_linear_22_275)"/>
<path fill-rule="evenodd" clip-rule="evenodd" d="M127 228C127 225.791 128.791 224 131 224C133.209 224 135 225.791 135 228C135 230.209 133.209 232 131 232C128.791 232 127 230.209 127 228Z" fill="white"/>
<path fill-rule="evenodd" clip-rule="evenodd" d="M128.5 230C128.5 228.619 129.619 227.5 131 227.5C132.381 227.5 133.5 228.619 133.5 230C133.5 231.381 132.381 232.5 131 232.5C129.619 232.5 128.5 231.381 128.5 230ZM131 226C128.791 226 127 227.791 127 230C127 232.209 128.791 234 131 234C133.209 234 135 232.209 135 230C135 227.791 133.209 226 131 226Z" fill="url(#paint25_linear_22_275)"/>
<path opacity="0.8" d="M40.0781 198.141L38.5938 200.094L34.8438 197.281L36.3281 195.328L40.0781 198.141ZM45 199C46.0156 199 46.9531 199.313 47.7344 199.781C48.2813 200.172 48.75 200.641 49.1406 201.188C49.6875 201.969 50 202.906 50 204C50 205.016 49.6875 205.953 49.1406 206.734C48.9063 207.047 48.75 207.281 48.5156 207.516C48.2813 207.75 48.0469 207.906 47.7344 208.141C46.9531 208.688 46.0156 209 45 209C43.9063 209 42.9688 208.688 42.1875 208.141C41.6406 207.75 41.1719 207.281 40.7813 206.734C40.3125 205.953 40 205.016 40 204C40 201.188 42.1875 199 45 199ZM45 206.5C46.3281 206.5 47.5 205.328 47.5 204C47.5 202.594 46.3281 201.5 45 201.5C43.5938 201.5 42.5 202.594 42.5 204C42.5 205.328 43.5938 206.5 45 206.5ZM7.73438 194.391C6.95313 194.938 6.01563 195.25 5 195.25C3.90625 195.25 2.96875 194.938 2.1875 194.391C1.64063 194 1.17188 193.531 0.78125 192.984C0.3125 192.203 0 191.266 0 190.25C0 187.438 2.1875 185.25 5 185.25C7.73438 185.25 10 187.438 10 190.25C10 191.266 9.6875 192.203 9.14063 192.984C8.75 193.531 8.28125 194 7.73438 194.391ZM5 187.75C3.59375 187.75 2.5 188.844 2.5 190.25C2.5 191.578 3.59375 192.75 5 192.75C6.32813 192.75 7.5 191.578 7.5 190.25C7.5 188.844 6.32813 187.75 5 187.75ZM11.875 189H15.625V191.5H11.875V189ZM48.5156 182.516C48.2813 182.75 48.0469 182.906 47.7344 183.141C46.9531 183.688 46.0156 184 45 184C43.9063 184 42.9688 183.688 42.1875 183.141C41.875 182.906 41.6406 182.75 41.4844 182.516L34.2969 186.813C34.6875 187.906 35 189 35 190.25C35 195.016 31.0156 199 26.25 199C25.3125 199 24.5313 198.766 23.6719 198.531L20.625 205.094C21.7188 206.031 22.5 207.438 22.5 209C22.5 210.016 22.1875 210.953 21.6406 211.734C21.25 212.281 20.7813 212.75 20.2344 213.141C19.4531 213.688 18.5156 214 17.5 214C16.4062 214 15.4688 213.688 14.6875 213.141C14.1406 212.75 13.6719 212.281 13.2813 211.734C12.8125 210.953 12.5 210.016 12.5 209C12.5 206.188 14.6875 204 17.5 204C17.8125 204 18.0469 204 18.3594 204.078L21.4063 197.516C19.0625 195.953 17.5 193.297 17.5 190.25C17.5 185.406 21.4063 181.5 26.25 181.5C28.9844 181.5 31.3281 182.75 32.9688 184.703L40.1563 180.406C40.0781 179.938 40 179.469 40 179C40 176.188 42.1875 174 45 174C46.0156 174 46.9531 174.313 47.7344 174.781C48.2813 175.172 48.75 175.641 49.1406 176.188C49.6875 176.969 50 177.906 50 179C50 180.016 49.6875 180.953 49.1406 181.734C48.9063 182.047 48.75 182.281 48.5156 182.516ZM17.5 206.5C16.0938 206.5 15 207.594 15 209C15 210.328 16.0938 211.5 17.5 211.5C18.8281 211.5 20 210.328 20 209C20 207.594 18.8281 206.5 17.5 206.5ZM26.25 184C22.7344 184 20 186.734 20 190.25C20 193.688 22.7344 196.5 26.25 196.5C29.6875 196.5 32.5 193.688 32.5 190.25C32.5 186.734 29.6875 184 26.25 184ZM45 176.5C43.5938 176.5 42.5 177.594 42.5 179C42.5 180.328 43.5938 181.5 45 181.5C46.3281 181.5 47.5 180.328 47.5 179C47.5 177.594 46.3281 176.5 45 176.5Z" fill="#222222"/>
<path d="M28 207C28 205.895 28.8954 205 30 205H107C108.105 205 109 205.895 109 207V220C109 221.105 108.105 222 107 222H30C28.8954 222 28 221.105 28 220V207Z" fill="#7FC591"/>
<path fill-rule="evenodd" clip-rule="evenodd" d="M107 206H30C29.4477 206 29 206.448 29 207V220C29 220.552 29.4477 221 30 221H107C107.552 221 108 220.552 108 220V207C108 206.448 107.552 206 107 206ZM30 205C28.8954 205 28 205.895 28 207V220C28 221.105 28.8954 222 30 222H107C108.105 222 109 221.105 109 220V207C109 205.895 108.105 205 107 205H30Z" fill="#7FC591"/>
<path d="M41.6875 217.625C41.4336 217.625 41.2188 217.43 41.2188 217.156V213.25H39.207C38.7773 213.25 38.582 212.762 38.875 212.449L42.293 209.012C42.4883 208.836 42.7813 208.836 42.957 209.012L46.3945 212.449C46.6875 212.762 46.4922 213.25 46.0625 213.25H44.0313V217.156C44.0313 217.43 43.8359 217.625 43.5625 217.625H41.6875Z" fill="white"/>
<path d="M126.89 335H124.569V328.455H126.909C127.567 328.455 128.134 328.586 128.609 328.848C129.084 329.108 129.45 329.482 129.705 329.97C129.963 330.457 130.092 331.041 130.092 331.721C130.092 332.403 129.963 332.989 129.705 333.479C129.45 333.969 129.082 334.345 128.603 334.607C128.125 334.869 127.554 335 126.89 335ZM125.953 333.814H126.832C127.241 333.814 127.585 333.742 127.864 333.597C128.146 333.45 128.357 333.223 128.497 332.916C128.64 332.607 128.711 332.209 128.711 331.721C128.711 331.237 128.64 330.842 128.497 330.535C128.357 330.228 128.147 330.003 127.868 329.858C127.589 329.713 127.244 329.64 126.835 329.64H125.953V333.814Z" fill="white"/>
<path d="M133.676 335H132.193L134.453 328.455H136.236L138.493 335H137.01L135.37 329.95H135.319L133.676 335ZM133.584 332.427H137.086V333.508H133.584V332.427Z" fill="white"/>
<path d="M140.023 329.596V328.455H145.398V329.596H143.394V335H142.026V329.596H140.023Z" fill="white"/>
<path d="M148.403 335H146.92L149.18 328.455H150.963L153.22 335H151.737L150.097 329.95H150.046L148.403 335ZM148.311 332.427H151.813V333.508H148.311V332.427Z" fill="white"/>
<path d="M53.0397 214.724H54.2158L54.8071 215.485L55.3888 216.163L56.485 217.537H55.1938L54.4395 216.61L54.0528 216.06L53.0397 214.724ZM56.5841 213.727C56.5841 214.441 56.4488 215.048 56.1782 215.549C55.9097 216.05 55.5432 216.432 55.0787 216.696C54.6164 216.958 54.0965 217.089 53.5191 217.089C52.9374 217.089 52.4154 216.957 51.953 216.693C51.4907 216.429 51.1253 216.046 50.8568 215.546C50.5883 215.045 50.4541 214.439 50.4541 213.727C50.4541 213.013 50.5883 212.406 50.8568 211.905C51.1253 211.405 51.4907 211.023 51.953 210.761C52.4154 210.497 52.9374 210.365 53.5191 210.365C54.0965 210.365 54.6164 210.497 55.0787 210.761C55.5432 211.023 55.9097 211.405 56.1782 211.905C56.4488 212.406 56.5841 213.013 56.5841 213.727ZM55.181 213.727C55.181 213.265 55.1118 212.875 54.9733 212.557C54.8369 212.24 54.6441 211.999 54.3948 211.835C54.1455 211.671 53.8536 211.589 53.5191 211.589C53.1846 211.589 52.8927 211.671 52.6434 211.835C52.3941 211.999 52.2002 212.24 52.0617 212.557C51.9253 212.875 51.8572 213.265 51.8572 213.727C51.8572 214.19 51.9253 214.579 52.0617 214.897C52.2002 215.214 52.3941 215.455 52.6434 215.619C52.8927 215.783 53.1846 215.865 53.5191 215.865C53.8536 215.865 54.1455 215.783 54.3948 215.619C54.6441 215.455 54.8369 215.214 54.9733 214.897C55.1118 214.579 55.181 214.19 55.181 213.727Z" fill="white"/>
<path d="M63.4522 210.454H64.836V214.705C64.836 215.182 64.7221 215.6 64.4941 215.958C64.2682 216.316 63.9518 216.595 63.5449 216.795C63.1379 216.994 62.6638 217.093 62.1226 217.093C61.5793 217.093 61.1042 216.994 60.6972 216.795C60.2902 216.595 59.9738 216.316 59.748 215.958C59.5221 215.6 59.4092 215.182 59.4092 214.705V210.454H60.7931V214.587C60.7931 214.836 60.8474 215.058 60.9561 215.252C61.0669 215.446 61.2224 215.598 61.4227 215.709C61.623 215.82 61.8563 215.875 62.1226 215.875C62.3911 215.875 62.6244 215.82 62.8225 215.709C63.0228 215.598 63.1773 215.446 63.286 215.252C63.3968 215.058 63.4522 214.836 63.4522 214.587V210.454Z" fill="white"/>
<path d="M68.9028 217H67.4199L69.6795 210.454H71.4628L73.7192 217H72.2363L70.5967 211.95H70.5456L68.9028 217ZM68.8101 214.427H72.313V215.507H68.8101V214.427Z" fill="white"/>
<path d="M76.3071 217V210.454H77.691V215.859H80.4971V217H76.3071Z" fill="white"/>
<path d="M84.5973 210.454V217H83.2134V210.454H84.5973Z" fill="white"/>
<path d="M87.2866 211.595V210.454H92.6623V211.595H90.6584V217H89.2905V211.595H87.2866Z" fill="white"/>
<path d="M94.9639 210.454H96.514L98.0066 213.273H98.0705L99.563 210.454H101.113L98.7257 214.686V217H97.3514V214.686L94.9639 210.454Z" fill="white"/>
<path d="M126.32 97.5956V96.4546H131.695V97.5956H129.691V103H128.324V97.5956H126.32ZM135.764 96.4546V103H134.381V96.4546H135.764ZM138.703 96.4546H140.41L142.212 100.852H142.289L144.092 96.4546H145.798V103H144.456V98.7398H144.402L142.708 102.968H141.794L140.1 98.7238H140.045V103H138.703V96.4546ZM148.738 103V96.4546H153.149V97.5956H150.122V99.1553H152.922V100.296H150.122V101.859H153.162V103H148.738Z" fill="white"/>
<path d="M614.056 111V102.636H616.792C618.664 102.636 619.636 103.452 619.636 105.048C619.636 106.668 618.64 107.532 616.792 107.532H615.544V111H614.056ZM615.544 106.152H616.636C617.692 106.152 618.136 105.828 618.136 105.072C618.136 104.316 617.704 104.016 616.636 104.016H615.544V106.152ZM629.644 111H627.904L625.9 107.532H625.396H624.844V111H623.356V102.636H626.092C628.084 102.636 628.936 103.548 628.936 105.048C628.936 106.248 628.384 107.016 627.388 107.352L629.644 111ZM624.844 106.152H625.936C626.908 106.152 627.436 105.888 627.436 105.072C627.436 104.256 626.908 104.016 625.936 104.016H624.844V106.152ZM636.45 111.18C634.074 111.18 632.454 109.44 632.454 106.824C632.454 104.196 634.074 102.456 636.45 102.456C638.838 102.456 640.446 104.196 640.446 106.824C640.446 109.44 638.826 111.18 636.45 111.18ZM636.45 109.752C637.974 109.752 638.946 108.624 638.946 106.824C638.946 105.012 637.974 103.884 636.45 103.884C634.926 103.884 633.954 105 633.954 106.824C633.954 108.636 634.926 109.752 636.45 109.752ZM644.251 111V102.636H645.751V111H644.251ZM656.153 102.636V103.728L651.461 109.62H656.153V111H649.409V109.956L654.149 104.016H649.685V102.636H656.153ZM665.057 102.636H666.713L663.377 111H662.249L658.901 102.636H660.557L662.813 108.552L665.057 102.636ZM673.203 111.18C670.827 111.18 669.207 109.44 669.207 106.824C669.207 104.196 670.827 102.456 673.203 102.456C675.591 102.456 677.199 104.196 677.199 106.824C677.199 109.44 675.579 111.18 673.203 111.18ZM673.203 109.752C674.727 109.752 675.699 108.624 675.699 106.824C675.699 105.012 674.727 103.884 673.203 103.884C671.679 103.884 670.707 105 670.707 106.824C670.707 108.636 671.679 109.752 673.203 109.752ZM681.004 111V102.636H683.428C686.2 102.636 687.784 104.172 687.784 106.884C687.784 109.548 686.248 111 683.416 111H681.004ZM682.504 109.62H683.272C685.384 109.62 686.272 108.792 686.272 106.824C686.272 104.892 685.384 104.016 683.404 104.016H682.504V109.62ZM696.645 102.636H698.145V111H696.585L693.081 105.216V111H691.581V102.636H693.129L696.645 108.396V102.636ZM704.477 111.18C702.845 111.18 701.765 110.148 701.645 108.396L703.121 108.228C703.193 109.308 703.625 109.788 704.477 109.788C705.377 109.788 705.797 109.236 705.797 108.012V104.016H702.641V102.636H707.297V108.096C707.297 110.028 706.217 111.18 704.477 111.18ZM716.372 111L715.736 109.272H712.46L711.824 111H710.192L713.54 102.636H714.668L718.004 111H716.372ZM712.976 107.892H715.232L714.104 104.844L712.976 107.892ZM614.056 127V118.636H615.556V127H614.056ZM631.599 118.636H633.747V127H632.247V120.748L630.171 126.268H628.719L626.643 120.748V127H625.143V118.636H627.291L629.439 124.528L631.599 118.636ZM643.306 127L642.67 125.272H639.394L638.758 127H637.126L640.474 118.636H641.602L644.938 127H643.306ZM639.91 123.892H642.166L641.038 120.844L639.91 123.892ZM649.184 127V120.016H646.568V118.636H653.312V120.016H650.696V127H649.184ZM656.745 127V118.636H662.313V120.016H658.245V122.008H662.025V123.388H658.245V125.62H662.313V127H656.745ZM672.637 127H670.897L668.893 123.532H668.389H667.837V127H666.349V118.636H669.085C671.077 118.636 671.929 119.548 671.929 121.048C671.929 122.248 671.377 123.016 670.381 123.352L672.637 127ZM667.837 122.152H668.929C669.901 122.152 670.429 121.888 670.429 121.072C670.429 120.256 669.901 120.016 668.929 120.016H667.837V122.152ZM676.094 127V118.636H677.594V127H676.094ZM683.927 127.18C682.295 127.18 681.215 126.148 681.095 124.396L682.571 124.228C682.643 125.308 683.075 125.788 683.927 125.788C684.827 125.788 685.247 125.236 685.247 124.012V120.016H682.091V118.636H686.747V124.096C686.747 126.028 685.667 127.18 683.927 127.18ZM695.822 127L695.186 125.272H691.91L691.274 127H689.642L692.99 118.636H694.118L697.454 127H695.822ZM692.426 123.892H694.682L693.554 120.844L692.426 123.892ZM700.84 127V118.636H702.34V125.62H705.916V127H700.84ZM709.355 127V118.636H710.855V127H709.355Z" fill="#222222"/>
<path d="M89.1913 131.156C87.5233 131.156 86.2273 130.16 85.9873 128.636L87.4753 128.264C87.5833 129.26 88.2433 129.824 89.2153 129.824C90.0553 129.824 90.5953 129.404 90.5953 128.696C90.5953 128.12 90.1633 127.76 88.9273 127.268C87.1753 126.584 86.5513 125.948 86.5513 124.736C86.5513 123.38 87.5953 122.456 89.1553 122.456C90.2833 122.456 91.1713 122.972 91.6993 123.98L90.4513 124.748C90.1633 124.124 89.6713 123.788 89.1073 123.788C88.5073 123.788 88.0513 124.184 88.0513 124.7C88.0513 125.252 88.4593 125.564 89.7193 126.056C91.5073 126.74 92.0953 127.376 92.0953 128.564C92.0953 130.124 90.9073 131.156 89.1913 131.156ZM102.219 122.636H104.367V131H102.867V124.748L100.791 130.268H99.3387L97.2627 124.748V131H95.7627V122.636H97.9107L100.059 128.528L102.219 122.636ZM113.926 131L113.29 129.272H110.014L109.378 131H107.746L111.094 122.636H112.222L115.558 131H113.926ZM110.53 127.892H112.786L111.658 124.844L110.53 127.892ZM124.008 122.636H125.508V131H123.948L120.444 125.216V131H118.944V122.636H120.492L124.008 128.396V122.636ZM131.84 131.18C130.208 131.18 129.128 130.148 129.008 128.396L130.484 128.228C130.556 129.308 130.988 129.788 131.84 129.788C132.74 129.788 133.16 129.236 133.16 128.012V124.016H130.004V122.636H134.66V128.096C134.66 130.028 133.58 131.18 131.84 131.18ZM138.891 131V122.636H144.459V124.016H140.391V126.008H144.171V127.388H140.391V129.62H144.459V131H138.891ZM153.559 122.636H155.059V131H153.499L149.995 125.216V131H148.495V122.636H150.043L153.559 128.396V122.636ZM159.447 131V122.636H160.947V131H159.447ZM90.8497 147V140.016H88.2337V138.636H94.9777V140.016H92.3617V147H90.8497ZM104.699 147H102.959L100.955 143.532H100.451H99.8992V147H98.4112V138.636H101.147C103.139 138.636 103.991 139.548 103.991 141.048C103.991 142.248 103.439 143.016 102.443 143.352L104.699 147ZM99.8992 142.152H100.991C101.963 142.152 102.491 141.888 102.491 141.072C102.491 140.256 101.963 140.016 100.991 140.016H99.8992V142.152ZM111.505 147.18C109.129 147.18 107.509 145.44 107.509 142.824C107.509 140.196 109.129 138.456 111.505 138.456C113.893 138.456 115.501 140.196 115.501 142.824C115.501 145.44 113.881 147.18 111.505 147.18ZM111.505 145.752C113.029 145.752 114.001 144.624 114.001 142.824C114.001 141.012 113.029 139.884 111.505 139.884C109.981 139.884 109.009 141 109.009 142.824C109.009 144.636 109.981 145.752 111.505 145.752ZM121.576 138.156L119.704 136.188H120.82L121.576 136.992L122.332 136.188H123.448L121.576 138.156ZM121.684 147.156C120.016 147.156 118.72 146.16 118.48 144.636L119.968 144.264C120.076 145.26 120.736 145.824 121.708 145.824C122.548 145.824 123.088 145.404 123.088 144.696C123.088 144.12 122.656 143.76 121.42 143.268C119.668 142.584 119.044 141.948 119.044 140.736C119.044 139.38 120.088 138.456 121.648 138.456C122.776 138.456 123.664 138.972 124.192 139.98L122.944 140.748C122.656 140.124 122.164 139.788 121.6 139.788C121 139.788 120.544 140.184 120.544 140.7C120.544 141.252 120.952 141.564 122.212 142.056C124 142.74 124.588 143.376 124.588 144.564C124.588 146.124 123.4 147.156 121.684 147.156ZM135.563 147H133.823L131.351 142.836L129.755 144.456V147H128.255V138.636H129.755V142.572L133.511 138.636H135.479L132.371 141.804L135.563 147ZM141.759 147.18C139.383 147.18 137.763 145.44 137.763 142.824C137.763 140.196 139.383 138.456 141.759 138.456C144.147 138.456 145.755 140.196 145.755 142.824C145.755 145.44 144.135 147.18 141.759 147.18ZM141.759 145.752C143.283 145.752 144.255 144.624 144.255 142.824C144.255 141.012 143.283 139.884 141.759 139.884C140.235 139.884 139.263 141 139.263 142.824C139.263 144.636 140.235 145.752 141.759 145.752ZM154.404 138.636H156.06L152.724 147H151.596L148.248 138.636H149.904L152.16 144.552L154.404 138.636ZM159.447 147V138.636H160.947V147H159.447Z" fill="#222222"/>
<path d="M42.0497 245.18C39.9497 245.18 38.8577 244.112 38.8577 241.976V236.636H40.3577V241.808C40.3577 243.224 40.8137 243.728 42.0497 243.728C43.2857 243.728 43.7537 243.212 43.7537 241.808V236.636H45.2537V241.916C45.2537 244.088 44.1617 245.18 42.0497 245.18ZM56.7817 245H55.0417L52.5697 240.836L50.9737 242.456V245H49.4737V236.636H50.9737V240.572L54.7297 236.636H56.6977L53.5897 239.804L56.7817 245ZM60.2029 245V236.636H61.7029V243.62H65.2789V245H60.2029ZM74.2291 245L73.5931 243.272H70.3171L69.6811 245H68.0491L71.3971 236.636H72.5251L75.8611 245H74.2291ZM70.8331 241.892H73.0891L71.9611 238.844L70.8331 241.892ZM84.3113 236.636H85.8113V245H84.2513L80.7473 239.216V245H79.2473V236.636H80.7953L84.3113 242.396V236.636ZM92.1431 245.18C90.5111 245.18 89.4311 244.148 89.3111 242.396L90.7871 242.228C90.8591 243.308 91.2911 243.788 92.1431 243.788C93.0431 243.788 93.4631 243.236 93.4631 242.012V238.016H90.3071V236.636H94.9631V242.096C94.9631 244.028 93.8831 245.18 92.1431 245.18ZM104.038 245L103.402 243.272H100.126L99.4898 245H97.8578L101.206 236.636H102.334L105.67 245H104.038ZM100.642 241.892H102.898L101.77 238.844L100.642 241.892ZM37.3056 256.476H40.6656V261H39.5976L39.4176 260.136C38.9256 260.808 38.0256 261.18 36.9456 261.18C34.6056 261.18 32.8176 259.452 32.8176 256.8C32.8176 254.316 34.3896 252.444 36.8976 252.444C38.6016 252.444 39.9696 253.308 40.5816 254.892L39.2016 255.432C38.8296 254.4 38.0016 253.872 36.8736 253.872C35.2656 253.872 34.3176 254.952 34.3176 256.788C34.3176 258.696 35.3376 259.752 37.0416 259.752C38.3856 259.752 39.1776 259.092 39.1776 257.964V257.856H37.3056V256.476ZM51.0442 261H49.3042L47.3002 257.532H46.7962H46.2442V261H44.7562V252.636H47.4922C49.4842 252.636 50.3362 253.548 50.3362 255.048C50.3362 256.248 49.7842 257.016 48.7882 257.352L51.0442 261ZM46.2442 256.152H47.3362C48.3082 256.152 48.8362 255.888 48.8362 255.072C48.8362 254.256 48.3082 254.016 47.3362 254.016H46.2442V256.152ZM54.501 261V252.636H60.069V254.016H56.001V256.008H59.781V257.388H56.001V259.62H60.069V261H54.501ZM66.3972 252.156L64.5252 250.188H65.6412L66.3972 250.992L67.1532 250.188H68.2692L66.3972 252.156ZM66.5052 261.156C64.8372 261.156 63.5412 260.16 63.3012 258.636L64.7892 258.264C64.8972 259.26 65.5572 259.824 66.5292 259.824C67.3692 259.824 67.9092 259.404 67.9092 258.696C67.9092 258.12 67.4772 257.76 66.2412 257.268C64.4892 256.584 63.8652 255.948 63.8652 254.736C63.8652 253.38 64.9092 252.456 66.4692 252.456C67.5972 252.456 68.4852 252.972 69.0132 253.98L67.7652 254.748C67.4772 254.124 66.9852 253.788 66.4212 253.788C65.8212 253.788 65.3652 254.184 65.3652 254.7C65.3652 255.252 65.7732 255.564 67.0332 256.056C68.8212 256.74 69.4092 257.376 69.4092 258.564C69.4092 260.124 68.2212 261.156 66.5052 261.156ZM80.3846 261H78.6446L76.1726 256.836L74.5766 258.456V261H73.0766V252.636H74.5766V256.572L78.3326 252.636H80.3006L77.1926 255.804L80.3846 261ZM83.8058 261V252.636H89.3738V254.016H85.3058V256.008H89.0858V257.388H85.3058V259.62H89.3738V261H83.8058ZM101.632 261.18C99.532 261.18 98.44 260.112 98.44 257.976V252.636H99.94V257.808C99.94 259.224 100.396 259.728 101.632 259.728C102.868 259.728 103.336 259.212 103.336 257.808V252.636H104.836V257.916C104.836 260.088 103.744 261.18 101.632 261.18ZM15.8446 277V268.636H18.5806C20.4526 268.636 21.4246 269.452 21.4246 271.048C21.4246 272.668 20.4286 273.532 18.5806 273.532H17.3326V277H15.8446ZM17.3326 272.152H18.4246C19.4806 272.152 19.9246 271.828 19.9246 271.072C19.9246 270.316 19.4926 270.016 18.4246 270.016H17.3326V272.152ZM25.1441 277V268.636H26.6441V275.62H30.2201V277H25.1441ZM39.1703 277L38.5343 275.272H35.2583L34.6223 277H32.9903L36.3383 268.636H37.4663L40.8023 277H39.1703ZM35.7743 273.892H38.0303L36.9023 270.844L35.7743 273.892ZM49.2525 268.636H50.7525V277H49.1925L45.6885 271.216V277H44.1885V268.636H45.7365L49.2525 274.396V268.636ZM55.1404 277V268.636H56.6404V277H55.1404ZM67.3178 277H65.5778L63.5738 273.532H63.0698H62.5178V277H61.0298V268.636H63.7658C65.7578 268.636 66.6098 269.548 66.6098 271.048C66.6098 272.248 66.0578 273.016 65.0618 273.352L67.3178 277ZM62.5178 272.152H63.6098C64.5818 272.152 65.1098 271.888 65.1098 271.072C65.1098 270.256 64.5818 270.016 63.6098 270.016H62.5178V272.152ZM75.9232 277L75.2872 275.272H72.0112L71.3752 277H69.7432L73.0912 268.636H74.2192L77.5552 277H75.9232ZM72.5272 273.892H74.7832L73.6552 270.844L72.5272 273.892ZM86.0053 268.636H87.5053V277H85.9453L82.4413 271.216V277H80.9413V268.636H82.4893L86.0053 274.396V268.636ZM93.8372 277.18C92.2052 277.18 91.1252 276.148 91.0052 274.396L92.4812 274.228C92.5532 275.308 92.9852 275.788 93.8372 275.788C94.7372 275.788 95.1572 275.236 95.1572 274.012V270.016H92.0012V268.636H96.6572V274.096C96.6572 276.028 95.5772 277.18 93.8372 277.18ZM103.912 277.18C101.812 277.18 100.72 276.112 100.72 273.976V268.636H102.22V273.808C102.22 275.224 102.676 275.728 103.912 275.728C105.148 275.728 105.616 275.212 105.616 273.808V268.636H107.116V273.916C107.116 276.088 106.024 277.18 103.912 277.18Z" fill="#222222"/>
<path d="M42.2376 361V352.636H44.9736C46.8456 352.636 47.8176 353.452 47.8176 355.048C47.8176 356.668 46.8216 357.532 44.9736 357.532H43.7256V361H42.2376ZM43.7256 356.152H44.8176C45.8736 356.152 46.3176 355.828 46.3176 355.072C46.3176 354.316 45.8856 354.016 44.8176 354.016H43.7256V356.152ZM54.8279 361.18C52.4519 361.18 50.8319 359.44 50.8319 356.824C50.8319 354.196 52.4519 352.456 54.8279 352.456C57.2159 352.456 58.8239 354.196 58.8239 356.824C58.8239 359.44 57.2039 361.18 54.8279 361.18ZM54.8279 359.752C56.3519 359.752 57.3239 358.624 57.3239 356.824C57.3239 355.012 56.3519 353.884 54.8279 353.884C53.3039 353.884 52.3319 355 52.3319 356.824C52.3319 358.636 53.3039 359.752 54.8279 359.752ZM64.0629 361V354.016H61.4469V352.636H68.1909V354.016H65.5749V361H64.0629ZM71.6244 361V352.636H74.3604C76.2324 352.636 77.2044 353.452 77.2044 355.048C77.2044 356.668 76.2084 357.532 74.3604 357.532H73.1124V361H71.6244ZM73.1124 356.152H74.2044C75.2604 356.152 75.7044 355.828 75.7044 355.072C75.7044 354.316 75.2724 354.016 74.2044 354.016H73.1124V356.152ZM83.8425 361.18C81.7425 361.18 80.6505 360.112 80.6505 357.976V352.636H82.1505V357.808C82.1505 359.224 82.6065 359.728 83.8425 359.728C85.0785 359.728 85.5465 359.212 85.5465 357.808V352.636H87.0465V357.916C87.0465 360.088 85.9545 361.18 83.8425 361.18ZM96.3305 352.636H97.8305V361H96.2705L92.7665 355.216V361H91.2665V352.636H92.8145L96.3305 358.396V352.636ZM102.218 361V352.636H103.718V361H102.218ZM116.33 361.18C114.23 361.18 113.138 360.112 113.138 357.976V352.636H114.638V357.808C114.638 359.224 115.094 359.728 116.33 359.728C117.566 359.728 118.034 359.212 118.034 357.808V352.636H119.534V357.916C119.534 360.088 118.442 361.18 116.33 361.18ZM128.902 352.636H130.558L127.222 361H126.094L122.746 352.636H124.402L126.658 358.552L128.902 352.636ZM133.944 361V352.636H135.444V361H133.944ZM139.833 361V352.636H142.257C145.029 352.636 146.613 354.172 146.613 356.884C146.613 359.548 145.077 361 142.245 361H139.833ZM141.333 359.62H142.101C144.213 359.62 145.101 358.792 145.101 356.824C145.101 354.892 144.213 354.016 142.233 354.016H141.333V359.62ZM158.632 361.18C156.532 361.18 155.44 360.112 155.44 357.976V352.636H156.94V357.808C156.94 359.224 157.396 359.728 158.632 359.728C159.868 359.728 160.336 359.212 160.336 357.808V352.636H161.836V357.916C161.836 360.088 160.744 361.18 158.632 361.18ZM70.6649 377V368.636H73.4009C75.2729 368.636 76.2449 369.452 76.2449 371.048C76.2449 372.668 75.2489 373.532 73.4009 373.532H72.1529V377H70.6649ZM72.1529 372.152H73.2449C74.3009 372.152 74.7449 371.828 74.7449 371.072C74.7449 370.316 74.3129 370.016 73.2449 370.016H72.1529V372.152ZM83.2553 377.18C80.8793 377.18 79.2593 375.44 79.2593 372.824C79.2593 370.196 80.8793 368.456 83.2553 368.456C85.6433 368.456 87.2513 370.196 87.2513 372.824C87.2513 375.44 85.6313 377.18 83.2553 377.18ZM83.2553 375.752C84.7793 375.752 85.7513 374.624 85.7513 372.824C85.7513 371.012 84.7793 369.884 83.2553 369.884C81.7313 369.884 80.7593 371 80.7593 372.824C80.7593 374.636 81.7313 375.752 83.2553 375.752ZM93.4335 377.156C91.7655 377.156 90.4695 376.16 90.2295 374.636L91.7175 374.264C91.8255 375.26 92.4855 375.824 93.4575 375.824C94.2975 375.824 94.8375 375.404 94.8375 374.696C94.8375 374.12 94.4055 373.76 93.1695 373.268C91.4175 372.584 90.7935 371.948 90.7935 370.736C90.7935 369.38 91.8375 368.456 93.3975 368.456C94.5255 368.456 95.4135 368.972 95.9415 369.98L94.6935 370.748C94.4055 370.124 93.9135 369.788 93.3495 369.788C92.7495 369.788 92.2935 370.184 92.2935 370.7C92.2935 371.252 92.7015 371.564 93.9615 372.056C95.7495 372.74 96.3375 373.376 96.3375 374.564C96.3375 376.124 95.1495 377.156 93.4335 377.156ZM100.005 377V368.636H101.505V375.62H105.081V377H100.005ZM111.646 377.18C109.27 377.18 107.65 375.44 107.65 372.824C107.65 370.196 109.27 368.456 111.646 368.456C114.034 368.456 115.642 370.196 115.642 372.824C115.642 375.44 114.022 377.18 111.646 377.18ZM111.646 375.752C113.17 375.752 114.142 374.624 114.142 372.824C114.142 371.012 113.17 369.884 111.646 369.884C110.122 369.884 109.15 371 109.15 372.824C109.15 374.636 110.122 375.752 111.646 375.752ZM124.291 368.636H125.947L122.611 377H121.483L118.135 368.636H119.791L122.047 374.552L124.291 368.636ZM133.767 377L133.131 375.272H129.855L129.219 377H127.587L130.935 368.636H132.063L135.399 377H133.767ZM130.371 373.892H132.627L131.499 370.844L130.371 373.892ZM143.849 368.636H145.349V377H143.789L140.285 371.216V377H138.785V368.636H140.333L143.849 374.396V368.636ZM151.681 377.18C150.049 377.18 148.969 376.148 148.849 374.396L150.325 374.228C150.397 375.308 150.829 375.788 151.681 375.788C152.581 375.788 153.001 375.236 153.001 374.012V370.016H149.845V368.636H154.501V374.096C154.501 376.028 153.421 377.18 151.681 377.18ZM158.732 377V368.636H164.3V370.016H160.232V372.008H164.012V373.388H160.232V375.62H164.3V377H158.732Z" fill="#222222"/>
<path d="M614.056 250V241.636H615.556V250H614.056ZM625.009 241.636H626.509V250H624.949L621.445 244.216V250H619.945V241.636H621.493L625.009 247.396V241.636ZM636.045 241.636H637.701L634.365 250H633.237L629.889 241.636H631.545L633.801 247.552L636.045 241.636ZM641.087 250V241.636H646.655V243.016H642.587V245.008H646.367V246.388H642.587V248.62H646.655V250H641.087ZM655.756 241.636H657.256V250H655.696L652.192 244.216V250H650.692V241.636H652.24L655.756 247.396V241.636ZM663.3 250V243.016H660.684V241.636H667.428V243.016H664.812V250H663.3ZM675.236 250L674.6 248.272H671.324L670.688 250H669.056L672.404 241.636H673.532L676.868 250H675.236ZM671.84 246.892H674.096L672.968 243.844L671.84 246.892ZM686.542 250H684.802L682.798 246.532H682.294H681.742V250H680.254V241.636H682.99C684.982 241.636 685.834 242.548 685.834 244.048C685.834 245.248 685.282 246.016 684.286 246.352L686.542 250ZM681.742 245.152H682.834C683.806 245.152 684.334 244.888 684.334 244.072C684.334 243.256 683.806 243.016 682.834 243.016H681.742V245.152ZM689.999 250V241.636H691.499V250H689.999ZM701.086 250V241.636H702.586V250H701.086ZM616.456 266.156C614.788 266.156 613.492 265.16 613.252 263.636L614.74 263.264C614.848 264.26 615.508 264.824 616.48 264.824C617.32 264.824 617.86 264.404 617.86 263.696C617.86 263.12 617.428 262.76 616.192 262.268C614.44 261.584 613.816 260.948 613.816 259.736C613.816 258.38 614.86 257.456 616.42 257.456C617.548 257.456 618.436 257.972 618.964 258.98L617.716 259.748C617.428 259.124 616.936 258.788 616.372 258.788C615.772 258.788 615.316 259.184 615.316 259.7C615.316 260.252 615.724 260.564 616.984 261.056C618.772 261.74 619.36 262.376 619.36 263.564C619.36 265.124 618.172 266.156 616.456 266.156ZM630.335 266H628.595L626.123 261.836L624.527 263.456V266H623.027V257.636H624.527V261.572L628.283 257.636H630.251L627.143 260.804L630.335 266ZM633.757 266V257.636H635.257V264.62H638.833V266H633.757ZM647.783 266L647.147 264.272H643.871L643.235 266H641.603L644.951 257.636H646.079L649.415 266H647.783ZM644.387 262.892H646.643L645.515 259.844L644.387 262.892ZM652.801 266V257.636H655.225C657.997 257.636 659.581 259.172 659.581 261.884C659.581 264.548 658.045 266 655.213 266H652.801ZM654.301 264.62H655.069C657.181 264.62 658.069 263.792 658.069 261.824C658.069 259.892 657.181 259.016 655.201 259.016H654.301V264.62ZM663.378 266V257.636H664.878V266H663.378ZM671.559 257.156L669.687 255.188H670.803L671.559 255.992L672.315 255.188H673.431L671.559 257.156ZM671.667 266.156C669.999 266.156 668.703 265.16 668.463 263.636L669.951 263.264C670.059 264.26 670.719 264.824 671.691 264.824C672.531 264.824 673.071 264.404 673.071 263.696C673.071 263.12 672.639 262.76 671.403 262.268C669.651 261.584 669.027 260.948 669.027 259.736C669.027 258.38 670.071 257.456 671.631 257.456C672.759 257.456 673.647 257.972 674.175 258.98L672.927 259.748C672.639 259.124 672.147 258.788 671.583 258.788C670.983 258.788 670.527 259.184 670.527 259.7C670.527 260.252 670.935 260.564 672.195 261.056C673.983 261.74 674.571 262.376 674.571 263.564C674.571 265.124 673.383 266.156 671.667 266.156ZM679.871 266V259.016H677.255V257.636H683.999V259.016H681.383V266H679.871ZM687.433 266V257.636H693.001V259.016H688.933V261.008H692.713V262.388H688.933V264.62H693.001V266H687.433Z" fill="#222222"/>
<path d="M614.056 316V307.636H616.792C618.664 307.636 619.636 308.452 619.636 310.048C619.636 311.668 618.64 312.532 616.792 312.532H615.544V316H614.056ZM615.544 311.152H616.636C617.692 311.152 618.136 310.828 618.136 310.072C618.136 309.316 617.704 309.016 616.636 309.016H615.544V311.152ZM623.356 316V307.636H624.856V314.62H628.432V316H623.356ZM637.382 316L636.746 314.272H633.47L632.834 316H631.202L634.55 307.636H635.678L639.014 316H637.382ZM633.986 312.892H636.242L635.114 309.844L633.986 312.892ZM647.464 307.636H648.964V316H647.404L643.9 310.216V316H642.4V307.636H643.948L647.464 313.396V307.636ZM653.352 316V307.636H654.852V316H653.352ZM665.529 316H663.789L661.785 312.532H661.281H660.729V316H659.241V307.636H661.977C663.969 307.636 664.821 308.548 664.821 310.048C664.821 311.248 664.269 312.016 663.273 312.352L665.529 316ZM660.729 311.152H661.821C662.793 311.152 663.321 310.888 663.321 310.072C663.321 309.256 662.793 309.016 661.821 309.016H660.729V311.152ZM674.135 316L673.499 314.272H670.223L669.587 316H667.955L671.303 307.636H672.431L675.767 316H674.135ZM670.739 312.892H672.995L671.867 309.844L670.739 312.892ZM684.217 307.636H685.717V316H684.157L680.653 310.216V316H679.153V307.636H680.701L684.217 313.396V307.636ZM692.049 316.18C690.417 316.18 689.337 315.148 689.217 313.396L690.693 313.228C690.765 314.308 691.197 314.788 692.049 314.788C692.949 314.788 693.369 314.236 693.369 313.012V309.016H690.213V307.636H694.869V313.096C694.869 315.028 693.789 316.18 692.049 316.18ZM699.099 316V307.636H704.667V309.016H700.599V311.008H704.379V312.388H700.599V314.62H704.667V316H699.099ZM615.712 332V325.016H613.096V323.636H619.84V325.016H617.224V332H615.712ZM629.562 332H627.821L625.817 328.532H625.313H624.761V332H623.273V323.636H626.009C628.002 323.636 628.854 324.548 628.854 326.048C628.854 327.248 628.302 328.016 627.306 328.352L629.562 332ZM624.761 327.152H625.853C626.825 327.152 627.354 326.888 627.354 326.072C627.354 325.256 626.825 325.016 625.853 325.016H624.761V327.152ZM638.167 332L637.531 330.272H634.255L633.619 332H631.987L635.335 323.636H636.463L639.799 332H638.167ZM634.771 328.892H637.027L635.899 325.844L634.771 328.892ZM648.249 323.636H649.749V332H648.189L644.685 326.216V332H643.185V323.636H644.733L648.249 329.396V323.636ZM656.537 332.156C654.869 332.156 653.573 331.16 653.333 329.636L654.821 329.264C654.929 330.26 655.589 330.824 656.561 330.824C657.401 330.824 657.941 330.404 657.941 329.696C657.941 329.12 657.509 328.76 656.273 328.268C654.521 327.584 653.897 326.948 653.897 325.736C653.897 324.38 654.941 323.456 656.501 323.456C657.629 323.456 658.517 323.972 659.045 324.98L657.797 325.748C657.509 325.124 657.017 324.788 656.453 324.788C655.853 324.788 655.397 325.184 655.397 325.7C655.397 326.252 655.805 326.564 657.065 327.056C658.853 327.74 659.441 328.376 659.441 329.564C659.441 331.124 658.253 332.156 656.537 332.156ZM663.108 332V323.636H665.844C667.716 323.636 668.688 324.452 668.688 326.048C668.688 327.668 667.692 328.532 665.844 328.532H664.596V332H663.108ZM664.596 327.152H665.688C666.744 327.152 667.188 326.828 667.188 326.072C667.188 325.316 666.756 325.016 665.688 325.016H664.596V327.152ZM675.699 332.18C673.323 332.18 671.703 330.44 671.703 327.824C671.703 325.196 673.323 323.456 675.699 323.456C678.087 323.456 679.695 325.196 679.695 327.824C679.695 330.44 678.075 332.18 675.699 332.18ZM675.699 330.752C677.223 330.752 678.195 329.624 678.195 327.824C678.195 326.012 677.223 324.884 675.699 324.884C674.175 324.884 673.203 326 673.203 327.824C673.203 329.636 674.175 330.752 675.699 330.752ZM689.788 332H688.048L686.044 328.532H685.54H684.988V332H683.5V323.636H686.236C688.228 323.636 689.08 324.548 689.08 326.048C689.08 327.248 688.528 328.016 687.532 328.352L689.788 332ZM684.988 327.152H686.08C687.052 327.152 687.58 326.888 687.58 326.072C687.58 325.256 687.052 325.016 686.08 325.016H684.988V327.152ZM694.901 332V325.016H692.285V323.636H699.029V325.016H696.413V332H694.901ZM706.838 332L706.202 330.272H702.926L702.29 332H700.658L704.006 323.636H705.134L708.47 332H706.838ZM703.442 328.892H705.698L704.57 325.844L703.442 328.892Z" fill="#222222"/>
<path d="M614.056 385V376.636H616.792C618.664 376.636 619.636 377.452 619.636 379.048C619.636 380.668 618.64 381.532 616.792 381.532H615.544V385H614.056ZM615.544 380.152H616.636C617.692 380.152 618.136 379.828 618.136 379.072C618.136 378.316 617.704 378.016 616.636 378.016H615.544V380.152ZM626.646 385.18C624.27 385.18 622.65 383.44 622.65 380.824C622.65 378.196 624.27 376.456 626.646 376.456C629.034 376.456 630.642 378.196 630.642 380.824C630.642 383.44 629.022 385.18 626.646 385.18ZM626.646 383.752C628.17 383.752 629.142 382.624 629.142 380.824C629.142 379.012 628.17 377.884 626.646 377.884C625.122 377.884 624.15 379 624.15 380.824C624.15 382.636 625.122 383.752 626.646 383.752ZM639.291 376.636H640.947L637.611 385H636.483L633.135 376.636H634.791L637.047 382.552L639.291 376.636ZM650.622 385H648.882L646.878 381.532H646.374H645.822V385H644.334V376.636H647.07C649.062 376.636 649.914 377.548 649.914 379.048C649.914 380.248 649.362 381.016 648.366 381.352L650.622 385ZM645.822 380.152H646.914C647.886 380.152 648.414 379.888 648.414 379.072C648.414 378.256 647.886 378.016 646.914 378.016H645.822V380.152ZM659.227 385L658.591 383.272H655.315L654.679 385H653.047L656.395 376.636H657.523L660.859 385H659.227ZM655.831 381.892H658.087L656.959 378.844L655.831 381.892ZM665.104 385V378.016H662.488V376.636H669.232V378.016H666.616V385H665.104ZM677.73 376.636H679.23V385H677.67L674.166 379.216V385H672.666V376.636H674.214L677.73 382.396V376.636ZM688.79 385L688.154 383.272H684.878L684.242 385H682.61L685.958 376.636H687.086L690.422 385H688.79ZM685.394 381.892H687.65L686.522 378.844L685.394 381.892ZM614.056 401V392.636H615.556V399.62H619.132V401H614.056ZM625.697 401.18C623.321 401.18 621.701 399.44 621.701 396.824C621.701 394.196 623.321 392.456 625.697 392.456C628.085 392.456 629.693 394.196 629.693 396.824C629.693 399.44 628.073 401.18 625.697 401.18ZM625.697 399.752C627.221 399.752 628.193 398.624 628.193 396.824C628.193 395.012 627.221 393.884 625.697 393.884C624.173 393.884 623.201 395 623.201 396.824C623.201 398.636 624.173 399.752 625.697 399.752ZM637.387 396.476H640.747V401H639.679L639.499 400.136C639.007 400.808 638.107 401.18 637.027 401.18C634.687 401.18 632.899 399.452 632.899 396.8C632.899 394.316 634.471 392.444 636.979 392.444C638.683 392.444 640.051 393.308 640.663 394.892L639.283 395.432C638.911 394.4 638.083 393.872 636.955 393.872C635.347 393.872 634.399 394.952 634.399 396.788C634.399 398.696 635.419 399.752 637.123 399.752C638.467 399.752 639.259 399.092 639.259 397.964V397.856H637.387V396.476ZM644.837 401V392.636H646.337V401H644.837ZM653.127 401.156C651.459 401.156 650.163 400.16 649.923 398.636L651.411 398.264C651.519 399.26 652.179 399.824 653.151 399.824C653.991 399.824 654.531 399.404 654.531 398.696C654.531 398.12 654.099 397.76 652.863 397.268C651.111 396.584 650.487 395.948 650.487 394.736C650.487 393.38 651.531 392.456 653.091 392.456C654.219 392.456 655.107 392.972 655.635 393.98L654.387 394.748C654.099 394.124 653.607 393.788 653.043 393.788C652.443 393.788 651.987 394.184 651.987 394.7C651.987 395.252 652.395 395.564 653.655 396.056C655.443 396.74 656.031 397.376 656.031 398.564C656.031 400.124 654.843 401.156 653.127 401.156ZM661.331 401V394.016H658.715V392.636H665.459V394.016H662.843V401H661.331ZM668.892 401V392.636H670.392V401H668.892ZM682.09 401H680.35L677.878 396.836L676.282 398.456V401H674.782V392.636H676.282V396.572L680.038 392.636H682.006L678.898 395.804L682.09 401ZM690.636 401L690 399.272H686.724L686.088 401H684.456L687.804 392.636H688.932L692.268 401H690.636ZM687.24 397.892H689.496L688.368 394.844L687.24 397.892Z" fill="#222222"/>
<path d="M619.12 170.636H620.62V179H619.06L615.556 173.216V179H614.056V170.636H615.604L619.12 176.396V170.636ZM630.18 179L629.544 177.272H626.268L625.632 179H624L627.348 170.636H628.476L631.812 179H630.18ZM626.784 175.892H629.04L627.912 172.844L626.784 175.892ZM641.486 179H639.746L637.742 175.532H637.238H636.686V179H635.198V170.636H637.934C639.926 170.636 640.778 171.548 640.778 173.048C640.778 174.248 640.226 175.016 639.23 175.352L641.486 179ZM636.686 174.152H637.778C638.75 174.152 639.278 173.888 639.278 173.072C639.278 172.256 638.75 172.016 637.778 172.016H636.686V174.152ZM647.967 179.18C645.867 179.18 644.775 178.112 644.775 175.976V170.636H646.275V175.808C646.275 177.224 646.731 177.728 647.967 177.728C649.203 177.728 649.671 177.212 649.671 175.808V170.636H651.171V175.916C651.171 178.088 650.079 179.18 647.967 179.18ZM655.391 179V170.636H657.815C660.587 170.636 662.171 172.172 662.171 174.884C662.171 177.548 660.635 179 657.803 179H655.391ZM656.891 177.62H657.659C659.771 177.62 660.659 176.792 660.659 174.824C660.659 172.892 659.771 172.016 657.791 172.016H656.891V177.62ZM670.411 168.188L668.539 170.156L666.667 168.188H667.783L668.539 168.992L669.295 168.188H670.411ZM671.863 170.636V171.728L667.171 177.62H671.863V179H665.119V177.956L669.859 172.016H665.395V170.636H671.863ZM675.619 179V170.636H678.535C680.203 170.636 681.187 171.428 681.187 172.748C681.187 173.528 680.851 174.152 680.263 174.488C681.163 174.812 681.631 175.508 681.631 176.552C681.631 178.088 680.611 179 678.907 179H675.619ZM677.119 173.96H678.535C679.291 173.96 679.687 173.636 679.687 173.012C679.687 172.376 679.267 172.016 678.535 172.016H677.119V173.96ZM677.119 177.62H678.787C679.627 177.62 680.131 177.164 680.131 176.432C680.131 175.724 679.663 175.34 678.787 175.34H677.119V177.62ZM685.446 179V170.636H691.014V172.016H686.946V174.008H690.726V175.388H686.946V177.62H691.014V179H685.446ZM700.248 179V170.636H701.748V179H700.248ZM619.12 186.636H620.62V195H619.06L615.556 189.216V195H614.056V186.636H615.604L619.12 192.396V186.636ZM630.18 195L629.544 193.272H626.268L625.632 195H624L627.348 186.636H628.476L631.812 195H630.18ZM626.784 191.892H629.04L627.912 188.844L626.784 191.892ZM635.198 195V186.636H638.114C639.782 186.636 640.766 187.428 640.766 188.748C640.766 189.528 640.43 190.152 639.842 190.488C640.742 190.812 641.21 191.508 641.21 192.552C641.21 194.088 640.19 195 638.486 195H635.198ZM636.698 189.96H638.114C638.87 189.96 639.266 189.636 639.266 189.012C639.266 188.376 638.846 188.016 638.114 188.016H636.698V189.96ZM636.698 193.62H638.366C639.206 193.62 639.71 193.164 639.71 192.432C639.71 191.724 639.242 191.34 638.366 191.34H636.698V193.62ZM649.998 195L649.362 193.272H646.086L645.45 195H643.818L647.166 186.636H648.294L651.63 195H649.998ZM646.602 191.892H648.858L647.73 188.844L646.602 191.892ZM659.426 186.636H661.082L657.746 195H656.618L653.27 186.636H654.926L657.182 192.552L659.426 186.636ZM671.776 195H670.036L667.564 190.836L665.968 192.456V195H664.468V186.636H665.968V190.572L669.724 186.636H671.692L668.584 189.804L671.776 195ZM680.322 195L679.686 193.272H676.41L675.774 195H674.142L677.49 186.636H678.618L681.954 195H680.322ZM676.926 191.892H679.182L678.054 188.844L676.926 191.892Z" fill="#222222"/>
<defs>
<filter id="filter0_d_22_275" x="274" y="182.8" width="178" height="104.016" filterUnits="userSpaceOnUse" color-interpolation-filters="sRGB">
<feFlood flood-opacity="0" result="BackgroundImageFix"/>
<feColorMatrix in="SourceAlpha" type="matrix" values="0 0 0 0 0 0 0 0 0 0 0 0 0 0 0 0 0 0 127 0" result="hardAlpha"/>
<feOffset dy="4"/>
<feGaussianBlur stdDeviation="22"/>
<feColorMatrix type="matrix" values="0 0 0 0 0 0 0 0 0 0 0 0 0 0 0 0 0 0 0.16 0"/>
<feBlend mode="normal" in2="BackgroundImageFix" result="effect1_dropShadow_22_275"/>
<feBlend mode="normal" in="SourceGraphic" in2="effect1_dropShadow_22_275" result="shape"/>
</filter>
<linearGradient id="paint0_linear_22_275" x1="364.001" y1="448" x2="363" y2="0" gradientUnits="userSpaceOnUse">
<stop stop-color="#222222" stop-opacity="0"/>
<stop offset="0.192708" stop-color="#222222"/>
<stop offset="0.838542" stop-color="#222222"/>
<stop offset="1" stop-color="#222222" stop-opacity="0"/>
</linearGradient>
<linearGradient id="paint1_linear_22_275" x1="592" y1="92" x2="592" y2="99.2538" gradientUnits="userSpaceOnUse">
<stop stop-color="#222222"/>
<stop offset="0.416667" stop-color="#222222"/>
<stop offset="1" stop-color="#222222" stop-opacity="0.8"/>
</linearGradient>
<linearGradient id="paint2_linear_22_275" x1="444" y1="182" x2="444" y2="189.254" gradientUnits="userSpaceOnUse">
<stop stop-color="#222222"/>
<stop offset="0.416667" stop-color="#222222"/>
<stop offset="1" stop-color="#222222" stop-opacity="0.8"/>
</linearGradient>
<linearGradient id="paint3_linear_22_275" x1="444" y1="204" x2="444" y2="211.254" gradientUnits="userSpaceOnUse">
<stop stop-color="#222222"/>
<stop offset="0.416667" stop-color="#222222"/>
<stop offset="1" stop-color="#222222" stop-opacity="0.8"/>
</linearGradient>
<linearGradient id="paint4_linear_22_275" x1="444" y1="226" x2="444" y2="233.254" gradientUnits="userSpaceOnUse">
<stop stop-color="#222222"/>
<stop offset="0.416667" stop-color="#222222"/>
<stop offset="1" stop-color="#222222" stop-opacity="0.8"/>
</linearGradient>
<linearGradient id="paint5_linear_22_275" x1="444" y1="249" x2="444" y2="256.254" gradientUnits="userSpaceOnUse">
<stop stop-color="#222222"/>
<stop offset="0.416667" stop-color="#222222"/>
<stop offset="1" stop-color="#222222" stop-opacity="0.8"/>
</linearGradient>
<linearGradient id="paint6_linear_22_275" x1="444" y1="270" x2="444" y2="277.254" gradientUnits="userSpaceOnUse">
<stop stop-color="#222222"/>
<stop offset="0.416667" stop-color="#222222"/>
<stop offset="1" stop-color="#222222" stop-opacity="0.8"/>
</linearGradient>
<linearGradient id="paint7_linear_22_275" x1="591" y1="159" x2="591" y2="166.254" gradientUnits="userSpaceOnUse">
<stop stop-color="#222222"/>
<stop offset="0.416667" stop-color="#222222"/>
<stop offset="1" stop-color="#222222" stop-opacity="0.8"/>
</linearGradient>
<linearGradient id="paint8_linear_22_275" x1="589" y1="291" x2="589" y2="298.254" gradientUnits="userSpaceOnUse">
<stop stop-color="#222222"/>
<stop offset="0.416667" stop-color="#222222"/>
<stop offset="1" stop-color="#222222" stop-opacity="0.8"/>
</linearGradient>
<linearGradient id="paint9_linear_22_275" x1="590" y1="361" x2="590" y2="368.254" gradientUnits="userSpaceOnUse">
<stop stop-color="#222222"/>
<stop offset="0.416667" stop-color="#222222"/>
<stop offset="1" stop-color="#222222" stop-opacity="0.8"/>
</linearGradient>
<linearGradient id="paint10_linear_22_275" x1="363.001" y1="215.237" x2="363.001" y2="247.492" gradientUnits="userSpaceOnUse">
<stop stop-color="white"/>
<stop offset="1" stop-color="white" stop-opacity="0"/>
</linearGradient>
<linearGradient id="paint11_linear_22_275" x1="363.001" y1="215.237" x2="363.001" y2="247.492" gradientUnits="userSpaceOnUse">
<stop stop-color="white"/>
<stop offset="1" stop-color="white"/>
</linearGradient>
<linearGradient id="paint12_linear_22_275" x1="363.001" y1="215.237" x2="363.001" y2="247.492" gradientUnits="userSpaceOnUse">
<stop stop-color="white"/>
<stop offset="1" stop-color="white" stop-opacity="0"/>
</linearGradient>
<linearGradient id="paint13_linear_22_275" x1="363.001" y1="215.237" x2="363.001" y2="247.492" gradientUnits="userSpaceOnUse">
<stop stop-color="white"/>
<stop offset="1" stop-color="white"/>
</linearGradient>
<linearGradient id="paint14_linear_22_275" x1="363.001" y1="215.237" x2="363.001" y2="247.492" gradientUnits="userSpaceOnUse">
<stop stop-color="white"/>
<stop offset="1" stop-color="white" stop-opacity="0"/>
</linearGradient>
<linearGradient id="paint15_linear_22_275" x1="363.001" y1="215.237" x2="363.001" y2="247.492" gradientUnits="userSpaceOnUse">
<stop stop-color="white"/>
<stop offset="1" stop-color="white"/>
</linearGradient>
<linearGradient id="paint16_linear_22_275" x1="363.001" y1="215.237" x2="363.001" y2="247.492" gradientUnits="userSpaceOnUse">
<stop stop-color="white"/>
<stop offset="1" stop-color="white" stop-opacity="0"/>
</linearGradient>
<linearGradient id="paint17_linear_22_275" x1="363.001" y1="215.237" x2="363.001" y2="247.492" gradientUnits="userSpaceOnUse">
<stop stop-color="white"/>
<stop offset="1" stop-color="white"/>
</linearGradient>
<linearGradient id="paint18_linear_22_275" x1="363.001" y1="215.237" x2="363.001" y2="247.492" gradientUnits="userSpaceOnUse">
<stop stop-color="white"/>
<stop offset="1" stop-color="white" stop-opacity="0"/>
</linearGradient>
<linearGradient id="paint19_linear_22_275" x1="363.001" y1="215.237" x2="363.001" y2="247.492" gradientUnits="userSpaceOnUse">
<stop stop-color="white"/>
<stop offset="1" stop-color="white"/>
</linearGradient>
<linearGradient id="paint20_linear_22_275" x1="281" y1="194" x2="281" y2="201.254" gradientUnits="userSpaceOnUse">
<stop stop-color="#222222"/>
<stop offset="0.416667" stop-color="#222222"/>
<stop offset="1" stop-color="#222222" stop-opacity="0.8"/>
</linearGradient>
<linearGradient id="paint21_linear_22_275" x1="182" y1="345" x2="182" y2="352.254" gradientUnits="userSpaceOnUse">
<stop stop-color="#222222"/>
<stop offset="0.416667" stop-color="#222222"/>
<stop offset="1" stop-color="#222222" stop-opacity="0.8"/>
</linearGradient>
<linearGradient id="paint22_linear_22_275" x1="182" y1="105" x2="182" y2="112.254" gradientUnits="userSpaceOnUse">
<stop stop-color="#222222"/>
<stop offset="0.416667" stop-color="#222222"/>
<stop offset="1" stop-color="#222222" stop-opacity="0.8"/>
</linearGradient>
<linearGradient id="paint23_linear_22_275" x1="281" y1="258" x2="281" y2="265.254" gradientUnits="userSpaceOnUse">
<stop stop-color="#222222"/>
<stop offset="0.416667" stop-color="#222222"/>
<stop offset="1" stop-color="#222222" stop-opacity="0.8"/>
</linearGradient>
<linearGradient id="paint24_linear_22_275" x1="281" y1="226" x2="281" y2="233.254" gradientUnits="userSpaceOnUse">
<stop stop-color="#222222"/>
<stop offset="0.416667" stop-color="#222222"/>
<stop offset="1" stop-color="#222222" stop-opacity="0.8"/>
</linearGradient>
<linearGradient id="paint25_linear_22_275" x1="131" y1="226" x2="131" y2="233.254" gradientUnits="userSpaceOnUse">
<stop stop-color="#222222"/>
<stop offset="0.416667" stop-color="#222222"/>
<stop offset="1" stop-color="#222222" stop-opacity="0.8"/>
</linearGradient>
</defs>
</svg>
